<svg width="118" height="118" viewBox="0 0 118 118" fill="none" xmlns="http://www.w3.org/2000/svg">
<g clip-path="url(#clip0_1002_632)">
<path d="M72.8284 12.178C73.8424 10.8873 73.6242 10.1314 72.1738 9.91016" stroke="#BD7636" stroke-width="2"/>
<path d="M72.1738 9.91016L71.0215 9.21875" stroke="#7C5628" stroke-width="2"/>
<path d="M71.0213 9.21881C68.9624 8.14943 66.7806 7.59323 64.4759 7.55021C64.3605 7.54863 64.2476 7.59344 64.1579 7.67641C64.0681 7.75938 64.0076 7.87495 63.9873 8.00193C63.9197 8.44443 63.7169 8.78552 63.3789 9.02521" stroke="#BD7636" stroke-width="2"/>
<path d="M71.021 9.21875C71.0026 10.4909 70.5539 11.5265 69.6751 12.3255C69.5778 12.4117 69.4523 12.464 69.3156 12.4756C69.1789 12.4871 69.0373 12.4573 68.9099 12.39C67.4718 11.6402 65.923 11.4282 64.2637 11.7539" stroke="#4A4548" stroke-width="2"/>
<path d="M64.2639 11.754C64.4544 10.912 64.3131 10.1561 63.8398 9.48621" stroke="#584037" stroke-width="2"/>
<path d="M44.9411 18.244C43.9147 17.9736 43.5306 17.359 43.7887 16.4003" stroke="#4D677E" stroke-width="2"/>
<path d="M72.1724 9.91016C71.6869 10.8505 71.6746 11.7078 72.1356 12.4822" stroke="#4A4548" stroke-width="2"/>
<path d="M72.0996 14.9805L71.4082 15.4414" stroke="#7F5C2C" stroke-width="2"/>
<path d="M71.4084 15.4414C69.8904 16.394 68.2126 16.7904 66.375 16.6306" stroke="#4A4548" stroke-width="2"/>
<path d="M66.3752 16.6306L64.5684 16.3633" stroke="#7F5C2C" stroke-width="2"/>
<path d="M63.877 11.9844L64.2641 11.7539" stroke="#162028" stroke-width="2"/>
<path d="M78.3596 51.5882C78.6054 49.5847 77.7727 48.0851 75.8613 47.0895" stroke="#C17C3A" stroke-width="2"/>
<path d="M75.1697 47.4766C74.2386 49.4217 71.0028 49.4862 69.3711 52.0491" stroke="#C17C3A" stroke-width="2"/>
<path d="M69.3711 52.0491L58.3086 52.1228" stroke="#9F6325" stroke-width="2"/>
<path d="M58.3088 52.1228L53.5059 48.8041" stroke="#A56522" stroke-width="2"/>
<path d="M37.9629 24.8537C40.0893 25.032 41.8655 24.1992 43.2913 22.3555" stroke="#C17C3A" stroke-width="2"/>
<path d="M66.375 16.6307L65.6836 17.7831" stroke="#C17C3A" stroke-width="2"/>
<path d="M65.6828 17.783C61.2947 19.8295 62.5392 25.96 63.5164 29.6198C63.5299 29.6711 63.5558 29.7183 63.5918 29.7572C63.6279 29.7961 63.673 29.8256 63.7231 29.8429C63.7733 29.8602 63.8269 29.8649 63.8793 29.8565C63.9317 29.8482 63.9812 29.827 64.0234 29.795C67.7109 26.8911 72.6522 23.1298 72.1728 17.7461" stroke="#F9C88D" stroke-width="2"/>
<path d="M72.1734 17.7461L71.4082 15.4414" stroke="#C17C3A" stroke-width="2"/>
<path d="M72.1735 17.7461C70.7354 19.8111 63.1944 23.1022 65.6835 17.783" stroke="#C4B1A9" stroke-width="2"/>
<path d="M43.5952 20.0508C42.5197 19.2764 41.8805 18.2009 41.6777 16.8242" stroke="#4C372F" stroke-width="2"/>
<path d="M43.2912 21.2031L39.8711 22.0881" stroke="#7F5C4F" stroke-width="2"/>
<path d="M39.8709 22.0881C38.9305 20.9143 37.7659 20.0047 36.377 19.3594" stroke="#4C372F" stroke-width="2"/>
<path d="M39.8711 22.0881L37.5664 23.7014" stroke="#584037" stroke-width="2"/>
<path d="M76.7093 53.4688C76.1254 54.0772 75.434 54.28 74.6351 54.0772C74.4811 54.0372 74.328 54.0265 74.1885 54.0457C74.049 54.0649 73.9272 54.1137 73.833 54.1878C73.0033 54.8147 72.5916 55.7151 72.5977 56.8889" stroke="#7F5C4F" stroke-width="2"/>
<path d="M72.5983 56.8889L71.8516 56.9903" stroke="#704E3E" stroke-width="2"/>
<path d="M71.8509 56.9904L71.9892 52.2612C71.9905 52.2118 71.9799 52.1629 71.958 52.1186C71.9362 52.0743 71.904 52.036 71.864 52.0069C71.8241 51.9779 71.7777 51.959 71.7289 51.9519C71.68 51.9448 71.6301 51.9497 71.5836 51.9662C70.7846 52.2489 70.0471 52.2765 69.3711 52.0491" stroke="#694C41" stroke-width="2"/>
<path d="M58.3091 52.1229L57.9219 55.6998" stroke="#4E3528" stroke-width="2"/>
<path d="M57.921 55.6997C58.1484 59.2397 56.6949 61.4737 53.5605 62.4017" stroke="#984E13" stroke-width="2"/>
<path d="M71.8516 56.9904C71.9499 58.1458 72.0267 59.3073 72.082 60.475C72.2295 63.3052 73.8889 65.9879 74.8292 68.6613C74.946 68.9993 75.1058 69.0393 75.3086 68.7811C76.0645 67.8224 73.8059 66.2091 75.8248 66.1077" stroke="#4E3528" stroke-width="2"/>
<path d="M75.8242 66.1078L77.4375 65.951" stroke="#914C16" stroke-width="2"/>
<path d="M77.4375 65.9509C79.06 65.3855 80.4305 64.4514 81.5491 63.1484" stroke="#9B6C4B" stroke-width="2"/>
<path d="M80.2036 71.2518L77.945 72.2013C76.1873 72.9388 75.081 72.6961 74.6262 71.4731L68.6525 55.331C68.6071 55.2092 68.5214 55.1056 68.4084 55.0358C68.2953 54.966 68.161 54.9337 68.0256 54.9438L57.9219 55.6998" stroke="#914C16" stroke-width="2"/>
<path d="M77.1702 54.8516L75.2158 58.2256C75.1433 58.3502 75.0424 58.4583 74.9199 58.5426C74.7975 58.6269 74.6563 58.6854 74.5059 58.7142C73.2522 58.9723 72.6161 58.3639 72.5977 56.8889" stroke="#644536" stroke-width="2"/>
<path d="M84.8125 114.349L77.207 112.201" stroke="#A15720" stroke-width="2"/>
<path d="M65.4527 111.584C62.7363 111.283 60.155 110.342 57.709 108.763" stroke="#A15720" stroke-width="2"/>
<path d="M79.2812 59.9589L77.4375 62.6507" stroke="#984E13" stroke-width="2"/>
<path d="M77.4366 62.6507C77.4673 62.3557 77.4151 62.0976 77.2798 61.8763C77.25 61.8278 77.208 61.7885 77.1573 61.7616C77.1067 61.7347 77.049 61.7212 76.9891 61.7221C76.9293 61.723 76.8691 61.7383 76.8137 61.7668C76.7584 61.7953 76.7096 61.836 76.6714 61.8855C75.9339 62.8259 75.5252 63.9598 75.4453 65.2873" stroke="#704E3E" stroke-width="2"/>
<path d="M75.446 65.2872C74.9297 65.6191 75.0557 65.8926 75.824 66.1077" stroke="#984E13" stroke-width="2"/>
<path d="M79.7791 62.2266C79.2352 62.8995 76.571 65.1489 77.4375 65.9509" stroke="#E58536" stroke-width="2"/>
<path d="M75.4453 65.2872L77.4366 62.6506" stroke="#B3652C" stroke-width="2"/>
<path d="M68.9662 0H69.888C75.2472 0.995625 77.177 4.0163 75.6774 9.06203C75.5943 9.3476 75.6139 9.64853 75.7327 9.91016C76.9926 12.5713 76.0247 13.3272 72.8288 12.178C73.8429 10.8873 73.6247 10.1314 72.1743 9.91016L71.022 9.21875C68.9631 8.14937 66.7813 7.59318 64.4766 7.55016C64.3612 7.54858 64.2483 7.59338 64.1586 7.67635C64.0688 7.75932 64.0083 7.8749 63.9881 8.00187C63.9204 8.44438 63.7176 8.78547 63.3796 9.02516C61.4314 7.79599 61.4652 6.64365 63.481 5.56812C63.742 5.42568 63.9394 5.19209 64.0341 4.91359C64.8454 2.49828 66.4894 0.860417 68.9662 0Z" fill="#EF8716"/>
<path d="M71.0213 9.21881C71.0028 10.491 70.5542 11.5266 69.6753 12.3255C69.578 12.4117 69.4526 12.4641 69.3158 12.4756C69.1791 12.4872 69.0376 12.4573 68.9102 12.3901C67.472 11.6403 65.9233 11.4282 64.2639 11.754C64.4544 10.912 64.3131 10.156 63.8398 9.48615L63.3789 9.02521C63.7169 8.78552 63.9197 8.44443 63.9873 8.00193C64.0076 7.87495 64.0681 7.75938 64.1579 7.67641C64.2476 7.59344 64.3605 7.54863 64.4759 7.55021C66.7806 7.59323 68.9624 8.14943 71.0213 9.21881Z" fill="#8B6556"/>
<path d="M44.9411 18.2439C43.9147 17.9735 43.5306 17.3589 43.7887 16.4001L47.4209 14.3812C47.6877 14.232 47.8783 13.9599 47.9565 13.6165C48.0347 13.2732 47.995 12.8826 47.845 12.519C47.4148 11.4681 46.7326 10.6231 45.7984 9.98389C45.4297 9.72577 45.4328 9.55676 45.8077 9.47686C47.1597 9.16342 49.0588 10.1037 51.5048 12.2978C51.7708 12.5376 51.9818 12.838 52.1234 13.1785C52.265 13.519 52.3339 13.8915 52.3253 14.2706L52.3161 14.9712C52.3142 15.0497 52.3322 15.1272 52.3686 15.1975C52.405 15.2678 52.4588 15.329 52.5258 15.3763C52.5928 15.4237 52.6711 15.4559 52.7547 15.4704C52.8383 15.4848 52.9248 15.4812 53.0075 15.4598C53.5053 15.3246 53.9109 15.4506 54.2244 15.8378C54.3084 15.9438 54.3459 16.0868 54.3308 16.244C54.3158 16.4012 54.2491 16.5633 54.1414 16.7044C53.6159 17.4142 51.0255 19.7189 50.1866 18.4098C50.1303 18.3234 50.104 18.1994 50.1105 18.0504C50.117 17.9015 50.1559 17.7328 50.2234 17.5617C51.6339 13.9664 45.3375 17.9673 44.9411 18.2439Z" fill="#76B3E5"/>
<path d="M71.022 9.21875L72.1743 9.91016C71.6888 10.8505 71.6765 11.7078 72.1374 12.4822L72.1006 14.9805L71.4091 15.4414C69.8911 16.394 68.2133 16.7904 66.3757 16.6306L64.5688 16.3633L63.269 15.2755C63.1655 15.1878 63.0903 15.0712 63.0526 14.94C63.0149 14.8089 63.0164 14.6691 63.057 14.538L63.8774 11.9844L64.2646 11.7539C65.924 11.4282 67.4727 11.6402 68.9109 12.39C69.0383 12.4573 69.1798 12.4871 69.3165 12.4756C69.4533 12.464 69.5787 12.4117 69.676 12.3255C70.5549 11.5265 71.0035 10.4909 71.022 9.21875Z" fill="#082439"/>
<path d="M63.8392 9.48608C64.3124 10.156 64.4537 10.9119 64.2632 11.7539L63.876 11.9844C63.7716 11.7201 63.5902 11.5634 63.3321 11.5142C63.1978 11.4915 63.0632 11.5062 62.9543 11.5555C62.8454 11.6049 62.7699 11.6854 62.7421 11.7816C62.275 13.3364 62.0323 13.4286 62.0138 12.0581C62.0106 11.9854 62.0537 11.9063 62.136 11.8341C62.2182 11.762 62.3346 11.7011 62.4656 11.6617C63.5349 11.3298 63.9928 10.6046 63.8392 9.48608Z" fill="#241B17"/>
<path d="M72.1744 9.91016C73.6248 10.1314 73.843 10.8873 72.8289 12.178L72.1375 12.4822C71.6766 11.7078 71.6889 10.8505 72.1744 9.91016Z" fill="#8B6556"/>
<path d="M72.0999 14.9805C74.0727 19.5622 78.2304 20.4564 80.194 24.2822C83.82 31.356 86.2814 37.551 87.5782 42.8672C88.5462 46.8312 82.5816 52.0583 78.3595 51.5881C78.6053 49.5846 77.7725 48.085 75.8612 47.0894C77.4468 44.7171 77.7479 42.4093 76.7646 40.1661C76.6576 39.9173 76.6543 39.6144 76.7554 39.318C76.9275 38.7894 76.8507 38.3777 76.5249 38.0827C76.4865 38.047 76.4391 38.0233 76.3873 38.014C76.3356 38.0047 76.2812 38.01 76.2293 38.0294C76.1775 38.0488 76.13 38.0817 76.0914 38.125C76.0527 38.1682 76.0243 38.2203 76.0087 38.2763C75.1728 41.3123 74.8932 44.3791 75.1698 47.4766C74.2387 49.4217 71.0029 49.4862 69.3712 52.0491L58.3087 52.1228L53.5057 48.8041C53.1677 46.9849 53.1585 45.3132 53.478 43.7891C53.7485 42.5107 53.4719 42.3786 52.6484 43.3927C50.104 46.5178 47.0895 44.0011 45.1904 41.5858C41.3615 36.706 38.9524 31.1286 37.9629 24.8537C40.0893 25.032 41.8655 24.1992 43.2913 22.3555C44.3146 26.5684 46.4718 28.2555 48.5184 31.3714C48.9701 32.0536 50.2238 33.0492 50.2791 31.353C50.2848 31.0367 50.3823 30.7475 50.5557 30.5325C52.6023 27.8959 53.7177 25.0381 56.2437 22.9086C58.954 20.6346 61.7288 18.4529 64.5682 16.3633L66.3751 16.6306L65.6837 17.783C61.2955 19.8295 62.5401 25.96 63.5173 29.6198C63.5307 29.6711 63.5566 29.7183 63.5927 29.7572C63.6288 29.7961 63.6739 29.8256 63.724 29.8429C63.7741 29.8602 63.8278 29.8649 63.8801 29.8565C63.9325 29.8482 63.982 29.827 64.0243 29.795C67.7118 26.8911 72.653 23.1298 72.1737 17.7461L71.4085 15.4414L72.0999 14.9805Z" fill="#F6931E"/>
<path d="M71.4083 15.4414L72.1735 17.7461C70.7354 19.8111 63.1944 23.1022 65.6835 17.783L66.3749 16.6306C68.2125 16.7904 69.8903 16.394 71.4083 15.4414Z" fill="#8B6556"/>
<path d="M43.7888 16.4002C43.5307 17.3589 43.9148 17.9735 44.9412 18.2439L43.5952 20.0508C42.5197 19.2764 41.8805 18.2009 41.6777 16.8242C42.2616 15.9761 42.9653 15.8347 43.7888 16.4002Z" fill="#241B17"/>
<path d="M41.6777 16.8242C41.8805 18.2009 42.5197 19.2764 43.5952 20.0507L43.291 21.2031L39.8709 22.0881C38.9305 20.9142 37.7659 20.0047 36.377 19.3593C37.4709 17.3128 39.2378 16.4677 41.6777 16.8242Z" fill="#735247"/>
<path d="M65.6828 17.783C63.1938 23.1022 70.7347 19.8111 72.1728 17.7461C72.6522 23.1298 67.7109 26.8911 64.0234 29.795C63.9812 29.827 63.9317 29.8482 63.8793 29.8565C63.8269 29.8649 63.7733 29.8602 63.7231 29.8429C63.673 29.8256 63.6279 29.7961 63.5918 29.7572C63.5558 29.7183 63.5299 29.6711 63.5164 29.6198C62.5392 25.96 61.2947 19.8295 65.6828 17.783Z" fill="#FCFCFC"/>
<path d="M36.3775 19.3594C37.7665 20.0047 38.9311 20.9143 39.8714 22.0881L37.5667 23.7014L33.8423 25.4438C33.6575 25.5295 33.4767 25.5879 33.3202 25.6124C33.1638 25.6368 33.0381 25.6263 32.9573 25.582C32.1522 25.1027 31.5991 24.4174 31.298 23.5263C31.283 23.4739 31.3235 23.3845 31.4126 23.2736C31.5018 23.1626 31.6339 23.0368 31.7866 22.9178L36.3775 19.3594Z" fill="#241B17"/>
<path d="M43.2912 21.2031V22.3555C41.8654 24.1992 40.0893 25.032 37.9628 24.8537L37.5664 23.7014L39.8711 22.0881L43.2912 21.2031Z" fill="#8B6556"/>
<path d="M75.8611 47.0894C77.7724 48.085 78.6052 49.5846 78.3594 51.5881C77.3822 51.8032 76.8321 52.4301 76.7092 53.4687C76.1254 54.0772 75.434 54.28 74.635 54.0772C74.4811 54.0372 74.328 54.0264 74.1885 54.0457C74.049 54.0649 73.9271 54.1136 73.833 54.1878C73.0033 54.8147 72.5915 55.715 72.5977 56.8889L71.8509 56.9903L71.9892 52.2611C71.9905 52.2117 71.9799 52.1628 71.958 52.1185C71.9362 52.0742 71.904 52.0359 71.864 52.0068C71.8241 51.9778 71.7777 51.9589 71.7289 51.9518C71.68 51.9447 71.6301 51.9496 71.5836 51.9661C70.7846 52.2488 70.0471 52.2764 69.3711 52.049C71.0028 49.4862 74.2386 49.4217 75.1697 47.4765L75.8611 47.0894Z" fill="#8B6556"/>
<path d="M53.5058 48.804L58.3087 52.1228L57.9216 55.6996C58.149 59.2396 56.6955 61.4736 53.5611 62.4017L49.3297 59.0737C49.2108 58.9806 49.1158 58.8663 49.0531 58.7408C48.9904 58.6154 48.9619 58.4828 48.9702 58.3546C49.1084 55.8564 49.0439 48.5828 53.5058 48.804Z" fill="#543725"/>
<path d="M69.3716 52.049C70.0476 52.2764 70.7851 52.2488 71.5841 51.966C71.6306 51.9496 71.6805 51.9447 71.7293 51.9518C71.7782 51.9589 71.8246 51.9778 71.8645 52.0068C71.9044 52.0358 71.9367 52.0742 71.9585 52.1185C71.9803 52.1628 71.991 52.2117 71.9897 52.261L71.8514 56.9903C71.9497 58.1457 72.0266 59.3072 72.0819 60.475C72.2294 63.3051 73.8887 65.9878 74.8291 68.6612C74.9458 68.9992 75.1056 69.0392 75.3084 68.781C76.0644 67.8223 73.8058 66.209 75.8247 66.1076L77.438 65.9509C79.0605 65.3855 80.431 64.4513 81.5495 63.1484L83.9741 69.0945C84.0077 69.1787 84.0215 69.2698 84.0146 69.3624C84.0077 69.4551 83.9803 69.5475 83.9339 69.6342C83.8876 69.7209 83.8232 69.8001 83.7446 69.8673C83.6661 69.9345 83.5748 69.9883 83.4763 70.0256L80.2036 71.2517L77.945 72.2012C76.1873 72.9387 75.081 72.6959 74.6262 71.4729L68.6525 55.3309C68.6071 55.2091 68.5214 55.1055 68.4084 55.0357C68.2953 54.9658 68.161 54.9336 68.0256 54.9437L57.9219 55.6996L58.3091 52.1228L69.3716 52.049Z" fill="#47332B"/>
<path d="M76.7093 53.4688L77.1702 54.8516L75.2158 58.2256C75.1434 58.3502 75.0425 58.4583 74.92 58.5426C74.7975 58.6269 74.6564 58.6854 74.506 58.7142C73.2523 58.9723 72.6162 58.3639 72.5977 56.8889C72.5916 55.7151 73.0033 54.8147 73.833 54.1878C73.9272 54.1137 74.049 54.0649 74.1885 54.0457C74.328 54.0265 74.4811 54.0372 74.6351 54.0772C75.434 54.28 76.1254 54.0772 76.7093 53.4688Z" fill="#735247"/>
<path d="M80.2027 71.2517C82.7655 79.8528 86.3977 88.9148 87.1998 97.4237C87.5224 100.89 89.0896 113.031 84.8121 114.349L77.2066 112.201L77.2527 107.168C77.2527 106.781 77.3111 106.47 77.4279 106.237C77.7413 105.598 77.6123 105.048 77.0407 104.587C76.9649 104.524 76.9003 104.408 76.8533 104.249C76.8064 104.09 76.7788 103.895 76.7734 103.683C76.5705 98.6314 74.948 94.5751 73.9432 89.975C72.3115 82.4986 67.9326 74.9115 64.9918 67.7854C64.875 67.4904 64.7982 67.4997 64.7613 67.8131C64.2543 72.3856 62.0879 84.5359 65.9598 89.9381C66.1564 90.2085 66.2732 90.4881 66.3101 90.777C67.2012 97.5989 67.699 104.445 67.8035 111.316C67.8054 111.376 67.7938 111.435 67.7695 111.49C67.7453 111.545 67.7089 111.595 67.6628 111.636C67.6167 111.677 67.5619 111.708 67.5019 111.728C67.442 111.747 67.3783 111.755 67.3149 111.75L65.4527 111.584C62.7363 111.283 60.155 110.342 57.709 108.763C57.3095 102.408 56.8977 96.0348 56.4737 89.6431C56.4307 89.0715 56.0373 88.3494 55.2937 87.4767C55.0903 87.2314 54.9707 86.9501 54.9526 86.6747L53.5605 62.4017C56.6949 61.4737 58.1484 59.2397 57.921 55.6997L68.0248 54.9437C68.1601 54.9336 68.2944 54.9659 68.4075 55.0357C68.5206 55.1055 68.6062 55.2091 68.6516 55.3309L74.6254 71.4729C75.0802 72.696 76.1864 72.9387 77.9441 72.2012L80.2027 71.2517Z" fill="#DB6501"/>
<path d="M77.1708 54.8516L79.2819 59.9588L77.4381 62.6506C77.4689 62.3556 77.4166 62.0975 77.2814 61.8763C77.2516 61.8278 77.2095 61.7884 77.1589 61.7615C77.1083 61.7347 77.0505 61.7211 76.9907 61.722C76.9308 61.7229 76.8706 61.7383 76.8153 61.7667C76.76 61.7952 76.7111 61.836 76.673 61.8855C75.9355 62.8258 75.5268 63.9597 75.4469 65.2872C74.9306 65.6191 75.0566 65.8926 75.8248 66.1077C73.8059 66.2091 76.0645 67.8223 75.3086 68.7811C75.1058 69.0392 74.946 68.9993 74.8292 68.6613C73.8889 65.9878 72.2295 63.3052 72.082 60.475C72.0267 59.3073 71.9499 58.1457 71.8516 56.9903L72.5983 56.8889C72.6167 58.3639 73.2528 58.9723 74.5066 58.7142C74.6569 58.6854 74.7981 58.6269 74.9206 58.5426C75.043 58.4583 75.1439 58.3502 75.2164 58.2256L77.1708 54.8516Z" fill="#543725"/>
<path d="M79.7788 62.2266C79.2349 62.8996 76.5707 65.1489 77.4372 65.951L75.824 66.1077C75.0557 65.8926 74.9297 65.6191 75.446 65.2872L77.4372 62.6506L79.281 59.9588C80.0738 59.2643 80.6208 59.2428 80.9219 59.8942C80.9693 59.9946 80.9806 60.1211 80.9546 60.2606C80.9287 60.4001 80.8664 60.5474 80.7744 60.6871L79.7788 62.2266Z" fill="#DB6501"/>
<path d="M81.5491 63.1485C80.4305 64.4514 79.06 65.3855 77.4375 65.951C76.571 65.1489 79.2352 62.8995 79.7791 62.2266C82.6307 60.4504 83.2207 60.7577 81.5491 63.1485Z" fill="#EEA56B"/>
<path d="M77.4366 62.6506L75.4453 65.2871C75.5252 63.9596 75.9339 62.8257 76.6714 61.8854C76.7096 61.8359 76.7584 61.7952 76.8137 61.7667C76.8691 61.7382 76.9293 61.7229 76.9891 61.722C77.049 61.7211 77.1067 61.7346 77.1573 61.7615C77.208 61.7884 77.25 61.8277 77.2798 61.8762C77.4151 62.0975 77.4673 62.3556 77.4366 62.6506Z" fill="#8B6556"/>
<path d="M57.7092 108.763C60.1553 110.342 62.7365 111.283 65.453 111.584L65.3885 113.723C65.3853 113.855 65.3341 113.984 65.2427 114.091C65.1512 114.197 65.0244 114.275 64.8814 114.313C62.8902 114.856 61.0556 114.202 59.2119 114.478C57.571 114.727 50.4817 115.788 51.2653 112.708C51.2964 112.58 51.3665 112.46 51.4686 112.361C51.5707 112.262 51.701 112.188 51.8461 112.146C54.1324 111.452 56.0867 110.324 57.7092 108.763Z" fill="#66493F"/>
<path d="M77.2071 112.201L84.8126 114.349C87.1818 119.383 79.0324 117.299 76.2299 118H73.0034C71.5099 117.871 70.8277 117.198 70.9568 115.981C70.9733 115.848 71.0302 115.721 71.1214 115.614C71.2125 115.506 71.3343 115.423 71.4731 115.373C73.5626 114.647 75.474 113.59 77.2071 112.201Z" fill="#66493F"/>
</g>
<defs>
<clipPath id="clip0_1002_632">
<rect width="118" height="118" fill="white"/>
</clipPath>
</defs>
</svg>
