<svg width="118" height="118" viewBox="0 0 118 118" fill="none" xmlns="http://www.w3.org/2000/svg">
<path d="M68.9096 37.9905C67.9508 38.7188 63.1386 40.3597 63.0188 40.71C63.0016 40.7575 62.9993 40.8082 63.0119 40.8571C63.0246 40.906 63.0519 40.9514 63.0911 40.9887C63.1303 41.026 63.1799 41.0539 63.2352 41.0697C63.2904 41.0855 63.3493 41.0887 63.406 41.0788C65.6984 40.6916 67.8003 39.9111 69.7116 38.7372" stroke="#A2E9F3" stroke-width="2"/>
<path d="M88.0391 61.9592H76.7461" stroke="#C39AA1" stroke-width="2"/>
<path d="M76.7459 61.9592L76.4785 61.0742" stroke="#8AB4BF" stroke-opacity="0.996" stroke-width="2"/>
<path d="M76.4785 61.0742L76.709 60.3828" stroke="#C3DFD5" stroke-width="2"/>
<path d="M76.7095 60.3828C77.1274 59.0553 77.1796 57.7432 76.8662 56.4464C76.8527 56.3876 76.8269 56.3323 76.7905 56.2844C76.754 56.2365 76.7079 56.1971 76.6552 56.169C76.6025 56.1409 76.5446 56.1248 76.4855 56.1217C76.4264 56.1187 76.3676 56.1288 76.313 56.1514C75.4588 56.4956 75.0009 57.1378 74.9395 58.0781" stroke="#8AB4BF" stroke-opacity="0.996" stroke-width="2"/>
<path d="M74.9392 58.0781C74.8839 58.5452 74.721 58.9723 74.4506 59.3595C74.2171 59.6914 74.0696 59.6453 74.0081 59.2212L73.2245 53.4779C73.218 53.4238 73.2003 53.3716 73.1726 53.3247C73.145 53.2777 73.1079 53.2369 73.0638 53.2049C73.0197 53.1729 72.9694 53.1503 72.9162 53.1386C72.8629 53.1269 72.8079 53.1263 72.7544 53.1368C67.7855 54.0864 62.4109 51.625 58.4561 49.1175C58.29 49.011 58.0996 48.9497 57.9023 48.9391C57.705 48.9286 57.507 48.9692 57.3264 49.0572C57.1459 49.1452 56.9885 49.2777 56.8686 49.4429C56.7487 49.608 56.6701 49.8004 56.64 50.0025C56.2958 52.2211 55.2265 53.9757 53.4319 55.2664C53.3023 55.3595 53.1978 55.4778 53.1285 55.6101C53.0591 55.7423 53.0271 55.8842 53.0355 56.0223C53.0846 56.8397 53.2137 57.6479 53.4227 58.4468C54.1417 61.2217 51.8647 57.9121 51.625 57.8107" stroke="#C3DFD5" stroke-width="2"/>
<path d="M51.6248 57.8108L51.3574 57.1562" stroke="#769DAC" stroke-width="2"/>
<path d="M51.3579 57.1563C51.9909 55.3924 51.4777 54.9315 49.8184 55.7734" stroke="#C3DFD5" stroke-width="2"/>
<path d="M49.8184 55.7734C49.3697 55.3863 49.2161 55.5399 49.3574 56.2344" stroke="#769DAC" stroke-width="2"/>
<path d="M49.3574 56.2344L48.8965 56.9258" stroke="#C3DFD5" stroke-width="2"/>
<path d="M48.8952 56.9258C48.213 57.7063 48.2652 58.3977 49.0519 59" stroke="#8AB4BF" stroke-opacity="0.996" stroke-width="2"/>
<path d="M49.0527 59L49.3201 59.9588" stroke="#C3DFD5" stroke-width="2"/>
<path d="M49.3203 59.9587L49.7812 60.8069" stroke="#8AB4BF" stroke-opacity="0.996" stroke-width="2"/>
<path d="M49.7812 60.8069C50.3344 61.1449 50.9274 61.3293 51.5605 61.36C51.6299 61.3648 51.6982 61.3808 51.7608 61.4069C51.8234 61.433 51.8788 61.4686 51.9233 61.5114C51.9678 61.5542 52.0004 61.6031 52.019 61.6549C52.0375 61.7067 52.0414 61.7602 52.0306 61.8117C51.9815 62.0453 51.8462 62.2481 51.625 62.4202" stroke="#C3DFD5" stroke-width="2"/>
<path d="M51.625 62.4202H39.1797" stroke="#C39AA1" stroke-width="2"/>
<path d="M39.1795 62.4202L39.1426 61.7656" stroke="#C1CBCD" stroke-width="2"/>
<path d="M39.1798 62.4201C38.1719 62.2542 37.4068 62.5215 36.8844 63.2221C36.73 63.4298 36.6544 63.732 36.6723 64.0703C36.9981 69.7552 36.9458 75.4431 36.5156 81.1342" stroke="#FC8480" stroke-width="2"/>
<path d="M91.533 92.8789L91.2011 98.3272C91.1917 98.4846 91.1215 98.6325 91.0049 98.7405C90.8884 98.8485 90.7343 98.9084 90.5742 98.908L37.5664 98.8711C37.2058 98.8726 36.8569 98.7057 36.5925 98.4052C36.3281 98.1047 36.1684 97.6938 36.1467 97.2578L35.9531 93.303" stroke="#FEA9A9" stroke-width="2"/>
<path d="M35.9529 93.303L35.6855 92.418" stroke="#B0575E" stroke-width="2"/>
<path d="M76.7461 61.9592H73.75" stroke="#C56D71" stroke-opacity="0.996" stroke-width="2"/>
<path d="M74.9395 58.0781C76.2239 56.726 76.7863 56.8244 76.6265 58.3731C76.6149 58.4973 76.5646 58.6202 76.4806 58.7301C76.3967 58.8399 76.2818 58.9329 76.1471 59C75.3359 59.4056 75.5233 59.8666 76.7095 60.3828" stroke="#C5B2A6" stroke-opacity="0.996" stroke-width="2"/>
<path d="M76.4787 61.0741C75.2373 60.7115 74.3277 61.0065 73.75 61.9591" stroke="#C5B2A6" stroke-opacity="0.996" stroke-width="2"/>
<path d="M73.75 61.9592L51.625 62.4202" stroke="#FD9888" stroke-width="2"/>
<path d="M49.7812 60.8068C51.0043 58.7848 50.8506 58.5021 49.3203 59.9587" stroke="#C5B2A6" stroke-opacity="0.996" stroke-width="2"/>
<path d="M49.0532 59C49.3789 58.2379 49.3267 57.5465 48.8965 56.9258" stroke="#C5B2A6" stroke-opacity="0.996" stroke-width="2"/>
<path d="M49.3574 56.2344C49.9843 57.0272 50.7402 57.5527 51.6252 57.8108" stroke="#B09C93" stroke-width="2"/>
<path d="M51.3579 57.1562L49.8184 55.7734" stroke="#B09C93" stroke-width="2"/>
<path d="M35.6582 67.5365L36.5155 81.1342" stroke="#FDA88B" stroke-width="2"/>
<path d="M36.5152 81.1342C36.2571 83.5587 36.6996 90.8507 35.6855 92.4179" stroke="#FE775F" stroke-width="2"/>
<path d="M35.6858 92.418L25.5175 92.5101C25.3881 92.5103 25.2539 92.4747 25.1246 92.4061C24.9954 92.3375 24.8745 92.2376 24.7708 92.1137L22.125 88.9978" stroke="#B17B6A" stroke-width="2"/>
<path d="M22.1251 88.9977C19.212 85.0398 16.9626 80.7347 15.377 76.0823" stroke="#9E6153" stroke-opacity="0.992" stroke-width="2"/>
<path d="M35.9531 93.303L23.7383 93.0725" stroke="#B1ADB4" stroke-width="2"/>
<path d="M23.7383 93.0725V92.9158" stroke="#77707C" stroke-opacity="0.996" stroke-width="2"/>
<path d="M30.6892 50.4727L28.8086 51.8186" stroke="#FEBC93" stroke-width="2"/>
<path d="M28.8082 51.8186L28.3565 48.7396C28.3325 48.5725 28.3029 48.4188 28.2716 48.2987C28.2404 48.1786 28.2089 48.0977 28.1813 48.0666C27.0935 46.8436 26.9921 47.114 27.8771 48.8779C28.1229 49.3695 28.2059 50.74 28.126 52.9894C28.0891 53.9912 27.6343 54.5474 26.7616 54.658C26.5996 54.6805 26.4344 54.6628 26.2802 54.6066C26.126 54.5504 25.9874 54.4573 25.8766 54.3354C24.5799 52.9157 23.91 51.2471 23.8669 49.3296C23.8608 48.9547 23.7317 48.9024 23.4797 49.1729C22.7914 49.9226 21.9494 50.1439 20.9538 49.8366C20.794 49.7884 20.6352 49.7712 20.5019 49.7879C20.3686 49.8046 20.2682 49.8541 20.2163 49.9288C19.6755 50.697 19.024 50.8753 18.2619 50.4635C18.1129 50.3823 17.9643 50.3229 17.8393 50.2945C17.7142 50.2662 17.6197 50.2705 17.5705 50.3068C17.1772 50.6202 16.873 51.0043 16.6579 51.4591C16.6359 51.5071 16.6041 51.55 16.5647 51.5848C16.5253 51.6196 16.4794 51.6454 16.4301 51.6604C16.3808 51.6753 16.3294 51.6791 16.2795 51.6714C16.2297 51.6637 16.1826 51.6447 16.1416 51.6158C14.8203 50.6571 14.642 50.7554 15.6069 51.9108C15.686 52.0083 15.7827 52.083 15.8813 52.1232C15.9799 52.1633 16.0749 52.1664 16.1508 52.1321C16.7285 51.8801 17.1987 51.496 17.5613 50.9797C17.628 50.8855 17.7365 50.8235 17.8669 50.8048C17.9973 50.7862 18.1408 50.8123 18.2712 50.8783C19.1193 51.3208 19.8568 51.1733 20.4837 50.4358C20.5787 50.3282 20.7007 50.2518 20.8307 50.2184C20.9606 50.1851 21.0914 50.1967 21.2027 50.2514C21.8112 50.5649 22.4227 50.5495 23.0372 50.2054C23.0709 50.1874 23.111 50.1865 23.1548 50.2025C23.1987 50.2185 23.2452 50.2511 23.2914 50.2982C23.3376 50.3452 23.3824 50.4057 23.4228 50.4755C23.4633 50.5453 23.4984 50.6229 23.5258 50.7032L24.3924 53.2383" stroke="#B09C93" stroke-width="2"/>
<path d="M24.3923 53.2383C21.2518 54.9038 17.9361 56.0654 14.4453 56.723" stroke="#FEBC93" stroke-width="2"/>
<path d="M22.1248 88.9978L22.0879 89.6523" stroke="#504052" stroke-opacity="0.992" stroke-width="2"/>
<path d="M28.8084 51.8186C28.1938 55.7335 26.7218 56.2067 24.3926 53.2383" stroke="#B17B6A" stroke-width="2"/>
<path d="M23.7383 93.0725L17.7461 93.303" stroke="#C6C3C8" stroke-opacity="0.996" stroke-width="2"/>
<path d="M17.9766 92.9158L17.7461 93.303" stroke="#645766" stroke-opacity="0.988" stroke-width="2"/>
<path d="M17.7456 93.303C15.5515 93.5427 14.771 94.8609 15.404 97.2578" stroke="#9E949E" stroke-opacity="0.992" stroke-width="2"/>
<path d="M107.905 92.8512C107.235 94.3877 106.897 96.0224 106.891 97.7556C106.89 97.84 106.879 97.9235 106.858 98.0014C106.837 98.0793 106.806 98.1498 106.768 98.209C106.729 98.2682 106.683 98.3149 106.633 98.3462C106.583 98.3776 106.53 98.393 106.476 98.3917L98.3448 98.3363C98.2931 98.3358 98.2421 98.3203 98.195 98.2906C98.1478 98.261 98.1053 98.2178 98.0701 98.1637C98.0349 98.1096 98.0076 98.0456 97.9899 97.9755C97.9721 97.9054 97.9643 97.8306 97.9668 97.7556C98.0283 95.9733 97.7978 94.3508 97.2754 92.8881" stroke="#C4F0F7" stroke-width="2"/>
<path d="M106.44 82.2773L104.863 82.4709" stroke="#C39AA1" stroke-width="2"/>
<path d="M99.1106 74.6166C98.2133 76.5033 98.3762 78.3655 99.5992 80.2031" stroke="#8B5D60" stroke-width="2"/>
<path d="M99.5256 81.8164C99.0893 82.5416 98.4102 82.7598 97.4883 82.4709" stroke="#C4BEAC" stroke-width="2"/>
<path d="M103.296 82.5908L100.715 82.4709" stroke="#4F7FA2" stroke-width="2"/>
<path d="M35.9438 26.2273C35.8331 25.4161 35.6672 18.963 35.6488 18.9445C35.323 18.668 35.154 18.8093 35.1417 19.3686L34.9942 26.9095C34.993 26.9773 35.0049 27.0447 35.0292 27.1078C35.0536 27.1709 35.0899 27.2285 35.1361 27.2773C35.1824 27.3261 35.2376 27.3652 35.2987 27.3922C35.3597 27.4193 35.4254 27.4338 35.492 27.435L42.1203 27.5825C42.1623 27.586 42.2079 27.566 42.2498 27.5258C42.2916 27.4857 42.3272 27.4276 42.3508 27.3612L42.4153 27.1861C42.4311 27.1449 42.426 27.1014 42.4004 27.059C42.3749 27.0166 42.3295 26.9764 42.2679 26.9416C42.2064 26.9068 42.1302 26.8783 42.0454 26.8584C41.9607 26.8384 41.8696 26.8275 41.7792 26.8265L36.4139 26.7528C36.3032 26.751 36.1948 26.697 36.1085 26.6006C36.0222 26.5041 35.9637 26.3717 35.9438 26.2273Z" stroke="#FEBC93" stroke-width="2"/>
<path d="M60.7612 54.7871C60.8534 54.2247 58.4105 53.1738 57.59 54.8331C57.4548 55.0974 57.5039 55.1312 57.7375 54.9346C58.5795 54.2216 59.4399 54.2063 60.3187 54.8885C60.3584 54.918 60.4043 54.9394 60.4522 54.9505C60.5001 54.9616 60.5484 54.9621 60.5926 54.952C60.6368 54.9419 60.6754 54.9214 60.7049 54.8926C60.7344 54.8637 60.7538 54.8274 60.7612 54.7871Z" stroke="#9D827C" stroke-opacity="0.992" stroke-width="2"/>
<path d="M66.7442 53.8559C67.4018 54.4705 68.0225 54.8515 68.6064 54.999C68.9751 55.0912 69.0397 54.9898 68.8 54.6948C68.2284 54.0126 67.5585 53.69 66.7903 53.7268C66.6735 53.733 66.6582 53.776 66.7442 53.8559Z" stroke="#9D827C" stroke-opacity="0.992" stroke-width="2"/>
<path d="M62.5123 58.8432C61.6642 59.6453 61.8486 60.982 62.6967 61.5351C62.9671 61.7072 63.047 61.6304 62.9364 61.3046C62.6844 60.5487 62.6352 59.7958 62.7889 59.046C62.8749 58.6527 62.7827 58.5851 62.5123 58.8432Z" stroke="#B09C93" stroke-width="2"/>
<path d="M66.8632 79.8067C66.8632 78.9901 66.5388 78.2069 65.9614 77.6295C65.3839 77.0521 64.6008 76.7277 63.7841 76.7277C62.9675 76.7277 62.1844 77.0521 61.6069 77.6295C61.0295 78.2069 60.7051 78.9901 60.7051 79.8067C60.7051 80.2111 60.7847 80.6115 60.9395 80.985C61.0942 81.3586 61.321 81.698 61.6069 81.9839C61.8928 82.2699 62.2323 82.4967 62.6058 82.6514C62.9794 82.8061 63.3798 82.8858 63.7841 82.8858C64.1885 82.8858 64.5889 82.8061 64.9624 82.6514C65.336 82.4967 65.6754 82.2699 65.9614 81.9839C66.2473 81.698 66.4741 81.3586 66.6288 80.985C66.7836 80.6115 66.8632 80.2111 66.8632 79.8067Z" stroke="#FEA9A9" stroke-width="2"/>
<path d="M85.3466 15.552C87.7342 8.52734 94.6851 13.1091 93.5605 18.8892C92.2575 25.6066 88.6315 30.7507 82.6823 34.3214C81.1797 35.2248 79.2161 34.5426 79.8245 32.5606C81.5822 26.8634 83.4229 21.1939 85.3466 15.552Z" fill="#FD5353"/>
<path d="M35.613 37.3543C34.3454 37.3543 33.0903 37.0946 31.9193 36.5901C30.7483 36.0856 29.6842 35.3461 28.788 34.4139C27.8917 33.4817 27.1807 32.375 26.6957 31.1569C26.2106 29.9389 25.9609 28.6335 25.9609 27.3151C25.9609 24.6525 26.9778 22.099 28.788 20.2163C30.5981 18.3336 33.0531 17.2759 35.613 17.2759C38.1728 17.2759 40.6279 18.3336 42.438 20.2163C44.2481 22.099 45.265 24.6525 45.265 27.3151C45.265 28.6335 45.0153 29.9389 44.5303 31.1569C44.0452 32.375 43.3343 33.4817 42.438 34.4139C41.5417 35.3461 40.4777 36.0856 39.3066 36.5901C38.1356 37.0946 36.8805 37.3543 35.613 37.3543ZM35.9448 26.2273C35.8342 25.416 35.6683 18.9629 35.6498 18.9445C35.3241 18.6679 35.1551 18.8093 35.1428 19.3685L34.9953 26.9095C34.9941 26.9773 35.006 27.0447 35.0303 27.1078C35.0547 27.1709 35.091 27.2285 35.1372 27.2773C35.1835 27.3261 35.2387 27.3651 35.2997 27.3922C35.3608 27.4192 35.4265 27.4338 35.4931 27.4349L42.1214 27.5824C42.1634 27.5859 42.209 27.566 42.2509 27.5258C42.2927 27.4856 42.3283 27.4276 42.3519 27.3612L42.4164 27.186C42.4322 27.1449 42.4271 27.1014 42.4015 27.059C42.3759 27.0166 42.3306 26.9764 42.269 26.9416C42.2074 26.9068 42.1313 26.8783 42.0465 26.8583C41.9617 26.8384 41.8706 26.8275 41.7803 26.8265L36.415 26.7528C36.3043 26.751 36.1959 26.697 36.1096 26.6005C36.0233 26.5041 35.9648 26.3716 35.9448 26.2273Z" fill="#FF9B6A"/>
<path d="M36.4139 26.7528L41.7792 26.8265C41.8696 26.8275 41.9607 26.8384 42.0454 26.8584C42.1302 26.8783 42.2064 26.9068 42.2679 26.9416C42.3295 26.9764 42.3749 27.0166 42.4004 27.059C42.426 27.1014 42.4311 27.1449 42.4153 27.1861L42.3508 27.3612C42.3272 27.4276 42.2916 27.4857 42.2498 27.5258C42.2079 27.566 42.1623 27.586 42.1203 27.5825L35.492 27.435C35.4254 27.4338 35.3597 27.4193 35.2987 27.3922C35.2376 27.3652 35.1824 27.3261 35.1361 27.2773C35.0899 27.2285 35.0536 27.1709 35.0292 27.1078C35.0049 27.0447 34.993 26.9773 34.9942 26.9095L35.1417 19.3686C35.154 18.8093 35.323 18.668 35.6488 18.9445C35.6672 18.963 35.8331 25.4161 35.9438 26.2273C35.9637 26.3717 36.0222 26.5041 36.1085 26.6006C36.1948 26.697 36.3032 26.751 36.4139 26.7528Z" fill="#FDDDBC"/>
<path d="M68.9099 37.9904C67.9512 38.7187 63.139 40.3596 63.0191 40.71C63.002 40.7575 62.9996 40.8082 63.0123 40.8571C63.025 40.906 63.0523 40.9513 63.0914 40.9886C63.1306 41.0259 63.1803 41.0539 63.2355 41.0697C63.2908 41.0855 63.3497 41.0886 63.4063 41.0787C65.6987 40.6915 67.8006 39.911 69.712 38.7372C75.2494 37.1269 78.0672 38.9154 78.1656 44.1025C78.184 45.4761 77.6309 47.2276 77.4834 48.8225C76.9302 54.8239 85.4023 57.7001 88.0388 61.9592H76.7459L76.4785 61.0742L76.709 60.3828C77.1269 59.0553 77.1791 57.7431 76.8657 56.4464C76.8523 56.3875 76.8264 56.3322 76.79 56.2843C76.7535 56.2364 76.7074 56.197 76.6547 56.169C76.6021 56.1409 76.5442 56.1247 76.4851 56.1217C76.426 56.1187 76.3671 56.1288 76.3126 56.1514C75.4583 56.4955 75.0004 57.1378 74.939 58.0781C74.8837 58.5452 74.7208 58.9723 74.4504 59.3595C74.2169 59.6914 74.0693 59.6453 74.0079 59.2212L73.2243 53.4779C73.2177 53.4238 73.2001 53.3716 73.1724 53.3247C73.1447 53.2777 73.1077 53.2369 73.0636 53.2049C73.0194 53.1729 72.9692 53.1503 72.916 53.1386C72.8627 53.1269 72.8076 53.1263 72.7541 53.1368C67.7852 54.0864 62.4107 51.625 58.4559 49.1175C58.2897 49.011 58.0994 48.9497 57.902 48.9391C57.7047 48.9286 57.5068 48.9692 57.3262 49.0572C57.1457 49.1452 56.9883 49.2778 56.8684 49.4429C56.7485 49.608 56.6699 49.8004 56.6398 50.0025C56.2956 52.2211 55.2262 53.9757 53.4316 55.2664C53.302 55.3595 53.1976 55.4778 53.1283 55.6101C53.0589 55.7423 53.0269 55.8842 53.0352 56.0223C53.0844 56.8397 53.2135 57.6479 53.4224 58.4468C54.1415 61.2217 51.8645 57.9121 51.6248 57.8107L51.3574 57.1562C51.9904 55.3924 51.4773 54.9314 49.8179 55.7734C49.3692 55.3862 49.2156 55.5399 49.357 56.2343L48.896 56.9257C48.2138 57.7063 48.2661 58.3977 49.0527 59L49.3201 59.9587L49.781 60.8068C50.3341 61.1449 50.9272 61.3292 51.5602 61.36C51.6297 61.3647 51.698 61.3807 51.7606 61.4068C51.8231 61.4329 51.8785 61.4686 51.9231 61.5114C51.9676 61.5541 52.0002 61.6031 52.0187 61.6549C52.0372 61.7067 52.0412 61.7601 52.0304 61.8117C51.9812 62.0452 51.846 62.248 51.6248 62.4201H39.1795L39.1426 61.7656C40.0583 59.4732 41.9727 57.8323 44.8859 56.8428C45.0395 56.7884 45.1654 56.6756 45.2362 56.5288C45.307 56.382 45.3169 56.2132 45.2638 56.0592C41.2168 44.7109 59.1288 27.6562 68.9099 37.9904Z" fill="#88E0EE"/>
<path d="M78.3125 39.0414C79.4581 39.0414 80.3867 38.1127 80.3867 36.9672C80.3867 35.8216 79.4581 34.8929 78.3125 34.8929C77.1669 34.8929 76.2383 35.8216 76.2383 36.9672C76.2383 38.1127 77.1669 39.0414 78.3125 39.0414Z" fill="#FD5353"/>
<path d="M68.9096 37.9905L69.7116 38.7372C67.8003 39.9111 65.6984 40.6916 63.406 41.0788C63.3493 41.0887 63.2904 41.0855 63.2352 41.0697C63.1799 41.0539 63.1303 41.026 63.0911 40.9887C63.0519 40.9514 63.0246 40.906 63.0119 40.8571C62.9993 40.8082 63.0016 40.7575 63.0188 40.71C63.1386 40.3597 67.9508 38.7188 68.9096 37.9905Z" fill="#BBF1F8"/>
<path d="M30.689 50.4726L28.8084 51.8186L28.3567 48.7395C28.3327 48.5725 28.3031 48.4188 28.2718 48.2987C28.2406 48.1786 28.2091 48.0976 28.1815 48.0665C27.0937 46.8435 26.9923 47.1139 27.8773 48.8778C28.1231 49.3695 28.2061 50.74 28.1262 52.9894C28.0893 53.9911 27.6345 54.5473 26.7618 54.658C26.5998 54.6804 26.4346 54.6628 26.2804 54.6065C26.1262 54.5503 25.9876 54.4572 25.8768 54.3353C24.58 52.9156 23.9101 51.247 23.8671 49.3295C23.861 48.9546 23.7319 48.9024 23.4799 49.1728C22.7916 49.9226 21.9496 50.1438 20.954 49.8365C20.7942 49.7883 20.6354 49.7712 20.5021 49.7878C20.3688 49.8045 20.2684 49.854 20.2165 49.9287C19.6757 50.697 19.0242 50.8752 18.2621 50.4634C18.1131 50.3822 17.9645 50.3228 17.8395 50.2945C17.7144 50.2661 17.6199 50.2704 17.5707 50.3067C17.1774 50.6201 16.8732 51.0043 16.6581 51.459C16.6361 51.5071 16.6043 51.55 16.5649 51.5848C16.5255 51.6195 16.4796 51.6453 16.4303 51.6603C16.381 51.6753 16.3296 51.679 16.2797 51.6713C16.2299 51.6636 16.1828 51.6447 16.1418 51.6158C14.8205 50.657 14.6422 50.7553 15.6071 51.9108C15.6862 52.0082 15.7828 52.083 15.8815 52.1231C15.9801 52.1632 16.075 52.1664 16.151 52.132C16.7287 51.88 17.1989 51.4959 17.5615 50.9797C17.6282 50.8855 17.7367 50.8234 17.8671 50.8048C17.9975 50.7861 18.141 50.8122 18.2713 50.8783C19.1195 51.3208 19.857 51.1733 20.4838 50.4358C20.5789 50.3281 20.7009 50.2517 20.8308 50.2184C20.9608 50.1851 21.0916 50.1967 21.2029 50.2514C21.8113 50.5648 22.4228 50.5495 23.0374 50.2053C23.0711 50.1874 23.1112 50.1864 23.155 50.2024C23.1989 50.2184 23.2454 50.251 23.2916 50.2981C23.3378 50.3452 23.3826 50.4056 23.423 50.4755C23.4634 50.5453 23.4986 50.6229 23.526 50.7031L24.3926 53.2383C21.2521 54.9038 17.9364 56.0653 14.4456 56.7229C10.5829 42.3417 26.6051 37.1976 30.689 50.4726Z" fill="#FDDDBC"/>
<path d="M28.8082 51.8186C28.1936 55.7335 26.7217 56.2068 24.3924 53.2383L23.5258 50.7032C23.4984 50.6229 23.4633 50.5453 23.4228 50.4755C23.3824 50.4057 23.3376 50.3452 23.2914 50.2982C23.2452 50.2511 23.1987 50.2185 23.1548 50.2025C23.111 50.1865 23.0709 50.1874 23.0372 50.2054C22.4227 50.5495 21.8112 50.5649 21.2027 50.2514C21.0914 50.1967 20.9606 50.1851 20.8307 50.2184C20.7007 50.2518 20.5787 50.3282 20.4837 50.4358C19.8568 51.1733 19.1193 51.3208 18.2712 50.8783C18.1408 50.8123 17.9973 50.7862 17.8669 50.8048C17.7365 50.8235 17.628 50.8855 17.5613 50.9797C17.1987 51.496 16.7285 51.8801 16.1508 52.1321C16.0749 52.1664 15.9799 52.1633 15.8813 52.1232C15.7827 52.083 15.686 52.0083 15.6069 51.9108C14.642 50.7554 14.8203 50.6571 16.1416 51.6158C16.1826 51.6447 16.2297 51.6637 16.2795 51.6714C16.3294 51.6791 16.3808 51.6753 16.4301 51.6604C16.4794 51.6454 16.5253 51.6196 16.5647 51.5848C16.6041 51.55 16.6359 51.5071 16.6579 51.4591C16.873 51.0043 17.1772 50.6202 17.5705 50.3068C17.6197 50.2705 17.7142 50.2662 17.8393 50.2945C17.9643 50.3229 18.1129 50.3823 18.2619 50.4635C19.024 50.8753 19.6755 50.697 20.2163 49.9288C20.2682 49.8541 20.3686 49.8046 20.5019 49.7879C20.6352 49.7712 20.794 49.7884 20.9538 49.8366C21.9494 50.1439 22.7914 49.9226 23.4797 49.1729C23.7317 48.9024 23.8608 48.9547 23.8669 49.3296C23.91 51.2471 24.5799 52.9157 25.8766 54.3354C25.9874 54.4573 26.126 54.5504 26.2802 54.6066C26.4344 54.6628 26.5996 54.6805 26.7616 54.658C27.6343 54.5474 28.0891 53.9912 28.126 52.9894C28.2059 50.74 28.1229 49.3695 27.8771 48.8779C26.9921 47.114 27.0935 46.8436 28.1813 48.0666C28.2089 48.0977 28.2404 48.1786 28.2716 48.2987C28.3029 48.4188 28.3325 48.5725 28.3565 48.7396L28.8082 51.8186Z" fill="#635A69"/>
<path d="M74.9395 58.0781C76.2239 56.726 76.7863 56.8243 76.6265 58.3731C76.6149 58.4972 76.5646 58.6202 76.4806 58.73C76.3967 58.8398 76.2818 58.9328 76.1471 59C75.3359 59.4056 75.5233 59.8665 76.7095 60.3828L76.479 61.0742C75.2375 60.7116 74.3279 61.0066 73.7502 61.9592L51.6252 62.4201C51.8465 62.248 51.9817 62.0452 52.0309 61.8117C52.0417 61.7601 52.0377 61.7067 52.0192 61.6549C52.0007 61.6031 51.9681 61.5541 51.9235 61.5114C51.879 61.4686 51.8236 61.4329 51.761 61.4068C51.6984 61.3807 51.6301 61.3647 51.5607 61.36C50.9277 61.3292 50.3346 61.1448 49.7815 60.8068C51.0045 58.7848 50.8509 58.5021 49.3205 59.9587L49.0532 59C49.3789 58.2379 49.3267 57.5465 48.8965 56.9257L49.3574 56.2343C49.9843 57.0271 50.7402 57.5526 51.6252 57.8107C51.8649 57.9121 54.142 61.2217 53.4229 58.4468C53.2139 57.6479 53.0849 56.8397 53.0357 56.0223C53.0273 55.8842 53.0594 55.7423 53.1287 55.6101C53.1981 55.4778 53.3025 55.3595 53.4321 55.2664C55.2267 53.9757 56.2961 52.2211 56.6402 50.0025C56.6703 49.8004 56.7489 49.608 56.8688 49.4429C56.9887 49.2777 57.1461 49.1452 57.3267 49.0572C57.5072 48.9692 57.7052 48.9286 57.9025 48.9391C58.0998 48.9497 58.2902 49.011 58.4563 49.1175C62.4112 51.625 67.7857 54.0864 72.7546 53.1368C72.8081 53.1263 72.8632 53.1269 72.9164 53.1386C72.9697 53.1503 73.0199 53.1729 73.064 53.2049C73.1082 53.2369 73.1452 53.2777 73.1729 53.3247C73.2005 53.3716 73.2182 53.4238 73.2248 53.4779L74.0084 59.2212C74.0698 59.6453 74.2173 59.6914 74.4509 59.3595C74.7213 58.9723 74.8841 58.5452 74.9395 58.0781ZM60.761 54.787C60.8532 54.2246 58.4102 53.1737 57.5898 54.8331C57.4546 55.0973 57.5037 55.1312 57.7373 54.9345C58.5792 54.2216 59.4397 54.2062 60.3185 54.8884C60.3582 54.918 60.4041 54.9393 60.452 54.9504C60.4999 54.9615 60.5482 54.962 60.5923 54.9519C60.6365 54.9418 60.6752 54.9213 60.7047 54.8925C60.7342 54.8637 60.7536 54.8274 60.761 54.787ZM66.744 53.8559C67.4016 54.4705 68.0223 54.8515 68.6062 54.999C68.9749 55.0912 69.0394 54.9898 68.7998 54.6948C68.2282 54.0126 67.5583 53.69 66.7901 53.7268C66.6733 53.733 66.6579 53.776 66.744 53.8559ZM62.5126 58.8432C61.6644 59.6453 61.8488 60.982 62.697 61.5351C62.9674 61.7072 63.0473 61.6304 62.9366 61.3046C62.6847 60.5487 62.6355 59.7958 62.7891 59.046C62.8752 58.6527 62.783 58.5851 62.5126 58.8432Z" fill="#FDDDBC"/>
<path d="M30.6884 50.4726C31.2599 50.3129 31.7455 50.3651 32.1449 50.6294C32.2501 50.6979 32.3386 50.8034 32.4029 50.9368C32.4672 51.0701 32.5052 51.2273 32.5137 51.3945C32.7595 56.9073 33.8074 62.288 35.6573 67.5366L36.5146 81.1342C36.2565 83.5587 36.699 90.8508 35.6849 92.418L25.5167 92.5101C25.3873 92.5103 25.253 92.4747 25.1238 92.4061C24.9945 92.3375 24.8736 92.2376 24.7699 92.1137L22.1242 88.9978C19.211 85.0399 16.9617 80.7347 15.376 76.0823C14.1284 70.1455 13.4063 64.1594 13.2096 58.1242C13.204 58.0104 13.2355 57.8879 13.3014 57.7674C13.3673 57.6468 13.4656 57.532 13.5876 57.4328L14.4449 56.723C17.9358 56.0653 21.2514 54.9038 24.392 53.2383C26.7212 56.2067 28.1932 55.7335 28.8077 51.8186L30.6884 50.4726Z" fill="#FF9B6A"/>
<path d="M57.59 54.8331C58.4105 53.1738 60.8534 54.2247 60.7612 54.7871C60.7538 54.8274 60.7344 54.8637 60.7049 54.8926C60.6754 54.9214 60.6368 54.9419 60.5926 54.952C60.5484 54.9621 60.5001 54.9616 60.4522 54.9505C60.4043 54.9394 60.3584 54.918 60.3187 54.8885C59.4399 54.2063 58.5795 54.2216 57.7375 54.9346C57.5039 55.1312 57.4548 55.0974 57.59 54.8331Z" fill="#3C263B" fill-opacity="0.98"/>
<path d="M66.7442 53.8559C66.6582 53.776 66.6735 53.733 66.7903 53.7268C67.5585 53.69 68.2284 54.0126 68.8 54.6948C69.0397 54.9898 68.9751 55.0912 68.6064 54.999C68.0225 54.8515 67.4018 54.4705 66.7442 53.8559Z" fill="#3C263B" fill-opacity="0.98"/>
<path d="M51.3579 57.1563L49.8184 55.7734C51.4777 54.9315 51.9909 55.3924 51.3579 57.1563Z" fill="#FDDDBC"/>
<path d="M49.8184 55.7734L51.3579 57.1563L51.6253 57.8108C50.7403 57.5527 49.9843 57.0272 49.3574 56.2344C49.2161 55.5399 49.3697 55.3863 49.8184 55.7734Z" fill="#635A69"/>
<path d="M76.7095 60.3828C75.5233 59.8666 75.3359 59.4056 76.1471 59C76.2818 58.9329 76.3967 58.8399 76.4806 58.7301C76.5646 58.6202 76.6149 58.4973 76.6265 58.3731C76.7863 56.8244 76.2239 56.726 74.9395 58.0781C75.0009 57.1378 75.4588 56.4956 76.313 56.1514C76.3676 56.1288 76.4264 56.1187 76.4855 56.1217C76.5446 56.1248 76.6025 56.1409 76.6552 56.169C76.7079 56.1971 76.754 56.2365 76.7905 56.2844C76.8269 56.3323 76.8527 56.3876 76.8662 56.4464C77.1796 57.7432 77.1274 59.0553 76.7095 60.3828Z" fill="#8C8790" fill-opacity="0.992"/>
<path d="M48.8971 56.9258C49.3273 57.5465 49.3796 58.2379 49.0538 59C48.2672 58.3977 48.2149 57.7063 48.8971 56.9258Z" fill="#8C8790" fill-opacity="0.992"/>
<path d="M62.6967 61.5351C61.8486 60.982 61.6642 59.6453 62.5123 58.8432C62.7827 58.5851 62.8749 58.6527 62.7889 59.046C62.6352 59.7958 62.6844 60.5487 62.9364 61.3046C63.047 61.6304 62.9671 61.7072 62.6967 61.5351Z" fill="#635A69"/>
<path d="M49.7812 60.8069L49.3203 59.9588C50.8506 58.5022 51.0043 58.7849 49.7812 60.8069Z" fill="#8C8790" fill-opacity="0.992"/>
<path d="M76.4787 61.0743L76.7461 61.9593H73.75C74.3277 61.0067 75.2373 60.7117 76.4787 61.0743Z" fill="#8C8790" fill-opacity="0.992"/>
<path d="M39.1429 61.7656L39.1798 62.4201C38.1718 62.2542 37.4067 62.5215 36.8843 63.2222C36.7299 63.4298 36.6543 63.732 36.6723 64.0703C36.998 69.7552 36.9458 75.4431 36.5155 81.1342L35.6582 67.5365L36.1652 63.1484C36.1855 62.9881 36.2319 62.8397 36.3007 62.7149C36.3695 62.5901 36.4588 62.4923 36.5616 62.4293C37.3114 61.9684 38.1718 61.7472 39.1429 61.7656Z" fill="#FAB5AC"/>
<path d="M73.7498 61.9592H76.7459H88.0388C90.3497 61.4798 91.502 62.2603 91.4959 64.3007C91.4283 79.9788 91.4405 89.5048 91.5327 92.8789L91.2009 98.3272C91.1915 98.4846 91.1213 98.6325 91.0047 98.7404C90.8882 98.8484 90.7341 98.9084 90.574 98.9079L37.5662 98.8711C37.2055 98.8725 36.8567 98.7057 36.5923 98.4052C36.3279 98.1047 36.1682 97.6937 36.1465 97.2578L35.9529 93.3029L35.6855 92.4179C36.6996 90.8507 36.2571 83.5587 36.5152 81.1342C36.9454 75.4431 36.9977 69.7552 36.672 64.0703C36.654 63.732 36.7296 63.4298 36.884 63.2222C37.4064 62.5215 38.1715 62.2542 39.1795 62.4201H51.6248L73.7498 61.9592ZM66.8634 79.8067C66.8634 78.9901 66.539 78.2069 65.9615 77.6295C65.3841 77.052 64.6009 76.7276 63.7843 76.7276C62.9677 76.7276 62.1845 77.052 61.6071 77.6295C61.0296 78.2069 60.7052 78.9901 60.7052 79.8067C60.7052 80.211 60.7849 80.6114 60.9396 80.985C61.0944 81.3586 61.3212 81.698 61.6071 81.9839C61.893 82.2698 62.2324 82.4966 62.606 82.6514C62.9796 82.8061 63.38 82.8857 63.7843 82.8857C64.1886 82.8857 64.589 82.8061 64.9626 82.6514C65.3362 82.4966 65.6756 82.2698 65.9615 81.9839C66.2474 81.698 66.4742 81.3586 66.629 80.985C66.7837 80.6114 66.8634 80.211 66.8634 79.8067Z" fill="#FD5353"/>
<path d="M99.1117 74.6166C98.2144 76.5033 98.3773 78.3655 99.6003 80.2031L99.5265 81.8164C99.0902 82.5416 98.4111 82.7598 97.4892 82.4709L97.0928 74.8931C97.084 74.7147 97.0949 74.5479 97.125 74.4023C97.1551 74.2567 97.2036 74.1353 97.268 74.045C97.9071 73.117 98.5217 73.3075 99.1117 74.6166Z" fill="#FF9B6A"/>
<path d="M106.44 82.2773L104.863 82.4709L107.048 74.2386C107.088 74.0834 107.153 73.9425 107.237 73.8261C107.322 73.7097 107.424 73.6207 107.537 73.5656C109.777 72.4501 107.103 80.2215 106.44 82.2773Z" fill="#FD5353"/>
<path d="M99.1106 74.6166L103.296 82.5908L100.715 82.4709C100.905 81.334 100.533 80.578 99.5992 80.2031C98.3762 78.3655 98.2133 76.5033 99.1106 74.6166Z" fill="#161E56"/>
<path d="M15.377 76.0824C16.9626 80.7348 19.212 85.04 22.1251 88.9979L22.0882 89.6524C18.5912 85.7375 16.3541 81.2142 15.377 76.0824Z" fill="#3C263B" fill-opacity="0.98"/>
<path d="M63.7841 82.8858C65.4847 82.8858 66.8632 81.5072 66.8632 79.8067C66.8632 78.1062 65.4847 76.7277 63.7841 76.7277C62.0836 76.7277 60.7051 78.1062 60.7051 79.8067C60.7051 81.5072 62.0836 82.8858 63.7841 82.8858Z" fill="white"/>
<path d="M99.5256 81.8164C99.6916 82.4371 100.088 82.6553 100.715 82.4709L103.296 82.5908L104.863 82.4709L106.44 82.2773L107.841 82.6369C107.965 82.6706 108.073 82.7479 108.147 82.8555C108.221 82.9632 108.256 83.0945 108.247 83.2269C108.173 84.0566 107.03 93.1923 107.905 92.8513C107.236 94.3877 106.898 96.0225 106.891 97.7556C106.891 97.84 106.88 97.9236 106.859 98.0015C106.838 98.0793 106.807 98.1499 106.768 98.2091C106.73 98.2683 106.684 98.3149 106.634 98.3463C106.584 98.3776 106.53 98.3931 106.477 98.3917L98.3456 98.3364C98.2939 98.3359 98.243 98.3203 98.1958 98.2907C98.1486 98.261 98.1062 98.2179 98.071 98.1637C98.0357 98.1096 98.0084 98.0456 97.9907 97.9755C97.973 97.9054 97.9651 97.8307 97.9676 97.7556C98.0291 95.9733 97.7986 94.3508 97.2762 92.8881L96.2806 83.2361C96.2643 83.0781 96.2864 82.924 96.3432 82.7986C96.4001 82.6731 96.4884 82.5837 96.5941 82.5447C96.846 82.4525 97.1441 82.4279 97.4883 82.4709C98.4101 82.7598 99.0893 82.5416 99.5256 81.8164Z" fill="#88E0EE"/>
<path d="M22.1248 88.9978L24.7705 92.1137C24.8742 92.2376 24.9952 92.3375 25.1244 92.4061C25.2536 92.4747 25.3879 92.5103 25.5173 92.5101L35.6855 92.418L35.9529 93.303L23.738 93.0725V92.9158C25.1485 92.9803 22.2999 89.9566 22.0879 89.6523L22.1248 88.9978Z" fill="#635A69"/>
<path d="M17.9771 92.9158L17.7466 93.303C15.5525 93.5426 14.772 94.8609 15.405 97.2578C14.2189 94.4553 15.0762 93.008 17.9771 92.9158Z" fill="#3C263B" fill-opacity="0.98"/>
<path d="M17.9766 92.9158H23.7383V93.0725L17.7461 93.303L17.9766 92.9158Z" fill="#8C8790" fill-opacity="0.992"/>
<path d="M91.5325 92.879L97.2757 92.8882C97.7981 94.3509 98.0286 95.9734 97.9671 97.7557C97.9646 97.8307 97.9725 97.9055 97.9902 97.9756C98.0079 98.0457 98.0352 98.1097 98.0705 98.1638C98.1057 98.2179 98.1481 98.2611 98.1953 98.2908C98.2425 98.3204 98.2934 98.3359 98.3451 98.3365L106.476 98.3918C106.53 98.3931 106.583 98.3777 106.633 98.3464C106.684 98.315 106.729 98.2684 106.768 98.2092C106.807 98.1499 106.837 98.0794 106.858 98.0015C106.88 97.9237 106.891 97.8401 106.891 97.7557C106.897 96.0226 107.235 94.3878 107.905 92.8513C109.337 92.7038 110.508 93.0111 111.417 93.7732C111.532 93.871 111.625 93.9862 111.689 94.1104C111.753 94.2347 111.786 94.3651 111.786 94.4922L111.795 104.421C111.795 105.638 111.156 106.243 109.878 106.237L16.3628 105.988C16.1183 105.988 15.8838 105.891 15.7109 105.718C15.538 105.545 15.4409 105.311 15.4409 105.066L15.404 97.2579C14.771 94.861 15.5515 93.5427 17.7456 93.303L23.7378 93.0726L35.9526 93.303L36.1462 97.2579C36.1679 97.6938 36.3276 98.1048 36.592 98.4053C36.8564 98.7058 37.2052 98.8726 37.5659 98.8712L90.5737 98.908C90.7338 98.9084 90.8879 98.8485 91.0044 98.7405C91.121 98.6325 91.1912 98.4847 91.2006 98.3272L91.5325 92.879Z" fill="white"/>
</svg>
