<svg width="17" height="17" viewBox="0 0 17 17" fill="none" xmlns="http://www.w3.org/2000/svg">
<path d="M10.4444 4.51109C10.4276 4.27512 10.4121 4.03894 10.3979 3.80253C10.3838 3.56037 10.3198 3.35673 10.206 3.19159C10.1476 3.10704 10.0677 3.04107 9.96628 2.9937C9.90076 2.96271 9.80337 2.93814 9.67409 2.91999C8.93256 2.81507 8.15383 2.81574 7.33792 2.92199C7.09709 2.95342 6.91691 3.05037 6.79738 3.21284C6.71857 3.32042 6.66102 3.50016 6.62472 3.75206C6.5893 4.00175 6.57248 4.25653 6.57425 4.5164C6.57443 4.52562 6.57098 4.53455 6.56465 4.54125C6.55832 4.54796 6.5496 4.55191 6.54038 4.55226C5.68153 4.57882 4.8364 4.62885 4.00499 4.70234C3.91335 4.71075 3.84075 4.75613 3.78718 4.83847C3.74335 4.9062 3.72321 4.98257 3.72675 5.06757C3.73162 5.19419 3.78718 5.28649 3.89343 5.34449C3.95851 5.38034 4.05546 5.39584 4.18429 5.39097C4.39635 5.38212 4.61062 5.36662 4.8271 5.34449C4.83341 5.3438 4.83978 5.3445 4.8458 5.34652C4.85181 5.34855 4.85731 5.35185 4.86191 5.35621C4.86652 5.36056 4.87013 5.36587 4.87249 5.37176C4.87485 5.37764 4.8759 5.38397 4.87558 5.39031C4.76047 7.83583 4.76225 10.2891 4.88089 12.7501C4.89417 13.0224 4.92693 13.2265 4.97917 13.3624C5.14253 13.7847 5.45265 14.016 5.90952 14.0563C7.51656 14.1975 9.12359 14.2026 10.7306 14.0716C11.0861 14.0428 11.2915 14.0209 11.3469 14.0059C11.562 13.9474 11.7378 13.8235 11.8741 13.634C12.0326 13.414 12.119 13.1528 12.1331 12.8504C12.2482 10.3779 12.2469 7.88807 12.1291 5.38101C12.1289 5.37557 12.1299 5.37016 12.1319 5.36512C12.134 5.36009 12.1371 5.35556 12.1411 5.35184C12.1451 5.34812 12.1498 5.3453 12.1549 5.34357C12.1601 5.34185 12.1656 5.34125 12.171 5.34183C12.3968 5.36883 12.6168 5.38477 12.831 5.38964C12.9851 5.39363 13.0973 5.36507 13.1677 5.30398C13.2757 5.21057 13.301 5.0762 13.2434 4.90089C13.2018 4.77295 13.1159 4.70499 12.9858 4.69702L10.4803 4.54628C10.4709 4.54567 10.462 4.54175 10.4554 4.53526C10.4488 4.52877 10.4449 4.52017 10.4444 4.51109ZM7.42757 3.62788C8.12395 3.52208 8.85066 3.52208 9.60769 3.62788C9.62109 3.62979 9.63358 3.63579 9.64344 3.64506C9.65331 3.65433 9.66007 3.66642 9.66281 3.67968C9.71814 3.95505 9.73408 4.22709 9.71062 4.49581C9.70995 4.50453 9.7058 4.51266 9.69903 4.51858C9.69225 4.52449 9.68334 4.52775 9.67409 4.52769L7.33659 4.53234C7.32731 4.53235 7.31838 4.52883 7.3117 4.52251C7.30501 4.51619 7.30108 4.50758 7.30073 4.49847C7.2879 4.23904 7.30029 3.97873 7.33792 3.71753C7.34115 3.6949 7.35163 3.67392 7.36779 3.65776C7.38396 3.64159 7.40494 3.63111 7.42757 3.62788ZM5.7787 5.298C7.64693 5.20459 9.50454 5.20547 11.3515 5.30066C11.3688 5.30163 11.385 5.30895 11.3972 5.32122C11.4093 5.33348 11.4165 5.34982 11.4173 5.36706C11.5306 7.7692 11.5339 10.1406 11.4272 12.4812C11.4272 12.4847 11.4277 12.5642 11.4285 12.7196C11.4299 12.9046 11.3856 13.0733 11.2957 13.2256C11.2797 13.2527 11.2575 13.2757 11.231 13.2927C11.2044 13.3097 11.1743 13.3201 11.143 13.3232C9.39607 13.4883 7.67659 13.4943 5.98456 13.3411C5.8606 13.3301 5.77029 13.2931 5.71362 13.2302C5.64058 13.1501 5.60096 13.0509 5.59476 12.9327C5.46903 10.5049 5.46261 8.03261 5.5755 5.51581C5.57594 5.51183 5.57461 5.47641 5.57152 5.40956C5.56709 5.31527 5.61689 5.27697 5.72093 5.29468C5.73997 5.29822 5.75922 5.29933 5.7787 5.298Z" fill="black"/>
</svg>
