<svg width="17" height="17" viewBox="0 0 17 17" fill="none" xmlns="http://www.w3.org/2000/svg">
<path d="M5.56164 10.1585C5.57514 10.029 5.57603 9.8998 5.5643 9.77097C5.56324 9.76032 5.55811 9.75056 5.55002 9.74374C4.77528 9.09761 4.35869 8.26565 4.30026 7.24787C4.29998 7.24319 4.29815 7.23871 4.29504 7.23512C4.29192 7.23153 4.2877 7.22901 4.28299 7.22794C3.20422 6.99054 3.13483 5.52529 4.195 5.21085C4.197 5.21026 4.19885 5.20926 4.20044 5.20792C4.20203 5.20657 4.20332 5.2049 4.20423 5.20303C4.20513 5.20115 4.20564 5.1991 4.20571 5.19702C4.20578 5.19494 4.20541 5.19286 4.20463 5.19093C4.10967 4.95829 4.12871 4.73826 4.26174 4.53085C4.26456 4.52636 4.26643 4.52138 4.26723 4.51623C4.26803 4.51109 4.26774 4.50589 4.26639 4.50097C4.04393 3.71671 4.00674 3.00716 4.31785 2.25146C4.65354 1.43632 5.45838 0.954213 6.29045 0.7281C7.91707 0.286499 10.4774 0.607573 11.0684 2.51642C11.2646 3.14994 11.2321 3.85285 11.0216 4.48039C11.0186 4.48927 11.0177 4.49874 11.0189 4.50806C11.0202 4.51739 11.0236 4.52632 11.0289 4.53417C11.1839 4.76494 11.1544 4.93958 11.0866 5.19458C11.0855 5.19898 11.0861 5.20365 11.0883 5.20761C11.0906 5.21158 11.0942 5.21452 11.0986 5.21583C12.1405 5.53957 12.0857 6.99951 11.0089 7.22562C11.0019 7.22714 10.9956 7.23085 10.9908 7.23622C10.986 7.2416 10.9831 7.24835 10.9824 7.2555C10.8901 8.2724 10.4753 9.09761 9.73793 9.73113C9.73387 9.73468 9.73062 9.73897 9.72839 9.74373C9.72615 9.74848 9.72499 9.75358 9.72498 9.75869L9.72199 10.1585C9.72191 10.1633 9.72341 10.1681 9.72627 10.1721C9.72913 10.1761 9.73322 10.1791 9.73793 10.1807C9.91689 10.2451 10.1045 10.3026 10.2728 10.3763C10.6374 10.5361 10.9916 10.7077 11.3353 10.8912C11.3395 10.8935 11.344 10.8948 11.3487 10.8951C11.3533 10.8955 11.358 10.8949 11.3624 10.8933C11.3668 10.8917 11.3709 10.8893 11.3743 10.8861C11.3777 10.8828 11.3803 10.879 11.3821 10.8746L11.9947 9.42931C11.9973 9.42355 11.9983 9.41723 11.9976 9.41094C11.997 9.40466 11.9947 9.39864 11.9911 9.39345C11.2503 8.32996 11.6222 6.90388 12.7966 6.35304C13.0802 6.22023 13.2302 6.45331 13.1383 6.70865C13.0696 6.89857 13.002 7.08672 12.9354 7.2731C12.9324 7.28149 12.9318 7.2905 12.9334 7.29924C12.935 7.30798 12.9389 7.31614 12.9447 7.3229L13.6436 8.15099C13.6469 8.15485 13.6511 8.15779 13.6558 8.15954C13.6605 8.16128 13.6656 8.16177 13.6705 8.16095L14.7483 7.97402C14.7561 7.9727 14.7635 7.96928 14.7697 7.96409C14.7759 7.9589 14.7806 7.95213 14.7835 7.94447C14.8444 7.78111 14.9033 7.61731 14.9605 7.45306C15.0047 7.326 15.0507 7.24145 15.0982 7.19939C15.2536 7.06226 15.4216 7.19441 15.4934 7.35246C16.0346 8.54179 15.3745 9.81746 14.1463 10.1797C14.1434 10.1806 14.1408 10.1822 14.1387 10.1844C14.1365 10.1865 14.1349 10.1891 14.134 10.192L13.4265 12.5348C13.4249 12.5398 13.4244 12.5451 13.425 12.5504C13.4257 12.5557 13.4274 12.5608 13.4301 12.5653C13.7781 13.1533 13.9551 13.7905 13.961 14.4772C13.9637 14.8115 13.9524 15.1452 13.9594 15.4796C13.9683 15.8989 13.6649 16.2771 13.2887 16.3937C13.1822 16.4266 13.0097 16.4435 12.771 16.4441C9.34934 16.4543 5.92754 16.4561 2.50563 16.4494C2.296 16.449 2.13807 16.4333 2.03182 16.4023C1.55934 16.2648 1.32824 15.8827 1.32692 15.3982C1.32492 14.8454 1.29703 14.3726 1.40561 13.7746C1.59951 12.703 2.16507 11.8958 3.10229 11.3528C3.5824 11.0749 4.07647 10.8341 4.56688 10.5771C4.819 10.445 5.14472 10.3127 5.54404 10.1804C5.54878 10.1788 5.55295 10.1759 5.55607 10.172C5.5592 10.1681 5.56113 10.1634 5.56164 10.1585ZM9.8319 1.62259C8.81588 0.980112 7.42533 0.911049 6.29012 1.24109C5.65129 1.42669 4.9942 1.83642 4.75049 2.47624C4.53865 3.03118 4.52006 3.60559 4.69471 4.19949C4.69519 4.2011 4.69603 4.20259 4.69716 4.20383C4.6983 4.20508 4.6997 4.20606 4.70126 4.2067C4.70282 4.20733 4.7045 4.20761 4.70618 4.20751C4.70786 4.20742 4.7095 4.20694 4.71098 4.20613C6.56072 3.1941 8.72822 3.20273 10.5846 4.19949C10.5856 4.19999 10.5867 4.20027 10.5878 4.20032C10.5888 4.20037 10.5899 4.20018 10.5909 4.19976C10.5919 4.19935 10.5928 4.19872 10.5935 4.19792C10.5942 4.19713 10.5946 4.19619 10.5949 4.19517C10.8662 3.28374 10.6839 2.16148 9.8319 1.62259ZM10.1427 5.45025C8.50908 4.47507 6.68092 4.53019 5.0543 5.50371C5.0149 5.52739 4.931 5.54587 4.80262 5.55915C4.79796 5.55965 4.79365 5.56179 4.79053 5.56516C4.7874 5.56853 4.78567 5.5729 4.78568 5.57742C4.77749 6.07037 4.77849 6.56322 4.78867 7.05595C4.79443 7.33198 4.81435 7.55178 4.84844 7.71537C5.15324 9.17165 6.52354 10.1621 8.01568 9.97185C9.27508 9.81081 10.2599 8.78749 10.4618 7.54105C10.4861 7.39097 10.4988 7.17028 10.4999 6.87898C10.5015 6.44203 10.5019 6.00485 10.5013 5.56746C10.5013 5.56232 10.4993 5.55738 10.4957 5.55372C10.492 5.55006 10.4872 5.54795 10.482 5.54787C10.3575 5.54455 10.2569 5.51831 10.1427 5.45025ZM10.7523 13.7278C10.6786 14.5874 11.7896 15.034 12.3168 14.3311C12.4314 14.1787 12.4928 13.9546 12.5509 13.7613C12.9327 12.4919 13.3145 11.2223 13.6961 9.95259C13.7436 9.79455 13.8053 9.75537 13.9713 9.71751C14.6649 9.55947 15.1467 8.98572 15.1965 8.27484C15.1972 8.26443 15.1949 8.26377 15.1896 8.27285C15.1308 8.37279 15.0664 8.40831 14.9458 8.43023C14.5082 8.50947 14.0703 8.58706 13.632 8.66298C13.5038 8.68523 13.4338 8.65335 13.3547 8.56005C13.0685 8.22094 12.7824 7.88171 12.4964 7.54238C12.4289 7.46203 12.3998 7.37437 12.4091 7.27941C12.4102 7.26856 12.4076 7.26757 12.4012 7.27642C11.9908 7.83888 11.9908 8.5896 12.4114 9.14509C12.5157 9.28255 12.5562 9.3473 12.4878 9.50734C12.3198 9.89913 11.781 11.1727 10.8715 13.328C10.8004 13.4963 10.7607 13.6295 10.7523 13.7278ZM6.39604 11.3066C6.87018 11.9328 7.74408 12.0925 8.42442 11.7127C8.98688 11.3986 9.24553 10.7222 9.22727 10.0924C9.22726 10.0906 9.22679 10.0889 9.22591 10.0874C9.22503 10.0859 9.22377 10.0846 9.22224 10.0838C9.22072 10.0829 9.21898 10.0824 9.21718 10.0823C9.21539 10.0822 9.2136 10.0826 9.21199 10.0834C8.21623 10.5801 7.04914 10.6346 6.07098 10.0901C6.06944 10.0892 6.06771 10.0888 6.06595 10.0888C6.06419 10.0888 6.06246 10.0892 6.06093 10.0901C6.05939 10.091 6.05811 10.0922 6.0572 10.0937C6.05628 10.0952 6.05577 10.0969 6.0557 10.0987C6.0474 10.5111 6.14535 10.9752 6.39604 11.3066ZM9.9999 10.8106L9.71037 10.693C9.70845 10.6923 9.7064 10.692 9.70435 10.6921C9.70231 10.6922 9.70032 10.6928 9.69852 10.6937C9.69672 10.6947 9.69516 10.696 9.69394 10.6976C9.69272 10.6992 9.69187 10.701 9.69145 10.703C9.55288 11.3319 9.22251 11.8001 8.70033 12.1078C7.4602 12.8383 5.86545 12.1261 5.60082 10.7033C5.6004 10.701 5.59945 10.6987 5.59806 10.6968C5.59667 10.6948 5.59486 10.6932 5.59276 10.692C5.59067 10.6908 5.58834 10.6901 5.58594 10.69C5.58355 10.6898 5.58115 10.6902 5.57891 10.691L5.30365 10.8013C5.29497 10.8048 5.28781 10.8112 5.28348 10.8194C5.27916 10.8277 5.27795 10.8371 5.28008 10.8461C5.35335 11.156 5.42529 11.4642 5.4959 11.7708C5.56275 12.0603 5.62451 12.2526 5.68117 12.3475C5.88371 12.6879 6.20047 12.7835 6.59326 12.7835C7.26308 12.783 7.93257 12.7833 8.60172 12.7842C8.83414 12.7846 9.0027 12.7687 9.1074 12.7363C9.58918 12.5879 9.68414 12.2406 9.79936 11.7406C9.8693 11.4364 9.9397 11.1334 10.0105 10.8315C10.0115 10.8272 10.011 10.8227 10.009 10.8189C10.0071 10.8151 10.0038 10.8121 9.9999 10.8106ZM1.81102 15.3946C1.81899 16.0806 2.43125 15.9667 2.89443 15.9617C2.89972 15.9617 2.90479 15.9596 2.90852 15.9558C2.91226 15.952 2.91436 15.9468 2.91436 15.9414C2.91369 14.9797 2.91369 14.0183 2.91436 13.0574C2.91436 12.6835 3.40012 12.7875 3.63387 12.7795C3.63833 12.7793 3.64255 12.7774 3.64565 12.7742C3.64875 12.771 3.65047 12.7667 3.65047 12.7622L3.65113 11.6147C3.6511 11.613 3.65064 11.6114 3.64978 11.6099C3.64893 11.6084 3.64771 11.6072 3.64624 11.6063C3.64478 11.6055 3.64311 11.605 3.64141 11.605C3.63971 11.6049 3.63803 11.6053 3.63652 11.6061C3.32109 11.7794 3.1076 11.9116 2.99604 12.0026C2.25826 12.6046 1.86436 13.3873 1.81434 14.3507C1.80593 14.514 1.80482 14.862 1.81102 15.3946ZM13.2057 13.2583C13.1344 13.4887 13.0659 13.7147 13.0001 13.9363C12.863 14.3972 12.7471 14.6718 12.3852 14.9284C12.381 14.9315 12.3776 14.9355 12.3752 14.94C12.3728 14.9446 12.3716 14.9496 12.3716 14.9546L12.3713 15.9418C12.3713 15.9462 12.3731 15.9505 12.3763 15.9536C12.3795 15.9568 12.3839 15.9586 12.3885 15.9587C12.7973 15.9693 13.4743 16.0796 13.473 15.4235C13.4713 14.6724 13.5241 13.9685 13.2352 13.257C13.2241 13.2297 13.2143 13.2302 13.2057 13.2583ZM9.77977 14.6117C9.77977 14.4791 9.72712 14.352 9.63341 14.2583C9.53969 14.1646 9.41259 14.1119 9.28006 14.1119H5.88869C5.82307 14.1119 5.75809 14.1249 5.69746 14.15C5.63684 14.1751 5.58175 14.2119 5.53535 14.2583C5.48894 14.3047 5.45214 14.3598 5.42702 14.4204C5.40191 14.4811 5.38899 14.546 5.38899 14.6117V14.9324C5.38899 15.0649 5.44163 15.192 5.53535 15.2857C5.62906 15.3795 5.75616 15.4321 5.88869 15.4321H9.28006C9.41259 15.4321 9.53969 15.3795 9.63341 15.2857C9.72712 15.192 9.77977 15.0649 9.77977 14.9324V14.6117Z" fill="#0E172C"/>
<path d="M6.80118 5.95C6.91706 6.03865 7.03062 6.16914 7.00405 6.32121C6.98081 6.45535 6.81413 6.55264 6.67833 6.4942C6.59698 6.45934 6.54253 6.35574 6.48442 6.31656C6.37862 6.24485 6.2665 6.23511 6.14808 6.28735C6.05245 6.32918 5.99401 6.4517 5.92595 6.48192C5.67526 6.59315 5.46542 6.33483 5.62712 6.10738C5.91067 5.70895 6.42599 5.66213 6.80118 5.95Z" fill="#0E172C"/>
<path d="M8.69698 6.43155C8.50607 6.64903 8.13585 6.39304 8.3457 6.10019C8.65448 5.66987 9.30925 5.64729 9.63829 6.07528C9.68478 6.13593 9.71123 6.19293 9.71765 6.24628C9.74155 6.44683 9.49419 6.59392 9.33548 6.46143C9.28269 6.41761 9.23786 6.3346 9.15917 6.29808C8.95663 6.20411 8.82814 6.28147 8.69698 6.43155Z" fill="#0E172C"/>
<path d="M7.82512 7.25374C8.01837 7.14683 8.21758 7.31716 8.1711 7.51073C8.14022 7.63956 7.99944 7.71792 7.88024 7.75511C7.63564 7.83192 7.41429 7.79772 7.21618 7.65251C6.95487 7.46093 7.21053 7.10067 7.49774 7.26105C7.61694 7.32745 7.71323 7.31583 7.82512 7.25374Z" fill="#0E172C"/>
<path d="M6.41924 8.10929C7.19819 8.51736 8.09766 8.51437 8.87495 8.10365C8.87787 8.10215 8.88112 8.10144 8.8844 8.10158C8.88767 8.10172 8.89086 8.10271 8.89363 8.10445C8.89641 8.10619 8.89869 8.10862 8.90025 8.11151C8.9018 8.1144 8.90258 8.11764 8.90251 8.12091C8.86133 9.73359 6.48499 9.79269 6.38106 8.1342C6.37907 8.10321 6.3918 8.0949 6.41924 8.10929Z" fill="#0E172C"/>
</svg>
