<svg width="93" height="93" viewBox="0 0 93 93" fill="none" xmlns="http://www.w3.org/2000/svg">
<path d="M38.417 48.6035L37.2 47.6044C36.8609 47.3259 36.6914 47.4155 36.6914 47.8733C36.6914 49.1302 36.3257 50.461 35.5943 51.8657C35.403 52.2339 35.2637 52.2145 35.1765 51.8076C34.8375 50.2237 34.3349 48.7427 33.6689 47.3647C33.0513 46.0859 32.1746 45.0784 31.0388 44.3422C29.0189 43.0319 26.8065 41.9796 24.4016 41.1853C24.0601 41.0739 23.7416 40.9431 23.4462 40.7929C23.141 40.6403 22.8346 40.4878 22.5271 40.3352C22.5075 40.3259 22.4861 40.3212 22.4645 40.3213C22.4428 40.3214 22.4215 40.3263 22.402 40.3357C22.3825 40.3451 22.3653 40.3587 22.3518 40.3756C22.3382 40.3925 22.3286 40.4122 22.3236 40.4333C21.505 44.0976 20.2445 47.6032 18.5419 50.9503C18.4813 51.0665 18.4498 51.0592 18.4474 50.9285L18.3457 47.7025C18.3409 47.4724 18.2621 47.4289 18.1096 47.5717L16.8018 48.7851" stroke="#9A7F84" stroke-width="2"/>
<path d="M38.0392 51.9492L36.9203 52.5668C36.8704 52.5941 36.8274 52.6322 36.7947 52.6781C36.762 52.7241 36.7403 52.7767 36.7314 52.832C36.2397 55.8932 34.7127 58.2982 32.1504 60.0468" stroke="#9A7F84" stroke-width="2"/>
<path d="M32.1504 60.0467C30.2928 60.9186 28.3021 61.2395 26.1781 61.0094C25.1028 60.8908 24.1546 60.5614 23.3336 60.0213C23.2755 59.983 23.2118 59.9593 23.1549 59.9546C23.0979 59.9499 23.0516 59.9646 23.0248 59.9959C22.9788 60.0443 22.9582 60.117 22.963 60.2138" stroke="#F6BEAB" stroke-width="2"/>
<path d="M22.963 60.2139C22.9194 60.0104 22.7051 59.7755 22.32 59.5091C20.0919 57.9785 18.7828 55.7528 18.3929 52.832C18.3863 52.7863 18.3663 52.7391 18.3344 52.6934C18.3024 52.6477 18.2593 52.6045 18.2077 52.5668L17.0887 51.7676" stroke="#9A7F84" stroke-width="2"/>
<path d="M22.963 60.2139C22.9412 60.4682 22.9715 60.7104 23.0538 60.9404" stroke="#93767C" stroke-width="2"/>
<path d="M23.0538 60.9404V64.0283" stroke="#9A7F84" stroke-width="2"/>
<path d="M32.1649 63.9375L32.1359 62.666" stroke="#9A7F84" stroke-width="2"/>
<path d="M32.1359 62.666C32.3006 61.7941 32.3054 60.921 32.1504 60.0468" stroke="#93767C" stroke-width="2"/>
<path d="M32.1359 62.666C29.1691 62.8671 26.2979 62.2313 23.5225 60.7588C23.2754 60.628 23.1192 60.6886 23.0538 60.9405" stroke="#F6BEAB" stroke-width="2"/>
<path d="M32.1649 65.7539L27.7511 72.3547C27.7268 72.3911 27.6941 72.4212 27.6558 72.4422C27.6176 72.4633 27.575 72.4746 27.5318 72.4754C27.4886 72.4761 27.4463 72.4661 27.4084 72.4463C27.3706 72.4265 27.3386 72.3976 27.3151 72.362C25.9032 70.2622 24.5372 68.1988 23.2173 66.1717C23.135 66.0457 23.0805 65.9065 23.0538 65.7539" stroke="#F7DCD3" stroke-width="2"/>
<path d="M16.8926 65.8593C17.5223 68.6807 18.3396 71.0978 19.3447 73.1103C21.3404 77.1089 24.4064 78.8575 28.543 78.3561C30.1584 78.1624 31.5377 77.6053 32.6808 76.685C34.1509 75.5056 35.2758 73.9205 36.0557 71.9297C37.0293 69.44 37.665 67.3862 37.9629 65.7684" stroke="#F7E8BF" stroke-width="2"/>
<path d="M43.8662 66.4042C40.185 67.8525 38.2584 70.5795 38.0864 74.5853C37.8999 79.0028 37.7377 83.4203 37.5996 87.8378" stroke="#BCB9BF" stroke-width="2"/>
<path d="M50.7686 66.1317C51.0107 67.1513 51.4879 68.6069 52.1999 70.4984C53.1226 72.9566 54.4546 74.9849 56.196 76.5833C57.3754 77.6683 58.9872 78.3525 61.0312 78.6359" stroke="#B7C3F2" stroke-width="2"/>
<path d="M61.0312 78.6359C62.3948 78.9241 63.7571 78.9241 65.1182 78.6359" stroke="#BC84B9" stroke-width="2"/>
<path d="M65.1182 78.6359C68.8866 77.8439 71.5579 75.6461 73.1321 72.0423C74.0694 69.8989 74.7584 67.9287 75.1992 66.1317" stroke="#B7C3F2" stroke-width="2"/>
<path d="M79.4823 87.8233L79.0936 81.2116C79.0897 81.1478 79.068 81.0879 79.0329 81.044C78.9978 81.0001 78.9519 80.9756 78.9047 80.9755L77.6114 81.0009C77.5761 81.002 77.5415 81.0112 77.5095 81.0282C77.4775 81.0451 77.4488 81.0693 77.4251 81.0994C77.4015 81.1295 77.3832 81.1649 77.3716 81.2035C77.3599 81.2421 77.355 81.2832 77.3571 81.3242L77.7422 87.8088" stroke="#6471EA" stroke-width="2"/>
<path d="M47.4082 87.8995C47.6432 85.87 47.7921 83.8344 47.8551 81.7928C47.8551 81.7637 47.8757 81.6099 47.9168 81.3314C47.9628 80.9923 47.8078 80.8361 47.4518 80.8628C47.229 80.8797 47.0183 80.8809 46.8197 80.8664C46.2796 80.8277 46.0217 81.1183 46.0459 81.7383C46.0871 82.8427 46.0266 84.3866 45.8643 86.3701C45.811 87.0095 45.8716 87.5193 46.0459 87.8995" stroke="#6471EA" stroke-width="2"/>
<path d="M65.1182 78.6359L64.348 71.8752C64.3378 71.7858 64.3491 71.6937 64.3812 71.6057C64.4132 71.5176 64.4652 71.436 64.5333 71.3666L65.4052 70.4766" stroke="#F8B3B9" stroke-width="2"/>
<path d="M60.6534 70.4766C61.426 70.898 61.7639 71.4429 61.667 72.1113C61.4054 73.9229 61.1935 75.7393 61.0313 77.5605C60.9804 78.1418 60.9804 78.5002 61.0313 78.6359" stroke="#F8B3B9" stroke-width="2"/>
<path d="M70.9161 66.1172C70.7757 66.1947 70.7212 66.2928 70.7527 66.4114C70.7694 66.4732 70.7762 66.5332 70.7724 66.5864C70.7686 66.6395 70.7543 66.6842 70.7309 66.7166L67.2252 71.4175C67.1976 71.454 67.1561 71.4781 67.109 71.4848C67.0618 71.4915 67.0125 71.4805 66.9709 71.4538L65.4052 70.4766" stroke="#DFDFDF" stroke-width="2"/>
<path d="M65.4052 70.4766L63.1855 68.7546C63.1448 68.7226 63.093 68.7047 63.0366 68.7034C62.9803 68.7022 62.9221 68.7174 62.8695 68.7473C62.0388 69.2075 61.3001 69.7839 60.6534 70.4766" stroke="#E5A0A6" stroke-width="2"/>
<path d="M60.6534 70.4766C60.2296 70.571 59.8409 70.8168 59.4873 71.214C59.1579 71.5846 58.8479 71.57 58.5573 71.1704C57.5571 69.8021 56.5823 68.4725 55.6329 67.1816C55.6159 67.1574 55.4924 67.023 55.2623 66.7784C55.0977 66.5991 54.9923 66.3836 54.9463 66.1317" stroke="#DFDFDF" stroke-width="2"/>
<path d="M68.1298 64.1191L63.7304 68.0062C63.2654 68.4155 62.7907 68.4143 62.3064 68.0026L57.838 64.21" stroke="#E4C9C0" stroke-width="2"/>
<path d="M72.8524 47.4991C72.6998 47.625 72.6647 47.8066 72.7471 48.044C72.8488 48.3322 72.8161 48.6095 72.649 48.8759C72.62 48.9206 72.5771 48.955 72.5264 48.9745C72.4757 48.994 72.4195 48.9976 72.3656 48.9849C71.5083 48.7863 71.1535 48.182 71.3012 47.1721C71.3178 47.065 71.3041 46.9553 71.2618 46.8553C71.2195 46.7552 71.1501 46.6687 71.0614 46.6054C70.795 46.4141 70.5904 46.1634 70.4475 45.8534C70.3458 45.6306 70.2864 45.3254 70.2695 44.9379C70.2138 43.7125 70.2816 42.4555 70.4729 41.1671C70.4774 41.1359 70.4741 41.1041 70.4635 41.0745C70.4528 41.0449 70.435 41.0184 70.4117 40.9972C70.3884 40.9761 70.3603 40.961 70.3298 40.9532C70.2993 40.9455 70.2674 40.9453 70.2368 40.9527C67.8852 41.5267 65.5129 41.8924 63.1201 42.0498C60.3035 42.2363 57.8538 41.9324 55.7709 41.138C55.7515 41.1311 55.7307 41.1289 55.7102 41.1316C55.6897 41.1343 55.6702 41.1418 55.6532 41.1535C55.6362 41.1652 55.6222 41.1808 55.6124 41.1989C55.6025 41.217 55.5971 41.2373 55.5966 41.2579C55.5312 42.6141 55.2866 43.9341 54.8627 45.2176C54.8603 45.2273 54.7598 45.4526 54.5612 45.8934C54.3893 46.2809 54.3057 46.7555 54.3105 47.3174C54.3202 48.182 53.9848 48.7282 53.3043 48.9558C53.2453 48.9751 53.1824 48.979 53.1216 48.9671C53.0607 48.9552 53.0039 48.928 52.9565 48.8879C52.9092 48.8478 52.8729 48.7963 52.8511 48.7383C52.8293 48.6802 52.8227 48.6175 52.832 48.5562C52.895 48.1663 52.8732 47.8393 52.7666 47.5753" stroke="#987C80" stroke-width="2"/>
<path d="M14.5349 6.4192C14.5349 6.40764 14.5303 6.39655 14.5221 6.38838C14.5139 6.3802 14.5029 6.37561 14.4913 6.37561H14.484C14.4725 6.37561 14.4614 6.3802 14.4532 6.38838C14.445 6.39655 14.4404 6.40764 14.4404 6.4192V23.8276C14.4404 23.8392 14.445 23.8503 14.4532 23.8585C14.4614 23.8666 14.4725 23.8712 14.484 23.8712H14.4913C14.5029 23.8712 14.5139 23.8666 14.5221 23.8585C14.5303 23.8503 14.5349 23.8392 14.5349 23.8276V6.4192Z" stroke="#E8EFFF" stroke-width="2"/>
<path d="M43.1433 10.8803C43.1433 10.7887 43.1069 10.701 43.0422 10.6362C42.9775 10.5715 42.8897 10.5352 42.7982 10.5352H17.2377C17.1462 10.5352 17.0584 10.5715 16.9937 10.6362C16.9289 10.701 16.8926 10.7887 16.8926 10.8803V11.2799C16.8926 11.3714 16.9289 11.4592 16.9937 11.5239C17.0584 11.5886 17.1462 11.625 17.2377 11.625H42.7982C42.8897 11.625 42.9775 11.5886 43.0422 11.5239C43.1069 11.4592 43.1433 11.3714 43.1433 11.2799V10.8803Z" stroke="#D3DCFF" stroke-width="2"/>
<path d="M43.205 14.2079C43.205 14.101 43.1625 13.9984 43.0869 13.9228C43.0113 13.8472 42.9087 13.8047 42.8018 13.8047H17.2849C17.1779 13.8047 17.0754 13.8472 16.9998 13.9228C16.9241 13.9984 16.8817 14.101 16.8817 14.2079V14.4913C16.8817 14.5982 16.9241 14.7008 16.9998 14.7764C17.0754 14.852 17.1779 14.8945 17.2849 14.8945H42.8018C42.9087 14.8945 43.0113 14.852 43.0869 14.7764C43.1625 14.7008 43.205 14.5982 43.205 14.4913V14.2079Z" stroke="#D3DCFF" stroke-width="2"/>
<path d="M27.1516 17.5174C27.1516 17.3999 27.1049 17.2871 27.0218 17.204C26.9387 17.1209 26.826 17.0742 26.7084 17.0742H17.3358C17.2182 17.0742 17.1055 17.1209 17.0224 17.204C16.9393 17.2871 16.8926 17.3999 16.8926 17.5174V17.7209C16.8926 17.8384 16.9393 17.9511 17.0224 18.0343C17.1055 18.1174 17.2182 18.1641 17.3358 18.1641H26.7084C26.826 18.1641 26.9387 18.1174 27.0218 18.0343C27.1049 17.9511 27.1516 17.8384 27.1516 17.7209V17.5174Z" stroke="#D3DCFF" stroke-width="2"/>
<path d="M78.4143 16.1915C78.4143 16.1528 78.4067 16.1146 78.3919 16.0789C78.3771 16.0432 78.3554 16.0107 78.3281 15.9834C78.3008 15.9561 78.2683 15.9344 78.2326 15.9196C78.1969 15.9048 78.1587 15.8972 78.12 15.8972H52.4288C52.3901 15.8972 52.3519 15.9048 52.3162 15.9196C52.2805 15.9344 52.248 15.9561 52.2207 15.9834C52.1934 16.0107 52.1717 16.0432 52.1569 16.0789C52.1421 16.1146 52.1345 16.1528 52.1345 16.1915V16.7001C52.1345 16.7387 52.1421 16.777 52.1569 16.8127C52.1717 16.8484 52.1934 16.8808 52.2207 16.9081C52.248 16.9355 52.2805 16.9571 52.3162 16.9719C52.3519 16.9867 52.3901 16.9943 52.4288 16.9943H78.12C78.1981 16.9943 78.2729 16.9633 78.3281 16.9081C78.3833 16.853 78.4143 16.7781 78.4143 16.7001V16.1915Z" stroke="#D3DCFF" stroke-width="2"/>
<path d="M78.3671 19.5118C78.3671 19.4193 78.3303 19.3306 78.2649 19.2652C78.1995 19.1998 78.1108 19.1631 78.0183 19.1631H52.4142C52.3217 19.1631 52.233 19.1998 52.1676 19.2652C52.1022 19.3306 52.0655 19.4193 52.0655 19.5118V19.926C52.0655 20.0185 52.1022 20.1072 52.1676 20.1726C52.233 20.238 52.3217 20.2747 52.4142 20.2747H78.0183C78.1108 20.2747 78.1995 20.238 78.2649 20.1726C78.3303 20.1072 78.3671 20.0185 78.3671 19.926V19.5118Z" stroke="#D3DCFF" stroke-width="2"/>
<path d="M78.4184 22.7104C78.4185 22.675 78.4116 22.6401 78.3981 22.6074C78.3847 22.5748 78.3649 22.5451 78.34 22.5201C78.3151 22.4951 78.2855 22.4753 78.2529 22.4617C78.2203 22.4481 78.1853 22.4411 78.15 22.4411L68.4795 22.4242C68.4442 22.4241 68.4092 22.431 68.3766 22.4445C68.3439 22.4579 68.3143 22.4777 68.2893 22.5026C68.2642 22.5275 68.2444 22.5571 68.2308 22.5897C68.2173 22.6223 68.2102 22.6572 68.2102 22.6926L68.2092 23.2738C68.2091 23.3091 68.216 23.3441 68.2295 23.3767C68.2429 23.4094 68.2627 23.439 68.2876 23.464C68.3125 23.489 68.3421 23.5089 68.3747 23.5225C68.4073 23.536 68.4422 23.543 68.4775 23.5431L78.1481 23.56C78.1834 23.56 78.2183 23.5531 78.251 23.5397C78.2836 23.5262 78.3133 23.5065 78.3383 23.4816C78.3633 23.4566 78.3832 23.427 78.3967 23.3944C78.4103 23.3619 78.4173 23.3269 78.4174 23.2916L78.4184 22.7104Z" stroke="#D3DCFF" stroke-width="2"/>
<path d="M33.0077 37.2872C32.9351 37.2243 32.8649 37.1879 32.797 37.1783C32.6299 37.154 32.619 37.2061 32.7643 37.3345C33.4836 37.9714 34.1751 38.6374 34.8387 39.3325C34.8726 39.3664 34.9065 39.4136 34.9404 39.4742C35.0179 39.6219 35.0772 39.6437 35.1184 39.5396C35.1306 39.5068 35.132 39.4692 35.1224 39.4308C35.1128 39.3924 35.0926 39.3546 35.0639 39.3216C34.4245 38.5975 33.7391 37.9193 33.0077 37.2872Z" stroke="#373754" stroke-width="2"/>
<path d="M23.9746 50.5034C24.0729 50.5035 24.1703 50.4754 24.2612 50.4206C24.3521 50.3658 24.4347 50.2854 24.5044 50.184C24.5741 50.0826 24.6294 49.9622 24.6672 49.8296C24.7051 49.697 24.7247 49.5548 24.7249 49.4112C24.7254 49.1212 24.6471 48.8429 24.5071 48.6376C24.3671 48.4323 24.177 48.3168 23.9785 48.3164C23.8802 48.3162 23.7829 48.3443 23.692 48.3991C23.6011 48.4539 23.5184 48.5343 23.4488 48.6357C23.3791 48.7372 23.3238 48.8576 23.2859 48.9902C23.2481 49.1228 23.2285 49.265 23.2282 49.4086C23.2277 49.6986 23.3061 49.9768 23.446 50.1822C23.586 50.3875 23.7762 50.503 23.9746 50.5034Z" stroke="#987D74" stroke-width="2"/>
<path d="M31.1216 50.5251C31.3191 50.5272 31.5098 50.4124 31.6516 50.2061C31.7934 49.9998 31.8748 49.7188 31.8779 49.425C31.8794 49.2795 31.8617 49.1352 31.8257 49.0004C31.7896 48.8656 31.7361 48.7429 31.668 48.6392C31.5999 48.5356 31.5187 48.4532 31.4289 48.3965C31.3391 48.3399 31.2426 48.3103 31.1448 48.3092C30.9473 48.3072 30.7567 48.4219 30.6148 48.6282C30.473 48.8345 30.3916 49.1155 30.3885 49.4094C30.387 49.5549 30.4047 49.6991 30.4408 49.834C30.4768 49.9688 30.5304 50.0915 30.5984 50.1951C30.6665 50.2987 30.7477 50.3812 30.8375 50.4378C30.9273 50.4944 31.0238 50.5241 31.1216 50.5251Z" stroke="#987D74" stroke-width="2"/>
<path d="M37.4143 49.7805C37.4022 50.0057 37.3489 50.2201 37.2545 50.4235C37.0147 50.9418 37.0038 51.2142 37.2218 51.2409C37.3671 51.2603 37.5185 51.1828 37.6759 51.0084C38.2329 50.3884 38.245 49.726 37.7122 49.0212C37.487 48.7233 37.3235 48.6955 37.2218 48.9377C37.2025 48.983 37.1955 49.0366 37.2011 49.0945C37.2068 49.1524 37.225 49.213 37.2545 49.2719C37.3683 49.502 37.4216 49.6715 37.4143 49.7805Z" stroke="#F6BEAB" stroke-width="2"/>
<path d="M25.5641 56.9952C26.3124 57.5885 27.085 57.8138 27.8818 57.6709C29.5117 57.3778 30.4635 56.3812 30.7372 54.6811C30.7425 54.6471 30.7405 54.6123 30.7314 54.5792C30.7223 54.5461 30.7063 54.5156 30.6845 54.4896C30.6627 54.4636 30.6356 54.4429 30.6052 54.429C30.5748 54.415 30.5417 54.408 30.5083 54.4086L24.5869 54.4631C24.5387 54.4631 24.4925 54.483 24.4584 54.5184C24.4243 54.5539 24.4052 54.6019 24.4052 54.652C24.4149 55.6111 24.8012 56.3921 25.5641 56.9952Z" stroke="#FEE3D9" stroke-width="2"/>
<path d="M58.9121 50.823C59.128 50.8245 59.3358 50.6989 59.49 50.4738C59.6442 50.2487 59.732 49.9425 59.7343 49.6226C59.7365 49.3028 59.6529 48.9954 59.5019 48.7682C59.3509 48.5409 59.1448 48.4124 58.929 48.4109C58.7132 48.4094 58.5053 48.535 58.3511 48.7601C58.197 48.9853 58.1091 49.2914 58.1069 49.6113C58.1046 49.9312 58.1882 50.2385 58.3392 50.4657C58.4903 50.693 58.6963 50.8215 58.9121 50.823Z" stroke="#987D74" stroke-width="2"/>
<path d="M66.6573 50.8339C66.875 50.8354 67.0847 50.709 67.2403 50.4826C67.3958 50.2561 67.4845 49.9481 67.4867 49.6263C67.489 49.3045 67.4046 48.9953 67.2523 48.7667C67.0999 48.5381 66.8919 48.4088 66.6742 48.4072C66.4565 48.4057 66.2468 48.5321 66.0912 48.7586C65.9357 48.985 65.847 49.293 65.8448 49.6148C65.8425 49.9366 65.9269 50.2458 66.0792 50.4744C66.2316 50.7031 66.4395 50.8324 66.6573 50.8339Z" stroke="#987D74" stroke-width="2"/>
<path d="M73.6698 50.3472C73.6359 50.5458 73.562 50.7274 73.4482 50.8921C73.0607 51.4492 73.0716 51.6369 73.4809 51.4552C73.585 51.4092 73.671 51.3402 73.7388 51.2482C74.1481 50.6839 74.2026 50.0784 73.9023 49.4318C73.7182 49.0394 73.5427 48.9776 73.3755 49.2465C73.3501 49.2882 73.3396 49.339 73.3455 49.3922C73.3513 49.4454 73.3732 49.4984 73.4082 49.5444C73.6238 49.8253 73.711 50.0929 73.6698 50.3472Z" stroke="#F6BEAB" stroke-width="2"/>
<path d="M60.7878 54.9354C60.4173 54.9088 59.9777 54.9185 59.4691 54.9645C59.4435 54.9666 59.4187 54.9741 59.3961 54.9863C59.3734 54.9986 59.3535 55.0155 59.3376 55.0359C59.3216 55.0563 59.3099 55.0798 59.3031 55.105C59.2964 55.1302 59.2948 55.1565 59.2984 55.1825C59.5672 57.0086 60.456 58.0996 61.9649 58.4556C62.9651 58.6905 63.8769 58.538 64.7004 57.9979C65.5916 57.4118 66.1172 56.5387 66.277 55.3786C66.2846 55.3216 66.2796 55.2635 66.2623 55.2086C66.245 55.1538 66.2158 55.1035 66.1768 55.0614C66.1379 55.0194 66.0902 54.9866 66.0371 54.9654C65.9841 54.9442 65.9271 54.9352 65.8701 54.9391C64.1361 55.0529 62.442 55.0517 60.7878 54.9354Z" stroke="#FEE3D9" stroke-width="2"/>
<path d="M46.0922 68.1711C46.0924 68.1592 46.0902 68.1474 46.0857 68.1363C46.0813 68.1252 46.0747 68.1151 46.0664 68.1066C46.0581 68.098 46.0481 68.0912 46.0372 68.0865C46.0262 68.0818 46.0144 68.0793 46.0025 68.0792L45.9952 68.0791C45.9711 68.0788 45.9479 68.0881 45.9307 68.1049C45.9135 68.1217 45.9036 68.1447 45.9033 68.1688L45.8325 73.9663C45.8323 73.9783 45.8345 73.9901 45.839 74.0012C45.8434 74.0123 45.8499 74.0224 45.8583 74.0309C45.8666 74.0394 45.8765 74.0463 45.8875 74.0509C45.8985 74.0556 45.9103 74.0581 45.9222 74.0583L45.9295 74.0584C45.9535 74.0586 45.9768 74.0494 45.994 74.0325C46.0112 74.0157 46.0211 73.9927 46.0214 73.9687L46.0922 68.1711Z" stroke="#7B94F2" stroke-width="2"/>
<path d="M79.4677 73.7715C79.4847 73.493 79.4823 73.2096 79.4605 72.9214C79.3999 72.052 79.3418 71.9333 79.2861 72.5654C79.257 72.8972 79.2631 73.9204 79.3043 75.6351C79.3067 75.7562 79.314 75.7538 79.3261 75.6279C79.3866 75.0103 79.4338 74.3915 79.4677 73.7715Z" stroke="#7B94F2" stroke-width="2"/>
<path d="M79.6938 85.4001C79.7129 85.4 79.7314 85.324 79.7483 85.1764C79.7651 85.0288 79.78 84.8125 79.7921 84.5399C79.8042 84.2672 79.8132 83.9436 79.8186 83.5874C79.824 83.2312 79.8258 82.8495 79.8238 82.4641C79.8197 81.6856 79.8005 80.9391 79.7704 80.3887C79.7402 79.8384 79.7016 79.5293 79.6631 79.5295C79.644 79.5296 79.6255 79.6056 79.6087 79.7532C79.5918 79.9008 79.5769 80.1171 79.5649 80.3898C79.5528 80.6624 79.5438 80.986 79.5383 81.3422C79.5329 81.6984 79.5311 82.0801 79.5332 82.4656C79.5372 83.2441 79.5565 83.9906 79.5866 84.5409C79.6167 85.0912 79.6553 85.4003 79.6938 85.4001Z" stroke="#7B94F2" stroke-width="2"/>
<path d="M15.0217 24.8557C14.5519 24.5506 14.3182 24.1364 14.3206 23.6133C14.3278 18.0454 14.3436 12.4787 14.3678 6.91326C14.3702 6.30053 14.4974 5.86217 14.7492 5.59818C15.0617 5.27365 15.4831 5.12471 16.0135 5.15135C16.3162 5.1683 16.4785 5.17678 16.5003 5.17678C25.6525 5.17678 34.8048 5.17678 43.9571 5.17678C44.5214 5.17678 44.9646 5.30998 45.2867 5.57639C45.5482 5.79435 45.6839 6.18064 45.6935 6.73525C45.788 12.0028 45.8159 17.2704 45.7771 22.538C45.7771 22.5743 45.7892 22.8056 45.8134 23.2319C45.8522 23.8688 45.6584 24.3629 45.2322 24.714C44.9416 24.949 44.4826 25.0664 43.8553 25.0664C37.2678 25.0567 30.6791 25.064 24.0892 25.0882C23.9708 25.0881 23.8545 25.1235 23.755 25.1899C22.4835 26.0182 21.2084 26.8392 19.9296 27.653C19.346 28.026 18.9209 28.0877 18.6545 27.8383C18.3518 27.5573 18.244 26.9858 18.3312 26.1236C18.4039 25.3946 18.1169 25.0362 17.4702 25.0483L15.8682 25.081C15.5537 25.088 15.2583 25.0094 15.0217 24.8557ZM14.5349 6.4192C14.5349 6.40764 14.5303 6.39655 14.5221 6.38837C14.514 6.3802 14.5029 6.3756 14.4913 6.3756H14.4841C14.4725 6.3756 14.4614 6.3802 14.4532 6.38837C14.4451 6.39655 14.4405 6.40764 14.4405 6.4192V23.8276C14.4405 23.8392 14.4451 23.8503 14.4532 23.8585C14.4614 23.8666 14.4725 23.8712 14.4841 23.8712H14.4913C14.5029 23.8712 14.514 23.8666 14.5221 23.8585C14.5303 23.8503 14.5349 23.8392 14.5349 23.8276V6.4192ZM43.1433 10.8803C43.1433 10.7888 43.107 10.701 43.0422 10.6363C42.9775 10.5715 42.8897 10.5352 42.7982 10.5352H17.2377C17.1462 10.5352 17.0584 10.5715 16.9937 10.6363C16.929 10.701 16.8926 10.7888 16.8926 10.8803V11.2799C16.8926 11.3714 16.929 11.4592 16.9937 11.5239C17.0584 11.5887 17.1462 11.625 17.2377 11.625H42.7982C42.8897 11.625 42.9775 11.5887 43.0422 11.5239C43.107 11.4592 43.1433 11.3714 43.1433 11.2799V10.8803ZM43.2051 14.2079C43.2051 14.101 43.1626 13.9984 43.087 13.9228C43.0113 13.8472 42.9088 13.8047 42.8018 13.8047H17.285C17.178 13.8047 17.0754 13.8472 16.9998 13.9228C16.9242 13.9984 16.8817 14.101 16.8817 14.2079V14.4913C16.8817 14.5983 16.9242 14.7008 16.9998 14.7764C17.0754 14.8521 17.178 14.8946 17.285 14.8946H42.8018C42.9088 14.8946 43.0113 14.8521 43.087 14.7764C43.1626 14.7008 43.2051 14.5983 43.2051 14.4913V14.2079ZM27.1517 17.5174C27.1517 17.3999 27.105 17.2872 27.0219 17.204C26.9387 17.1209 26.826 17.0742 26.7085 17.0742H17.3358C17.2183 17.0742 17.1055 17.1209 17.0224 17.204C16.9393 17.2872 16.8926 17.3999 16.8926 17.5174V17.7209C16.8926 17.8384 16.9393 17.9512 17.0224 18.0343C17.1055 18.1174 17.2183 18.1641 17.3358 18.1641H26.7085C26.826 18.1641 26.9387 18.1174 27.0219 18.0343C27.105 17.9512 27.1517 17.8384 27.1517 17.7209V17.5174Z" fill="#E8EFFF"/>
<path d="M14.4913 6.37561H14.484C14.4599 6.37561 14.4404 6.39513 14.4404 6.4192V23.8276C14.4404 23.8517 14.4599 23.8712 14.484 23.8712H14.4913C14.5154 23.8712 14.5349 23.8517 14.5349 23.8276V6.4192C14.5349 6.39513 14.5154 6.37561 14.4913 6.37561Z" fill="#E8EFFF"/>
<path d="M42.7982 10.5352H17.2377C17.0471 10.5352 16.8926 10.6897 16.8926 10.8803V11.2799C16.8926 11.4705 17.0471 11.625 17.2377 11.625H42.7982C42.9888 11.625 43.1433 11.4705 43.1433 11.2799V10.8803C43.1433 10.6897 42.9888 10.5352 42.7982 10.5352Z" fill="#BDC8FE"/>
<path d="M50.3871 30.3231C49.7865 29.955 49.4862 29.4439 49.4862 28.79C49.4934 23.3408 49.4898 17.8916 49.4753 12.4424C49.4704 11.3671 49.8821 10.741 50.7104 10.5642C50.7976 10.5448 51.443 10.5352 52.6467 10.5352C61.409 10.5352 70.1714 10.5352 78.9337 10.5352C79.5901 10.5352 80.0478 10.6272 80.3069 10.8113C80.7162 11.1043 80.9209 11.5875 80.9209 12.2607C80.9209 17.8601 80.9209 23.4619 80.9209 29.0661C80.9209 29.9404 80.4619 30.3909 79.5441 30.4175L77.2663 30.4793C77.2154 30.4816 77.1671 30.5023 77.1298 30.5376C77.0925 30.5729 77.0688 30.6204 77.0628 30.6718C76.9999 31.2216 76.9805 31.775 77.0047 32.332C77.0362 32.9932 76.8134 33.348 76.3363 33.3964C76.0723 33.4231 75.7514 33.3105 75.3736 33.0586C74.1336 32.2303 72.8851 31.4153 71.6281 30.6137C71.5285 30.5496 71.4116 30.5144 71.2903 30.512L50.7431 30.4248C50.6173 30.4247 50.494 30.3895 50.3871 30.3231ZM78.4142 16.1914C78.4142 16.1528 78.4066 16.1145 78.3918 16.0788C78.3771 16.0431 78.3554 16.0107 78.3281 15.9834C78.3007 15.956 78.2683 15.9344 78.2326 15.9196C78.1969 15.9048 78.1586 15.8972 78.12 15.8972H52.4287C52.3901 15.8972 52.3518 15.9048 52.3161 15.9196C52.2804 15.9344 52.248 15.956 52.2207 15.9834C52.1933 16.0107 52.1717 16.0431 52.1569 16.0788C52.1421 16.1145 52.1345 16.1528 52.1345 16.1914V16.7C52.1345 16.7387 52.1421 16.7769 52.1569 16.8126C52.1717 16.8483 52.1933 16.8808 52.2207 16.9081C52.248 16.9354 52.2804 16.9571 52.3161 16.9719C52.3518 16.9867 52.3901 16.9943 52.4287 16.9943H78.12C78.198 16.9943 78.2729 16.9633 78.3281 16.9081C78.3832 16.8529 78.4142 16.7781 78.4142 16.7V16.1914ZM78.367 19.5118C78.367 19.4193 78.3303 19.3306 78.2649 19.2652C78.1995 19.1998 78.1108 19.1631 78.0183 19.1631H52.4142C52.3217 19.1631 52.233 19.1998 52.1676 19.2652C52.1022 19.3306 52.0655 19.4193 52.0655 19.5118V19.926C52.0655 20.0185 52.1022 20.1072 52.1676 20.1726C52.233 20.238 52.3217 20.2747 52.4142 20.2747H78.0183C78.1108 20.2747 78.1995 20.238 78.2649 20.1726C78.3303 20.1072 78.367 20.0185 78.367 19.926V19.5118ZM78.4184 22.7103C78.4184 22.675 78.4116 22.6401 78.3981 22.6074C78.3846 22.5748 78.3649 22.5451 78.34 22.5201C78.3151 22.4951 78.2855 22.4753 78.2529 22.4617C78.2203 22.4481 78.1853 22.4411 78.15 22.441L68.4795 22.4242C68.4442 22.4241 68.4092 22.431 68.3766 22.4445C68.3439 22.4579 68.3143 22.4777 68.2893 22.5026C68.2642 22.5275 68.2444 22.5571 68.2308 22.5897C68.2173 22.6223 68.2102 22.6572 68.2102 22.6925L68.2092 23.2738C68.2091 23.3091 68.216 23.3441 68.2294 23.3767C68.2429 23.4093 68.2627 23.439 68.2876 23.464C68.3125 23.489 68.3421 23.5089 68.3747 23.5225C68.4073 23.536 68.4422 23.543 68.4775 23.5431L78.1481 23.56C78.1834 23.56 78.2183 23.5531 78.251 23.5397C78.2836 23.5262 78.3133 23.5065 78.3383 23.4815C78.3633 23.4566 78.3832 23.427 78.3967 23.3944C78.4103 23.3618 78.4173 23.3269 78.4174 23.2916L78.4184 22.7103Z" fill="#E8EFFF"/>
<path d="M42.8018 13.8047H17.2849C17.0622 13.8047 16.8817 13.9852 16.8817 14.2079V14.4913C16.8817 14.714 17.0622 14.8945 17.2849 14.8945H42.8018C43.0245 14.8945 43.205 14.714 43.205 14.4913V14.2079C43.205 13.9852 43.0245 13.8047 42.8018 13.8047Z" fill="#BDC8FE"/>
<path d="M78.12 15.8972H52.4288C52.2663 15.8972 52.1345 16.029 52.1345 16.1915V16.7001C52.1345 16.8626 52.2663 16.9943 52.4288 16.9943H78.12C78.2825 16.9943 78.4143 16.8626 78.4143 16.7001V16.1915C78.4143 16.029 78.2825 15.8972 78.12 15.8972Z" fill="#BDC8FE"/>
<path d="M26.7084 17.0742H17.3358C17.091 17.0742 16.8926 17.2726 16.8926 17.5174V17.7209C16.8926 17.9656 17.091 18.1641 17.3358 18.1641H26.7084C26.9532 18.1641 27.1516 17.9656 27.1516 17.7209V17.5174C27.1516 17.2726 26.9532 17.0742 26.7084 17.0742Z" fill="#BDC8FE"/>
<path d="M78.0183 19.1631H52.4142C52.2216 19.1631 52.0655 19.3192 52.0655 19.5118V19.926C52.0655 20.1186 52.2216 20.2747 52.4142 20.2747H78.0183C78.2109 20.2747 78.3671 20.1186 78.3671 19.926V19.5118C78.3671 19.3192 78.2109 19.1631 78.0183 19.1631Z" fill="#BDC8FE"/>
<path d="M78.1501 22.4411L68.4795 22.4242C68.3311 22.4239 68.2105 22.5441 68.2102 22.6925L68.2092 23.2738C68.209 23.4223 68.3291 23.5428 68.4776 23.5431L78.1481 23.56C78.2966 23.5602 78.4171 23.4401 78.4174 23.2916L78.4184 22.7104C78.4187 22.5619 78.2985 22.4413 78.1501 22.4411Z" fill="#BDC8FE"/>
<path d="M38.417 48.6035L37.2 47.6044C36.8609 47.3259 36.6914 47.4155 36.6914 47.8733C36.6914 49.1302 36.3257 50.461 35.5943 51.8657C35.403 52.2338 35.2637 52.2145 35.1765 51.8076C34.8374 50.2237 34.3349 48.7427 33.6689 47.3647C33.0513 46.0859 32.1746 45.0784 31.0387 44.3422C29.0189 43.0319 26.8065 41.9796 24.4016 41.1853C24.0601 41.0738 23.7416 40.9431 23.4462 40.7929C23.141 40.6403 22.8346 40.4878 22.5271 40.3352C22.5075 40.3259 22.4861 40.3212 22.4644 40.3213C22.4428 40.3214 22.4214 40.3263 22.4019 40.3357C22.3824 40.3451 22.3653 40.3587 22.3517 40.3756C22.3382 40.3925 22.3286 40.4122 22.3236 40.4333C21.505 44.0976 20.2444 47.6032 18.5419 50.9503C18.4813 51.0665 18.4498 51.0592 18.4474 50.9285L18.3457 47.7025C18.3408 47.4724 18.2621 47.4288 18.1096 47.5717L16.8017 48.7851C15.7482 47.0995 15.0519 45.5507 14.7129 44.1387C13.5915 39.4669 15.1997 36.2979 19.5372 34.6317C20.3534 34.3192 21.2834 34.2769 22.3272 34.5045C22.3998 34.5201 22.475 34.5162 22.5453 34.4932C22.6155 34.4702 22.6782 34.429 22.7269 34.3737C24.2333 32.6494 25.971 31.7206 27.9399 31.5874C29.611 31.4735 31.3778 31.9422 33.2402 32.9933C36.9287 35.0761 38.7754 38.5793 38.7803 43.503C38.7827 45.7093 38.6616 47.4095 38.417 48.6035ZM33.0077 37.2872C32.9351 37.2243 32.8648 37.1879 32.797 37.1783C32.6299 37.154 32.619 37.2061 32.7643 37.3345C33.4836 37.9714 34.1751 38.6374 34.8387 39.3325C34.8726 39.3664 34.9065 39.4137 34.9404 39.4742C35.0179 39.6219 35.0772 39.6437 35.1184 39.5396C35.1306 39.5068 35.132 39.4692 35.1224 39.4308C35.1128 39.3924 35.0926 39.3546 35.0639 39.3216C34.4245 38.5975 33.7391 37.9194 33.0077 37.2872Z" fill="#373754"/>
<path d="M72.8524 47.499C72.6998 47.6249 72.6647 47.8066 72.747 48.0439C72.8488 48.3321 72.8161 48.6094 72.649 48.8758C72.6199 48.9205 72.5771 48.9549 72.5264 48.9744C72.4757 48.994 72.4195 48.9976 72.3656 48.9848C71.5083 48.7862 71.1535 48.1819 71.3012 47.172C71.3178 47.0649 71.3041 46.9553 71.2618 46.8552C71.2194 46.7551 71.1501 46.6686 71.0614 46.6053C70.795 46.414 70.5904 46.1633 70.4475 45.8533C70.3458 45.6305 70.2864 45.3253 70.2695 44.9378C70.2138 43.7124 70.2816 42.4554 70.4729 41.167C70.4774 41.1358 70.4741 41.1041 70.4634 41.0745C70.4528 41.0448 70.435 41.0183 70.4117 40.9972C70.3884 40.976 70.3603 40.9609 70.3298 40.9531C70.2993 40.9454 70.2673 40.9452 70.2368 40.9526C67.8851 41.5266 65.5129 41.8923 63.1201 42.0498C60.3034 42.2362 57.8537 41.9323 55.7709 41.1379C55.7515 41.131 55.7306 41.1288 55.7102 41.1315C55.6897 41.1342 55.6702 41.1417 55.6532 41.1534C55.6362 41.1651 55.6222 41.1807 55.6123 41.1988C55.6025 41.217 55.5971 41.2372 55.5965 41.2578C55.5311 42.6141 55.2865 43.934 54.8627 45.2176C54.8603 45.2273 54.7598 45.4525 54.5612 45.8933C54.3892 46.2808 54.3057 46.7555 54.3105 47.3173C54.3202 48.1819 53.9848 48.7281 53.3042 48.9557C53.2453 48.975 53.1824 48.9789 53.1215 48.967C53.0607 48.9552 53.0038 48.9279 52.9565 48.8878C52.9092 48.8478 52.8729 48.7962 52.8511 48.7382C52.8293 48.6801 52.8227 48.6174 52.832 48.5561C52.8949 48.1662 52.8731 47.8392 52.7666 47.5753C52.7932 47.3307 52.7254 47.0703 52.5631 46.7942C51.0979 44.3142 50.4392 41.5218 50.5869 38.4169C50.7031 35.9684 51.7567 34.3131 53.7474 33.4509C54.1616 33.2692 54.7331 33.1336 55.4621 33.044C56.3388 32.9375 56.9237 32.8515 57.2168 32.7861C59.6386 32.246 62.0908 31.9905 64.5732 32.0196C66.9152 32.0462 68.8151 32.5209 70.2731 33.4436C71.5131 34.2307 72.3172 35.3835 72.6853 36.9021C72.6985 36.9573 72.7259 37.0081 72.7648 37.0495C72.8037 37.0909 72.8526 37.1215 72.9069 37.1382C74.3261 37.5741 75.1338 38.3939 75.33 39.5976C75.4438 40.2903 75.2561 41.2929 74.7669 42.6056C74.2486 43.9909 73.7037 45.266 73.1321 46.4309C72.9456 46.8136 72.8524 47.1696 72.8524 47.499Z" fill="#34324C"/>
<path d="M33.0077 37.2872C33.7391 37.9193 34.4245 38.5975 35.0639 39.3216C35.0926 39.3546 35.1128 39.3924 35.1224 39.4308C35.132 39.4692 35.1306 39.5068 35.1184 39.5396C35.0772 39.6437 35.0179 39.6219 34.9404 39.4742C34.9065 39.4136 34.8726 39.3664 34.8387 39.3325C34.1751 38.6374 33.4836 37.9714 32.7643 37.3345C32.619 37.2061 32.6299 37.154 32.797 37.1783C32.8649 37.1879 32.9351 37.2243 33.0077 37.2872Z" fill="#373754"/>
<path d="M38.417 48.6035C38.7658 49.7805 38.6398 50.8958 38.0392 51.9493L36.9203 52.5669C36.8704 52.5942 36.8275 52.6322 36.7947 52.6782C36.762 52.7242 36.7403 52.7768 36.7314 52.8321C36.2397 55.8933 34.7127 58.2982 32.1504 60.0468C30.2928 60.9187 28.302 61.2396 26.1781 61.0095C25.1027 60.8908 24.1546 60.5615 23.3336 60.0214C23.2754 59.9831 23.2118 59.9594 23.1549 59.9547C23.0979 59.95 23.0516 59.9647 23.0248 59.996C22.9788 60.0444 22.9582 60.1171 22.963 60.2139C22.9194 60.0105 22.7051 59.7756 22.32 59.5092C20.0919 57.9785 18.7829 55.7528 18.3929 52.8321C18.3863 52.7864 18.3663 52.7391 18.3344 52.6934C18.3025 52.6477 18.2593 52.6046 18.2077 52.5669L17.0888 51.7676C16.5826 50.8207 16.4869 49.8265 16.8018 48.7851L18.1096 47.5717C18.2622 47.4289 18.3409 47.4724 18.3457 47.7025L18.4474 50.9285C18.4499 51.0592 18.4813 51.0665 18.5419 50.9503C20.2445 47.6032 21.5051 44.0976 22.3236 40.4333C22.3286 40.4122 22.3382 40.3925 22.3518 40.3756C22.3653 40.3587 22.3825 40.3451 22.402 40.3357C22.4215 40.3263 22.4428 40.3214 22.4645 40.3213C22.4861 40.3212 22.5075 40.3259 22.5271 40.3352C22.8347 40.4878 23.141 40.6403 23.4462 40.7929C23.7417 40.9431 24.0601 41.0739 24.4016 41.1853C26.8065 41.9796 29.0189 43.0319 31.0388 44.3422C32.1746 45.0784 33.0513 46.0859 33.6689 47.3647C34.3349 48.7427 34.8375 50.2237 35.1765 51.8076C35.2637 52.2145 35.403 52.2339 35.5943 51.8657C36.3257 50.461 36.6914 49.1302 36.6914 47.8733C36.6914 47.4155 36.861 47.3259 37.2 47.6044L38.417 48.6035ZM23.9747 50.5034C24.0729 50.5036 24.1703 50.4755 24.2612 50.4207C24.3521 50.3659 24.4347 50.2855 24.5044 50.1841C24.5741 50.0827 24.6294 49.9622 24.6672 49.8296C24.7051 49.697 24.7247 49.5549 24.7249 49.4113C24.7254 49.1212 24.6471 48.843 24.5071 48.6377C24.3671 48.4324 24.177 48.3168 23.9785 48.3165C23.8802 48.3163 23.7829 48.3444 23.692 48.3992C23.6011 48.454 23.5184 48.5344 23.4488 48.6358C23.3791 48.7372 23.3238 48.8577 23.2859 48.9903C23.2481 49.1229 23.2285 49.265 23.2282 49.4086C23.2277 49.6986 23.3061 49.9769 23.4461 50.1822C23.586 50.3875 23.7762 50.5031 23.9747 50.5034ZM31.1216 50.5251C31.3191 50.5272 31.5098 50.4125 31.6516 50.2062C31.7934 49.9998 31.8748 49.7189 31.8779 49.425C31.8794 49.2795 31.8617 49.1352 31.8257 49.0004C31.7896 48.8656 31.7361 48.7429 31.668 48.6393C31.5999 48.5357 31.5187 48.4532 31.4289 48.3966C31.3391 48.34 31.2426 48.3103 31.1448 48.3093C30.9473 48.3072 30.7567 48.422 30.6148 48.6283C30.473 48.8346 30.3916 49.1156 30.3885 49.4094C30.387 49.5549 30.4048 49.6992 30.4408 49.834C30.4768 49.9688 30.5304 50.0915 30.5984 50.1951C30.6665 50.2987 30.7478 50.3812 30.8375 50.4378C30.9273 50.4945 31.0238 50.5241 31.1216 50.5251ZM37.4144 49.7805C37.4022 50.0057 37.349 50.2201 37.2545 50.4235C37.0147 50.9418 37.0038 51.2142 37.2218 51.2409C37.3671 51.2603 37.5185 51.1828 37.6759 51.0084C38.2329 50.3884 38.2451 49.726 37.7122 49.0212C37.487 48.7233 37.3235 48.6955 37.2218 48.9377C37.2026 48.983 37.1955 49.0366 37.2012 49.0945C37.2068 49.1524 37.2251 49.213 37.2545 49.2719C37.3683 49.502 37.4216 49.6715 37.4144 49.7805ZM25.5641 56.9953C26.3125 57.5886 27.0851 57.8139 27.8819 57.671C29.5118 57.3779 30.4636 56.3813 30.7372 54.6812C30.7425 54.6471 30.7406 54.6124 30.7315 54.5793C30.7224 54.5462 30.7063 54.5157 30.6845 54.4897C30.6627 54.4637 30.6357 54.443 30.6052 54.429C30.5748 54.4151 30.5417 54.4081 30.5084 54.4087L24.5869 54.4632C24.5387 54.4632 24.4925 54.4831 24.4584 54.5185C24.4244 54.5539 24.4052 54.602 24.4052 54.6521C24.4149 55.6112 24.8012 56.3922 25.5641 56.9953Z" fill="#FCC6B3"/>
<path d="M72.8524 47.4991C74.2765 48.0876 74.8965 49.1762 74.7124 50.765C74.5841 51.879 73.9883 52.6177 72.9251 52.981C72.8536 53.0048 72.7904 53.0489 72.7428 53.1081C72.6951 53.1673 72.6651 53.2391 72.6563 53.3152C72.3245 56.282 70.9295 58.6796 68.4713 60.5082C68.3843 60.5726 68.3132 60.6602 68.2634 60.7641C68.2137 60.8681 68.1866 60.9856 68.1843 61.1076L68.1298 64.1192L63.7304 68.0063C63.2654 68.4156 62.7908 68.4144 62.3064 68.0026L57.838 64.21L57.7581 61.1403C57.7569 61.0898 57.7404 61.0379 57.71 60.9892C57.6796 60.9405 57.6363 60.8963 57.5837 60.8605C54.8833 59.0683 53.3152 56.5508 52.8792 53.3079C52.8724 53.254 52.852 53.2021 52.8197 53.1566C52.7875 53.1111 52.7444 53.0733 52.694 53.0464C51.0519 52.1478 50.5688 50.7601 51.2445 48.8832C51.4527 48.3067 51.9601 47.8708 52.7666 47.5753C52.8732 47.8393 52.895 48.1663 52.832 48.5562C52.8227 48.6175 52.8293 48.6802 52.8511 48.7383C52.8729 48.7963 52.9092 48.8478 52.9565 48.8879C53.0039 48.928 53.0607 48.9552 53.1216 48.9671C53.1824 48.979 53.2453 48.9751 53.3043 48.9558C53.9848 48.7282 54.3202 48.182 54.3106 47.3174C54.3057 46.7555 54.3893 46.2809 54.5612 45.8934C54.7598 45.4526 54.8603 45.2273 54.8627 45.2176C55.2866 43.9341 55.5312 42.6141 55.5966 41.2579C55.5971 41.2373 55.6025 41.217 55.6124 41.1989C55.6222 41.1808 55.6362 41.1652 55.6532 41.1535C55.6702 41.1418 55.6898 41.1343 55.7102 41.1316C55.7307 41.1289 55.7515 41.1311 55.7709 41.138C57.8538 41.9324 60.3035 42.2363 63.1201 42.0498C65.5129 41.8924 67.8852 41.5267 70.2368 40.9527C70.2674 40.9453 70.2993 40.9455 70.3298 40.9532C70.3603 40.961 70.3884 40.9761 70.4117 40.9972C70.435 41.0184 70.4528 41.0449 70.4635 41.0745C70.4741 41.1041 70.4774 41.1359 70.4729 41.1671C70.2816 42.4555 70.2138 43.7125 70.2695 44.9379C70.2865 45.3254 70.3458 45.6306 70.4475 45.8534C70.5904 46.1634 70.795 46.4141 71.0615 46.6054C71.1501 46.6687 71.2195 46.7552 71.2618 46.8553C71.3041 46.9553 71.3178 47.065 71.3012 47.1721C71.1535 48.182 71.5083 48.7863 72.3656 48.9849C72.4195 48.9976 72.4757 48.994 72.5264 48.9745C72.5772 48.955 72.62 48.9206 72.649 48.8759C72.8161 48.6095 72.8488 48.3322 72.7471 48.044C72.6647 47.8066 72.6999 47.625 72.8524 47.4991ZM58.9122 50.823C59.128 50.8245 59.3358 50.6989 59.49 50.4738C59.6442 50.2487 59.7321 49.9425 59.7343 49.6226C59.7365 49.3028 59.653 48.9954 59.5019 48.7682C59.3509 48.541 59.1448 48.4124 58.929 48.4109C58.7132 48.4094 58.5053 48.535 58.3512 48.7602C58.197 48.9853 58.1091 49.2915 58.1069 49.6113C58.1047 49.9312 58.1882 50.2385 58.3393 50.4658C58.4903 50.693 58.6964 50.8215 58.9122 50.823ZM66.6573 50.8339C66.875 50.8355 67.0847 50.7091 67.2403 50.4826C67.3958 50.2561 67.4845 49.9481 67.4867 49.6264C67.489 49.3046 67.4046 48.9953 67.2523 48.7667C67.0999 48.5381 66.892 48.4088 66.6742 48.4073C66.4565 48.4058 66.2468 48.5322 66.0912 48.7586C65.9357 48.9851 65.847 49.2931 65.8448 49.6149C65.8425 49.9367 65.9269 50.2459 66.0792 50.4745C66.2316 50.7031 66.4395 50.8324 66.6573 50.8339ZM73.6698 50.3472C73.6359 50.5458 73.562 50.7274 73.4482 50.8921C73.0607 51.4491 73.0716 51.6368 73.4809 51.4552C73.5851 51.4092 73.671 51.3401 73.7388 51.2481C74.1481 50.6838 74.2026 50.0784 73.9023 49.4317C73.7183 49.0394 73.5427 48.9776 73.3756 49.2464C73.3501 49.2882 73.3397 49.339 73.3455 49.3922C73.3513 49.4453 73.3732 49.4984 73.4083 49.5443C73.6238 49.8253 73.711 50.0929 73.6698 50.3472ZM60.7879 54.9354C60.4173 54.9088 59.9777 54.9185 59.4691 54.9645C59.4436 54.9666 59.4187 54.9741 59.3961 54.9863C59.3735 54.9986 59.3536 55.0155 59.3376 55.0359C59.3216 55.0563 59.3099 55.0798 59.3032 55.105C59.2964 55.1302 59.2948 55.1565 59.2984 55.1824C59.5672 57.0085 60.4561 58.0996 61.9649 58.4556C62.9651 58.6905 63.877 58.538 64.7004 57.9979C65.5917 57.4118 66.1172 56.5387 66.277 55.3786C66.2847 55.3216 66.2796 55.2635 66.2623 55.2086C66.245 55.1538 66.2158 55.1035 66.1769 55.0614C66.1379 55.0194 66.0902 54.9866 66.0372 54.9654C65.9841 54.9442 65.9271 54.9352 65.8702 54.9391C64.1361 55.0529 62.442 55.0517 60.7879 54.9354Z" fill="#FCC6B3"/>
<path d="M23.2282 49.4086C23.2271 50.0125 23.5613 50.5027 23.9746 50.5034C24.3879 50.5041 24.7238 50.0151 24.7249 49.4112C24.726 48.8073 24.3918 48.3172 23.9784 48.3164C23.5651 48.3157 23.2292 48.8047 23.2282 49.4086Z" fill="#343334"/>
<path d="M30.3885 49.4094C30.3821 50.0213 30.7103 50.5208 31.1216 50.5251C31.5329 50.5294 31.8715 50.0369 31.8779 49.425C31.8843 48.8131 31.5561 48.3135 31.1448 48.3092C30.7335 48.3049 30.3949 48.7975 30.3885 49.4094Z" fill="#343334"/>
<path d="M58.1069 49.6113C58.1022 50.2774 58.4628 50.8199 58.9122 50.8231C59.3616 50.8262 59.7297 50.2888 59.7343 49.6227C59.739 48.9566 59.3784 48.4141 58.929 48.4109C58.4796 48.4078 58.1115 48.9452 58.1069 49.6113Z" fill="#343334"/>
<path d="M65.8448 49.6148C65.8401 50.2849 66.2039 50.8307 66.6573 50.8339C67.1107 50.8371 67.4821 50.2964 67.4868 49.6263C67.4914 48.9562 67.1277 48.4104 66.6742 48.4072C66.2208 48.4041 65.8495 48.9447 65.8448 49.6148Z" fill="#343334"/>
<path d="M37.4143 49.7804C37.4216 49.6714 37.3683 49.5019 37.2545 49.2718C37.225 49.2129 37.2068 49.1522 37.2011 49.0944C37.1955 49.0365 37.2025 48.9829 37.2218 48.9376C37.3235 48.6954 37.487 48.7232 37.7122 49.0211C38.245 49.7259 38.2329 50.3883 37.6759 51.0083C37.5185 51.1826 37.3671 51.2601 37.2218 51.2408C37.0038 51.2141 37.0147 50.9417 37.2545 50.4234C37.3489 50.2199 37.4022 50.0056 37.4143 49.7804Z" fill="#EFB5A3"/>
<path d="M73.6698 50.3471C73.711 50.0928 73.6238 49.8252 73.4082 49.5442C73.3732 49.4983 73.3513 49.4453 73.3455 49.3921C73.3396 49.3389 73.3501 49.2881 73.3755 49.2464C73.5427 48.9775 73.7182 49.0393 73.9023 49.4316C74.2026 50.0783 74.1481 50.6837 73.7388 51.248C73.671 51.3401 73.585 51.4091 73.4809 51.4551C73.0716 51.6367 73.0607 51.449 73.4482 50.892C73.562 50.7273 73.6359 50.5457 73.6698 50.3471Z" fill="#EFB5A3"/>
<path d="M17.0887 51.7676L18.2077 52.5668C18.2593 52.6045 18.3024 52.6477 18.3344 52.6934C18.3663 52.7391 18.3863 52.7863 18.3929 52.832C18.7828 55.7528 20.0919 57.9785 22.32 59.5091C22.7051 59.7755 22.9194 60.0104 22.963 60.2139C22.9412 60.4682 22.9715 60.7104 23.0538 60.9404V64.0283C20.8233 63.6505 18.6242 63.1455 16.4566 62.5134C16.4075 62.4997 16.3649 62.469 16.3369 62.4269C16.3088 62.3848 16.2972 62.3342 16.3041 62.2846C16.7691 58.7946 17.0306 55.289 17.0887 51.7676Z" fill="#373754"/>
<path d="M38.0392 51.9492C37.6372 54.4873 37.4809 57.0376 37.5706 59.5999C37.5875 60.1497 37.6565 60.6135 37.7776 60.9913C37.9229 61.4418 38.1155 61.8753 38.3552 62.2918C38.3682 62.3141 38.3759 62.339 38.3777 62.3647C38.3795 62.3905 38.3753 62.4164 38.3655 62.4405C38.3557 62.4646 38.3406 62.4863 38.3212 62.504C38.3018 62.5216 38.2787 62.5348 38.2535 62.5425C36.2167 63.1407 34.1872 63.6057 32.1649 63.9375L32.1359 62.666C32.3006 61.7941 32.3054 60.9211 32.1504 60.0468C34.7127 58.2982 36.2397 55.8932 36.7314 52.832C36.7403 52.7767 36.762 52.7241 36.7947 52.6781C36.8274 52.6322 36.8704 52.5941 36.9203 52.5668L38.0392 51.9492Z" fill="#373754"/>
<path d="M25.5641 56.9952C24.8012 56.3921 24.4149 55.6111 24.4052 54.652C24.4052 54.6019 24.4243 54.5539 24.4584 54.5184C24.4925 54.483 24.5387 54.4631 24.5869 54.4631L30.5083 54.4086C30.5417 54.408 30.5748 54.415 30.6052 54.429C30.6356 54.4429 30.6627 54.4636 30.6845 54.4896C30.7063 54.5156 30.7223 54.5461 30.7314 54.5792C30.7405 54.6123 30.7425 54.6471 30.7372 54.6811C30.4635 56.3812 29.5117 57.3778 27.8818 57.6709C27.085 57.8138 26.3124 57.5885 25.5641 56.9952Z" fill="white"/>
<path d="M60.7878 54.9354C62.442 55.0517 64.1361 55.0529 65.8701 54.9391C65.9271 54.9352 65.9841 54.9442 66.0371 54.9654C66.0902 54.9866 66.1379 55.0194 66.1768 55.0614C66.2158 55.1035 66.245 55.1538 66.2623 55.2086C66.2796 55.2635 66.2846 55.3216 66.277 55.3786C66.1172 56.5387 65.5916 57.4118 64.7004 57.9979C63.8769 58.538 62.9651 58.6905 61.9649 58.4556C60.456 58.0996 59.5672 57.0086 59.2984 55.1825C59.2948 55.1565 59.2964 55.1302 59.3031 55.105C59.3099 55.0798 59.3216 55.0563 59.3376 55.0359C59.3535 55.0155 59.3734 54.9986 59.3961 54.9863C59.4187 54.9741 59.4435 54.9666 59.4691 54.9645C59.9777 54.9185 60.4173 54.9088 60.7878 54.9354Z" fill="white"/>
<path d="M32.1504 60.0467C32.3054 60.921 32.3006 61.7941 32.1359 62.666C29.1691 62.867 26.2979 62.2313 23.5225 60.7588C23.2754 60.628 23.1192 60.6885 23.0538 60.9404C22.9715 60.7103 22.9412 60.4681 22.963 60.2138C22.9582 60.117 22.9788 60.0443 23.0248 59.9959C23.0516 59.9646 23.0979 59.9499 23.1549 59.9546C23.2118 59.9593 23.2754 59.983 23.3336 60.0213C24.1546 60.5614 25.1027 60.8908 26.1781 61.0094C28.302 61.2395 30.2928 60.9186 32.1504 60.0467Z" fill="#EFB5A3"/>
<path d="M32.1359 62.666L32.1649 63.9375V65.7539L27.7511 72.3548C27.7268 72.3911 27.6941 72.4212 27.6558 72.4422C27.6176 72.4633 27.575 72.4747 27.5318 72.4754C27.4886 72.4761 27.4463 72.4661 27.4084 72.4464C27.3706 72.4266 27.3386 72.3976 27.3151 72.362C25.9032 70.2623 24.5372 68.1988 23.2173 66.1717C23.135 66.0458 23.0805 65.9065 23.0538 65.7539V64.0283V60.9405C23.1192 60.6886 23.2754 60.628 23.5225 60.7588C26.2979 62.2313 29.1691 62.8671 32.1359 62.666Z" fill="#FCC6B3"/>
<path d="M68.1298 64.1191L70.9161 66.1172C70.7757 66.1947 70.7212 66.2928 70.7527 66.4114C70.7694 66.4732 70.7762 66.5332 70.7724 66.5864C70.7686 66.6395 70.7543 66.6842 70.7309 66.7166L67.2252 71.4175C67.1976 71.454 67.1561 71.4781 67.109 71.4848C67.0618 71.4915 67.0125 71.4805 66.9709 71.4538L65.4052 70.4766L63.1855 68.7546C63.1448 68.7226 63.093 68.7047 63.0366 68.7034C62.9803 68.7021 62.9221 68.7174 62.8695 68.7473C62.0387 69.2075 61.3001 69.7839 60.6534 70.4766C60.2296 70.571 59.8409 70.8168 59.4873 71.214C59.1579 71.5846 58.8479 71.57 58.5573 71.1704C57.5571 69.8021 56.5823 68.4725 55.6329 67.1816C55.6159 67.1574 55.4924 67.023 55.2623 66.7784C55.0977 66.5991 54.9923 66.3836 54.9463 66.1317L57.838 64.21L62.3064 68.0026C62.7907 68.4143 63.2654 68.4155 63.7304 68.0062L68.1298 64.1191Z" fill="#CCCCCC"/>
<path d="M16.8926 65.8593C17.5223 68.6807 18.3396 71.0978 19.3447 73.1104C21.3404 77.1089 24.4064 78.8575 28.543 78.3561C30.1584 78.1624 31.5377 77.6054 32.6808 76.685C34.1509 75.5056 35.2758 73.9205 36.0557 71.9297C37.0293 69.44 37.665 67.3863 37.9629 65.7684C38.2898 65.8532 38.6229 65.8762 38.9619 65.8375C40.6427 65.6461 42.2775 65.835 43.8662 66.4042C40.185 67.8525 38.2584 70.5795 38.0864 74.5853C37.8999 79.0028 37.7377 83.4203 37.5996 87.8378L5.50008 87.8232C5.46955 87.8232 5.43931 87.8172 5.4111 87.8055C5.3829 87.7939 5.35727 87.7767 5.33568 87.7551C5.31409 87.7336 5.29696 87.7079 5.28528 87.6797C5.27359 87.6515 5.26758 87.6213 5.26758 87.5907C5.26758 83.7375 5.26758 79.9146 5.26758 76.122C5.26758 73.688 5.44801 71.9442 5.80887 70.8907C6.82848 67.9094 9.1002 66.2274 12.624 65.8447C13.0648 65.7963 14.4877 65.8011 16.8926 65.8593Z" fill="#FCDE8C"/>
<path d="M23.0538 65.7539C23.0805 65.9065 23.135 66.0457 23.2173 66.1717C24.5372 68.1988 25.9032 70.2622 27.3151 72.362C27.3386 72.3976 27.3706 72.4265 27.4084 72.4463C27.4462 72.4661 27.4886 72.4761 27.5318 72.4754C27.575 72.4746 27.6176 72.4633 27.6558 72.4422C27.6941 72.4212 27.7268 72.3911 27.7511 72.3547L32.1649 65.7539L37.9629 65.7684C37.665 67.3862 37.0293 69.44 36.0557 71.9297C35.2758 73.9205 34.1509 75.5056 32.6808 76.685C31.5377 77.6054 30.1584 78.1624 28.543 78.3561C24.4064 78.8575 21.3404 77.1089 19.3447 73.1104C18.3396 71.0978 17.5223 68.6807 16.8926 65.8593L23.0538 65.7539Z" fill="#F2F2F2"/>
<path d="M50.7686 66.1317C51.0107 67.1513 51.4879 68.6069 52.1999 70.4984C53.1226 72.9566 54.4546 74.9849 56.196 76.5833C57.3754 77.6683 58.9872 78.3525 61.0312 78.6359C62.3948 78.9241 63.7571 78.9241 65.1182 78.6359C68.8866 77.8439 71.5579 75.6461 73.1321 72.0423C74.0694 69.8989 74.7584 67.9287 75.1992 66.1317C76.3278 66.2213 77.236 66.2468 77.9238 66.208C82.2081 65.961 85.1446 67.7774 86.7334 71.6572C87.0507 72.4298 87.2311 73.6395 87.2747 75.2864C87.3885 79.3987 87.5314 83.5087 87.7034 87.6162C87.7043 87.6401 87.7005 87.6641 87.692 87.6865C87.6834 87.709 87.6705 87.7295 87.6539 87.7468C87.6372 87.7641 87.6173 87.7778 87.5952 87.7872C87.5731 87.7966 87.5494 87.8015 87.5253 87.8014L79.4823 87.8232L79.0936 81.2115C79.0897 81.1478 79.068 81.0878 79.0329 81.0439C78.9978 81.0001 78.9519 80.9755 78.9047 80.9754L77.6114 81.0008C77.5761 81.0019 77.5415 81.0112 77.5095 81.0281C77.4775 81.045 77.4488 81.0692 77.4251 81.0993C77.4014 81.1295 77.3832 81.1649 77.3715 81.2035C77.3599 81.2421 77.355 81.2831 77.3571 81.3241L77.7422 87.8087L47.4082 87.8995C47.6431 85.87 47.7921 83.8344 47.855 81.7928C47.855 81.7637 47.8756 81.6099 47.9168 81.3314C47.9628 80.9923 47.8078 80.8361 47.4518 80.8628C47.229 80.8797 47.0183 80.8809 46.8197 80.8664C46.2796 80.8277 46.0217 81.1183 46.0459 81.7383C46.0871 82.8427 46.0265 84.3866 45.8643 86.3701C45.811 87.0095 45.8715 87.5193 46.0459 87.8995L37.5996 87.8378C37.7377 83.4203 37.8999 79.0028 38.0864 74.5853C38.2584 70.5795 40.185 67.8525 43.8662 66.4042L50.7686 66.1317ZM46.0922 68.1711C46.0924 68.1592 46.0902 68.1473 46.0857 68.1363C46.0813 68.1252 46.0747 68.1151 46.0664 68.1065C46.0581 68.098 46.0481 68.0912 46.0372 68.0865C46.0262 68.0818 46.0144 68.0793 46.0025 68.0792L45.9952 68.0791C45.9711 68.0788 45.9479 68.0881 45.9307 68.1049C45.9135 68.1217 45.9036 68.1447 45.9033 68.1688L45.8325 73.9663C45.8323 73.9782 45.8345 73.9901 45.839 74.0012C45.8434 74.0122 45.85 74.0223 45.8583 74.0309C45.8666 74.0394 45.8766 74.0462 45.8875 74.0509C45.8985 74.0556 45.9103 74.0581 45.9222 74.0583L45.9295 74.0583C45.9535 74.0586 45.9768 74.0493 45.994 74.0325C46.0112 74.0157 46.0211 73.9927 46.0214 73.9686L46.0922 68.1711ZM79.4678 73.7715C79.4847 73.493 79.4823 73.2096 79.4605 72.9214C79.4 72.052 79.3418 71.9333 79.2861 72.5654C79.2571 72.8972 79.2631 73.9205 79.3043 75.6352C79.3067 75.7562 79.314 75.7538 79.3261 75.6279C79.3866 75.0103 79.4339 74.3915 79.4678 73.7715ZM79.6938 85.4001C79.7129 85.4 79.7314 85.324 79.7483 85.1764C79.7651 85.0288 79.78 84.8125 79.7921 84.5399C79.8042 84.2673 79.8132 83.9436 79.8186 83.5874C79.824 83.2313 79.8258 82.8496 79.8238 82.4641C79.8197 81.6856 79.8005 80.9391 79.7704 80.3888C79.7402 79.8384 79.7016 79.5294 79.6631 79.5296C79.644 79.5297 79.6255 79.6057 79.6087 79.7533C79.5918 79.9009 79.5769 80.1172 79.5649 80.3898C79.5528 80.6624 79.5438 80.9861 79.5383 81.3422C79.5329 81.6984 79.5311 82.0801 79.5332 82.4656C79.5372 83.2441 79.5565 83.9906 79.5866 84.5409C79.6167 85.0913 79.6553 85.4003 79.6938 85.4001Z" fill="#7B94F2"/>
<path d="M50.7686 66.1317H54.9463C54.9923 66.3836 55.0977 66.5991 55.2623 66.7784C55.4924 67.023 55.6159 67.1574 55.6329 67.1816C56.5823 68.4725 57.5571 69.8021 58.5573 71.1704C58.8479 71.57 59.1579 71.5846 59.4873 71.214C59.8409 70.8168 60.2296 70.571 60.6534 70.4766C61.426 70.898 61.7639 71.4429 61.667 72.1113C61.4054 73.9229 61.1935 75.7393 61.0312 77.5605C60.9804 78.1418 60.9804 78.5002 61.0312 78.6359C58.9872 78.3525 57.3754 77.6683 56.196 76.5833C54.4546 74.9849 53.1226 72.9566 52.1999 70.4984C51.4879 68.6069 51.0107 67.1513 50.7686 66.1317Z" fill="#F2F2F2"/>
<path d="M70.9161 66.1172L75.1992 66.1317C74.7584 67.9287 74.0694 69.8989 73.1322 72.0423C71.5579 75.6461 68.8866 77.8439 65.1182 78.6359L64.348 71.8752C64.3378 71.7858 64.3491 71.6937 64.3812 71.6057C64.4132 71.5176 64.4652 71.436 64.5333 71.3666L65.4052 70.4766L66.9709 71.4538C67.0125 71.4805 67.0618 71.4915 67.109 71.4848C67.1561 71.4781 67.1976 71.454 67.2252 71.4175L70.7309 66.7166C70.7543 66.6842 70.7686 66.6395 70.7724 66.5864C70.7762 66.5332 70.7694 66.4732 70.7527 66.4114C70.7212 66.2928 70.7757 66.1947 70.9161 66.1172Z" fill="#F2F2F2"/>
<path d="M46.0025 68.0792L45.9952 68.0791C45.9451 68.0785 45.9039 68.1187 45.9033 68.1688L45.8325 73.9664C45.8319 74.0165 45.872 74.0577 45.9222 74.0583L45.9294 74.0584C45.9796 74.059 46.0208 74.0188 46.0214 73.9687L46.0922 68.1711C46.0928 68.121 46.0527 68.0798 46.0025 68.0792Z" fill="#7B94F2"/>
<path d="M65.4052 70.4766L64.5333 71.3666C64.4652 71.436 64.4132 71.5176 64.3812 71.6057C64.3491 71.6937 64.3378 71.7858 64.348 71.8752L65.1182 78.6359C63.7571 78.9241 62.3948 78.9241 61.0313 78.6359C60.9804 78.5002 60.9804 78.1418 61.0313 77.5605C61.1935 75.7393 61.4054 73.9229 61.667 72.1113C61.7639 71.4429 61.426 70.898 60.6534 70.4766C61.3001 69.7839 62.0388 69.2075 62.8695 68.7473C62.9221 68.7174 62.9803 68.7022 63.0366 68.7034C63.093 68.7047 63.1448 68.7226 63.1855 68.7546L65.4052 70.4766Z" fill="#FD7480"/>
<path d="M79.4677 73.7715C79.4338 74.3915 79.3866 75.0103 79.3261 75.6279C79.314 75.7538 79.3067 75.7562 79.3043 75.6351C79.2631 73.9204 79.257 72.8972 79.2861 72.5654C79.3418 71.9333 79.3999 72.052 79.4605 72.9214C79.4823 73.2096 79.4847 73.493 79.4677 73.7715Z" fill="#7B94F2"/>
<path d="M79.5332 82.4656C79.5416 84.0867 79.6136 85.4005 79.6938 85.4001C79.7741 85.3997 79.8323 84.0852 79.8238 82.4641C79.8153 80.843 79.7434 79.5291 79.6631 79.5296C79.5828 79.53 79.5247 80.8445 79.5332 82.4656Z" fill="#7B94F2"/>
<path d="M47.4082 87.8995H46.0459C45.8716 87.5193 45.811 87.0095 45.8643 86.3701C46.0266 84.3866 46.0871 82.8427 46.0459 81.7383C46.0217 81.1183 46.2796 80.8277 46.8197 80.8664C47.0183 80.8809 47.229 80.8797 47.4518 80.8628C47.8078 80.8361 47.9628 80.9923 47.9168 81.3314C47.8757 81.6099 47.8551 81.7637 47.8551 81.7928C47.7921 83.8344 47.6432 85.87 47.4082 87.8995Z" fill="#4C4EE1"/>
<path d="M79.4823 87.8232C78.9011 87.983 78.321 87.9782 77.7422 87.8087L77.3571 81.3241C77.355 81.283 77.3599 81.242 77.3716 81.2034C77.3832 81.1648 77.4015 81.1294 77.4251 81.0993C77.4488 81.0692 77.4775 81.045 77.5095 81.028C77.5415 81.0111 77.5761 81.0019 77.6114 81.0008L78.9047 80.9753C78.9519 80.9755 78.9978 81 79.0329 81.0439C79.068 81.0878 79.0897 81.1477 79.0936 81.2115L79.4823 87.8232Z" fill="#4C4EE1"/>
</svg>
