<svg width="45" height="45" viewBox="0 0 45 45" fill="none" xmlns="http://www.w3.org/2000/svg">
<path d="M2.71077 15.3844C2.39553 14.891 2.0551 14.4152 1.68948 13.957C1.47268 13.684 1.37307 13.3746 1.39065 13.0289C1.4012 12.832 1.40647 12.7301 1.40647 12.723C1.40647 9.94102 1.40647 7.15957 1.40647 4.37871C1.40647 3.49043 1.49612 2.87168 1.67542 2.52246C1.91448 2.05254 2.29417 1.72852 2.81448 1.55039C3.0969 1.4543 3.56975 1.40625 4.23303 1.40625C5.55842 1.40625 6.8844 1.40625 8.21096 1.40625C9.13557 1.40625 9.77131 1.49297 10.1182 1.66641C10.5823 1.89727 10.9074 2.26816 11.0938 2.7791C11.1981 3.06738 11.2502 3.53438 11.2502 4.18008C11.2502 7.17539 11.2502 10.2205 11.2502 13.3154C11.2502 13.4866 11.1978 13.6494 11.1008 13.7795L9.99514 15.2561C9.85686 15.4412 9.90081 15.5156 10.127 15.4793C10.5571 15.4113 10.8699 15.4986 11.0656 15.7412C11.1887 15.8936 11.2502 16.166 11.2502 16.5586C11.2514 17.3238 11.2567 18.0885 11.266 18.8525C11.2696 19.1549 11.1723 19.3805 10.9742 19.5293C10.8442 19.6266 10.6285 19.6775 10.3274 19.6822C9.74026 19.6904 9.15081 19.6922 8.55901 19.6875C8.54316 19.6873 8.52743 19.6902 8.51273 19.6961C8.49802 19.702 8.48464 19.7108 8.47335 19.7219C8.46206 19.733 8.4531 19.7463 8.44698 19.7609C8.44087 19.7755 8.43772 19.7912 8.43772 19.807C8.43772 21.1629 8.44417 22.4854 8.45706 23.7744C8.46174 24.2525 8.26135 24.5273 7.85588 24.5988C7.54768 24.6527 7.31917 24.5637 7.17034 24.3316C7.08596 24.198 7.0426 23.9865 7.04026 23.6971C7.02971 22.4033 7.02678 21.1055 7.03147 19.8035C7.03147 19.7727 7.01943 19.7432 6.998 19.7215C6.97658 19.6997 6.94751 19.6875 6.91721 19.6875H5.74651C5.71434 19.6875 5.68349 19.7003 5.66074 19.723C5.638 19.7458 5.62522 19.7766 5.62522 19.8088V33.3791C5.62522 33.5045 5.65979 33.6398 5.72893 33.7852L6.21233 34.8047C6.27913 34.9465 6.34768 34.9494 6.41799 34.8135C6.56565 34.524 6.70979 34.2287 6.85042 33.9275C6.97112 33.6674 7.03147 33.3891 7.03147 33.0926C7.03147 31.0406 7.03147 28.9893 7.03147 26.9385C7.03147 26.5893 7.13518 26.3332 7.3426 26.1703C7.53479 26.018 7.74807 25.9852 7.98245 26.0719C8.15588 26.1363 8.28303 26.2576 8.36389 26.4357C8.41311 26.5447 8.43772 26.7082 8.43772 26.9262C8.43772 29.1867 8.43772 31.4578 8.43772 33.7395C8.43772 33.8438 8.41545 33.9434 8.37092 34.0383C7.91389 35.0016 7.46038 35.8992 7.01038 36.7313C6.86858 36.9926 6.71682 37.1543 6.5551 37.2164C6.37698 37.2844 6.19885 37.2721 6.02073 37.1795C5.90002 37.1174 5.78928 36.9949 5.6885 36.8121C5.22327 35.973 4.79319 35.1158 4.39827 34.2404C4.27874 33.9768 4.21956 33.6955 4.22073 33.3967C4.23479 28.8674 4.22366 24.3387 4.18733 19.8105C4.18697 19.7861 4.17771 19.7627 4.1614 19.7451C4.14509 19.7275 4.12295 19.717 4.09944 19.7156C3.23811 19.6617 2.66272 19.6523 2.37327 19.6875C2.01116 19.7309 1.74338 19.64 1.56995 19.415C1.46096 19.2721 1.40647 19.0307 1.40647 18.6908C1.40647 17.8658 1.40647 17.0408 1.40647 16.2158C1.40647 15.8736 1.55237 15.6451 1.84417 15.5303C1.94143 15.4916 2.09202 15.4717 2.29592 15.4705C2.42131 15.4705 2.5467 15.4676 2.67209 15.4617C2.72952 15.4594 2.74241 15.4336 2.71077 15.3844ZM2.95159 3.13945C2.86193 3.24497 2.81271 3.37892 2.81272 3.51738V12.9779C2.81273 13.0817 2.84974 13.1879 2.91819 13.2803L4.05901 14.8078C4.16565 14.9496 4.21897 14.9326 4.21897 14.7568V3.02344C4.21882 2.98242 4.20433 2.94274 4.178 2.91128C4.15168 2.87982 4.11518 2.85856 4.07483 2.85117C3.56858 2.75742 3.19417 2.85352 2.95159 3.13945ZM7.03147 2.91445C7.03147 2.88741 7.02073 2.86148 7.00161 2.84236C6.98249 2.82324 6.95656 2.8125 6.92952 2.8125H5.72717C5.70013 2.8125 5.6742 2.82324 5.65508 2.84236C5.63596 2.86148 5.62522 2.88741 5.62522 2.91445V15.3668C5.62522 15.3938 5.63596 15.4198 5.65508 15.4389C5.6742 15.458 5.70013 15.4688 5.72717 15.4688H6.92952C6.95656 15.4688 6.98249 15.458 7.00161 15.4389C7.02073 15.4198 7.03147 15.3938 7.03147 15.3668V2.91445ZM9.50295 2.93379C9.25217 2.81074 8.93108 2.77852 8.53967 2.83711C8.51151 2.84093 8.48568 2.85495 8.46695 2.8766C8.44821 2.89824 8.43783 2.92604 8.43772 2.95488V14.7867C8.43772 14.925 8.47874 14.9391 8.56077 14.8289L9.78069 13.1994C9.81491 13.1549 9.83346 13.0993 9.83342 13.0412C9.84514 9.98145 9.84866 6.92109 9.84397 3.86016C9.84397 3.85547 9.84807 3.77227 9.85627 3.61055C9.87151 3.28242 9.75374 3.05684 9.50295 2.93379ZM9.84397 16.9805C9.84397 16.9666 9.84124 16.9529 9.83594 16.9401C9.83064 16.9273 9.82287 16.9157 9.81308 16.9059C9.80328 16.8961 9.79166 16.8883 9.77886 16.883C9.76607 16.8777 9.75235 16.875 9.7385 16.875H2.91819C2.89022 16.875 2.86339 16.8861 2.84361 16.9059C2.82383 16.9257 2.81272 16.9525 2.81272 16.9805V18.1758C2.81272 18.2038 2.82383 18.2306 2.84361 18.2504C2.86339 18.2701 2.89022 18.2812 2.91819 18.2812H9.7385C9.75235 18.2812 9.76607 18.2785 9.77886 18.2732C9.79166 18.2679 9.80328 18.2602 9.81308 18.2504C9.82287 18.2406 9.83064 18.2289 9.83594 18.2161C9.84124 18.2033 9.84397 18.1896 9.84397 18.1758V16.9805Z" fill="black"/>
<path d="M43.2406 28.2375C43.4199 28.3547 43.5295 28.5041 43.5693 28.6857C43.608 28.858 43.5757 29.0244 43.4726 29.185C43.3226 29.4205 43.0847 29.5383 42.759 29.5383C33.5011 29.5394 24.2433 29.5336 14.9855 29.5207C14.6855 29.5207 14.4699 29.4715 14.3386 29.373C14.1406 29.2242 14.0433 28.9986 14.0468 28.6963C14.0562 27.951 14.0615 27.2057 14.0627 26.4603C14.0627 26.0467 14.1189 25.7619 14.2314 25.606C14.4236 25.3412 14.7476 25.2457 15.2035 25.3195C15.2363 25.3246 15.2697 25.3226 15.3016 25.3136C15.3336 25.3046 15.3631 25.2889 15.3883 25.2676C15.4135 25.2462 15.4338 25.2197 15.4477 25.1898C15.4616 25.1599 15.4688 25.1274 15.4689 25.0945V5.83242C15.4689 5.80181 15.4624 5.77156 15.4499 5.74366C15.4373 5.71576 15.4191 5.69085 15.3963 5.67058C15.3736 5.6503 15.3468 5.63513 15.3178 5.62606C15.2888 5.61699 15.2582 5.61423 15.2281 5.61796C14.4078 5.71406 14.0064 5.3789 14.024 4.61249C14.0416 3.85078 14.0562 3.08789 14.0679 2.32382C14.0726 2.02734 14.1242 1.8164 14.2226 1.69101C14.3715 1.50117 14.5965 1.40624 14.8976 1.40624C18.575 1.40624 22.2517 1.40624 25.9279 1.40624C26.3123 1.40624 26.5566 1.55624 26.6609 1.85624C26.7453 2.09648 26.7154 2.31445 26.5713 2.51015C26.4213 2.71406 26.1922 2.81601 25.884 2.81601C22.4855 2.81367 19.0543 2.81249 15.5902 2.81249C15.558 2.81249 15.5272 2.82527 15.5044 2.84802C15.4817 2.87077 15.4689 2.90162 15.4689 2.93378V4.10273C15.4689 4.11796 15.4719 4.13305 15.4777 4.14713C15.4836 4.1612 15.4921 4.17399 15.5029 4.18476C15.5137 4.19554 15.5265 4.20408 15.5405 4.20991C15.5546 4.21574 15.5697 4.21874 15.5849 4.21874H42.0664C42.0823 4.21874 42.0981 4.21561 42.1128 4.20951C42.1275 4.20342 42.1409 4.19448 42.1521 4.18322C42.1634 4.17196 42.1723 4.15859 42.1784 4.14387C42.1845 4.12916 42.1877 4.11338 42.1877 4.09746V2.92851C42.1877 2.91328 42.1847 2.89819 42.1788 2.88411C42.173 2.87004 42.1645 2.85725 42.1537 2.84648C42.1429 2.8357 42.1301 2.82716 42.116 2.82133C42.102 2.8155 42.0869 2.81249 42.0716 2.81249C37.7404 2.81249 33.4144 2.81249 29.0937 2.81249C28.7668 2.81249 28.5189 2.74687 28.3502 2.61562C28.0373 2.37187 28.005 2.06718 28.2535 1.70156C28.3859 1.50468 28.5705 1.40624 28.8072 1.40624C33.4912 1.40156 38.1131 1.40507 42.6728 1.41679C42.9728 1.41679 43.1879 1.46542 43.3179 1.56269C43.5183 1.71035 43.6162 1.93652 43.6115 2.24121C43.6021 3.0205 43.5963 3.7998 43.5939 4.5791C43.5939 4.96347 43.5259 5.23183 43.39 5.38417C43.1849 5.61503 42.8744 5.69296 42.4584 5.61796C42.4252 5.61205 42.3912 5.61348 42.3586 5.62215C42.3261 5.63082 42.2959 5.64652 42.2701 5.66814C42.2443 5.68976 42.2235 5.71677 42.2093 5.74728C42.195 5.77779 42.1877 5.81105 42.1877 5.84472V25.1912C42.1877 25.2074 42.1909 25.2235 42.1972 25.2384C42.2035 25.2534 42.2128 25.2669 42.2244 25.2782C42.2361 25.2895 42.2498 25.2984 42.265 25.3043C42.2801 25.3102 42.2962 25.313 42.3125 25.3125C42.4683 25.309 42.6236 25.3096 42.7783 25.3143C42.9576 25.3189 43.1058 25.3547 43.223 25.4215C43.5418 25.6031 43.649 25.8598 43.5447 26.1914C43.4744 26.4129 43.3343 26.5676 43.1246 26.6555C42.9652 26.7211 42.7935 26.7486 42.6095 26.7381C42.4068 26.7252 42.3019 26.7187 42.2949 26.7187C33.4261 26.7187 24.5246 26.7187 15.5902 26.7187C15.558 26.7187 15.5272 26.7315 15.5044 26.7543C15.4817 26.777 15.4689 26.8079 15.4689 26.84V28.009C15.4689 28.0397 15.4811 28.0693 15.5029 28.091C15.5246 28.1128 15.5542 28.125 15.5849 28.125H42.8644C42.9986 28.125 43.1294 28.1641 43.2406 28.2375ZM28.1252 5.72519C28.1252 5.69862 28.1146 5.67313 28.0958 5.65434C28.077 5.63555 28.0515 5.62499 28.025 5.62499H16.9754C16.9488 5.62499 16.9233 5.63555 16.9045 5.65434C16.8857 5.67313 16.8752 5.69862 16.8752 5.72519V11.1498C16.8752 11.1764 16.8857 11.2019 16.9045 11.2206C16.9233 11.2394 16.9488 11.25 16.9754 11.25H28.025C28.0515 11.25 28.077 11.2394 28.0958 11.2206C28.1146 11.2019 28.1252 11.1764 28.1252 11.1498V5.72519ZM40.7814 5.72519C40.7814 5.69862 40.7709 5.67313 40.7521 5.65434C40.7333 5.63555 40.7078 5.62499 40.6812 5.62499H29.6316C29.605 5.62499 29.5795 5.63555 29.5608 5.65434C29.542 5.67313 29.5314 5.69862 29.5314 5.72519V11.1498C29.5314 11.1764 29.542 11.2019 29.5608 11.2206C29.5795 11.2394 29.605 11.25 29.6316 11.25H40.6812C40.7078 11.25 40.7333 11.2394 40.7521 11.2206C40.7709 11.2019 40.7814 11.1764 40.7814 11.1498V5.72519ZM28.1252 12.7564C28.1252 12.7299 28.1146 12.7044 28.0958 12.6856C28.077 12.6668 28.0515 12.6562 28.025 12.6562H16.9754C16.9488 12.6562 16.9233 12.6668 16.9045 12.6856C16.8857 12.7044 16.8752 12.7299 16.8752 12.7564V18.181C16.8752 18.2076 16.8857 18.2331 16.9045 18.2519C16.9233 18.2707 16.9488 18.2812 16.9754 18.2812H28.025C28.0515 18.2812 28.077 18.2707 28.0958 18.2519C28.1146 18.2331 28.1252 18.2076 28.1252 18.181V12.7564ZM40.7814 12.7564C40.7814 12.7299 40.7709 12.7044 40.7521 12.6856C40.7333 12.6668 40.7078 12.6562 40.6812 12.6562H29.6316C29.605 12.6562 29.5795 12.6668 29.5608 12.6856C29.542 12.7044 29.5314 12.7299 29.5314 12.7564V18.181C29.5314 18.2076 29.542 18.2331 29.5608 18.2519C29.5795 18.2707 29.605 18.2812 29.6316 18.2812H40.6812C40.7078 18.2812 40.7333 18.2707 40.7521 18.2519C40.7709 18.2331 40.7814 18.2076 40.7814 18.181V12.7564ZM28.1252 19.7877C28.1252 19.7611 28.1146 19.7356 28.0958 19.7168C28.077 19.6981 28.0515 19.6875 28.025 19.6875H16.9754C16.9488 19.6875 16.9233 19.6981 16.9045 19.7168C16.8857 19.7356 16.8752 19.7611 16.8752 19.7877V25.2123C16.8752 25.2389 16.8857 25.2644 16.9045 25.2831C16.9233 25.3019 16.9488 25.3125 16.9754 25.3125H28.025C28.0515 25.3125 28.077 25.3019 28.0958 25.2831C28.1146 25.2644 28.1252 25.2389 28.1252 25.2123V19.7877ZM40.7814 19.7877C40.7814 19.7611 40.7709 19.7356 40.7521 19.7168C40.7333 19.6981 40.7078 19.6875 40.6812 19.6875H29.6316C29.605 19.6875 29.5795 19.6981 29.5608 19.7168C29.542 19.7356 29.5314 19.7611 29.5314 19.7877V25.2123C29.5314 25.2389 29.542 25.2644 29.5608 25.2831C29.5795 25.3019 29.605 25.3125 29.6316 25.3125H40.6812C40.7078 25.3125 40.7333 25.3019 40.7521 25.2831C40.7709 25.2644 40.7814 25.2389 40.7814 25.2123V19.7877Z" fill="black"/>
<path d="M22.501 8.43048C22.8844 8.43048 23.1953 8.11962 23.1953 7.73614C23.1953 7.35267 22.8844 7.04181 22.501 7.04181C22.1175 7.04181 21.8066 7.35267 21.8066 7.73614C21.8066 8.11962 22.1175 8.43048 22.501 8.43048Z" fill="black"/>
<path d="M35.1553 8.4252C35.5387 8.4252 35.8496 8.11434 35.8496 7.73087C35.8496 7.34739 35.5387 7.03653 35.1553 7.03653C34.7718 7.03653 34.4609 7.34739 34.4609 7.73087C34.4609 8.11434 34.7718 8.4252 35.1553 8.4252Z" fill="black"/>
<path d="M22.501 15.4617C22.8844 15.4617 23.1953 15.1509 23.1953 14.7674C23.1953 14.3839 22.8844 14.0731 22.501 14.0731C22.1175 14.0731 21.8066 14.3839 21.8066 14.7674C21.8066 15.1509 22.1175 15.4617 22.501 15.4617Z" fill="black"/>
<path d="M35.1553 15.4565C35.5387 15.4565 35.8496 15.1456 35.8496 14.7621C35.8496 14.3786 35.5387 14.0678 35.1553 14.0678C34.7718 14.0678 34.4609 14.3786 34.4609 14.7621C34.4609 15.1456 34.7718 15.4565 35.1553 15.4565Z" fill="black"/>
<path d="M22.501 22.493C22.8844 22.493 23.1953 22.1821 23.1953 21.7986C23.1953 21.4152 22.8844 21.1043 22.501 21.1043C22.1175 21.1043 21.8066 21.4152 21.8066 21.7986C21.8066 22.1821 22.1175 22.493 22.501 22.493Z" fill="black"/>
<path d="M35.1553 22.4877C35.5387 22.4877 35.8496 22.1768 35.8496 21.7934C35.8496 21.4099 35.5387 21.099 35.1553 21.099C34.7718 21.099 34.4609 21.4099 34.4609 21.7934C34.4609 22.1768 34.7718 22.4877 35.1553 22.4877Z" fill="black"/>
<path d="M15.459 40.2205C15.3254 40.2217 15.3025 40.2721 15.3904 40.3717C15.9142 40.9717 16.5236 41.4287 17.2185 41.7428C17.8818 42.0439 18.6095 42.1793 19.4017 42.1488C21.3213 42.0726 22.7533 41.1223 23.6978 39.2976C23.8748 38.9566 24.1496 38.7873 24.5222 38.7896C26.1043 38.7978 27.6869 38.8025 29.2701 38.8037C29.5338 38.8037 29.7306 38.8389 29.8607 38.9092C30.0798 39.0299 30.1976 39.2133 30.214 39.4594C30.2304 39.7137 30.1425 39.9141 29.9504 40.0605C29.7886 40.1848 29.5923 40.2398 29.3615 40.2258C29.1904 40.2152 29.099 40.21 29.0873 40.21C27.715 40.21 26.3797 40.21 25.0812 40.21C25.0068 40.2099 24.9334 40.2285 24.8677 40.2641C24.802 40.2997 24.7461 40.3512 24.705 40.4139C23.7277 41.9197 22.472 42.8918 20.9381 43.3301C19.8095 43.6512 18.6529 43.6512 17.4681 43.3301C15.6599 42.8391 14.3234 41.693 13.4586 39.8918C13.2629 39.484 13.3173 39.1787 13.622 38.976C13.7838 38.8693 14.0386 38.8148 14.3867 38.8125C15.8257 38.8031 17.2648 38.7996 18.7039 38.8019C19.264 38.8031 19.6754 38.7387 19.9379 38.6086C20.3961 38.3824 20.6562 38.0139 20.7183 37.5029C20.7793 37.0014 20.6568 36.5836 20.3509 36.2496C20.0322 35.9016 19.5769 35.7275 18.9851 35.7275C17.3445 35.7275 15.7039 35.7275 14.0632 35.7275C13.6554 35.7275 13.4211 35.4932 13.3601 35.0244C13.3332 34.8146 13.465 34.4818 13.7556 34.026C14.6896 32.5658 15.9271 31.6225 17.4681 31.1959C18.6189 30.8771 19.7761 30.8783 20.9398 31.1994C22.5722 31.6482 23.8578 32.6601 24.7964 34.2351C24.8103 34.2582 24.8296 34.2772 24.8524 34.2905C24.8751 34.3037 24.9007 34.3107 24.9265 34.3107L33.9054 34.3213C34.0742 34.3213 34.2289 34.2808 34.3695 34.2L37.8939 32.1785C38.14 32.0379 38.3838 32.0344 38.6252 32.168C39.8744 32.8617 41.1593 33.6006 42.48 34.3846C42.7812 34.5627 42.9224 34.8246 42.9037 35.1703C42.8955 35.3168 42.8914 35.3953 42.8914 35.4058C42.8914 36.8016 42.8914 38.1961 42.8914 39.5894C42.8914 39.8016 42.8006 39.9603 42.6189 40.0658L38.6375 42.3756C38.4113 42.5068 38.1857 42.5074 37.9607 42.3773L34.3256 40.2838C34.238 40.2343 34.1405 40.2082 34.0425 40.2082C33.5047 40.2141 32.992 40.2129 32.5045 40.2047C32.222 40.2012 32.0193 40.1484 31.8963 40.0465C31.7662 39.9398 31.6877 39.798 31.6607 39.6211C31.6361 39.4652 31.6689 39.3176 31.7591 39.1781C31.9408 38.8969 32.2144 38.7644 32.58 38.7808C32.8355 38.7926 32.9715 38.7984 32.9879 38.7984C33.3757 38.7891 33.7631 38.7955 34.1498 38.8178C34.4334 38.833 34.7064 38.9133 34.9689 39.0586C36.0517 39.6562 37.1146 40.2621 38.1576 40.8762C38.1997 40.9012 38.2482 40.9145 38.2979 40.9145C38.3476 40.9145 38.3969 40.9012 38.4406 40.8762L41.355 39.1975C41.3946 39.1751 41.4275 39.1431 41.4503 39.1048C41.4732 39.0665 41.4852 39.0233 41.4851 38.9795L41.4746 35.5693C41.4746 35.5255 41.4631 35.4825 41.4411 35.4445C41.4192 35.4065 41.3877 35.375 41.3498 35.3531L38.4054 33.641C38.3717 33.6217 38.3335 33.6116 38.2947 33.6116C38.2559 33.6116 38.2177 33.6217 38.184 33.641L34.7861 35.5992C34.6373 35.6848 34.4773 35.7275 34.3062 35.7275C31.0425 35.7275 27.8152 35.7275 24.6242 35.7275C24.3465 35.7275 24.1449 35.6795 24.0195 35.5834C23.866 35.4662 23.7295 35.291 23.6099 35.0578C22.9865 33.8344 22.0537 33.0211 20.8115 32.618C19.8447 32.3039 18.8855 32.2746 17.9339 32.5301C16.9543 32.7937 16.107 33.3357 15.3922 34.156C15.2972 34.2662 15.3224 34.3213 15.4677 34.3213C16.4345 34.3213 17.4013 34.3213 18.3681 34.3213C19.3173 34.3213 19.983 34.3939 20.365 34.5392C21.0752 34.81 21.582 35.3086 21.8855 36.0351C22.3578 37.1672 22.2371 38.1891 21.5234 39.1008C21.2035 39.5098 20.7963 39.8109 20.3017 40.0043C19.9724 40.1332 19.4884 40.1994 18.8498 40.2029C17.7048 40.2088 16.5746 40.2146 15.459 40.2205Z" fill="black"/>
<path d="M39.9916 35.9315C40.1884 36.0627 40.2857 36.232 40.2834 36.4395L40.2693 38.1973C40.2688 38.2653 40.2481 38.3345 40.2091 38.3987C40.1701 38.4628 40.1141 38.5199 40.0461 38.5647C39.6593 38.8213 39.2779 39.051 38.9017 39.2537C38.4963 39.4729 38.1394 39.4981 37.8312 39.3293C37.3812 39.0844 36.9394 38.8248 36.5058 38.5506C36.3382 38.444 36.2545 38.2922 36.2545 38.0953C36.2545 37.6301 36.2492 37.1631 36.2386 36.6943C36.2293 36.2795 36.4033 35.9766 36.7607 35.7856C36.9963 35.659 37.2306 35.5313 37.4638 35.4024C37.8424 35.1938 38.0316 35.0895 38.0316 35.0895C38.2402 35.0274 38.4716 35.0608 38.7259 35.1897C39.1666 35.4123 39.5884 35.6596 39.9916 35.9315ZM38.6715 36.7858C38.3715 36.5561 38.0785 36.5695 37.7925 36.8262C37.5007 37.0887 37.4826 37.3559 37.7381 37.6277C38.0134 37.9231 38.2924 37.9969 38.5748 37.8492C38.7646 37.7496 38.8806 37.5979 38.9228 37.394C38.9709 37.1549 38.8871 36.9522 38.6715 36.7858Z" fill="black"/>
</svg>
