<svg width="45" height="45" viewBox="0 0 45 45" fill="none" xmlns="http://www.w3.org/2000/svg">
<g clip-path="url(#clip0_731_235)">
<path d="M0 27.5431V26.6203C0.110156 26.3332 0.312305 26.1492 0.606445 26.0683C0.6308 26.0619 0.652259 26.0478 0.66728 26.0283C0.682301 26.0088 0.689985 25.9851 0.689063 25.9611C0.65625 25.2463 0.61875 24.532 0.576563 23.8183C0.537891 23.1492 0.781641 22.589 1.30781 22.1379C1.65234 21.8414 1.80117 21.4687 1.7543 21.0199C1.72266 20.7129 1.70625 20.5553 1.70508 20.5471C1.69336 20.2013 1.67988 19.8556 1.66465 19.5099C1.64473 19.033 1.7666 18.6293 2.03027 18.2988C2.06777 18.2508 2.36719 17.9859 2.92852 17.5043C3.96563 16.6125 5.00742 15.7254 6.05391 14.8429C6.25898 14.6695 6.45879 14.5371 6.65332 14.4457C6.8127 14.3695 7.04238 14.3221 7.34238 14.3033C11.2998 14.0455 15.2578 13.8029 19.2164 13.5756C19.916 13.5357 20.6777 13.558 21.5016 13.6424C21.5801 13.6506 21.5941 13.6851 21.5437 13.7461C21.3152 14.0191 21.0768 14.1428 20.8283 14.117C20.2881 14.0619 19.7473 14.0502 19.2059 14.0818C15.2637 14.308 11.3227 14.5506 7.38281 14.8096C7.10156 14.8283 6.86016 14.8974 6.65859 15.017C6.63164 15.0334 6.44238 15.1898 6.09082 15.4863C4.92129 16.4719 3.75762 17.465 2.5998 18.4658C2.23301 18.7846 2.07715 19.1924 2.13223 19.6892C2.17207 20.0549 2.21309 20.4199 2.25527 20.7844C2.34199 21.5355 2.12871 22.1332 1.61543 22.5773C1.2498 22.8926 1.0752 23.2623 1.0916 23.6865C1.12793 24.6392 1.17246 25.5568 1.2252 26.4392C1.22639 26.463 1.22222 26.4867 1.21298 26.5086C1.20374 26.5305 1.18969 26.55 1.1719 26.5656C1.1541 26.5812 1.13302 26.5925 1.11028 26.5986C1.08753 26.6047 1.06371 26.6055 1.04062 26.601C0.708984 26.5365 0.533203 26.6156 0.513281 26.8383C0.510938 26.8629 0.512109 26.9883 0.516797 27.2144C0.519141 27.3129 0.532617 27.4096 0.557227 27.5045C0.563827 27.5283 0.578589 27.5493 0.599238 27.5642C0.619886 27.5792 0.645274 27.5872 0.671484 27.5871L2.66836 27.6082C2.72352 27.6082 2.78008 27.6246 2.83184 27.6556C3.19512 27.876 3.37207 27.7887 3.3627 27.3937C3.35684 27.1582 3.35977 27.0012 3.37148 26.9226C3.58359 25.609 4.25801 24.6293 5.39473 23.9836C6.21504 23.5172 7.06348 23.3484 7.94004 23.4773C8.77559 23.6015 9.51504 23.9513 10.1584 24.5267C11.015 25.292 11.4627 26.3191 11.5014 27.6082C11.5019 27.6374 11.5094 27.6655 11.523 27.6894C11.5366 27.7132 11.5559 27.732 11.5787 27.7435C11.7111 27.8127 11.8271 27.7951 11.9268 27.6908C11.9552 27.6613 11.9892 27.6379 12.027 27.6219C12.0648 27.6059 12.1054 27.5976 12.1465 27.5976H20.3836C20.4082 27.5975 20.432 27.6066 20.4504 27.6231C20.4689 27.6396 20.4808 27.6625 20.4838 27.6873C20.5143 27.9697 20.4164 28.1033 20.1902 28.0881C20.1141 28.0834 20.0713 28.081 20.0619 28.081C17.7264 28.081 15.3908 28.081 13.0553 28.081C12.8889 28.081 12.6598 28.1215 12.368 28.2023C12.1371 28.2656 11.8998 28.2896 11.6561 28.2744C11.642 28.2744 11.5184 28.2767 11.2852 28.2814C11.052 28.2861 10.9447 28.1648 10.9635 27.9176C10.9787 27.7324 10.9857 27.6351 10.9846 27.6258C10.9518 26.0367 10.2492 24.914 8.87695 24.2578C8.37773 24.0187 7.8375 23.9174 7.25625 23.9537C6.73242 23.9865 6.2209 24.1371 5.72168 24.4054C4.36113 25.1379 3.73008 26.3672 3.82852 28.0933C3.82991 28.1178 3.82264 28.1418 3.80807 28.1609C3.7935 28.18 3.77263 28.1928 3.74941 28.1971C3.46113 28.2521 3.16992 28.2779 2.87578 28.2744C2.78906 28.2732 2.57871 28.2281 2.24473 28.139C2.0502 28.0875 1.8293 28.0681 1.58203 28.081C0.994922 28.1127 0.599414 28.098 0.395508 28.0371C0.198633 27.9785 0.0667969 27.8138 0 27.5431Z" fill="black"/>
<path d="M21.8248 16.9893C21.1862 16.4748 20.9166 15.8543 21.0163 15.1277C21.0877 14.6086 21.3362 14.202 21.7616 13.9078C22.1307 13.6547 22.5274 13.5357 22.9516 13.551C23.3969 13.5686 23.8018 13.7408 24.1663 14.0678C24.6069 14.4615 24.8137 14.9443 24.7868 15.5162C24.7852 15.5499 24.773 15.5822 24.7518 15.6085C24.7306 15.6347 24.7016 15.6535 24.669 15.6621C24.2131 15.7793 23.7836 15.8977 23.3805 16.0172C23.3676 16.0207 23.2176 16.0559 22.9305 16.1227C22.4594 16.2316 22.1483 16.5041 21.9971 16.94C21.9915 16.9565 21.982 16.9714 21.9693 16.9834C21.9567 16.9953 21.9413 17.0041 21.9244 17.0089C21.9075 17.0138 21.8897 17.0145 21.8724 17.0111C21.8551 17.0076 21.8388 17.0002 21.8248 16.9893Z" fill="black"/>
<path d="M45.0006 26.5974V27.5642C44.8518 27.9463 44.5793 28.1244 44.1832 28.0986C43.9945 28.0869 43.8943 28.081 43.8826 28.081C43.6611 28.081 43.4402 28.081 43.2199 28.081C43.0664 28.081 42.852 28.115 42.5766 28.183C42.2074 28.2732 41.7815 28.2884 41.2986 28.2287C41.2512 28.223 41.2076 28.1995 41.1764 28.1628C41.1451 28.126 41.1286 28.0787 41.1299 28.0301C41.1979 26.1797 40.4649 24.9152 38.9309 24.2367C38.9051 24.225 38.6361 24.1523 38.124 24.0187C37.8088 23.9367 37.5322 23.7773 37.2943 23.5406C37.251 23.4984 37.2598 23.4756 37.3207 23.472C38.5277 23.39 39.5584 23.775 40.4127 24.6269C41.2389 25.4508 41.6584 26.4515 41.6713 27.6293C41.6719 27.6563 41.6807 27.6822 41.6964 27.7027C41.712 27.7231 41.7336 27.7369 41.7574 27.7418C41.9039 27.7722 42.0422 27.7453 42.1723 27.6609C42.2226 27.6277 42.2783 27.6099 42.3322 27.6099L44.308 27.5695C44.3341 27.5691 44.3595 27.5605 44.3806 27.5451C44.4017 27.5297 44.4174 27.5081 44.4258 27.4834C44.516 27.2103 44.5219 26.9549 44.4434 26.717C44.4273 26.6686 44.3939 26.6278 44.3496 26.6022C44.3053 26.5766 44.253 26.5681 44.2025 26.5781C43.9143 26.639 43.7865 26.5711 43.8193 26.3742C43.8416 26.2383 43.8527 26.1662 43.8527 26.158C43.8832 25.5287 43.9108 24.8988 43.9354 24.2683C43.9459 24.0023 43.8293 23.6824 43.5856 23.3086C42.9551 22.3383 42.5736 21.7646 42.4412 21.5877C42.2654 21.3545 41.9766 21.1728 41.5746 21.0427C40.3699 20.6525 39.167 20.2564 37.9658 19.8545C36.9076 19.5006 35.8072 19.098 34.6647 18.6468C32.3385 17.7328 30.0117 16.8216 27.6844 15.9134C27.4254 15.8127 27.1746 15.6949 26.932 15.5601C26.6859 15.4242 26.4316 15.3263 26.1691 15.2666C25.8211 15.1869 25.507 15.0879 25.227 14.9695C25.1117 14.9204 25.0161 14.8359 24.9545 14.7287C24.7354 14.3502 24.7664 14.2218 25.0477 14.3437C25.1438 14.3859 25.1977 14.4088 25.2094 14.4123C28.6957 15.7564 32.1779 17.1105 35.6561 18.4746C36.4729 18.7957 37.3277 19.1033 38.2207 19.3974C39.0844 19.6822 39.9469 19.9711 40.8082 20.264C40.8176 20.2675 41.0666 20.339 41.5553 20.4785C42.2197 20.6683 42.7055 21.0088 43.0125 21.4998C43.3559 22.0506 43.6998 22.6002 44.0443 23.1486C44.2822 23.5248 44.4047 23.8945 44.4117 24.2578C44.4223 24.7968 44.4076 25.3705 44.3678 25.9787C44.3663 26.005 44.3736 26.031 44.3887 26.0524C44.4037 26.0738 44.4254 26.0893 44.4504 26.0965C44.7234 26.175 44.9068 26.342 45.0006 26.5974Z" fill="black"/>
<path d="M25.2334 23.7111L23.4545 25.2633C23.4135 25.2997 23.385 25.351 23.3736 25.4092C23.063 26.9877 22.7572 28.5668 22.456 30.1465C22.3119 30.9023 21.9011 31.214 21.2238 31.0816C20.9296 31.0242 20.7029 30.8988 20.5435 30.7054C20.3525 30.4711 20.2869 30.1968 20.3466 29.8828C20.6959 28.0664 21.041 26.2828 21.382 24.532C21.4242 24.3152 21.5203 24.1418 21.6703 24.0117L23.5916 22.3295C23.6264 22.2987 23.6523 22.2597 23.6663 22.2169C23.6803 22.174 23.6818 22.129 23.6707 22.0869L22.906 19.1672C22.8545 18.9679 22.7923 18.965 22.7197 19.1584C22.592 19.5029 22.4402 19.8351 22.2644 20.1551C22.1004 20.4515 21.8625 20.7181 21.5507 20.9549C20.6027 21.6732 19.6254 22.3488 18.6187 22.9816C18.5695 23.0124 18.513 23.0272 18.457 23.0238C17.7902 22.9886 17.5775 22.6547 17.8189 22.0218C17.8407 21.9668 17.8767 21.9198 17.9226 21.8865L20.6894 19.9388C20.8746 19.8088 21.0134 19.6465 21.106 19.4519L22.3382 16.8556C22.4425 16.6353 22.6154 16.4912 22.8568 16.4232C23.7111 16.1865 24.5894 15.9521 25.4918 15.7201C25.9382 15.6052 26.1632 15.5478 26.1668 15.5478C26.4293 15.5279 26.6566 15.6345 26.8488 15.8677C27.1277 16.2064 27.4025 16.548 27.6732 16.8925C28.0107 17.3215 28.1941 17.5717 28.2234 17.6431C28.3746 18.0076 28.207 18.3398 27.7207 18.6398C27.6693 18.6712 27.6295 18.7181 27.607 18.7736C27.5845 18.829 27.5806 18.89 27.5959 18.9474L28.2709 21.5332C28.3377 21.7875 28.3195 22.0383 28.2164 22.2855L27.1019 24.9838C27.0826 25.0307 27.0737 25.0813 27.0758 25.1323C27.0779 25.1832 27.091 25.2333 27.1142 25.2791C27.8009 26.6349 28.4923 28.016 29.1884 29.4222C29.5435 30.1383 29.4304 30.6545 28.8492 30.9709C28.616 31.0986 28.3869 31.1396 28.1619 31.0939C27.992 31.0588 27.8384 30.9873 27.7013 30.8795C27.6005 30.8009 27.5009 30.6697 27.4025 30.4857C26.5306 28.8474 25.6916 27.1939 24.8853 25.5252C24.7822 25.3119 24.781 25.0699 24.8818 24.7992L25.2773 23.7392C25.3031 23.6724 25.2884 23.6631 25.2334 23.7111Z" fill="black"/>
<path d="M17.2414 24.467C17.3102 24.4722 17.3756 24.4989 17.4286 24.5433C17.4815 24.5878 17.5193 24.6478 17.5367 24.7148C17.6516 25.1555 17.4606 25.3986 16.9637 25.4443C16.5383 25.4842 15.6746 25.4807 14.3727 25.4338C13.632 25.4068 13.0924 25.2996 12.7537 25.1121C12.2006 24.8039 11.8315 24.3141 11.6463 23.6426C11.2678 22.2691 10.884 20.8975 10.4949 19.5275C10.427 19.2885 10.4106 19.0992 10.4457 18.9598C10.5172 18.6691 10.7223 18.5701 11.0609 18.6627C11.1415 18.6847 11.215 18.7271 11.2745 18.7859C11.3339 18.8447 11.3772 18.9179 11.4002 18.9984C11.7998 20.4047 12.1801 21.7488 12.541 23.0309C12.6863 23.5453 12.8568 23.8916 13.0525 24.0697C13.3291 24.3229 13.683 24.4354 14.1143 24.4072C14.3311 24.3932 14.443 24.3861 14.45 24.3861C15.3816 24.3674 16.3121 24.3943 17.2414 24.467Z" fill="black"/>
<path d="M32.6159 29.6701C32.8175 29.6631 32.9141 29.7603 32.9059 29.9619C32.905 29.9824 32.9001 30.0026 32.8914 30.0213C32.8827 30.0399 32.8704 30.0566 32.8552 30.0705C32.84 30.0844 32.8222 30.0951 32.8029 30.1021C32.7836 30.1091 32.763 30.1123 32.7425 30.1113C30.7491 30.0187 29.6335 29.1621 29.3956 27.5414C29.3253 27.0644 29.3557 26.4012 29.487 25.5515C29.5878 24.8918 29.7155 24.2373 29.8702 23.5881C30.0143 22.9846 30.0905 22.3728 30.0987 21.7529C30.1128 20.6244 29.5913 20.1597 28.5343 20.359C28.4007 20.3847 28.3052 20.3812 28.2477 20.3484C28.1552 20.2969 28.13 20.2025 28.1722 20.0654C28.1795 20.041 28.1943 20.0189 28.2151 20.0016C28.2359 19.9842 28.2618 19.9722 28.2899 19.967C29.4466 19.7572 30.1579 20.0812 30.4239 20.939C30.5528 21.3562 30.5499 22.0166 30.4151 22.9201C30.3167 23.5799 30.1907 24.2355 30.0372 24.8871C29.8509 25.6769 29.7671 26.4779 29.7858 27.29C29.8034 28.0717 30.0882 28.6687 30.6401 29.0812C31.0761 29.4058 31.6181 29.6051 32.2661 29.6789C32.2825 29.6812 32.3991 29.6783 32.6159 29.6701Z" fill="black"/>
<path d="M15.1291 21.5662C15.2101 21.6472 15.337 21.6517 15.4125 21.5762C15.488 21.5007 15.4835 21.3738 15.4025 21.2928C15.3215 21.2118 15.1946 21.2073 15.1191 21.2828C15.0436 21.3584 15.0481 21.4852 15.1291 21.5662Z" fill="black"/>
<path d="M13.7381 21.4594C13.9948 21.6469 13.9895 21.8813 13.7223 22.1625C13.6855 22.201 13.6392 22.229 13.5879 22.2438C13.5367 22.2586 13.4824 22.2597 13.4305 22.2469C13.1282 22.1695 12.9782 22.0477 12.9805 21.8813C12.9817 21.7547 13.0408 21.6135 13.158 21.4576C13.294 21.276 13.4873 21.2766 13.7381 21.4594ZM13.6783 21.6106C13.4487 21.3586 13.2793 21.3826 13.1703 21.6826C13.0403 22.0389 13.1879 22.1906 13.6133 22.1379C13.9391 22.0969 13.9608 21.9211 13.6783 21.6106Z" fill="black"/>
<path d="M22.0719 21.6299C22.3954 21.6194 22.7264 21.569 23.0651 21.4787C23.0902 21.4722 23.1163 21.4708 23.1419 21.4745C23.1675 21.4783 23.1921 21.4871 23.2143 21.5006C23.2364 21.514 23.2556 21.5318 23.2707 21.5528C23.2859 21.5738 23.2966 21.5976 23.3024 21.6229C23.3598 21.883 23.2514 21.9902 22.9772 21.9445C22.7663 21.9082 22.5647 21.9387 22.3725 22.036C22.035 22.2059 21.7327 22.2938 21.4655 22.2996C21.1538 22.3055 20.995 22.309 20.9891 22.3102C20.7149 22.3465 20.4419 22.3951 20.17 22.4561C19.87 22.5229 19.8442 22.466 20.0926 22.2856C20.6633 21.8707 21.3231 21.6522 22.0719 21.6299Z" fill="black"/>
<path d="M14.996 22.1379C15.1671 22.2117 15.231 22.3342 15.1876 22.5053C15.1738 22.5627 15.1751 22.6199 15.1911 22.6705C15.2814 22.9576 15.2023 23.1287 14.9538 23.1838C14.8027 23.2178 14.648 23.2348 14.4898 23.2348C14.2273 23.2348 14.123 23.0772 14.1769 22.7619C14.1863 22.7057 14.181 22.6494 14.1611 22.5932C14.0591 22.3026 14.1734 22.1666 14.5038 22.1854C14.5566 22.1877 14.6105 22.176 14.6655 22.1502C14.7804 22.0951 14.8905 22.091 14.996 22.1379ZM15.0477 22.4266C15.0429 22.3979 15.0326 22.3704 15.0172 22.3457C15.0018 22.321 14.9817 22.2996 14.9581 22.2827C14.9344 22.2657 14.9077 22.2536 14.8793 22.247C14.851 22.2404 14.8217 22.2395 14.793 22.2442L14.4184 22.3063C14.3897 22.311 14.3622 22.3214 14.3375 22.3367C14.3128 22.3521 14.2914 22.3722 14.2745 22.3958C14.2576 22.4195 14.2454 22.4462 14.2389 22.4746C14.2323 22.5029 14.2313 22.5323 14.2361 22.561L14.2975 22.9321C14.3022 22.9608 14.3126 22.9882 14.328 23.0129C14.3433 23.0376 14.3634 23.059 14.3871 23.076C14.4107 23.0929 14.4375 23.105 14.4658 23.1116C14.4941 23.1182 14.5235 23.1192 14.5522 23.1144L14.9268 23.0524C14.9555 23.0476 14.9829 23.0373 15.0076 23.0219C15.0323 23.0065 15.0537 22.9865 15.0707 22.9628C15.0876 22.9392 15.0997 22.9124 15.1063 22.8841C15.1129 22.8557 15.1138 22.8264 15.1091 22.7977L15.0477 22.4266Z" fill="black"/>
<path d="M15.3702 23.8043C15.3477 23.7853 15.3327 23.7588 15.3278 23.7295C15.323 23.7002 15.3287 23.6701 15.3438 23.6443C15.7927 22.9095 16.4606 22.5457 17.3477 22.5527C17.3783 22.5533 17.4075 22.5598 17.4332 22.5717C17.4588 22.5836 17.4801 22.6005 17.4954 22.6213C17.554 22.7045 17.5622 22.7953 17.52 22.8937C17.5106 22.9169 17.4936 22.9371 17.471 22.9521C17.4483 22.967 17.4208 22.976 17.3917 22.9781C16.8948 23.0121 16.5907 23.0578 16.4794 23.1152C16.1876 23.2664 15.9954 23.5002 15.9028 23.8166C15.8337 24.0545 15.6561 24.0504 15.3702 23.8043Z" fill="black"/>
<path d="M13.9223 23.5845C13.9223 23.682 13.8836 23.7754 13.8147 23.8443C13.7458 23.9132 13.6523 23.9519 13.5549 23.9519C13.4574 23.9519 13.364 23.9132 13.2951 23.8443C13.2262 23.7754 13.1875 23.682 13.1875 23.5845C13.1875 23.4871 13.2262 23.3937 13.2951 23.3248C13.364 23.2559 13.4574 23.2172 13.5549 23.2172C13.6523 23.2172 13.7458 23.2559 13.8147 23.3248C13.8836 23.3937 13.9223 23.4871 13.9223 23.5845ZM13.525 23.7849C13.7254 23.901 13.8168 23.8535 13.7992 23.6426C13.784 23.4644 13.6996 23.3771 13.5461 23.3806C13.5175 23.3812 13.4897 23.3887 13.4651 23.4025C13.4405 23.4163 13.42 23.436 13.4055 23.4597C13.3281 23.5875 13.368 23.6959 13.525 23.7849Z" fill="black"/>
<path d="M17.6016 23.8078C17.6016 23.9057 17.5627 23.9996 17.4934 24.0688C17.4242 24.1381 17.3303 24.1769 17.2324 24.1769C17.1345 24.1769 17.0406 24.1381 16.9714 24.0688C16.9022 23.9996 16.8633 23.9057 16.8633 23.8078C16.8633 23.7099 16.9022 23.616 16.9714 23.5468C17.0406 23.4776 17.1345 23.4387 17.2324 23.4387C17.3303 23.4387 17.4242 23.4776 17.4934 23.5468C17.5627 23.616 17.6016 23.7099 17.6016 23.8078ZM17.2359 23.5863C17.2104 23.5785 17.1834 23.5769 17.1571 23.5816C17.1308 23.5863 17.106 23.5971 17.0847 23.6132C17.0635 23.6294 17.0463 23.6503 17.0347 23.6744C17.0231 23.6984 17.0174 23.7249 17.018 23.7516C17.0227 23.9707 17.0994 24.0586 17.2482 24.0152C17.342 23.9883 17.4 23.9297 17.4223 23.8394C17.4504 23.7187 17.3883 23.6344 17.2359 23.5863Z" fill="black"/>
<path d="M37.8475 25.606L38.0514 25.6412C38.0744 25.6451 38.0953 25.6592 38.1105 25.6811C38.1256 25.703 38.1339 25.7312 38.134 25.7607L38.1445 30.4347C38.1446 30.454 38.1404 30.4731 38.1322 30.4905C38.124 30.508 38.1121 30.5235 38.0972 30.5359C38.0822 30.5483 38.0647 30.5573 38.0459 30.5623C38.0271 30.5673 38.0073 30.5682 37.9881 30.5648C37.8369 30.5379 37.6705 30.5285 37.4889 30.5367C37.4783 30.5367 37.4174 30.5349 37.3061 30.5314C37.1057 30.5232 37.0365 30.6556 37.0986 30.9287C37.1037 30.9508 37.1036 30.9738 37.0985 30.996C37.0934 31.0181 37.0834 31.0388 37.0692 31.0565C37.0551 31.0743 37.0371 31.0886 37.0166 31.0984C36.9961 31.1082 36.9737 31.1133 36.951 31.1133C36.1471 31.1133 35.3543 31.1133 34.5727 31.1133C34.5609 31.1133 34.5111 31.1168 34.4232 31.1238C34.2088 31.1414 34.132 31.0142 34.193 30.7424C34.1985 30.7183 34.1986 30.6934 34.1931 30.6693C34.1877 30.6452 34.1769 30.6227 34.1615 30.6035C34.1461 30.5842 34.1265 30.5686 34.1043 30.558C34.082 30.5473 34.0577 30.5419 34.033 30.542H33.2525C33.2213 30.542 33.1913 30.5296 33.1693 30.5075C33.1472 30.4854 33.1348 30.4554 33.1348 30.4242C33.1348 28.8328 33.1406 27.2754 33.1523 25.7519C33.1535 25.6301 33.232 25.589 33.3879 25.6289C33.4086 25.6342 33.4301 25.6347 33.4511 25.6305C33.472 25.6264 33.4917 25.6175 33.5087 25.6047C33.5258 25.5919 33.5397 25.5754 33.5495 25.5564C33.5593 25.5375 33.5648 25.5166 33.5654 25.4953C33.5736 25.289 33.5777 25.0722 33.5777 24.8449C33.5766 24.5742 33.6158 24.3656 33.6955 24.2191C33.8537 23.9238 34.0975 23.7492 34.4268 23.6953C34.4619 23.6894 34.7438 23.6859 35.2723 23.6847C35.7129 23.6836 36.1535 23.6859 36.5941 23.6918C36.8918 23.6953 37.115 23.7469 37.2639 23.8465C37.4045 23.9402 37.5182 24.0621 37.6049 24.2121C37.6705 24.3269 37.7098 24.4822 37.7227 24.6779C37.7402 24.9592 37.752 25.2404 37.7578 25.5217C37.7581 25.5409 37.7673 25.5599 37.7836 25.5753C37.8 25.5907 37.8226 25.6016 37.8475 25.606ZM37.6988 26.3507C37.6988 26.3353 37.6958 26.3199 37.69 26.3056C37.6841 26.2913 37.6755 26.2783 37.6646 26.2673C37.6537 26.2564 37.6407 26.2476 37.6264 26.2417C37.6122 26.2357 37.5969 26.2326 37.5814 26.2326L35.1486 26.2241C35.1174 26.224 35.0874 26.2363 35.0652 26.2583C35.0431 26.2803 35.0305 26.3102 35.0304 26.3414L35.029 26.7563C35.0289 26.7717 35.0319 26.787 35.0378 26.8014C35.0436 26.8157 35.0523 26.8287 35.0632 26.8397C35.0741 26.8506 35.087 26.8593 35.1013 26.8653C35.1156 26.8713 35.1309 26.8744 35.1463 26.8744L37.5791 26.8829C37.6104 26.883 37.6404 26.8707 37.6625 26.8487C37.6847 26.8267 37.6972 26.7968 37.6973 26.7656L37.6988 26.3507Z" fill="black"/>
<path d="M10.618 27.5186C10.618 28.3708 10.2794 29.1881 9.67682 29.7907C9.07421 30.3933 8.2569 30.7319 7.40469 30.7319C6.55247 30.7319 5.73516 30.3933 5.13255 29.7907C4.52995 29.1881 4.19141 28.3708 4.19141 27.5186C4.19141 26.6664 4.52995 25.8491 5.13255 25.2464C5.73516 24.6438 6.55247 24.3053 7.40469 24.3053C8.2569 24.3053 9.07421 24.6438 9.67682 25.2464C10.2794 25.8491 10.618 26.6664 10.618 27.5186ZM10.1064 27.5239C10.1064 26.8078 9.82198 26.121 9.31563 25.6147C8.80929 25.1083 8.12253 24.8239 7.40645 24.8239C6.69036 24.8239 6.00361 25.1083 5.49726 25.6147C4.99091 26.121 4.70645 26.8078 4.70645 27.5239C4.70645 28.2399 4.99091 28.9267 5.49726 29.433C6.00361 29.9394 6.69036 30.2239 7.40645 30.2239C8.12253 30.2239 8.80929 29.9394 9.31563 29.433C9.82198 28.9267 10.1064 28.2399 10.1064 27.5239Z" fill="black"/>
<path d="M39.5183 24.9943C40.2296 25.5732 40.6392 26.2717 40.747 27.0896C40.8431 27.8209 40.7054 28.5076 40.3339 29.1498C39.9554 29.8037 39.383 30.2783 38.6166 30.5736C38.5998 30.5802 38.5818 30.5832 38.5638 30.5825C38.5457 30.5817 38.5281 30.5773 38.5119 30.5693C38.4957 30.5614 38.4813 30.5502 38.4697 30.5364C38.458 30.5226 38.4494 30.5065 38.4443 30.4892C38.4068 30.3603 38.3986 30.2566 38.4197 30.1781C38.4373 30.116 38.5076 30.0574 38.6306 30.0023C39.2763 29.714 39.7345 29.2758 40.0052 28.6875C40.2548 28.1449 40.3146 27.5543 40.1845 26.9156C39.9701 25.8633 39.2781 25.1859 38.1086 24.8836C38.081 24.8761 38.056 24.8628 38.0358 24.845C38.0155 24.8272 38.0007 24.8055 37.9925 24.7816C37.9562 24.6668 37.9556 24.5525 37.9908 24.4389C37.9986 24.4151 38.0151 24.3949 38.0376 24.3817C38.0601 24.3685 38.087 24.3633 38.1138 24.3668C38.6236 24.4371 39.0918 24.6463 39.5183 24.9943Z" fill="black"/>
<path d="M8.64961 27.5203C8.64961 27.8499 8.51867 28.166 8.28561 28.3991C8.05254 28.6321 7.73644 28.7631 7.40684 28.7631C7.07723 28.7631 6.76113 28.6321 6.52806 28.3991C6.295 28.166 6.16406 27.8499 6.16406 27.5203C6.16406 27.1907 6.295 26.8746 6.52806 26.6415C6.76113 26.4085 7.07723 26.2775 7.40684 26.2775C7.73644 26.2775 8.05254 26.4085 8.28561 26.6415C8.51867 26.8746 8.64961 27.1907 8.64961 27.5203ZM8.13809 27.5256C8.13809 27.3316 8.06104 27.1456 7.92391 27.0085C7.78677 26.8714 7.60078 26.7943 7.40684 26.7943C7.2129 26.7943 7.0269 26.8714 6.88976 27.0085C6.75263 27.1456 6.67559 27.3316 6.67559 27.5256C6.67559 27.7195 6.75263 27.9055 6.88976 28.0426C7.0269 28.1798 7.2129 28.2568 7.40684 28.2568C7.60078 28.2568 7.78677 28.1798 7.92391 28.0426C8.06104 27.9055 8.13809 27.7195 8.13809 27.5256Z" fill="black"/>
<path d="M37.363 26.4012L36.0166 26.4176C35.9535 26.4184 35.903 26.4702 35.9037 26.5333L35.9041 26.5649C35.9049 26.628 35.9567 26.6785 36.0198 26.6777L37.3662 26.6613C37.4293 26.6605 37.4798 26.6088 37.479 26.5457L37.4786 26.514C37.4779 26.4509 37.4261 26.4004 37.363 26.4012Z" fill="black"/>
<path d="M38.3946 28.1848L38.4087 26.7609C38.4098 26.6508 38.4456 26.6373 38.5159 26.7205C38.8932 27.174 38.9167 27.6809 38.5862 28.241C38.4561 28.4602 38.3922 28.4414 38.3946 28.1848Z" fill="black"/>
<path d="M25.7405 28.0934C24.9237 28.0793 24.1362 28.0781 23.378 28.0898C23.1037 28.0934 23.041 27.9557 23.1899 27.6768C23.2026 27.6528 23.2214 27.6328 23.2444 27.6189C23.2673 27.605 23.2934 27.5976 23.3199 27.5977L25.5207 27.6064C25.5529 27.607 25.5833 27.6138 25.6084 27.6262C25.6336 27.6387 25.6525 27.6562 25.6631 27.6768L25.8178 27.9914C25.8232 28.0023 25.8254 28.0144 25.824 28.0265C25.8227 28.0386 25.8179 28.0504 25.8101 28.0606C25.8024 28.0709 25.7919 28.0792 25.7797 28.085C25.7675 28.0907 25.754 28.0936 25.7405 28.0934Z" fill="black"/>
<path d="M29.0149 28.1057C28.8485 28.0705 28.7307 27.9574 28.6615 27.7664C28.6548 27.7474 28.6527 27.7272 28.6554 27.7072C28.6581 27.6873 28.6656 27.6683 28.6771 27.6518C28.6886 27.6353 28.7039 27.6218 28.7216 27.6124C28.7394 27.6029 28.7592 27.5979 28.7793 27.5977C29.1098 27.5965 29.2428 27.7313 29.1783 28.002C29.1699 28.0371 29.1482 28.0676 29.1176 28.087C29.0871 28.1064 29.0502 28.1131 29.0149 28.1057Z" fill="black"/>
<path d="M32.4187 28.1285L30.3726 28.0758C30.3148 28.0742 30.2595 28.0551 30.2153 28.0214C30.1711 27.9877 30.1405 27.9413 30.1283 27.8894C30.0791 27.6738 30.1259 27.5736 30.2689 27.5888C30.3287 27.5947 30.3644 27.5976 30.3761 27.5976C31.2023 27.593 31.9793 27.5959 32.707 27.6064C32.7485 27.6069 32.7882 27.6234 32.8178 27.6526C32.8473 27.6818 32.8643 27.7214 32.8652 27.7629C32.8781 28.241 32.7796 28.3857 32.5699 28.1971C32.5212 28.1541 32.4673 28.1296 32.4187 28.1285Z" fill="black"/>
<path d="M33.5506 31.5686C33.7748 31.5686 33.9566 31.3868 33.9566 31.1625C33.9566 30.9383 33.7748 30.7565 33.5506 30.7565C33.3263 30.7565 33.1445 30.9383 33.1445 31.1625C33.1445 31.3868 33.3263 31.5686 33.5506 31.5686Z" fill="black"/>
<path d="M37.7258 31.5738C37.953 31.5738 38.1371 31.3897 38.1371 31.1625C38.1371 30.9353 37.953 30.7512 37.7258 30.7512C37.4986 30.7512 37.3145 30.9353 37.3145 31.1625C37.3145 31.3897 37.4986 31.5738 37.7258 31.5738Z" fill="black"/>
</g>
<defs>
<clipPath id="clip0_731_235">
<rect width="45" height="45" fill="white"/>
</clipPath>
</defs>
</svg>
