<svg width="47" height="47" viewBox="0 0 47 47" fill="none" xmlns="http://www.w3.org/2000/svg">
<g clip-path="url(#clip0_731_179)">
<path d="M20.9606 3.54152C20.8492 3.95032 20.8388 4.34566 20.9294 4.72754C21.31 6.34071 21.9826 7.79722 22.9471 9.09707C22.9583 9.11221 22.9662 9.12958 22.9702 9.14802C22.9742 9.16645 22.9742 9.18553 22.9702 9.20397C22.9662 9.2224 22.9583 9.23977 22.947 9.25489C22.9357 9.27002 22.9214 9.28256 22.9048 9.29168C22.2598 9.64295 21.5928 9.85225 20.9037 9.91957C20.2342 9.98444 19.5561 9.90427 18.8695 9.67906C17.5537 9.247 16.607 8.3884 16.0293 7.10324C15.4552 5.82175 15.3977 4.59168 15.8567 3.41301C16.2998 2.27962 17.0415 1.41183 18.0818 0.809645C18.8713 0.354333 19.7409 0.154216 20.6907 0.209294C21.5817 0.2607 22.3975 0.526299 23.138 1.00609C24.3742 1.80778 25.097 3.00665 25.3062 4.60269C25.3075 4.61371 25.3087 4.78873 25.3099 5.12777C25.3099 5.38847 25.3968 5.61613 25.5706 5.81074C25.6881 5.94415 25.7499 6.01392 25.7561 6.02004C26.3387 6.77277 26.8209 7.58548 27.2028 8.45816C27.3607 8.82045 27.4561 9.19866 27.4892 9.59277C27.5296 10.0762 27.3166 10.3516 26.8503 10.4189C26.6006 10.4544 26.2407 10.3229 25.7707 10.0242C23.7512 8.73539 22.2647 6.98941 21.3113 4.78629C21.1264 4.35912 21.0603 3.98765 21.113 3.67187C21.1313 3.56539 21.1185 3.49746 21.0744 3.46808C21.0652 3.46218 21.0546 3.45946 21.0432 3.46014C21.0319 3.46082 21.0203 3.46488 21.0093 3.47201C20.9982 3.47913 20.9881 3.48912 20.9796 3.50118C20.9712 3.51325 20.9647 3.52706 20.9606 3.54152Z" fill="black"/>
<path d="M5.0967 24.7025C3.45292 23.6707 2.80606 22.1035 3.15611 20.0007C3.79502 16.1685 5.15789 12.761 7.24474 9.77819C8.11253 8.53955 8.90749 7.70542 9.62963 7.27581C10.6981 6.6418 11.9099 6.46555 13.2648 6.74706C13.7593 6.84987 14.1913 7.07753 14.561 7.43003C14.7837 7.64177 15.0512 8.03221 15.3633 8.60136C17.8393 13.1239 20.3289 17.6868 22.8319 22.2901C22.8686 22.3574 22.8551 22.3715 22.7915 22.3323L21.644 21.631C21.6346 21.6254 21.6267 21.6174 21.6211 21.6077C21.6154 21.5979 21.612 21.5866 21.6112 21.5744C21.6103 21.5622 21.612 21.5495 21.616 21.5371C21.6201 21.5247 21.6265 21.5129 21.6348 21.5025C21.7364 21.374 21.7652 21.2461 21.7211 21.1188C21.6905 21.0331 21.6085 20.9517 21.4751 20.8746C19.8497 19.9346 18.2298 18.9854 16.6154 18.0271C16.5614 17.9959 16.5182 17.952 16.4905 17.9004L14.2727 13.8136C14.1981 13.6753 14.124 13.6759 14.0506 13.8154L12.5176 16.7529C12.5119 16.7638 12.5041 16.7735 12.4947 16.7814C12.4853 16.7893 12.4744 16.7952 12.4628 16.7988C12.4511 16.8024 12.4389 16.8036 12.4269 16.8024C12.4148 16.8011 12.4032 16.7974 12.3927 16.7915L10.6008 15.778C10.5875 15.7703 10.576 15.7596 10.5673 15.7467C10.5586 15.7338 10.5528 15.7191 10.5503 15.7036C10.5479 15.688 10.5488 15.672 10.5531 15.6566C10.5574 15.6413 10.5649 15.627 10.5751 15.6146C11.5225 14.4494 12.4551 13.2805 13.3731 12.108C13.7256 11.6576 13.9435 11.2512 14.0267 10.8889C14.225 10.0371 14.0157 9.33695 13.3988 8.78862C12.9484 8.38716 12.4411 8.18031 11.8768 8.16807C11.2465 8.15339 10.703 8.40246 10.2465 8.9153C9.39463 9.87244 7.86713 11.7824 5.664 14.6453C5.26744 15.1593 5.02999 15.6024 4.95166 15.9745C4.80968 16.6489 4.95043 17.2401 5.37392 17.748C5.58689 18.0026 6.04649 18.3343 6.75271 18.7431C8.05623 19.4983 9.35974 20.2424 10.6633 20.9756C10.7154 21.0046 10.7555 21.0514 10.7764 21.1075C10.7972 21.1637 10.7975 21.2256 10.7771 21.2822C10.6106 21.7314 10.5384 22.1952 10.5604 22.6738C10.7012 25.7484 10.8377 28.8236 10.9699 31.8994C10.9833 32.2042 10.8713 32.613 10.6339 33.1258C8.82977 37.0143 7.02933 40.9047 5.23256 44.7969C4.85435 45.6157 4.26991 46.1304 3.47924 46.3409C2.79382 46.5233 2.13778 46.4657 1.51111 46.1683C0.841606 45.8501 0.383846 45.3011 0.13783 44.5215C-0.0139407 44.0405 -0.0243444 43.5558 0.106619 43.0674C0.145786 42.923 0.331216 42.4891 0.662908 41.7657C2.20877 38.3949 3.76258 35.0272 5.32435 31.6626C5.43941 31.4141 5.49265 31.154 5.48408 30.8823C5.41921 28.8677 5.31823 26.8549 5.18115 24.8439C5.17948 24.8155 5.17094 24.7879 5.15625 24.7633C5.14156 24.7387 5.12115 24.7179 5.0967 24.7025Z" fill="black"/>
<path d="M9.86843 15.8956C12.014 17.2076 13.8004 18.2468 15.2275 19.013C15.7392 19.2884 16.0727 19.6605 16.2281 20.1292C16.3762 20.5784 16.3352 21.0331 16.1051 21.4933C15.8126 22.0784 15.3236 22.3703 14.6382 22.3691C14.3175 22.3691 13.9467 22.2522 13.5256 22.0184C11.2491 20.7553 8.9878 19.4671 6.74183 18.1538C6.16902 17.8196 5.79571 17.5002 5.62191 17.1954C5.24126 16.5271 5.35998 15.8019 5.97808 15.0198C7.3942 13.2292 8.82195 11.4483 10.2613 9.67724C10.5991 9.26109 10.8843 8.98938 11.1169 8.86208C11.522 8.64055 11.9388 8.60138 12.3671 8.74458C12.8788 8.91594 13.2435 9.236 13.4614 9.70478C13.6229 10.0536 13.6511 10.4257 13.5458 10.821C13.4785 11.0732 13.2998 11.3834 13.0097 11.7518C11.9547 13.0933 10.8996 14.4342 9.84457 15.7744C9.83744 15.7833 9.83238 15.7937 9.82971 15.8048C9.82704 15.816 9.82682 15.8277 9.82908 15.8391C9.83133 15.8506 9.836 15.8615 9.84279 15.8712C9.84957 15.881 9.85831 15.8893 9.86843 15.8956Z" fill="black"/>
<path d="M17.2906 20.0007C16.7545 19.7547 16.3164 19.371 15.9761 18.8496C15.9591 18.8235 15.9482 18.795 15.9444 18.7665C15.9405 18.738 15.9439 18.7104 15.9541 18.6862C16.0006 18.5699 16.0838 18.4964 16.2038 18.4658C16.2288 18.4595 16.2566 18.459 16.2856 18.4643C16.3146 18.4697 16.3442 18.4808 16.3727 18.4971L21.0378 21.2124C21.0635 21.2279 21.0824 21.2522 21.0906 21.2803C21.0989 21.3084 21.0957 21.338 21.0818 21.363L19.7251 23.8672C19.6979 23.9182 19.6517 23.9585 19.5947 23.981C18.5911 24.3837 17.566 24.7209 16.5195 24.9926C16.4917 24.9996 16.4625 25.001 16.4339 24.9965C16.4052 24.9921 16.3775 24.9821 16.3525 24.9669C15.3023 24.3378 14.2613 23.6921 13.2295 23.03C12.959 22.8562 12.9297 22.6928 13.1414 22.5398C13.1632 22.5242 13.1898 22.5151 13.2182 22.5135C13.2466 22.5119 13.2759 22.5178 13.303 22.5306C13.8378 22.784 14.1922 22.9082 14.366 22.9033C14.6218 22.896 14.8286 22.9725 14.9865 23.1328C15.0126 23.1595 15.0446 23.1797 15.0799 23.1917C15.1152 23.2037 15.1528 23.2071 15.1896 23.2017C15.2264 23.1964 15.2613 23.1823 15.2914 23.1607C15.3216 23.1392 15.3461 23.1107 15.3629 23.0777C15.4816 22.8488 15.6456 22.661 15.8549 22.5141C16.238 22.2448 16.5097 21.8991 16.6701 21.4768C16.8206 21.0814 16.8965 20.8826 16.8977 20.8801C17.0177 20.6463 17.1652 20.4285 17.3402 20.2265C17.3547 20.2095 17.3651 20.1893 17.3706 20.1676C17.376 20.1458 17.3763 20.1232 17.3715 20.1013C17.3667 20.0794 17.3569 20.0589 17.3429 20.0415C17.3289 20.024 17.311 20.0101 17.2906 20.0007Z" fill="black"/>
<path d="M16.0726 26.2668L20.9764 27.7686C20.9903 27.7726 21.0027 27.7793 21.0112 27.7874C21.0197 27.7956 21.0236 27.8045 21.0223 27.8126L21.0205 27.831C21.0195 27.8357 21.0161 27.8399 21.0107 27.8429C21.0053 27.8459 20.9984 27.8475 20.9911 27.8475L16.6858 27.8181C16.642 27.8177 16.5998 27.8354 16.5685 27.8674C16.5371 27.8994 16.5192 27.9431 16.5187 27.9889L16.493 30.3187C16.4928 30.3454 16.4976 30.3718 16.5072 30.3965C16.5168 30.4213 16.5309 30.4437 16.5488 30.4627C16.5668 30.4816 16.5881 30.4967 16.6116 30.5069C16.6351 30.5172 16.6603 30.5225 16.6858 30.5225H17.6203C17.6366 30.5225 17.6527 30.5264 17.6673 30.5338C17.6818 30.5413 17.6943 30.5521 17.7038 30.5654C17.7133 30.5787 17.7196 30.594 17.7219 30.6102C17.7243 30.6264 17.7229 30.6429 17.7176 30.6583L15.3988 37.712C15.384 37.7572 15.3556 37.7965 15.3176 37.8242C15.2796 37.852 15.2341 37.8667 15.1877 37.8662L13.8933 37.8552C13.8739 37.8551 13.8546 37.8595 13.8371 37.868C13.8196 37.8764 13.8044 37.8887 13.7926 37.9039C13.7808 37.9191 13.7728 37.9367 13.7693 37.9553C13.7657 37.974 13.7667 37.9931 13.7722 38.0112C13.8383 38.2389 13.8517 38.4286 13.8126 38.5804C13.8051 38.6095 13.7913 38.6365 13.7722 38.6597C13.7531 38.6828 13.7292 38.7015 13.7022 38.7143C13.6752 38.7271 13.6457 38.7338 13.6159 38.7338C13.5861 38.7338 13.5567 38.7272 13.5298 38.7144C12.547 38.2493 11.9693 37.5523 11.7967 36.6233C11.7196 36.2096 11.7759 35.6068 11.9656 34.8149C12.6033 32.1552 13.2434 29.468 13.886 26.7533C13.8925 26.7247 13.8873 26.6946 13.8716 26.6693C13.8558 26.644 13.8308 26.6254 13.8015 26.6174L11.4846 25.995C11.4574 25.9877 11.4333 25.9723 11.4157 25.9512C11.3982 25.93 11.3883 25.9042 11.3873 25.8775L11.211 22.0349C11.1853 21.4841 11.4008 21.355 11.8573 21.6475L12.5935 22.1175C12.616 22.1323 12.6329 22.1539 12.6415 22.1788C12.6502 22.2038 12.6501 22.2307 12.6412 22.2552C12.5751 22.4401 12.465 22.5992 12.3108 22.7326C12.2845 22.7555 12.2641 22.7843 12.2513 22.8168C12.2384 22.8492 12.2333 22.8844 12.2365 22.9195C12.2397 22.9546 12.2511 22.9887 12.2697 23.019C12.2884 23.0494 12.3137 23.0751 12.3438 23.0943L16.0799 25.4681C16.0991 25.48 16.1135 25.4997 16.1211 25.5245C16.1287 25.5493 16.1291 25.5778 16.1222 25.6058L15.9918 26.1511C15.9864 26.1745 15.9918 26.1996 16.0068 26.2211C16.0219 26.2426 16.0454 26.259 16.0726 26.2668Z" fill="black"/>
<path d="M35.6108 30.326C35.6344 30.3399 35.6518 30.3623 35.6593 30.3886C35.6668 30.4149 35.6639 30.4432 35.6512 30.4674L35.0967 31.5267C35.0803 31.5583 35.0533 31.5832 35.0204 31.5969C34.9875 31.6107 34.9509 31.6125 34.9168 31.602L16.5776 26.0409C16.5477 26.0316 16.5212 26.0158 16.5008 25.9955C16.4804 25.9751 16.467 25.9508 16.462 25.9253C16.4436 25.8274 16.462 25.7368 16.517 25.6536C16.5562 25.5936 16.6266 25.5465 16.7282 25.5122C17.7734 25.1585 18.8095 24.8133 19.8364 24.4767C19.9558 24.4365 20.0547 24.3546 20.1136 24.2472L21.2886 22.0845C21.299 22.0655 21.3129 22.0487 21.3297 22.0351C21.3465 22.0215 21.3657 22.0114 21.3863 22.0054C21.4068 21.9994 21.4283 21.9976 21.4493 22.0002C21.4704 22.0027 21.4907 22.0096 21.509 22.0202L35.6108 30.326Z" fill="black"/>
<path d="M41.4566 25.38C42.306 25.3788 43.1548 25.383 44.003 25.3928C44.0283 25.3928 44.0526 25.4025 44.0705 25.4197C44.0884 25.4369 44.0985 25.4603 44.0985 25.4846L44.1077 27.7208C44.1077 27.7456 44.0976 27.7695 44.0797 27.787C44.0618 27.8046 44.0375 27.8144 44.0122 27.8144H32.2034C32.1168 27.8144 32.0313 27.791 31.9556 27.7465L28.1827 25.536C27.9649 25.4088 27.982 25.3457 28.2341 25.3469C32.6428 25.3751 37.0503 25.3861 41.4566 25.38Z" fill="black"/>
<path d="M39.7928 29.9478C39.7748 29.9479 39.757 29.9518 39.7407 29.9593C39.7244 29.9667 39.7102 29.9775 39.6991 29.9907C39.688 30.0039 39.6805 30.0192 39.677 30.0353C39.6735 30.0515 39.6742 30.068 39.679 30.0837L42.3687 38.294C42.3774 38.32 42.3936 38.3429 42.4152 38.3595C42.4368 38.3762 42.4628 38.386 42.4898 38.3876L43.663 38.4464C43.6894 38.4477 43.7143 38.4585 43.7327 38.4766C43.7511 38.4946 43.7616 38.5186 43.7621 38.5437L43.7823 39.8747C43.7823 39.8997 43.7721 39.9237 43.7539 39.9416C43.7357 39.9594 43.711 39.9697 43.685 39.9702L43.1453 39.9794C43.1156 39.9799 43.0863 39.9872 43.06 40.0007C43.0336 40.0143 43.0108 40.0336 42.9935 40.0572C42.9761 40.0808 42.9647 40.108 42.9601 40.1366C42.9556 40.1652 42.958 40.1943 42.9672 40.2217L44.9133 46.1591C44.9198 46.1782 44.9225 46.1984 44.9213 46.2185C44.9201 46.2386 44.915 46.2581 44.9063 46.2761C44.8975 46.294 44.8854 46.3099 44.8705 46.323C44.8557 46.336 44.8384 46.3458 44.8196 46.3519L43.63 46.7411C43.588 46.7547 43.5422 46.7507 43.5026 46.7301C43.4631 46.7094 43.4329 46.6738 43.4188 46.631L41.2836 40.0822C41.2736 40.0518 41.2544 40.0253 41.2287 40.0065C41.203 39.9877 41.1721 39.9776 41.1404 39.9775H17.0474C17.0058 39.9775 16.9652 39.9908 16.9312 40.0155C16.8973 40.0402 16.8718 40.0751 16.8583 40.1152L14.7213 46.6714C14.709 46.7085 14.6808 46.7388 14.643 46.7557C14.6052 46.7725 14.5608 46.7745 14.5193 46.7613L13.3994 46.4033C13.3727 46.3948 13.3477 46.3816 13.326 46.3646C13.3042 46.3476 13.2861 46.327 13.2726 46.3042C13.2591 46.2813 13.2506 46.2566 13.2474 46.2314C13.2443 46.2062 13.2467 46.181 13.2544 46.1573L15.2023 40.1813C15.2099 40.1574 15.2114 40.1319 15.2066 40.1071C15.2018 40.0822 15.1909 40.0586 15.1747 40.0381C15.1584 40.0176 15.1374 40.0008 15.1132 39.989C15.089 39.9772 15.0623 39.9708 15.0352 39.9702L14.49 39.9592C14.4635 39.9587 14.4382 39.9469 14.4197 39.9263C14.4011 39.9057 14.3908 39.8779 14.3908 39.849V38.5418C14.3914 38.5173 14.4021 38.4937 14.4208 38.476C14.4396 38.4583 14.4649 38.4477 14.4918 38.4464L15.6631 38.3876C15.6906 38.3861 15.7168 38.3765 15.7385 38.3601C15.7601 38.3438 15.7761 38.3213 15.7843 38.2958L18.4593 30.069C18.4626 30.0588 18.4636 30.048 18.462 30.0374C18.4604 30.0268 18.4563 30.0167 18.4501 30.0079C18.4439 29.999 18.4357 29.9916 18.4262 29.9863C18.4166 29.981 18.4059 29.9779 18.395 29.9772C17.9776 29.9478 17.7059 29.946 17.5798 29.9717C17.2053 30.0476 17.0303 29.9239 17.0548 29.6008C17.0682 29.4331 17.075 29.3432 17.075 29.3309C17.075 29.0568 17.075 28.7887 17.075 28.5268C17.0749 28.4948 17.0874 28.4641 17.1097 28.4411C17.132 28.4181 17.1623 28.4047 17.1943 28.4038C18.9066 28.3499 20.5883 28.3444 22.2394 28.3873C22.7694 28.4007 23.2939 28.4803 23.8128 28.6259C25.1763 29.009 26.519 29.405 27.8409 29.8138C28.1836 29.919 28.1763 29.9717 27.8189 29.9717L20.3117 29.9588C20.2744 29.9589 20.2382 29.9707 20.2082 29.9924C20.1782 30.0142 20.1559 30.0449 20.1446 30.08L17.4623 38.2664C17.4565 38.2836 17.4549 38.3019 17.4577 38.3198C17.4605 38.3377 17.4675 38.3547 17.4783 38.3694C17.4891 38.3841 17.5032 38.3961 17.5196 38.4044C17.536 38.4127 17.5541 38.417 17.5725 38.417C25.09 38.417 32.5433 38.4096 39.9324 38.395C40.1637 38.395 40.3687 38.4127 40.5474 38.4482C40.5697 38.4528 40.5928 38.4515 40.6144 38.4444C40.636 38.4373 40.6553 38.4247 40.6705 38.4078C40.6858 38.3909 40.6963 38.3703 40.7011 38.3481C40.7059 38.3259 40.7048 38.3028 40.698 38.2811L38.0193 30.1039C38.0055 30.0625 37.9785 30.0268 37.9425 30.002C37.9064 29.9771 37.8632 29.9646 37.8192 29.9662C37.1938 29.9821 36.6155 29.9772 36.0843 29.9515C35.8101 29.938 35.5494 29.8585 35.3021 29.7128C34.618 29.3101 33.9209 28.9001 33.211 28.4827C33.0923 28.413 33.1015 28.3775 33.2386 28.3762L40.9715 28.3652C40.9855 28.3652 40.9994 28.368 41.0123 28.3733C41.0252 28.3787 41.0369 28.3865 41.0468 28.3964C41.0567 28.4063 41.0645 28.418 41.0699 28.431C41.0752 28.4439 41.078 28.4577 41.078 28.4717L41.0707 29.8211C41.0707 29.8494 41.061 29.8765 41.0438 29.8964C41.0266 29.9164 41.0032 29.9276 40.9789 29.9276L39.7928 29.9478ZM16.7041 39.155C16.7041 39.1097 16.6952 39.0648 16.6778 39.023C16.6605 38.9811 16.6351 38.943 16.603 38.911C16.571 38.8789 16.5329 38.8535 16.491 38.8362C16.4492 38.8188 16.4043 38.8099 16.3589 38.8099C16.2674 38.8099 16.1796 38.8462 16.1149 38.911C16.0501 38.9757 16.0138 39.0635 16.0138 39.155C16.0138 39.2466 16.0501 39.3344 16.1149 39.3991C16.1796 39.4638 16.2674 39.5002 16.3589 39.5002C16.4043 39.5002 16.4492 39.4913 16.491 39.4739C16.5329 39.4566 16.571 39.4312 16.603 39.3991C16.6351 39.3671 16.6605 39.329 16.6778 39.2871C16.6952 39.2452 16.7041 39.2004 16.7041 39.155ZM42.152 39.1569C42.152 39.0648 42.1155 38.9766 42.0504 38.9115C41.9853 38.8464 41.8971 38.8099 41.805 38.8099C41.713 38.8099 41.6248 38.8464 41.5597 38.9115C41.4946 38.9766 41.458 39.0648 41.458 39.1569C41.458 39.2489 41.4946 39.3372 41.5597 39.4022C41.6248 39.4673 41.713 39.5039 41.805 39.5039C41.8971 39.5039 41.9853 39.4673 42.0504 39.4022C42.1155 39.3372 42.152 39.2489 42.152 39.1569Z" fill="black"/>
<path d="M27.6179 44.9346H20.0685C19.9854 44.9346 19.918 45.002 19.918 45.0851V46.7118C19.918 46.7949 19.9854 46.8623 20.0685 46.8623H27.6179C27.701 46.8623 27.7684 46.7949 27.7684 46.7118V45.0851C27.7684 45.002 27.701 44.9346 27.6179 44.9346Z" fill="black"/>
<path d="M30.1409 45.8389L29.4378 46.0378C29.3783 46.0547 29.3437 46.1166 29.3606 46.1761L29.5575 46.8721C29.5744 46.9316 29.6363 46.9662 29.6958 46.9494L30.3989 46.7504C30.4584 46.7336 30.493 46.6717 30.4761 46.6122L30.2792 45.9161C30.2623 45.8566 30.2004 45.822 30.1409 45.8389Z" fill="black"/>
<path d="M32.2769 45.8426L31.6237 46.0152C31.5522 46.0341 31.5095 46.1075 31.5284 46.179L31.7028 46.8393C31.7217 46.9109 31.7951 46.9536 31.8667 46.9347L32.5199 46.7621C32.5914 46.7432 32.6341 46.6698 32.6152 46.5983L32.4407 45.938C32.4218 45.8664 32.3485 45.8237 32.2769 45.8426Z" fill="black"/>
<path d="M10.0476 46.1123L9.46709 46.0005C9.40437 45.9885 9.34372 46.0295 9.33164 46.0922L9.21916 46.6764C9.20708 46.7391 9.24814 46.7997 9.31087 46.8118L9.89137 46.9236C9.9541 46.9357 10.0147 46.8946 10.0268 46.8319L10.1393 46.2478C10.1514 46.185 10.1103 46.1244 10.0476 46.1123Z" fill="black"/>
<path d="M11.6211 45.983L10.9955 46.1448C10.9484 46.157 10.92 46.2051 10.9322 46.2522L11.094 46.8779C11.1062 46.925 11.1543 46.9533 11.2014 46.9411L11.8271 46.7793C11.8742 46.7671 11.9025 46.7191 11.8903 46.6719L11.7285 46.0463C11.7163 45.9992 11.6683 45.9708 11.6211 45.983Z" fill="black"/>
<path d="M16.8432 46.1082L16.2657 46.0002C16.201 45.988 16.1386 46.0307 16.1265 46.0955L16.0184 46.673C16.0063 46.7378 16.049 46.8001 16.1138 46.8122L16.6912 46.9203C16.756 46.9324 16.8184 46.8897 16.8305 46.825L16.9386 46.2475C16.9507 46.1827 16.908 46.1204 16.8432 46.1082Z" fill="black"/>
<path d="M18.4029 45.9877L17.8103 46.1454C17.7554 46.16 17.7228 46.2163 17.7374 46.2712L17.8969 46.8709C17.9115 46.9257 17.9679 46.9584 18.0227 46.9438L18.6153 46.7861C18.6702 46.7715 18.7028 46.7152 18.6882 46.6603L18.5287 46.0606C18.5141 46.0057 18.4578 45.9731 18.4029 45.9877Z" fill="black"/>
<path d="M41.972 46.1113L41.3573 46.0029C41.3023 45.9932 41.25 46.0299 41.2403 46.0848L41.1319 46.6995C41.1222 46.7545 41.1589 46.8068 41.2138 46.8165L41.8285 46.9249C41.8834 46.9346 41.9358 46.8979 41.9455 46.843L42.0539 46.2283C42.0636 46.1733 42.0269 46.121 41.972 46.1113Z" fill="black"/>
<path d="M46.6687 45.9917L46.0796 46.1484C46.0238 46.1633 45.9906 46.2206 46.0054 46.2765L46.1622 46.8655C46.177 46.9214 46.2343 46.9546 46.2902 46.9397L46.8792 46.783C46.9351 46.7681 46.9683 46.7108 46.9535 46.655L46.7967 46.0659C46.7819 46.0101 46.7245 45.9769 46.6687 45.9917Z" fill="black"/>
<path d="M39.0414 46.5845L34.2166 46.593C34.1304 46.5931 34.0607 46.6631 34.0608 46.7493L34.0608 46.7566C34.061 46.8428 34.131 46.9126 34.2172 46.9124L39.042 46.904C39.1282 46.9038 39.1979 46.8339 39.1978 46.7477L39.1978 46.7403C39.1976 46.6541 39.1276 46.5844 39.0414 46.5845Z" fill="black"/>
</g>
<defs>
<clipPath id="clip0_731_179">
<rect width="47" height="47" fill="white"/>
</clipPath>
</defs>
</svg>
