<svg width="45" height="45" viewBox="0 0 45 45" fill="none" xmlns="http://www.w3.org/2000/svg">
<path d="M23.2127 31.5896C23.2139 31.6869 23.2561 31.7109 23.3393 31.6617L30.541 27.4131C30.5648 27.3991 30.5848 27.3796 30.5992 27.3563C30.6136 27.333 30.622 27.3066 30.6236 27.2795C31.0959 19.8943 31.5055 12.5057 31.8523 5.11348C31.8523 5.10762 31.8512 5.00977 31.8488 4.81992C31.8441 4.54219 31.9461 4.33945 32.1547 4.21172C32.2777 4.13672 32.4775 4.09805 32.7541 4.0957C33.7994 4.08633 34.8441 4.08281 35.8883 4.08516C36.5246 4.08633 36.8563 4.08984 36.8832 4.0957C37.2066 4.1625 37.4 4.36699 37.4633 4.70918C37.468 4.73145 37.4803 4.99043 37.5002 5.48613C37.6455 9.1377 37.826 12.7875 38.0416 16.4355C38.2654 20.1996 38.4787 24.0287 38.6814 27.9229C38.6826 27.9435 38.689 27.9635 38.7 27.981C38.7111 27.9984 38.7264 28.0127 38.7444 28.0225C38.7625 28.0322 38.7827 28.037 38.8031 28.0365C38.8235 28.036 38.8433 28.0302 38.8607 28.0195C39.8381 27.4289 40.8512 26.8354 41.9 26.2389C42.1496 26.0971 42.3605 26.052 42.5328 26.1035C42.7098 26.1562 42.8434 26.2687 42.9336 26.441C42.9922 26.5523 43.0215 26.7141 43.0215 26.9262C43.0215 32.5758 43.0215 38.2254 43.0215 43.875C43.0215 44.1738 42.9781 44.3871 42.8914 44.5148C42.7531 44.7188 42.5328 44.8207 42.2305 44.8207C29.0902 44.823 15.9506 44.8242 2.81152 44.8242C2.36621 44.8242 2.09785 44.6537 2.00645 44.3127C1.98652 44.2365 1.97656 43.9617 1.97656 43.4883C1.97656 39.6504 1.97656 35.7398 1.97656 31.7566C1.97656 31.466 2.10488 31.2592 2.36152 31.1361L7.60508 28.6084C7.6502 28.5872 7.68873 28.5543 7.71659 28.5131C7.74445 28.472 7.76058 28.4241 7.76328 28.3746C8.09727 22.2902 8.42832 16.2891 8.75645 10.3711C8.92871 7.27031 9.06758 4.16719 9.17305 1.06172C9.18242 0.783984 9.22988 0.584766 9.31543 0.464063C9.45137 0.271875 9.65645 0.175781 9.93066 0.175781C11.3955 0.175781 12.8604 0.175781 14.3252 0.175781C14.8596 0.175781 15.183 0.366211 15.2955 0.74707C15.3131 0.805664 15.3324 1.12852 15.3535 1.71563C15.4812 5.27695 15.6471 8.83594 15.851 12.3926C16.1803 18.1629 16.4943 23.9813 16.7932 29.8477C16.7936 29.8577 16.7966 29.8675 16.8019 29.8761C16.8072 29.8847 16.8147 29.8917 16.8236 29.8965C16.8324 29.9013 16.8424 29.9037 16.8525 29.9034C16.8626 29.9032 16.8724 29.9003 16.8811 29.8951C18.5064 28.9787 20.1412 28.0811 21.7854 27.2021C22.1135 27.0275 22.3602 26.9385 22.5254 26.935C22.7773 26.9314 22.966 27.0428 23.0914 27.2689C23.1652 27.4014 23.2016 27.5982 23.2004 27.8596C23.1969 29.1264 23.201 30.3697 23.2127 31.5896ZM10.4 5.30684C10.3995 5.31959 10.4016 5.33232 10.4062 5.34424C10.4107 5.35617 10.4177 5.36705 10.4265 5.37624C10.4354 5.38543 10.446 5.39274 10.4578 5.39773C10.4695 5.40272 10.4822 5.40528 10.4949 5.40527H14.0211C14.0329 5.40528 14.0447 5.4029 14.0556 5.39826C14.0665 5.39363 14.0763 5.38684 14.0845 5.3783C14.0927 5.36976 14.0991 5.35965 14.1033 5.34858C14.1075 5.33751 14.1095 5.3257 14.109 5.31387L13.9666 1.7543C13.9648 1.70816 13.9454 1.66455 13.9126 1.63272C13.8797 1.60088 13.8361 1.58333 13.7908 1.58379L10.6443 1.59258C10.6207 1.59258 10.598 1.60192 10.5809 1.61863C10.5639 1.63535 10.5538 1.65814 10.5529 1.68223L10.4 5.30684ZM36.1146 5.49935C36.1146 5.49312 36.1134 5.48695 36.111 5.4812C36.1086 5.47544 36.1051 5.47022 36.1007 5.46582C36.0962 5.46142 36.091 5.45793 36.0852 5.45556C36.0795 5.45318 36.0733 5.45197 36.0671 5.45198L33.1808 5.45701C33.1745 5.45702 33.1684 5.45825 33.1626 5.46065C33.1568 5.46304 33.1516 5.46655 33.1472 5.47096C33.1428 5.47538 33.1393 5.48062 33.1369 5.48638C33.1346 5.49215 33.1334 5.49832 33.1334 5.50455L33.1377 7.99713C33.1377 8.00337 33.139 8.00953 33.1414 8.01529C33.1438 8.02104 33.1473 8.02627 33.1517 8.03067C33.1561 8.03507 33.1613 8.03855 33.1671 8.04093C33.1729 8.0433 33.179 8.04452 33.1853 8.04451L36.0716 8.03948C36.0778 8.03947 36.084 8.03823 36.0897 8.03584C36.0955 8.03344 36.1007 8.02994 36.1051 8.02552C36.1095 8.02111 36.113 8.01587 36.1154 8.0101C36.1178 8.00434 36.119 7.99816 36.119 7.99193L36.1146 5.49935ZM13.2635 26.1053C13.6045 26.2389 13.7604 26.5061 13.7311 26.9068C13.7158 27.1154 13.7082 27.225 13.7082 27.2355C13.6895 28.6313 13.7035 30.0264 13.7504 31.4209C13.7506 31.4307 13.7533 31.4404 13.7582 31.4489C13.7631 31.4575 13.77 31.4646 13.7783 31.4698C13.7865 31.4749 13.7959 31.4777 13.8055 31.4781C13.8151 31.4785 13.8245 31.4763 13.833 31.4719L15.3939 30.6334C15.416 30.6213 15.4341 30.602 15.4462 30.5778C15.4584 30.5535 15.464 30.5253 15.4625 30.4963L14.1529 6.2666C14.1507 6.22452 14.1326 6.18493 14.1024 6.15611C14.0723 6.12728 14.0324 6.11145 13.9912 6.11191L10.4475 6.13828C10.4236 6.13827 10.4007 6.14755 10.3834 6.16423C10.3661 6.1809 10.3556 6.2037 10.3543 6.22793L9.18359 27.7189C9.18313 27.7293 9.18539 27.7396 9.19012 27.7489C9.19486 27.7581 9.20193 27.766 9.21062 27.7716C9.21932 27.7773 9.22934 27.7806 9.2397 27.7812C9.25007 27.7819 9.26041 27.7798 9.26973 27.7752L12.6623 26.1316C12.8592 26.0355 13.0596 26.0268 13.2635 26.1053ZM33.4713 26.1949C33.6213 26.3086 33.7133 26.4562 33.7473 26.6379C33.7484 26.6449 33.749 26.8746 33.749 27.327C33.749 28.5082 33.749 29.7223 33.749 30.9691C33.749 31.0711 33.793 31.0951 33.8809 31.0412L37.1961 29.0373C37.2279 29.0181 37.2539 28.991 37.2713 28.9587C37.2887 28.9265 37.2967 28.8905 37.2945 28.8545L36.1941 8.90332C36.1919 8.86057 36.1733 8.82032 36.1422 8.79088C36.1112 8.76144 36.07 8.74506 36.0271 8.74512H33.2322C33.1871 8.74506 33.1437 8.76237 33.1109 8.79346C33.0782 8.82454 33.0587 8.86703 33.0564 8.91211L32.1055 26.3988C32.0996 26.4914 32.1313 26.5066 32.2004 26.4445C32.4371 26.2289 32.7049 26.1059 33.0037 26.0754C33.1854 26.0566 33.3412 26.0965 33.4713 26.1949ZM32.2338 28.132C29.1072 29.9121 26.0316 31.6881 23.007 33.46C22.5148 33.7482 22.1627 33.7166 21.9506 33.365C21.8475 33.1951 21.7977 32.9145 21.8012 32.523C21.8141 31.3195 21.7988 30.1166 21.7555 28.9143C21.755 28.9052 21.7523 28.8964 21.7475 28.8887C21.7428 28.8809 21.7362 28.8745 21.7283 28.87C21.7205 28.8654 21.7116 28.8629 21.7025 28.8627C21.6934 28.8624 21.6845 28.8644 21.6764 28.8686C19.1158 30.249 16.5629 31.643 14.0176 33.0504C13.5816 33.2918 13.2693 33.4283 13.0807 33.46C12.5381 33.5514 12.2662 33.2232 12.265 32.4756C12.2615 31.0541 12.2598 29.5717 12.2598 28.0283C12.26 28.0187 12.2576 28.0093 12.253 28.0009C12.2484 27.9925 12.2416 27.9854 12.2334 27.9803C12.2251 27.9752 12.2156 27.9722 12.2057 27.9717C12.1959 27.9712 12.1861 27.9731 12.1771 27.9773L3.51992 32.0924C3.47897 32.1117 3.44435 32.1425 3.42008 32.181C3.39581 32.2196 3.38288 32.2645 3.38281 32.3104V43.2686C3.38281 43.3082 3.39855 43.3462 3.42657 43.3742C3.4546 43.4022 3.4926 43.418 3.53223 43.418H41.5168C41.5429 43.418 41.5679 43.4076 41.5864 43.3891C41.6049 43.3707 41.6152 43.3456 41.6152 43.3195L41.6258 28.1426C41.6258 28.0547 41.5889 28.0336 41.515 28.0793C38.9193 29.693 36.3125 31.2721 33.6945 32.8166C33.2352 33.0861 32.8648 33.0961 32.5836 32.8465C32.4312 32.7117 32.3539 32.4885 32.3516 32.1768C32.341 30.842 32.3381 29.5154 32.3428 28.1971C32.3428 28.1843 32.3395 28.1717 32.3332 28.1606C32.3269 28.1494 32.3178 28.1401 32.3068 28.1336C32.2958 28.127 32.2833 28.1234 32.2705 28.1231C32.2577 28.1229 32.245 28.1259 32.2338 28.132Z" fill="black"/>
<path d="M12.7461 41.5988C12.7462 41.707 12.7035 41.8108 12.6271 41.8874C12.5508 41.964 12.4471 42.0072 12.339 42.0074L7.35732 42.0161C7.24917 42.0162 7.14537 41.9735 7.06876 41.8971C6.99215 41.8208 6.949 41.7171 6.94881 41.609L6.94141 37.3691C6.94122 37.261 6.984 37.1572 7.06035 37.0806C7.13669 37.0039 7.24034 36.9608 7.3485 36.9606L12.3301 36.9519C12.4383 36.9517 12.5421 36.9945 12.6187 37.0708C12.6953 37.1472 12.7385 37.2508 12.7387 37.359L12.7461 41.5988ZM12.0383 37.7198C12.0384 37.7073 12.0359 37.695 12.0312 37.6834C12.0265 37.6719 12.0195 37.6614 12.0107 37.6526C12.002 37.6437 11.9915 37.6367 11.98 37.6319C11.9685 37.6271 11.9562 37.6246 11.9437 37.6245L7.7496 37.6099C7.73713 37.6098 7.72478 37.6122 7.71325 37.617C7.70171 37.6217 7.69122 37.6287 7.68238 37.6374C7.67353 37.6462 7.6665 37.6567 7.66169 37.6682C7.65688 37.6797 7.65438 37.692 7.65434 37.7045L7.64212 41.206C7.64208 41.2185 7.64449 41.2308 7.64922 41.2424C7.65395 41.2539 7.66091 41.2644 7.66969 41.2732C7.67847 41.2821 7.68891 41.2891 7.70041 41.2939C7.71191 41.2987 7.72425 41.3012 7.73671 41.3013L11.9308 41.3159C11.9433 41.3159 11.9557 41.3135 11.9672 41.3088C11.9787 41.3041 11.9892 41.2971 11.9981 41.2883C12.0069 41.2796 12.0139 41.2691 12.0187 41.2576C12.0235 41.2461 12.026 41.2338 12.0261 41.2213L12.0383 37.7198Z" fill="black"/>
<path d="M25.4023 41.5883C25.4024 41.6432 25.3916 41.6977 25.3707 41.7485C25.3498 41.7993 25.319 41.8454 25.2803 41.8843C25.2415 41.9233 25.1954 41.9542 25.1447 41.9753C25.094 41.9964 25.0396 42.0073 24.9847 42.0074L20.0241 42.0161C19.9131 42.0162 19.8067 41.9724 19.7281 41.894C19.6495 41.8157 19.6052 41.7094 19.605 41.5984L19.5977 37.3797C19.5976 37.3247 19.6083 37.2703 19.6292 37.2195C19.6502 37.1687 19.6809 37.1226 19.7197 37.0836C19.7584 37.0447 19.8045 37.0138 19.8552 36.9927C19.906 36.9716 19.9603 36.9607 20.0153 36.9606L24.9758 36.9519C25.0868 36.9517 25.1933 36.9956 25.2719 37.074C25.3504 37.1523 25.3947 37.2586 25.3949 37.3696L25.4023 41.5883ZM24.6801 37.7065C24.6801 37.6943 24.6777 37.6822 24.673 37.6709C24.6683 37.6596 24.6614 37.6494 24.6527 37.6407C24.644 37.6321 24.6338 37.6252 24.6224 37.6206C24.6111 37.6159 24.599 37.6135 24.5868 37.6135L20.3926 37.6209C20.3804 37.6209 20.3683 37.6233 20.357 37.628C20.3457 37.6327 20.3354 37.6396 20.3268 37.6483C20.3182 37.6569 20.3113 37.6672 20.3067 37.6785C20.302 37.6898 20.2996 37.702 20.2996 37.7142L20.3058 41.2193C20.3058 41.2315 20.3082 41.2436 20.3129 41.2549C20.3176 41.2662 20.3245 41.2764 20.3332 41.2851C20.3418 41.2937 20.3521 41.3006 20.3634 41.3052C20.3747 41.3099 20.3868 41.3123 20.3991 41.3123L24.5932 41.3049C24.6055 41.3049 24.6176 41.3025 24.6289 41.2978C24.6402 41.2931 24.6504 41.2862 24.6591 41.2775C24.6677 41.2689 24.6745 41.2586 24.6792 41.2473C24.6839 41.236 24.6862 41.2238 24.6862 41.2116L24.6801 37.7065Z" fill="black"/>
<path d="M38.0585 41.5883C38.0586 41.6432 38.0479 41.6977 38.027 41.7485C38.006 41.7993 37.9753 41.8454 37.9365 41.8843C37.8977 41.9233 37.8517 41.9542 37.8009 41.9753C37.7502 41.9964 37.6958 42.0073 37.6409 42.0074L32.6804 42.0161C32.5694 42.0162 32.4629 41.9724 32.3843 41.894C32.3057 41.8157 32.2615 41.7094 32.2613 41.5984L32.2539 37.3797C32.2538 37.3247 32.2645 37.2703 32.2855 37.2195C32.3064 37.1687 32.3371 37.1226 32.3759 37.0836C32.4147 37.0447 32.4608 37.0138 32.5115 36.9927C32.5622 36.9716 32.6166 36.9607 32.6715 36.9606L37.6321 36.9519C37.743 36.9517 37.8495 36.9956 37.9281 37.074C38.0067 37.1523 38.051 37.2586 38.0512 37.3696L38.0585 41.5883ZM37.3407 37.7089C37.3408 37.6856 37.3315 37.6632 37.3151 37.6467C37.2986 37.6302 37.2763 37.6209 37.253 37.6209L33.0518 37.6135C33.0285 37.6135 33.0061 37.6227 32.9896 37.6392C32.9731 37.6556 32.9638 37.678 32.9638 37.7013L32.9576 41.2169C32.9576 41.2402 32.9668 41.2626 32.9833 41.2791C32.9997 41.2956 33.0221 41.3049 33.0454 41.3049L37.2465 41.3123C37.2699 41.3123 37.2922 41.3031 37.3087 41.2866C37.3252 41.2702 37.3345 41.2478 37.3346 41.2245L37.3407 37.7089Z" fill="black"/>
</svg>
