<svg width="45" height="45" viewBox="0 0 45 45" fill="none" xmlns="http://www.w3.org/2000/svg">
<path d="M33.8569 2.18638L33.8008 2.18246C33.5452 2.16458 33.3234 2.35735 33.3055 2.61302L33.0985 5.57298C33.0807 5.82865 33.2734 6.0504 33.5291 6.06828L33.5852 6.0722C33.8409 6.09008 34.0626 5.89731 34.0805 5.64164L34.2875 2.68168C34.3054 2.42601 34.1126 2.20426 33.8569 2.18638Z" fill="black"/>
<path d="M29.3447 5.30242C29.4477 5.83227 29.7598 6.21736 30.0419 6.16252C30.324 6.10769 30.4692 5.63371 30.3662 5.10386C30.2632 4.574 29.951 4.18892 29.6689 4.24375C29.3869 4.29858 29.2417 4.77256 29.3447 5.30242Z" fill="black"/>
<path d="M24.6742 6.19331C25.1707 7.00034 25.777 7.52919 26.0283 7.37455C26.2797 7.21991 26.081 6.44033 25.5845 5.6333C25.088 4.82628 24.4818 4.29742 24.2304 4.45206C23.979 4.60671 24.1777 5.38629 24.6742 6.19331Z" fill="black"/>
<path d="M36.7941 6.43361C37.0402 5.28049 38.5871 5.28752 37.673 6.61643C36.7964 7.88674 36.5035 7.8258 36.7941 6.43361Z" fill="black"/>
<path d="M11.1796 16.6711C11.3576 16.7103 11.5432 16.6926 11.7099 16.6207C11.8766 16.5487 12.0158 16.4261 12.1078 16.2703C14.9109 11.5688 18.7312 9.97501 23.5687 11.4891C23.6677 11.52 23.7731 11.5203 23.8701 11.49C23.9671 11.4598 24.051 11.4005 24.1101 11.3203C32.4 0.0211062 47.025 14.7797 36.7382 22.8516C36.0445 23.3953 35.9484 23.9695 36.45 24.5742C36.6143 24.7752 36.7152 24.9892 36.7382 25.1859C37.2304 29.8547 33.982 31.043 29.8968 31.2891C25.1648 31.5774 5.7937 33.293 2.18667 28.9055C0.22261 26.5242 0.993704 24.0891 4.49995 21.6C4.73321 21.4352 4.91001 21.2019 5.0062 20.932C6.25308 17.4586 8.31089 16.0383 11.1796 16.6711ZM36.2531 22.0149C44.4867 14.6461 34.0523 2.99532 25.4812 11.0602C24.8109 11.6883 24.832 12.2953 25.5445 12.8813C26.1164 13.3547 26.6507 14.168 27.1476 15.3211C27.2345 15.5251 27.3694 15.7052 27.5408 15.846C27.7121 15.9867 27.9149 16.0841 28.132 16.1297C30.5179 16.6266 31.9382 17.7 32.3929 19.35C32.632 20.243 32.0273 21.5859 33.3562 21.9516C33.5859 22.0125 33.7921 22.1109 33.975 22.2469C34.7109 22.7953 35.4703 22.718 36.2531 22.0149ZM12.7195 17.6063C12.6957 17.707 12.6489 17.8008 12.5826 17.8803C12.5164 17.9599 12.4326 18.0229 12.3378 18.0645C12.243 18.1061 12.1399 18.1251 12.0365 18.12C11.9331 18.1149 11.8324 18.0859 11.7421 18.0352C8.78199 16.3899 5.73745 18.3164 6.66558 21.6914C6.69658 21.8053 6.68225 21.9267 6.62569 22.0293C6.56913 22.1319 6.47487 22.2075 6.36323 22.2399C1.01949 23.7586 0.998391 29.1305 6.1523 29.707C12.9539 30.4711 20.1843 30.6141 27.8437 30.136C29.7843 30.0164 32.2523 30.1641 34.0593 29.1375C38.0179 26.8734 34.9804 23.5336 32.1187 22.4789C31.9154 22.4063 31.7411 22.2698 31.622 22.0898C31.5028 21.9098 31.4452 21.696 31.4578 21.4805C31.6078 18.3727 30.2039 16.9547 27.246 17.2266C27.1395 17.2369 27.0323 17.214 26.9392 17.1612C26.8461 17.1083 26.7715 17.028 26.7257 16.9313C24.7335 12.5578 21.7382 11.0133 17.7398 12.2977C15.2226 13.1063 13.296 15.075 12.7195 17.6063Z" fill="black"/>
<path d="M41.1844 9.56729C41.9417 8.94747 42.394 8.24769 42.1948 8.00429C41.9956 7.76088 41.2202 8.06602 40.4629 8.68583C39.7057 9.30565 39.2533 10.0054 39.4525 10.2488C39.6518 10.4922 40.4271 10.1871 41.1844 9.56729Z" fill="black"/>
<path d="M21.4531 9.02814C20.9258 7.2422 25.2851 10.6313 21.9101 9.47814C21.7972 9.43904 21.6966 9.37763 21.617 9.29922C21.5373 9.22081 21.4811 9.12777 21.4531 9.02814Z" fill="black"/>
<path d="M41.4063 14.5336C39.768 12.818 45.5196 14.6531 42.018 14.7656C41.8982 14.7677 41.782 14.7482 41.6767 14.7083C41.5714 14.6683 41.4793 14.6089 41.4063 14.5336Z" fill="black"/>
<path d="M43.5903 18.6096L41.3585 17.7529C41.112 17.6583 40.8354 17.7814 40.7408 18.0279L40.7206 18.0804C40.626 18.3269 40.7491 18.6035 40.9956 18.6981L43.2275 19.5549C43.474 19.6495 43.7506 19.5264 43.8452 19.2798L43.8653 19.2273C43.96 18.9808 43.8368 18.7042 43.5903 18.6096Z" fill="black"/>
<path d="M21.8621 22.3385C21.6555 22.9859 21.7639 23.5988 22.1043 23.7074C22.4446 23.816 22.888 23.3793 23.0946 22.7319C23.3013 22.0845 23.1928 21.4716 22.8525 21.363C22.5122 21.2543 22.0688 21.6911 21.8621 22.3385Z" fill="black"/>
<path d="M40.6616 22.7742C39.8788 22.6242 39.4991 22.3101 39.5225 21.832C39.5248 21.7865 39.5379 21.7422 39.5609 21.702C39.584 21.6618 39.6165 21.6266 39.6563 21.5987C39.6961 21.5708 39.7424 21.5509 39.792 21.5402C39.8417 21.5295 39.8936 21.5283 39.9444 21.5367C40.4834 21.6305 40.8608 21.8344 41.0764 22.1484C41.4327 22.6875 41.2944 22.8961 40.6616 22.7742Z" fill="black"/>
<path d="M38.0656 25.196C38.5949 25.9009 39.2102 26.3325 39.44 26.1599C39.6698 25.9874 39.427 25.2761 38.8978 24.5712C38.3685 23.8663 37.7532 23.4347 37.5234 23.6072C37.2936 23.7797 37.5363 24.4911 38.0656 25.196Z" fill="black"/>
<path d="M22.689 28.1205C22.4239 28.742 22.4204 29.336 22.6812 29.4472C22.9419 29.5584 23.3682 29.1447 23.6333 28.5232C23.8984 27.9017 23.9019 27.3077 23.6412 27.1965C23.3804 27.0853 22.9541 27.499 22.689 28.1205Z" fill="black"/>
<path d="M14.8695 28.187C14.6397 28.6581 14.6741 29.1477 14.9463 29.2805C15.2186 29.4133 15.6256 29.139 15.8554 28.6678C16.0852 28.1966 16.0508 27.707 15.7786 27.5742C15.5063 27.4414 15.0993 27.7158 14.8695 28.187Z" fill="black"/>
<path d="M23.1059 34.2191C22.8819 34.9424 22.9169 35.5959 23.184 35.6785C23.4511 35.7612 23.8492 35.2418 24.0731 34.5185C24.297 33.7951 24.262 33.1417 23.9949 33.059C23.7278 32.9763 23.3298 33.4957 23.1059 34.2191Z" fill="black"/>
<path d="M16.0378 36.6047C14.7089 37.807 15.9604 32.3578 17.0081 33.4406C17.7909 34.2563 17.4675 35.3109 16.0378 36.6047Z" fill="black"/>
<path d="M8.69661 34.8919C8.30261 35.6455 8.2036 36.3717 8.47547 36.5138C8.74733 36.6559 9.28713 36.1602 9.68113 35.4065C10.0751 34.6529 10.1741 33.9267 9.90227 33.7846C9.63041 33.6425 9.09061 34.1382 8.69661 34.8919Z" fill="black"/>
<path d="M30.1062 35.1101C29.8971 35.854 29.9579 36.5218 30.242 36.6017C30.5261 36.6815 30.9259 36.1432 31.135 35.3993C31.3442 34.6553 31.2833 33.9875 30.9992 33.9076C30.7151 33.8278 30.3153 34.3661 30.1062 35.1101Z" fill="black"/>
<path d="M26.0505 38.9904C25.8039 39.8124 25.821 40.5439 26.0888 40.6243C26.3566 40.7046 26.7737 40.1034 27.0203 39.2814C27.2669 38.4594 27.2497 37.7279 26.9819 37.6476C26.7141 37.5672 26.2971 38.1684 26.0505 38.9904Z" fill="black"/>
<path d="M10.3676 39.7213C10.1683 40.3384 10.2284 40.9103 10.5018 40.9986C10.7753 41.0869 11.1585 40.6583 11.3578 40.0411C11.5572 39.424 11.4971 38.8522 11.2236 38.7638C10.9502 38.6755 10.5669 39.1042 10.3676 39.7213Z" fill="black"/>
<path d="M19.7996 39.7433L19.7315 39.7257C19.4796 39.6606 19.2226 39.812 19.1574 40.0639L18.6046 42.2014C18.5395 42.4533 18.6909 42.7103 18.9428 42.7754L19.0109 42.793C19.2627 42.8582 19.5198 42.7068 19.5849 42.4549L20.1377 40.3174C20.2028 40.0655 20.0514 39.8085 19.7996 39.7433Z" fill="black"/>
<path d="M32.006 40.9219C29.5873 45.4992 31.2607 37.5961 32.0834 40.268C32.1146 40.3681 32.1238 40.4774 32.1105 40.5897C32.0972 40.7019 32.0617 40.8148 32.006 40.9219Z" fill="black"/>
</svg>
