<svg width="45" height="45" viewBox="0 0 45 45" fill="none" xmlns="http://www.w3.org/2000/svg">
<g clip-path="url(#clip0_731_222)">
<path d="M37.7418 11.9145C36.9508 11.6531 36.2471 11.2441 35.6307 10.6875C35.3389 10.425 35.295 10.2047 35.4989 10.0266C35.6114 9.92813 35.7772 9.88125 35.9963 9.88594C36.6502 9.9 37.2807 10.0354 37.8877 10.292C37.94 10.3136 37.9985 10.3161 38.053 10.299C39.0127 9.99551 39.8535 10.1912 40.5754 10.8861C41.1567 11.4451 41.401 12.1084 41.3084 12.876C41.2182 13.6318 40.8338 14.2289 40.1553 14.6672C39.6912 14.966 39.1868 15.0791 38.6418 15.0064C38.1461 14.9385 37.6985 14.7387 37.2989 14.407C36.5875 13.8152 36.3397 12.9932 36.5553 11.9408C36.5599 11.9188 36.5692 11.8981 36.5826 11.8801C36.5961 11.8621 36.6132 11.8472 36.633 11.8365C36.6527 11.8258 36.6745 11.8196 36.6969 11.8181C36.7194 11.8167 36.7418 11.8202 36.7627 11.8283C37.0827 11.9537 37.4073 11.9959 37.7366 11.9549C37.7975 11.9479 37.7993 11.9344 37.7418 11.9145Z" fill="black"/>
<path d="M26.4241 20.2535H27.1255C27.1693 20.2535 27.2113 20.2356 27.2423 20.2036C27.2733 20.1716 27.2907 20.1282 27.2907 20.083C27.2907 19.292 27.2995 18.5596 27.3171 17.8858C27.3253 17.5471 27.4888 17.3988 27.8075 17.441C27.8314 17.4444 27.8558 17.4541 27.879 17.4695C27.9023 17.4849 27.924 17.5058 27.9429 17.5307L28.2329 17.9192C28.2705 17.9681 28.2909 18.0226 28.2909 18.0738C28.3026 19.8762 28.3062 21.6785 28.3015 23.4809C28.3015 23.7176 28.2716 23.8787 28.2118 23.9643C28.1063 24.1154 27.9224 24.1676 27.6599 24.1207C27.4138 24.0785 27.2907 23.9326 27.2907 23.683V21.5701C27.2908 21.5126 27.2712 21.4575 27.2363 21.4166C27.2014 21.3758 27.154 21.3526 27.1044 21.3522L26.4188 21.3434C26.4079 21.3431 26.397 21.3458 26.3868 21.3514C26.3766 21.3569 26.3673 21.3652 26.3594 21.3756C26.3516 21.3861 26.3453 21.3986 26.341 21.4124C26.3368 21.4262 26.3345 21.4409 26.3345 21.4559L26.3239 35.0526C26.3239 35.1034 26.3037 35.1521 26.2678 35.188C26.2319 35.224 26.1831 35.2442 26.1323 35.2442H25.046C24.9915 35.2442 24.9391 35.2229 24.9006 35.1849C24.862 35.147 24.8403 35.0956 24.8403 35.042L24.8421 31.4631C24.8421 31.4286 24.8288 31.3955 24.805 31.3711C24.7813 31.3467 24.7491 31.333 24.7155 31.333H11.4106C11.3992 31.3331 11.388 31.3308 11.3775 31.3261C11.3671 31.3214 11.3578 31.3145 11.3501 31.3059C11.3425 31.2973 11.3367 31.2871 11.3332 31.276C11.3297 31.2649 11.3285 31.2532 11.3298 31.2416C11.3919 30.6639 11.348 30.1119 11.198 29.5858C11.1917 29.564 11.1906 29.5411 11.1947 29.5188C11.1988 29.4965 11.208 29.4755 11.2217 29.4574C11.2353 29.4394 11.253 29.4247 11.2733 29.4146C11.2936 29.4046 11.3159 29.3994 11.3386 29.3994L24.6892 29.3889C24.7119 29.3889 24.7345 29.3843 24.7555 29.3755C24.7765 29.3666 24.7956 29.3536 24.8116 29.3373C24.8276 29.321 24.8403 29.3016 24.8488 29.2802C24.8574 29.2589 24.8617 29.2361 24.8614 29.2131L24.8421 21.4172C24.8421 21.4037 24.8396 21.3903 24.8348 21.3778C24.83 21.3653 24.823 21.354 24.8141 21.3445C24.8053 21.335 24.7948 21.3275 24.7833 21.3225C24.7718 21.3175 24.7595 21.315 24.7472 21.3152L23.7646 21.3363C23.7407 21.3369 23.718 21.3474 23.701 21.3657C23.684 21.384 23.674 21.4087 23.6731 21.4348C23.5806 23.4 22.7468 24.8649 21.1718 25.8293C19.8804 26.6192 18.4062 26.8611 16.7491 26.5553C14.1429 26.0748 12.1771 24.6961 10.8517 22.4192C10.4603 21.7465 10.196 21.027 10.0589 20.2606C9.83623 19.0113 9.97862 17.8717 10.486 16.8416C10.9407 15.917 11.6157 15.1881 12.511 14.6549C13.3864 14.1334 14.3884 13.8621 15.5169 13.841C15.647 13.8387 15.7712 13.8106 15.8896 13.7567C16.9712 13.2598 18.0985 13.1613 19.2716 13.4613C19.2891 13.4658 19.3052 13.4748 19.3182 13.4875C19.3312 13.5001 19.3407 13.5159 19.3457 13.5333C19.3506 13.5508 19.351 13.5692 19.3466 13.5868C19.3422 13.6044 19.3333 13.6205 19.3208 13.6336C19.1345 13.8317 18.9376 13.9102 18.7302 13.8692C18.6095 13.8457 18.5444 13.834 18.5351 13.834C17.6456 13.7555 16.9056 13.9231 16.3149 14.3367C15.3235 15.0328 14.9099 15.9815 15.0739 17.1826C15.1688 17.8799 15.4595 18.5268 15.9458 19.1233C16.5997 19.9248 17.3931 20.4586 18.3259 20.7246C19.2188 20.9801 20.0362 20.9649 20.778 20.6789C21.6429 20.3461 22.2341 19.674 22.5517 18.6627C22.5601 18.6353 22.576 18.6113 22.5967 18.5947C22.6175 18.5782 22.6418 18.5699 22.6659 18.5713L22.9401 18.5889C22.986 18.5918 23.0367 18.6278 23.0843 18.6913C23.132 18.7549 23.174 18.8424 23.2038 18.9404L23.5782 20.1656C23.5864 20.1912 23.6024 20.2135 23.6239 20.2293C23.6454 20.2451 23.6713 20.2536 23.6978 20.2535L24.7015 20.2483C24.7364 20.2479 24.77 20.2317 24.7955 20.203C24.8209 20.1743 24.8364 20.1351 24.8386 20.0936L24.9001 19.1145C24.9016 19.0862 24.9125 19.0588 24.9313 19.0358C24.9501 19.0129 24.976 18.9956 25.0056 18.9861L26.2062 18.5994C26.2164 18.5961 26.2273 18.5953 26.238 18.5969C26.2487 18.5986 26.2588 18.6028 26.2675 18.6092C26.2762 18.6155 26.2834 18.6238 26.2883 18.6334C26.2932 18.643 26.2958 18.6537 26.2958 18.6645L26.3362 20.1604C26.3367 20.1849 26.3461 20.2083 26.3624 20.2257C26.3788 20.2431 26.4009 20.2531 26.4241 20.2535Z" fill="black"/>
<path d="M23.7247 16.8416L23.4733 18.1406C23.4691 18.1636 23.4559 18.184 23.4365 18.1974C23.4172 18.2109 23.3932 18.2164 23.3696 18.2127C22.5364 18.0838 21.7044 17.9443 20.8735 17.7943C20.4751 17.7217 20.1581 17.5916 19.9226 17.4041C19.3999 16.9857 19.0284 16.4285 18.8081 15.7324C18.6839 15.3398 18.7302 14.9889 18.947 14.6795C19.3501 14.1088 19.8628 13.6934 20.4851 13.4332C20.764 13.3172 21.0892 13.2809 21.4606 13.3242C22.3454 13.4273 23.2231 13.5756 24.0938 13.7689C24.1207 13.7749 24.1445 13.7894 24.1605 13.8096C24.1764 13.8298 24.1834 13.8542 24.18 13.8779L24.0235 15.0135C24.0156 15.0715 24.0198 15.1284 24.0359 15.1782C24.052 15.228 24.0793 15.2688 24.1149 15.2965C24.3001 15.443 24.422 15.5795 24.4806 15.706C24.4924 15.7314 24.5092 15.7534 24.5294 15.7699C24.5497 15.7865 24.5727 15.7971 24.5966 15.801L27.8011 16.3635C27.813 16.3656 27.8244 16.3701 27.8346 16.3767C27.8447 16.3833 27.8534 16.3918 27.86 16.4017C27.8666 16.4117 27.871 16.4227 27.873 16.4343C27.8749 16.4459 27.8744 16.4577 27.8714 16.4689L27.7571 16.9242C27.7507 16.9473 27.7354 16.9671 27.7143 16.9797C27.6932 16.9924 27.6678 16.997 27.6429 16.9928L24.4771 16.4514C24.4519 16.4471 24.4257 16.4499 24.401 16.4594C24.3764 16.469 24.3541 16.485 24.3364 16.5059C24.2099 16.657 24.0405 16.7396 23.8284 16.7537C23.8034 16.7548 23.7794 16.764 23.7606 16.78C23.7418 16.796 23.7291 16.8177 23.7247 16.8416Z" fill="black"/>
<path d="M19.613 17.8136C19.6346 17.7992 19.6604 17.7926 19.6863 17.7948C19.7122 17.797 19.7365 17.808 19.7553 17.8259C19.9194 17.9806 20.0835 18.0756 20.2475 18.1107C20.83 18.2338 21.4159 18.3381 22.0053 18.4236C22.0203 18.4258 22.0346 18.4312 22.0473 18.4393C22.06 18.4474 22.0709 18.4581 22.0792 18.4707C22.0875 18.4833 22.093 18.4976 22.0954 18.5125C22.0979 18.5274 22.0971 18.5426 22.0932 18.5572C21.9292 19.1549 21.6239 19.6013 21.1774 19.8967C20.486 20.3525 19.7272 20.4943 18.901 20.322C17.7174 20.0759 16.8116 19.4982 16.1835 18.5888C15.7428 17.949 15.5196 17.2968 15.5137 16.6324C15.5079 15.798 15.8817 15.1406 16.6352 14.6601C16.9188 14.4785 17.2171 14.3595 17.53 14.3033C17.8253 14.2506 18.151 14.2312 18.5073 14.2453C18.5213 14.2459 18.5349 14.25 18.5469 14.2572C18.5589 14.2644 18.5689 14.2744 18.5761 14.2865C18.5832 14.2985 18.5873 14.3121 18.5878 14.3261C18.5884 14.3401 18.5855 14.354 18.5794 14.3666C18.2231 15.1248 18.2096 15.7734 18.5389 16.3125C18.6819 16.5468 18.6368 16.592 18.4036 16.4478C17.9536 16.1701 17.6296 16.2961 17.4315 16.8258C17.2909 17.2008 17.3841 17.431 17.711 17.5166C17.7383 17.5232 17.7638 17.5351 17.7861 17.5514C17.8085 17.5677 17.8271 17.5881 17.8411 17.6115C18.2348 18.2713 18.8255 18.3386 19.613 17.8136ZM17.3735 18.2179C17.3676 18.2475 17.3685 18.278 17.3762 18.3072C17.3838 18.3364 17.398 18.3634 17.4176 18.3863C17.4373 18.4091 17.4619 18.4272 17.4896 18.4392C17.5173 18.4511 17.5473 18.4566 17.5774 18.4552C17.8856 18.4388 17.9243 18.3123 17.6934 18.0756C17.5341 17.9127 17.4274 17.9601 17.3735 18.2179ZM17.6108 19.4783C18.0175 19.5217 18.1399 19.3799 17.9782 19.0529C17.7907 18.6732 17.5985 18.665 17.4016 19.0283C17.2551 19.299 17.3249 19.449 17.6108 19.4783ZM18.5618 18.9615C18.5794 18.9416 18.5846 18.9187 18.5776 18.8929C18.5749 18.8823 18.5694 18.8726 18.5615 18.8643C18.5535 18.856 18.5432 18.8494 18.5312 18.8448C18.5192 18.8401 18.5057 18.8377 18.4917 18.8375C18.4776 18.8373 18.4632 18.8394 18.4493 18.8437C18.2583 18.9058 18.2589 18.9533 18.451 18.9861C18.4739 18.9904 18.4961 18.9903 18.5156 18.986C18.535 18.9817 18.551 18.9732 18.5618 18.9615ZM20.3565 18.8912C19.9757 18.9181 19.9317 19.0218 20.2247 19.2023C20.2754 19.2338 20.3348 19.2445 20.3899 19.2322C20.5891 19.1877 20.6278 19.0933 20.5059 18.9492C20.4884 18.929 20.4658 18.9132 20.4398 18.9032C20.4139 18.8931 20.3853 18.889 20.3565 18.8912ZM19.3721 19.19C19.1319 19.0857 19.0428 19.1525 19.105 19.3904C19.1136 19.4241 19.1284 19.4563 19.1483 19.4843C19.1682 19.5123 19.1925 19.5353 19.2192 19.5514C19.246 19.5675 19.2744 19.5763 19.3022 19.577C19.33 19.5778 19.3564 19.5704 19.3792 19.5556C19.603 19.4103 19.6007 19.2884 19.3721 19.19Z" fill="black"/>
<path d="M45.0101 33.4055L44.9996 33.6287C44.8883 34.1432 44.6357 34.4877 44.242 34.6623C43.6678 34.9155 43.1873 34.8692 42.8006 34.5235C42.6225 34.3653 42.3998 33.9996 42.1326 33.4266C41.392 31.841 40.6631 30.2496 39.9459 28.6524C39.8228 28.3782 39.7625 28.1162 39.7648 27.8666C39.7672 27.6932 39.8387 27.4418 39.9793 27.1125C40.3121 26.3297 40.5535 25.7918 40.7035 25.4989C40.7246 25.459 40.7258 25.4326 40.707 25.4198C40.6972 25.4135 40.6838 25.4129 40.6692 25.4181C40.6546 25.4232 40.6399 25.4338 40.6279 25.4479L38.1687 28.2024C38.1314 28.2443 38.1102 28.2986 38.109 28.3553C38.0562 29.9479 38.0006 31.5405 37.942 33.133C37.9267 33.5467 37.8558 33.8567 37.7293 34.0629C37.5348 34.3782 37.2564 34.5733 36.8943 34.6483C36.4713 34.7362 36.0933 34.6576 35.7605 34.4127C35.4019 34.1479 35.2297 33.7512 35.2437 33.2227C35.2953 31.3184 35.3539 29.4217 35.4195 27.5326C35.4277 27.2783 35.5185 27.0557 35.692 26.8647L38.8209 23.4123C38.8458 23.3843 38.8633 23.3504 38.8718 23.3139C38.8804 23.2774 38.8798 23.2394 38.8701 23.2032L37.4533 17.8893C37.4487 17.8716 37.4404 17.8551 37.4288 17.841C37.4173 17.8268 37.4028 17.8152 37.3863 17.8071C37.3699 17.7989 37.3518 17.7944 37.3333 17.7937C37.3149 17.793 37.2964 17.7962 37.2793 17.8032C36.575 18.0879 35.8935 18.3627 35.2349 18.6276C34.8658 18.7764 34.4902 18.8086 34.1082 18.7242C33.8691 18.6727 33.7467 18.6463 33.7408 18.6451C32.1682 18.3791 30.5973 18.1049 29.0281 17.8225C28.6976 17.7627 28.465 17.6731 28.3303 17.5535C28.0994 17.3473 28.0308 17.0772 28.1246 16.7432C28.2851 16.1737 28.6953 15.9686 29.3551 16.128C29.8531 16.2487 31.4633 16.5229 34.1855 16.9506C34.4223 16.9881 34.6519 16.9647 34.8746 16.8803C35.5262 16.6319 36.176 16.3787 36.824 16.1209C37.4896 15.8573 38.1517 15.6492 38.8103 15.4969C39.9201 15.2403 41.0252 14.9877 42.1256 14.7393C42.3412 14.6901 42.5492 14.7123 42.7496 14.8061C43.2933 15.058 43.8224 15.3323 44.3369 15.6287C44.5291 15.7389 44.6598 15.8578 44.7289 15.9856C44.825 16.1625 44.8549 16.3477 44.8185 16.541C44.7846 16.7157 44.6609 16.9149 44.4476 17.1387C44.2906 17.3039 44.1213 17.4733 43.9396 17.6467C43.8236 17.7569 43.7469 17.734 43.7094 17.5782C43.6461 17.311 43.5576 17.2061 43.4439 17.2635C43.4231 17.2735 43.407 17.2926 43.3983 17.3177C43.3897 17.3427 43.389 17.3721 43.3965 17.4006L44.7201 22.4121C44.7787 22.6324 44.7652 22.8422 44.6797 23.0414L42.6353 27.7875C42.6155 27.8345 42.6057 27.8847 42.6066 27.9347C42.6075 27.9847 42.6191 28.0335 42.6406 28.0776C43.5031 29.819 44.293 31.5949 45.0101 33.4055Z" fill="black"/>
<path d="M0 26.6203V17.7258C2.86641 17.6508 5.72988 17.6344 8.59043 17.6766C8.62181 17.677 8.65176 17.6893 8.67379 17.7107C8.69583 17.732 8.70819 17.7608 8.7082 17.7908L8.71523 20.1481C8.71523 20.1781 8.72683 20.2069 8.74755 20.2283C8.76827 20.2496 8.79644 20.2619 8.82598 20.2623L9.69961 20.2658C9.72525 20.2659 9.75012 20.2747 9.77021 20.2906C9.79029 20.3065 9.80443 20.3288 9.81035 20.3537L9.99492 21.1184C10.0006 21.1424 10.0005 21.1674 9.99453 21.1915C9.98854 21.2157 9.97687 21.2384 9.96035 21.2579C9.94383 21.2775 9.92289 21.2934 9.89906 21.3045C9.87523 21.3157 9.84913 21.3217 9.82266 21.3223L8.82246 21.3364C8.7985 21.3368 8.77569 21.3474 8.75892 21.3658C8.74215 21.3842 8.73278 21.409 8.73281 21.4348V26.3356C8.73268 26.3495 8.72915 26.3633 8.72255 26.3755C8.71594 26.3878 8.70646 26.3982 8.69497 26.4059C8.68347 26.4136 8.67031 26.4182 8.65666 26.4195C8.64302 26.4207 8.62932 26.4184 8.6168 26.4129C7.58437 25.9465 6.51562 25.8516 5.41055 26.1282C4.17773 26.4375 3.16934 27.1875 2.38535 28.3782C2.37608 28.3923 2.36395 28.4044 2.34974 28.4136C2.33552 28.4228 2.31954 28.4289 2.30282 28.4316C2.28609 28.4342 2.269 28.4333 2.25264 28.429C2.23627 28.4246 2.22101 28.4169 2.20781 28.4063L0 26.6203ZM7.95234 18.8069C7.95234 18.7602 7.93382 18.7155 7.90086 18.6826C7.86789 18.6496 7.82318 18.6311 7.77656 18.6311H0.921094C0.874474 18.6311 0.829763 18.6496 0.796798 18.6826C0.763832 18.7155 0.745312 18.7602 0.745312 18.8069V18.9405C0.745312 18.9871 0.763832 19.0318 0.796798 19.0648C0.829763 19.0977 0.874474 19.1162 0.921094 19.1162H7.77656C7.82318 19.1162 7.86789 19.0977 7.90086 19.0648C7.93382 19.0318 7.95234 18.9871 7.95234 18.9405V18.8069ZM7.95937 19.9899C7.95937 19.9447 7.94141 19.9013 7.90943 19.8693C7.87746 19.8373 7.83409 19.8194 7.78887 19.8194H0.922852C0.87763 19.8194 0.834261 19.8373 0.802284 19.8693C0.770308 19.9013 0.752344 19.9447 0.752344 19.9899V20.0883C0.752344 20.1335 0.770308 20.1769 0.802284 20.2089C0.834261 20.2409 0.87763 20.2588 0.922852 20.2588H7.78887C7.83409 20.2588 7.87746 20.2409 7.90943 20.2089C7.94141 20.1769 7.95937 20.1335 7.95937 20.0883V19.9899Z" fill="black"/>
<path d="M36.5079 19.5609C36.12 19.5234 35.9407 19.4566 35.97 19.3605C35.9852 19.3108 35.988 19.2581 35.9782 19.2072C35.9684 19.1564 35.9462 19.1088 35.9138 19.0688C35.7309 18.8473 35.7591 18.702 35.9981 18.6328C36.338 18.5355 36.6778 18.4107 37.0177 18.2584C37.0321 18.2519 37.0478 18.2487 37.0637 18.2491C37.0796 18.2495 37.0953 18.2534 37.1096 18.2606C37.124 18.2678 37.1368 18.2781 37.147 18.2908C37.1572 18.3034 37.1647 18.3182 37.1688 18.334L37.4413 19.3711C37.4964 19.582 37.4278 19.6406 37.2356 19.5469C37.02 19.4402 36.8413 19.4303 36.6995 19.517C36.6424 19.5513 36.5753 19.5667 36.5079 19.5609Z" fill="black"/>
<path d="M17.1264 26.9578C17.3127 26.9871 17.3133 27.0199 17.1281 27.0563C16.486 27.1793 15.8707 27.1729 15.2824 27.0369C13.9582 26.7322 12.8133 26.1047 11.8477 25.1543C11.0449 24.3645 10.5299 23.4299 10.3026 22.3506C10.2393 22.0518 10.2791 22.0371 10.4221 22.3067C11.8119 24.9258 14.0467 26.4762 17.1264 26.9578Z" fill="black"/>
<path d="M11.0867 30.7582C11.0867 31.9601 10.6093 33.1127 9.75943 33.9626C8.90958 34.8124 7.75694 35.2898 6.55508 35.2898C5.35321 35.2898 4.20057 34.8124 3.35072 33.9626C2.50088 33.1127 2.02344 31.9601 2.02344 30.7582C2.02344 29.5563 2.50088 28.4037 3.35072 27.5539C4.20057 26.704 5.35321 26.2266 6.55508 26.2266C7.75694 26.2266 8.90958 26.704 9.75943 27.5539C10.6093 28.4037 11.0867 29.5563 11.0867 30.7582ZM9.99336 30.76C9.99336 29.8476 9.63093 28.9726 8.98579 28.3275C8.34066 27.6824 7.46567 27.3199 6.55332 27.3199C5.64096 27.3199 4.76598 27.6824 4.12085 28.3275C3.47571 28.9726 3.11328 29.8476 3.11328 30.76C3.11328 31.6723 3.47571 32.5473 4.12085 33.1924C4.76598 33.8376 5.64096 34.2 6.55332 34.2C7.46567 34.2 8.34066 33.8376 8.98579 33.1924C9.63093 32.5473 9.99336 31.6723 9.99336 30.76Z" fill="black"/>
<path d="M6.55605 32.0485C7.26766 32.0485 7.84453 31.4716 7.84453 30.76C7.84453 30.0484 7.26766 29.4715 6.55605 29.4715C5.84445 29.4715 5.26758 30.0484 5.26758 30.76C5.26758 31.4716 5.84445 32.0485 6.55605 32.0485Z" fill="black"/>
</g>
<defs>
<clipPath id="clip0_731_222">
<rect width="45" height="45" fill="white"/>
</clipPath>
</defs>
</svg>
