<svg width="45" height="45" viewBox="0 0 45 45" fill="none" xmlns="http://www.w3.org/2000/svg">
<g clip-path="url(#clip0_731_210)">
<path d="M33.2332 0H33.5408C34.1789 0.277734 34.1016 0.678516 34.1016 1.26914C34.1016 3.86602 34.1016 6.50566 34.1016 9.18809C34.1015 9.24396 34.1142 9.3002 34.1387 9.35318C34.1632 9.40616 34.1991 9.45471 34.2439 9.4957L36.0492 11.134C36.157 11.2313 36.2109 11.2084 36.2109 11.0654C36.2109 8.90332 36.2156 6.76758 36.225 4.6582C36.2285 3.61055 37.6014 3.57188 37.6066 4.73906C37.6195 7.23398 37.623 9.76641 37.6172 12.3363C37.6172 12.3967 37.6307 12.4571 37.6567 12.5138C37.6828 12.5704 37.7208 12.6219 37.7684 12.665L39.593 14.3244C39.682 14.4064 39.7266 14.3877 39.7266 14.2682C39.7266 11.8459 39.7266 9.43359 39.7266 7.03125C39.7266 6.12422 41.1434 6.03457 41.1328 7.20703C41.1199 8.49727 41.1234 11.291 41.1434 15.5883C41.1433 15.6165 41.1491 15.6442 41.1603 15.6696C41.1715 15.6951 41.1879 15.7177 41.2084 15.7359C42.0264 16.4754 42.8443 17.216 43.6623 17.9578C44.1158 18.3691 44.5658 18.7277 44.1545 19.2814C43.5182 20.1393 42.1348 18.4693 41.6127 17.9982C41.5271 17.9209 41.4844 17.9396 41.4844 18.0545V20.0865C41.4844 20.3033 41.4223 20.3209 41.298 20.1393L40.2311 18.5766C40.1315 18.43 40.0782 18.2639 40.0781 18.1002V16.7291C40.0782 16.6943 40.0707 16.6597 40.0561 16.6276C40.0416 16.5955 40.0203 16.5666 39.9938 16.5428C39.0867 15.7354 38.2031 14.9414 37.343 14.1609C37.0523 13.8984 36.8291 13.6494 36.6732 13.4139C35.5113 11.6648 34.3441 9.58359 32.7937 8.16152C32.7627 8.13274 32.7379 8.09789 32.721 8.05917C32.704 8.02045 32.6953 7.9787 32.6953 7.93652C32.6953 5.5752 32.6953 3.22266 32.6953 0.878906C32.6953 0.446484 32.8746 0.153516 33.2332 0Z" fill="black"/>
<path d="M4.13834 17.9947C3.80904 18.2596 3.29049 18.7178 2.58267 19.3693C1.90592 19.9916 0.868807 19.0195 1.76881 18.2039C8.18248 12.4008 14.5985 6.60001 21.0169 0.801575C22.218 -0.28241 23.4286 -0.270105 24.6485 0.838489C26.9629 2.942 29.285 5.03614 31.6147 7.12091C31.6251 7.13015 31.6342 7.14105 31.6412 7.15273C31.6482 7.16442 31.6529 7.17656 31.655 7.18819C31.657 7.19981 31.6564 7.2106 31.653 7.21967C31.6497 7.22875 31.6438 7.23586 31.6358 7.24044C31.6094 7.2545 31.518 7.15079 31.4811 7.12443C30.3643 6.3381 29.1497 5.76329 27.8372 5.40001C27.5911 5.33204 27.3801 5.21837 27.2044 5.059C25.054 3.109 23.7315 1.93888 23.237 1.54864C22.9364 1.3131 22.409 1.48361 22.112 1.74904C16.6417 6.65333 11.1684 11.591 5.69225 16.5621C5.67122 16.5809 5.65441 16.604 5.6429 16.6297C5.63139 16.6554 5.62544 16.6833 5.62545 16.7115V34.4883C5.62552 34.5523 5.60878 34.6164 5.57665 34.6752C5.54452 34.7339 5.49794 34.7856 5.44088 34.8258L4.36685 35.5834C4.26842 35.6525 4.2192 35.6285 4.2192 35.5113L4.20865 18.0281C4.20865 17.9695 4.18521 17.9584 4.13834 17.9947Z" fill="black"/>
<path d="M3.81274 45H3.46117C2.18852 44.8119 1.77543 43.8275 1.13207 42.8906C-0.340974 40.7426 0.46762 40.0096 2.29047 38.7369C10.5463 32.969 18.7969 27.1928 27.0422 21.4084C27.0618 21.3945 27.0754 21.3738 27.0803 21.3503C27.0852 21.3268 27.081 21.3024 27.0686 21.2818C26.8002 20.8365 26.4381 20.3016 25.9823 19.677C25.7315 19.3324 25.7344 18.9785 25.9911 18.6152C26.7633 17.5231 27.5479 16.4004 28.3448 15.2473C28.367 15.2147 28.381 15.1772 28.3856 15.138C28.3902 15.0988 28.3852 15.0591 28.3711 15.0223C27.0809 11.6666 23.8588 9.45177 20.6579 8.13341C20.2588 7.96993 19.9442 7.7256 20.0672 7.27384C20.1399 7.00431 20.3122 6.83673 20.584 6.7711C24.9733 5.72169 29.7141 6.51974 32.7041 10.1109C32.7885 10.2117 33.46 11.1721 34.7186 12.992C36.6065 15.7213 38.4897 18.4734 40.3682 21.2484C40.51 21.4582 40.52 21.6621 40.3981 21.8602L38.853 24.3615C38.8204 24.4144 38.8078 24.4719 38.8178 24.5215C38.8659 24.7688 38.9971 24.9592 39.2116 25.0928C39.2339 25.1069 39.2598 25.1154 39.2873 25.1175C39.3148 25.1197 39.343 25.1154 39.3698 25.1051C40.1256 24.8215 40.8856 24.5502 41.6497 24.2912C42.0821 24.1436 42.4102 24.232 42.634 24.5567C43.125 25.2668 43.6125 25.9793 44.0965 26.6942C44.9567 27.9645 44.7715 29.0367 43.5411 29.9109C41.8758 31.0969 40.2047 32.2734 38.5278 33.4406C36.835 34.6184 35.9157 34.6412 34.7098 32.9625C34.2457 32.3192 33.8256 31.6869 33.4495 31.0658C33.2983 30.8162 33.3065 30.5684 33.4741 30.3223L34.8891 28.2428C34.9044 28.2199 34.9141 28.1938 34.9174 28.1667C34.9208 28.1395 34.9177 28.112 34.9084 28.0863C34.7924 27.7723 34.6049 27.5104 34.3459 27.3006C34.3252 27.2832 34.3003 27.2711 34.2734 27.2653C34.2465 27.2595 34.2183 27.2601 34.1913 27.2672L31.9694 27.835C31.7104 27.9018 31.52 27.8525 31.3981 27.6873L30.7846 26.8576C30.7681 26.8352 30.7446 26.8194 30.719 26.8135C30.6935 26.8076 30.6678 26.8121 30.6475 26.826C22.0846 32.7182 13.5422 38.6039 5.02035 44.4832C4.62309 44.7586 4.22055 44.9309 3.81274 45ZM29.3643 23.7867C29.8084 23.4645 30.1834 23.5207 30.4893 23.9555C30.9873 24.6645 31.4854 25.3981 31.9834 26.1563C32.0259 26.2207 32.0882 26.27 32.1614 26.2971C32.2346 26.3242 32.315 26.3279 32.3913 26.3074L34.4901 25.7432C34.7877 25.6623 35.0303 25.7496 35.2178 26.0051C35.6186 26.5535 35.9719 27.1283 36.3692 27.6645C36.5907 27.9645 36.593 28.2756 36.3762 28.5979C35.9039 29.2951 35.4387 29.966 34.9805 30.6106C34.9501 30.6533 34.9338 30.7044 34.9338 30.757C34.9338 30.8096 34.9501 30.861 34.9805 30.9041C35.393 31.4818 35.7991 32.0414 36.1987 32.5828C36.4448 32.9156 36.7418 32.9678 37.0899 32.7393C37.752 32.3033 39.6909 30.9469 42.9065 28.6699C43.3073 28.3852 43.2967 28.0354 43.0295 27.6381C42.6276 27.0404 42.2268 26.4363 41.8272 25.8258C41.8085 25.7976 41.7807 25.7766 41.7482 25.7661C41.7158 25.7556 41.6804 25.7562 41.6479 25.7678L39.0727 26.6731C38.7856 26.7738 38.5606 26.7053 38.3977 26.4674L37.2762 24.8151C37.145 24.624 37.1467 24.4248 37.2815 24.2174L38.8372 21.8057C38.8688 21.7572 38.8856 21.7007 38.8853 21.6434C38.885 21.5861 38.8676 21.5306 38.8354 21.484C36.753 18.4477 34.6905 15.4342 32.6479 12.4436C31.5247 10.8 30.5596 9.62403 28.9495 8.84357C27.1764 7.98575 25.3172 7.62599 23.3719 7.76427C23.2067 7.77599 23.1973 7.82052 23.3438 7.89786C26.0737 9.34454 28.5539 11.5524 29.6315 14.465C29.8178 14.9695 29.9725 15.3598 29.6965 15.7658C28.9442 16.8721 28.1854 17.9748 27.4202 19.074C27.4006 19.103 27.3901 19.1371 27.3901 19.1719C27.3901 19.2067 27.4006 19.2406 27.4202 19.2692C27.8338 19.8692 28.2299 20.4481 28.6084 21.0059C29.0163 21.6053 28.7965 21.9234 28.2551 22.3014C21.102 27.3029 13.9483 32.3039 6.79399 37.3043C6.78428 37.311 6.776 37.3195 6.76959 37.3294C6.76319 37.3393 6.75881 37.3504 6.75668 37.362C6.75456 37.3736 6.75475 37.3855 6.75723 37.397C6.75971 37.4085 6.76443 37.4194 6.77113 37.4291L8.64496 40.1906C8.65548 40.2065 8.67227 40.2172 8.6917 40.2205C8.71112 40.2238 8.7316 40.2194 8.74867 40.2082L29.8073 25.7168C29.8435 25.6922 29.8676 25.6524 29.8744 25.6056C29.8813 25.5588 29.8705 25.5086 29.8442 25.4654L29.1973 24.3949C29.0614 24.1688 29.117 23.966 29.3643 23.7867ZM1.90727 40.769C1.7268 41.0643 1.72621 41.3385 1.90551 41.5916C2.30278 42.1506 2.70824 42.7031 3.12192 43.2492C3.39848 43.6137 3.75297 43.6441 4.18539 43.3406C5.22953 42.6094 6.30297 41.8729 7.40571 41.1311C7.4197 41.1216 7.43174 41.1095 7.44112 41.0956C7.45049 41.0817 7.45701 41.0661 7.46028 41.0499C7.46356 41.0337 7.46353 41.0171 7.46019 41.0012C7.45686 40.9852 7.45029 40.9702 7.44086 40.957L5.56703 38.2869C5.5518 38.2653 5.52867 38.2507 5.50266 38.246C5.47666 38.2414 5.44988 38.2473 5.42817 38.2623L2.04789 40.6178C1.99047 40.6576 1.9436 40.708 1.90727 40.769Z" fill="black"/>
<path d="M25.8716 13.4525C26.0661 13.6389 26.2167 13.8551 26.3234 14.1012C26.346 14.1543 26.3485 14.2131 26.3304 14.2664C26.2109 14.5992 25.9888 14.7656 25.6642 14.7656C23.8478 14.7656 21.9622 14.7656 20.0076 14.7656C19.8766 14.7656 19.7503 14.7153 19.6542 14.625C18.9458 13.9535 19.5013 13.3752 20.2747 13.3646C22.09 13.3424 23.9052 13.3512 25.7204 13.391C25.778 13.3921 25.8321 13.4141 25.8716 13.4525Z" fill="black"/>
<path d="M31.9756 15.5863L31.9492 15.6039C31.6343 15.814 31.5492 16.2396 31.7593 16.5546L33.8757 19.728C34.0858 20.043 34.5114 20.1281 34.8264 19.918L34.8527 19.9005C35.1677 19.6904 35.2528 19.2647 35.0427 18.9497L32.9263 15.7763C32.7162 15.4613 32.2906 15.3763 31.9756 15.5863Z" fill="black"/>
<path d="M18.2754 23.8856C18.2747 24.0796 18.197 24.2653 18.0594 24.402C17.9218 24.5386 17.7355 24.615 17.5416 24.6143L12.676 24.5973C12.5799 24.597 12.4849 24.5778 12.3963 24.5407C12.3077 24.5036 12.2273 24.4495 12.1596 24.3814C12.092 24.3132 12.0384 24.2324 12.002 24.1436C11.9655 24.0547 11.9469 23.9596 11.9473 23.8635L11.9593 20.4077C11.96 20.2138 12.0377 20.028 12.1753 19.8914C12.3129 19.7547 12.4992 19.6783 12.6931 19.679L17.5587 19.696C17.6547 19.6963 17.7498 19.7156 17.8384 19.7526C17.927 19.7897 18.0074 19.8438 18.075 19.912C18.1427 19.9801 18.1963 20.0609 18.2327 20.1498C18.2692 20.2386 18.2878 20.3338 18.2874 20.4298L18.2754 23.8856ZM16.8735 21.1962C16.8735 21.1823 16.8707 21.1686 16.8654 21.1558C16.8601 21.143 16.8523 21.1314 16.8425 21.1216C16.8327 21.1118 16.821 21.1041 16.8082 21.0988C16.7954 21.0935 16.7817 21.0908 16.7678 21.0909L13.4632 21.0966C13.4493 21.0967 13.4356 21.0994 13.4228 21.1047C13.41 21.1101 13.3984 21.1178 13.3886 21.1277C13.3789 21.1375 13.3711 21.1491 13.3658 21.1619C13.3606 21.1747 13.3579 21.1884 13.3579 21.2023L13.3612 23.1007C13.3612 23.1146 13.364 23.1283 13.3693 23.1411C13.3746 23.1538 13.3824 23.1655 13.3922 23.1752C13.402 23.185 13.4137 23.1928 13.4265 23.198C13.4393 23.2033 13.453 23.206 13.4668 23.206L16.7715 23.2002C16.7854 23.2002 16.7991 23.1975 16.8119 23.1921C16.8247 23.1868 16.8363 23.179 16.8461 23.1692C16.8558 23.1594 16.8636 23.1478 16.8689 23.135C16.8741 23.1221 16.8768 23.1084 16.8768 23.0946L16.8735 21.1962Z" fill="black"/>
<path d="M17.8015 26.0472C17.9585 26.0496 17.9714 26.0941 17.8402 26.1808L16.0578 27.3621C16.0097 27.3942 15.954 27.4113 15.8978 27.4113L11.0199 27.4219C10.9877 27.4219 10.9568 27.4346 10.9341 27.4574C10.9114 27.4801 10.8986 27.511 10.8986 27.5431V30.8865C10.8986 30.9294 10.8879 30.9719 10.8674 31.0104C10.8469 31.049 10.8172 31.0824 10.7808 31.108L9.66284 31.8885C9.54916 31.9681 9.49233 31.9394 9.49233 31.8023C9.49233 30.1763 9.55737 28.5363 9.47123 26.9613C9.43725 26.3355 9.7519 26.0203 10.4152 26.0156C12.8949 25.9992 15.357 26.0097 17.8015 26.0472Z" fill="black"/>
<path d="M20.8855 36.5519L39.9543 36.5308C39.9787 36.5308 40.0021 36.5215 40.0196 36.5047C40.037 36.4879 40.047 36.4651 40.0475 36.4412L40.0879 34.2439C40.0884 34.2156 40.0945 34.1879 40.1057 34.1625C40.1169 34.1371 40.1329 34.1146 40.1529 34.0963C40.4142 33.8537 40.6978 33.6404 41.0037 33.4564C41.4748 33.1717 41.4836 32.9115 41.4836 33.7078C41.4836 36.1324 41.4836 38.557 41.4836 40.9816C41.4836 41.8271 41.408 42.1875 40.4482 42.1875C30.6842 42.1875 20.8791 42.1875 11.033 42.1875C10.8912 42.1875 10.8783 42.1482 10.9943 42.0697L12.8119 40.8392C12.8554 40.8095 12.9111 40.7929 12.9719 40.7918L19.2139 40.7496C19.2378 40.7496 19.2608 40.7404 19.2779 40.724C19.295 40.7075 19.3048 40.6852 19.3053 40.6617L19.3316 36.5009C19.3322 36.4427 19.3468 36.3854 19.3743 36.3337C19.4019 36.282 19.4415 36.2375 19.4898 36.2039L20.5217 35.4832C20.6705 35.3789 20.7478 35.4216 20.7537 35.6115L20.7783 36.464C20.7788 36.4876 20.7903 36.5099 20.8103 36.5264C20.8304 36.5428 20.8574 36.552 20.8855 36.5519ZM40.0773 38.0689C40.0773 38.0423 40.0668 38.0169 40.048 37.9981C40.0292 37.9793 40.0037 37.9687 39.9771 37.9687H20.8416C20.815 37.9687 20.7895 37.9793 20.7707 37.9981C20.752 38.0169 20.7414 38.0423 20.7414 38.0689V40.681C20.7414 40.7076 20.752 40.7331 20.7707 40.7519C20.7895 40.7707 20.815 40.7812 20.8416 40.7812H39.9771C40.0037 40.7812 40.0292 40.7707 40.048 40.7519C40.0668 40.7331 40.0773 40.7076 40.0773 40.681V38.0689Z" fill="black"/>
<path d="M4.56953 41.8254C4.95203 41.8254 5.26211 41.5153 5.26211 41.1328C5.26211 40.7503 4.95203 40.4402 4.56953 40.4402C4.18703 40.4402 3.87695 40.7503 3.87695 41.1328C3.87695 41.5153 4.18703 41.8254 4.56953 41.8254Z" fill="black"/>
</g>
<defs>
<clipPath id="clip0_731_210">
<rect width="45" height="45" fill="white"/>
</clipPath>
</defs>
</svg>
