<svg width="45" height="45" viewBox="0 0 45 45" fill="none" xmlns="http://www.w3.org/2000/svg">
<path d="M28.5311 0C28.6483 0 28.7655 0 28.8827 0C33.7401 2.35898 38.5999 4.71328 43.462 7.06289C43.7761 7.21406 43.9331 7.46719 43.9331 7.82227C43.9413 19.6746 43.9454 31.527 43.9454 43.3793C43.9454 43.9582 43.9454 44.2482 43.9454 44.2494C43.8927 44.6514 43.6794 44.8869 43.3056 44.9561C43.2985 44.9572 42.9335 44.9566 42.2104 44.9543C37.7456 44.9355 33.2813 44.9508 28.8177 45C19.7356 45 10.6536 45 1.57157 45C1.18954 44.8195 1.01083 44.5219 1.03544 44.107C1.04833 43.8973 1.05477 43.7895 1.05477 43.7836C1.05477 35.0191 1.05477 26.2547 1.05477 17.4902C1.05477 17.1187 1.26805 16.8826 1.69462 16.7818C5.11532 15.9814 8.49618 15.1869 11.8372 14.3982C12.0259 14.3537 12.2099 14.3561 12.3891 14.4053L17.2671 15.7553C17.3356 15.7746 17.4024 15.7236 17.4024 15.6533C17.4024 11.4287 17.4065 7.26562 17.4147 3.16406C17.4159 2.90625 17.5003 2.70703 17.6679 2.56641C17.7651 2.48438 17.9509 2.41289 18.2251 2.35195C21.6645 1.58555 25.0999 0.801562 28.5311 0ZM18.8438 16.1842L27.9511 18.6979C27.995 18.7102 28.0372 18.6768 28.0372 18.6328V1.59434C28.0372 1.53281 27.9809 1.48711 27.9212 1.50117L18.8386 3.57187C18.7876 3.58242 18.7524 3.62988 18.7524 3.68262L18.7208 16.0225C18.7208 16.098 18.7718 16.1631 18.8438 16.1842ZM42.5497 8.09648L29.4681 1.77012C29.4153 1.74551 29.3556 1.78242 29.3556 1.84043V43.5217C29.3556 43.585 29.4083 43.6377 29.4716 43.6377H42.4741C42.5585 43.6377 42.627 43.5691 42.627 43.4848V8.21953C42.627 8.1668 42.5972 8.11934 42.5497 8.09648ZM11.3274 43.6922C11.3819 43.6922 11.4259 43.6482 11.4259 43.5955V16.0295C11.4259 15.9293 11.3327 15.8555 11.2343 15.8783L2.4997 17.9631C2.42587 17.9807 2.37313 18.0457 2.37313 18.1213V43.527C2.37313 43.6131 2.44169 43.6816 2.52782 43.6816L11.3274 43.6922ZM27.9106 20.0707L12.9815 15.9082C12.8849 15.8801 12.7882 15.9539 12.7882 16.0559L12.7987 43.5814C12.7987 43.6359 12.8444 43.6816 12.8989 43.6816H27.8948C27.9774 43.6816 28.0425 43.6131 28.0407 43.5305C28.036 43.2949 28.0284 43.084 28.0179 42.8977C28.0038 42.6691 28.002 42.4594 28.0126 42.2684C28.0477 41.6051 28.0565 40.9424 28.039 40.2803C28.0108 39.2197 27.9979 38.557 28.0003 38.2922C28.0378 32.3332 28.0501 26.315 28.0372 20.2377C28.0372 20.1604 27.9862 20.0918 27.9106 20.0707Z" fill="black"/>
<path d="M30.7115 8.03673C30.6605 8.01388 30.6289 7.96466 30.6289 7.90841V6.46173C30.6289 6.39669 30.6957 6.35275 30.7555 6.37912L31.8646 6.87482C31.9139 6.89591 31.9473 6.94513 31.9473 7.00138V8.45685C31.9473 8.50783 31.8963 8.54122 31.8506 8.52189L30.7115 8.03673Z" fill="black"/>
<path d="M34.0418 7.94354C34.132 8.41346 34.142 8.88573 34.0717 9.36034C34.0646 9.4078 34.0172 9.43592 33.975 9.41835L32.9625 8.99295C32.9133 8.97186 32.8799 8.92264 32.8799 8.86639L32.8711 7.50936C32.8711 7.42674 32.9555 7.37049 33.0311 7.40389L33.9469 7.81698C33.9961 7.83807 34.0313 7.88729 34.0418 7.94354Z" fill="black"/>
<path d="M36.0815 8.76972C36.1272 8.79081 36.1571 8.83476 36.1571 8.88574L36.1676 10.2621C36.1676 10.3113 36.1184 10.3447 36.0762 10.3254L35.0901 9.89648C35.0374 9.87363 35.0022 9.82089 35.004 9.7664L35.0233 8.4041C35.0233 8.35839 35.0725 8.33027 35.1165 8.3496L36.0815 8.76972Z" fill="black"/>
<path d="M31.8787 9.68028C31.9279 9.69962 31.9596 9.75059 31.9596 9.80684L31.9473 11.2166C31.9473 11.2869 31.8752 11.3361 31.8102 11.3098L30.759 10.8984C30.6799 10.8686 30.6289 10.793 30.6289 10.7104V9.25841C30.6289 9.20567 30.6816 9.17052 30.7309 9.18985L31.8787 9.68028Z" fill="black"/>
<path d="M37.9 9.59238C38.0125 9.6416 38.0846 9.7541 38.0828 9.87891L38.06 11.0654C38.06 11.1147 38.0072 11.1445 37.9615 11.1252L37.0668 10.7332C37.0158 10.7121 36.9842 10.6611 36.9824 10.6031L36.9648 9.32696C36.9648 9.26192 37.0299 9.21621 37.0879 9.24258L37.9 9.59238Z" fill="black"/>
<path d="M39.8258 10.4485C39.8996 10.4818 39.9471 10.5504 39.9471 10.626V11.8231C39.9471 11.9127 39.8557 11.9725 39.7748 11.9356L38.9363 11.5418C38.8871 11.5172 38.8572 11.4697 38.8555 11.417V10.2129C38.8555 10.1145 38.9627 10.0529 39.0576 10.0951L39.8258 10.4485Z" fill="black"/>
<path d="M34.0527 10.6647C34.1418 10.9647 34.1664 11.2688 34.1266 11.577C34.116 11.6648 34.1148 11.7703 34.123 11.8934C34.1418 12.1629 34.034 12.2332 33.7996 12.1043C33.666 12.0305 33.5605 11.9801 33.4832 11.9531C33.3121 11.8934 33.1457 11.8225 32.984 11.7404C32.9312 11.7141 32.8996 11.6666 32.8978 11.6139L32.875 10.2111C32.875 10.1584 32.9277 10.1232 32.9752 10.1426L33.9455 10.5398C33.9965 10.5609 34.0352 10.6066 34.0527 10.6647Z" fill="black"/>
<path d="M41.5135 11.2026C41.6014 11.2395 41.6576 11.3238 41.6576 11.417L41.6506 12.6C41.6506 12.6492 41.6049 12.6844 41.5627 12.6668L40.733 12.2977C40.6873 12.2766 40.6574 12.2238 40.6574 12.1606L40.6504 10.9934C40.6504 10.9231 40.7225 10.8738 40.7875 10.902L41.5135 11.2026Z" fill="black"/>
<path d="M36.0264 11.3818C36.1107 11.4152 36.167 11.4996 36.167 11.5945V12.8373C36.167 12.9147 36.0896 12.9691 36.0158 12.9428L35.1088 12.6088C35.0314 12.5807 34.9805 12.5086 34.9805 12.426V11.1498C34.9805 11.0654 35.0631 11.0074 35.1387 11.0373L36.0264 11.3818Z" fill="black"/>
<path d="M38.042 12.2344C38.0701 12.2467 38.0895 12.2748 38.0895 12.3064L38.1 13.6266C38.1 13.7039 38.0191 13.7566 37.9453 13.725L37.142 13.391C37.0365 13.3471 36.968 13.2522 36.968 13.152L36.9609 11.9707C36.9609 11.8846 37.0453 11.8266 37.1244 11.8582L38.042 12.2344Z" fill="black"/>
<path d="M31.8227 12.4401C31.8982 12.4682 31.9475 12.542 31.9475 12.6229V13.9904C31.9475 14.0625 31.8771 14.1152 31.8104 14.0906L30.7223 13.6899C30.6713 13.6723 30.6379 13.6231 30.6379 13.5686L30.6309 12.1008C30.6309 12.0481 30.6836 12.0111 30.7328 12.0305L31.8227 12.4401Z" fill="black"/>
<path d="M39.8289 12.9533C39.8992 12.9814 39.9467 13.05 39.9467 13.1256C39.9467 13.4572 39.9578 13.7982 39.9801 14.1486C40 14.4615 39.9028 14.5465 39.6883 14.4035C39.5371 14.3016 39.3719 14.233 39.1926 14.1978C38.9172 14.1428 38.7877 13.9939 38.8041 13.7514C38.8276 13.4057 38.8457 13.0658 38.8586 12.7318C38.8604 12.6562 38.9395 12.6053 39.0098 12.6334L39.8289 12.9533Z" fill="black"/>
<path d="M34.0137 13.2732C34.0664 13.2926 34.0998 13.3418 34.0998 13.3963L34.0928 14.799C34.0928 14.8447 34.0471 14.8781 34.0049 14.8623L32.9906 14.5019C32.9186 14.4773 32.8711 14.4053 32.8711 14.3244V12.9463C32.8711 12.8953 32.9203 12.8601 32.966 12.8777L34.0137 13.2732Z" fill="black"/>
<path d="M41.5309 13.6723C41.61 13.7057 41.6627 13.7953 41.6645 13.8973L41.6855 14.9607C41.6873 15.0574 41.5977 15.1295 41.5115 15.0978L40.8453 14.857C40.7275 14.8148 40.6484 14.7023 40.6484 14.5758V13.4508C40.6484 13.3822 40.717 13.333 40.7785 13.3594L41.5309 13.6723Z" fill="black"/>
<path d="M36.0643 14.0607C36.1258 14.0836 36.1662 14.1504 36.1662 14.226V15.4529C36.1662 15.5303 36.0941 15.5865 36.0256 15.5637L35.0922 15.2561C35.0412 15.2385 35.0061 15.1875 35.0043 15.1295L34.9902 13.8252C34.9902 13.7426 35.0711 13.6863 35.1467 13.7144L36.0643 14.0607Z" fill="black"/>
<path d="M38.0152 14.8219C38.068 14.8518 38.0996 14.908 38.0996 14.9695V16.2106C38.0996 16.2615 38.0521 16.2984 38.0064 16.2826L37.0801 15.9469C37.0273 15.9276 36.9922 15.8766 36.9922 15.8203V14.5459C36.9922 14.4985 37.0379 14.4615 37.0871 14.4703C37.4059 14.5231 37.7152 14.6402 38.0152 14.8219Z" fill="black"/>
<path d="M31.7928 15.2262C31.8824 15.2561 31.9422 15.3387 31.9404 15.4301L31.9211 16.7994C31.9211 16.8486 31.8754 16.882 31.8297 16.868L30.7205 16.5059C30.6713 16.4901 30.6379 16.4391 30.6379 16.3811L30.6309 14.9361C30.6309 14.8904 30.6748 14.857 30.7188 14.8711L31.7928 15.2262Z" fill="black"/>
<path d="M39.7389 15.4406C39.8619 15.4881 39.9445 15.6076 39.9445 15.743L39.9393 16.8644C39.9393 16.9137 39.8918 16.9488 39.8479 16.9348L38.9918 16.643C38.9057 16.6131 38.8477 16.5252 38.8477 16.4215V15.2807C38.8477 15.1893 38.9373 15.1277 39.0217 15.1594L39.7389 15.4406Z" fill="black"/>
<path d="M34.0198 16.0014C34.069 16.0189 34.1024 16.0699 34.1024 16.1279V17.4656C34.1024 17.5412 34.0303 17.5939 33.96 17.5711L32.9897 17.2477C32.9229 17.2266 32.8772 17.165 32.879 17.0982L32.8983 15.7201C32.8983 15.6727 32.9458 15.6375 32.9915 15.6533L34.0198 16.0014Z" fill="black"/>
<path d="M41.5607 16.1402C41.6205 16.1648 41.6592 16.2246 41.6592 16.2914V17.5113C41.6592 17.5588 41.6117 17.5922 41.5643 17.5764L40.8207 17.3267C40.717 17.2916 40.6484 17.2002 40.6484 17.0965V15.917C40.6484 15.8449 40.7205 15.7957 40.7855 15.8221L41.5607 16.1402Z" fill="black"/>
<path d="M36.0369 16.6834C36.1143 16.7098 36.167 16.7924 36.167 16.8891V18.1688C36.167 18.2162 36.123 18.2514 36.0791 18.2373L35.0648 17.9086C35.0139 17.8928 34.9805 17.8436 34.9805 17.7873V16.4936C34.9805 16.418 35.0525 16.3617 35.1211 16.3846L36.0369 16.6834Z" fill="black"/>
<path d="M37.9137 17.3338C38.0209 17.3672 38.093 17.4726 38.0912 17.5922L38.0754 18.7752C38.0754 18.8244 38.028 18.8613 37.9805 18.8473L37.1491 18.61C37.0471 18.5801 36.9768 18.4887 36.9785 18.3832L36.9979 17.1492C36.9979 17.0965 37.0506 17.0596 37.0998 17.0754L37.9137 17.3338Z" fill="black"/>
<path d="M31.8875 18.1389C31.9777 18.624 31.9877 19.1115 31.9174 19.6014C31.9104 19.6488 31.8646 19.6805 31.8189 19.6682L30.7414 19.3588C30.6746 19.3395 30.6289 19.2762 30.6289 19.2041V17.7697C30.6289 17.7135 30.6816 17.6748 30.7326 17.6906L31.7873 18.0211C31.8383 18.0369 31.877 18.0826 31.8875 18.1389Z" fill="black"/>
<path d="M39.8141 17.9754C39.8932 18.0018 39.9459 18.0774 39.9459 18.1635V19.3236C39.9459 19.3975 39.8791 19.4502 39.8141 19.4291L38.9703 19.1567C38.9158 19.1391 38.8789 19.0881 38.8789 19.0301L38.8807 17.7451C38.8807 17.7047 38.9229 17.6783 38.9633 17.6906L39.8141 17.9754Z" fill="black"/>
<path d="M41.5607 18.6082C41.617 18.6275 41.6539 18.6855 41.6539 18.7523L41.6521 19.8967C41.6521 19.9459 41.61 19.9863 41.559 19.9846C41.3445 19.974 41.0873 19.8849 40.7873 19.7174C40.7012 19.6699 40.6484 19.5803 40.6484 19.4818V18.3973C40.6484 18.341 40.6977 18.3006 40.7451 18.3182L41.5607 18.6082Z" fill="black"/>
<path d="M34.0418 18.798C34.132 19.268 34.142 19.7402 34.0717 20.2148C34.0646 20.2623 34.0189 20.2922 33.9732 20.2816L32.9572 20.0162C32.9063 20.0021 32.8711 19.9564 32.8711 19.9019V18.5098C32.8711 18.4254 32.9502 18.3656 33.0293 18.3902L33.9416 18.6803C33.9926 18.6961 34.0313 18.7418 34.0418 18.798Z" fill="black"/>
<path d="M36.0814 19.3377C36.1324 19.3535 36.1676 19.4027 36.1676 19.459V20.7598C36.1676 20.8354 36.0955 20.8916 36.0234 20.8705L35.0971 20.6051C35.0426 20.5893 35.0039 20.5436 35.0039 20.4908L35.0145 19.1162C35.0145 19.067 35.0619 19.0336 35.1111 19.0477L36.0814 19.3377Z" fill="black"/>
<path d="M37.9684 19.9318C38.0457 19.9529 38.0984 20.032 38.0984 20.127L38.0914 21.3451C38.0914 21.3961 38.0475 21.4348 38.0035 21.4225L37.0701 21.143C37.0174 21.1271 36.9805 21.0744 36.9805 21.0147V19.7631C36.9822 19.7086 37.0297 19.6682 37.0789 19.6822L37.9684 19.9318Z" fill="black"/>
<path d="M15.7482 20.0988C15.8168 20.1182 15.8643 20.1797 15.8643 20.25L15.8537 22.0482C15.852 22.108 15.7992 22.1502 15.743 22.1379L14.4387 21.8391C14.3736 21.8232 14.3262 21.7617 14.3262 21.6914V19.9389C14.3262 19.8264 14.4316 19.7455 14.5389 19.7736L15.7482 20.0988Z" fill="black"/>
<path d="M39.8295 20.4838C39.8981 20.5066 39.9455 20.5717 39.9455 20.6455V21.876C39.9455 21.9287 39.8963 21.9691 39.8471 21.9551L38.9858 21.7266C38.9295 21.7107 38.8908 21.6633 38.8891 21.6106L38.8574 20.3607C38.8557 20.2693 38.9489 20.2043 39.042 20.2342L39.8295 20.4838Z" fill="black"/>
<path d="M18.194 20.6965C18.2449 20.7106 18.2819 20.7563 18.2819 20.8108V22.5686C18.2819 22.6283 18.2291 22.674 18.1729 22.6617L16.9916 22.4051C16.9407 22.3945 16.9037 22.3471 16.902 22.2908L16.8809 20.5348C16.8791 20.4399 16.9705 20.3713 17.0655 20.3959L18.194 20.6965Z" fill="black"/>
<path d="M31.8629 20.8494C31.9121 20.8635 31.9473 20.9127 31.9473 20.9707V22.3383C31.9473 22.4139 31.8752 22.4701 31.7996 22.4543L30.803 22.2363C30.701 22.2135 30.6272 22.1273 30.6289 22.0289L30.6377 20.6226C30.6377 20.5717 30.6817 20.533 30.7274 20.5453L31.8629 20.8494Z" fill="black"/>
<path d="M41.5662 21.0516C41.6225 21.0691 41.6611 21.1307 41.6594 21.201L41.6576 22.3682C41.6576 22.4314 41.5979 22.4771 41.5381 22.4596L40.8051 22.2504C40.7137 22.224 40.6504 22.1414 40.6504 22.0482L40.6574 20.8846C40.6574 20.8301 40.7031 20.7879 40.7488 20.802L41.5662 21.0516Z" fill="black"/>
<path d="M20.5221 21.2678C20.5924 21.2836 20.6416 21.3522 20.6399 21.433L20.6188 23.0818C20.6188 23.1346 20.5784 23.1768 20.5344 23.168L19.4428 22.9606C19.3567 22.9447 19.2952 22.8621 19.2969 22.7654L19.318 21.0815C19.3198 21.034 19.3655 20.9988 19.4129 21.0094L20.5221 21.2678Z" fill="black"/>
<path d="M33.9506 21.3943C34.0368 21.4172 34.0983 21.4945 34.0983 21.5824L34.0948 22.9289C34.0948 22.9781 34.0491 23.0151 34.0034 23.0027L32.9627 22.7391C32.9135 22.7268 32.8801 22.6776 32.8801 22.6213L32.8731 21.2151C32.8713 21.1641 32.9188 21.1272 32.968 21.1395L33.9506 21.3943Z" fill="black"/>
<path d="M22.7209 21.8057C22.7983 21.825 22.851 21.8953 22.851 21.9744V23.6057C22.851 23.6707 22.7913 23.7199 22.7297 23.7059L21.6926 23.458C21.6417 23.4475 21.6047 23.4 21.603 23.3455L21.5801 21.607C21.5784 21.5578 21.6258 21.5227 21.6733 21.535L22.7209 21.8057Z" fill="black"/>
<path d="M36.0905 21.9744C36.1291 21.985 36.1573 22.0201 36.1573 22.0623L36.1678 23.4457C36.1678 23.5107 36.1028 23.5564 36.036 23.5389L35.2186 23.3367C35.0832 23.3033 34.9865 23.1978 34.9883 23.0853L35.0059 21.7846C35.0076 21.7371 35.0533 21.7037 35.1008 21.716L36.0905 21.9744Z" fill="black"/>
<path d="M24.8122 22.3172C24.9001 22.3383 24.9617 22.4191 24.9617 22.5123V24.1014C24.9617 24.1541 24.9142 24.1945 24.8667 24.1822L23.856 23.9361C23.8068 23.9238 23.7716 23.8764 23.7646 23.8166C23.7001 23.2635 23.7037 22.7104 23.7751 22.1572C23.7804 22.1098 23.8261 22.0799 23.8736 22.0904L24.8122 22.3172Z" fill="black"/>
<path d="M37.966 22.4842C38.0451 22.5053 38.0996 22.5809 38.0996 22.6705V23.9432C38.0996 23.9906 38.0557 24.0276 38.0117 24.0152L37.11 23.785C37.0203 23.7604 36.957 23.676 36.957 23.5758V22.3436C36.957 22.2838 37.0115 22.2399 37.066 22.2539L37.966 22.4842Z" fill="black"/>
<path d="M26.8691 22.8428C26.9184 22.8551 26.9535 22.9061 26.9518 22.9641L26.9412 24.5584C26.9395 24.6164 26.8832 24.6586 26.8252 24.6445L25.8953 24.4195C25.8373 24.4055 25.7969 24.3563 25.7969 24.3018L25.8057 22.6863C25.8057 22.6354 25.8496 22.5984 25.8971 22.609L26.8691 22.8428Z" fill="black"/>
<path d="M39.8219 23.0027C39.8957 23.0221 39.9467 23.0941 39.9467 23.1785V24.3773C39.9467 24.4389 39.8904 24.4846 39.8307 24.4705L38.9658 24.2508C38.9096 24.2367 38.8691 24.1893 38.8691 24.1365L38.8885 22.8621C38.8902 22.8111 38.9395 22.7742 38.9904 22.7865L39.8219 23.0027Z" fill="black"/>
<path d="M41.5926 23.4949C41.626 23.5037 41.6488 23.5354 41.6488 23.574L41.6682 24.7975C41.6699 24.8502 41.626 24.8906 41.5803 24.8801L40.791 24.6955C40.7084 24.6762 40.6504 24.5953 40.6504 24.5004L40.6574 23.3455C40.6574 23.2945 40.7014 23.2559 40.7471 23.2682L41.5926 23.4949Z" fill="black"/>
<path d="M15.8291 25.5252C15.8273 25.5744 15.7816 25.6113 15.7324 25.6026L14.4791 25.374C14.3912 25.3582 14.3262 25.2791 14.3262 25.186V23.4527C14.3262 23.3666 14.4 23.3016 14.4809 23.3156L15.6375 23.5283C15.7676 23.5529 15.8607 23.6707 15.859 23.8078L15.8291 25.5252Z" fill="black"/>
<path d="M31.9332 23.8482C32.0082 24.2537 32.0211 24.7324 31.9719 25.2844C31.9666 25.3441 31.9139 25.3863 31.8612 25.3758L30.7889 25.1367C30.7379 25.1262 30.701 25.0752 30.701 25.0154L30.6817 23.6056C30.6799 23.5388 30.7414 23.4879 30.8065 23.5037L31.8313 23.7375C31.8823 23.7498 31.9227 23.792 31.9332 23.8482Z" fill="black"/>
<path d="M18.2045 24.0715C18.2502 24.0803 18.2819 24.1207 18.2819 24.1682L18.2959 25.9699C18.2959 26.0262 18.2467 26.0701 18.194 26.0596L16.9934 25.8275C16.9407 25.817 16.9037 25.7713 16.902 25.7186L16.8809 23.9273C16.8791 23.8553 16.9477 23.799 17.0215 23.8148L18.2045 24.0715Z" fill="black"/>
<path d="M34.0232 24.2596C34.0848 24.2736 34.1287 24.3281 34.1322 24.3914L34.1885 25.7256C34.192 25.8064 34.1164 25.8697 34.0338 25.8521L33.0037 25.6465C32.951 25.6359 32.9141 25.5902 32.9141 25.5375V24.1014C32.9141 24.0434 32.9668 23.9994 33.0213 24.0135L34.0232 24.2596Z" fill="black"/>
<path d="M20.5707 24.576C20.6129 24.5848 20.6428 24.6234 20.6411 24.6691L20.6059 26.4305C20.6041 26.4832 20.5549 26.5236 20.5004 26.5131L19.4317 26.3127C19.3491 26.2969 19.2893 26.2301 19.2911 26.1545L19.2998 24.4002C19.2998 24.3527 19.3438 24.3158 19.3895 24.3264L20.5707 24.576Z" fill="black"/>
<path d="M36.0368 24.7166C36.1352 24.7377 36.2055 24.8238 36.2038 24.924L36.1862 26.2037C36.1844 26.2547 36.1405 26.2934 36.0913 26.2828L35.1192 26.0772C35.0665 26.0666 35.0296 26.0174 35.0313 25.9611L35.0506 24.5971C35.0524 24.5496 35.0964 24.5145 35.1421 24.525L36.0368 24.7166Z" fill="black"/>
<path d="M22.7179 25.0207C22.797 25.04 22.8515 25.1086 22.8515 25.1877V26.826C22.8515 26.8822 22.804 26.9244 22.7513 26.9139L21.6931 26.7064C21.6421 26.6959 21.6069 26.6502 21.6052 26.5974L21.5665 24.917C21.563 24.8273 21.6509 24.7588 21.7423 24.7816L22.7179 25.0207Z" fill="black"/>
<path d="M38.0162 25.1789C38.0918 25.1947 38.1445 25.2615 38.1445 25.3371V26.5693C38.1445 26.666 38.0514 26.7363 37.9547 26.7135L37.132 26.5113C37.0564 26.492 37.002 26.427 37.002 26.3514V25.1121C37.002 25.026 37.0828 24.9627 37.1672 24.982L38.0162 25.1789Z" fill="black"/>
<path d="M24.8756 25.4812C24.909 25.4865 24.9318 25.5146 24.9318 25.5463L24.9266 27.2039C24.9266 27.2549 24.8809 27.2935 24.8299 27.2848L23.8473 27.1072C23.7945 27.0967 23.7559 27.0492 23.7559 26.993V25.3459C23.7559 25.2949 23.8033 25.2562 23.8525 25.2668L24.8756 25.4812Z" fill="black"/>
<path d="M39.9051 25.6271C39.9543 25.6377 39.9895 25.6816 39.9895 25.7326V26.9824C39.9895 27.0475 39.9367 27.0967 39.8805 27.0826L38.9822 26.8769C38.9348 26.8664 38.8996 26.8154 38.8996 26.7521L38.8926 25.5937C38.8926 25.5041 38.9752 25.4373 39.0648 25.4549L39.9051 25.6271Z" fill="black"/>
<path d="M26.8586 25.8733C26.9043 25.882 26.9377 25.9225 26.9377 25.9699V27.5608C26.9377 27.6135 26.8938 27.6557 26.8463 27.6469L25.8901 27.4852C25.8409 27.4764 25.8039 27.4272 25.8039 27.3691L25.7969 25.7783C25.7952 25.7168 25.8514 25.6711 25.9129 25.6834L26.8586 25.8733Z" fill="black"/>
<path d="M41.6465 26.1352C41.7321 26.55 41.745 26.9684 41.6852 27.3902C41.6782 27.4412 41.6307 27.4746 41.5832 27.4658L40.8327 27.3041C40.7764 27.2918 40.736 27.2443 40.7342 27.1916L40.7149 25.9611C40.7131 25.9066 40.7624 25.8627 40.8151 25.8732L41.5446 26.0156C41.5938 26.0244 41.6342 26.0719 41.6465 26.1352Z" fill="black"/>
<path d="M31.9153 26.5588C31.9539 26.5658 31.9803 26.6027 31.9821 26.6484L32.0243 28.0705C32.026 28.1426 31.9627 28.1988 31.8942 28.1865L30.7973 27.9914C30.727 27.9791 30.676 27.9193 30.6778 27.849L30.7006 26.4445C30.7024 26.39 30.7463 26.3496 30.7956 26.3584L31.9153 26.5588Z" fill="black"/>
<path d="M34.0566 26.9789C34.1076 26.9895 34.1445 27.0352 34.1445 27.0879V28.4678C34.1445 28.5293 34.0865 28.575 34.0232 28.5662L33.0881 28.4326C32.9879 28.4186 32.9141 28.3377 32.9141 28.2428V26.8365C32.9141 26.7891 32.958 26.7539 33.0037 26.7627L34.0566 26.9789Z" fill="black"/>
<path d="M15.7605 27.0281C15.8133 27.0369 15.8537 27.0826 15.8537 27.1371L15.8643 28.9565C15.8643 29.0285 15.7975 29.083 15.7236 29.0742L14.4738 28.9055C14.3895 28.8949 14.3262 28.8246 14.3262 28.7438V26.9315C14.3262 26.8541 14.3947 26.7961 14.4686 26.8084L15.7605 27.0281Z" fill="black"/>
<path d="M36.0254 27.3551C36.1291 27.3726 36.2047 27.4605 36.2029 27.5625L36.1854 28.8404C36.1836 28.8914 36.1396 28.9318 36.0904 28.923L35.1201 28.7543C35.0691 28.7455 35.0322 28.698 35.0322 28.6418L35.0234 27.2689C35.0234 27.218 35.0691 27.1793 35.1201 27.1881L36.0254 27.3551Z" fill="black"/>
<path d="M18.2021 27.4553C18.2549 27.4641 18.2953 27.515 18.2936 27.5748L18.2707 29.3432C18.2707 29.3941 18.2285 29.4328 18.1811 29.4258L16.9629 29.2377C16.9119 29.2307 16.875 29.185 16.875 29.1287V27.3234C16.875 27.2725 16.9172 27.2338 16.9646 27.2426L18.2021 27.4553Z" fill="black"/>
<path d="M38.0032 27.7576C38.084 27.7734 38.1438 27.8508 38.1438 27.9422V29.1885C38.1438 29.2447 38.0963 29.2887 38.0436 29.2799L37.1401 29.1076C37.0856 29.0971 37.0451 29.0496 37.0434 28.9934L37.0117 27.7471C37.01 27.6557 37.0926 27.5853 37.184 27.6029L38.0032 27.7576Z" fill="black"/>
<path d="M20.5293 27.849C20.5803 27.8578 20.6172 27.9018 20.6172 27.9527L20.6049 29.6947C20.6049 29.7457 20.561 29.7861 20.5135 29.7791L19.4096 29.6086C19.3586 29.5998 19.32 29.5541 19.3182 29.4996L19.2989 27.7401C19.2971 27.6908 19.3411 27.6539 19.3903 27.6627L20.5293 27.849Z" fill="black"/>
<path d="M39.8127 28.1232C39.9112 28.1408 39.9832 28.2322 39.9815 28.3377L39.9657 29.4978C39.9639 29.5541 39.9182 29.5963 39.869 29.5875L39.0288 29.4187C38.9532 29.4029 38.8987 29.3326 38.9004 29.2517L38.9163 28.0705C38.918 28.016 38.9637 27.9756 39.0129 27.9844L39.8127 28.1232Z" fill="black"/>
<path d="M22.7104 28.2199C22.7913 28.234 22.851 28.3025 22.851 28.3834V30.0357C22.851 30.0867 22.8071 30.1254 22.7596 30.1183L21.6944 29.9566C21.6434 29.9478 21.6047 29.9039 21.603 29.8494L21.5801 28.125C21.5784 28.067 21.6346 28.023 21.6961 28.0336L22.7104 28.2199Z" fill="black"/>
<path d="M41.619 28.4924C41.684 28.5047 41.7315 28.5785 41.7332 28.6699L41.7473 29.7106C41.7491 29.8389 41.6489 29.9373 41.5399 29.9162L40.8895 29.7861C40.7805 29.7633 40.7014 29.6719 40.7032 29.5682L40.7172 28.4221C40.7172 28.3676 40.7647 28.3254 40.8139 28.3359L41.619 28.4924Z" fill="black"/>
<path d="M24.7975 28.5891C24.8924 28.6066 24.9609 28.691 24.9609 28.7894V30.2889C24.9609 30.3838 24.8713 30.4541 24.7746 30.4383L23.8465 30.2818C23.7797 30.2713 23.7305 30.215 23.7305 30.1518V28.5205C23.7305 28.4519 23.7938 28.3992 23.8605 28.4115L24.7975 28.5891Z" fill="black"/>
<path d="M26.8463 28.9477C26.9184 28.9582 26.9729 29.0303 26.9711 29.1164L26.9482 30.5965C26.9482 30.6475 26.9113 30.6879 26.8621 30.6914C26.5281 30.7113 26.2006 30.6709 25.8795 30.5701C25.8303 30.5543 25.7969 30.5068 25.7969 30.4541V28.8984C25.7969 28.8422 25.8426 28.8 25.8918 28.807L26.8463 28.9477Z" fill="black"/>
<path d="M31.7029 29.2693C31.7615 29.2811 31.8195 29.2963 31.877 29.3151C31.9314 29.3326 31.9684 29.3801 31.9684 29.4328V30.8602C31.9684 30.9147 31.9227 30.9568 31.8717 30.9498L30.7924 30.7986C30.7396 30.7899 30.6992 30.7424 30.6992 30.6844V29.257C30.6992 29.2078 30.7414 29.1674 30.7941 29.1692C31.1 29.1762 31.4029 29.2096 31.7029 29.2693Z" fill="black"/>
<path d="M34.0834 29.7826C34.162 30.2338 34.1819 30.6885 34.1432 31.1467C34.1379 31.1977 34.0993 31.2381 34.0483 31.2434C33.7002 31.2727 33.361 31.2287 33.0305 31.1115C32.9778 31.0922 32.9426 31.0465 32.9409 30.9938L32.918 29.6086C32.9163 29.5611 32.9584 29.5242 33.0042 29.5313L33.9815 29.6772C34.0325 29.6842 34.0747 29.7264 34.0834 29.7826Z" fill="black"/>
<path d="M36.1545 30.034C36.1809 30.0375 36.2002 30.0604 36.2002 30.0885L36.2107 31.4525C36.2125 31.5141 36.1615 31.5633 36.1053 31.5545L35.1402 31.4139C35.0875 31.4068 35.0488 31.3594 35.0488 31.3014V29.9602C35.0488 29.9109 35.0945 29.8723 35.1437 29.8793L36.1545 30.034Z" fill="black"/>
<path d="M38.0217 30.3539C38.0903 30.3662 38.1395 30.426 38.1377 30.4963L38.1202 31.7408C38.1184 31.7953 38.0727 31.8375 38.0217 31.8305L37.1305 31.7109C37.0813 31.7039 37.0426 31.6564 37.0338 31.5967C36.9729 31.1596 36.9758 30.7236 37.0426 30.2889C37.0514 30.2344 37.0971 30.1975 37.1428 30.2062L38.0217 30.3539Z" fill="black"/>
<path d="M15.6832 30.477C15.7869 30.4893 15.8643 30.5824 15.8643 30.6914V32.3894C15.8643 32.465 15.8027 32.5248 15.7324 32.5178L14.4404 32.3824C14.3754 32.3754 14.3262 32.3174 14.3262 32.2471V30.4541C14.3262 30.3768 14.3912 30.317 14.465 30.3258L15.6832 30.477Z" fill="black"/>
<path d="M39.8885 30.6492C39.9465 30.658 39.9905 30.7142 39.9905 30.7828V31.9623C39.9905 32.066 39.8867 32.1433 39.7725 32.124L39.1731 32.0256C39.0149 31.9992 38.9006 31.885 38.9024 31.7566L38.9164 30.6193C38.9164 30.5631 38.9621 30.5191 39.0149 30.5262L39.8885 30.6492Z" fill="black"/>
<path d="M18.1371 30.8355C18.2197 30.8478 18.2812 30.9234 18.2812 31.0131V32.7041C18.2812 32.7621 18.232 32.8078 18.1758 32.8025L16.9699 32.6777C16.9154 32.6725 16.875 32.625 16.875 32.5687V30.7529C16.875 30.7019 16.9172 30.6615 16.9646 30.6686L18.1371 30.8355Z" fill="black"/>
<path d="M41.6014 30.9322C41.6576 30.9393 41.7016 30.9955 41.7051 31.0658L41.7508 32.1926C41.7543 32.2998 41.6524 32.3824 41.5363 32.3666L40.9651 32.2893C40.8139 32.2682 40.7014 32.1539 40.7031 32.0221L40.7155 30.9252C40.7172 30.869 40.7629 30.825 40.8139 30.832L41.6014 30.9322Z" fill="black"/>
<path d="M20.4742 31.1555C20.5463 31.166 20.599 31.2275 20.6008 31.2996L20.6096 32.9924C20.6096 33.0399 20.5639 33.0768 20.5129 33.0715L19.4107 32.9625C19.3439 32.9555 19.293 32.8992 19.293 32.8324L19.3018 31.0817C19.3018 31.0289 19.3457 30.9885 19.3932 30.9955L20.4742 31.1555Z" fill="black"/>
<path d="M22.7424 31.4438C22.8039 31.4508 22.8514 31.5088 22.8514 31.5791L22.8426 33.2543C22.8426 33.3035 22.8004 33.3422 22.7512 33.3352L21.6736 33.184C21.6244 33.177 21.5875 33.1312 21.5875 33.0785L21.5664 31.4086C21.5664 31.3541 21.6068 31.3119 21.6525 31.3172L22.7424 31.4438Z" fill="black"/>
<path d="M24.7756 31.7197C24.8793 31.7355 24.9549 31.8199 24.9532 31.9184L24.9338 33.4547C24.9321 33.5074 24.8881 33.5478 24.8389 33.5426L23.8721 33.4353C23.7948 33.4266 23.7385 33.358 23.7403 33.2771L23.7737 31.6512C23.7754 31.6037 23.8211 31.5686 23.8704 31.5773L24.7756 31.7197Z" fill="black"/>
<path d="M26.9184 32.1451L26.9359 33.6955C26.9377 33.7447 26.892 33.7852 26.8393 33.7781L25.8936 33.6674C25.8426 33.6621 25.8039 33.6164 25.8039 33.5637L25.7969 31.9746C25.7969 31.9026 25.8619 31.8463 25.9357 31.8551L26.732 31.957C26.8375 31.9694 26.9166 32.0502 26.9184 32.1451Z" fill="black"/>
<path d="M30.7219 33.5567L30.6973 32.1135C30.6956 32.059 30.743 32.0151 30.7958 32.0203L31.8944 32.1152C31.9454 32.1188 31.984 32.1662 31.984 32.2225L31.9911 33.6551C31.9911 33.7201 31.9331 33.7729 31.8663 33.7658L30.8239 33.6569C30.7659 33.6516 30.7237 33.6076 30.7219 33.5567Z" fill="black"/>
<path d="M34.0918 32.4281C34.1604 32.4369 34.2096 32.5072 34.2061 32.5899L34.1568 33.9065C34.1551 33.9557 34.1164 33.9926 34.0707 33.9891L33.0688 33.9152C32.9809 33.91 32.9141 33.8379 32.9141 33.7518V32.4141C32.9141 32.342 32.9721 32.284 33.0389 32.2928L34.0918 32.4281Z" fill="black"/>
<path d="M36.1246 32.6813C36.1686 32.6865 36.202 32.727 36.202 32.7744L36.2037 34.1332C36.2037 34.1824 36.1616 34.2229 36.1141 34.2176L35.2123 34.1227C35.1086 34.1121 35.0295 34.0242 35.0313 33.9205L35.0489 32.6391C35.0506 32.5881 35.0946 32.5477 35.1438 32.5547L36.1246 32.6813Z" fill="black"/>
<path d="M37.7619 32.8535C37.8568 32.8582 37.9477 32.8781 38.0344 32.9133C38.0871 32.9344 38.1223 32.9818 38.1223 33.0346L38.1117 34.3231C38.1117 34.3775 38.066 34.4197 38.0133 34.4127L37.1326 34.302C37.0781 34.2949 37.0359 34.2475 37.0359 34.1912L37.0254 32.901C37.0254 32.8518 37.0676 32.8096 37.1238 32.8043C37.2199 32.7961 37.3154 32.8002 37.4104 32.8166C37.5111 32.8342 37.6283 32.8465 37.7619 32.8535Z" fill="black"/>
<path d="M39.8534 33.1576C39.9325 33.1682 39.9905 33.2402 39.9905 33.3264C39.9905 33.624 40.0022 33.9551 40.0256 34.3195C40.042 34.5691 39.9524 34.6752 39.7567 34.6377C39.5938 34.6061 39.4836 34.5891 39.4262 34.5867C39.2914 34.582 39.1596 34.5586 39.0307 34.5164C38.9745 34.4971 38.9358 34.4496 38.934 34.3986L38.9024 33.1453C38.9006 33.0838 38.9551 33.0363 39.0149 33.0451L39.8534 33.1576Z" fill="black"/>
<path d="M41.5975 33.3984C41.6608 33.4072 41.7082 33.4723 41.71 33.5531L41.7311 34.6412C41.7328 34.7396 41.6485 34.817 41.5518 34.8082L40.919 34.7502C40.7942 34.7379 40.6975 34.6482 40.6992 34.5428L40.7186 33.3861C40.7203 33.3281 40.7643 33.2824 40.8153 33.2894L41.5975 33.3984Z" fill="black"/>
<path d="M15.6785 33.9504C15.7823 33.9592 15.8631 34.0488 15.8614 34.1543L15.8367 35.8699C15.8367 35.9209 15.7963 35.9631 15.7453 35.9666C15.3117 36.0018 14.8817 35.9725 14.4551 35.8787C14.4024 35.8682 14.3655 35.8225 14.3637 35.7715L14.3321 33.9943C14.3303 33.9029 14.4094 33.8309 14.5008 33.8397L15.6785 33.9504Z" fill="black"/>
<path d="M18.1846 34.2017C18.2391 34.2053 18.2812 34.2545 18.2812 34.3125V36.0879C18.2812 36.1459 18.232 36.1916 18.174 36.1881L17.0262 36.123C16.9418 36.1178 16.875 36.0492 16.875 35.9648V34.2017C16.875 34.142 16.9242 34.0945 16.9805 34.0998L18.1846 34.2017Z" fill="black"/>
<path d="M20.4486 34.4268C20.5172 34.4338 20.5717 34.49 20.5805 34.5639C20.659 35.1967 20.6689 35.7568 20.6104 36.2443C20.6051 36.3006 20.5611 36.341 20.5119 36.3375L19.3869 36.2619C19.3377 36.2584 19.3008 36.2127 19.3008 36.1547V34.4215C19.3008 34.3688 19.343 34.3266 19.3922 34.3318L20.4486 34.4268Z" fill="black"/>
<path d="M22.7049 34.657C22.7893 34.6658 22.8525 34.7414 22.8508 34.8293L22.8227 36.443C22.8209 36.4922 22.7787 36.5308 22.7295 36.5273L21.6959 36.4517C21.6449 36.4482 21.6045 36.4043 21.6027 36.3533L21.5781 34.6307C21.5781 34.5779 21.6221 34.5357 21.6713 34.541L22.7049 34.657Z" fill="black"/>
<path d="M24.4062 34.7853C24.5574 34.783 24.7039 34.8053 24.8457 34.8521C24.9002 34.8697 24.9371 34.9172 24.9371 34.9681V36.5748C24.9371 36.6293 24.8932 36.6715 24.8404 36.6662L23.8508 36.5924C23.798 36.5889 23.7559 36.5414 23.7559 36.4851L23.7664 34.8486C23.7664 34.7976 23.8068 34.7537 23.8613 34.7484C23.9539 34.739 24.0459 34.7431 24.1373 34.7607C24.2346 34.7783 24.3242 34.7865 24.4062 34.7853Z" fill="black"/>
<path d="M31.9658 34.8665L30.7391 34.8451C30.7138 34.8447 30.693 34.8648 30.6926 34.89L30.6651 36.4612C30.6647 36.4865 30.6848 36.5073 30.71 36.5077L31.9368 36.5291C31.962 36.5296 31.9829 36.5095 31.9833 36.4842L32.0107 34.913C32.0112 34.8878 31.9911 34.867 31.9658 34.8665Z" fill="black"/>
<path d="M26.9219 36.7752C26.9219 36.8033 26.8955 36.8279 26.8639 36.8262L25.9287 36.7752C25.8549 36.7717 25.7952 36.7084 25.7969 36.6311L25.8039 35.0332C25.8039 34.9822 25.8461 34.9436 25.8954 34.9488L26.8411 35.0596C26.8955 35.0649 26.936 35.1123 26.936 35.1668L26.9219 36.7752Z" fill="black"/>
<path d="M34.0047 35.1123C34.0609 35.1158 34.1066 35.1615 34.1172 35.223C34.2086 35.7258 34.2197 36.1834 34.1506 36.5959C34.14 36.6521 34.0961 36.6926 34.0469 36.6891L33.0133 36.6152C32.9623 36.6117 32.9236 36.566 32.9236 36.5098L32.9219 35.1246C32.9219 35.0719 32.9641 35.0297 33.0133 35.0332L34.0047 35.1123Z" fill="black"/>
<path d="M36.077 35.318C36.1473 35.325 36.2018 35.3865 36.2018 35.4621L36.1859 36.7506C36.1842 36.8051 36.1402 36.8473 36.0893 36.8438L35.1541 36.7594C35.0996 36.7541 35.0574 36.7066 35.0574 36.6504L35.0469 35.3215C35.0469 35.2652 35.0926 35.2213 35.1453 35.2266L36.077 35.318Z" fill="black"/>
<path d="M37.0483 36.8684L37.0254 35.4973C37.0237 35.441 37.0711 35.3971 37.1239 35.4041L38.0239 35.5061C38.0924 35.5149 38.1452 35.5799 38.1452 35.6572V36.7858C38.1452 36.9229 38.0133 37.0301 37.8586 37.016L37.1555 36.9563C37.0957 36.951 37.0483 36.9123 37.0483 36.8684Z" fill="black"/>
<path d="M39.6051 35.6291C39.734 35.6432 39.8313 35.6566 39.8969 35.6695C39.9479 35.6801 39.9848 35.7275 39.9848 35.782L39.9655 37.0125C39.9637 37.067 39.9198 37.1109 39.8688 37.1074L39.0795 37.0687C38.9776 37.0635 38.8967 36.9738 38.8985 36.8631L38.916 35.6713C38.9178 35.6203 38.96 35.5799 39.0127 35.5816C39.1323 35.5828 39.3297 35.5986 39.6051 35.6291Z" fill="black"/>
<path d="M41.6347 35.8137C41.684 35.8172 41.7209 35.8647 41.7174 35.9192C41.6986 36.2895 41.7121 36.6451 41.7578 36.9861C41.7906 37.2229 41.6617 37.3096 41.3711 37.2463C41.2539 37.2217 41.1355 37.2141 41.016 37.2234C40.7722 37.2457 40.658 37.1443 40.6732 36.9193C40.6838 36.7506 40.689 36.6586 40.689 36.6434C40.682 36.3774 40.692 36.1119 40.7189 35.8471C40.7242 35.7926 40.7664 35.7522 40.8156 35.7557L41.6347 35.8137Z" fill="black"/>
<path d="M15.739 37.3736L14.4734 37.3582C14.3997 37.3573 14.3391 37.4163 14.3382 37.4901L14.316 39.304C14.3151 39.3778 14.3742 39.4384 14.448 39.4393L15.7135 39.4547C15.7873 39.4556 15.8478 39.3966 15.8487 39.3228L15.8709 37.5088C15.8718 37.4351 15.8127 37.3745 15.739 37.3736Z" fill="black"/>
<path d="M18.2509 37.5374L16.9361 37.5213C16.9099 37.521 16.8884 37.542 16.8881 37.5682L16.8645 39.4981C16.8642 39.5244 16.8852 39.5459 16.9114 39.5462L18.2261 39.5622C18.2523 39.5626 18.2739 39.5416 18.2742 39.5154L18.2978 37.5854C18.2981 37.5592 18.2771 37.5377 18.2509 37.5374Z" fill="black"/>
<path d="M20.5342 37.6631L19.3951 37.6592C19.3398 37.659 19.2948 37.7037 19.2946 37.759L19.2884 39.5309C19.2882 39.5862 19.3329 39.6312 19.3882 39.6314L20.5273 39.6354C20.5826 39.6356 20.6276 39.5909 20.6278 39.5355L20.634 37.7637C20.6342 37.7083 20.5895 37.6633 20.5342 37.6631Z" fill="black"/>
<path d="M31.8843 37.6598L30.8051 37.6485C30.7391 37.6478 30.685 37.7008 30.6843 37.7668L30.6692 39.2116C30.6685 39.2776 30.7214 39.3317 30.7874 39.3324L31.8667 39.3437C31.9327 39.3444 31.9868 39.2914 31.9875 39.2254L32.0026 37.7806C32.0033 37.7146 31.9503 37.6605 31.8843 37.6598Z" fill="black"/>
<path d="M34.0748 37.7834L33.0061 37.7815C32.9585 37.7814 32.9199 37.8199 32.9198 37.8675L32.9172 39.3194C32.9172 39.367 32.9556 39.4056 33.0032 39.4057L34.072 39.4076C34.1195 39.4077 34.1582 39.3692 34.1583 39.3216L34.1608 37.8696C34.1609 37.8221 34.1224 37.7834 34.0748 37.7834Z" fill="black"/>
<path d="M22.7691 37.8088H21.6512C21.6065 37.8088 21.5703 37.845 21.5703 37.8896V39.6404C21.5703 39.6851 21.6065 39.7213 21.6512 39.7213H22.7691C22.8138 39.7213 22.85 39.6851 22.85 39.6404V37.8896C22.85 37.845 22.8138 37.8088 22.7691 37.8088Z" fill="black"/>
<path d="M24.8706 37.9382L23.8441 37.9256C23.7878 37.9249 23.7416 37.97 23.7409 38.0263L23.7206 39.6926C23.7199 39.7489 23.765 39.7951 23.8213 39.7958L24.8478 39.8083C24.9041 39.809 24.9503 39.7639 24.951 39.7076L24.9713 38.0414C24.972 37.9851 24.9269 37.9389 24.8706 37.9382Z" fill="black"/>
<path d="M36.1214 37.9063L35.1336 37.8942C35.0792 37.8935 35.0346 37.9371 35.034 37.9914L35.017 39.38C35.0163 39.4344 35.0599 39.479 35.1142 39.4796L36.102 39.4917C36.1564 39.4924 36.201 39.4488 36.2017 39.3945L36.2186 38.0059C36.2193 37.9515 36.1758 37.9069 36.1214 37.9063Z" fill="black"/>
<path d="M26.8814 38.0496H25.8725C25.8307 38.0496 25.7969 38.0835 25.7969 38.1252V39.8127C25.7969 39.8545 25.8307 39.8883 25.8725 39.8883H26.8814C26.9232 39.8883 26.957 39.8545 26.957 39.8127V38.1252C26.957 38.0835 26.9232 38.0496 26.8814 38.0496Z" fill="black"/>
<path d="M38.0242 38.0184L37.1383 38.0106C37.0684 38.01 37.0112 38.0662 37.0106 38.1361L36.9994 39.4263C36.9987 39.4962 37.0549 39.5533 37.1248 39.5539L38.0107 39.5617C38.0806 39.5623 38.1378 39.5061 38.1384 39.4362L38.1496 38.146C38.1502 38.0761 38.0941 38.019 38.0242 38.0184Z" fill="black"/>
<path d="M39.8996 38.1407L39.0174 38.1207C38.9582 38.1193 38.9091 38.1662 38.9077 38.2254L38.8787 39.5048C38.8773 39.564 38.9243 39.6131 38.9835 39.6144L39.8657 39.6344C39.9249 39.6358 39.9739 39.5889 39.9753 39.5297L40.0043 38.2503C40.0057 38.1911 39.9588 38.142 39.8996 38.1407Z" fill="black"/>
<path d="M41.616 38.2145L40.8074 38.2187C40.7433 38.2191 40.6917 38.2713 40.692 38.3353L40.6985 39.5658C40.6988 39.6299 40.751 39.6815 40.8151 39.6812L41.6237 39.677C41.6877 39.6766 41.7394 39.6244 41.7391 39.5603L41.7326 38.3299C41.7323 38.2658 41.6801 38.2142 41.616 38.2145Z" fill="black"/>
</svg>
