<svg width="45" height="45" viewBox="0 0 45 45" fill="none" xmlns="http://www.w3.org/2000/svg">
<path d="M38.1042 32.7094C38.5038 32.8734 38.938 33.0703 39.4067 33.3C39.5966 33.3926 39.7314 33.4852 39.811 33.5777C40.0079 33.8062 39.947 33.9978 39.6282 34.1525C39.5728 34.1794 39.5122 34.1935 39.4507 34.1938C39.3893 34.1941 39.3286 34.1806 39.2731 34.1543C38.4153 33.7547 37.6167 33.3504 36.8773 32.9414C36.0839 32.5031 35.3087 32.056 34.5517 31.6002C32.1036 30.126 29.9116 28.3266 27.9757 26.2019C27.936 26.1577 27.9135 26.1034 27.9124 26.049C27.9077 25.6998 28.0431 25.5498 28.3185 25.599C28.4485 25.6225 28.5845 25.7062 28.7263 25.8504C29.2864 26.4164 29.887 26.9988 30.528 27.5977C30.5879 27.6541 30.6665 27.6855 30.7478 27.6855H32.0521C32.0828 27.6855 32.1123 27.6733 32.1341 27.6516C32.1558 27.6298 32.1681 27.6003 32.1681 27.5695V24.6164C32.1682 24.5936 32.1635 24.5711 32.1543 24.5502C32.1452 24.5293 32.1318 24.5105 32.1149 24.495C32.0981 24.4795 32.0782 24.4676 32.0565 24.46C32.0348 24.4525 32.0117 24.4495 31.9888 24.4512C31.3372 24.5004 30.6634 24.5004 29.9673 24.4512C29.7798 24.4371 29.6433 24.4002 29.5577 24.3404C29.389 24.2209 29.3743 24.051 29.5138 23.8307C29.5504 23.773 29.6009 23.7255 29.6605 23.6926C29.7201 23.6598 29.787 23.6425 29.8548 23.6426H35.7874C35.8182 23.6426 35.8477 23.6303 35.8694 23.6086C35.8912 23.5868 35.9034 23.5573 35.9034 23.5266L35.8929 20.2236C35.8929 20.2008 35.8838 20.1789 35.8676 20.1627C35.8515 20.1466 35.8296 20.1375 35.8067 20.1375L28.8001 20.1269C28.5247 20.1269 28.3853 19.9945 28.3817 19.7297L28.3501 16.2721C28.3496 16.2248 28.3313 16.1797 28.299 16.1464C28.2668 16.1132 28.2232 16.0945 28.1778 16.0945L22.7023 16.084C22.6835 16.084 22.6652 16.0887 22.6488 16.0978C22.6325 16.1069 22.6185 16.1201 22.6083 16.1363C22.5981 16.1524 22.5918 16.171 22.5901 16.1904C22.5884 16.2097 22.5913 16.2293 22.5985 16.2475L23.3931 18.1986C23.4034 18.2235 23.4073 18.2509 23.4046 18.2785C23.4018 18.306 23.3925 18.3329 23.3773 18.3568C23.0761 18.8268 22.8019 18.7834 22.5546 18.2268C20.5858 13.7935 19.6437 9.0914 19.728 4.12031C19.728 4.1121 19.7228 4.00253 19.7122 3.79159C19.6946 3.44589 19.8587 3.29531 20.2044 3.33984C20.4118 3.36562 20.5179 3.48574 20.5226 3.70019L20.5788 6.60585C20.5793 6.63726 20.5924 6.66722 20.6155 6.68926C20.6385 6.7113 20.6695 6.72364 20.7019 6.72363C27.78 6.71777 34.8312 6.72128 41.8554 6.73417C42.0546 6.73417 42.2058 6.7623 42.3089 6.81855C42.5269 6.93808 42.5655 7.1162 42.4249 7.35292C42.3869 7.41672 42.3325 7.46964 42.2669 7.5066C42.2013 7.54355 42.1268 7.56327 42.0505 7.56386L37.431 7.58847C37.4075 7.58893 37.3851 7.59858 37.3687 7.61534C37.3523 7.6321 37.3431 7.65464 37.3431 7.67812L37.3536 11.1252C37.3536 11.1583 37.3666 11.19 37.3897 11.2134C37.4127 11.2368 37.444 11.25 37.4767 11.25H42.0698C42.1419 11.2501 42.2124 11.2692 42.2742 11.3053C42.3361 11.3415 42.3869 11.3934 42.4214 11.4557C42.5866 11.7475 42.5321 11.9402 42.2579 12.034C42.1571 12.068 41.9913 12.085 41.7605 12.085C40.1562 12.085 38.5214 12.085 36.8562 12.085C36.8249 12.085 36.795 12.0974 36.7729 12.1194C36.7508 12.1415 36.7384 12.1715 36.7384 12.2027V15.1242C36.7384 15.1582 36.7521 15.1909 36.7765 15.2149C36.8009 15.239 36.834 15.2525 36.8685 15.2525C38.6251 15.2303 40.3149 15.2414 41.938 15.2859C42.1466 15.2918 42.2983 15.3404 42.3933 15.4318C42.555 15.5865 42.5368 15.7682 42.3388 15.9768C42.3193 15.9973 42.2958 16.0138 42.2699 16.0253C42.2439 16.0368 42.216 16.043 42.1876 16.0435L37.5013 16.0822C37.4615 16.0822 37.4233 16.0981 37.395 16.1264C37.3667 16.1547 37.3506 16.1931 37.3501 16.2334L37.322 19.0898C37.3217 19.1163 37.3266 19.1426 37.3363 19.1671C37.346 19.1916 37.3604 19.2139 37.3785 19.2327C37.3966 19.2515 37.4182 19.2664 37.442 19.2766C37.4658 19.2868 37.4913 19.292 37.5171 19.292H42.0786C42.1471 19.2919 42.2144 19.3097 42.2739 19.3436C42.3334 19.3776 42.383 19.4264 42.4179 19.4853C42.5702 19.7455 42.5274 19.9336 42.2896 20.0496C42.1829 20.1012 42.023 20.1269 41.8097 20.1269C40.1784 20.1316 38.5208 20.1275 36.8368 20.1146C36.8107 20.1146 36.7857 20.125 36.7672 20.1435C36.7488 20.1619 36.7384 20.187 36.7384 20.2131V23.4932C36.7384 23.5328 36.7541 23.5708 36.7821 23.5988C36.8102 23.6268 36.8482 23.6426 36.8878 23.6426C38.5331 23.6426 40.1978 23.6426 41.8817 23.6426C42.0798 23.6426 42.2222 23.6637 42.3089 23.7059C42.4964 23.7949 42.5474 23.9549 42.4618 24.1857C42.4355 24.2583 42.3875 24.321 42.3242 24.3654C42.261 24.4097 42.1857 24.4335 42.1085 24.4336H33.1261C33.0818 24.4336 33.0393 24.4512 33.008 24.4825C32.9767 24.5138 32.9591 24.5563 32.9591 24.6006V27.5326C32.9591 27.5732 32.9754 27.6121 33.0044 27.6407C33.0334 27.6694 33.0728 27.6855 33.1138 27.6855C36.1044 27.6797 39.0599 27.6832 41.9802 27.6961C42.1384 27.6961 42.2608 27.7307 42.3476 27.7998C42.4976 27.9193 42.5321 28.0605 42.4513 28.2234C42.3833 28.3629 42.2567 28.4496 42.0716 28.4836C41.8935 28.5152 41.6831 28.5275 41.4405 28.5205C40.5077 28.4924 39.1712 28.5023 37.431 28.5504C37.407 28.5513 37.3844 28.5614 37.368 28.5785C37.3516 28.5956 37.3426 28.6183 37.3431 28.6418L37.3835 31.6055C37.384 31.6296 37.3937 31.6526 37.4108 31.6696C37.4278 31.6866 37.4508 31.6964 37.4749 31.6969C38.8765 31.7332 40.278 31.7443 41.6796 31.7303C41.6901 31.7303 41.7933 31.7221 41.989 31.7057C42.2808 31.681 42.4437 31.7935 42.4776 32.0432C42.521 32.3607 42.3821 32.5195 42.061 32.5195H38.1411C37.8071 32.5195 37.7948 32.5828 38.1042 32.7094ZM28.3571 7.67988C28.3571 7.65051 28.3455 7.62234 28.3247 7.60157C28.3039 7.5808 28.2758 7.56913 28.2464 7.56913L20.795 7.55859C20.7779 7.5585 20.761 7.56203 20.7454 7.56894C20.7297 7.57585 20.7156 7.58599 20.7041 7.59872C20.6925 7.61146 20.6837 7.6265 20.6781 7.64289C20.6726 7.65929 20.6705 7.67667 20.672 7.69394C20.7681 8.74394 20.9345 9.86777 21.1712 11.0654C21.1817 11.1176 21.2098 11.1645 21.2505 11.1981C21.2912 11.2318 21.342 11.2501 21.3944 11.25L28.2482 11.2394C28.271 11.2394 28.2929 11.2302 28.3091 11.2137C28.3252 11.1972 28.3343 11.1749 28.3343 11.1516L28.3571 7.67988ZM36.5204 7.64999C36.5204 7.63799 36.5181 7.6261 36.5135 7.61501C36.5089 7.60392 36.5021 7.59385 36.4936 7.58536C36.4852 7.57687 36.4751 7.57014 36.464 7.56554C36.4529 7.56095 36.441 7.55859 36.429 7.55859H29.2712C29.2592 7.55859 29.2473 7.56095 29.2362 7.56554C29.2251 7.57014 29.2151 7.57687 29.2066 7.58536C29.1981 7.59385 29.1913 7.60392 29.1867 7.61501C29.1822 7.6261 29.1798 7.63799 29.1798 7.64999V11.1586C29.1798 11.1828 29.1894 11.2061 29.2066 11.2232C29.2237 11.2404 29.247 11.25 29.2712 11.25H36.429C36.4533 11.25 36.4765 11.2404 36.4936 11.2232C36.5108 11.2061 36.5204 11.1828 36.5204 11.1586V7.64999ZM29.3644 15.2596C29.3853 15.2596 29.4055 15.251 29.4203 15.2359C29.4351 15.2207 29.4435 15.2001 29.4435 15.1787V12.2344C29.4435 12.1947 29.4277 12.1567 29.3997 12.1287C29.3717 12.1007 29.3337 12.085 29.294 12.085H21.5509C21.5287 12.0849 21.5068 12.0898 21.4869 12.0993C21.467 12.1088 21.4496 12.1226 21.4361 12.1397C21.4226 12.1568 21.4134 12.1766 21.4092 12.1976C21.4051 12.2186 21.406 12.2402 21.412 12.2607L22.2435 15.1435C22.2557 15.186 22.282 15.2234 22.3185 15.25C22.3549 15.2767 22.3996 15.2911 22.4456 15.2912L29.3644 15.2596ZM35.9122 12.1693C35.9122 12.147 35.9033 12.1255 35.8875 12.1097C35.8717 12.0938 35.8502 12.085 35.8278 12.085H30.3189C30.2965 12.085 30.275 12.0938 30.2592 12.1097C30.2434 12.1255 30.2345 12.147 30.2345 12.1693V15.2068C30.2345 15.2292 30.2434 15.2507 30.2592 15.2665C30.275 15.2823 30.2965 15.2912 30.3189 15.2912H35.8278C35.8502 15.2912 35.8717 15.2823 35.8875 15.2665C35.9033 15.2507 35.9122 15.2292 35.9122 15.2068V12.1693ZM36.5187 16.1771C36.5187 16.1636 36.5133 16.1507 36.5037 16.1411C36.4942 16.1315 36.4812 16.1262 36.4677 16.1262H29.2325C29.219 16.1262 29.206 16.1315 29.1965 16.1411C29.1869 16.1507 29.1815 16.1636 29.1815 16.1771V19.2428C29.1815 19.2563 29.1869 19.2693 29.1965 19.2788C29.206 19.2884 29.219 19.2937 29.2325 19.2937H36.4677C36.4812 19.2937 36.4942 19.2884 36.5037 19.2788C36.5133 19.2693 36.5187 19.2563 36.5187 19.2428V16.1771ZM31.8095 28.51C31.6595 28.5088 31.6431 28.5551 31.7603 28.6488C33.1478 29.7656 34.6864 30.7787 36.3763 31.6881C36.3899 31.6957 36.4052 31.6997 36.4208 31.6996C36.4364 31.6995 36.4517 31.6953 36.4651 31.6875C36.4786 31.6797 36.4898 31.6685 36.4977 31.6551C36.5055 31.6416 36.5097 31.6263 36.5099 31.6107L36.4888 28.6418C36.4888 28.618 36.4791 28.5952 36.462 28.5784C36.4449 28.5616 36.4216 28.5521 36.3974 28.5521L31.8095 28.51Z" fill="black"/>
<path d="M7.724 16.1385L2.98142 16.1279C2.68846 16.1279 2.53025 15.9832 2.50681 15.6937C2.48221 15.4019 2.6574 15.259 3.0324 15.2648C4.55232 15.2894 6.05408 15.2953 7.53767 15.2824C7.55245 15.2822 7.56699 15.2787 7.58032 15.2721C7.59364 15.2655 7.60544 15.2559 7.61493 15.2441C7.62442 15.2323 7.63137 15.2185 7.63533 15.2036C7.63929 15.1886 7.64015 15.173 7.63787 15.1576L7.1615 12.0182C7.15256 11.9616 7.12486 11.9102 7.08351 11.8734C7.04216 11.8366 6.98995 11.8168 6.9365 11.8178C5.53611 11.8412 4.21306 11.8301 2.96736 11.7844C2.80447 11.7785 2.68201 11.7404 2.59998 11.6701C2.45467 11.5459 2.43767 11.3947 2.549 11.2166C2.59309 11.1461 2.65429 11.088 2.72686 11.0477C2.79942 11.0075 2.88097 10.9863 2.96385 10.9863H6.92596C6.94057 10.9863 6.95503 10.9834 6.96849 10.9777C6.98195 10.972 6.99412 10.9637 7.00429 10.9532C7.01446 10.9427 7.02241 10.9302 7.02767 10.9166C7.03294 10.903 7.03541 10.8884 7.03494 10.8738L6.9576 7.67988C6.95715 7.65578 6.94757 7.6328 6.93085 7.61576C6.91413 7.59871 6.89159 7.58893 6.86795 7.58847L2.94978 7.56211C2.87204 7.56152 2.79616 7.54241 2.72896 7.50652C2.66177 7.47062 2.60536 7.41905 2.56482 7.35644C2.44998 7.17597 2.46521 7.0207 2.61053 6.89062C2.69373 6.81679 2.81853 6.77871 2.98494 6.77636C4.22127 6.76582 5.49744 6.76289 6.81345 6.76757C6.842 6.76781 6.8703 6.76239 6.89674 6.75162C6.92317 6.74086 6.94721 6.72497 6.96748 6.70487C6.98774 6.68477 7.00382 6.66086 7.0148 6.63451C7.02577 6.60817 7.03142 6.57991 7.03142 6.55136C7.03494 5.79668 7.10642 5.02265 7.24588 4.22929C7.25083 4.20103 7.26121 4.17438 7.27635 4.15107C7.29149 4.12775 7.31105 4.10829 7.33377 4.09394C7.70994 3.84785 7.92615 3.9164 7.9824 4.29961C7.99998 4.41211 7.99529 4.59316 7.96834 4.84277C7.30271 11.035 8.29998 16.9307 10.9601 22.5299C11.5355 23.7416 12.2181 24.8889 13.008 25.9717C13.2517 26.3057 13.2189 26.5219 12.9095 26.6203C12.6271 26.7094 12.4045 26.6279 12.2416 26.376C11.8549 25.7807 11.4705 25.183 11.0885 24.583C11.0722 24.5581 11.0513 24.5377 11.0276 24.5236C11.004 24.5094 10.9783 24.5021 10.9531 24.5021H9.61189C9.60012 24.5021 9.58846 24.5046 9.57759 24.5094C9.56671 24.5141 9.55683 24.5211 9.5485 24.5299C9.54018 24.5388 9.53357 24.5492 9.52907 24.5607C9.52456 24.5723 9.52224 24.5846 9.52224 24.5971L9.49588 27.5853C9.49559 27.5998 9.49838 27.6141 9.50407 27.6275C9.50975 27.6409 9.51822 27.6529 9.52893 27.663C9.53964 27.673 9.55238 27.6809 9.56635 27.6859C9.58032 27.691 9.59522 27.6933 9.61013 27.6926C10.1914 27.6703 10.724 27.6768 11.208 27.7119C11.3861 27.7248 11.5174 27.774 11.6017 27.8596C11.7482 28.0072 11.7447 28.176 11.5912 28.3658C11.5522 28.4141 11.5031 28.4531 11.4474 28.4798C11.3918 28.5066 11.331 28.5205 11.2695 28.5205H6.6201C6.58933 28.5205 6.55982 28.5327 6.53806 28.5545C6.5163 28.5762 6.50408 28.6058 6.50408 28.6365V31.5896C6.50408 31.6083 6.50777 31.6267 6.51495 31.6439C6.52213 31.661 6.53264 31.6766 6.54589 31.6897C6.55913 31.7028 6.57484 31.7131 6.59211 31.7201C6.60937 31.727 6.62785 31.7305 6.64646 31.7303C8.97146 31.708 11.2308 31.7203 13.4246 31.7672C13.5875 31.7719 13.7076 31.8129 13.7849 31.8902C13.915 32.0191 13.9215 32.1697 13.8043 32.342C13.7582 32.4102 13.696 32.466 13.623 32.5047C13.5501 32.5433 13.4687 32.5635 13.3859 32.5635H2.90408C2.61814 32.5635 2.48572 32.4211 2.50681 32.1363C2.53025 31.8434 2.70545 31.6998 3.0324 31.7057C3.82342 31.7209 4.65955 31.7285 5.5408 31.7285C5.58649 31.7285 5.6303 31.7104 5.66261 31.6781C5.69491 31.6458 5.71306 31.6019 5.71306 31.5562V28.6646C5.71306 28.626 5.69769 28.5888 5.67033 28.5615C5.64297 28.5341 5.60586 28.5187 5.56717 28.5187C4.68357 28.5246 3.85564 28.5229 3.08338 28.5135C2.8701 28.5111 2.71306 28.4602 2.61228 28.3605C2.43533 28.1894 2.46463 27.9984 2.70017 27.7875C2.74209 27.749 2.79793 27.7277 2.85662 27.7277L8.52556 27.6838C8.54997 27.6838 8.5734 27.6748 8.59082 27.6587C8.60825 27.6426 8.61827 27.6207 8.61873 27.5977L8.65388 24.6287C8.65412 24.6089 8.65029 24.5893 8.64262 24.571C8.63495 24.5527 8.62359 24.536 8.60921 24.5219C8.59482 24.5079 8.57769 24.4967 8.5588 24.4891C8.53992 24.4815 8.51966 24.4775 8.4992 24.4775H2.94451C2.86521 24.4775 2.78734 24.4561 2.71901 24.4156C2.65068 24.3751 2.59439 24.317 2.55603 24.2473C2.42947 24.0152 2.47166 23.8412 2.6826 23.7252C2.78455 23.6701 2.93455 23.6426 3.1326 23.6426C3.83572 23.6426 4.55467 23.6426 5.28943 23.6426C5.30467 23.6426 5.31975 23.6396 5.33383 23.6337C5.3479 23.6279 5.36069 23.6194 5.37147 23.6086C5.38224 23.5978 5.39079 23.585 5.39662 23.571C5.40245 23.5569 5.40545 23.5418 5.40545 23.5266V20.243C5.40545 20.2277 5.40245 20.2126 5.39662 20.1986C5.39079 20.1845 5.38224 20.1717 5.37147 20.1609C5.36069 20.1502 5.3479 20.1416 5.33383 20.1358C5.31975 20.1299 5.30467 20.1269 5.28943 20.1269C4.55115 20.1269 3.82869 20.1269 3.12205 20.1269C2.90642 20.1269 2.74236 20.0812 2.62986 19.9898C2.40838 19.8094 2.44529 19.6084 2.7406 19.3869C2.78519 19.3537 2.84163 19.3347 2.90232 19.3324C4.83123 19.2691 6.74138 19.2662 8.63279 19.3236C8.64837 19.3239 8.66378 19.3204 8.67773 19.3134C8.69168 19.3064 8.70379 19.2961 8.71306 19.2834C8.72232 19.2707 8.72848 19.256 8.73103 19.2403C8.73358 19.2247 8.73244 19.2087 8.72771 19.1936L7.83299 16.2246C7.82542 16.1996 7.81073 16.1777 7.79109 16.1622C7.77145 16.1467 7.74792 16.1384 7.724 16.1385ZM10.4222 23.6549C10.4429 23.6547 10.4631 23.6493 10.4811 23.6392C10.4991 23.6291 10.5141 23.6145 10.5247 23.597C10.5353 23.5795 10.5412 23.5596 10.5417 23.5392C10.5422 23.5189 10.5374 23.4988 10.5277 23.4809C9.99568 22.4848 9.52283 21.4266 9.10916 20.3062C9.08947 20.2536 9.05418 20.2082 9.008 20.1762C8.96182 20.1441 8.90696 20.127 8.85076 20.1269H6.34939C6.30883 20.1269 6.26993 20.1431 6.24126 20.1717C6.21258 20.2004 6.19646 20.2393 6.19646 20.2799V23.4896C6.19646 23.5097 6.20046 23.5296 6.20824 23.5482C6.21601 23.5667 6.22741 23.5836 6.24177 23.5978C6.25613 23.612 6.27319 23.6232 6.29195 23.6309C6.31072 23.6386 6.33084 23.6426 6.35115 23.6426L10.4222 23.6549Z" fill="black"/>
<path d="M26.1928 20.9566C25.9385 21.0175 25.8957 21.1482 26.0645 21.3486C26.5508 21.9299 26.6914 22.4355 26.4864 22.8656C26.4137 23.0191 26.0944 23.3297 25.5283 23.7972C22.4463 26.3425 19.3578 28.8802 16.2629 31.4103C15.9758 31.6447 15.7391 31.7795 15.5528 31.8146C15.2375 31.872 14.9569 31.7736 14.7108 31.5193C14.4377 31.2381 13.9192 30.6152 13.1551 29.6508C12.8774 29.3015 12.7297 29.0092 12.7121 28.7736C12.6852 28.4244 12.8311 28.1279 13.1498 27.8842C13.2858 27.781 13.3567 27.7265 13.3625 27.7207C16.652 24.9726 19.966 22.2545 23.3047 19.5662C23.477 19.4267 23.6393 19.3488 23.7916 19.3324C23.9897 19.3125 24.1766 19.3424 24.3524 19.422C24.4918 19.4853 24.6489 19.6207 24.8235 19.8281C24.9641 19.9957 25.0971 20.158 25.2225 20.315C25.2513 20.3511 25.2916 20.3763 25.3366 20.3865C25.3816 20.3967 25.4288 20.3913 25.4703 20.3713C26.2578 19.9916 27.0401 19.9834 27.817 20.3466C28.3643 20.6033 28.7586 21.0041 29 21.549C29.2203 22.0494 29.286 22.5767 29.1969 23.131C29.0891 23.8013 28.7557 24.358 28.1967 24.8009C27.8991 25.0365 27.7461 25.1578 27.7379 25.1648C27.2774 25.5633 26.8168 25.9617 26.3563 26.3601C24.6371 27.8484 24.2908 29.6308 25.3174 31.7074C25.3298 31.7321 25.3478 31.7535 25.37 31.7702C25.3922 31.7868 25.4182 31.7982 25.4459 31.8036C25.4737 31.809 25.5026 31.8082 25.5305 31.8013C25.5585 31.7944 25.5847 31.7815 25.6074 31.7636L26.5901 30.9797C26.6491 30.9328 26.7249 30.9116 26.8017 30.9205C26.8786 30.9293 26.9507 30.9675 27.0032 31.0271C27.5328 31.6224 28.0438 32.2394 28.536 32.8781C28.6203 32.9859 28.6561 33.089 28.6432 33.1875C28.628 33.3152 28.5688 33.4207 28.4657 33.5039C28.4475 33.5185 28.4324 33.5367 28.4213 33.5572C28.4102 33.5777 28.4033 33.6003 28.401 33.6235C28.3987 33.6468 28.4011 33.6702 28.4079 33.6925C28.4148 33.7148 28.4261 33.7356 28.441 33.7535C29.8684 35.4703 31.2389 37.1425 32.5526 38.7703C32.8619 39.1547 33.0524 39.4429 33.1239 39.6351C33.2832 40.0652 33.1895 40.4232 32.8426 40.7092C32.5532 40.947 32.259 41.1773 31.9602 41.4C31.3918 41.8218 30.8791 41.7586 30.4221 41.2101C28.9502 39.4429 27.4672 37.6488 25.9731 35.8277C25.9458 35.7945 25.9083 35.7713 25.8666 35.7618C25.8249 35.7522 25.7814 35.7569 25.7428 35.775C25.5002 35.8863 25.3057 35.8939 25.1592 35.7978C25.1557 35.7955 25.0444 35.6672 24.8252 35.4129C24.4326 34.957 24.0278 34.4648 23.6106 33.9363C23.4617 33.7488 23.4676 33.5865 23.6282 33.4494L24.6477 32.5775C24.6912 32.541 24.7213 32.4919 24.7326 32.4394C24.7439 32.3868 24.7356 32.3341 24.7092 32.291C23.8373 30.8683 23.7014 29.3701 24.3014 27.7963C24.6565 26.8634 25.2301 26.0935 26.0223 25.4865C26.566 25.0693 27.1074 24.6486 27.6465 24.2244C28.0379 23.9174 28.284 23.5418 28.3848 23.0976C28.4762 22.6922 28.4188 22.2761 28.2125 21.8496C27.8153 21.0269 27.142 20.7293 26.1928 20.9566ZM24.0713 20.2179C24.0333 20.1718 23.9786 20.1428 23.9192 20.137C23.8598 20.1313 23.8006 20.1494 23.7545 20.1874L13.6062 28.5531C13.5601 28.591 13.531 28.6457 13.5253 28.7051C13.5196 28.7645 13.5377 28.8237 13.5757 28.8698L15.2573 30.9098C15.2953 30.9558 15.35 30.9849 15.4094 30.9906C15.4688 30.9963 15.528 30.9782 15.574 30.9403L25.7224 22.5746C25.7685 22.5367 25.7975 22.482 25.8033 22.4226C25.809 22.3632 25.7909 22.3039 25.7529 22.2579L24.0713 20.2179ZM26.7765 31.9985C26.7585 31.9765 26.7324 31.9626 26.7041 31.9598C26.6758 31.9571 26.6476 31.9656 26.6256 31.9837L24.5854 33.6595C24.5745 33.6685 24.5655 33.6794 24.5589 33.6919C24.5522 33.7043 24.5481 33.7179 24.5467 33.7319C24.5454 33.7459 24.5468 33.7601 24.5509 33.7735C24.555 33.787 24.5617 33.7996 24.5706 33.8104L25.4052 34.8265C25.4232 34.8484 25.4493 34.8623 25.4776 34.8651C25.5059 34.8679 25.5341 34.8593 25.5561 34.8413L27.5963 33.1654C27.6072 33.1565 27.6162 33.1455 27.6228 33.1331C27.6295 33.1207 27.6336 33.107 27.635 33.093C27.6363 33.079 27.6349 33.0649 27.6308 33.0514C27.6267 33.0379 27.62 33.0254 27.6111 33.0145L26.7765 31.9985ZM27.8064 34.2538C27.7927 34.2372 27.7759 34.2235 27.757 34.2134C27.738 34.2033 27.7173 34.1971 27.6959 34.195C27.6745 34.193 27.653 34.1952 27.6324 34.2014C27.6119 34.2077 27.5928 34.218 27.5763 34.2316L26.6051 35.0322C26.5885 35.0458 26.5748 35.0626 26.5647 35.0816C26.5547 35.1005 26.5484 35.1213 26.5464 35.1427C26.5443 35.164 26.5465 35.1856 26.5528 35.2061C26.559 35.2267 26.5693 35.2458 26.5829 35.2623L31.1605 40.8153C31.1741 40.8319 31.1909 40.8456 31.2099 40.8557C31.2288 40.8657 31.2496 40.872 31.2709 40.874C31.2923 40.8761 31.3139 40.8739 31.3344 40.8676C31.3549 40.8614 31.374 40.8511 31.3906 40.8375L32.3618 40.0369C32.3783 40.0232 32.392 40.0065 32.4021 39.9875C32.4122 39.9685 32.4184 39.9478 32.4205 39.9264C32.4226 39.905 32.4204 39.8835 32.4141 39.8629C32.4078 39.8424 32.3976 39.8233 32.3839 39.8068L27.8064 34.2538Z" fill="black"/>
<path d="M23.2737 35.2477C23.4647 35.4938 23.371 35.6848 22.9924 35.8207C22.9665 35.8301 22.9385 35.8338 22.9103 35.8313C22.8821 35.8289 22.8544 35.8205 22.829 35.8067C21.0419 34.841 19.3749 33.6979 17.828 32.3772C17.8186 32.369 17.7284 32.3004 17.5573 32.1715C17.2385 31.9313 17.2467 31.6998 17.5819 31.4772C17.6494 31.4325 17.7294 31.4107 17.8099 31.4151C17.8904 31.4196 17.9671 31.45 18.0284 31.5018C19.5495 32.7791 21.1561 33.9188 22.8483 34.9207C23.0592 35.045 23.201 35.1539 23.2737 35.2477Z" fill="black"/>
</svg>
