<svg width="45" height="45" viewBox="0 0 45 45" fill="none" xmlns="http://www.w3.org/2000/svg">
<path d="M25.9549 2.98828C25.7896 2.96367 25.6227 2.94668 25.4539 2.9373C25.4029 2.93379 25.3643 2.89512 25.3643 2.8459L25.3555 1.55918C25.3555 1.4748 25.424 1.40625 25.5102 1.40625L38.859 1.43789C38.91 1.43965 38.9522 1.47832 38.9522 1.52578L38.9416 4.04121C38.9416 4.09395 38.9064 4.14316 38.8537 4.1625C38.5994 4.26094 38.3422 4.35293 38.082 4.43848C37.8348 4.51934 37.5688 4.56035 37.284 4.56152C34.9461 4.57207 32.6082 4.575 30.2703 4.57031C30.2621 4.57031 30.1789 4.57617 30.0207 4.58789C29.7852 4.6043 29.5988 4.52344 29.4617 4.34531C29.3563 4.2082 29.3006 4.13672 29.2947 4.13086C28.4861 3.29062 27.4812 2.91387 26.2801 3.00059C26.1687 3.00879 26.0604 3.00469 25.9549 2.98828ZM38.3264 2.46094C38.3264 2.30098 38.1963 2.1709 38.0363 2.1709C37.8764 2.1709 37.7463 2.30098 37.7463 2.46094C37.7463 2.6209 37.8764 2.75098 38.0363 2.75098C38.1963 2.75098 38.3264 2.6209 38.3264 2.46094ZM26.5877 2.46094C26.5877 2.30625 26.4611 2.17969 26.3064 2.17969C26.1518 2.17969 26.0252 2.30625 26.0252 2.46094C26.0252 2.61562 26.1518 2.74219 26.3064 2.74219C26.4611 2.74219 26.5877 2.61562 26.5877 2.46094Z" fill="black"/>
<path d="M45 2.82303C45 8.00858 45 13.1941 45 18.3797C42.7676 17.6836 40.5463 16.9834 38.3361 16.2791C38.2746 16.2598 38.2324 16.2017 38.2324 16.1385V5.08182C38.2324 4.98514 38.2957 4.90077 38.3871 4.87089C40.4836 4.20292 42.6 3.53143 44.7363 2.85643C44.857 2.81776 44.9449 2.80663 45 2.82303Z" fill="black"/>
<path d="M22.8287 10.8809C22.0822 10.2867 21.709 9.56016 21.709 8.70117C21.709 8.23242 21.709 7.76426 21.709 7.29668C21.709 6.65332 21.7418 6.18574 21.8074 5.89394C22.0547 4.78535 22.7168 4.06113 23.7938 3.72129C24.1371 3.61348 24.6293 3.55957 25.2703 3.55957C25.602 3.55957 25.933 3.55957 26.2635 3.55957C26.6783 3.55957 27.0082 3.5877 27.2531 3.64395C28.4508 3.91582 29.2137 4.63477 29.5418 5.80078C29.6215 6.08203 29.6625 6.46816 29.6648 6.95918C29.666 7.34941 29.6695 7.73965 29.6754 8.12988C29.6977 9.7916 28.9945 10.8721 27.566 11.3713C27.307 11.4615 26.9695 11.516 26.5535 11.5348C26.2383 11.5488 25.9236 11.5652 25.6096 11.584C25.5551 11.5893 25.5059 11.6191 25.4777 11.6648L24.2139 13.8551C24.1787 13.9148 24.1688 13.9113 24.184 13.8445L24.6428 11.7422C24.6639 11.6455 24.6023 11.5523 24.5092 11.5383C23.8119 11.4352 23.2518 11.216 22.8287 10.8809ZM28.2533 7.54805C28.2533 6.12422 27.1002 4.97109 25.6764 4.97109C24.2525 4.97109 23.0994 6.12422 23.0994 7.54805C23.0994 8.97187 24.2525 10.125 25.6764 10.125C27.1002 10.125 28.2533 8.97187 28.2533 7.54805Z" fill="black"/>
<path d="M31.8114 9.26191L31.7938 8.29512C31.792 8.2459 31.7498 8.20723 31.6953 8.20723C31.4492 8.2084 31.2026 8.21133 30.9553 8.21602C30.9424 8.21602 30.8434 8.22305 30.6582 8.23711C30.2727 8.26758 30.1403 8.0877 30.261 7.69746C30.2768 7.64648 30.3242 7.61133 30.377 7.61133L31.6549 7.60254C31.7393 7.60254 31.8096 7.53926 31.8078 7.46016L31.7938 6.53555C31.7938 6.48457 31.7516 6.44238 31.6971 6.44062L30.4438 6.42129C30.3717 6.41953 30.3119 6.37734 30.2961 6.31582L29.9991 5.15215C29.9868 5.1082 30.0219 5.06426 30.0676 5.06426L37.3748 5.05371C37.4785 5.05371 37.5629 5.13984 37.5612 5.24355L37.519 15.9855C37.519 16.0348 37.4803 16.0734 37.4328 16.0734L26.9369 16.084C26.8455 16.084 26.7717 16.0084 26.7735 15.917L26.8051 12.2326C26.8069 12.1799 26.8438 12.1359 26.8948 12.1289C27.7291 12.0129 28.4539 11.7088 29.0692 11.2166C29.1131 11.1814 29.1676 11.1621 29.2239 11.1621L31.6532 11.1727C31.7059 11.1727 31.7534 11.1393 31.7674 11.09C31.8166 10.9307 31.8383 10.7672 31.8325 10.5996C31.8313 10.5633 31.8348 10.4408 31.843 10.2322C31.85 10.0318 31.7604 9.94687 31.5741 9.97734C31.4276 10.0008 31.3244 10.0102 31.2647 10.0055C30.878 9.97266 30.4907 9.96152 30.1028 9.97207C30.0518 9.97383 30.0114 9.93691 30.0096 9.88945C29.9967 9.44062 30.2475 9.26426 30.7619 9.36035C30.8991 9.38613 31.2172 9.38438 31.7164 9.35508C31.7709 9.35156 31.8131 9.30937 31.8114 9.26191ZM35.9863 6.53829C35.9862 6.46699 35.9282 6.40898 35.8558 6.40867L32.646 6.41987C32.5743 6.41953 32.5162 6.4793 32.5164 6.5504L32.5196 7.47499C32.5198 7.54629 32.5778 7.6043 32.6502 7.60461L35.8599 7.59342C35.9317 7.59375 35.9897 7.53398 35.9895 7.46288L35.9863 6.53829ZM35.9625 8.29914C35.9616 8.25117 35.9229 8.21074 35.8744 8.21141L32.6084 8.21711C32.5602 8.21777 32.5198 8.25645 32.5207 8.30515L32.5224 9.27547C32.5233 9.32344 32.5619 9.36387 32.6104 9.3632L35.8764 9.3575C35.9246 9.35684 35.9651 9.31816 35.9642 9.26945L35.9625 8.29914ZM35.965 10.0871C35.9651 10.0354 35.9229 9.99141 35.8704 9.99181L32.6185 9.98045C32.5655 9.98086 32.5233 10.023 32.5233 10.075L32.5198 11.0629C32.5198 11.1146 32.5619 11.1586 32.6144 11.1582L35.8663 11.1695C35.9194 11.1691 35.9616 11.127 35.9616 11.075L35.965 10.0871ZM31.8184 11.8951C31.8184 11.8318 31.7657 11.7791 31.7024 11.7791H28.4856C28.4223 11.7791 28.3696 11.8318 28.3696 11.8951V12.8479C28.3696 12.9111 28.4223 12.9639 28.4856 12.9639H31.7024C31.7657 12.9639 31.8184 12.9111 31.8184 12.8479V11.8951ZM35.9791 11.8951C35.9791 11.8301 35.9264 11.7773 35.8614 11.7773H32.6375C32.5725 11.7773 32.5198 11.8301 32.5198 11.8951V12.8479C32.5198 12.9129 32.5725 12.9656 32.6375 12.9656H35.8614C35.9264 12.9656 35.9791 12.9129 35.9791 12.8479V11.8951ZM31.8166 13.6519C31.8166 13.6143 31.7867 13.5844 31.7501 13.5849L28.4419 13.5733C28.4047 13.5738 28.3748 13.6037 28.3749 13.6399L28.3713 14.6559C28.3713 14.6936 28.4012 14.7234 28.4379 14.7229L31.7461 14.7345C31.7832 14.734 31.8131 14.7041 31.8131 14.6679L31.8166 13.6519ZM35.9729 13.6999C35.9739 13.6354 35.9211 13.5826 35.8553 13.5819L32.6386 13.5763C32.5742 13.5756 32.5215 13.6283 32.5206 13.6939L32.519 14.6185C32.518 14.683 32.5707 14.7357 32.6365 14.7364L35.8533 14.7421C35.9176 14.7428 35.9703 14.69 35.9713 14.6245L35.9729 13.6999Z" fill="black"/>
<path d="M11.2791 8.75214C11.3459 9.00878 11.486 9.22323 11.6993 9.3955C12.7364 10.2287 13.8772 10.7965 15.1217 11.0988C15.2149 11.1199 15.2623 11.2236 15.2219 11.3098C14.6336 12.5637 13.7436 13.3271 12.5518 13.6002C11.7163 13.7912 10.9194 13.7221 10.1612 13.3928C9.36782 13.0482 8.75258 12.4623 8.31547 11.635C7.94164 10.926 7.83149 10.1549 7.985 9.32167C8.17719 8.28105 8.64653 7.47773 9.39301 6.91171C10.1149 6.36327 10.9393 6.10663 11.8663 6.14179C12.9362 6.18398 13.8737 6.66679 14.6788 7.59023C14.803 7.73319 14.9594 7.81816 15.1481 7.84511C16.177 7.99276 17.1479 8.41112 18.0608 9.10019C18.294 9.2748 18.3872 9.47401 18.3403 9.69784C18.3051 9.87011 18.1815 10.006 17.9694 10.1057C17.7221 10.2205 17.459 10.2908 17.1801 10.3166C15.2723 10.4877 13.4401 10.0787 11.6834 9.08964C11.5709 9.02636 11.4883 8.91913 11.4567 8.79257C11.4379 8.72108 11.401 8.67948 11.3459 8.66776C11.3038 8.65722 11.2668 8.70292 11.2791 8.75214Z" fill="black"/>
<path d="M24.6896 6.79569C24.7517 7.01131 24.8566 7.47069 25.0042 8.17381C25.03 8.29686 25.0113 8.37069 24.948 8.3953C24.9058 8.41287 24.8531 8.38123 24.8267 8.32498C24.6451 7.9242 24.4535 7.9201 24.2519 8.31268C24.2203 8.3742 24.1693 8.41112 24.1289 8.40057C24.0761 8.38533 24.0568 8.32088 24.0708 8.20721C24.1142 7.86033 24.1781 7.51815 24.2624 7.18065C24.2648 7.17127 24.2753 7.07049 24.2941 6.8783C24.3093 6.72596 24.4042 6.66444 24.5789 6.69373C24.6316 6.70252 24.6738 6.74295 24.6896 6.79569ZM24.454 7.45662C24.3744 7.74608 24.4165 7.841 24.5806 7.74139C24.6263 7.71326 24.6509 7.65877 24.6474 7.60076C24.6158 7.14842 24.5513 7.10037 24.454 7.45662Z" fill="black"/>
<path d="M25.5045 7.87674L25.5203 8.25116C25.5221 8.30565 25.4922 8.35663 25.443 8.37596C25.2942 8.4369 25.2297 8.39823 25.2496 8.25995C25.2625 8.16971 25.269 8.11171 25.269 8.08592C25.2678 7.67225 25.2649 7.25858 25.2602 6.84491C25.2584 6.79217 25.2918 6.74647 25.341 6.73241C25.9703 6.55897 26.2334 6.79452 26.1303 7.43905C26.1197 7.50233 26.0863 7.55331 26.0424 7.57264L25.5836 7.76952C25.5344 7.78885 25.5027 7.8328 25.5045 7.87674ZM25.5256 7.05585C25.4705 7.19296 25.4817 7.31073 25.559 7.40917C25.5924 7.4496 25.6504 7.46542 25.7049 7.44608C25.9686 7.35936 26.0096 7.21171 25.8279 7.00311C25.7401 6.90116 25.5748 6.93104 25.5256 7.05585Z" fill="black"/>
<path d="M27.022 6.73419C27.2528 6.8256 27.3571 6.99435 27.3349 7.24044C27.3032 7.57677 27.1228 7.73087 26.7935 7.70275C26.5884 7.68634 26.5333 7.76955 26.6282 7.95236C26.7056 8.10002 26.7062 8.23478 26.63 8.35666C26.5966 8.40763 26.5386 8.434 26.4876 8.41994C26.4103 8.39767 26.3728 8.33029 26.3751 8.21779C26.3857 7.78302 26.3939 7.31427 26.3997 6.81154C26.4015 6.74826 26.4472 6.69377 26.5105 6.68322C26.6921 6.65392 26.8626 6.67091 27.022 6.73419ZM26.8866 6.94513C26.7794 6.8924 26.6528 6.95568 26.63 7.07345C26.5773 7.35353 26.6546 7.48068 26.862 7.4549C26.9183 7.44787 26.9692 7.41623 27.0026 7.36876C27.128 7.1883 27.0894 7.04709 26.8866 6.94513Z" fill="black"/>
<path d="M35.4482 6.70688L34.3795 6.70875C34.3242 6.70885 34.2794 6.75378 34.2795 6.80912L34.2801 7.19584C34.2802 7.25117 34.3252 7.29595 34.3805 7.29586L35.4493 7.29399C35.5046 7.2939 35.5494 7.24896 35.5493 7.19362L35.5486 6.8069C35.5485 6.75157 35.5036 6.70679 35.4482 6.70688Z" fill="black"/>
<path d="M31.2934 6.7254H30.3547C30.2926 6.7254 30.2422 6.77577 30.2422 6.8379V7.18243C30.2422 7.24457 30.2926 7.29493 30.3547 7.29493H31.2934C31.3555 7.29493 31.4059 7.24457 31.4059 7.18243V6.8379C31.4059 6.77577 31.3555 6.7254 31.2934 6.7254Z" fill="black"/>
<path d="M31.2306 8.47801L30.3728 8.48849C30.2942 8.48946 30.2312 8.55398 30.2322 8.63261L30.2362 8.96305C30.2372 9.04168 30.3017 9.10464 30.3804 9.10368L31.2381 9.0932C31.3167 9.09224 31.3797 9.02772 31.3787 8.94909L31.3747 8.61865C31.3737 8.54002 31.3092 8.47705 31.2306 8.47801Z" fill="black"/>
<path d="M35.407 8.48234L34.4086 8.48756C34.3329 8.48796 34.2718 8.54967 34.2722 8.62539L34.274 8.96288C34.2744 9.03861 34.3361 9.09967 34.4118 9.09927L35.4102 9.09405C35.4859 9.09365 35.547 9.03194 35.5466 8.95622L35.5448 8.61873C35.5444 8.543 35.4827 8.48194 35.407 8.48234Z" fill="black"/>
<path d="M31.2624 10.2896L30.2289 10.2734C30.1629 10.2723 30.1085 10.325 30.1075 10.391L30.1016 10.7671C30.1006 10.8331 30.1532 10.8875 30.2192 10.8885L31.2527 10.9048C31.3187 10.9058 31.3731 10.8531 31.3741 10.7871L31.38 10.411C31.381 10.345 31.3284 10.2906 31.2624 10.2896Z" fill="black"/>
<path d="M35.3968 10.2866L34.4266 10.2798C34.3431 10.2792 34.2749 10.3464 34.2743 10.4299L34.2722 10.7428C34.2716 10.8263 34.3388 10.8944 34.4223 10.895L35.3926 10.9018C35.476 10.9024 35.5442 10.8352 35.5448 10.7517L35.547 10.4388C35.5475 10.3553 35.4803 10.2872 35.3968 10.2866Z" fill="black"/>
<path d="M31.2865 12.0878L30.1967 12.0821C30.1452 12.0818 30.1033 12.1233 30.103 12.1748L30.101 12.5615C30.1007 12.6129 30.1422 12.6549 30.1937 12.6551L31.2835 12.6608C31.335 12.6611 31.3769 12.6196 31.3772 12.5682L31.3792 12.1814C31.3795 12.13 31.338 12.0881 31.2865 12.0878Z" fill="black"/>
<path d="M35.4389 12.0831L34.3807 12.0868C34.3214 12.087 34.2736 12.1352 34.2738 12.1944L34.2751 12.553C34.2753 12.6122 34.3234 12.66 34.3827 12.6598L35.4409 12.6561C35.5001 12.6559 35.5479 12.6078 35.5477 12.5485L35.5465 12.1899C35.5463 12.1307 35.4981 12.0829 35.4389 12.0831Z" fill="black"/>
<path d="M38.9188 17.0174C38.9486 17.0279 38.968 17.056 38.968 17.0859L38.9785 19.6295C38.9785 19.7051 38.917 19.7648 38.8414 19.7648L25.5734 19.7754C25.4539 19.7754 25.3555 19.6769 25.3555 19.5574C25.3555 17.5781 25.3555 15.6439 25.3555 13.7549C25.3555 13.2099 25.4645 12.7781 25.6824 12.4594C25.6953 12.4418 25.7258 12.3861 25.7738 12.2924C25.843 12.1588 25.9783 12.106 26.1799 12.1342C26.2361 12.1412 26.2783 12.1887 26.2783 12.2467L26.2889 16.4918C26.2889 16.5586 26.3434 16.6113 26.4102 16.6113C30.0863 16.6113 33.7086 16.6113 37.277 16.6113C37.5699 16.6113 37.8477 16.6541 38.1102 16.7396C38.3727 16.8252 38.6422 16.9178 38.9188 17.0174ZM26.5842 18.7963C26.5842 18.6381 26.4559 18.5098 26.2977 18.5098C26.1395 18.5098 26.0111 18.6381 26.0111 18.7963C26.0111 18.9545 26.1395 19.0828 26.2977 19.0828C26.4559 19.0828 26.5842 18.9545 26.5842 18.7963ZM38.3229 18.8033C38.3229 18.6451 38.1945 18.5168 38.0363 18.5168C37.8781 18.5168 37.7498 18.6451 37.7498 18.8033C37.7498 18.9615 37.8781 19.0898 38.0363 19.0898C38.1945 19.0898 38.3229 18.9615 38.3229 18.8033Z" fill="black"/>
<path d="M12.8494 19.1373C12.9109 19.2287 13.0234 19.2674 13.1271 19.2357C15.158 18.6053 17.1572 17.99 19.1248 17.39C19.5255 17.2682 19.8918 17.315 20.2234 17.5307C20.2832 17.5693 20.3605 17.5641 20.4168 17.5184L23.5281 14.9467C23.572 14.9115 23.6336 14.9133 23.6652 14.9519L23.9992 15.3439C24.0291 15.3809 24.0168 15.4424 23.9693 15.481L20.8527 18.0932C20.8123 18.1266 20.7929 18.181 20.8035 18.2373C20.9664 19.1291 20.6529 19.7004 19.863 19.9512C17.7584 20.6203 15.6519 21.283 13.5437 21.9393C12.9402 22.1279 12.5078 22.2041 12.2464 22.1678C11.8211 22.108 11.4794 21.8783 11.2216 21.4787C11.0623 21.2338 10.9791 21.106 10.972 21.0955C10.4037 20.3174 9.83589 19.5387 9.26871 18.7594C9.24234 18.7225 9.19136 18.6961 9.12984 18.6891C9.05132 18.6773 9.01089 18.6293 9.00855 18.5449C8.99566 17.966 8.97457 17.3877 8.94527 16.81C8.91714 16.2193 8.82632 15.7869 8.67281 15.5127C8.41851 15.058 8.02652 14.7867 7.49683 14.6988C7.04215 14.6238 6.63433 14.7053 6.27339 14.9432C5.89605 15.1928 5.63589 15.5584 5.49293 16.04C5.44019 16.217 5.43023 16.6717 5.46304 17.4041C5.55211 19.4244 5.63531 21.4453 5.71265 23.4668C5.72086 23.6719 5.85035 23.9561 6.10113 24.3193C6.13629 24.3686 6.14859 24.4266 6.13277 24.4758L5.84625 25.4391C5.81461 25.5393 5.84449 25.6447 5.91832 25.7045C7.89527 27.3135 9.85172 28.9078 11.7877 30.4875C12.0291 30.6844 12.2101 30.9656 12.3308 31.3312C13.2976 34.2644 14.2445 37.2047 15.1714 40.1519C15.4011 40.882 15.4832 41.4305 15.4175 41.7973C15.3425 42.2238 15.148 42.5924 14.8339 42.9029C14.5539 43.1807 14.2029 43.3652 13.781 43.4566C13.0439 43.616 12.4287 43.4467 11.9353 42.9486C11.6763 42.6885 11.4396 42.2303 11.2252 41.574C10.3334 38.8553 9.45328 36.1324 8.58492 33.4055C8.56734 33.351 8.53394 33.3018 8.49 33.2648C6.00211 31.2059 3.49781 29.1668 0.977106 27.1477C0.67359 26.9039 0.446832 26.574 0.296832 26.158C0.0753479 25.5463 -0.00961306 24.9299 0.0419494 24.3088C0.0677307 23.9924 0.190192 23.3947 0.409332 22.5158C0.91441 20.4861 1.7441 18.6088 2.89839 16.8838C3.71636 15.6603 4.35914 14.8564 4.82671 14.4721C5.69273 13.7596 6.74976 13.4766 7.99781 13.623C8.67515 13.7027 9.24468 14.059 9.7064 14.6918C10.7892 16.1766 11.8369 17.6584 12.8494 19.1373Z" fill="black"/>
<path d="M35.4199 13.8727H34.3969C34.3309 13.8727 34.2773 13.9262 34.2773 13.9922V14.3367C34.2773 14.4028 34.3309 14.4563 34.3969 14.4563H35.4199C35.4859 14.4563 35.5395 14.4028 35.5395 14.3367V13.9922C35.5395 13.9262 35.4859 13.8727 35.4199 13.8727Z" fill="black"/>
<path d="M31.2783 13.8922L30.2342 13.8813C30.1652 13.8805 30.1088 13.9358 30.1081 14.0047L30.1047 14.3246C30.104 14.3936 30.1593 14.45 30.2282 14.4508L31.2723 14.4617C31.3412 14.4624 31.3977 14.4071 31.3984 14.3382L31.4017 14.0183C31.4025 13.9494 31.3472 13.8929 31.2783 13.8922Z" fill="black"/>
<path d="M14.9827 24.9363C15.3483 25.2586 15.5147 25.6283 15.4819 26.0455C15.4502 26.4357 15.2862 26.7627 14.9897 27.0264C14.6358 27.3404 14.1916 27.4025 13.6573 27.2127C12.9694 26.9701 10.9918 26.1527 7.72466 24.7605C7.71411 24.7559 7.54243 24.6955 7.20962 24.5795C6.84282 24.4494 6.55454 24.2338 6.34477 23.9326C6.19126 23.71 6.10454 23.3807 6.08462 22.9447C6.00024 21.0697 5.93755 19.1936 5.89653 17.3162C5.89419 17.2459 5.8772 17.0414 5.84555 16.7027C5.82095 16.4543 5.83559 16.248 5.8895 16.084C6.17427 15.2168 6.74555 14.8945 7.60337 15.1172C7.94555 15.2062 8.20044 15.4113 8.36801 15.7324C8.4688 15.9269 8.52856 16.2293 8.54731 16.6394C8.62934 18.4746 8.69555 20.308 8.74594 22.1396C8.7477 22.2205 8.79692 22.2908 8.87075 22.3207L14.6329 24.7184C14.7594 24.7711 14.876 24.8437 14.9827 24.9363Z" fill="black"/>
<path d="M19.3629 22.0595L18.9414 22.3646C18.895 22.3982 18.8846 22.463 18.9182 22.5094L19.1677 22.854C19.2013 22.9004 19.2661 22.9108 19.3125 22.8772L19.734 22.5721C19.7804 22.5385 19.7908 22.4737 19.7572 22.4273L19.5077 22.0827C19.4741 22.0363 19.4093 22.0259 19.3629 22.0595Z" fill="black"/>
<path d="M15.4461 21.9275C15.4954 21.9679 15.5674 21.9697 15.6202 21.931L18.1954 20.029C18.2393 19.9956 18.2991 19.9904 18.3465 20.0167C18.4836 20.0964 18.578 20.213 18.6295 20.3665C18.6454 20.414 18.626 20.4703 18.5803 20.5037L15.9524 22.4478C15.9102 22.4794 15.8926 22.5339 15.9102 22.5832C15.97 22.7496 15.9553 22.8626 15.8663 22.9224C15.7889 22.974 15.7473 23.0027 15.7414 23.0085C15.5551 23.1785 15.4561 23.1093 15.4444 22.8011C15.4373 22.6242 15.3002 22.3927 15.033 22.1068C14.9961 22.0664 14.9891 22.0101 15.0172 21.9697C15.1356 21.8056 15.2786 21.7915 15.4461 21.9275Z" fill="black"/>
<path d="M13.4229 27.5678C13.4335 27.573 13.437 27.5854 13.43 27.5959C13.3128 27.76 13.1599 27.8789 12.9712 27.9527C12.9202 27.9721 12.8622 27.958 12.8288 27.9158L12.2944 27.232C12.1655 27.068 12.1972 27.0281 12.3893 27.1125L13.4229 27.5678Z" fill="black"/>
<path d="M7.38943 32.8483C7.48259 32.9239 7.53533 33.0416 7.52829 33.1612C7.35486 36.269 6.50583 39.0791 4.98122 41.5916C4.59099 42.235 4.35134 42.6088 4.26228 42.7131C3.95056 43.0799 3.55505 43.3149 3.07575 43.418C2.54607 43.5328 2.06384 43.4625 1.62907 43.2071C1.23415 42.9762 0.937669 42.6299 0.739622 42.1682C0.4197 41.4205 0.51052 40.677 1.01208 39.9375C1.21482 39.6375 1.31794 39.4852 1.32146 39.4805C2.28474 37.9043 2.8988 36.2871 3.16365 34.6289C3.46482 32.7399 3.28435 30.9217 2.62224 29.1744C2.54372 28.9682 2.5906 28.9348 2.76286 29.0742L7.38943 32.8483Z" fill="black"/>
<path d="M28.8387 37.8721L31.3787 37.8809C31.4438 37.8809 31.4965 37.9318 31.4983 37.9969L31.5088 39.7037C31.5088 39.7898 31.4385 39.8584 31.3506 39.8584H21.1096C21.0024 39.8584 20.9162 39.7723 20.918 39.6686L20.9285 38.0408C20.9303 37.9512 21.0041 37.8809 21.0973 37.8791L23.611 37.8527C23.6602 37.851 23.7024 37.8123 23.7094 37.7613C23.7328 37.5563 23.7416 37.3506 23.7358 37.1443C23.7358 37.1268 23.7405 37.033 23.7498 36.8631C23.7616 36.6357 23.6561 36.5402 23.4334 36.5766C23.3737 36.5854 23.3174 36.5678 23.291 36.5291C23.2172 36.4189 23.2078 36.2988 23.2629 36.1687C23.2823 36.1213 23.3315 36.0896 23.3895 36.0896L29.0479 36.0791C29.1059 36.0791 29.1551 36.109 29.1762 36.1564C29.2348 36.2947 29.2225 36.4189 29.1393 36.5291C29.1112 36.5678 29.0549 36.5871 28.9951 36.5766C28.7713 36.5426 28.6635 36.6404 28.6717 36.8701C28.6811 37.0904 28.6858 37.2076 28.6858 37.2217C28.6799 37.4115 28.6957 37.599 28.7332 37.7842C28.7438 37.8352 28.7877 37.8703 28.8387 37.8721ZM28.2129 36.9316C28.2129 36.8736 28.1655 36.8262 28.1074 36.8262H24.3633C24.3053 36.8262 24.2578 36.8736 24.2578 36.9316V37.7754C24.2578 37.8334 24.3053 37.8809 24.3633 37.8809H28.1074C28.1655 37.8809 28.2129 37.8334 28.2129 37.7754V36.9316Z" fill="black"/>
<path d="M31.4 40.21H21.0289C20.9687 40.21 20.9199 40.2588 20.9199 40.3189V43.0471C20.9199 43.1073 20.9687 43.1561 21.0289 43.1561H31.4C31.4602 43.1561 31.509 43.1073 31.509 43.0471V40.3189C31.509 40.2588 31.4602 40.21 31.4 40.21Z" fill="black"/>
</svg>
