<svg width="45" height="45" viewBox="0 0 45 45" fill="none" xmlns="http://www.w3.org/2000/svg">
<path d="M26.7545 18.8156L26.7194 24.7148C26.7176 24.8733 26.781 25.026 26.8957 25.1394C27.0104 25.2528 27.1671 25.3176 27.3311 25.3195L33.0053 25.3476C33.1156 25.3476 33.2233 25.3771 33.3164 25.4329C33.4095 25.4888 33.4844 25.5688 33.5327 25.6641C33.8186 26.2172 33.9124 26.7469 33.8139 27.2531C33.7939 27.3606 33.7996 27.4712 33.8305 27.5773C33.8613 27.6834 33.9167 27.7826 33.9928 27.8681C34.0689 27.9535 34.1639 28.0232 34.2714 28.0724C34.3788 28.1216 34.4962 28.1491 34.6155 28.1531L37.9835 28.2445C38.085 28.2466 38.1902 28.2753 38.2921 28.3287C38.3939 28.382 38.49 28.4588 38.5741 28.5539L43.3342 34.0453C43.4882 34.2219 43.5709 34.4451 43.5663 34.6711L43.4889 40.1273C43.4866 40.2432 43.4507 40.3539 43.387 40.4418C43.3233 40.5297 43.2354 40.5898 43.1374 40.6125L41.7874 40.9008C41.6686 40.9248 41.5603 40.9657 41.4703 41.0205C41.3802 41.0752 41.3108 41.1424 41.267 41.2172C39.4483 44.2969 37.1608 44.2594 34.4045 41.1047C34.3138 41.003 34.2029 40.9216 34.0794 40.8659C33.9558 40.8102 33.8222 40.7813 33.6874 40.7812C32.1452 40.7812 30.4858 40.7812 28.7092 40.7812C28.6764 40.7812 28.4045 40.8047 27.8936 40.8515C27.2749 40.9031 26.9045 40.6734 26.7827 40.1625C26.7605 40.0688 26.7597 39.9714 26.7803 39.8773C26.801 39.7833 26.8427 39.6952 26.9021 39.6195C26.9616 39.5438 27.0374 39.4825 27.1238 39.4402C27.2103 39.3978 27.3052 39.3756 27.4014 39.375H31.7467C31.9052 39.375 32.0573 39.312 32.1693 39.1999C32.2814 39.0879 32.3444 38.9358 32.3444 38.7773V27.2391C32.3444 27.0992 32.2888 26.9651 32.1899 26.8662C32.091 26.7673 31.9569 26.7117 31.817 26.7117L23.4217 26.6836C23.2982 26.6837 23.1798 26.6624 23.0743 26.6212C22.9689 26.5799 22.8788 26.5197 22.81 26.4445C22.2475 25.8305 22.8733 25.4039 24.6874 25.1648C24.8499 25.144 24.9992 25.0673 25.1069 24.9493C25.2145 24.8313 25.2729 24.6803 25.271 24.525L25.1725 17.7539C25.1704 17.6482 25.1363 17.544 25.0742 17.4533C25.012 17.3625 24.9243 17.2888 24.821 17.2406L15.7928 12.9726C15.6941 12.9244 15.5848 12.8993 15.4728 12.8993C15.3609 12.8993 15.2492 12.9244 15.146 12.9726L5.40064 17.5359C5.25741 17.6031 5.13633 17.7109 5.05163 17.8466C4.96693 17.9824 4.92214 18.1405 4.92252 18.3023C4.92252 22.807 4.92252 27.1008 4.92252 31.1836C4.92252 31.5586 4.86158 31.8492 4.73971 32.0555C4.47721 32.5008 4.15377 32.4984 3.76939 32.0484C3.6336 31.8899 3.5586 31.6674 3.55846 31.4226L3.51627 18.8719C3.51635 18.8207 3.50312 18.7703 3.47788 18.7258C3.45264 18.6812 3.41625 18.644 3.37229 18.6178C3.32833 18.5916 3.2783 18.5772 3.22712 18.5761C3.17593 18.5751 3.12535 18.5873 3.08033 18.6117C1.90377 19.2445 1.32252 18.9797 1.33658 17.8172C1.33658 17.7187 1.32486 17.2125 1.30142 16.2984C1.28267 15.4219 1.67408 14.8265 2.47564 14.5125C3.03814 14.2922 3.34049 14.1703 3.38267 14.1469C5.00924 13.3219 6.64986 12.5226 8.30455 11.7492C8.52156 11.6453 8.75341 11.6226 8.95142 11.6859C9.70142 11.9203 9.69205 12.3469 8.9233 12.9656C8.31392 13.4484 6.53033 14.3062 3.57252 15.539C3.26783 15.6656 3.05221 15.8086 2.92564 15.968C2.68658 16.268 2.71939 16.5187 3.02408 16.7203C3.10706 16.776 3.20995 16.806 3.32232 16.8073C3.43469 16.8085 3.55254 16.7809 3.66392 16.7273L14.2319 11.714C14.444 11.6148 14.6077 11.4436 14.6889 11.2359C15.0264 10.4015 14.7428 10.2094 13.8381 10.6594C13.196 10.9828 12.5561 11.3039 11.9186 11.6226C11.6971 11.7312 11.461 11.7588 11.2577 11.7C10.4608 11.4703 10.4585 11.0273 11.2506 10.3711C11.7756 9.93514 13.1303 9.32811 15.3147 8.54999C15.526 8.47804 15.7586 8.49321 15.9616 8.59217C19.8288 10.4484 23.7124 12.2789 27.6124 14.0836C27.6452 14.0976 27.8749 14.1867 28.3014 14.3508C29.1686 14.6836 29.6092 15.3047 29.6233 16.214C29.6327 16.9031 29.6256 17.4586 29.6022 17.8805C29.5506 18.8883 28.8241 19.0617 27.4225 18.4008C27.351 18.3678 27.2723 18.3529 27.1937 18.3577C27.1151 18.3624 27.0391 18.3865 26.9727 18.4277C26.9062 18.469 26.8514 18.5262 26.8133 18.5939C26.7752 18.6617 26.755 18.7379 26.7545 18.8156ZM28.3042 16.2297C28.3258 16.1843 28.3286 16.1321 28.3117 16.0846C28.2949 16.0372 28.26 15.9983 28.2145 15.9767L16.5881 10.4311C16.5426 10.4095 16.4904 10.4067 16.443 10.4235C16.3955 10.4404 16.3567 10.4753 16.335 10.5208L16.0081 11.2062C15.9864 11.2516 15.9837 11.3038 16.0005 11.3513C16.0173 11.3987 16.0523 11.4376 16.0977 11.4592L27.7242 17.0048C27.7696 17.0265 27.8218 17.0292 27.8692 17.0124C27.9167 16.9956 27.9555 16.9606 27.9772 16.9151L28.3042 16.2297ZM35.8952 35.114C35.6994 35.114 35.5116 35.034 35.3731 34.8916C35.2347 34.7492 35.1569 34.5561 35.1569 34.3547V30.2344C35.1568 30.1125 35.1361 29.9958 35.0961 29.8917C35.0562 29.7876 34.9978 29.6983 34.9249 29.6297C34.5124 29.2406 34.1842 29.2406 33.9405 29.6297C33.8139 29.8312 33.7506 30.1336 33.7506 30.5367C33.7506 33.0914 33.7506 35.8195 33.7506 38.7211C33.7506 39.4758 33.992 39.5648 34.4749 38.9883C37.142 35.7961 39.3991 35.8265 41.246 39.0797C41.4241 39.389 41.6397 39.4922 41.8928 39.389C41.979 39.3564 42.0536 39.287 42.1065 39.1901C42.1593 39.0933 42.1878 38.9737 42.1881 38.8476V35.6133C42.1881 35.4921 42.1392 35.3758 42.0522 35.2901C41.9652 35.2044 41.8472 35.1562 41.7241 35.1562L35.8952 35.114ZM37.66 29.6578C36.985 28.9594 36.6452 29.0648 36.6405 29.9742V33.2648C36.6412 33.3627 36.6811 33.4581 36.7531 33.534C36.8252 33.6099 36.9247 33.6615 37.0342 33.6797C37.4795 33.75 37.9296 33.7828 38.3842 33.7781C38.8108 33.7781 39.2397 33.7922 39.671 33.8203C41.26 33.9281 41.4405 33.3914 40.2124 32.2101C39.3452 31.3758 38.4944 30.525 37.66 29.6578ZM40.0155 40.0992C40.0155 39.5528 39.7984 39.0288 39.4121 38.6425C39.0257 38.2561 38.5017 38.039 37.9553 38.039C37.4089 38.039 36.8849 38.2561 36.4986 38.6425C36.1122 39.0288 35.8952 39.5528 35.8952 40.0992C35.8952 40.6456 36.1122 41.1696 36.4986 41.556C36.8849 41.9423 37.4089 42.1594 37.9553 42.1594C38.5017 42.1594 39.0257 41.9423 39.4121 41.556C39.7984 41.1696 40.0155 40.6456 40.0155 40.0992Z" fill="black"/>
<path d="M36.4355 22.3664C36.6446 22.5433 36.9126 22.635 37.1862 22.6233C37.4598 22.6116 37.7189 22.4973 37.9121 22.3031C40.1527 20.0438 41.0176 17.7047 40.5066 15.2859C40.4826 15.1635 40.4814 15.0423 40.5034 14.9315C40.5253 14.8206 40.5697 14.723 40.6332 14.6461C40.966 14.2383 41.2965 14.2711 41.6246 14.7445C41.7652 14.9508 41.859 15.2156 41.9058 15.5391C42.3512 18.5203 41.2215 21.2531 38.5168 23.7375C37.7762 24.4172 36.9863 24.4828 36.1473 23.9344C34.8769 23.1 33.8105 21.7055 32.948 19.7508C32.3902 18.4899 32.2355 17.2383 32.484 15.9961C32.7371 14.7399 33.3582 13.7274 34.3473 12.9586C35.6973 11.9086 37.3098 11.7234 39.1848 12.4031C39.2973 12.4429 39.3988 12.5017 39.4824 12.5757C39.566 12.6496 39.6299 12.7369 39.6699 12.832C39.848 13.2774 39.7051 13.5539 39.241 13.6617C39.0535 13.7039 38.7933 13.6899 38.4605 13.6195C36.4121 13.1695 35.0199 13.6805 34.284 15.1523C33.7355 16.2445 33.7098 17.5219 34.2066 18.9844C34.6801 20.3813 35.423 21.5086 36.4355 22.3664Z" fill="black"/>
<path d="M39.3191 16.8891C39.3191 17.1587 39.266 17.4257 39.1629 17.6748C39.0597 17.9239 38.9084 18.1502 38.7178 18.3408C38.5271 18.5315 38.3008 18.6827 38.0517 18.7859C37.8026 18.8891 37.5356 18.9422 37.266 18.9422C36.9964 18.9422 36.7294 18.8891 36.4803 18.7859C36.2312 18.6827 36.0049 18.5315 35.8142 18.3408C35.6236 18.1502 35.4724 17.9239 35.3692 17.6748C35.266 17.4257 35.2129 17.1587 35.2129 16.8891C35.2129 16.3445 35.4292 15.8223 35.8142 15.4373C36.1993 15.0522 36.7215 14.8359 37.266 14.8359C37.8105 14.8359 38.3328 15.0522 38.7178 15.4373C39.1028 15.8223 39.3191 16.3445 39.3191 16.8891ZM37.9762 16.875C37.9762 16.6867 37.9013 16.506 37.7682 16.3728C37.635 16.2397 37.4544 16.1648 37.266 16.1648C37.0777 16.1648 36.897 16.2397 36.7639 16.3728C36.6307 16.506 36.5559 16.6867 36.5559 16.875C36.5559 17.0633 36.6307 17.244 36.7639 17.3772C36.897 17.5103 37.0777 17.5852 37.266 17.5852C37.4544 17.5852 37.635 17.5103 37.7682 17.3772C37.9013 17.244 37.9762 17.0633 37.9762 16.875Z" fill="black"/>
<path d="M18.9647 21.8213C18.9641 21.9127 18.9455 22.0031 18.9099 22.0874C18.8743 22.1716 18.8225 22.2479 18.7574 22.3121C18.6923 22.3763 18.6152 22.4271 18.5305 22.4615C18.4458 22.4958 18.3552 22.5132 18.2638 22.5126L12.6249 22.4732C12.5334 22.4726 12.443 22.4539 12.3588 22.4184C12.2746 22.3828 12.1982 22.331 12.1341 22.2659C12.0699 22.2008 12.0191 22.1237 11.9847 22.039C11.9503 21.9543 11.933 21.8637 11.9336 21.7723L11.973 16.1333C11.9736 16.0419 11.9923 15.9515 12.0278 15.8673C12.0634 15.7831 12.1152 15.7067 12.1803 15.6425C12.2454 15.5784 12.3225 15.5276 12.4072 15.4932C12.4919 15.4588 12.5825 15.4415 12.6739 15.4421L18.3129 15.4815C18.4043 15.4821 18.4947 15.5007 18.5789 15.5363C18.6631 15.5719 18.7395 15.6237 18.8037 15.6888C18.8678 15.7539 18.9186 15.831 18.953 15.9157C18.9874 16.0004 19.0047 16.091 19.0041 16.1824L18.9647 21.8213ZM13.4298 17.2406C13.1392 17.9953 13.3946 18.3422 14.1962 18.2812C14.3053 18.2732 14.41 18.2347 14.4983 18.17C14.5865 18.1054 14.6548 18.0172 14.6954 17.9156C14.986 17.1609 14.7306 16.8141 13.929 16.875C13.8199 16.883 13.7152 16.9215 13.627 16.9862C13.5387 17.0508 13.4704 17.139 13.4298 17.2406ZM17.1212 17.0578C16.1603 16.725 15.9071 17.0297 16.3618 17.9719C16.4105 18.0713 16.4835 18.1555 16.5728 18.215C16.6621 18.2745 16.7643 18.3072 16.8681 18.3094C17.4681 18.3094 17.7001 18.0445 17.5642 17.5148C17.5384 17.4134 17.4845 17.3186 17.4072 17.2389C17.3299 17.1591 17.2317 17.0969 17.1212 17.0578ZM14.7306 20.6227C14.9134 19.8398 14.6134 19.5398 13.8306 19.7226C13.7251 19.7456 13.6282 19.7988 13.551 19.8759C13.4738 19.9531 13.4196 20.0511 13.3946 20.1586C13.2118 20.9367 13.5118 21.2367 14.2946 21.0586C14.4001 21.0356 14.497 20.9825 14.5742 20.9053C14.6514 20.8281 14.7056 20.7301 14.7306 20.6227ZM17.1071 19.7226C16.329 19.5398 16.029 19.8398 16.2071 20.6227C16.2301 20.7281 16.2833 20.825 16.3604 20.9022C16.4376 20.9794 16.5356 21.0336 16.6431 21.0586C17.4259 21.2414 17.7259 20.9414 17.5431 20.1586C17.5201 20.0531 17.4669 19.9562 17.3898 19.879C17.3126 19.8019 17.2146 19.7476 17.1071 19.7226Z" fill="black"/>
<path d="M11.1375 42.4617C11.1248 42.7664 10.994 43.0544 10.7725 43.2654C10.551 43.4764 10.256 43.5941 9.94922 43.5937H2.27812C2.16363 43.5937 2.05025 43.5712 1.94447 43.5274C1.83869 43.4836 1.74258 43.4193 1.66162 43.3384C1.58066 43.2574 1.51643 43.1613 1.47262 43.0555C1.4288 42.9497 1.40625 42.8364 1.40625 42.7219V34.5164C1.40625 34.3131 1.487 34.1182 1.63073 33.9745C1.77445 33.8307 1.96939 33.75 2.17266 33.75H9.37969C9.50276 33.75 9.6208 33.7011 9.70783 33.6141C9.79486 33.527 9.84375 33.409 9.84375 33.2859C9.84375 32.3062 9.79688 31.3523 9.70312 30.4242C9.56719 29.0789 10.5305 28.6125 12.593 29.025C12.7393 29.0549 12.8913 29.047 13.0398 29.0018C13.1884 28.9566 13.3304 28.875 13.4572 28.7619C13.5841 28.6489 13.6931 28.5067 13.7778 28.3441C13.8625 28.1814 13.9211 28.0016 13.95 27.8156L14.2664 25.7836C14.2806 25.688 14.3337 25.5996 14.4169 25.5331C14.5001 25.4665 14.6082 25.4259 14.7234 25.418C16.4344 25.2867 18.1477 25.2398 19.8633 25.2773C21.082 25.3055 21.3937 25.6969 20.7984 26.4515C20.7328 26.5348 20.6461 26.6022 20.545 26.6485C20.4439 26.6948 20.331 26.7188 20.2148 26.7187H15.9328C15.8719 26.7187 15.8115 26.7307 15.7552 26.7541C15.6989 26.7774 15.6478 26.8116 15.6047 26.8547C15.5616 26.8978 15.5274 26.9489 15.5041 27.0052C15.4808 27.0615 15.4688 27.1219 15.4688 27.1828V38.5312C15.469 38.7387 15.5403 38.9397 15.6708 39.1009C15.8013 39.2621 15.9831 39.3738 16.1859 39.4172C17.2078 39.6281 18.0187 39.3516 18.6187 38.5875C19.0922 37.9922 19.3336 37.6875 19.343 37.6734C21.1195 35.9484 22.8609 36.0609 24.5672 38.0109C25.3125 38.8687 25.5352 39.8109 25.2352 40.8375C24.9773 41.7047 24.4594 42.4219 23.6812 42.9891C22.6266 43.7625 21.4992 43.8117 20.2992 43.1367C20.2383 43.1039 19.7133 42.5883 18.7242 41.5898C17.9133 40.7695 16.793 40.507 15.3633 40.8023C15.1313 40.852 14.8842 40.7903 14.6743 40.6303C14.4644 40.4702 14.308 40.2243 14.2383 39.9445L13.8375 38.3273C13.8148 38.2351 13.7535 38.1481 13.6611 38.0769C13.5688 38.0058 13.4493 37.9535 13.3172 37.9265C11.85 37.6172 11.1398 38.1281 11.1867 39.4594C11.2102 40.2516 11.2219 40.6641 11.2219 40.6969C11.1891 41.3766 11.1609 41.9648 11.1375 42.4617ZM14.0625 30.6562C14.0625 30.5443 14.0181 30.437 13.9389 30.3579C13.8598 30.2788 13.7525 30.2344 13.6406 30.2344H11.6719C11.56 30.2344 11.4527 30.2788 11.3736 30.3579C11.2944 30.437 11.25 30.5443 11.25 30.6562V36.1406C11.25 36.2525 11.2944 36.3598 11.3736 36.4389C11.4527 36.518 11.56 36.5625 11.6719 36.5625H13.6406C13.7525 36.5625 13.8598 36.518 13.9389 36.4389C14.0181 36.3598 14.0625 36.2525 14.0625 36.1406V30.6562ZM9.30234 35.0859C8.67891 34.8094 8.42109 35.0062 8.52891 35.6766C8.82891 37.6078 7.71562 38.332 5.18906 37.8492C4.87726 37.7911 4.60033 37.6134 4.41668 37.3536C4.23304 37.0939 4.15703 36.7724 4.20469 36.457C4.36875 35.393 4.06172 34.9641 3.28359 35.1703C3.18429 35.1973 3.09504 35.2559 3.02736 35.3386C2.95968 35.4214 2.91668 35.5244 2.90391 35.6344C2.69766 37.6922 2.72578 39.743 2.98828 41.7867C3.0003 41.8876 3.04704 41.9805 3.11961 42.0479C3.19219 42.1153 3.28557 42.1525 3.38203 42.1523L8.87344 42.1875C9.13078 42.1875 9.37758 42.0838 9.55955 41.8992C9.74152 41.7146 9.84375 41.4642 9.84375 41.2031C9.84375 39.525 9.84375 38.0203 9.84375 36.6891C9.84375 36.6516 9.86484 36.4523 9.90703 36.0914C9.95859 35.6226 9.75703 35.2875 9.30234 35.0859ZM6.15938 36.4922C6.75 36.7312 7.04766 36.5203 7.05234 35.8594C7.05273 35.7517 7.02263 35.6459 6.96547 35.5539C6.90831 35.462 6.82637 35.3875 6.72891 35.339C5.95547 34.964 5.63672 35.1844 5.77266 36C5.78988 36.1113 5.83474 36.2155 5.90267 36.3019C5.9706 36.3884 6.05917 36.454 6.15938 36.4922ZM23.85 40.0922C23.85 39.5439 23.6322 39.0181 23.2445 38.6305C22.8569 38.2428 22.3311 38.025 21.7828 38.025C21.5113 38.025 21.2425 38.0785 20.9917 38.1823C20.7409 38.2862 20.513 38.4385 20.3211 38.6305C20.1291 38.8224 19.9769 39.0503 19.873 39.3011C19.7691 39.5519 19.7156 39.8207 19.7156 40.0922C19.7156 40.3636 19.7691 40.6325 19.873 40.8833C19.9769 41.1341 20.1291 41.3619 20.3211 41.5539C20.513 41.7459 20.7409 41.8981 20.9917 42.002C21.2425 42.1059 21.5113 42.1594 21.7828 42.1594C22.3311 42.1594 22.8569 41.9416 23.2445 41.5539C23.6322 41.1662 23.85 40.6404 23.85 40.0922Z" fill="black"/>
<path d="M26.7347 28.8499L18.2973 28.8204C17.9206 28.8191 17.6142 29.1234 17.6129 29.5001L17.6128 29.5282C17.6114 29.9049 17.9157 30.2113 18.2924 30.2126L26.7298 30.2421C27.1065 30.2434 27.4129 29.9391 27.4143 29.5624L27.4144 29.5343C27.4157 29.1576 27.1114 28.8512 26.7347 28.8499Z" fill="black"/>
<path d="M28.8441 31.6612L21.1098 31.6342C20.7331 31.6328 20.4267 31.9371 20.4254 32.3138L20.4253 32.3419C20.4239 32.7186 20.7282 33.025 21.1049 33.0263L28.8392 33.0533C29.2159 33.0546 29.5223 32.7504 29.5236 32.3737L29.5237 32.3456C29.5251 31.9689 29.2208 31.6625 28.8441 31.6612Z" fill="black"/>
<path d="M30.2433 34.4688L25.3215 34.4516C24.9487 34.4503 24.6454 34.7514 24.6441 35.1242L24.644 35.1664C24.6427 35.5392 24.9438 35.8425 25.3166 35.8438L30.2385 35.8609C30.6113 35.8622 30.9145 35.5611 30.9158 35.1883L30.916 35.1461C30.9173 34.7733 30.6161 34.4701 30.2433 34.4688Z" fill="black"/>
<path d="M22.3875 40.043C22.2985 40.4273 22.1133 40.6547 21.8321 40.725C21.7378 40.7479 21.6338 40.7368 21.5327 40.6931C21.4315 40.6494 21.3376 40.575 21.2625 40.4789C20.8219 39.9023 20.9953 39.5461 21.7828 39.4101C21.868 39.3954 21.9556 39.4019 22.0377 39.429C22.1198 39.4561 22.194 39.503 22.2537 39.5655C22.3135 39.628 22.3569 39.7043 22.3802 39.7875C22.4036 39.8708 22.4061 39.9585 22.3875 40.043Z" fill="black"/>
<path d="M38.4337 39.7617C38.8837 40.2867 38.7712 40.5797 38.0962 40.6406C37.9866 40.6493 37.877 40.6307 37.7774 40.5864C37.6778 40.5422 37.5916 40.4737 37.5267 40.3875C37.1564 39.9 37.2619 39.614 37.8431 39.5297C37.9505 39.5144 38.0609 39.5276 38.1642 39.5682C38.2675 39.6088 38.3602 39.6753 38.4337 39.7617Z" fill="black"/>
</svg>
