<svg width="45" height="45" viewBox="0 0 45 45" fill="none" xmlns="http://www.w3.org/2000/svg">
<path d="M17.229 13.6898C19.5031 13.6898 21.3467 11.8463 21.3467 9.57214C21.3467 7.29801 19.5031 5.45447 17.229 5.45447C14.9549 5.45447 13.1113 7.29801 13.1113 9.57214C13.1113 11.8463 14.9549 13.6898 17.229 13.6898Z" fill="black"/>
<path d="M6.49238 21.4339C6.46426 21.4632 6.45664 21.4878 6.46953 21.5077C6.47553 21.5164 6.48622 21.5221 6.49982 21.5239C6.51342 21.5256 6.5291 21.5233 6.54424 21.5174C7.84151 21.01 9.14082 20.5075 10.4422 20.01C10.8664 19.8477 11.2095 19.759 11.4714 19.7437C12.2208 19.6992 12.8337 19.9523 13.3101 20.5031C13.4835 20.7029 13.6675 21.0328 13.862 21.4928C15.1188 24.467 16.3675 27.4447 17.6079 30.426C17.7983 30.8824 17.8499 31.3342 17.7626 31.7812C17.6776 32.2183 17.4796 32.6045 17.1685 32.9396C16.8726 33.2578 16.5104 33.4702 16.0821 33.5768C15.6837 33.6765 15.2803 33.6668 14.8719 33.5478C14.3369 33.3926 13.9191 33.0893 13.6186 32.6382C13.54 32.5204 13.335 32.0692 13.0033 31.2847C12.1197 29.1905 11.2458 27.1049 10.3815 25.0277C10.3736 25.0083 10.3583 24.9929 10.3389 24.9847C10.3195 24.9764 10.2976 24.9761 10.2778 24.9838C8.82881 25.5516 7.37803 26.1053 5.92549 26.6449C5.50947 26.799 5.17871 26.8781 4.93321 26.8822C4.48906 26.8898 4.07686 26.775 3.69658 26.5377C3.50733 26.4187 3.27793 26.2383 3.0084 25.9963C2.26074 25.3248 1.90244 24.4597 1.9335 23.4009C1.94697 22.9433 1.99912 22.5612 2.08994 22.2548C2.24639 21.7263 2.4169 21.2024 2.60147 20.6833C3.66084 17.702 5.31875 15.1345 7.5752 12.9806C8.06914 12.5089 8.66211 12.1641 9.3541 11.9461C10.4803 11.5916 11.5279 11.6982 12.4971 12.266C12.8586 12.4781 13.1319 12.7699 13.3171 13.1414C13.4712 13.4508 13.5553 13.8264 13.5693 14.2682C13.5945 15.068 13.3956 15.8323 12.9726 16.5612C12.9386 16.6192 12.9122 16.616 12.8935 16.5516C12.7792 16.1666 12.7101 15.7725 12.686 15.3694C12.6597 14.9165 12.6301 14.6338 12.5973 14.5213C12.4391 13.9781 12.0869 13.5891 11.5408 13.3541C11.3234 13.2603 11.0879 13.2146 10.8342 13.217C10.6033 13.2193 10.3739 13.2694 10.146 13.3673C9.60694 13.5993 9.25947 13.9799 9.10361 14.509C9.00694 14.8377 8.99229 15.3187 9.05967 15.9521C9.19736 17.2465 9.58174 18.472 10.2128 19.6286C10.217 19.6363 10.2194 19.6447 10.22 19.6535C10.2206 19.6622 10.2193 19.6709 10.2163 19.6792C10.2132 19.6874 10.2084 19.6949 10.2022 19.7012C10.196 19.7075 10.1885 19.7124 10.1803 19.7156L6.84219 21.0067C6.80437 21.0215 6.76987 21.0437 6.74073 21.0721C6.71159 21.1004 6.68841 21.1344 6.67256 21.172C6.63506 21.2622 6.575 21.3495 6.49238 21.4339Z" fill="black"/>
<path d="M17.6919 22.4965C18.4613 22.9266 19.0091 23.2061 19.3355 23.335C19.8763 23.5483 20.1986 23.9291 20.3023 24.4776C20.355 24.7553 20.3289 25.0213 20.2241 25.2756C20.128 25.5088 19.9701 25.711 19.7503 25.882C19.4005 26.1545 19.0138 26.248 18.5902 26.1624C18.4144 26.1267 18.0675 25.984 17.5495 25.7344C16.9097 25.4262 16.2748 25.0773 15.645 24.6876C15.6101 24.6665 15.583 24.6348 15.5676 24.5971C15.0883 23.4264 14.5961 22.2656 14.0911 21.1149C13.9118 20.7065 13.7366 20.4088 13.5655 20.2219C13.2192 19.8445 12.7838 19.5873 12.2594 19.4502C11.6975 19.3031 11.1655 19.3313 10.6633 19.5346C10.6437 19.5426 10.6218 19.543 10.6019 19.5359C10.5819 19.5288 10.5653 19.5145 10.5552 19.4959C9.81752 18.1354 9.4264 16.7051 9.38187 15.2051C9.37133 14.8588 9.4431 14.5559 9.5972 14.2963C9.75013 14.0385 9.97045 13.8402 10.2581 13.7013C10.6601 13.5079 11.0767 13.5202 11.5079 13.7382C12.0218 13.9989 12.2878 14.4281 12.306 15.0258C12.313 15.2596 12.3168 15.3794 12.3174 15.3853C12.4094 16.4599 12.7402 17.4709 13.3097 18.4184C13.663 19.0061 14.0512 19.5264 14.4743 19.9793C15.4159 20.9848 16.4884 21.8238 17.6919 22.4965Z" fill="black"/>
<path d="M6.5106 27.8209L5.43833 27.3305C5.39556 27.3111 5.39585 27.293 5.43921 27.276L10.0807 25.454C10.1 25.4464 10.1214 25.4467 10.1405 25.4547C10.1595 25.4628 10.1747 25.478 10.1827 25.4971L12.4766 30.9929C12.4791 30.999 12.4803 31.0056 12.4801 31.0123C12.4798 31.0189 12.4782 31.0254 12.4753 31.0313C12.4724 31.0372 12.4682 31.0424 12.4632 31.0466C12.4581 31.0507 12.4522 31.0537 12.4459 31.0553C9.7312 31.7771 7.02915 32.4829 4.3397 33.1725C3.84458 33.2997 3.48072 33.3609 3.2481 33.3562C2.85025 33.348 2.48638 33.2455 2.1565 33.0486C1.71294 32.7844 1.38863 32.4102 1.18355 31.9263C0.971438 31.4259 0.957961 30.8985 1.14312 30.3442C1.4021 29.5673 1.95698 29.0678 2.80777 28.8457C4.02769 28.5275 5.25991 28.2053 6.50445 27.8789C6.5607 27.8642 6.56275 27.8449 6.5106 27.8209Z" fill="black"/>
<path d="M28.2523 34.0726L27.0957 34.3793C27.0811 34.3832 27.0682 34.3907 27.0585 34.4007C27.0487 34.4107 27.0427 34.4229 27.0412 34.4356L27.0034 34.7344C27.0004 34.7593 26.9905 34.7824 26.9751 34.8002C26.9597 34.818 26.9397 34.8295 26.9182 34.8328L16.3317 36.4843C16.3193 36.4862 16.3067 36.4835 16.2966 36.4767C16.2866 36.47 16.2799 36.4597 16.2781 36.4482L16.0865 35.2283C16.0844 35.214 16.0882 35.1994 16.0973 35.1877C16.1064 35.176 16.1199 35.1682 16.1349 35.1659L30.6122 32.8957C30.6313 32.8927 30.6508 32.8975 30.6665 32.909C30.6821 32.9206 30.6926 32.9379 30.6957 32.9572L30.8803 34.1402C30.8818 34.1498 30.8815 34.1595 30.8793 34.1689C30.8771 34.1783 30.8731 34.1871 30.8676 34.1949C30.862 34.2027 30.855 34.2092 30.8469 34.2142C30.8388 34.2191 30.8298 34.2224 30.8205 34.2237L28.6268 34.5665C28.6039 34.5703 28.5804 34.5665 28.5596 34.5558C28.5389 34.545 28.5221 34.5278 28.5116 34.5067L28.3147 34.1024C28.3091 34.0908 28.2998 34.0814 28.2884 34.076C28.277 34.0705 28.2642 34.0693 28.2523 34.0726Z" fill="black"/>
<path d="M31.6664 34.607C31.5352 34.6152 31.4854 34.5513 31.517 34.4154C31.5463 34.2894 31.5783 34.164 31.6128 34.0392C31.6168 34.0252 31.6239 34.0127 31.6334 34.0031C31.6429 33.9934 31.6543 33.9871 31.6664 33.9847L32.3502 33.8581C32.3643 33.8554 32.3788 33.8561 32.3924 33.8601C32.406 33.8641 32.4184 33.8712 32.4285 33.881L32.6965 34.1429C32.7158 34.1616 32.7272 34.187 32.7283 34.2139C32.7295 34.2409 32.7203 34.2673 32.7027 34.2879L32.4188 34.6193C32.4103 34.6291 32.3991 34.6369 32.3862 34.6421C32.3733 34.6473 32.3589 34.6497 32.3441 34.6491C32.1847 34.6439 32.0262 34.6295 31.8686 34.6061C31.8293 34.6008 31.762 34.6011 31.6664 34.607Z" fill="black"/>
<path d="M14.803 35.3101H0.12002C0.0904097 35.3101 0.0664062 35.3341 0.0664062 35.3637V36.5959C0.0664062 36.6255 0.0904097 36.6495 0.12002 36.6495H14.803C14.8326 36.6495 14.8566 36.6255 14.8566 36.5959V35.3637C14.8566 35.3341 14.8326 35.3101 14.803 35.3101Z" fill="black"/>
<path d="M44.9084 35.3101H30.1691C30.1555 35.3101 30.1445 35.3211 30.1445 35.3347V36.6249C30.1445 36.6385 30.1555 36.6495 30.1691 36.6495H44.9084C44.922 36.6495 44.933 36.6385 44.933 36.6249V35.3347C44.933 35.3211 44.922 35.3101 44.9084 35.3101Z" fill="black"/>
<path d="M27.1626 36.1301C27.1297 35.9865 27.1374 35.8442 27.1854 35.7029C27.19 35.6902 27.1977 35.6787 27.2078 35.6696C27.2179 35.6604 27.2301 35.6537 27.2434 35.6502L28.3693 35.3567C28.3886 35.3517 28.4089 35.3533 28.4267 35.3611C28.4445 35.369 28.4587 35.3826 28.4668 35.3997L28.6787 35.8524C28.6842 35.8646 28.6861 35.8782 28.6843 35.8919C28.6824 35.9055 28.6768 35.9186 28.6681 35.9297L28.1961 36.5291C28.188 36.5395 28.1767 36.547 28.164 36.5505C28.1514 36.554 28.138 36.5532 28.1258 36.5484L27.2135 36.1907C27.2011 36.1859 27.1899 36.1778 27.181 36.1673C27.1721 36.1567 27.1658 36.1439 27.1626 36.1301Z" fill="black"/>
<path d="M23.788 36.5897C23.7824 36.5892 23.7769 36.5874 23.7721 36.5845C23.7672 36.5816 23.763 36.5776 23.7596 36.5729C23.7563 36.5682 23.754 36.5628 23.7528 36.5571C23.7517 36.5513 23.7517 36.5454 23.7528 36.5396L23.8469 36.08C23.8525 36.0524 23.8664 36.0272 23.8867 36.0077C23.9069 35.9882 23.9326 35.9754 23.9602 35.971L24.6054 35.8717C24.6207 35.8695 24.6358 35.8702 24.6493 35.8737C24.6629 35.8772 24.6746 35.8834 24.6836 35.8919L24.9683 36.1679C24.9842 36.1836 24.9931 36.2053 24.9933 36.2289C24.9935 36.2525 24.9849 36.2761 24.9692 36.2953L24.6968 36.6319C24.6875 36.643 24.6764 36.6518 24.6643 36.6575C24.6522 36.6632 24.6395 36.6655 24.6273 36.6644L23.788 36.5897Z" fill="black"/>
<path d="M44.8774 37.2225H0.123535C0.0919837 37.2225 0.0664062 37.2481 0.0664062 37.2797V39.5595C0.0664062 39.5911 0.0919837 39.6167 0.123535 39.6167H44.8774C44.909 39.6167 44.9346 39.5911 44.9346 39.5595V37.2797C44.9346 37.2481 44.909 37.2225 44.8774 37.2225Z" fill="black"/>
</svg>
