<svg width="45" height="45" viewBox="0 0 45 45" fill="none" xmlns="http://www.w3.org/2000/svg">
<g clip-path="url(#clip0_731_357)">
<path d="M7.77637 2.44137e-05H9.53419C15.4967 0.822681 13.8443 8.51487 11.3482 11.5805C10.6123 12.4852 10.8256 12.9469 11.9881 12.9657L17.7959 13.0571C17.9076 13.0588 18.016 13.0163 18.0994 12.9381C18.1828 12.8598 18.2352 12.7517 18.2459 12.6352L19.4553 -0.0140381L44.5147 2.44137e-05C44.7584 0.342212 44.8615 0.810962 44.824 1.40627C43.7459 18.6 42.7076 33.1406 41.7092 45.0281L16.5092 45C16.6123 36.6656 17.0482 28.1039 17.817 19.3149C17.8219 19.2523 17.8145 19.1894 17.7953 19.1304C17.7761 19.0713 17.7455 19.0174 17.7056 18.9722C17.6657 18.9269 17.6174 18.8915 17.5639 18.8682C17.5104 18.8448 17.4528 18.8341 17.3951 18.8367L13.9217 19.0125C13.8176 19.0162 13.719 19.066 13.6468 19.1513C13.5746 19.2366 13.5345 19.3508 13.535 19.4696C13.535 27.0024 13.535 34.4086 13.535 41.6883C13.535 43.2352 13.8514 44.3321 12.0865 45L4.70372 45.1055C3.53653 41.6883 3.22012 37.9735 3.7545 33.961C3.77167 33.8323 3.7426 33.7021 3.67273 33.5947C3.60285 33.4873 3.49695 33.41 3.37481 33.3774C0.646685 32.625 1.63106 31.3805 0.442779 29.461C0.245301 29.1397 0.135499 28.72 0.126373 28.2516L-0.000189632 20.7C-0.0564396 20.2828 -0.0212834 19.875 0.105279 19.4766C-0.541596 15.2016 1.14356 13.0313 5.16075 12.9657C6.30919 12.9469 6.53887 12.4805 5.84981 11.5664C3.48731 8.41643 1.63106 0.731274 7.77637 2.44137e-05ZM42.7779 1.56799C35.5006 1.73674 28.0826 1.53987 20.7982 1.44846C20.7279 1.44828 20.6602 1.47445 20.6092 1.52156C20.5581 1.56868 20.5276 1.63313 20.524 1.70159L17.7537 43.0735C17.7496 43.1429 17.7603 43.2123 17.785 43.2773C17.8097 43.3423 17.8479 43.4013 17.897 43.4505C17.9462 43.4996 18.0052 43.5378 18.0702 43.5625C18.1352 43.5872 18.2046 43.5979 18.274 43.5938C25.5092 43.1649 32.7584 43.9172 39.8811 43.4391C40.0599 43.4276 40.2285 43.3521 40.3553 43.2266C40.4821 43.1011 40.5584 42.9342 40.5701 42.7571L43.2912 2.10237C43.2962 2.03271 43.2864 1.96279 43.2627 1.89713C43.2389 1.83147 43.2017 1.77152 43.1533 1.72115C43.1049 1.67079 43.0465 1.63114 42.9819 1.60476C42.9172 1.57837 42.8477 1.56585 42.7779 1.56799ZM11.4397 2.19377C9.09122 1.35002 7.20215 1.49768 5.77247 2.63674C5.02715 3.23674 5.01309 3.56721 5.73028 3.62815C6.34434 3.6844 6.93497 3.58596 7.50215 3.33284C8.86153 2.72346 10.0451 2.76799 11.0529 3.46643C11.4467 3.74065 11.9951 3.90237 12.0795 3.24846C12.1091 3.02512 12.0618 2.79855 11.9453 2.6066C11.8289 2.41465 11.6504 2.26893 11.4397 2.19377ZM8.19825 11.1094C8.34934 11.187 8.51802 11.2251 8.68879 11.2202C8.85956 11.2153 9.02696 11.1675 9.17559 11.0813C10.9475 10.0641 11.81 8.31565 11.7631 5.83596C11.7608 5.72486 11.7289 5.6166 11.6707 5.52257C11.6125 5.42853 11.5303 5.35219 11.4326 5.30159C9.88575 4.50002 8.05528 4.53752 5.94122 5.41409C5.78277 5.48026 5.64853 5.59402 5.5567 5.73993C5.46488 5.88583 5.41993 6.05683 5.42794 6.22971C5.54044 8.58752 6.46387 10.2141 8.19825 11.1094ZM8.92247 30.2766C9.45684 30.6469 9.70762 31.1461 9.67481 31.7742C9.46856 35.4961 9.44512 39.218 9.6045 42.9399C9.61076 43.0508 9.6439 43.1572 9.70064 43.2485C9.75738 43.3397 9.83574 43.4127 9.92794 43.4602C11.5029 44.2477 12.0936 43.2844 12.0795 41.8289C11.9951 33.9071 11.9951 25.9852 12.0795 18.0633C12.0818 17.9569 12.119 17.8555 12.184 17.7788C12.249 17.7021 12.337 17.6556 12.4311 17.6485L17.2334 17.2266C17.3637 17.2137 17.4838 17.1828 17.584 17.1363C17.6842 17.0899 17.7616 17.0293 17.81 16.9594C18.1568 16.4719 18.2272 15.7992 18.0209 14.9414C17.9972 14.8414 17.9398 14.7522 17.8582 14.6884C17.7765 14.6246 17.6753 14.5899 17.5709 14.5899C14.0412 14.5899 12.4662 15.4125 9.01387 12.7055C8.81867 12.5544 8.57164 12.4866 8.32664 12.5169C8.08165 12.5472 7.85857 12.6731 7.70606 12.8672C6.65606 14.2125 5.25919 14.8524 3.51544 14.7867C3.27184 14.778 3.04797 14.8484 2.88965 14.9836C0.892779 16.636 1.73653 18.6539 1.66622 20.5664C1.57247 23.1305 1.55606 25.6969 1.617 28.2656C1.61935 28.3726 1.65114 28.4759 1.70853 28.5633C1.76592 28.6506 1.84646 28.7182 1.94044 28.7578C3.43106 29.3907 3.8459 28.575 3.78262 27.2321C3.64669 24.2649 3.62559 21.2977 3.71934 18.3305C3.72351 18.2109 3.75178 18.0964 3.80186 17.9962C3.85195 17.896 3.92243 17.813 4.00762 17.7539C5.04825 17.0297 5.27325 18.2672 5.27325 18.9985C5.292 26.9156 5.27794 34.8352 5.23106 42.7571C5.23077 42.8726 5.25729 42.9842 5.30792 43.0806C5.35855 43.1769 5.43149 43.2545 5.51934 43.3055C6.10059 43.643 6.71465 43.7086 7.36153 43.5024C7.45734 43.4721 7.54104 43.4088 7.60047 43.3215C7.6599 43.2343 7.69197 43.1277 7.692 43.0172L7.77637 31.1555C7.78575 30.0539 8.16778 29.761 8.92247 30.2766ZM3.69122 31.4297C3.84122 31.0875 3.8459 30.7922 3.70528 30.5438C3.6531 30.4563 3.56773 30.3907 3.46304 30.3575C3.35835 30.3243 3.24052 30.3255 3.12872 30.361C2.49122 30.5672 2.39044 30.9586 2.82637 31.5352C2.88047 31.6057 2.95206 31.661 3.03393 31.6956C3.11581 31.7301 3.20509 31.7427 3.29277 31.732C3.38046 31.7213 3.46345 31.6877 3.5334 31.6347C3.60335 31.5816 3.65778 31.5109 3.69122 31.4297Z" fill="black"/>
<path d="M36.3703 4.04818L36.2976 4.00536C35.9564 3.80433 35.5167 3.91802 35.3157 4.25931L32.6035 8.86364C32.4025 9.20492 32.5162 9.64456 32.8575 9.84559L32.9302 9.88841C33.2715 10.0894 33.7111 9.97575 33.9121 9.63446L36.6243 5.03013C36.8253 4.68885 36.7116 4.24921 36.3703 4.04818Z" fill="black"/>
<path d="M40.2931 6.81623L40.2328 6.78012C39.8896 6.57472 39.4448 6.68643 39.2394 7.02963L37.7012 9.5998C37.4958 9.94301 37.6075 10.3877 37.9507 10.5931L38.011 10.6293C38.3542 10.8347 38.799 10.7229 39.0044 10.3797L40.5426 7.80957C40.748 7.46637 40.6363 7.02163 40.2931 6.81623Z" fill="black"/>
<path d="M21.9379 16.5375C23.1472 14.3578 20.6511 14.9976 20.7144 13.7461C20.7187 13.6454 20.7574 13.5455 20.826 13.4583C20.8945 13.371 20.99 13.3001 21.1011 13.2539C23.0558 12.4383 23.6957 13.8304 25.341 13.5562C26.3019 13.4015 26.8785 13.8 27.0707 14.7515C27.4738 16.7859 26.4261 17.8547 23.9277 17.9578C23.6699 17.9672 23.4215 18.0258 23.1824 18.1336C21.9871 18.6679 21.1175 18.5789 20.5738 17.8664C20.512 17.7853 20.4828 17.6841 20.4919 17.5826C20.501 17.4811 20.5478 17.3867 20.623 17.3179C20.8386 17.1164 21.0988 16.9758 21.4035 16.8961C21.5252 16.8628 21.6354 16.8138 21.7274 16.7521C21.8193 16.6904 21.891 16.6174 21.9379 16.5375ZM25.7136 15.754C25.7153 15.5825 25.6052 15.4168 25.4074 15.2934C25.2095 15.1701 24.9402 15.0991 24.6587 15.0961C24.3771 15.0932 24.1064 15.1585 23.906 15.2777C23.7057 15.3969 23.5921 15.5603 23.5903 15.7318C23.5885 15.9034 23.6986 16.0691 23.8965 16.1924C24.0943 16.3158 24.3636 16.3868 24.6452 16.3897C24.9267 16.3927 25.1975 16.3274 25.3978 16.2082C25.5982 16.0889 25.7118 15.9256 25.7136 15.754Z" fill="black"/>
<path d="M30.6546 26.0816L30.6302 26.0676C30.2768 25.8644 29.8255 25.9861 29.6222 26.3396L23.86 36.3604C23.6567 36.7139 23.7785 37.1652 24.132 37.3684L24.1564 37.3824C24.5098 37.5857 24.9612 37.4639 25.1644 37.1105L30.9266 27.0897C31.1299 26.7362 31.0081 26.2849 30.6546 26.0816Z" fill="black"/>
<path d="M34.0871 29.8209L34.0506 29.7998C33.7012 29.5972 33.2538 29.7163 33.0512 30.0657L29.6167 35.9906C29.4141 36.34 29.5332 36.7875 29.8826 36.99L29.9191 37.0112C30.2685 37.2137 30.7159 37.0946 30.9185 36.7452L34.353 30.8203C34.5556 30.4709 34.4365 30.0235 34.0871 29.8209Z" fill="black"/>
</g>
<defs>
<clipPath id="clip0_731_357">
<rect width="45" height="45" fill="white"/>
</clipPath>
</defs>
</svg>
