<svg width="45" height="45" viewBox="0 0 45 45" fill="none" xmlns="http://www.w3.org/2000/svg">
<path d="M45 38.0109V38.714C44.1516 40.9125 42.6867 42.0703 40.6055 42.1875C38.4586 42.3094 36.6797 41.6719 35.2687 40.275C34.9131 39.9233 34.433 39.7262 33.9328 39.7265C31.1391 39.7265 28.4039 39.7265 25.7273 39.7265C25.5586 39.7265 25.4039 39.7008 25.2633 39.6492C24.2742 39.2883 24.4664 39.0984 25.8398 39.0797C28.5352 39.0422 31.2328 39.0234 33.9328 39.0234C34.0293 39.0236 34.1234 38.9896 34.2 38.9271C34.2765 38.8646 34.331 38.7772 34.3547 38.6789C34.6313 37.5633 35.0039 37.5515 35.4727 38.6437C35.6133 38.9672 35.7633 39.225 35.9227 39.4172C38.4445 42.4453 41.0484 42.4804 43.7344 39.5226C43.8656 39.3726 43.9289 39.225 43.9242 39.0797C43.9148 38.8359 43.7906 38.6976 43.5516 38.6648C43.4016 38.6461 43.207 38.7 42.968 38.8265C41.7352 39.4969 40.8797 39.3726 40.4016 38.4539C40.1016 37.8773 39.8812 37.2023 39.7406 36.4289C39.5203 35.2008 40.2188 34.4836 41.8359 34.2773C42.4828 34.1976 42.6867 33.975 42.4477 33.6094C42.3445 33.4547 42.1734 33.3211 41.9344 33.2086C39.7313 32.1914 37.8047 32.6601 36.1547 34.6148C35.4797 35.4117 34.6219 35.8125 33.5812 35.8172L9.71719 35.9015C9.67134 35.9015 9.62596 35.9107 9.5837 35.9284C9.54143 35.9462 9.50313 35.9722 9.47105 36.0049C9.43896 36.0377 9.41373 36.0765 9.39684 36.1191C9.37994 36.1617 9.37172 36.2073 9.37266 36.2531C9.39609 37.7531 9.12656 37.8422 8.56406 36.5203C8.46094 36.2812 8.3625 36.0867 8.26875 35.9367C6.43125 33.0633 4.22813 32.7562 1.65937 35.0156C1.44375 35.2031 1.26797 35.4023 1.13203 35.6133C0.616406 36.4101 0.794531 36.6937 1.66641 36.464C1.80703 36.4265 2.06484 36.3211 2.43984 36.1476C3.96328 35.4492 4.93828 35.9578 5.36484 37.6734C5.74453 39.1969 5.20781 40.0969 3.75469 40.3734C3.41719 40.4344 3.16172 40.5304 2.98828 40.6617C2.28984 41.1679 2.51719 41.4984 3.67031 41.6531C5.55 41.9062 7.00078 41.3883 8.02266 40.0992C8.59453 39.382 9.34219 39.0234 10.2656 39.0234C14.8313 39.0234 19.1906 39.0234 23.3438 39.0234C23.5031 39.0234 23.632 39.0562 23.7305 39.1219C23.9648 39.2859 23.9742 39.4476 23.7586 39.607C23.6508 39.6867 23.5031 39.7265 23.3156 39.7265C19.0734 39.7078 14.8336 39.7195 10.5961 39.7617C10.0852 39.7664 9.64219 39.8789 9.26719 40.0992C8.85469 40.3336 8.46563 40.6031 8.1 40.9078C7.40625 41.4797 6.82734 41.8406 6.36328 41.9906C4.68047 42.525 3.21797 42.4008 1.97578 41.6179C0.869531 40.9148 0.855469 40.4015 1.93359 40.0781C3.13359 39.7219 3.97969 39.4359 4.47188 39.2203C4.57147 39.1779 4.65757 39.1082 4.7208 39.019C4.78403 38.9297 4.82196 38.8242 4.83047 38.714C4.94766 37.425 4.52578 36.7523 3.56484 36.6961C3.44297 36.6914 2.88281 36.8578 1.88438 37.1953C1.26094 37.4062 0.632812 37.357 0 37.0476V36.5203C1.93125 32.4656 4.93594 31.8984 9.01406 34.8187C9.32549 35.0384 9.69636 35.1563 10.0758 35.1562C17.6367 35.1797 25.268 35.1679 32.9695 35.1211C33.7945 35.1164 34.4695 34.9359 34.9945 34.5797C35.4023 34.3078 35.7773 33.9937 36.1195 33.6375C36.3023 33.4547 36.6773 33.1594 37.2445 32.7515C37.8023 32.3437 38.0789 31.7742 38.0742 31.0429C38.0648 30.0726 38.0648 29.5336 38.0742 29.4258C38.1867 27.5695 37.2234 26.9929 35.1844 27.6961C35.0893 27.7282 35.0075 27.7917 34.9516 27.8769C34.8957 27.962 34.8688 28.064 34.875 28.1672C34.9688 29.7375 34.6078 31.0851 33.7922 32.2101C32.8172 33.5601 31.732 33.675 30.5367 32.5547C30.4148 32.4422 30.3305 32.3109 30.2836 32.1609C30.1008 31.5515 30.3234 31.4906 30.9516 31.9781C32.0906 32.8594 32.9672 32.6273 33.5812 31.282C33.9281 30.5133 34.1016 29.707 34.1016 28.8633V6.89763C34.1016 5.62263 33.4969 4.78123 32.2875 4.37341C31.3687 4.06404 30.7125 4.44138 30.3187 5.50544C30.15 5.96013 30.0516 6.63513 30.0234 7.53044C29.7891 15.3211 29.7961 22.9851 30.0445 30.5226C30.0586 30.9492 29.9438 30.989 29.7 30.6422C28.4719 28.9219 27.5062 28.9781 26.8031 30.8109C26.5687 31.4156 26.257 31.9758 25.868 32.4914C25.1086 33.5039 24.2227 33.6398 23.2102 32.8992C22.7977 32.5945 22.4484 32.1234 22.1625 31.4859C22.0031 31.125 21.8508 30.7617 21.7055 30.3961C21.532 29.9554 21.2977 29.6578 21.0023 29.5031C20.468 29.2219 20.0203 29.2945 19.6594 29.7211C19.5141 29.8898 19.3664 30.2578 19.2164 30.825C18.832 32.2781 17.8758 33.0703 16.3477 33.2015C16.1176 33.2242 15.8886 33.1588 15.7078 33.0187C14.8453 32.3672 14.3016 31.507 14.0766 30.4383C14.0219 30.1871 13.9159 29.9776 13.7742 29.8406C12.8695 28.9875 12.007 29.489 11.1867 31.3453C10.7789 32.2734 10.1109 32.9437 9.18281 33.3562C8.45625 33.6797 7.73906 33.225 7.03125 31.9922C6.76875 31.5328 6.49453 30.839 6.20859 29.9109C6.14479 29.7014 6.00355 29.5131 5.80781 29.3765C4.16719 28.2234 3.75234 26.6695 4.56328 24.7148C4.64091 24.5229 4.79332 24.346 4.99922 24.2086C6.09609 23.4679 6.52266 22.364 6.27891 20.8969C6.16641 20.2219 6.26016 19.9359 6.56016 20.039C6.64626 20.0684 6.72175 20.135 6.776 20.2296C6.83024 20.3242 6.8605 20.442 6.8625 20.5664C6.93281 23.2851 6.98437 26.0062 7.01719 28.7297C7.03125 29.7562 7.21406 30.6047 7.56563 31.275C8.52656 33.089 9.51094 33.0422 10.5188 31.1344C10.8609 30.4922 11.0344 29.7094 11.0391 28.7859C11.0859 21.7125 11.1234 14.6367 11.1516 7.55857C11.1562 6.35857 10.7273 5.39529 9.86484 4.66873C9.06797 3.99373 8.37422 4.08982 7.78359 4.95701C7.18359 5.83826 6.90469 6.81326 6.94688 7.88201C6.97031 8.51951 6.98203 8.86169 6.98203 8.90857C6.93047 12.0164 6.87656 15.1242 6.82031 18.232C6.81857 18.3669 6.78721 18.4947 6.73182 18.5926C6.67644 18.6905 6.60064 18.7521 6.51797 18.7664C6.32109 18.7992 6.22734 18.5789 6.23672 18.1054C6.26484 16.3429 6.18984 14.5851 6.01172 12.832C6.00049 12.7252 5.96666 12.6208 5.91228 12.5254C5.85789 12.4299 5.78408 12.3452 5.69531 12.2765C4.18125 11.1422 3.77813 9.63279 4.48594 7.74841C4.55897 7.55174 4.70368 7.37023 4.90078 7.2281C5.59453 6.71716 6.18984 6.11716 6.68672 5.4281C7.38984 4.44841 7.96406 3.87419 8.40938 3.70544C9.51094 3.28826 10.4344 3.77107 11.1797 5.15388C11.8641 6.42888 12.7734 6.69841 13.9078 5.96248C14.0725 5.85256 14.2175 5.66572 14.3227 5.4281C14.7727 4.36404 15.5672 3.7406 16.7062 3.55779C16.8156 3.54039 16.9272 3.55063 17.0305 3.58753C17.1338 3.62443 17.2255 3.68678 17.2969 3.76873C17.7234 4.25623 17.5383 4.44138 16.7414 4.32419C16.622 4.30652 16.5038 4.31118 16.3946 4.33786C16.2855 4.36454 16.1879 4.41262 16.1086 4.47888C14.9508 5.42107 14.4141 6.65857 14.4984 8.19138C14.5547 9.19919 14.5828 9.71716 14.5828 9.74529C14.5219 16.2469 14.5734 22.7437 14.7375 29.2359C14.7609 30.1781 14.9156 30.9304 15.2016 31.4929C15.9844 33.0258 16.9734 32.9531 18.1688 31.275C18.5675 30.7157 18.7903 30.0522 18.8086 29.3695C18.9961 23.0554 19.0008 16.7437 18.8227 10.4344C18.8227 10.3828 18.832 9.99138 18.8508 9.26013C18.8742 8.23357 18.6703 6.97732 18.2391 5.49138C17.9813 4.61013 18.1523 4.43435 18.7523 4.96404C18.8602 5.05779 18.9562 5.20076 19.0406 5.39294C19.4578 6.33513 20.1961 6.61638 21.2555 6.23669C21.4499 6.16917 21.6228 6.01634 21.7406 5.80779C23.4469 2.77029 25.1812 2.77029 26.9438 5.80779C27.0083 5.91673 27.0851 6.01074 27.1696 6.08436C27.2541 6.15798 27.3446 6.20976 27.4359 6.23669C28.3922 6.52732 29.3883 5.96013 30.4242 4.53513C31.0711 3.64919 31.9031 3.41013 32.9203 3.81794C34.2 4.33357 34.8586 5.17966 34.8961 6.35623C34.9383 7.61248 35.5758 8.13748 36.8086 7.93123C39.593 7.46248 40.9711 8.21716 40.943 10.1953C40.8352 17.2875 40.7812 24.2765 40.7812 31.1625C40.781 31.3486 40.8355 31.5308 40.9379 31.6869C41.0403 31.843 41.1862 31.9662 41.3578 32.0414C42.5484 32.5664 43.3008 33.1851 43.6148 33.8976C43.6332 33.9406 43.6424 33.9869 43.6416 34.0339C43.6409 34.0809 43.6304 34.1275 43.6106 34.1709C43.5909 34.2143 43.5624 34.2536 43.5269 34.2864C43.4913 34.3192 43.4495 34.3448 43.4039 34.3617L40.9852 35.2617C40.8749 35.3027 40.7775 35.3652 40.7014 35.4438C40.6254 35.5222 40.5731 35.6143 40.5492 35.7117C40.2867 36.7617 40.5633 37.6195 41.3789 38.2851C41.4556 38.3492 41.5527 38.3901 41.6602 38.4037C41.7677 38.4173 41.8817 38.4031 41.9906 38.3625C42.975 37.9969 43.9781 37.8797 45 38.0109ZM22.2891 12.7617C22.2047 13.1086 22.1789 13.4601 22.2117 13.8164C22.2867 14.5898 22.3242 14.9953 22.3242 15.0328C22.3008 19.5656 22.2984 24.1008 22.3172 28.6383C22.3219 29.5804 22.4766 30.3773 22.7813 31.0289C23.7141 33.0492 24.7125 33.1312 25.7766 31.275C26.1703 30.5906 26.3836 29.7351 26.4164 28.7086C26.5852 23.7117 26.6039 18.7148 26.4727 13.7179C26.4539 13.0383 26.5055 11.7797 26.6273 9.94216C26.7398 8.32966 26.5945 7.06638 26.1914 6.15232C25.1695 3.81794 24.0164 3.61638 22.732 5.54763C22.6083 5.7313 22.5399 5.95603 22.5352 6.19451C22.5117 8.04138 22.4883 9.8906 22.4648 11.7422C22.4602 11.9625 22.4016 12.3023 22.2891 12.7617ZM13.8711 7.4756C13.8704 7.41466 13.8576 7.35446 13.8336 7.29844C13.8096 7.24242 13.7748 7.19168 13.7312 7.14912C13.6876 7.10655 13.636 7.073 13.5794 7.05037C13.5228 7.02774 13.4623 7.01648 13.4014 7.01723L12.2343 7.03151C12.1112 7.03301 11.9938 7.08334 11.9078 7.17142C11.8219 7.2595 11.7744 7.37813 11.7759 7.50119L11.8211 11.1994C11.8218 11.2603 11.8346 11.3205 11.8586 11.3765C11.8826 11.4325 11.9174 11.4833 11.961 11.5258C12.0046 11.5684 12.0562 11.602 12.1128 11.6246C12.1694 11.6472 12.2299 11.6585 12.2908 11.6577L13.4579 11.6434C13.581 11.6419 13.6984 11.5916 13.7843 11.5035C13.8703 11.4154 13.9178 11.2968 13.9163 11.1738L13.8711 7.4756ZM21.2625 7.41794C21.2625 7.36716 21.2525 7.31687 21.2331 7.26995C21.2136 7.22304 21.1851 7.1804 21.1492 7.14449C21.1133 7.10858 21.0707 7.0801 21.0238 7.06066C20.9769 7.04123 20.9266 7.03123 20.8758 7.03123H19.9055C19.8547 7.03123 19.8044 7.04123 19.7575 7.06066C19.7106 7.0801 19.6679 7.10858 19.632 7.14449C19.5961 7.1804 19.5676 7.22304 19.5482 7.26995C19.5288 7.31687 19.5187 7.36716 19.5187 7.41794V11.2992C19.5187 11.4018 19.5595 11.5001 19.632 11.5726C19.7045 11.6452 19.8029 11.6859 19.9055 11.6859H20.8758C20.9783 11.6859 21.0767 11.6452 21.1492 11.5726C21.2218 11.5001 21.2625 11.4018 21.2625 11.2992V7.41794ZM29.1542 7.36577C29.1526 7.27815 29.1164 7.19472 29.0533 7.13384C28.9903 7.07296 28.9056 7.03962 28.818 7.04114L27.4963 7.0642C27.4529 7.06495 27.4101 7.07424 27.3703 7.09154C27.3305 7.10884 27.2945 7.13382 27.2644 7.16503C27.2342 7.19625 27.2105 7.2331 27.1946 7.27348C27.1787 7.31386 27.1709 7.35697 27.1716 7.40037L27.2365 11.1123C27.238 11.1999 27.2743 11.2834 27.3373 11.3442C27.4004 11.4051 27.485 11.4385 27.5726 11.4369L28.8943 11.4139C28.9377 11.4131 28.9805 11.4038 29.0203 11.3865C29.0601 11.3692 29.0961 11.3443 29.1263 11.313C29.1564 11.2818 29.1801 11.245 29.196 11.2046C29.2119 11.1642 29.2197 11.1211 29.219 11.0777L29.1542 7.36577ZM5.23125 8.04373C4.725 9.06091 4.79531 10.0289 5.44219 10.9476C5.87344 11.5617 6.15234 11.5875 6.27891 11.025C6.31641 10.8656 6.31172 10.664 6.26484 10.4203C6.12891 9.72185 6.10547 9.01638 6.19453 8.30388C6.43828 6.33982 6.11719 6.2531 5.23125 8.04373ZM38.2922 25.3687C37.4578 25.5937 36.7641 25.6336 36.2109 25.4883C35.0109 25.1789 34.575 25.5234 34.9031 26.5219C34.9316 26.6125 34.9915 26.6922 35.0746 26.7501C35.1577 26.8081 35.26 26.8413 35.3672 26.8453L38.1937 26.9929C38.2865 26.9969 38.3749 27.0384 38.4422 27.1096C38.5096 27.1809 38.5513 27.2769 38.5594 27.3797L38.8195 31.6406C38.8273 31.7567 38.8666 31.866 38.9315 31.9512C38.9964 32.0364 39.0831 32.0929 39.1781 32.1117C39.4125 32.1492 39.6141 32.0883 39.7828 31.9289C39.9516 31.7789 40.0359 31.5281 40.0359 31.1765C40.0875 23.8312 40.1016 16.4859 40.0781 9.1406C40.0781 8.95653 40.0052 8.77979 39.8751 8.64832C39.7449 8.51686 39.5679 8.44116 39.382 8.43748C38.0836 8.41873 36.7875 8.43044 35.4938 8.47263C35.2734 8.47732 35.0906 8.53591 34.9453 8.64841C34.6922 8.8406 34.6031 9.02576 34.6781 9.20388C34.7819 9.45537 34.9644 9.66624 35.1978 9.80453C35.4313 9.94282 35.703 10.001 35.9719 9.97029C37.8422 9.75935 38.7727 10.1859 38.7633 11.25C38.7258 15.8062 38.6812 20.3601 38.6297 24.9117C38.6297 25.0166 38.5966 25.1182 38.5356 25.2008C38.4746 25.2833 38.3891 25.3424 38.2922 25.3687ZM37.9688 11.1164C37.9688 10.9672 37.9095 10.8241 37.804 10.7186C37.6985 10.6131 37.5554 10.5539 37.4062 10.5539H35.3672C35.218 10.5539 35.0749 10.6131 34.9694 10.7186C34.8639 10.8241 34.8047 10.9672 34.8047 11.1164V24.2367C34.8047 24.3106 34.8192 24.3837 34.8475 24.452C34.8758 24.5202 34.9172 24.5822 34.9694 24.6344C35.0217 24.6867 35.0837 24.7281 35.1519 24.7564C35.2202 24.7846 35.2933 24.7992 35.3672 24.7992H37.4062C37.4801 24.7992 37.5533 24.7846 37.6215 24.7564C37.6898 24.7281 37.7518 24.6867 37.804 24.6344C37.8562 24.5822 37.8977 24.5202 37.9259 24.452C37.9542 24.3837 37.9688 24.3106 37.9688 24.2367V11.1164ZM29.1883 12.8548C29.1886 12.6776 29.1185 12.5076 28.9934 12.3822C28.8684 12.2567 28.6986 12.186 28.5215 12.1857L27.9027 12.1846C27.815 12.1844 27.7281 12.2015 27.647 12.235C27.5659 12.2684 27.4922 12.3175 27.43 12.3794C27.3679 12.4413 27.3186 12.5149 27.2849 12.5959C27.2512 12.6769 27.2337 12.7637 27.2336 12.8514L27.2164 22.7092C27.2161 22.8864 27.2862 23.0564 27.4112 23.1819C27.5363 23.3073 27.7061 23.378 27.8832 23.3783L28.5019 23.3794C28.5897 23.3796 28.6766 23.3625 28.7577 23.3291C28.8388 23.2956 28.9125 23.2465 28.9746 23.1846C29.0368 23.1227 29.0861 23.0491 29.1198 22.9682C29.1535 22.8872 29.171 22.8003 29.1711 22.7126L29.1883 12.8548ZM13.8867 13.1414C13.8867 12.9213 13.7993 12.7103 13.6437 12.5547C13.4881 12.3991 13.2771 12.3117 13.057 12.3117H12.607C12.387 12.3117 12.176 12.3991 12.0204 12.5547C11.8648 12.7103 11.7773 12.9213 11.7773 13.1414V22.5492C11.7773 22.7692 11.8648 22.9803 12.0204 23.1359C12.176 23.2915 12.387 23.3789 12.607 23.3789H13.057C13.2771 23.3789 13.4881 23.2915 13.6437 23.1359C13.7993 22.9803 13.8867 22.7692 13.8867 22.5492V13.1414ZM21.5349 13.0874C21.5337 12.9877 21.5128 12.8892 21.4736 12.7975C21.4343 12.7058 21.3773 12.6228 21.306 12.5532C21.2346 12.4835 21.1502 12.4286 21.0576 12.3915C20.965 12.3545 20.866 12.3361 20.7663 12.3373L20.2882 12.3431C20.1885 12.3443 20.09 12.3652 19.9983 12.4045C19.9067 12.4438 19.8236 12.5007 19.754 12.5721C19.6843 12.6435 19.6294 12.7279 19.5924 12.8205C19.5554 12.9131 19.5369 13.0121 19.5382 13.1118L19.6542 22.6032C19.6554 22.7029 19.6762 22.8014 19.7155 22.8931C19.7548 22.9847 19.8117 23.0678 19.8831 23.1374C19.9545 23.2071 20.0389 23.262 20.1315 23.299C20.2241 23.3361 20.323 23.3545 20.4228 23.3533L20.9008 23.3475C21.0005 23.3462 21.099 23.3254 21.1907 23.2861C21.2824 23.2468 21.3654 23.1899 21.4351 23.1185C21.5047 23.0471 21.5596 22.9627 21.5967 22.8701C21.6337 22.7775 21.6521 22.6785 21.6509 22.5788L21.5349 13.0874ZM13.883 24.4987C13.8831 24.4368 13.871 24.3755 13.8475 24.3183C13.8239 24.2611 13.7893 24.2091 13.7456 24.1653C13.7019 24.1215 13.6501 24.0867 13.593 24.0629C13.5358 24.0391 13.4746 24.0269 13.4127 24.0267L12.2737 24.0248C12.2118 24.0247 12.1505 24.0367 12.0933 24.0603C12.0361 24.0839 11.9841 24.1185 11.9403 24.1622C11.8965 24.2058 11.8617 24.2577 11.8379 24.3148C11.8141 24.3719 11.8019 24.4332 11.8017 24.495L11.7951 28.2919C11.795 28.3538 11.8071 28.415 11.8307 28.4722C11.8542 28.5294 11.8888 28.5814 11.9325 28.6253C11.9762 28.6691 12.0281 28.7039 12.0852 28.7277C12.1423 28.7514 12.2035 28.7637 12.2654 28.7638L13.4044 28.7658C13.4663 28.7659 13.5276 28.7538 13.5848 28.7303C13.642 28.7067 13.694 28.6721 13.7378 28.6284C13.7816 28.5848 13.8164 28.5329 13.8402 28.4758C13.864 28.4187 13.8763 28.3574 13.8764 28.2956L13.883 24.4987ZM19.8 28.4273C21.1688 28.8258 21.757 28.657 21.5648 27.9211C21.5039 27.6867 21.4992 27.464 21.5508 27.2531C21.682 26.714 21.6797 26.1773 21.5437 25.6429C21.4969 25.4461 21.5063 25.2258 21.5719 24.982C21.75 24.3258 21.3141 24.0375 20.2641 24.1172C20.1004 24.1314 19.9463 24.2182 19.8301 24.3615C19.7139 24.5049 19.6433 24.6952 19.6313 24.8976L19.4555 27.8437C19.448 27.9794 19.478 28.1113 19.5407 28.2174C19.6033 28.3235 19.6948 28.3976 19.8 28.4273ZM29.2186 24.3088C29.219 24.2566 29.1987 24.2063 29.1621 24.1691C29.1255 24.1318 29.0757 24.1107 29.0235 24.1102L27.4204 24.0962C27.3945 24.096 27.3689 24.1008 27.3449 24.1105C27.3209 24.1202 27.2991 24.1345 27.2807 24.1526C27.2622 24.1707 27.2475 24.1923 27.2374 24.2161C27.2273 24.2399 27.222 24.2655 27.2218 24.2913L27.1861 28.3834C27.1857 28.4356 27.206 28.4858 27.2426 28.5231C27.2792 28.5603 27.329 28.5815 27.3812 28.5819L28.9843 28.5959C29.0101 28.5962 29.0358 28.5913 29.0598 28.5816C29.0837 28.5719 29.1056 28.5576 29.124 28.5395C29.1425 28.5214 29.1572 28.4998 29.1673 28.476C29.1774 28.4522 29.1827 28.4267 29.1829 28.4008L29.2186 24.3088ZM5.23125 25.0945C4.56094 26.5523 4.76484 27.6211 5.84297 28.3008C6.05391 28.4367 6.16172 28.3781 6.16641 28.125L6.27891 24.6586C6.28024 24.6108 6.27151 24.563 6.25348 24.5192C6.23545 24.4753 6.20866 24.4369 6.17542 24.4071C6.14219 24.3773 6.10351 24.3572 6.06274 24.3483C6.02197 24.3394 5.98032 24.3421 5.94141 24.3562C5.64609 24.4547 5.40938 24.7008 5.23125 25.0945Z" fill="black"/>
<path d="M31.3234 9.18482L31.0844 9.18149C30.9601 9.17975 30.858 9.27907 30.8562 9.40332L30.7665 15.8293C30.7648 15.9535 30.8641 16.0556 30.9883 16.0574L31.2274 16.0607C31.3516 16.0625 31.4538 15.9631 31.4555 15.8389L31.5452 9.41294C31.547 9.28869 31.4476 9.18656 31.3234 9.18482Z" fill="black"/>
<path d="M17.8658 16.7555C18.0908 17.7633 17.9478 17.9555 17.4369 17.3321C17.3551 17.229 17.2979 17.1157 17.2718 17.005C17.2457 16.8943 17.2517 16.7908 17.2892 16.7063C17.3408 16.5985 17.4182 16.5281 17.5213 16.4953C17.5556 16.4849 17.5922 16.4835 17.6286 16.4912C17.665 16.4988 17.7005 16.5154 17.7329 16.5398C17.7652 16.5643 17.7937 16.5961 17.8166 16.6332C17.8395 16.6703 17.8562 16.7119 17.8658 16.7555Z" fill="black"/>
<path d="M31.4515 18.0844C31.2828 18.7922 31.0554 18.8367 30.7695 18.218C30.7207 18.1157 30.6931 18.0045 30.6883 17.8909C30.6834 17.7774 30.7015 17.6638 30.7414 17.5571C31.0179 16.8258 31.2523 16.8094 31.4445 17.5078C31.496 17.7 31.4984 17.8922 31.4515 18.0844Z" fill="black"/>
<path d="M17.7754 19.0766L17.5785 19.0752C17.4737 19.0744 17.3881 19.1588 17.3873 19.2637L17.3345 26.8291C17.3338 26.934 17.4182 27.0196 17.523 27.0203L17.7199 27.0217C17.8248 27.0224 17.9103 26.938 17.9111 26.8332L17.9639 19.2677C17.9646 19.1629 17.8802 19.0773 17.7754 19.0766Z" fill="black"/>
</svg>
