<svg width="45" height="45" viewBox="0 0 45 45" fill="none" xmlns="http://www.w3.org/2000/svg">
<path d="M25.5324 12.7178C25.5324 13.2604 25.3169 13.7809 24.9331 14.1646C24.5494 14.5483 24.029 14.7639 23.4863 14.7639H12.7531C12.2105 14.7639 11.69 14.5483 11.3063 14.1646C10.9226 13.7809 10.707 13.2604 10.707 12.7178V5.65138C10.707 5.10872 10.9226 4.58829 11.3063 4.20457C11.69 3.82086 12.2105 3.60529 12.7531 3.60529H23.4863C24.029 3.60529 24.5494 3.82086 24.9331 4.20457C25.3169 4.58829 25.5324 5.10872 25.5324 5.65138V12.7178ZM24.5217 5.64083C24.5217 5.36857 24.4135 5.10746 24.221 4.91494C24.0285 4.72243 23.7674 4.61427 23.4951 4.61427H12.7584C12.4861 4.61427 12.225 4.72243 12.0325 4.91494C11.84 5.10746 11.7318 5.36857 11.7318 5.64083V12.7283C11.7318 13.0006 11.84 13.2617 12.0325 13.4542C12.225 13.6467 12.4861 13.7549 12.7584 13.7549H23.4951C23.7674 13.7549 24.0285 13.6467 24.221 13.4542C24.4135 13.2617 24.5217 13.0006 24.5217 12.7283V5.64083Z" fill="black"/>
<path d="M18.0916 11.6455C18.2217 11.7486 18.2715 11.9021 18.2411 12.1061C18.2 12.385 18.0383 12.5244 17.7559 12.5244C16.4364 12.5244 15.1467 12.5244 13.887 12.5244C13.3209 12.5244 13.052 12.266 13.0801 11.7492C13.0907 11.5652 13.0959 11.4662 13.0959 11.4521C13.0959 9.83262 13.0959 8.2125 13.0959 6.5918C13.0959 6.10313 13.3157 5.8582 13.7551 5.85703C16.4622 5.84883 19.1692 5.84473 21.8762 5.84473C22.3661 5.84473 22.6338 5.85059 22.6795 5.8623C22.9995 5.94668 23.1594 6.21914 23.1594 6.67969C23.1594 8.42344 23.1594 10.1801 23.1594 11.9496C23.1594 12.2215 23.0293 12.3961 22.7692 12.4734C22.4129 12.5789 22.0174 12.5818 21.5827 12.4822C21.4139 12.4436 21.2914 12.3721 21.2153 12.2678C21.1039 12.1131 21.0952 11.9537 21.1889 11.7896C21.2616 11.6596 21.3752 11.5699 21.5299 11.5207C21.6799 11.4738 21.8323 11.4691 21.987 11.5066C22.0063 11.5111 22.0264 11.5112 22.0457 11.5069C22.0651 11.5025 22.0832 11.4938 22.0988 11.4815C22.1143 11.4692 22.1269 11.4535 22.1355 11.4356C22.1442 11.4178 22.1487 11.3982 22.1487 11.3783V7.03301C22.1487 7.01108 22.1444 6.98936 22.136 6.9691C22.1276 6.94884 22.1153 6.93043 22.0998 6.91493C22.0843 6.89942 22.0658 6.88712 22.0456 6.87873C22.0253 6.87033 22.0036 6.86602 21.9817 6.86602L14.2895 6.85547C14.2656 6.85547 14.2419 6.86013 14.2198 6.86916C14.1977 6.87819 14.1777 6.89143 14.1608 6.9081C14.144 6.92477 14.1307 6.94455 14.1217 6.96629C14.1127 6.98803 14.1082 7.01131 14.1084 7.03477L14.1366 11.3924C14.137 11.416 14.1466 11.4386 14.1633 11.4553C14.18 11.472 14.2026 11.4816 14.2262 11.482C15.377 11.4914 16.5272 11.5107 17.6768 11.54C17.8713 11.5459 18.0096 11.5811 18.0916 11.6455Z" fill="black"/>
<path d="M19.6988 12.5033C19.9726 12.5033 20.1945 12.2814 20.1945 12.0076C20.1945 11.7338 19.9726 11.5119 19.6988 11.5119C19.4251 11.5119 19.2031 11.7338 19.2031 12.0076C19.2031 12.2814 19.4251 12.5033 19.6988 12.5033Z" fill="black"/>
<path d="M39.2982 19.9617L39.2876 40.8269C39.2876 41.1609 39.1212 41.3414 38.7884 41.3683C38.3197 41.4047 37.7964 41.4158 37.2187 41.4017C37.2105 41.4017 37.0968 41.4076 36.8777 41.4193C36.6562 41.431 36.4804 41.3648 36.3503 41.2207C36.2578 41.1176 36.2115 40.957 36.2115 40.739C36.2173 33.7992 36.2138 26.8951 36.2009 20.0267C36.2009 19.9991 36.1955 19.9718 36.1848 19.9463C36.1742 19.9208 36.1587 19.8976 36.139 19.8782C36.1194 19.8588 36.0962 19.8434 36.0706 19.833C36.045 19.8226 36.0176 19.8173 35.99 19.8176C34.8908 19.8258 33.8607 19.8269 32.8998 19.8211C32.6115 19.8199 32.4128 19.7496 32.3039 19.6101C32.1761 19.4461 32.1591 19.2451 32.2529 19.0072C32.3396 18.7881 32.3847 18.6738 32.3882 18.6644C33.2414 15.8613 33.7834 14.1515 34.0142 13.5351C34.197 13.0453 34.5328 12.6961 35.0214 12.4875C35.305 12.3668 35.7556 12.2941 36.3732 12.2695C37.3951 12.2273 38.4164 12.2379 39.4371 12.3012C39.9773 12.3351 40.3869 12.4371 40.6658 12.607C41.0689 12.8531 41.3455 13.2029 41.4955 13.6564C42.1177 15.5267 42.7066 17.3783 43.2621 19.2111C43.3828 19.6107 43.2304 19.8135 42.805 19.8193L39.3878 19.8703C39.3639 19.8708 39.3411 19.8806 39.3243 19.8977C39.3076 19.9148 39.2982 19.9378 39.2982 19.9617ZM40.3406 13.6846C40.214 13.5615 40.0939 13.4678 39.9802 13.4033C39.8794 13.3459 39.7335 13.3137 39.5425 13.3066C38.4035 13.2621 37.2638 13.2439 36.1236 13.2521C35.5037 13.2556 35.1117 13.5 34.9476 13.9851C34.4343 15.5086 33.9316 17.0801 33.4394 18.6996C33.4353 18.7132 33.4344 18.7275 33.4366 18.7415C33.4389 18.7555 33.4444 18.7687 33.4526 18.7801C33.4607 18.7916 33.4714 18.8009 33.4838 18.8074C33.4962 18.8138 33.5099 18.8172 33.5238 18.8174L41.8822 18.8525C41.9072 18.8527 41.932 18.8468 41.9544 18.8355C41.9767 18.8242 41.9961 18.8078 42.0109 18.7875C42.0256 18.7672 42.0354 18.7438 42.0393 18.719C42.0432 18.6943 42.0411 18.6689 42.0334 18.6451L40.5445 14.0097C40.5046 13.8867 40.4367 13.7783 40.3406 13.6846ZM38.2769 19.9072C38.2769 19.8858 38.2684 19.8652 38.2532 19.85C38.2381 19.8349 38.2175 19.8263 38.196 19.8263H37.3031C37.2816 19.8263 37.2611 19.8349 37.2459 19.85C37.2307 19.8652 37.2222 19.8858 37.2222 19.9072V40.3049C37.2222 40.3263 37.2307 40.3469 37.2459 40.362C37.2611 40.3772 37.2816 40.3857 37.3031 40.3857H38.196C38.2175 40.3857 38.2381 40.3772 38.2532 40.362C38.2684 40.3469 38.2769 40.3263 38.2769 40.3049V19.9072Z" fill="black"/>
<path d="M34.674 21.7793C35.5552 22.2211 35.8793 22.8726 35.6461 23.734C35.5383 24.1289 35.3484 24.4318 35.0765 24.6428C34.7648 24.8853 34.3957 24.9914 33.9691 24.9609C33.4429 24.9234 33.0404 24.7166 32.7615 24.3404C32.4967 23.983 32.3894 23.584 32.4398 23.1433C32.5031 22.589 32.8336 22.1267 33.4312 21.7564C33.4917 21.7187 33.5392 21.6637 33.5675 21.5987C33.5958 21.5336 33.6034 21.4617 33.5894 21.3926C33.539 21.1453 33.5601 20.9367 33.6527 20.7668C33.7324 20.6215 33.8613 20.5406 34.0394 20.5242C34.255 20.5066 34.4103 20.5904 34.5052 20.7756C34.5556 20.8717 34.5814 21.0299 34.5826 21.2502C34.5826 21.3849 34.5855 21.5197 34.5914 21.6545C34.5924 21.6805 34.6006 21.7059 34.6152 21.7279C34.6297 21.7498 34.6501 21.7676 34.674 21.7793ZM34.7039 23.3103C34.7039 23.142 34.637 22.9806 34.518 22.8616C34.399 22.7426 34.2376 22.6758 34.0693 22.6758C33.901 22.6758 33.7396 22.7426 33.6206 22.8616C33.5016 22.9806 33.4347 23.142 33.4347 23.3103C33.4347 23.4786 33.5016 23.64 33.6206 23.759C33.7396 23.878 33.901 23.9449 34.0693 23.9449C34.2376 23.9449 34.399 23.878 34.518 23.759C34.637 23.64 34.7039 23.4786 34.7039 23.3103Z" fill="black"/>
<path d="M29.3273 25.3617C29.6261 25.5598 29.6695 25.803 29.4574 26.0912C29.2664 26.3502 29.015 26.3713 28.7033 26.1545C28.599 26.0819 28.5416 26.0426 28.531 26.0367C25.306 24.0059 21.7722 23.0069 17.9297 23.0397C14.2886 23.0701 10.9318 24.0293 7.85915 25.9172C7.53571 26.1164 7.37047 26.2172 7.36344 26.2196C7.10094 26.3332 6.89352 26.2682 6.74118 26.0244C6.56422 25.742 6.61637 25.5112 6.89762 25.3319C11.605 22.3307 16.7267 21.3715 22.2627 22.4543C24.7763 22.9453 27.1312 23.9145 29.3273 25.3617Z" fill="black"/>
<path d="M9.62324 31.6723C10.1951 31.3289 10.6205 31.1572 10.8994 31.1572C12.3854 31.1572 13.8719 31.1572 15.359 31.1572C16.0105 31.1572 16.4881 31.2129 16.7916 31.3242C17.2697 31.5 17.6717 31.7936 17.9975 32.2049C18.0084 32.2188 18.0223 32.2302 18.0381 32.2383C18.0538 32.2463 18.0711 32.2509 18.0887 32.2515C18.1063 32.2522 18.1238 32.249 18.1399 32.2422C18.156 32.2353 18.1704 32.225 18.182 32.2119C18.5523 31.8029 18.9625 31.5105 19.4125 31.3348C19.7184 31.2152 20.2023 31.1561 20.8645 31.1572C22.2742 31.1607 23.684 31.173 25.0938 31.1941C25.6539 31.2023 26.1121 31.3488 26.4684 31.6336C26.5727 31.7156 26.6336 31.691 26.6512 31.5598C26.9828 29.1187 28.2355 27.627 30.4094 27.0844C30.6836 27.0164 31.0117 26.9824 31.3937 26.9824C31.6152 26.9824 31.8367 26.9824 32.0582 26.9824C32.3102 26.9824 32.527 27.0105 32.7086 27.0668C33.9016 27.4312 34.498 28.2674 34.498 29.5752C34.498 33.2959 34.4939 37.0166 34.4857 40.7373C34.4857 41.0994 34.3498 41.3139 34.0779 41.3807C34.0334 41.3912 33.8148 41.3965 33.4223 41.3965C23.2129 41.3965 13.0035 41.3965 2.79414 41.3965C2.37578 41.3965 2.15488 41.3936 2.13145 41.3877C1.85371 41.3268 1.71484 41.11 1.71484 40.7373C1.71484 37.2369 1.71484 33.7359 1.71484 30.2344C1.71484 29.8816 1.72129 29.5811 1.73418 29.3326C1.75059 28.9916 1.80977 28.6992 1.91172 28.4555C2.1707 27.832 2.61074 27.3961 3.23184 27.1477C3.49199 27.0434 3.84355 26.9889 4.28652 26.9842C4.52559 26.9807 4.76523 26.9795 5.00547 26.9807C5.26328 26.9807 5.49883 27.0076 5.71211 27.0615C8.03477 27.6404 9.31094 29.1627 9.54063 31.6283C9.54155 31.6377 9.54478 31.6468 9.55002 31.6547C9.55525 31.6626 9.56232 31.669 9.57057 31.6734C9.57881 31.6778 9.58796 31.68 9.59717 31.6798C9.60638 31.6796 9.61535 31.677 9.62324 31.6723ZM32.9336 28.2832C32.7191 28.1168 32.4842 28.0189 32.2287 27.9896C32.1678 27.9826 31.9223 27.9797 31.4922 27.9809C30.0109 27.9855 28.9035 28.6441 28.1699 29.9566C27.8477 30.5332 27.6865 31.1531 27.6865 31.8164C27.6865 32.3648 27.6865 32.9133 27.6865 33.4617C27.6865 34.1309 27.608 34.6014 27.451 34.8732C27.1744 35.3549 26.6963 35.5957 26.0166 35.5957C20.7572 35.5957 15.4984 35.5957 10.2402 35.5957C9.35313 35.5957 8.8 35.2318 8.58086 34.5041C8.51523 34.2838 8.48242 33.8941 8.48242 33.3352C8.48242 32.9437 8.48242 32.5518 8.48242 32.1592C8.48242 31.4385 8.40684 30.8689 8.25566 30.4506C7.67207 28.8299 6.38535 28.0107 4.39551 27.9932C3.70996 27.9873 3.23066 28.2053 2.95762 28.6471C2.80293 28.8979 2.72559 29.3555 2.72559 30.0199C2.72559 33.443 2.72559 36.8467 2.72559 40.2311C2.72559 40.2721 2.74188 40.3114 2.77089 40.3404C2.7999 40.3694 2.83925 40.3857 2.88027 40.3857H33.3344C33.3718 40.3857 33.4078 40.371 33.4344 40.3447C33.4611 40.3183 33.4763 40.2826 33.4768 40.2451C33.5061 36.6463 33.4961 33.0352 33.4469 29.4117C33.4434 29.1422 33.4082 28.9353 33.3414 28.7912C33.25 28.592 33.1141 28.4227 32.9336 28.2832ZM16.8848 32.5564C16.5906 32.3115 16.324 32.182 16.085 32.168C15.0338 32.1082 13.5514 32.1023 11.6377 32.1504C11.0846 32.1645 10.6686 32.2553 10.3896 32.4229C9.79434 32.7826 9.51016 33.3727 9.53711 34.193C9.54531 34.4203 9.66309 34.5369 9.89043 34.5428C12.3982 34.6084 14.9213 34.6119 17.4596 34.5533C17.4845 34.5527 17.5084 34.5438 17.5273 34.5281C17.5461 34.5124 17.5588 34.4909 17.5633 34.4672C17.7027 33.6867 17.4766 33.0498 16.8848 32.5564ZM26.0852 32.625C25.8297 32.3848 25.5396 32.2377 25.215 32.1838C25.2139 32.1838 24.8986 32.1727 24.2693 32.1504C22.2092 32.0789 20.8873 32.0848 20.3037 32.168C19.1494 32.332 18.5951 33.0738 18.6408 34.3934C18.6426 34.442 18.6631 34.488 18.6978 34.5218C18.7326 34.5556 18.7789 34.5744 18.8271 34.5744L26.1502 34.585C26.4455 34.585 26.6119 34.4385 26.6494 34.1455C26.7256 33.5561 26.5375 33.0492 26.0852 32.625Z" fill="black"/>
</svg>
