<svg width="45" height="45" viewBox="0 0 45 45" fill="none" xmlns="http://www.w3.org/2000/svg">
<path d="M24.2578 18.3094H18.9844L15.8344 18.2461C15.5746 18.2428 15.3244 18.1443 15.1295 17.9688C14.9346 17.7932 14.808 17.5523 14.7727 17.2898C14.5242 15.4383 15.0492 13.8937 16.3477 12.6562C17.918 11.1469 18.5344 9.05625 18.1969 6.38437C18.1711 6.17494 18.0697 5.98214 17.9117 5.84228C17.7537 5.70242 17.5501 5.62514 17.3391 5.625H14.1609C13.9489 5.62506 13.7453 5.71059 13.5941 5.86315C13.4428 6.0157 13.356 6.22309 13.3523 6.44062L13.1977 18.9141C13.194 19.1081 13.1133 19.2931 12.9728 19.4297C12.8323 19.5662 12.6431 19.6436 12.4453 19.6453L2.3625 19.6805C2.23726 19.6814 2.11308 19.6573 1.9971 19.6097C1.88113 19.5621 1.77566 19.4918 1.68677 19.4029C1.59788 19.314 1.52733 19.2083 1.47919 19.0918C1.43104 18.9753 1.40625 18.8504 1.40625 18.7242V2.23594C1.40625 2.01589 1.49366 1.80486 1.64926 1.64926C1.80486 1.49366 2.01589 1.40625 2.23594 1.40625L42.8484 1.44844C42.9539 1.44827 43.0569 1.47979 43.1435 1.53881C43.2302 1.59784 43.2965 1.68157 43.3336 1.77891C43.7602 2.89453 43.7836 4.02422 43.4039 5.16797C43.3711 5.267 43.3084 5.3537 43.2242 5.4165C43.1401 5.47931 43.0384 5.51525 42.9328 5.51953L38.5383 5.67422C38.4338 5.67586 38.3332 5.70976 38.2519 5.77072C38.1706 5.83168 38.1132 5.91634 38.0883 6.01172C37.8164 7.05703 37.8094 8.07656 38.0672 9.07031C38.2313 9.7125 38.6859 10.4695 39.4313 11.3414C40.0078 12.0164 40.5656 12.7125 41.1047 13.4297C41.7844 14.325 41.5664 14.7703 40.4508 14.7656L33.7781 14.7234C32.8172 14.7187 32.6438 14.3414 33.2578 13.5914L36.2109 9.98437C36.3741 9.78509 36.4662 9.56587 36.4711 9.36562L36.5484 6.01875C36.5494 5.97203 36.5403 5.9256 36.5216 5.88216C36.5029 5.83873 36.4751 5.79916 36.4398 5.76577C36.4044 5.73238 36.3622 5.70585 36.3157 5.68771C36.2692 5.66958 36.2192 5.66021 36.1688 5.66016H27.2953C27.1923 5.65958 27.0924 5.69437 27.0129 5.75854C26.9333 5.8227 26.879 5.91223 26.8594 6.01172C26.5922 7.22109 26.5711 8.42109 26.7961 9.61172C26.932 10.3477 27.3234 11.0812 27.9703 11.8125C28.5375 12.4547 29.1023 13.1016 29.6648 13.7531C30.5555 14.7937 30.6633 16.1203 29.9883 17.7328C29.9424 17.8401 29.871 17.9321 29.7827 17.9981C29.6943 18.0641 29.5924 18.1013 29.4891 18.1055L24.2578 18.3094ZM42.3422 3.50156C42.3422 3.31881 42.2696 3.14355 42.1404 3.01432C42.0111 2.8851 41.8359 2.8125 41.6531 2.8125H3.51563C3.33287 2.8125 3.15761 2.8851 3.02838 3.01432C2.89916 3.14355 2.82656 3.31881 2.82656 3.50156V3.52969C2.82656 3.62018 2.84439 3.70978 2.87901 3.79338C2.91364 3.87698 2.9644 3.95294 3.02838 4.01693C3.09237 4.08091 3.16833 4.13167 3.25193 4.1663C3.33553 4.20093 3.42514 4.21875 3.51563 4.21875H41.6531C41.8359 4.21875 42.0111 4.14615 42.1404 4.01693C42.2696 3.8877 42.3422 3.71244 42.3422 3.52969V3.50156ZM11.9572 6.35906C11.9577 6.2658 11.9398 6.17336 11.9046 6.08701C11.8693 6.00066 11.8174 5.9221 11.7518 5.85581C11.6862 5.78952 11.6082 5.7368 11.5223 5.70066C11.4363 5.66452 11.344 5.64567 11.2508 5.64518L3.54459 5.60489C3.35626 5.60392 3.17525 5.6778 3.04139 5.81028C2.90752 5.94276 2.83177 6.12299 2.83078 6.31132L2.80842 10.5722C2.80793 10.6654 2.82581 10.7579 2.86105 10.8442C2.89629 10.9306 2.94819 11.0091 3.01378 11.0754C3.07938 11.1417 3.1574 11.1944 3.24337 11.2306C3.32934 11.2667 3.42159 11.2856 3.51485 11.2861L11.221 11.3264C11.4094 11.3273 11.5904 11.2535 11.7242 11.121C11.8581 10.9885 11.9339 10.8083 11.9348 10.6199L11.9572 6.35906ZM25.3189 6.24298C25.3185 6.15895 25.3015 6.07583 25.2689 5.99837C25.2363 5.92091 25.1888 5.85063 25.1291 5.79152C25.0694 5.73242 24.9986 5.68566 24.9208 5.65392C24.843 5.62217 24.7597 5.60606 24.6757 5.60651L20.2742 5.6295C20.1902 5.62994 20.107 5.64693 20.0296 5.67949C19.9521 5.71206 19.8818 5.75956 19.8227 5.81929C19.7636 5.87902 19.7169 5.9498 19.6851 6.0276C19.6534 6.1054 19.6373 6.18869 19.6377 6.27272L19.653 9.19765C19.6534 9.28167 19.6704 9.36479 19.703 9.44225C19.7355 9.51971 19.783 9.59 19.8428 9.6491C19.9025 9.7082 19.9733 9.75496 20.0511 9.78671C20.1289 9.81845 20.2122 9.83456 20.2962 9.83412L24.6977 9.81112C24.7817 9.81068 24.8648 9.79369 24.9423 9.76113C25.0198 9.72857 25.09 9.68106 25.1491 9.62133C25.2082 9.56161 25.255 9.49082 25.2867 9.41302C25.3185 9.33522 25.3346 9.25193 25.3342 9.16791L25.3189 6.24298ZM25.8539 11.7844C25.0711 11.3906 24.2508 11.182 23.393 11.1586C22.5492 11.1352 21.7195 11.1398 20.9039 11.1727C19.3008 11.2383 18.1711 12.0023 17.5148 13.4648C17.4855 13.5288 17.4727 13.5991 17.4774 13.6693C17.4822 13.7396 17.5045 13.8075 17.5423 13.8669C17.58 13.9263 17.632 13.9753 17.6935 14.0095C17.7551 14.0436 17.8242 14.0619 17.8945 14.0625H27.3797C27.6469 14.0625 27.7102 13.9477 27.5695 13.718C26.9508 12.6961 26.3789 12.0516 25.8539 11.7844ZM36.9281 11.5805C35.2313 12.9211 35.2055 13.5352 36.8508 13.4227C36.9023 13.418 37.2961 13.4016 38.032 13.3734C39.2227 13.3266 39.0492 12.7266 37.5117 11.5734C37.4269 11.5111 37.324 11.4781 37.2188 11.4794C37.1135 11.4807 37.0115 11.5161 36.9281 11.5805ZM11.9457 13.3223C11.9454 13.2328 11.9274 13.1441 11.8928 13.0615C11.8583 12.9789 11.8078 12.9039 11.7442 12.8407C11.6807 12.7776 11.6053 12.7277 11.5224 12.6937C11.4396 12.6597 11.3508 12.6424 11.2613 12.6427L3.48476 12.6698C3.39519 12.6701 3.30657 12.6881 3.22394 12.7226C3.14131 12.7572 3.0663 12.8077 3.00319 12.8713C2.94008 12.9348 2.8901 13.0102 2.85612 13.0931C2.82213 13.1759 2.8048 13.2647 2.80512 13.3542L2.81995 17.6152C2.82027 17.7047 2.83822 17.7934 2.87278 17.876C2.90735 17.9586 2.95785 18.0336 3.0214 18.0967C3.08496 18.1599 3.16032 18.2098 3.24319 18.2438C3.32606 18.2778 3.41481 18.2951 3.50438 18.2948L11.2809 18.2677C11.3704 18.2674 11.4591 18.2494 11.5417 18.2148C11.6243 18.1803 11.6993 18.1298 11.7624 18.0662C11.8255 18.0027 11.8755 17.9273 11.9095 17.8444C11.9435 17.7616 11.9608 17.6728 11.9605 17.5833L11.9457 13.3223ZM28.8423 16.1408C28.8424 16.0549 28.8256 15.9699 28.7929 15.8905C28.7602 15.8111 28.7121 15.7389 28.6515 15.6781C28.5909 15.6173 28.5189 15.569 28.4396 15.536C28.3604 15.503 28.2754 15.4859 28.1895 15.4858L16.7285 15.4658C16.6427 15.4656 16.5576 15.4824 16.4782 15.5151C16.3988 15.5479 16.3267 15.5959 16.2658 15.6565C16.205 15.7171 16.1567 15.7891 16.1237 15.8684C16.0907 15.9477 16.0737 16.0327 16.0735 16.1186L16.0734 16.203C16.0732 16.2888 16.09 16.3739 16.1227 16.4533C16.1554 16.5327 16.2035 16.6048 16.2641 16.6657C16.3247 16.7265 16.3967 16.7748 16.476 16.8078C16.5553 16.8408 16.6403 16.8578 16.7261 16.858L28.1871 16.878C28.273 16.8781 28.358 16.8613 28.4374 16.8286C28.5168 16.7959 28.589 16.7478 28.6498 16.6872C28.7106 16.6266 28.7589 16.5546 28.7919 16.4753C28.8249 16.396 28.842 16.311 28.8421 16.2252L28.8423 16.1408Z" fill="black"/>
<path d="M6.71412 7.97346C6.46568 8.39533 5.88443 8.88049 4.97037 9.42893C4.89855 9.47112 4.81755 9.49521 4.73435 9.49911C4.65115 9.50301 4.56825 9.4866 4.49281 9.4513C4.41736 9.416 4.35164 9.36287 4.30132 9.2965C4.251 9.23013 4.21758 9.1525 4.20396 9.07033C3.93209 7.34064 4.65865 6.70549 6.38365 7.16486C6.46536 7.18673 6.5409 7.22721 6.60437 7.28312C6.66784 7.33903 6.71751 7.40887 6.74951 7.48717C6.78151 7.56546 6.79497 7.6501 6.78883 7.73446C6.78269 7.81882 6.75712 7.90062 6.71412 7.97346Z" fill="black"/>
<path d="M4.47186 16.2914C3.90936 15.607 3.92108 15.014 4.50702 14.5125C4.88202 14.189 5.34373 14.0742 5.89217 14.168C7.1203 14.3836 6.88123 15.1195 5.17498 16.3758C5.07095 16.4557 4.9395 16.4916 4.80834 16.4758C4.67718 16.4601 4.55654 16.394 4.47186 16.2914Z" fill="black"/>
<path d="M37.3504 20.7563L37.2379 21.4453C37.2145 21.5978 37.1859 21.7364 37.155 21.8465C37.1241 21.9566 37.092 22.0342 37.0621 22.0711C36.509 22.7508 36.134 22.6406 35.9371 21.7406C35.8715 21.4359 35.8855 21.1219 35.9793 20.7984C36.5324 18.9656 37.5754 18.532 39.1082 19.4977C39.5254 19.7602 39.8019 20.1141 39.9379 20.5594C40.0691 21.0141 40.1254 21.4828 40.1066 21.9656C40.1005 22.0915 40.1267 22.2131 40.18 22.3068C40.2333 22.4004 40.3099 22.4593 40.3949 22.4719C40.6012 22.5047 40.7887 22.3969 40.9574 22.1484C41.5621 21.2578 41.9582 21.3891 42.1457 22.5422C42.4504 24.4313 41.9348 24.9656 40.5988 24.1453C40.559 24.1208 40.5143 24.1047 40.4684 24.0982C40.4225 24.0918 40.3766 24.0952 40.3343 24.1081C40.292 24.1211 40.2545 24.1433 40.2248 24.1729C40.195 24.2025 40.1738 24.2388 40.1629 24.2789C39.9097 25.1086 40.641 25.4039 42.3566 25.1648C42.5064 25.1448 42.6586 25.1566 42.8033 25.1993C42.948 25.242 43.0817 25.3147 43.1955 25.4125C43.3093 25.5104 43.4006 25.6311 43.4633 25.7666C43.5259 25.9021 43.5586 26.0494 43.559 26.1984L43.5519 42.3633C43.5519 42.6896 43.4208 43.0026 43.1874 43.2334C42.954 43.4641 42.6375 43.5938 42.3074 43.5938C29.9793 43.5938 17.8691 43.5938 5.97694 43.5938C4.28475 43.5938 2.83397 43.4836 1.62459 43.2633C1.52676 43.2462 1.43849 43.1946 1.37636 43.1183C1.31422 43.0419 1.28248 42.9459 1.28709 42.8484C1.42303 37.8 1.46522 32.7516 1.41366 27.7031C1.41366 27.6234 1.37616 27.2063 1.30116 26.4516C1.22147 25.6875 1.43944 25.2844 1.95506 25.2422C2.1137 25.2294 2.26782 25.1832 2.40738 25.1065C2.54694 25.0297 2.6688 24.9242 2.765 24.7968C2.86121 24.6694 2.9296 24.523 2.96571 24.3671C3.00183 24.2113 3.00485 24.0494 2.97459 23.8922C2.67459 22.3172 2.89959 21.3938 3.64959 21.1219C4.08084 20.9625 4.81209 20.9203 5.84334 20.9953C7.00584 21.075 7.41131 21.9305 7.05975 23.5617C6.73631 25.057 7.10428 25.5867 8.16366 25.1508C8.25903 25.1117 8.3446 25.0466 8.41313 24.9609C8.48167 24.8753 8.53115 24.7716 8.55741 24.6586C8.88553 23.2617 9.21131 22.3805 9.53475 22.0148C10.6363 20.7773 11.6394 20.6297 12.5441 21.5719C12.8535 21.8906 13.1558 22.4719 13.4512 23.3156C13.6387 23.8359 13.8402 24.3516 14.0558 24.8625C14.1002 24.9673 14.1696 25.0569 14.2557 25.1206C14.3418 25.1843 14.441 25.2192 14.541 25.2211L18.0988 25.2914C18.1504 25.2926 18.202 25.284 18.2497 25.2664C18.2974 25.2487 18.3401 25.2223 18.3746 25.1892C18.409 25.1561 18.4343 25.1171 18.4487 25.0752C18.463 25.0332 18.466 24.9894 18.4574 24.9469C18.4387 24.8672 18.3941 24.7945 18.3238 24.7289C18.2769 24.682 18.209 24.6492 18.1199 24.6305C16.6152 24.3445 16.0621 23.4703 16.4605 22.0078C16.4907 21.8995 16.547 21.8005 16.6243 21.7195C16.7016 21.6386 16.7975 21.5782 16.9035 21.5438C17.8644 21.225 19.2613 21.075 21.0941 21.0938C24.3426 21.1266 26.6113 21.2391 27.9004 21.4313C28.0122 21.4461 28.1181 21.4888 28.2079 21.5553C28.2978 21.6218 28.3686 21.7098 28.4137 21.8109C29.1121 23.3672 28.5473 24.3 26.7191 24.6094C26.4519 24.6563 26.3512 24.7781 26.4168 24.975C26.4454 25.0608 26.5105 25.1357 26.6028 25.1888C26.6951 25.2419 26.8097 25.2705 26.9301 25.2703L38.2082 25.3125C38.3313 25.3125 38.4493 25.2629 38.5363 25.1745C38.6234 25.0862 38.6722 24.9664 38.6722 24.8414C38.6722 23.8055 38.7168 22.7953 38.8058 21.8109C38.8855 20.925 38.5621 20.4633 37.8355 20.4258C37.7173 20.4199 37.6021 20.4504 37.5125 20.5115C37.4229 20.5725 37.3651 20.6598 37.3504 20.7563ZM5.61195 22.8912C5.61102 22.8247 5.59701 22.759 5.57071 22.698C5.54442 22.6369 5.50635 22.5816 5.45869 22.5353C5.41102 22.4889 5.3547 22.4524 5.29292 22.4278C5.23115 22.4032 5.16514 22.3911 5.09866 22.392L4.71905 22.3973C4.65257 22.3983 4.58693 22.4123 4.52586 22.4386C4.4648 22.4649 4.40951 22.5029 4.36316 22.5506C4.31681 22.5983 4.28031 22.6546 4.25572 22.7164C4.23114 22.7781 4.21897 22.8442 4.2199 22.9106L4.24662 24.8229C4.24754 24.8894 4.26155 24.955 4.28785 25.0161C4.31415 25.0772 4.35221 25.1325 4.39988 25.1788C4.44754 25.2252 4.50387 25.2617 4.56564 25.2862C4.62741 25.3108 4.69342 25.323 4.7599 25.3221L5.13952 25.3167C5.20599 25.3158 5.27164 25.3018 5.3327 25.2755C5.39376 25.2492 5.44905 25.2111 5.4954 25.1635C5.54175 25.1158 5.57826 25.0595 5.60284 24.9977C5.62742 24.9359 5.63959 24.8699 5.63866 24.8034L5.61195 22.8912ZM10.8426 22.7461C9.30038 24.9867 9.73397 25.8117 12.1433 25.2211C12.2403 25.1977 12.3257 25.1408 12.3838 25.0607C12.4419 24.9806 12.4689 24.8828 12.4598 24.7852C12.3848 24.007 12.1105 23.3203 11.6371 22.725C11.5898 22.6637 11.5286 22.6144 11.4587 22.5812C11.3887 22.548 11.3119 22.5318 11.2345 22.5338C11.1571 22.5359 11.0812 22.5562 11.0131 22.593C10.945 22.6299 10.8866 22.6824 10.8426 22.7461ZM25.2968 23.4693C25.2984 23.3428 25.275 23.2172 25.228 23.0998C25.181 22.9823 25.1114 22.8753 25.023 22.7847C24.9347 22.6942 24.8294 22.622 24.7131 22.5721C24.5968 22.5223 24.4719 22.4958 24.3454 22.4943L20.6894 22.4497C20.5629 22.4481 20.4374 22.4715 20.3199 22.5185C20.2024 22.5654 20.0954 22.6351 20.0049 22.7234C19.9143 22.8118 19.8421 22.9171 19.7922 23.0334C19.7424 23.1496 19.7159 23.2746 19.7144 23.4011L19.7039 24.2589C19.7024 24.3854 19.7258 24.5109 19.7727 24.6284C19.8197 24.7458 19.8894 24.8529 19.9777 24.9434C20.0661 25.0339 20.1714 25.1062 20.2877 25.156C20.4039 25.2058 20.5289 25.2323 20.6554 25.2338L24.3113 25.2785C24.4378 25.28 24.5634 25.2566 24.6808 25.2097C24.7983 25.1627 24.9054 25.0931 24.9959 25.0047C25.0864 24.9164 25.1587 24.811 25.2085 24.6948C25.2584 24.5785 25.2848 24.4536 25.2864 24.3271L25.2968 23.4693ZM15.4412 27.3061C15.4415 27.1532 15.381 27.0065 15.2731 26.8982C15.1651 26.7899 15.0186 26.7289 14.8657 26.7286L3.58758 26.7089C3.51186 26.7088 3.43686 26.7236 3.36686 26.7524C3.29686 26.7813 3.23323 26.8236 3.1796 26.8771C3.12597 26.9305 3.08339 26.994 3.0543 27.0639C3.0252 27.1338 3.01016 27.2088 3.01003 27.2845L3.00954 27.5657C3.00928 27.7186 3.06976 27.8654 3.17769 27.9737C3.28562 28.082 3.43215 28.143 3.58505 28.1433L14.8632 28.163C14.9389 28.1631 15.0139 28.1483 15.0839 28.1195C15.1539 28.0906 15.2175 28.0482 15.2712 27.9948C15.3248 27.9414 15.3674 27.8779 15.3965 27.808C15.4255 27.7381 15.4406 27.6631 15.4407 27.5874L15.4412 27.3061ZM28.1183 27.4219C28.1183 27.3305 28.1003 27.2399 28.0654 27.1555C28.0304 27.071 27.9791 26.9943 27.9145 26.9297C27.8498 26.865 27.7731 26.8138 27.6886 26.7788C27.6042 26.7438 27.5137 26.7258 27.4223 26.7258H17.4941C17.4027 26.7258 17.3122 26.7438 17.2277 26.7788C17.1433 26.8138 17.0666 26.865 17.0019 26.9297C16.9373 26.9943 16.886 27.071 16.851 27.1555C16.816 27.2399 16.798 27.3305 16.798 27.4219V30.2344C16.798 30.419 16.8714 30.596 17.0019 30.7266C17.1325 30.8571 17.3095 30.9305 17.4941 30.9305H27.4223C27.6069 30.9305 27.7839 30.8571 27.9145 30.7266C28.045 30.596 28.1183 30.419 28.1183 30.2344V27.4219ZM42.3284 27.3966C42.3283 27.3071 42.3105 27.2184 42.2761 27.1357C42.2416 27.053 42.1913 26.9779 42.1278 26.9147C42.0644 26.8515 41.9891 26.8014 41.9063 26.7673C41.8235 26.7331 41.7348 26.7156 41.6452 26.7158L30.2125 26.7358C30.1229 26.7359 30.0342 26.7537 29.9515 26.7881C29.8689 26.8226 29.7938 26.8729 29.7305 26.9364C29.6673 26.9998 29.6172 27.0751 29.5831 27.1579C29.549 27.2407 29.5315 27.3294 29.5316 27.419L29.5317 27.4612C29.5319 27.5507 29.5497 27.6394 29.5841 27.7221C29.6185 27.8048 29.6689 27.8799 29.7323 27.9431C29.7957 28.0063 29.871 28.0564 29.9538 28.0906C30.0366 28.1247 30.1254 28.1422 30.2149 28.142L41.6477 28.1221C41.7372 28.1219 41.8259 28.1041 41.9086 28.0697C41.9913 28.0353 42.0664 27.9849 42.1296 27.9214C42.1928 27.858 42.2429 27.7827 42.277 27.6999C42.3112 27.6171 42.3287 27.5284 42.3285 27.4388L42.3284 27.3966ZM15.4819 30.2143C15.4825 30.0391 15.4134 29.8707 15.2899 29.7464C15.1664 29.622 14.9985 29.5518 14.8232 29.5512L3.46081 29.5115C3.37401 29.5112 3.288 29.528 3.2077 29.5609C3.12739 29.5939 3.05436 29.6423 2.99277 29.7034C2.93118 29.7646 2.88224 29.8373 2.84874 29.9174C2.81525 29.9974 2.79785 30.0833 2.79755 30.1701L2.75796 41.5044C2.75736 41.6797 2.82642 41.848 2.94993 41.9724C3.07344 42.0968 3.2413 42.167 3.41658 42.1676L14.779 42.2073C14.8658 42.2076 14.9518 42.1908 15.0321 42.1578C15.1124 42.1249 15.1855 42.0765 15.247 42.0153C15.3086 41.9542 15.3576 41.8815 15.3911 41.8014C15.4246 41.7213 15.442 41.6354 15.4423 41.5486L15.4819 30.2143ZM42.2185 30.0075C42.2191 29.89 42.173 29.7771 42.0904 29.6936C42.0078 29.6102 41.8954 29.5629 41.778 29.5623L29.9797 29.5005C29.9215 29.5002 29.8638 29.5113 29.81 29.5333C29.7561 29.5553 29.7071 29.5876 29.6657 29.6286C29.6244 29.6695 29.5915 29.7181 29.569 29.7718C29.5464 29.8254 29.5347 29.8829 29.5344 29.9411L29.4728 41.6972C29.4722 41.8147 29.5183 41.9276 29.6009 42.0111C29.6836 42.0945 29.796 42.1418 29.9134 42.1424L41.7117 42.2042C41.7699 42.2045 41.8276 42.1934 41.8814 42.1714C41.9353 42.1494 41.9843 42.1171 42.0256 42.0761C42.067 42.0352 42.0999 41.9866 42.1224 41.9329C42.1449 41.8793 42.1567 41.8218 42.157 41.7636L42.2185 30.0075ZM25.2637 39.4383C25.7512 39.4383 26.0582 39.4383 26.1848 39.4383C27.2348 39.4148 27.8676 39.143 28.0832 38.6227C28.1113 38.5523 28.1254 37.9922 28.1254 36.9422C28.1254 35.7047 28.1207 34.4648 28.1113 33.2227C28.1066 32.2383 27.7762 31.9453 27.1199 32.3438C26.9208 32.4666 26.7591 32.6416 26.6525 32.8499C26.5459 33.0581 26.4984 33.2916 26.5152 33.525C26.6043 34.7297 26.2035 35.2922 25.3129 35.2125C24.891 35.175 24.659 35.1563 24.6168 35.1563C22.8683 35.175 21.1222 35.1633 19.3785 35.1211C19.1307 35.1168 18.9093 35.0363 18.7598 34.8961C18.2957 34.4648 18.1129 33.9047 18.2113 33.2156C18.2288 33.0882 18.2259 32.9653 18.2028 32.8559C18.1797 32.7465 18.137 32.6532 18.0777 32.5828C17.7777 32.2406 17.4683 32.2078 17.1496 32.4844C17.0742 32.5511 17.0127 32.6394 16.9691 32.7435C16.9255 32.8476 16.9008 32.9653 16.8965 33.0891L16.6926 38.4258C16.6879 38.549 16.7089 38.6719 16.7544 38.7872C16.7999 38.9025 16.869 39.0078 16.9575 39.097C17.046 39.1862 17.1522 39.2573 17.2698 39.3063C17.3873 39.3553 17.5138 39.381 17.6418 39.382L25.2637 39.4383ZM24.8277 32.4773C23.7449 32.1961 22.259 32.2313 20.3699 32.5828C19.7043 32.7047 19.4652 32.9414 19.6527 33.293C19.7035 33.3926 19.7817 33.4763 19.8785 33.5346C19.9753 33.5929 20.087 33.6237 20.2012 33.6234L24.659 33.6656C24.7673 33.6658 24.8762 33.6371 24.9766 33.5821C25.0769 33.527 25.1657 33.4472 25.2355 33.3492C25.5402 32.918 25.4043 32.6273 24.8277 32.4773ZM28.1184 41.5323C28.1187 41.4372 28.1003 41.343 28.0643 41.255C28.0282 41.167 27.9751 41.087 27.9081 41.0195C27.8411 40.952 27.7614 40.8984 27.6737 40.8617C27.5859 40.825 27.4918 40.8059 27.3967 40.8056L17.4827 40.771C17.2906 40.7703 17.1061 40.846 16.9699 40.9813C16.8336 41.1167 16.7567 41.3006 16.756 41.4927L16.7558 41.5349C16.7554 41.63 16.7738 41.7242 16.8099 41.8122C16.846 41.9002 16.8991 41.9802 16.9661 42.0477C17.0331 42.1152 17.1128 42.1688 17.2005 42.2055C17.2882 42.2422 17.3824 42.2613 17.4775 42.2616L27.3915 42.2962C27.5836 42.2969 27.768 42.2212 27.9043 42.0859C28.0406 41.9505 28.1175 41.7666 28.1182 41.5745L28.1184 41.5323Z" fill="black"/>
<path d="M22.2444 29.345C22.5377 29.5489 22.9211 29.5048 23.1006 29.2465C23.2801 28.9882 23.1878 28.6135 22.8945 28.4096C22.6011 28.2058 22.2178 28.2498 22.0382 28.5081C21.8587 28.7664 21.951 29.1411 22.2444 29.345Z" fill="black"/>
<path d="M25.1515 29.4328C24.8187 29.25 24.6898 29.018 24.7648 28.7367C24.8305 28.507 24.9898 28.3641 25.243 28.3078C25.618 28.2328 25.8172 28.4648 25.8406 29.0039C25.864 29.557 25.6344 29.7 25.1515 29.4328Z" fill="black"/>
<path d="M19.1609 28.8914C19.1281 28.8117 19.1351 28.7297 19.182 28.6453C19.2139 28.592 19.2683 28.5536 19.3353 28.5368C19.4023 28.5201 19.4776 28.5261 19.5476 28.5539C20.471 28.9054 20.5273 29.0976 19.7164 29.1304C19.5854 29.1365 19.4608 29.1165 19.3609 29.0735C19.2609 29.0305 19.1909 28.9667 19.1609 28.8914Z" fill="black"/>
<path d="M14.0043 34.2015C14.0041 34.3271 13.9791 34.4514 13.9309 34.5673C13.8826 34.6832 13.812 34.7885 13.7231 34.8772C13.6341 34.9658 13.5286 35.0361 13.4125 35.0839C13.2964 35.1318 13.172 35.1563 13.0464 35.1561L5.17143 35.1423C5.04585 35.1421 4.92155 35.1172 4.80561 35.0689C4.68968 35.0207 4.58438 34.9501 4.49573 34.8611C4.40709 34.7722 4.33683 34.6666 4.28897 34.5505C4.24111 34.4344 4.21659 34.31 4.2168 34.1845L4.22088 31.8782C4.22109 31.7526 4.24603 31.6283 4.29429 31.5124C4.34254 31.3965 4.41315 31.2912 4.5021 31.2025C4.59104 31.1139 4.69658 31.0436 4.81268 30.9958C4.92878 30.9479 5.05317 30.9234 5.17874 30.9236L13.0537 30.9374C13.1793 30.9376 13.3036 30.9625 13.4196 31.0108C13.5355 31.059 13.6408 31.1296 13.7294 31.2186C13.8181 31.3075 13.8883 31.4131 13.9362 31.5292C13.9841 31.6453 14.0086 31.7697 14.0084 31.8952L14.0043 34.2015ZM12.6422 33.0197C12.6419 32.8444 12.572 32.6764 12.4478 32.5527C12.3236 32.429 12.1554 32.3596 11.9801 32.3599L6.32702 32.3698C6.24022 32.3699 6.15429 32.3872 6.07416 32.4205C5.99402 32.4539 5.92124 32.5027 5.85997 32.5642C5.7987 32.6257 5.75014 32.6986 5.71706 32.7789C5.68399 32.8591 5.66705 32.9451 5.6672 33.0319L5.66734 33.0882C5.66766 33.2634 5.73759 33.4314 5.86175 33.5551C5.98591 33.6789 6.15413 33.7482 6.32941 33.7479L11.9825 33.7381C12.0693 33.7379 12.1553 33.7207 12.2354 33.6873C12.3155 33.6539 12.3883 33.6051 12.4496 33.5436C12.5109 33.4822 12.5594 33.4092 12.5925 33.329C12.6256 33.2487 12.6425 33.1627 12.6423 33.0759L12.6422 33.0197Z" fill="black"/>
<path d="M40.7652 34.1945C40.765 34.3219 40.7397 34.4481 40.6907 34.5657C40.6418 34.6833 40.5701 34.7902 40.4798 34.8801C40.3896 34.9701 40.2825 35.0414 40.1647 35.0899C40.0469 35.1385 39.9207 35.1634 39.7932 35.1631L31.9042 35.1494C31.7768 35.1491 31.6506 35.1238 31.533 35.0748C31.4153 35.0259 31.3085 34.9542 31.2186 34.864C31.1286 34.7737 31.0573 34.6666 31.0088 34.5488C30.9602 34.431 30.9353 34.3048 30.9355 34.1774L30.9395 31.8992C30.9397 31.7718 30.965 31.6457 31.014 31.528C31.063 31.4104 31.1346 31.3036 31.2249 31.2136C31.3151 31.1237 31.4222 31.0524 31.54 31.0038C31.6578 30.9553 31.7841 30.9304 31.9115 30.9306L39.8005 30.9444C39.928 30.9446 40.0541 30.9699 40.1717 31.0189C40.2894 31.0679 40.3962 31.1395 40.4862 31.2298C40.5761 31.32 40.6474 31.4271 40.696 31.5449C40.7445 31.6627 40.7694 31.789 40.7692 31.9164L40.7652 34.1945ZM39.3611 33.0647C39.3617 32.9789 39.3454 32.8937 39.3131 32.8141C39.2808 32.7346 39.2331 32.6621 39.1728 32.601C39.1125 32.5399 39.0408 32.4912 38.9617 32.4578C38.8825 32.4244 38.7976 32.4069 38.7118 32.4063L32.89 32.3656C32.8042 32.365 32.719 32.3813 32.6394 32.4136C32.5599 32.4459 32.4874 32.4936 32.4263 32.5539C32.3652 32.6142 32.3165 32.6859 32.2831 32.7651C32.2497 32.8442 32.2321 32.9291 32.2315 33.0149L32.2311 33.0712C32.2305 33.1571 32.2468 33.2422 32.2792 33.3218C32.3115 33.4014 32.3591 33.4738 32.4194 33.5349C32.4797 33.5961 32.5515 33.6447 32.6306 33.6782C32.7097 33.7116 32.7946 33.7291 32.8805 33.7297L38.7022 33.7703C38.7881 33.7709 38.8732 33.7546 38.9528 33.7223C39.0324 33.69 39.1048 33.6423 39.1659 33.582C39.2271 33.5217 39.2757 33.45 39.3092 33.3709C39.3426 33.2918 39.3601 33.2069 39.3607 33.121L39.3611 33.0647Z" fill="black"/>
<path d="M13.9735 39.9308C13.9725 40.048 13.9484 40.164 13.9026 40.2719C13.8567 40.3799 13.7901 40.4777 13.7065 40.5599C13.6228 40.6421 13.5238 40.707 13.4151 40.751C13.3063 40.7949 13.19 40.817 13.0727 40.8159L5.11371 40.7465C4.87689 40.7444 4.65059 40.6483 4.48459 40.4794C4.31859 40.3105 4.22649 40.0826 4.22855 39.8458L4.24999 37.3849C4.25102 37.2676 4.27512 37.1517 4.32095 37.0438C4.36677 36.9358 4.4334 36.8379 4.51705 36.7557C4.60069 36.6735 4.69971 36.6086 4.80844 36.5647C4.91718 36.5208 5.0335 36.4987 5.15077 36.4997L13.1098 36.5692C13.3466 36.5713 13.5729 36.6673 13.7389 36.8362C13.9049 37.0051 13.997 37.2331 13.995 37.4699L13.9735 39.9308ZM12.6414 38.6445C12.6411 38.4711 12.5719 38.3049 12.449 38.1825C12.3262 38.0601 12.1598 37.9915 11.9863 37.9918L6.1504 38.002C6.06452 38.0021 5.97951 38.0192 5.90023 38.0522C5.82095 38.0852 5.74894 38.1335 5.68832 38.1943C5.62771 38.2551 5.57967 38.3273 5.54694 38.4067C5.51422 38.4861 5.49746 38.5712 5.49762 38.6571L5.49776 38.7133C5.49808 38.8867 5.56726 39.0529 5.6901 39.1753C5.81295 39.2977 5.97938 39.3663 6.15279 39.366L11.9887 39.3559C12.0746 39.3557 12.1596 39.3387 12.2389 39.3057C12.3182 39.2727 12.3902 39.2244 12.4508 39.1635C12.5114 39.1027 12.5595 39.0305 12.5922 38.9511C12.6249 38.8717 12.6417 38.7867 12.6415 38.7008L12.6414 38.6445Z" fill="black"/>
<path d="M40.7369 39.8592C40.736 39.9847 40.7104 40.1089 40.6616 40.2246C40.6127 40.3403 40.5415 40.4452 40.4521 40.5334C40.3627 40.6216 40.2568 40.6913 40.1404 40.7385C40.0241 40.7858 39.8996 40.8096 39.774 40.8087L31.8851 40.7537C31.7596 40.7528 31.6354 40.7272 31.5197 40.6783C31.404 40.6295 31.2991 40.5583 31.2109 40.4689C31.1227 40.3795 31.053 40.2736 31.0058 40.1572C30.9586 40.0409 30.9347 39.9163 30.9356 39.7908L30.952 37.4424C30.9528 37.3168 30.9784 37.1926 31.0273 37.077C31.0762 36.9613 31.1473 36.8563 31.2367 36.7682C31.3262 36.68 31.4321 36.6103 31.5484 36.563C31.6648 36.5158 31.7893 36.4919 31.9149 36.4928L39.8037 36.5479C39.9293 36.5487 40.0535 36.5743 40.1692 36.6232C40.2849 36.6721 40.3898 36.7433 40.478 36.8327C40.5661 36.9221 40.6358 37.028 40.6831 37.1444C40.7303 37.2607 40.7542 37.3852 40.7533 37.5108L40.7369 39.8592ZM39.3599 38.6386C39.3596 38.5518 39.3422 38.4659 39.3088 38.3859C39.2753 38.3058 39.2263 38.2331 39.1647 38.1719C39.1032 38.1108 39.0301 38.0623 38.9498 38.0294C38.8695 37.9964 38.7835 37.9796 38.6967 37.9799L33.0295 37.9998C32.8543 38.0004 32.6864 38.0706 32.5629 38.195C32.4394 38.3193 32.3703 38.4877 32.3709 38.6629L32.3711 38.7192C32.3714 38.806 32.3888 38.8919 32.4223 38.972C32.4558 39.052 32.5047 39.1247 32.5663 39.1859C32.6279 39.2471 32.7009 39.2955 32.7812 39.3284C32.8615 39.3614 32.9475 39.3782 33.0343 39.3779L38.7015 39.3581C38.8768 39.3574 39.0447 39.2872 39.1682 39.1629C39.2917 39.0385 39.3607 38.8701 39.3601 38.6949L39.3599 38.6386Z" fill="black"/>
</svg>
