<svg width="45" height="45" viewBox="0 0 45 45" fill="none" xmlns="http://www.w3.org/2000/svg">
<path d="M31.5459 1.44491C31.6848 0.970304 31.8799 0.518253 32.1312 0.0887606C32.1367 0.0794988 32.1442 0.0716409 32.1532 0.0658034C32.1622 0.0599659 32.1725 0.0563076 32.1832 0.0551155C32.1939 0.0539234 32.2048 0.0552299 32.215 0.0589325C32.2252 0.0626351 32.2345 0.0686331 32.242 0.0764559C32.7125 0.575089 33.052 1.16659 33.2606 1.85097C33.338 2.10585 33.3178 2.41903 33.2 2.79052C33.098 3.11278 32.856 3.28564 32.474 3.30907C32.0135 3.3372 31.7117 3.13564 31.5687 2.70439C31.4305 2.2872 31.4228 1.86737 31.5459 1.44491Z" fill="black"/>
<path d="M33.6308 3.70632C33.6659 3.61316 33.706 3.52205 33.7512 3.43299C33.7939 3.34744 33.8499 3.2657 33.919 3.18777C34.2378 2.82859 34.6052 2.5283 35.0212 2.28689C35.0282 2.28272 35.0362 2.28029 35.0443 2.27977C35.0525 2.27925 35.0607 2.28067 35.0683 2.28391C35.0759 2.28715 35.0827 2.29212 35.0881 2.29844C35.0935 2.30475 35.0973 2.31223 35.0994 2.32029C35.2295 2.82947 35.2523 3.32547 35.168 3.80828C35.1351 3.99695 35.0801 4.16248 35.0027 4.30486C34.909 4.47888 34.7974 4.61687 34.6679 4.71882C34.5624 4.80144 34.4367 4.84099 34.2908 4.83748C34.1707 4.83513 34.0497 4.80086 33.9278 4.73465C33.5487 4.52898 33.4497 4.18621 33.6308 3.70632Z" fill="black"/>
<path d="M31.2809 4.89026C31.1338 5.07308 30.958 5.16419 30.7535 5.1636C30.5924 5.16302 30.423 5.09827 30.2455 4.96937C29.9736 4.77249 29.7768 4.50853 29.6549 4.17747C29.523 3.82181 29.4363 3.44065 29.3947 3.03401C29.3941 3.027 29.3951 3.01992 29.3976 3.01335C29.4001 3.00677 29.4041 3.00087 29.4093 2.99611C29.4145 2.99134 29.4207 2.98784 29.4275 2.98588C29.4343 2.98392 29.4414 2.98354 29.4483 2.98479C29.869 3.06683 30.264 3.20481 30.6331 3.39876C30.9407 3.56048 31.1777 3.79427 31.3441 4.10013C31.4982 4.38313 31.4771 4.64651 31.2809 4.89026Z" fill="black"/>
<path d="M23.0853 12.6853C23.8336 13.4212 24.5797 14.1595 25.3239 14.9001C25.4364 15.012 25.5659 15.0996 25.7124 15.1629C27.5258 15.9475 29.3399 16.7329 31.1546 17.5193C31.1641 17.5234 31.1745 17.5252 31.1849 17.5243C31.1953 17.5234 31.2054 17.52 31.2141 17.5142C31.2229 17.5085 31.2302 17.5006 31.2353 17.4914C31.2404 17.4822 31.2431 17.4718 31.2433 17.4612L31.26 15.7808C31.2606 15.7524 31.2512 15.725 31.2337 15.7034L29.3941 13.4121C29.3379 13.3424 29.2995 13.2677 29.279 13.188L28.2005 8.96398C28.1926 8.93205 28.1935 8.90171 28.2032 8.87785L28.3113 8.61769C28.3423 8.54269 28.3693 8.54533 28.3921 8.6256L29.6894 13.1625C29.7035 13.21 29.7269 13.2516 29.7597 13.2873L31.2046 14.8272C31.2568 14.8828 31.2829 14.8726 31.2829 14.7964C31.2829 14.4583 31.2963 14.1035 31.3233 13.732C31.5588 10.5047 31.7926 7.24718 32.0247 3.95949C32.0267 3.93466 32.0378 3.91151 32.0557 3.89471C32.0736 3.87791 32.0971 3.86871 32.1214 3.86896L32.9581 3.87248C32.9621 3.87246 32.9661 3.87329 32.9698 3.87491C32.9735 3.87653 32.9768 3.8789 32.9796 3.88188C32.9823 3.88486 32.9844 3.88838 32.9857 3.89221C32.987 3.89604 32.9874 3.90009 32.9871 3.90412L32.3789 11.9575C32.3784 11.9651 32.3798 11.9726 32.3831 11.9794C32.3864 11.9862 32.3913 11.992 32.3975 11.9964C32.4037 12.0007 32.4109 12.0034 32.4184 12.0041C32.4259 12.0048 32.4335 12.0036 32.4404 12.0006L34.2588 11.1867C34.2981 11.1692 34.3303 11.144 34.3555 11.1111L37.3385 7.22463C37.3678 7.18654 37.3869 7.19094 37.3957 7.23781C37.4349 7.44758 37.4185 7.60285 37.3464 7.70363C36.498 8.87961 35.6422 10.0503 34.7792 11.2157C34.6889 11.3376 34.5785 11.4361 34.4478 11.5111C33.7816 11.8913 33.1025 12.2649 32.4105 12.6317C32.384 12.6456 32.3616 12.6663 32.3456 12.6915C32.3296 12.7168 32.3204 12.7459 32.3191 12.7758C32.3091 13.0149 32.2936 13.2586 32.2725 13.507C32.2508 13.7672 32.2441 14.0101 32.2523 14.2357C32.2869 15.1445 32.3179 16.0784 32.3455 17.0376C32.3459 17.0483 32.3487 17.0587 32.3539 17.0681C32.359 17.0774 32.3663 17.0855 32.3751 17.0915C32.3839 17.0976 32.394 17.1015 32.4045 17.103C32.4151 17.1045 32.4259 17.1034 32.436 17.1L36.2803 15.8265C36.3735 15.7954 36.4564 15.7477 36.5291 15.6832C37.3599 14.9432 38.2075 14.185 39.0717 13.4086C39.2311 13.2656 39.3445 13.1435 39.4119 13.0421C40.1601 11.9101 40.9087 10.7833 41.6575 9.66183C41.6833 9.62316 41.6982 9.62726 41.7023 9.67414C41.7158 9.82297 41.6979 9.9425 41.6487 10.0327C41.0276 11.1601 40.403 12.2854 39.7749 13.4086C39.6659 13.6037 39.563 13.7432 39.4664 13.827C38.5921 14.5852 37.7173 15.3431 36.842 16.1007C36.6732 16.2466 36.534 16.3421 36.4245 16.3872C35.0921 16.938 33.7655 17.5028 32.4448 18.0818C32.4323 18.0872 32.4218 18.0961 32.4146 18.1072C32.4074 18.1184 32.4038 18.1312 32.4044 18.1442L32.5775 23.2163C32.5779 23.2245 32.5802 23.2325 32.5843 23.2395C32.5883 23.2466 32.5941 23.2526 32.6009 23.2569C32.6078 23.2612 32.6155 23.2638 32.6236 23.2644C32.6316 23.265 32.6396 23.2636 32.6469 23.2603C33.7731 22.7611 34.8876 22.2733 35.9903 21.7969C36.1292 21.7371 36.2554 21.6577 36.3691 21.5587C37.1349 20.8948 37.904 20.2348 38.6762 19.5785C38.6867 19.5696 38.6991 19.5633 38.7121 19.5602C38.7251 19.5572 38.7385 19.5574 38.7509 19.561C38.8699 19.5949 38.9724 19.6556 39.0586 19.7429C39.0626 19.747 39.0657 19.752 39.0677 19.7574C39.0698 19.7628 39.0707 19.7686 39.0704 19.7744C39.0702 19.7802 39.0688 19.7859 39.0663 19.7912C39.0638 19.7966 39.0603 19.8013 39.0559 19.8053C38.1729 20.6315 37.277 21.4436 36.3682 22.2416C36.1444 22.4379 35.9006 22.6116 35.637 22.7628C34.6526 23.3259 33.6679 23.8884 32.683 24.4503C32.671 24.4571 32.6608 24.4666 32.6531 24.4779C32.6455 24.4891 32.6407 24.502 32.639 24.5153C32.6232 24.6443 32.6197 24.7729 32.6285 24.9012C32.6414 25.0963 32.6472 25.2243 32.6461 25.2853C32.5248 30.6612 32.4038 36.0372 32.2831 41.4132C32.2828 41.4277 32.286 41.4417 32.2924 41.4536C32.2988 41.4656 32.308 41.475 32.3191 41.4809L32.8913 41.7911C32.9002 41.796 32.9119 41.798 32.9253 41.7971C32.9386 41.7962 32.9532 41.7923 32.9677 41.7859L33.2244 41.6725C33.2356 41.6675 33.2487 41.6654 33.2627 41.6663C33.2766 41.6672 33.2912 41.6711 33.3052 41.6778L34.7053 42.3598C34.7185 42.3662 34.7295 42.3759 34.7364 42.3875C34.7434 42.399 34.7461 42.4118 34.744 42.4239L34.7132 42.6243C34.711 42.638 34.7122 42.6516 34.7166 42.663C34.7211 42.6744 34.7285 42.6831 34.7379 42.6876L35.1562 42.8968C35.176 42.9067 35.1986 42.9102 35.2211 42.9069C35.2436 42.9036 35.2651 42.8937 35.2828 42.8783C35.4621 42.7225 35.6376 42.6917 35.8092 42.7861C35.9528 42.8652 36.0925 42.9355 36.2285 42.997C36.2541 43.0087 36.2749 43.0283 36.2876 43.0527C36.3002 43.077 36.3039 43.1045 36.2979 43.1306L36.181 43.6456C36.1776 43.6611 36.1708 43.6757 36.1612 43.6885C36.1516 43.7012 36.1392 43.7119 36.125 43.7198C36.1107 43.7277 36.0948 43.7327 36.0783 43.7345C36.0618 43.7362 36.045 43.7347 36.029 43.73C35.8731 43.6843 35.823 43.7265 35.8787 43.8566C35.8836 43.8682 35.8845 43.8811 35.8813 43.8928C35.8781 43.9046 35.8709 43.9145 35.8611 43.9207L35.216 44.3189C35.1927 44.3331 35.1635 44.3386 35.1334 44.3347L34.584 44.2591C34.5675 44.2569 34.5523 44.2525 34.5394 44.2461C34.5265 44.2397 34.5162 44.2316 34.5093 44.2222L34.272 43.9014C34.2571 43.881 34.2388 43.8644 34.2186 43.853C34.1984 43.8415 34.177 43.8355 34.156 43.8355L32.371 43.8302C32.3546 43.8302 32.3391 43.8278 32.3255 43.8231C32.3118 43.8184 32.3004 43.8115 32.2919 43.8029L32.0124 43.5235C32.0016 43.513 31.9897 43.5048 31.9775 43.4993C31.9652 43.4938 31.9528 43.4913 31.9412 43.4918C31.5427 43.5158 31.2884 43.5571 31.1783 43.6157C30.8812 43.7739 30.5824 43.9298 30.2818 44.0833C30.2644 44.0922 30.2447 44.0957 30.2253 44.0933C30.2059 44.091 30.1876 44.0829 30.1728 44.0701C30.1031 44.0098 30.0339 43.9521 29.9654 43.897C29.8798 43.8279 29.8002 43.7983 29.7263 43.8082C29.6373 43.8199 29.5634 43.8662 29.5048 43.9471C29.4867 43.9726 29.4633 43.9901 29.4389 43.9963L28.3614 44.274C28.3451 44.278 28.327 44.2751 28.3099 44.2657C28.2928 44.2564 28.2775 44.2411 28.2665 44.2222L28.1522 44.0227C28.1465 44.0127 28.1366 44.0045 28.1239 43.999C28.1111 43.9936 28.096 43.9911 28.0801 43.9919C27.6811 44.0124 27.2921 43.9579 26.913 43.8284C26.8813 43.8171 26.851 43.8149 26.8277 43.8223L26.0569 44.0666C25.9957 44.0859 25.9396 44.0896 25.8987 44.0772L24.7878 43.7353C24.7747 43.7311 24.7634 43.7229 24.756 43.7119C24.7486 43.701 24.7456 43.6881 24.7473 43.6755L24.8229 43.1367C24.8248 43.1234 24.8303 43.1106 24.8389 43.0993C24.8474 43.088 24.8588 43.0785 24.8721 43.0717L25.7994 42.5988C25.872 42.5613 25.9599 42.5631 26.063 42.6041L26.4779 42.7694C26.4831 42.7713 26.4887 42.7721 26.4942 42.7715C26.4998 42.7709 26.5052 42.769 26.51 42.766C26.5148 42.7629 26.5189 42.7588 26.5221 42.7539C26.5252 42.749 26.5272 42.7435 26.528 42.7377L26.6089 42.1699C26.6106 42.1573 26.6161 42.1455 26.6245 42.1361C26.633 42.1267 26.6441 42.1201 26.6563 42.1172L27.5264 41.9274C27.5524 41.9217 27.5762 41.9054 27.5932 41.8817C27.636 41.8231 27.6905 41.7806 27.7567 41.7542C28.2536 41.5568 28.7472 41.3514 29.2377 41.1381C29.3853 41.0742 29.518 41.0933 29.6358 41.1952C29.7008 41.2509 29.7372 41.236 29.7448 41.1504L30.9849 27.0668C30.9869 27.0439 30.9821 27.021 30.971 27.0008C30.9599 26.9806 30.943 26.9641 30.9225 26.9534C30.1702 26.5568 29.414 26.1563 28.6541 25.752C28.5322 25.6869 28.4323 25.5985 28.3544 25.4865C28.3046 25.4156 28.2776 25.3773 28.2735 25.3714C27.4954 24.3566 26.7202 23.3394 25.9479 22.3198C25.8401 22.1775 25.7821 22.0945 25.7739 22.0711C25.7446 21.9861 25.7431 21.8786 25.7695 21.7486C25.783 21.6847 25.8102 21.6782 25.8512 21.7292C26.7858 22.8952 27.7315 24.0736 28.6883 25.2642C28.7698 25.3661 28.87 25.4441 28.9889 25.498C29.644 25.798 30.302 26.0983 30.9629 26.3988C30.9718 26.4029 30.9815 26.4047 30.9913 26.4042C31.001 26.4037 31.0104 26.4009 31.0187 26.3959C31.0271 26.391 31.034 26.3841 31.039 26.3759C31.044 26.3677 31.0468 26.3583 31.0473 26.3487C31.0614 26.1402 31.079 25.9289 31.1001 25.7151C31.1235 25.4854 31.1367 25.275 31.1396 25.084C31.173 22.96 31.2008 20.8046 31.2231 18.6179C31.2234 18.5927 31.2165 18.568 31.2033 18.5466C31.1901 18.5253 31.171 18.5082 31.1484 18.4975C29.1328 17.5336 27.1166 16.5653 25.0998 15.5927C24.9515 15.5212 24.8212 15.4254 24.7087 15.3053C23.6979 14.2248 22.6752 13.1315 21.6404 12.0252C21.6251 12.009 21.6169 11.9872 21.6172 11.9638C21.6175 11.9405 21.6264 11.9173 21.6422 11.8987L21.8689 11.6271C21.8769 11.6176 21.8866 11.6097 21.8975 11.6039C21.9084 11.5982 21.9201 11.5946 21.9321 11.5936C21.9441 11.5925 21.9559 11.5939 21.967 11.5977C21.978 11.6015 21.988 11.6076 21.9963 11.6156C22.379 11.9912 22.742 12.3478 23.0853 12.6853Z" fill="black"/>
<path d="M33.6345 6.03721C33.8038 5.83916 33.9582 5.70088 34.0977 5.62237C34.5951 5.34112 35.1289 5.17647 35.699 5.12842C35.7043 5.12798 35.7097 5.12872 35.7147 5.13059C35.7197 5.13247 35.7241 5.13542 35.7278 5.13923C35.7314 5.14305 35.7341 5.14761 35.7357 5.15259C35.7373 5.15757 35.7376 5.16283 35.7368 5.16797C35.6501 5.71524 35.4729 6.21358 35.2051 6.66299C35.0879 6.85987 34.9347 7.02539 34.7454 7.15957C34.5632 7.28965 34.3827 7.36319 34.204 7.38018C33.9714 7.40186 33.776 7.32891 33.6178 7.16133C33.4689 7.00254 33.3945 6.82295 33.3945 6.62256C33.3945 6.41866 33.4745 6.22354 33.6345 6.03721Z" fill="black"/>
<path d="M31.2384 7.09451C31.0755 7.32244 30.8417 7.41296 30.537 7.36609C30.2423 7.32097 29.9962 7.22869 29.7987 7.08923C29.3733 6.78865 29.0042 6.39724 28.6913 5.91502C28.6872 5.90854 28.6846 5.90119 28.6838 5.89356C28.6831 5.88592 28.6841 5.87821 28.6868 5.87103C28.6896 5.86386 28.6939 5.85742 28.6996 5.85224C28.7053 5.84706 28.7121 5.84327 28.7194 5.84119C29.3259 5.66892 29.9189 5.62615 30.4983 5.71287C30.6812 5.74041 30.8874 5.84998 31.1171 6.04158C31.4821 6.34627 31.5226 6.69724 31.2384 7.09451Z" fill="black"/>
<path d="M41.7309 7.80643C42.0092 7.48827 42.3403 7.24129 42.724 7.06551C42.729 7.06325 42.7344 7.06207 42.7398 7.06207C42.7452 7.06207 42.7505 7.06325 42.7554 7.06552C42.7603 7.06778 42.7646 7.07109 42.768 7.07519C42.7713 7.07929 42.7738 7.08409 42.775 7.08924C42.8594 7.41854 42.8758 7.81669 42.8242 8.28368C42.7791 8.6909 42.6033 8.9912 42.2969 9.18456C42.1926 9.25018 42.074 9.27157 41.9409 9.24872C41.829 9.22997 41.7253 9.18221 41.6298 9.10545C41.382 8.90565 41.3316 8.62264 41.4786 8.25643C41.5583 8.05721 41.6424 7.90721 41.7309 7.80643Z" fill="black"/>
<path d="M39.9926 8.13251C39.9961 8.12568 40.0012 8.11975 40.0074 8.11521C40.0136 8.11066 40.0208 8.10763 40.0283 8.10634C40.0358 8.10506 40.0435 8.10557 40.0507 8.10782C40.058 8.11008 40.0645 8.11402 40.0699 8.11932C40.2276 8.26991 40.3825 8.44452 40.5349 8.64315C40.7446 8.91796 40.8343 9.22294 40.8038 9.55809C40.7945 9.66415 40.7555 9.75555 40.6869 9.83231C40.6283 9.89794 40.5463 9.94305 40.4408 9.96766C40.1789 10.028 39.987 9.95594 39.8652 9.75145C39.7878 9.62196 39.7453 9.44618 39.7377 9.22411C39.7242 8.85907 39.8092 8.4952 39.9926 8.13251Z" fill="black"/>
<path d="M21.1179 9.40343C21.3605 9.62316 21.5292 9.89034 21.6242 10.205C21.79 10.7546 21.6206 11.1322 21.1162 11.3379C20.9521 11.4047 20.7883 11.4155 20.6248 11.3704C20.4959 11.3347 20.3626 11.2532 20.2249 11.1261C19.9003 10.8249 19.6961 10.4464 19.6123 9.99054C19.5215 9.49366 19.4899 8.99533 19.5174 8.49552C19.5179 8.48791 19.5202 8.48051 19.524 8.47392C19.5278 8.46734 19.5331 8.46176 19.5395 8.45765C19.5458 8.45353 19.553 8.451 19.5605 8.45025C19.568 8.4495 19.5755 8.45055 19.5825 8.45333C20.1532 8.67716 20.665 8.99386 21.1179 9.40343Z" fill="black"/>
<path d="M23.64 9.43679C23.6422 9.43205 23.6455 9.42789 23.6496 9.42466C23.6537 9.42143 23.6586 9.41922 23.6637 9.41819C23.6688 9.41716 23.6741 9.41736 23.6792 9.41876C23.6842 9.42015 23.6889 9.42272 23.6927 9.42624C24.1632 9.86042 24.5256 10.3383 24.7799 10.8597C24.8889 11.0842 24.9285 11.373 24.8986 11.7263C24.8617 12.1541 24.6332 12.4034 24.213 12.4743C23.9968 12.5106 23.809 12.4766 23.6497 12.3723C23.5231 12.2903 23.4129 12.1503 23.3192 11.9522C23.1809 11.6616 23.1276 11.3689 23.1592 11.0742C23.219 10.5181 23.3792 9.97234 23.64 9.43679Z" fill="black"/>
<path d="M42.0424 10.205C42.2217 9.99463 42.4467 9.85547 42.7174 9.7875C42.9834 9.72011 43.2682 9.67969 43.5717 9.66621C43.5806 9.66575 43.5895 9.66753 43.5976 9.6714C43.6057 9.67526 43.6126 9.68109 43.6179 9.68834C43.6231 9.69559 43.6265 9.70404 43.6276 9.71292C43.6287 9.7218 43.6276 9.73082 43.6244 9.73916C43.5424 9.9542 43.4606 10.1437 43.3792 10.3078C43.1999 10.6711 42.9638 10.9046 42.6708 11.0083C42.3438 11.1243 42.1095 11.0364 41.9677 10.7446C41.8739 10.5524 41.8988 10.3726 42.0424 10.205Z" fill="black"/>
<path d="M40.1924 11.519C40.1233 11.6397 40.0216 11.7217 39.8874 11.765C39.7726 11.802 39.653 11.7908 39.5288 11.7316C39.2775 11.6115 39.0958 11.4135 38.9839 11.1375C38.845 10.7936 38.7703 10.4458 38.7598 10.0942C38.7596 10.087 38.7611 10.0798 38.7641 10.0733C38.7671 10.0667 38.7716 10.0609 38.7772 10.0563C38.7828 10.0517 38.7893 10.0485 38.7964 10.0469C38.8034 10.0452 38.8107 10.0452 38.8178 10.0468C39.3557 10.1698 39.7852 10.4215 40.1063 10.8018C40.3043 11.0356 40.333 11.2746 40.1924 11.519Z" fill="black"/>
<path d="M26.2508 11.1691C26.2549 11.1645 26.2601 11.1609 26.2658 11.1586C26.2716 11.1563 26.2777 11.1553 26.2838 11.1557C26.29 11.1562 26.2959 11.158 26.3011 11.1611C26.3063 11.1641 26.3108 11.1684 26.3141 11.1735C26.6475 11.6997 26.8906 12.2762 27.0435 12.9032C27.1086 13.1716 27.0995 13.4856 27.0163 13.8454C26.8581 14.5245 26.4441 14.7873 25.7744 14.6338C25.533 14.5787 25.3517 14.4158 25.2304 14.1451C25.1331 13.9271 25.0935 13.6793 25.1117 13.4015C25.1258 13.1836 25.185 12.9454 25.2893 12.687C25.5049 12.1544 25.8254 11.6484 26.2508 11.1691Z" fill="black"/>
<path d="M41.0548 11.9311C41.2359 11.7934 41.4521 11.7199 41.7034 11.7105C42.0609 11.6982 42.4113 11.7401 42.7546 11.8362C42.7596 11.8378 42.7643 11.8404 42.7681 11.844C42.772 11.8476 42.775 11.852 42.777 11.8569C42.7789 11.8617 42.7797 11.867 42.7793 11.8723C42.779 11.8775 42.7774 11.8826 42.7748 11.8872C42.6395 12.1192 42.4564 12.3445 42.2255 12.5631C42.0034 12.7728 41.7541 12.8991 41.4776 12.9419C41.3082 12.9682 41.1603 12.9451 41.0337 12.8724C40.865 12.7758 40.7815 12.6322 40.7832 12.4418C40.785 12.2385 40.8755 12.0682 41.0548 11.9311Z" fill="black"/>
<path d="M22.0219 13.3541C22.3091 13.5516 22.4087 13.8314 22.3208 14.1935C22.2341 14.5485 22.0082 14.7539 21.6431 14.8096C21.2488 14.8699 20.846 14.7674 20.4346 14.502C20.0163 14.2318 19.6401 13.9025 19.3061 13.5141C19.3014 13.5086 19.298 13.5021 19.2963 13.4951C19.2945 13.4881 19.2945 13.4808 19.2961 13.4738C19.2977 13.4667 19.301 13.4602 19.3056 13.4547C19.3103 13.4492 19.3162 13.4448 19.3228 13.442C19.7728 13.2486 20.2214 13.1191 20.6684 13.0535C21.1723 12.9797 21.6235 13.0799 22.0219 13.3541Z" fill="black"/>
<path d="M24.4398 15.5505C24.7937 15.9987 24.8288 16.3995 24.5452 16.7528C24.397 16.9374 24.1793 17.0839 23.8922 17.1923C23.6151 17.2972 23.3491 17.3379 23.0942 17.3145C22.4778 17.2576 21.8722 17.1088 21.2775 16.868C21.2719 16.8658 21.2669 16.8622 21.263 16.8576C21.259 16.8531 21.2563 16.8476 21.2549 16.8416C21.2535 16.8357 21.2536 16.8295 21.2551 16.8235C21.2565 16.8176 21.2594 16.812 21.2634 16.8073C21.5482 16.4798 21.8488 16.1777 22.1652 15.9012C22.7218 15.4149 23.3532 15.2244 24.0592 15.3299C24.2151 15.3533 24.3419 15.4269 24.4398 15.5505Z" fill="black"/>
<path d="M11.5486 18.5396C11.5609 18.6434 11.6128 18.75 11.7042 18.8596C11.9292 19.1279 12.1961 19.3459 12.5049 19.5135C13.4119 20.0051 14.3816 20.3294 15.414 20.4864C15.4261 20.4883 15.4376 20.4928 15.4478 20.4994C15.458 20.5061 15.4666 20.5149 15.4731 20.5251C15.4796 20.5354 15.4838 20.5469 15.4855 20.5588C15.4871 20.5708 15.4861 20.583 15.4826 20.5945C15.1375 21.7395 14.4531 22.5185 13.4295 22.9315C12.8693 23.1577 12.2954 23.2415 11.7077 23.1829C10.8218 23.0938 10.0671 22.6995 9.44363 21.9999C9.14832 21.6688 8.92595 21.2903 8.77654 20.8644C8.63474 20.4618 8.5697 20.0364 8.58142 19.5882C8.60779 18.5692 9.0197 17.7144 9.81716 17.0235C10.1804 16.7083 10.5927 16.4795 11.0538 16.3371C11.5003 16.1988 11.9588 16.154 12.4293 16.2026C13.2859 16.2911 14.0418 16.672 14.6969 17.3452C14.7736 17.4243 14.8668 17.4677 14.9763 17.4753C15.6789 17.5257 16.3908 17.6859 17.1121 17.9561C17.3002 18.027 17.4803 18.1128 17.6526 18.2136C17.8606 18.3354 18.0109 18.462 18.1035 18.5933C18.2746 18.8353 18.245 19.0512 18.0147 19.241C17.9022 19.3342 17.7302 19.4191 17.4988 19.4959C17.1426 19.6148 16.7775 19.6901 16.4037 19.7218C16.1095 19.747 15.7392 19.7514 15.2927 19.735C14.2217 19.6957 13.1936 19.4525 12.2087 19.0055C11.9655 18.8947 11.7648 18.7315 11.6066 18.5159C11.558 18.4491 11.5386 18.457 11.5486 18.5396Z" fill="black"/>
<path d="M39.0448 18.1266C39.3688 17.7352 39.7892 17.4211 40.306 17.1844C40.3108 17.1821 40.3161 17.181 40.3213 17.1812C40.3266 17.1813 40.3318 17.1826 40.3365 17.1851C40.3412 17.1876 40.3452 17.1911 40.3483 17.1954C40.3514 17.1997 40.3535 17.2046 40.3543 17.2099C40.4206 17.6534 40.4276 18.0639 40.3754 18.4412C40.3245 18.8098 40.1686 19.1247 39.9079 19.386C39.7579 19.5366 39.5891 19.6058 39.4016 19.5935C39.2317 19.5817 39.0788 19.5147 38.9428 19.3922C38.7272 19.1977 38.6789 18.9281 38.7978 18.5836C38.8599 18.4025 38.9422 18.2502 39.0448 18.1266Z" fill="black"/>
<path d="M37.5448 17.4621C37.5484 17.4582 37.5528 17.4552 37.5578 17.4533C37.5628 17.4514 37.5681 17.4506 37.5734 17.4511C37.5787 17.4517 37.5837 17.4534 37.5882 17.4562C37.5927 17.459 37.5965 17.4628 37.5993 17.4674C37.8852 17.942 38.0522 18.4403 38.1003 18.9624C38.1067 19.0321 38.0742 19.1909 38.0027 19.4388C37.9517 19.6169 37.8562 19.749 37.7162 19.8351C37.5902 19.9125 37.4414 19.9409 37.2697 19.9204C36.9246 19.8788 36.7345 19.6602 36.6993 19.2647C36.6706 18.9354 36.7459 18.6129 36.9252 18.2971C37.0928 18.0029 37.2993 17.7246 37.5448 17.4621Z" fill="black"/>
<path d="M35.5713 18.7559C35.5749 18.7489 35.5801 18.7428 35.5866 18.7382C35.593 18.7336 35.6004 18.7306 35.6082 18.7294C35.616 18.7282 35.6239 18.7289 35.6314 18.7313C35.6389 18.7338 35.6457 18.738 35.6513 18.7436C35.9208 19.0125 36.1379 19.2938 36.3025 19.5873C36.4063 19.7719 36.4739 19.948 36.5056 20.1155C36.5437 20.3206 36.539 20.5131 36.4915 20.693C36.4423 20.8781 36.3087 21.0041 36.0907 21.0709C35.7163 21.1858 35.4506 21.0818 35.2936 20.7589C35.2285 20.6247 35.1866 20.4712 35.1679 20.2984C35.1521 20.1542 35.1606 19.9972 35.1934 19.8273C35.2631 19.4652 35.3891 19.108 35.5713 18.7559Z" fill="black"/>
<path d="M21.4731 21.6808C21.4651 21.6792 21.4576 21.6758 21.4511 21.6708C21.4447 21.6659 21.4394 21.6596 21.4357 21.6523C21.432 21.645 21.4299 21.6371 21.4297 21.6289C21.4295 21.6208 21.4311 21.6127 21.4344 21.6052C21.6917 21.0334 21.9424 20.4876 22.1868 19.9678C22.2167 19.9046 22.2682 19.8659 22.3415 19.8518C22.347 19.8508 22.3526 19.8509 22.3582 19.8523C22.3637 19.8536 22.3689 19.8561 22.3736 19.8596C22.3782 19.8631 22.3822 19.8676 22.3853 19.8728C22.3884 19.8779 22.3905 19.8836 22.3916 19.8896C22.4519 20.2353 22.4871 20.5834 22.497 20.9338C22.5017 21.099 22.4794 21.2458 22.4302 21.3741C22.3775 21.5118 22.3098 21.6474 22.2272 21.781C22.2193 21.7942 22.2074 21.8046 22.1933 21.8109C22.1792 21.8172 22.1634 21.819 22.1481 21.8162L21.4731 21.6808Z" fill="black"/>
<path d="M38.8975 20.5497C39.2374 20.1993 39.656 20.0566 40.1535 20.1217C40.481 20.165 40.805 20.2391 41.1256 20.344C41.1343 20.347 41.1423 20.3519 41.1488 20.3585C41.1553 20.3651 41.1602 20.3731 41.1629 20.3819C41.1657 20.3907 41.1663 20.4 41.1647 20.409C41.1631 20.418 41.1593 20.4265 41.1537 20.4337C40.8625 20.811 40.5425 21.1207 40.1939 21.3627C40.0556 21.4588 39.879 21.5279 39.6639 21.5701C39.1624 21.6674 38.8612 21.4793 38.7604 21.0058C38.7235 20.8336 38.7692 20.6815 38.8975 20.5497Z" fill="black"/>
<path d="M22.1629 22.0632C22.2719 22.0849 22.3524 22.05 22.4046 21.9586C22.704 21.4348 22.8672 20.8902 22.8941 20.3247C22.8949 20.3097 22.8992 20.2955 22.9064 20.2841C22.9136 20.2726 22.9234 20.2644 22.9346 20.2606C22.9908 20.2401 23.038 20.2682 23.0761 20.3449C23.304 20.7991 23.384 21.2628 23.316 21.7363C23.2592 22.1312 23.1145 22.4678 22.8818 22.7461C22.6357 23.0408 22.3114 23.2462 21.9089 23.3622C21.6739 23.4302 21.4375 23.4923 21.1996 23.5486C21.076 23.5779 20.9896 23.6198 20.9403 23.6742C20.8782 23.7416 20.8311 23.831 20.7988 23.9423C20.7549 24.0929 20.6544 24.1653 20.4974 24.1594C20.2618 24.1506 20.0222 24.2157 19.7784 24.3545C19.6653 24.419 19.644 24.3964 19.7143 24.2868L21.2277 21.934C21.237 21.9196 21.2503 21.9082 21.2658 21.9015C21.2814 21.8947 21.2984 21.8929 21.3148 21.8962L22.1629 22.0632ZM22.0012 22.6152C22.0012 22.5623 21.9802 22.5115 21.9427 22.4741C21.9053 22.4367 21.8546 22.4157 21.8017 22.4157C21.7755 22.4157 21.7495 22.4208 21.7253 22.4308C21.7011 22.4409 21.6791 22.4556 21.6606 22.4741C21.6421 22.4926 21.6274 22.5146 21.6173 22.5388C21.6073 22.563 21.6022 22.589 21.6022 22.6152C21.6022 22.6681 21.6232 22.7188 21.6606 22.7562C21.698 22.7937 21.7488 22.8147 21.8017 22.8147C21.8546 22.8147 21.9053 22.7937 21.9427 22.7562C21.9802 22.7188 22.0012 22.6681 22.0012 22.6152Z" fill="black"/>
<path d="M37.37 22.9008C37.2271 22.8152 37.1427 22.6887 37.1169 22.5211C37.0753 22.2563 37.1307 22.0439 37.283 21.8839C37.4061 21.755 37.5883 21.6797 37.8297 21.658C38.0729 21.6363 38.2861 21.6697 38.4695 21.7582C38.9248 21.9785 39.3317 22.2683 39.6903 22.6274C39.6978 22.635 39.7034 22.6442 39.7065 22.6543C39.7096 22.6645 39.7103 22.6752 39.7084 22.6857C39.7065 22.6961 39.7021 22.7059 39.6956 22.7143C39.6891 22.7227 39.6806 22.7294 39.671 22.7338C39.3915 22.8633 39.0985 22.9749 38.7921 23.0687C38.2876 23.2228 37.8136 23.1668 37.37 22.9008Z" fill="black"/>
<path d="M21.1562 24.1805C21.1047 24.0621 21.1261 23.9385 21.2204 23.8096C21.2346 23.7898 21.2596 23.7739 21.2907 23.7648L22.3278 23.4598C22.34 23.4562 22.3528 23.4569 22.3639 23.4616C22.3749 23.4663 22.3834 23.4747 22.3876 23.4853C22.4081 23.538 22.4072 23.5814 22.385 23.6154C22.1676 23.9405 21.9994 24.3167 21.8805 24.7439C21.8658 24.7972 21.8397 24.8033 21.8022 24.7623C21.6768 24.6258 21.55 24.5133 21.4217 24.4248C21.2711 24.3217 21.1826 24.2403 21.1562 24.1805Z" fill="black"/>
<path d="M15.245 36.2672C15.2443 36.2623 15.2426 36.2576 15.2399 36.2534C15.2372 36.2491 15.2337 36.2456 15.2296 36.2428C15.2254 36.2401 15.2207 36.2382 15.2158 36.2374C15.2109 36.2367 15.2059 36.2369 15.2011 36.2382C13.6102 36.6501 12.0206 37.0641 10.4321 37.4801C9.97802 37.5985 9.46151 37.6527 8.88261 37.6427C8.22811 37.6316 7.7163 37.57 7.34716 37.4581C6.55028 37.2167 5.96552 36.6812 5.59286 35.8515C5.41181 35.4495 5.30546 35.0786 5.27382 34.7388C5.23983 34.3726 5.20644 34.0061 5.17362 33.6393C4.97499 31.4033 5.21054 29.2266 5.88026 27.109C6.08769 26.4528 6.24062 26.0145 6.33905 25.7942C6.53007 25.3658 6.78466 24.9727 7.10282 24.6147C7.7081 23.9326 8.46776 23.548 9.38183 23.4607C10.1828 23.3839 10.8127 23.6628 11.2715 24.2974C11.4789 24.5839 11.6362 24.9314 11.7434 25.3398C11.7552 25.3843 11.7399 25.3969 11.6977 25.3776C11.3643 25.2205 11.0438 25.0732 10.7362 24.9355C10.455 24.8095 10.2297 24.7371 10.0603 24.7184C9.80604 24.6903 9.56552 24.7198 9.33876 24.8072C8.90985 24.9724 8.60897 25.2481 8.43612 25.6342C8.27323 25.9987 8.24979 26.3754 8.36581 26.7645C8.51874 27.276 8.88524 27.6507 9.46532 27.8886C9.74423 28.0034 10.3683 28.2973 11.3374 28.7701C11.349 28.7758 11.3587 28.7848 11.3652 28.7959C11.3716 28.807 11.3745 28.8198 11.3734 28.8325C11.3617 28.9708 11.3418 29.1082 11.3137 29.2447C11.04 30.5578 10.8645 31.8917 10.7872 33.2464C10.7865 33.2591 10.7888 33.2718 10.7939 33.2834C10.799 33.295 10.8069 33.3052 10.8168 33.3132C10.8266 33.3212 10.8383 33.3267 10.8507 33.3293C10.8631 33.3319 10.876 33.3315 10.8883 33.3281C12.7492 32.8342 14.6113 32.3505 16.4746 31.8771C16.8273 31.7874 17.1845 31.8103 17.546 31.9456C18.0376 32.1302 18.3962 32.432 18.6218 32.8509C18.7401 33.0712 18.8362 33.462 18.91 34.0234C19.2798 36.8323 19.6489 39.6416 20.0175 42.4512C20.1235 43.258 19.8985 43.8788 19.3425 44.3136C18.9804 44.5978 18.581 44.7495 18.1445 44.7689C17.6764 44.7894 17.246 44.6394 16.8534 44.3189C16.5581 44.078 16.3542 43.7822 16.2417 43.4312C16.2118 43.3368 16.1553 42.9932 16.0721 42.4002C15.7861 40.3553 15.5104 38.311 15.245 36.2672Z" fill="black"/>
<path d="M9.09003 27.254C8.81171 27.0073 8.66552 26.7178 8.65146 26.3856C8.63915 26.0856 8.73349 25.8026 8.93446 25.5366C9.20282 25.1827 9.55849 25.0333 10.0015 25.0884C10.1954 25.113 10.5311 25.2354 11.0087 25.4557C12.2772 26.0423 13.5253 26.6194 14.7528 27.1872C14.8595 27.237 14.9649 27.2349 15.0692 27.181C16.7614 26.3162 18.3962 25.4736 19.9735 24.6533C20.1405 24.5666 20.338 24.53 20.5659 24.5434C21.003 24.5692 21.3303 24.7344 21.5476 25.0391C21.7392 25.3087 21.8142 25.609 21.7726 25.94C21.7428 26.1773 21.6484 26.3883 21.4896 26.5728C21.3865 26.6924 21.2046 26.8207 20.9438 26.9578C18.1864 28.4074 16.3615 29.3531 15.4691 29.7949C15.1193 29.9677 14.742 29.9592 14.3371 29.7694C11.8398 28.5964 10.2306 27.8449 9.50927 27.515C9.33817 27.4371 9.19843 27.3501 9.09003 27.254Z" fill="black"/>
<path d="M20.9901 28.3298L20.8512 27.5379C20.8472 27.5147 20.8507 27.4903 20.8613 27.4674C20.8719 27.4446 20.8891 27.4242 20.911 27.4087C21.0944 27.2774 21.1875 27.2801 21.1905 27.4166C21.1934 27.5338 21.1952 27.5959 21.1957 27.6029C21.2297 27.8473 21.2523 28.0925 21.2634 28.3386C21.2636 28.3452 21.2627 28.3517 21.2607 28.3579C21.2586 28.364 21.2555 28.3696 21.2516 28.3743C21.2476 28.379 21.2429 28.3827 21.2377 28.3852C21.2325 28.3876 21.2269 28.3888 21.2212 28.3887L21.0437 28.3816C21.031 28.3812 21.0188 28.3757 21.0091 28.3663C20.9993 28.3569 20.9926 28.344 20.9901 28.3298Z" fill="black"/>
<path d="M19.3728 28.3571C19.3201 28.2633 19.3391 28.1936 19.4299 28.1479C19.5143 28.1057 19.5624 28.0811 19.5741 28.074C19.6995 28.0043 19.749 28.0673 19.7226 28.263C19.7207 28.2773 19.716 28.2908 19.7087 28.3027C19.7014 28.3145 19.6917 28.3244 19.6804 28.3316C19.6078 28.3779 19.5278 28.3998 19.4405 28.3975C19.4267 28.3969 19.4133 28.3929 19.4015 28.3859C19.3897 28.3788 19.3798 28.3689 19.3728 28.3571Z" fill="black"/>
<path d="M7.94619 40.3804C7.95516 40.3804 7.96398 40.3782 7.97188 40.3739C7.97978 40.3696 7.98653 40.3634 7.99155 40.3559C7.99656 40.3484 7.99969 40.3397 8.00067 40.3307C8.00165 40.3216 8.00044 40.3125 7.99716 40.304L6.99433 37.7798C6.98085 37.7458 6.99199 37.7332 7.02773 37.742C8.41523 38.0929 9.76142 38.0719 11.0663 37.6787C11.0874 37.6725 11.1101 37.6744 11.1299 37.684C11.1497 37.6935 11.1653 37.7101 11.1735 37.7305C11.6663 38.9634 12.1441 40.1815 12.607 41.385C12.7588 41.7788 12.8361 42.092 12.8391 42.3246C12.8455 42.8496 12.6601 43.3093 12.2827 43.7036C12.087 43.9081 11.8532 44.0619 11.5813 44.165C11.3903 44.2377 11.1202 44.2758 10.771 44.2793C8.5954 44.2992 6.42011 44.3059 4.24511 44.2995C3.46288 44.2971 2.99296 44.2775 2.83534 44.2406C2.33554 44.1222 1.93417 43.8316 1.63124 43.3687C1.47773 43.1338 1.38398 42.8701 1.34999 42.5777C1.31894 42.3123 1.34765 42.041 1.43613 41.7638C1.63593 41.1351 2.03759 40.7179 2.64111 40.5123C2.88896 40.4279 3.28652 40.386 3.83378 40.3866C5.21659 40.3878 6.5874 40.3857 7.94619 40.3804Z" fill="black"/>
<path d="M23.1116 43.6869C22.9375 43.49 22.9671 43.3538 23.2003 43.2782C23.3439 43.2313 23.4666 43.2322 23.5686 43.2809C23.7344 43.36 23.7532 43.5369 23.6248 43.8117C23.6193 43.8236 23.61 43.8334 23.5985 43.8395C23.5869 43.8457 23.5736 43.848 23.5607 43.846C23.4704 43.8325 23.3896 43.8182 23.3181 43.8029C23.2331 43.7854 23.1643 43.7467 23.1116 43.6869Z" fill="black"/>
<path d="M37.9057 43.5709C37.979 43.6189 38.0138 43.7288 38.0103 43.9005C38.0101 43.9155 38.0063 43.9298 37.9995 43.9419C37.9926 43.954 37.983 43.9634 37.9716 43.969L37.7317 44.0833C37.7211 44.0883 37.7085 44.0884 37.6965 44.0836C37.6844 44.0787 37.6738 44.0691 37.6667 44.0569C37.6344 44.003 37.6043 43.9485 37.5761 43.8934C37.5457 43.8331 37.5322 43.7733 37.5357 43.7141C37.5492 43.4663 37.6725 43.4185 37.9057 43.5709Z" fill="black"/>
<path d="M36.4006 44.2327C36.3555 44.1741 36.3241 44.1073 36.3066 44.0323C36.3036 44.0191 36.3042 44.0052 36.3081 43.992C36.3121 43.9788 36.3195 43.9666 36.3294 43.9567C36.5474 43.7364 36.7756 43.7303 37.0141 43.9383C37.0249 43.9477 37.0329 43.9596 37.0373 43.9725C37.0416 43.9854 37.0421 43.9988 37.0387 44.0112L36.9464 44.3601C36.9433 44.3719 36.9354 44.3821 36.9243 44.3888C36.9132 44.3956 36.8995 44.3985 36.8858 44.3971C36.7949 44.3883 36.7053 44.3742 36.6168 44.3549C36.5196 44.3338 36.4475 44.2931 36.4006 44.2327Z" fill="black"/>
<path d="M23.9373 44.5078C23.8887 44.458 23.848 44.4009 23.8152 44.3364C23.8092 44.3252 23.8072 44.3123 23.8096 44.2998C23.812 44.2873 23.8186 44.276 23.8283 44.2679C24.1178 44.0141 24.445 43.9632 24.8101 44.1149C24.8178 44.1182 24.8248 44.1229 24.8307 44.1287C24.8365 44.1346 24.8412 44.1416 24.8443 44.1492C24.8474 44.1568 24.8489 44.165 24.8488 44.1731C24.8486 44.1813 24.8468 44.1893 24.8435 44.1967L24.6677 44.5816C24.6625 44.5934 24.6537 44.6033 24.6423 44.6104C24.6309 44.6174 24.6175 44.6211 24.6035 44.6212C24.4541 44.6218 24.305 44.615 24.1562 44.601C24.063 44.5922 23.9901 44.5611 23.9373 44.5078Z" fill="black"/>
<path d="M31.0504 44.5149C30.9988 44.4662 30.959 44.4073 30.9308 44.3382C30.9257 44.3265 30.9244 44.3133 30.9273 44.3006C30.9301 44.2878 30.9369 44.2761 30.9467 44.267C31.2385 44.0057 31.5666 43.9582 31.931 44.1246C31.9368 44.1273 31.9421 44.131 31.9465 44.1355C31.9509 44.1399 31.9544 44.1451 31.9568 44.1507C31.9592 44.1562 31.9603 44.1621 31.9603 44.1679C31.9603 44.1736 31.959 44.1793 31.9565 44.1844L31.7684 44.5843C31.7631 44.5953 31.7539 44.6046 31.7419 44.611C31.7299 44.6174 31.7156 44.6206 31.7008 44.6203C31.559 44.6192 31.4175 44.6124 31.2762 44.6001C31.1778 44.5919 31.1025 44.5635 31.0504 44.5149Z" fill="black"/>
<path d="M26.6689 44.7855C26.6045 44.7515 26.5696 44.6915 26.5644 44.6054C26.5626 44.5755 26.555 44.5482 26.5415 44.5236C26.494 44.4392 26.5172 44.393 26.6109 44.3847C26.6625 44.3806 26.7038 44.3739 26.7349 44.3645C27.0249 44.2755 27.2947 44.3405 27.5443 44.5597C27.5495 44.5641 27.5538 44.5694 27.5571 44.5752C27.5603 44.581 27.5625 44.5872 27.5634 44.5934C27.5643 44.5996 27.5639 44.6057 27.5623 44.6114C27.5607 44.6171 27.5579 44.6222 27.554 44.6264L27.2587 44.9525C27.2512 44.9609 27.2399 44.9666 27.2262 44.9689C27.2124 44.9713 27.1969 44.9702 27.1813 44.9657C26.9112 44.8837 26.7404 44.8236 26.6689 44.7855Z" fill="black"/>
</svg>
