<svg width="45" height="45" viewBox="0 0 45 45" fill="none" xmlns="http://www.w3.org/2000/svg">
<path d="M31.0361 17.5729C31.2364 17.5834 31.4374 17.5951 31.639 17.608C31.9437 17.6268 32.1505 17.7469 32.2595 17.9684C32.3157 18.0809 32.3439 18.293 32.3439 18.6047C32.3439 19.4344 32.3439 20.2641 32.3439 21.0938C32.3439 21.4008 32.2161 21.6088 31.9607 21.7178C31.8376 21.7705 31.6202 21.7963 31.3085 21.7951C30.0452 21.7916 28.7825 21.7957 27.5204 21.8075C27.4971 21.8075 27.4748 21.8167 27.4583 21.8332C27.4418 21.8497 27.4325 21.872 27.4325 21.8953L27.422 29.4434C27.422 29.6614 27.3616 29.86 27.2409 30.0393L23.2577 35.993C23.2222 36.0457 23.2032 36.1081 23.2032 36.1723C23.2032 37.1321 23.2032 38.0825 23.2032 39.0235C23.2032 39.3762 23.1587 39.6311 23.0696 39.7881C22.888 40.1116 22.5845 40.1754 22.1591 39.9797C21.8861 39.8532 21.7595 39.6141 21.7794 39.2625C21.7911 39.0703 21.797 38.969 21.797 38.9584C21.797 38.0409 21.797 37.1116 21.797 36.1705C21.797 36.1109 21.7793 36.0528 21.746 36.0035C20.4921 34.1168 19.2499 32.2477 18.0194 30.3961C18.0101 30.3832 17.9368 30.2889 17.7997 30.1131C17.6239 29.8881 17.5448 29.628 17.5624 29.3326C17.573 29.1346 17.5782 29.0332 17.5782 29.0285C17.5782 26.7317 17.5782 24.3686 17.5782 21.9393C17.5782 21.9015 17.5632 21.8653 17.5365 21.8386C17.5098 21.8119 17.4736 21.7969 17.4359 21.7969C16.1843 21.7969 14.9966 21.7969 13.8728 21.7969C13.8611 21.7969 13.7538 21.8028 13.5511 21.8145C13.1925 21.8344 12.937 21.7137 12.7847 21.4524C12.6991 21.3059 12.6564 21.0586 12.6564 20.7106C12.6564 20.0086 12.6564 19.3067 12.6564 18.6047C12.6564 18.2977 12.6857 18.0862 12.7443 17.9701C12.8556 17.7498 13.0612 17.6297 13.3612 17.6098C13.5628 17.5957 13.7644 17.5828 13.9659 17.5711C13.9897 17.5702 14.0123 17.5603 14.0289 17.5433C14.0456 17.5263 14.0551 17.5035 14.0556 17.4797L14.0591 16.3494C14.0593 16.3262 14.0549 16.3032 14.046 16.2816C14.037 16.2601 14.0239 16.2405 14.0072 16.224C13.9905 16.2075 13.9707 16.1944 13.9488 16.1855C13.927 16.1765 13.9035 16.1719 13.8798 16.1719C12.947 16.1719 12.0704 16.1719 11.2501 16.1719C10.9443 16.1719 10.7362 16.0442 10.6261 15.7887C10.5734 15.6645 10.547 15.4471 10.547 15.1366C10.547 14.3092 10.547 13.4825 10.547 12.6563C10.547 12.3504 10.6747 12.1424 10.9302 12.0323C11.0521 11.9807 11.2694 11.9549 11.5823 11.9549C11.9081 11.9561 12.2333 11.9526 12.5579 11.9444C12.582 11.9439 12.605 11.9343 12.622 11.9176C12.6391 11.9009 12.6489 11.8784 12.6493 11.8547L12.6528 10.7244C12.6531 10.7012 12.6486 10.6782 12.6397 10.6566C12.6308 10.6351 12.6176 10.6155 12.601 10.599C12.5843 10.5825 12.5644 10.5694 12.5426 10.5605C12.5207 10.5515 12.4972 10.5469 12.4736 10.5469C12.129 10.5469 11.8138 10.5469 11.5278 10.5469C11.2431 10.5469 11.0357 10.51 10.9056 10.4362C10.7497 10.3459 10.6302 10.2141 10.547 10.0407C10.4638 9.8637 10.4204 9.77229 10.4169 9.76644C9.33644 7.84925 8.26652 5.92679 7.20714 3.99905C7.06535 3.74241 7.02375 3.51097 7.08234 3.30472C7.14445 3.08792 7.28976 2.93733 7.51828 2.85296C7.69406 2.78733 7.86984 2.80198 8.04562 2.8969C8.16164 2.95901 8.27179 3.08089 8.37609 3.26253C9.4507 5.13401 10.5177 7.04886 11.5771 9.00706C11.5989 9.04744 11.6314 9.08117 11.671 9.10468C11.7106 9.1282 11.7559 9.14062 11.8021 9.14065H33.1823C33.2306 9.1407 33.2781 9.12764 33.3195 9.10288C33.361 9.07812 33.395 9.04257 33.4179 9.00003C34.4714 7.07698 35.5179 5.19847 36.5573 3.36448C36.705 3.10433 36.8544 2.93675 37.0056 2.86175C37.2681 2.7305 37.5194 2.78382 37.7597 3.02171C37.9741 3.23265 38.0345 3.47112 37.9407 3.73714C37.9361 3.7512 37.8288 3.94749 37.6191 4.32601C36.5843 6.19749 35.5437 8.06604 34.4972 9.93167C34.3659 10.1649 34.2165 10.333 34.0489 10.4362C33.9294 10.5088 33.7226 10.5451 33.4284 10.5451C33.0991 10.544 32.7704 10.5475 32.4423 10.5557C32.4179 10.5562 32.3947 10.5658 32.3776 10.5826C32.3605 10.5993 32.3509 10.6219 32.3509 10.6453L32.3527 11.8565C32.3527 11.8795 32.3621 11.9016 32.3788 11.918C32.3956 11.9344 32.4184 11.9439 32.4423 11.9444C32.8782 11.9549 33.3142 11.9578 33.7501 11.9532C34.0583 11.9496 34.2669 12.0762 34.3759 12.3328C34.4275 12.4559 34.4532 12.6744 34.4532 12.9885C34.4532 13.8158 34.4532 14.6426 34.4532 15.4688C34.4532 15.7746 34.3255 15.9826 34.07 16.0928C33.9458 16.1455 33.729 16.1713 33.4196 16.1701C32.6251 16.1678 31.8306 16.1719 31.0361 16.1825C31.0118 16.1825 30.9886 16.1915 30.9714 16.2077C30.9543 16.2238 30.9446 16.2457 30.9446 16.2686L30.9464 17.4815C30.9464 17.5048 30.9557 17.5273 30.9724 17.5443C30.9891 17.5613 31.0118 17.5715 31.0361 17.5729ZM30.9376 10.6032C30.9376 10.5882 30.9317 10.5739 30.9211 10.5634C30.9106 10.5528 30.8963 10.5469 30.8814 10.5469H14.1189C14.1039 10.5469 14.0896 10.5528 14.0791 10.5634C14.0685 10.5739 14.0626 10.5882 14.0626 10.6032V11.8969C14.0626 11.9118 14.0685 11.9261 14.0791 11.9367C14.0896 11.9472 14.1039 11.9532 14.1189 11.9532H30.8814C30.8963 11.9532 30.9106 11.9472 30.9211 11.9367C30.9317 11.9261 30.9376 11.9118 30.9376 11.8969V10.6032ZM13.3584 13.4127C13.3583 13.4055 13.3569 13.3984 13.3542 13.3918C13.3514 13.3852 13.3474 13.3792 13.3423 13.3742C13.3373 13.3691 13.3312 13.3651 13.3246 13.3624C13.318 13.3597 13.3109 13.3583 13.3038 13.3583L12.0065 13.3605C11.9993 13.3605 11.9923 13.362 11.9857 13.3647C11.979 13.3675 11.973 13.3715 11.968 13.3766C11.9629 13.3816 11.9589 13.3876 11.9562 13.3943C11.9535 13.4009 11.9521 13.408 11.9521 13.4151L11.9544 14.7124C11.9544 14.7195 11.9558 14.7266 11.9586 14.7332C11.9613 14.7398 11.9653 14.7458 11.9704 14.7509C11.9755 14.7559 11.9815 14.7599 11.9881 14.7627C11.9947 14.7654 12.0018 14.7668 12.009 14.7668L13.3062 14.7645C13.3134 14.7645 13.3205 14.7631 13.3271 14.7603C13.3337 14.7576 13.3397 14.7536 13.3447 14.7485C13.3498 14.7434 13.3538 14.7374 13.3565 14.7308C13.3592 14.7242 13.3606 14.7171 13.3606 14.7099L13.3584 13.4127ZM16.1709 13.4127C16.1708 13.4055 16.1694 13.3984 16.1667 13.3918C16.1639 13.3852 16.1599 13.3792 16.1548 13.3742C16.1498 13.3691 16.1437 13.3651 16.1371 13.3624C16.1305 13.3597 16.1234 13.3583 16.1163 13.3583L14.819 13.3605C14.8118 13.3605 14.8048 13.362 14.7982 13.3647C14.7915 13.3675 14.7855 13.3715 14.7805 13.3766C14.7754 13.3816 14.7714 13.3876 14.7687 13.3943C14.766 13.4009 14.7646 13.408 14.7646 13.4151L14.7669 14.7124C14.7669 14.7195 14.7683 14.7266 14.7711 14.7332C14.7738 14.7398 14.7778 14.7458 14.7829 14.7509C14.788 14.7559 14.794 14.7599 14.8006 14.7627C14.8072 14.7654 14.8143 14.7668 14.8215 14.7668L16.1187 14.7645C16.1259 14.7645 16.133 14.7631 16.1396 14.7603C16.1462 14.7576 16.1522 14.7536 16.1572 14.7485C16.1623 14.7434 16.1663 14.7374 16.169 14.7308C16.1717 14.7242 16.1731 14.7171 16.1731 14.7099L16.1709 13.4127ZM18.9834 13.4127C18.9833 13.4055 18.9819 13.3984 18.9792 13.3918C18.9764 13.3852 18.9724 13.3792 18.9673 13.3742C18.9623 13.3691 18.9562 13.3651 18.9496 13.3624C18.943 13.3597 18.9359 13.3583 18.9288 13.3583L17.6315 13.3605C17.6243 13.3605 17.6173 13.362 17.6107 13.3647C17.604 13.3675 17.598 13.3715 17.593 13.3766C17.5879 13.3816 17.5839 13.3876 17.5812 13.3943C17.5785 13.4009 17.5771 13.408 17.5771 13.4151L17.5794 14.7124C17.5794 14.7195 17.5808 14.7266 17.5836 14.7332C17.5863 14.7398 17.5903 14.7458 17.5954 14.7509C17.6005 14.7559 17.6065 14.7599 17.6131 14.7627C17.6197 14.7654 17.6268 14.7668 17.634 14.7668L18.9312 14.7645C18.9384 14.7645 18.9455 14.7631 18.9521 14.7603C18.9587 14.7576 18.9647 14.7536 18.9697 14.7485C18.9748 14.7434 18.9788 14.7374 18.9815 14.7308C18.9842 14.7242 18.9856 14.7171 18.9856 14.7099L18.9834 13.4127ZM21.7959 13.4127C21.7958 13.4055 21.7944 13.3984 21.7917 13.3918C21.7889 13.3852 21.7849 13.3792 21.7798 13.3742C21.7748 13.3691 21.7687 13.3651 21.7621 13.3624C21.7555 13.3597 21.7484 13.3583 21.7413 13.3583L20.444 13.3605C20.4368 13.3605 20.4298 13.362 20.4232 13.3647C20.4165 13.3675 20.4105 13.3715 20.4055 13.3766C20.4004 13.3816 20.3964 13.3876 20.3937 13.3943C20.391 13.4009 20.3896 13.408 20.3896 13.4151L20.3919 14.7124C20.3919 14.7195 20.3933 14.7266 20.3961 14.7332C20.3988 14.7398 20.4028 14.7458 20.4079 14.7509C20.413 14.7559 20.419 14.7599 20.4256 14.7627C20.4322 14.7654 20.4393 14.7668 20.4465 14.7668L21.7437 14.7645C21.7509 14.7645 21.758 14.7631 21.7646 14.7603C21.7712 14.7576 21.7772 14.7536 21.7822 14.7485C21.7873 14.7434 21.7913 14.7374 21.794 14.7308C21.7967 14.7242 21.7981 14.7171 21.7981 14.7099L21.7959 13.4127ZM24.6084 13.4127C24.6084 13.4055 24.6069 13.3984 24.6042 13.3918C24.6014 13.3852 24.5974 13.3792 24.5923 13.3742C24.5873 13.3691 24.5812 13.3651 24.5746 13.3624C24.568 13.3597 24.5609 13.3583 24.5538 13.3583L23.2565 13.3605C23.2493 13.3605 23.2423 13.362 23.2357 13.3647C23.229 13.3675 23.223 13.3715 23.218 13.3766C23.2129 13.3816 23.2089 13.3876 23.2062 13.3943C23.2035 13.4009 23.2021 13.408 23.2021 13.4151L23.2044 14.7124C23.2044 14.7195 23.2058 14.7266 23.2086 14.7332C23.2113 14.7398 23.2153 14.7458 23.2204 14.7509C23.2255 14.7559 23.2315 14.7599 23.2381 14.7627C23.2447 14.7654 23.2518 14.7668 23.259 14.7668L24.5562 14.7645C24.5634 14.7645 24.5705 14.7631 24.5771 14.7603C24.5837 14.7576 24.5897 14.7536 24.5947 14.7485C24.5998 14.7434 24.6038 14.7374 24.6065 14.7308C24.6092 14.7242 24.6106 14.7171 24.6106 14.7099L24.6084 13.4127ZM27.4209 13.4127C27.4209 13.4055 27.4194 13.3984 27.4167 13.3918C27.4139 13.3852 27.4099 13.3792 27.4048 13.3742C27.3998 13.3691 27.3937 13.3651 27.3871 13.3624C27.3805 13.3597 27.3734 13.3583 27.3663 13.3583L26.069 13.3605C26.0618 13.3605 26.0548 13.362 26.0482 13.3647C26.0415 13.3675 26.0355 13.3715 26.0305 13.3766C26.0254 13.3816 26.0214 13.3876 26.0187 13.3943C26.016 13.4009 26.0146 13.408 26.0146 13.4151L26.0169 14.7124C26.0169 14.7195 26.0183 14.7266 26.0211 14.7332C26.0238 14.7398 26.0278 14.7458 26.0329 14.7509C26.038 14.7559 26.044 14.7599 26.0506 14.7627C26.0572 14.7654 26.0643 14.7668 26.0715 14.7668L27.3687 14.7645C27.3759 14.7645 27.383 14.7631 27.3896 14.7603C27.3962 14.7576 27.4022 14.7536 27.4072 14.7485C27.4123 14.7434 27.4163 14.7374 27.419 14.7308C27.4217 14.7242 27.4231 14.7171 27.4231 14.7099L27.4209 13.4127ZM30.2334 13.4127C30.2334 13.4055 30.2319 13.3984 30.2292 13.3918C30.2264 13.3852 30.2224 13.3792 30.2173 13.3742C30.2123 13.3691 30.2062 13.3651 30.1996 13.3624C30.193 13.3597 30.1859 13.3583 30.1788 13.3583L28.8815 13.3605C28.8743 13.3605 28.8673 13.362 28.8607 13.3647C28.854 13.3675 28.848 13.3715 28.843 13.3766C28.8379 13.3816 28.8339 13.3876 28.8312 13.3943C28.8285 13.4009 28.8271 13.408 28.8271 13.4151L28.8294 14.7124C28.8294 14.7195 28.8308 14.7266 28.8336 14.7332C28.8363 14.7398 28.8403 14.7458 28.8454 14.7509C28.8505 14.7559 28.8565 14.7599 28.8631 14.7627C28.8697 14.7654 28.8768 14.7668 28.884 14.7668L30.1812 14.7645C30.1884 14.7645 30.1955 14.7631 30.2021 14.7603C30.2087 14.7576 30.2147 14.7536 30.2197 14.7485C30.2248 14.7434 30.2288 14.7374 30.2315 14.7308C30.2342 14.7242 30.2356 14.7171 30.2356 14.7099L30.2334 13.4127ZM33.0459 13.4127C33.0459 13.4055 33.0444 13.3984 33.0417 13.3918C33.0389 13.3852 33.0349 13.3792 33.0298 13.3742C33.0248 13.3691 33.0187 13.3651 33.0121 13.3624C33.0055 13.3597 32.9984 13.3583 32.9913 13.3583L31.694 13.3605C31.6868 13.3605 31.6798 13.362 31.6732 13.3647C31.6665 13.3675 31.6605 13.3715 31.6555 13.3766C31.6504 13.3816 31.6464 13.3876 31.6437 13.3943C31.641 13.4009 31.6396 13.408 31.6396 13.4151L31.6419 14.7124C31.6419 14.7195 31.6433 14.7266 31.6461 14.7332C31.6488 14.7398 31.6528 14.7458 31.6579 14.7509C31.663 14.7559 31.669 14.7599 31.6756 14.7627C31.6822 14.7654 31.6893 14.7668 31.6965 14.7668L32.9937 14.7645C33.0009 14.7645 33.008 14.7631 33.0146 14.7603C33.0212 14.7576 33.0272 14.7536 33.0322 14.7485C33.0373 14.7434 33.0413 14.7374 33.044 14.7308C33.0467 14.7242 33.0481 14.7171 33.0481 14.7099L33.0459 13.4127ZM29.5314 16.2282C29.5314 16.2132 29.5254 16.1989 29.5149 16.1884C29.5043 16.1778 29.49 16.1719 29.4751 16.1719H15.5251C15.5102 16.1719 15.4959 16.1778 15.4853 16.1884C15.4748 16.1989 15.4689 16.2132 15.4689 16.2282V17.5219C15.4689 17.5368 15.4748 17.5511 15.4853 17.5617C15.4959 17.5722 15.5102 17.5782 15.5251 17.5782H29.4751C29.49 17.5782 29.5043 17.5722 29.5149 17.5617C29.5254 17.5511 29.5314 17.5368 29.5314 17.5219V16.2282ZM30.9359 19.0389C30.9359 19.0244 30.9301 19.0106 30.9199 19.0004C30.9097 18.9901 30.8958 18.9844 30.8814 18.9844H14.1189C14.1044 18.9844 14.0906 18.9901 14.0803 19.0004C14.0701 19.0106 14.0644 19.0244 14.0644 19.0389V20.3362C14.0644 20.3433 14.0658 20.3504 14.0685 20.357C14.0713 20.3636 14.0753 20.3696 14.0803 20.3747C14.0854 20.3798 14.0914 20.3838 14.098 20.3865C14.1046 20.3892 14.1117 20.3907 14.1189 20.3907H30.8814C30.8885 20.3907 30.8956 20.3892 30.9022 20.3865C30.9088 20.3838 30.9148 20.3798 30.9199 20.3747C30.925 20.3696 30.929 20.3636 30.9317 20.357C30.9344 20.3504 30.9359 20.3433 30.9359 20.3362V19.0389ZM23.6286 28.9688C23.863 29.1176 23.9521 29.3455 23.8958 29.6526C23.8232 30.0522 23.5484 30.2502 23.0714 30.2467C22.0167 30.2385 20.9111 30.2344 19.7544 30.2344C19.6431 30.2344 19.6185 30.2807 19.6806 30.3733L22.4228 34.4707C22.4314 34.4838 22.4432 34.4945 22.457 34.5019C22.4708 34.5093 22.4862 34.5132 22.5019 34.5132C22.5175 34.5132 22.533 34.5093 22.5468 34.5019C22.5606 34.4945 22.5723 34.4838 22.581 34.4707L25.9665 29.3854C25.9986 29.3373 26.0157 29.2817 26.0157 29.2254V21.9147C26.0157 21.8834 26.0033 21.8535 25.9812 21.8314C25.9592 21.8093 25.9292 21.7969 25.898 21.7969H19.1023C19.071 21.7969 19.0411 21.8093 19.019 21.8314C18.9969 21.8535 18.9845 21.8834 18.9845 21.9147V28.7315C18.9845 28.7442 18.987 28.7567 18.992 28.7685C18.9969 28.7802 19.0042 28.7909 19.0133 28.7998C19.0225 28.8088 19.0333 28.8159 19.0453 28.8208C19.0572 28.8257 19.07 28.8282 19.0829 28.8282C20.42 28.8235 21.7237 28.8264 22.9941 28.8369C23.2823 28.8393 23.4939 28.8832 23.6286 28.9688Z" fill="black"/>
<path d="M14.0615 35.8488C14.445 35.8488 14.7559 35.538 14.7559 35.1545C14.7559 34.771 14.445 34.4601 14.0615 34.4601C13.6781 34.4601 13.3672 34.771 13.3672 35.1545C13.3672 35.538 13.6781 35.8488 14.0615 35.8488Z" fill="black"/>
<path d="M30.9365 35.8524C31.32 35.8524 31.6309 35.5415 31.6309 35.158C31.6309 34.7745 31.32 34.4637 30.9365 34.4637C30.5531 34.4637 30.2422 34.7745 30.2422 35.158C30.2422 35.5415 30.5531 35.8524 30.9365 35.8524Z" fill="black"/>
<path d="M10.5441 37.2533C10.9266 37.2533 11.2367 36.9432 11.2367 36.5607C11.2367 36.1782 10.9266 35.8682 10.5441 35.8682C10.1616 35.8682 9.85156 36.1782 9.85156 36.5607C9.85156 36.9432 10.1616 37.2533 10.5441 37.2533Z" fill="black"/>
<path d="M16.1689 37.2551C16.5524 37.2551 16.8633 36.9442 16.8633 36.5607C16.8633 36.1773 16.5524 35.8664 16.1689 35.8664C15.7855 35.8664 15.4746 36.1773 15.4746 36.5607C15.4746 36.9442 15.7855 37.2551 16.1689 37.2551Z" fill="black"/>
<path d="M28.8271 37.2586C29.2106 37.2586 29.5215 36.9477 29.5215 36.5643C29.5215 36.1808 29.2106 35.8699 28.8271 35.8699C28.4437 35.8699 28.1328 36.1808 28.1328 36.5643C28.1328 36.9477 28.4437 37.2586 28.8271 37.2586Z" fill="black"/>
<path d="M34.4482 37.2533C34.8317 37.2533 35.1426 36.9424 35.1426 36.559C35.1426 36.1755 34.8317 35.8646 34.4482 35.8646C34.0648 35.8646 33.7539 36.1755 33.7539 36.559C33.7539 36.9424 34.0648 37.2533 34.4482 37.2533Z" fill="black"/>
<path d="M13.3604 38.6649C13.7438 38.6649 14.0547 38.354 14.0547 37.9705C14.0547 37.587 13.7438 37.2762 13.3604 37.2762C12.9769 37.2762 12.666 37.587 12.666 37.9705C12.666 38.354 12.9769 38.6649 13.3604 38.6649Z" fill="black"/>
<path d="M18.2803 38.6613C18.6637 38.6613 18.9746 38.3505 18.9746 37.967C18.9746 37.5835 18.6637 37.2726 18.2803 37.2726C17.8968 37.2726 17.5859 37.5835 17.5859 37.967C17.5859 38.3505 17.8968 38.6613 18.2803 38.6613Z" fill="black"/>
<path d="M26.716 38.6596C27.0985 38.6596 27.4086 38.3495 27.4086 37.967C27.4086 37.5845 27.0985 37.2744 26.716 37.2744C26.3335 37.2744 26.0234 37.5845 26.0234 37.967C26.0234 38.3495 26.3335 38.6596 26.716 38.6596Z" fill="black"/>
<path d="M31.6397 38.6631C32.0231 38.6631 32.334 38.3522 32.334 37.9687C32.334 37.5853 32.0231 37.2744 31.6397 37.2744C31.2562 37.2744 30.9453 37.5853 30.9453 37.9687C30.9453 38.3522 31.2562 38.6631 31.6397 38.6631Z" fill="black"/>
<path d="M16.1711 40.0694C16.5536 40.0694 16.8637 39.7593 16.8637 39.3768C16.8637 38.9943 16.5536 38.6842 16.1711 38.6842C15.7886 38.6842 15.4785 38.9943 15.4785 39.3768C15.4785 39.7593 15.7886 40.0694 16.1711 40.0694Z" fill="black"/>
<path d="M20.3877 40.0693C20.7712 40.0693 21.082 39.7585 21.082 39.375C21.082 38.9915 20.7712 38.6807 20.3877 38.6807C20.0042 38.6807 19.6934 38.9915 19.6934 39.375C19.6934 39.7585 20.0042 40.0693 20.3877 40.0693Z" fill="black"/>
<path d="M24.6045 40.0676C24.988 40.0676 25.2988 39.7567 25.2988 39.3732C25.2988 38.9898 24.988 38.6789 24.6045 38.6789C24.221 38.6789 23.9102 38.9898 23.9102 39.3732C23.9102 39.7567 24.221 40.0676 24.6045 40.0676Z" fill="black"/>
<path d="M28.8254 40.0658C29.2079 40.0658 29.518 39.7557 29.518 39.3732C29.518 38.9907 29.2079 38.6807 28.8254 38.6807C28.4429 38.6807 28.1328 38.9907 28.1328 39.3732C28.1328 39.7557 28.4429 40.0658 28.8254 40.0658Z" fill="black"/>
<path d="M41.4834 40.7812H3.51816C3.13275 40.7812 2.82031 41.0937 2.82031 41.4791V41.4896C2.82031 41.8751 3.13275 42.1875 3.51816 42.1875H41.4834C41.8688 42.1875 42.1813 41.8751 42.1813 41.4896V41.4791C42.1813 41.0937 41.8688 40.7812 41.4834 40.7812Z" fill="black"/>
</svg>
