<svg width="45" height="45" viewBox="0 0 45 45" fill="none" xmlns="http://www.w3.org/2000/svg">
<path d="M32.5917 2.78525L42.2983 2.79053C42.31 2.79053 42.3212 2.79516 42.3294 2.8034C42.3377 2.81164 42.3423 2.82282 42.3423 2.83447V27.9677C42.3423 27.9863 42.3348 28.0042 42.3214 28.0174C42.3081 28.0306 42.29 28.038 42.2711 28.038L39.0191 28.0529C39.0134 28.0529 39.0076 28.0541 39.0023 28.0564C38.9971 28.0587 38.9923 28.0621 38.9885 28.0664C38.9847 28.0706 38.9818 28.0756 38.9801 28.081C38.9784 28.0864 38.978 28.0921 38.9787 28.0978L39.0657 28.735C39.0674 28.7472 39.0736 28.7584 39.0831 28.7667C39.0926 28.7749 39.1048 28.7795 39.1176 28.7798L40.5256 28.7842C40.5412 28.7842 40.5562 28.7904 40.5672 28.8014C40.5783 28.8125 40.5845 28.8274 40.5845 28.8431V30.4022C40.5845 30.4277 40.5744 30.452 40.5564 30.47C40.5384 30.488 40.5141 30.498 40.4887 30.498H39.3733C39.3662 30.4981 39.3592 30.4997 39.3527 30.5027C39.3462 30.5057 39.3404 30.51 39.3358 30.5154C39.3311 30.5209 39.3277 30.5272 39.3256 30.534C39.3236 30.5409 39.3231 30.5481 39.3241 30.5552L41.386 44.688C41.3869 44.6937 41.3866 44.6994 41.3852 44.705C41.3838 44.7105 41.3814 44.7158 41.3779 44.7204C41.3745 44.7249 41.3702 44.7288 41.3652 44.7317C41.3603 44.7346 41.3548 44.7365 41.3491 44.7372L39.7996 44.9666C39.7764 44.9699 39.7529 44.9639 39.7341 44.9499C39.7154 44.9359 39.7029 44.915 39.6994 44.8919L37.6076 30.5596C37.6051 30.5425 37.5965 30.5269 37.5834 30.5156C37.5704 30.5043 37.5537 30.4981 37.5364 30.498H32.5961C32.5819 30.498 32.5682 30.5037 32.5582 30.5137C32.5481 30.5238 32.5425 30.5374 32.5425 30.5517V31.914C32.5425 31.9391 32.5327 31.9633 32.5152 31.9811C32.4977 31.9989 32.474 32.0089 32.4493 32.0089L30.9121 32.0142C30.89 32.0142 30.8687 32.0053 30.8531 31.9894C30.8374 31.9736 30.8286 31.9522 30.8286 31.9298V30.5561C30.8286 30.539 30.8219 30.5227 30.8098 30.5107C30.7978 30.4987 30.7815 30.4919 30.7645 30.4919L25.8241 30.498C25.8089 30.4981 25.7942 30.5037 25.7828 30.5137C25.7713 30.5237 25.7638 30.5375 25.7617 30.5525L23.6567 44.9279C23.655 44.9398 23.6486 44.9505 23.6389 44.9577C23.6292 44.965 23.617 44.9681 23.6049 44.9666L22.0105 44.7354C22.0045 44.7346 21.9987 44.7325 21.9935 44.7294C21.9883 44.7263 21.9838 44.7223 21.9802 44.7174C21.9766 44.7126 21.974 44.7071 21.9725 44.7013C21.9711 44.6955 21.9709 44.6895 21.9719 44.6836L24.0347 30.5525C24.0358 30.5449 24.0353 30.5371 24.033 30.5296C24.0308 30.5222 24.027 30.5153 24.0218 30.5095C24.0166 30.5036 24.0102 30.4989 24.003 30.4957C23.9958 30.4926 23.988 30.491 23.9802 30.491L22.878 30.498C22.8662 30.498 22.8545 30.4957 22.8435 30.4912C22.8326 30.4867 22.8227 30.4801 22.8143 30.4717C22.806 30.4634 22.7994 30.4535 22.7949 30.4426C22.7905 30.4318 22.7883 30.4201 22.7884 30.4084L22.8016 28.8448C22.8016 28.8327 22.8064 28.8211 22.8149 28.8125C22.8235 28.8039 22.8351 28.7991 22.8473 28.7991L24.2087 28.7859C24.2351 28.7857 24.2607 28.7753 24.2809 28.7566C24.301 28.7379 24.3144 28.7122 24.3186 28.684L24.4029 28.1145C24.4043 28.1049 24.4038 28.0951 24.4014 28.0858C24.399 28.0765 24.3948 28.0679 24.3891 28.0606C24.3833 28.0532 24.3762 28.0474 24.3681 28.0433C24.36 28.0393 24.3512 28.0371 24.3423 28.0371L21.2978 28.0318C21.2789 28.0318 21.2608 28.0243 21.2474 28.011C21.2341 27.9976 21.2266 27.9795 21.2266 27.9606V18.1934C21.2266 18.1826 21.2294 18.172 21.2346 18.1625C21.2398 18.1531 21.2473 18.1449 21.2566 18.1387C21.2658 18.1326 21.2765 18.1286 21.2878 18.1271C21.299 18.1256 21.3106 18.1266 21.3215 18.1301L21.9183 18.3226C21.9407 18.3297 21.9604 18.343 21.9743 18.3608C21.9882 18.3785 21.9957 18.3996 21.9956 18.421L22.0009 27.2197C22.0009 27.2311 22.0056 27.2421 22.014 27.2502C22.0224 27.2583 22.0338 27.2628 22.0457 27.2628L41.5064 27.2733C41.53 27.2733 41.5526 27.264 41.5692 27.2473C41.5859 27.2307 41.5952 27.2081 41.5952 27.1846V3.62461C41.5952 3.61318 41.593 3.60187 41.5886 3.59131C41.5842 3.58075 41.5778 3.57116 41.5697 3.56308C41.5616 3.555 41.5521 3.54859 41.5415 3.54422C41.5309 3.53985 41.5196 3.5376 41.5082 3.5376H22.1063C22.077 3.5376 22.0488 3.54927 22.028 3.57003C22.0073 3.5908 21.9956 3.61897 21.9956 3.64834V13.7338C21.9956 13.7859 21.9757 13.7971 21.9358 13.7672L21.3162 13.3005C21.2903 13.2805 21.2692 13.2537 21.2548 13.2222C21.2403 13.1906 21.2327 13.1552 21.2327 13.1186L21.2266 2.91621C21.2266 2.89971 21.2298 2.88336 21.2361 2.86811C21.2424 2.85287 21.2517 2.83901 21.2634 2.82734C21.275 2.81567 21.2889 2.80641 21.3041 2.80009C21.3194 2.79378 21.3357 2.79053 21.3522 2.79053H30.6827C30.7214 2.79053 30.7585 2.77516 30.7859 2.74779C30.8132 2.72043 30.8286 2.68332 30.8286 2.64463V0.0993164C30.8286 0.0891595 30.8306 0.079102 30.8345 0.0697182C30.8384 0.0603345 30.8441 0.0518081 30.8513 0.0446261C30.8584 0.0374441 30.867 0.031747 30.8764 0.0278601C30.8857 0.0239732 30.8958 0.0219727 30.906 0.0219727H32.444C32.4702 0.0219741 32.4954 0.0324107 32.514 0.051011C32.5326 0.0696113 32.5431 0.0948698 32.5434 0.121289L32.5478 2.74043C32.5478 2.74632 32.5489 2.75214 32.5511 2.75758C32.5533 2.76302 32.5565 2.76796 32.5606 2.77213C32.5647 2.77629 32.5695 2.77959 32.5749 2.78184C32.5802 2.78409 32.5859 2.78525 32.5917 2.78525ZM26.1212 28.0767L26.0351 28.7367C26.0343 28.7427 26.0349 28.7487 26.0367 28.7545C26.0385 28.7602 26.0416 28.7655 26.0456 28.77C26.0497 28.7745 26.0547 28.7781 26.0603 28.7805C26.0659 28.783 26.072 28.7842 26.0781 28.7842H30.753C30.763 28.7842 30.7729 28.7822 30.7822 28.7785C30.7914 28.7747 30.7998 28.7692 30.8068 28.7622C30.8138 28.7553 30.8194 28.747 30.8231 28.738C30.8269 28.7289 30.8287 28.7192 30.8286 28.7095L30.8242 28.0863C30.8242 28.0747 30.8196 28.0635 30.8113 28.0553C30.8031 28.047 30.7919 28.0424 30.7803 28.0424L26.1678 28.0371C26.1562 28.0372 26.1451 28.0412 26.1365 28.0485C26.1279 28.0558 26.1225 28.0658 26.1212 28.0767ZM37.2868 28.7895C37.2932 28.7894 37.2995 28.7882 37.3053 28.7857C37.3111 28.7833 37.3163 28.7798 37.3205 28.7754C37.3248 28.771 37.328 28.7658 37.3299 28.7602C37.3318 28.7546 37.3324 28.7487 37.3316 28.7429L37.2429 28.0811C37.2412 28.0689 37.2348 28.0577 37.2249 28.0496C37.2151 28.0415 37.2024 28.0371 37.1893 28.0371H32.5891C32.5746 28.0371 32.5607 28.043 32.5505 28.0536C32.5403 28.0641 32.5346 28.0784 32.5346 28.0934L32.5425 28.7402C32.5427 28.752 32.5474 28.7631 32.5557 28.7714C32.5639 28.7796 32.5749 28.7842 32.5864 28.7842L37.2868 28.7895Z" fill="black"/>
<path d="M14.8782 8.69852C17.2261 8.69852 19.1295 6.79516 19.1295 4.44725C19.1295 2.09934 17.2261 0.195984 14.8782 0.195984C12.5303 0.195984 10.627 2.09934 10.627 4.44725C10.627 6.79516 12.5303 8.69852 14.8782 8.69852Z" fill="black"/>
<path d="M25.574 11.9698C25.6508 11.163 25.9681 10.3901 26.5259 9.65126C27.413 8.47645 28.3774 7.36815 29.4192 6.32635C29.5768 6.16874 29.6123 6.18954 29.5256 6.38876C29.4933 6.462 29.4075 6.60936 29.2681 6.83085C29.1866 6.96034 29.0905 7.10214 28.9798 7.25624C28.0388 8.56522 27.4185 9.45878 27.1191 9.9369C26.7424 10.5387 26.4857 11.2222 26.3492 11.9874C26.3459 12.0056 26.3387 12.0228 26.3281 12.038C26.3175 12.0532 26.3037 12.0659 26.2877 12.0753C25.9068 12.3003 25.6021 12.612 25.3736 13.0104C25.3674 13.0209 25.3574 13.0287 25.3456 13.0321C25.3339 13.0356 25.3213 13.0344 25.3103 13.0289L23.2484 11.9953C23.2374 11.9897 23.2276 11.982 23.2195 11.9726C23.2115 11.9632 23.2054 11.9523 23.2017 11.9405C23.1979 11.9287 23.1965 11.9163 23.1976 11.904C23.1987 11.8917 23.2022 11.8797 23.208 11.8687L23.5912 11.1366C23.6037 11.1127 23.6254 11.0947 23.6515 11.0867C23.6777 11.0786 23.7062 11.0811 23.7309 11.0935L25.5309 11.9953C25.5353 11.9974 25.5401 11.9984 25.545 11.9982C25.5499 11.998 25.5546 11.9966 25.5589 11.9941C25.5631 11.9916 25.5667 11.9881 25.5693 11.9838C25.572 11.9796 25.5736 11.9748 25.574 11.9698Z" fill="black"/>
<path d="M29.8907 14.2444C29.7935 14.1454 29.6848 14.0804 29.5647 14.0493C29.5509 14.0458 29.5383 14.0389 29.5279 14.0292C29.5175 14.0196 29.5097 14.0075 29.5051 13.994C29.5006 13.9806 29.4995 13.9662 29.5019 13.9522C29.5043 13.9383 29.5102 13.9251 29.519 13.914C29.9619 13.352 30.3923 12.7869 30.8101 12.2186C31.2443 11.6268 31.5062 11.2614 31.5958 11.1226C31.8407 10.7435 32.0514 10.3444 32.2277 9.92548C32.2682 9.8288 32.2368 9.78867 32.1337 9.80507C31.9667 9.83085 31.7956 9.88242 31.6204 9.95976C31.0685 10.2041 30.5446 10.4991 30.0489 10.8448C29.4964 11.2292 28.9269 11.6276 28.3403 12.0401C28.3239 12.0514 28.3048 12.0584 28.285 12.0604C28.2652 12.0624 28.2452 12.0594 28.227 12.0516C27.8221 11.8799 27.4213 11.8022 27.0246 11.8186C26.9965 11.8204 26.9939 11.8125 27.0167 11.7949C27.6208 11.3449 28.2176 10.8852 28.807 10.4159C29.3256 10.0028 29.8635 9.61728 30.4207 9.25927C30.9164 8.94052 31.3978 8.72695 31.8648 8.61855C32.0124 8.58457 32.1829 8.57724 32.3763 8.59658C32.5591 8.61533 32.7223 8.65927 32.8658 8.72841C33.2297 8.90361 33.4424 9.17929 33.5039 9.55546C33.5443 9.80156 33.494 10.1177 33.3527 10.5038C33.0891 11.2239 32.7358 11.898 32.2928 12.5262C31.9998 12.9416 31.8513 13.1522 31.8472 13.1581C31.505 13.6608 31.1517 14.1557 30.7872 14.6426C30.7792 14.6532 30.7685 14.6615 30.7561 14.6666C30.7438 14.6717 30.7302 14.6734 30.7169 14.6716C30.448 14.6352 30.2575 14.6446 30.1456 14.6997C29.9511 14.7952 29.9118 14.9432 30.0278 15.1436C30.0759 15.2262 30.138 15.3105 30.2142 15.3967C30.2227 15.4065 30.2277 15.4188 30.2285 15.4317C30.2293 15.4446 30.2258 15.4573 30.2186 15.4679C29.8301 16.0245 29.4489 16.577 29.0751 17.1255C28.6187 17.7946 28.2627 18.549 28.0072 19.3887C27.9621 19.5357 28.0105 19.64 28.1523 19.7016C28.4153 19.8146 28.7356 19.8542 29.1129 19.8202C29.7035 19.7669 30.2795 19.6453 30.8408 19.4555C32.2014 18.9967 33.5297 18.4585 34.8258 17.8409C35.1147 17.7038 35.4114 17.5872 35.7161 17.4911C35.9892 17.405 36.2622 17.3777 36.5353 17.4094C36.8071 17.4404 37.0488 17.5465 37.2604 17.7275C37.7848 18.1764 37.9034 18.7784 37.6163 19.5337C37.5097 19.8138 37.3506 20.1249 37.1391 20.4671C36.8789 20.8878 36.6399 21.3129 36.4219 21.7424C36.3774 21.8297 36.3999 21.8534 36.4896 21.8136C37.362 21.4257 38.1861 20.9531 38.9619 20.3959C39.0334 20.3449 39.1509 20.2816 39.3144 20.206C39.3706 20.1803 39.4163 20.1727 39.4515 20.1832C39.52 20.2031 39.5253 20.2667 39.4673 20.3739C39.2194 20.8351 38.9151 21.2268 38.5541 21.549C38.0449 22.0043 37.4898 22.3945 36.8886 22.7197C36.6319 22.8592 36.3727 22.9052 36.1108 22.8577C35.8559 22.8114 35.6455 22.6846 35.4797 22.4771C35.2201 22.1514 35.1838 21.7544 35.3707 21.2862C35.5037 20.9528 35.659 20.63 35.8365 20.3177C36.1084 19.8413 36.3097 19.3532 36.4403 18.8534C36.4638 18.7632 36.4316 18.7333 36.3437 18.7638C35.9253 18.9091 35.5193 19.0816 35.1255 19.2814C34.3034 19.6975 33.3191 20.1349 32.1724 20.5936C31.6491 20.8034 31.1455 20.9716 30.6615 21.0981C30.0908 21.2481 29.6306 21.3366 29.2808 21.3636C28.8015 21.4011 28.3289 21.356 27.8631 21.2282C27.4869 21.1251 27.1904 20.9719 26.9736 20.7686C26.7029 20.5148 26.5377 20.2066 26.4779 19.8439C26.4234 19.5135 26.4864 19.0808 26.6669 18.5458C26.8011 18.1485 26.9608 17.7612 27.1459 17.3839C27.2156 17.2421 27.3167 17.1079 27.4491 16.9813C28.055 16.4036 28.575 15.7544 29.0092 15.0337C29.0191 15.0172 29.0323 15.0031 29.0481 14.9921C29.0638 14.9812 29.0818 14.9737 29.1006 14.9702C29.1195 14.9668 29.1389 14.9673 29.1575 14.9719C29.1761 14.9765 29.1936 14.9849 29.2087 14.9968C29.2679 15.0425 29.3443 15.0773 29.4381 15.1014C29.4504 15.1046 29.4634 15.1036 29.4751 15.0985C29.4867 15.0934 29.4963 15.0845 29.5023 15.0732L29.9004 14.3165C29.9065 14.3047 29.9089 14.2913 29.9072 14.2784C29.9054 14.2655 29.8997 14.2536 29.8907 14.2444Z" fill="black"/>
<path d="M20.0478 12.9102C20.6735 13.5583 21.3459 14.0944 22.0649 14.5186C22.3531 14.6886 22.6892 14.8184 23.073 14.908C23.4122 14.9877 23.7386 14.9842 24.0521 14.8975C24.3128 14.8254 24.5879 14.6704 24.8774 14.4325C25.2869 14.0956 25.6294 13.6939 25.9048 13.2275C26.3273 12.5109 26.9352 12.2546 27.7285 12.4585C27.9084 12.5048 28.0804 12.5991 28.2444 12.7415C28.3915 12.8686 28.5099 13.0192 28.5995 13.1933C28.8702 13.72 28.8233 14.2679 28.4589 14.8368C27.8835 15.7356 27.2325 16.4534 26.506 16.9901C25.2286 17.9335 23.8197 18.2174 22.2793 17.8418C21.7174 17.7047 21.1458 17.4691 20.5646 17.1352C19.6974 16.6371 18.9125 16.0397 18.21 15.3431C18.159 15.2927 18.1332 15.3035 18.1326 15.3756C18.118 17.1146 18.1197 18.8376 18.1379 20.5444C18.1438 21.1192 18.1754 21.7037 18.2328 22.2978C18.8727 28.8984 19.5157 35.4984 20.162 42.0978C20.2681 43.1807 19.8881 43.9851 19.0221 44.5113C18.5774 44.7809 18.1033 44.884 17.6 44.8207C17.1242 44.7609 16.7009 44.5787 16.33 44.274C15.9732 43.9805 15.7291 43.6078 15.5979 43.156C15.5522 42.9996 15.495 42.5716 15.4265 41.872C14.8921 36.3841 14.363 30.9041 13.8392 25.432C13.8374 25.4154 13.8295 25.4 13.817 25.389C13.8044 25.3779 13.7882 25.3719 13.7715 25.3723L12.2756 25.3775C12.2529 25.3778 12.2311 25.3863 12.2144 25.4014C12.1977 25.4165 12.1872 25.4371 12.1851 25.4593C11.6501 31.0011 11.1184 36.4966 10.5899 41.9458C10.5594 42.2587 10.5269 42.5235 10.4923 42.7403C10.4448 43.0356 10.3651 43.2882 10.2532 43.4979C10.0739 43.8337 9.8296 44.1079 9.52022 44.3206C9.2255 44.5227 8.89327 44.6525 8.52354 44.71C7.86319 44.8125 7.2629 44.6455 6.72266 44.209C6.29317 43.8615 6.02423 43.4306 5.91583 42.9161C5.86075 42.6548 5.86749 42.1687 5.93604 41.458C6.56007 35.0203 7.18233 28.5823 7.80284 22.144C7.86085 21.5399 7.89132 20.9555 7.89425 20.3906C7.89835 19.6582 7.8963 18.9258 7.88809 18.1934C7.88805 18.1883 7.88682 18.1833 7.8845 18.1788C7.88218 18.1743 7.87883 18.1704 7.87473 18.1674C7.87064 18.1644 7.86589 18.1624 7.86089 18.1616C7.85588 18.1607 7.85075 18.1611 7.84591 18.1626C7.12052 18.3958 6.38018 18.561 5.62491 18.6583C5.17667 18.7157 4.74249 18.6902 4.32237 18.5818C3.87061 18.4652 3.50059 18.2607 3.21231 17.9684C2.75528 17.5049 2.57042 16.9134 2.65772 16.1938C2.71514 15.7216 2.89591 15.2358 3.20001 14.7366C3.60196 14.0774 4.06368 13.4628 4.58516 12.8927C5.04278 12.3923 5.52589 11.9191 6.03448 11.4732C6.46221 11.0982 6.80909 10.8094 7.07511 10.6066C7.43546 10.3324 7.81485 10.0849 8.21329 9.86396C8.57716 9.66298 8.95948 9.54111 9.36026 9.49833C9.3919 9.49541 9.78682 9.49248 10.545 9.48955C12.5407 9.4831 14.5364 9.48984 16.5321 9.50976C16.8603 9.51328 17.1108 9.55517 17.2836 9.63544C17.5379 9.7538 17.74 9.93134 17.89 10.1681C18.5158 11.1554 19.2351 12.0694 20.0478 12.9102ZM7.85118 13.9166C7.3379 14.3853 6.87647 14.8629 6.4669 15.3492C6.41651 15.4096 6.42823 15.4274 6.50206 15.4028L7.84854 14.9607C7.86442 14.9556 7.87831 14.9449 7.88825 14.9301C7.89819 14.9152 7.90367 14.8971 7.90391 14.8781L7.91182 13.9456C7.91241 13.8888 7.89219 13.8791 7.85118 13.9166Z" fill="black"/>
<path d="M31.1326 14.8271C31.1367 14.8211 31.1428 14.8165 31.1499 14.8142C31.157 14.8118 31.1648 14.8117 31.1721 14.8139C31.7587 14.9903 32.2687 15.2924 32.7023 15.7201C32.8424 15.8578 32.9323 15.9855 32.9721 16.1033C33.0448 16.3195 32.9554 16.4475 32.7041 16.4874C32.5945 16.505 32.4583 16.4997 32.2954 16.4716C31.6684 16.3632 31.1033 16.1115 30.6 15.7166C30.59 15.7087 30.5832 15.6975 30.5809 15.6853C30.5786 15.6731 30.581 15.6608 30.5877 15.6507L31.1326 14.8271Z" fill="black"/>
</svg>
