<svg width="45" height="45" viewBox="0 0 45 45" fill="none" xmlns="http://www.w3.org/2000/svg">
<path d="M4.38223 34.1508C3.73652 34.1063 3.34512 34.0898 3.20801 34.1016C2.61387 34.1531 2.25937 33.9691 2.14453 33.5496C2.12109 33.4664 2.10938 33.1301 2.10938 32.5406C2.10938 32.0063 2.10938 31.4719 2.10938 30.9375C2.10938 30.6598 2.21777 30.46 2.43457 30.3381C2.55645 30.2701 2.75625 30.2379 3.03398 30.2414C3.47695 30.2461 3.91934 30.235 4.36113 30.208C4.38689 30.206 4.4114 30.1964 4.43148 30.1804C4.45155 30.1644 4.46624 30.1428 4.47363 30.1184C4.78535 29.0918 5.2541 28.1438 5.87988 27.2742C5.91418 27.2274 5.93265 27.1708 5.93262 27.1125C5.93262 26.625 5.93262 26.1375 5.93262 25.65C5.93262 25.0301 5.98066 24.5467 6.07676 24.1998C6.45762 22.8264 7.37637 21.9463 8.83301 21.5596C8.86821 21.5502 8.89926 21.5292 8.92123 21.4999C8.9432 21.4706 8.95484 21.4347 8.9543 21.3979C8.90273 16.8826 8.90332 12.402 8.95605 7.95586C8.96309 7.29493 9.05156 6.81211 9.22148 6.50743C9.41133 6.16524 9.68203 5.89805 10.0336 5.70586C10.2914 5.56407 10.6477 5.49141 11.1023 5.48789C12.9656 5.47383 17.3654 5.46094 24.3018 5.44922C25.1924 5.44805 25.841 5.73809 26.2477 6.31934C26.6309 6.86778 26.7193 7.48418 26.5131 8.16856C26.3268 8.78965 25.9178 9.20801 25.2861 9.42364C24.9791 9.52793 24.4342 9.5795 23.6514 9.57832C20.151 9.57481 16.6512 9.57891 13.152 9.59063C13.1282 9.59063 13.1054 9.59989 13.0886 9.61637C13.0717 9.63285 13.0623 9.65521 13.0623 9.67852C13.0506 12.484 13.0588 15.29 13.0869 18.0967C13.0881 18.2022 13.0752 18.7647 13.0482 19.7842C13.0342 20.3197 13.0512 20.8559 13.0992 21.3926C13.101 21.4161 13.112 21.4381 13.1299 21.454C13.1478 21.47 13.1714 21.4788 13.1959 21.4787C15.4072 21.4787 17.6191 21.4852 19.8316 21.4981C20.0824 21.4992 20.2617 21.5414 20.3695 21.6246C20.5348 21.7488 20.6162 21.9381 20.6139 22.1924C20.6033 23.1768 20.6121 24.1611 20.6402 25.1455C20.6411 25.171 20.6512 25.1951 20.6682 25.2128C20.6853 25.2305 20.708 25.2404 20.7316 25.2404L22.7971 25.2615C22.816 25.2618 22.8347 25.2582 22.8522 25.2509C22.8697 25.2436 22.8856 25.2329 22.8989 25.2192C22.9122 25.2056 22.9226 25.1894 22.9296 25.1716C22.9366 25.1538 22.9399 25.1348 22.9395 25.1156L22.8885 22.4666C22.8879 22.4394 22.8815 22.4124 22.8697 22.3873C22.8579 22.3622 22.841 22.3396 22.8199 22.3207C22.1965 21.7547 21.5807 21.1811 20.9725 20.5998C20.7498 20.3854 20.652 20.1586 20.6789 19.9195C20.6953 19.7742 20.8014 19.5785 20.9971 19.3324C21.242 19.0207 21.4875 18.7143 21.7336 18.4131C21.754 18.388 21.7641 18.3562 21.7618 18.3244C21.7595 18.2926 21.745 18.2632 21.7213 18.2426L21.0568 17.659C21.0483 17.651 21.0382 17.645 21.0272 17.6412C21.0162 17.6374 21.0044 17.6359 20.9927 17.6369C20.981 17.6379 20.9695 17.6413 20.9591 17.6469C20.9486 17.6525 20.9394 17.6602 20.932 17.6695C20.5934 18.0844 20.2641 18.4904 19.9441 18.8877C19.6324 19.2744 19.2867 19.3471 18.907 19.1057C18.6621 18.9498 18.5654 18.733 18.617 18.4553C18.6451 18.3006 18.7488 18.1154 18.9281 17.8998C19.8129 16.8287 20.707 15.7658 21.6105 14.7111C21.7875 14.5037 21.9346 14.3385 22.0518 14.2154C22.2299 14.0279 22.4174 13.9283 22.6143 13.9166C22.9178 13.9002 23.1287 14.0514 23.2471 14.3701C23.3654 14.6865 23.2875 14.9889 23.0133 15.2772C22.6523 15.6545 22.309 16.0471 21.9832 16.4549C21.9679 16.4741 21.9602 16.498 21.9615 16.5219C21.9628 16.5457 21.9731 16.5676 21.9902 16.5832L22.6055 17.1598C22.6151 17.1689 22.6266 17.1759 22.6391 17.1803C22.6517 17.1847 22.665 17.1865 22.6784 17.1855C22.6918 17.1845 22.7048 17.1808 22.7168 17.1745C22.7287 17.1683 22.7393 17.1597 22.7479 17.1492C23.0057 16.8328 23.2412 16.5469 23.4545 16.2914C23.6514 16.0559 23.8775 15.9598 24.133 16.0031C24.2771 16.0277 24.4676 16.1367 24.7043 16.3301C25.425 16.9207 26.1469 17.509 26.8699 18.0949C26.9144 18.1302 26.9696 18.1495 27.0264 18.1494C30.2994 18.1541 32.2477 18.1688 32.8711 18.1934C34.677 18.266 36.1441 18.9961 37.2727 20.3836C37.7566 20.9777 38.1076 21.6305 38.3256 22.3418C38.4732 22.8199 38.5576 23.4902 38.5787 24.3527C38.5939 25.009 38.5945 25.6875 38.5805 26.3883C38.5781 26.5143 38.6198 26.6369 38.6982 26.7346C39.5619 27.8057 40.1707 28.933 40.5246 30.1166C40.5323 30.1416 40.5471 30.1637 40.5671 30.1802C40.5871 30.1968 40.6114 30.2071 40.6371 30.2098C41.1516 30.2566 41.5219 30.2648 41.748 30.2344C42.3891 30.1477 42.7629 30.3381 42.8695 30.8057C42.8836 30.8666 42.8906 31.2188 42.8906 31.8621C42.8906 32.2711 42.8906 32.6807 42.8906 33.0908C42.8906 33.4471 42.8367 33.6973 42.7289 33.8414C42.5508 34.0781 42.2678 34.1648 41.8799 34.1016C41.5998 34.0559 41.1785 34.0705 40.616 34.1455C40.5901 34.1487 40.5657 34.1594 40.546 34.1763C40.5263 34.1932 40.5121 34.2155 40.5053 34.2404C39.8596 36.4799 38.5711 38.1439 36.6398 39.2326C35.1879 40.0494 33.6451 40.3805 32.0115 40.2258C30.8244 40.1133 29.7164 39.7623 28.6875 39.1729C27.0352 38.2283 25.8357 36.8004 25.0893 34.8891C25.0794 34.8642 25.0624 34.8428 25.0405 34.8278C25.0185 34.8127 24.9927 34.8047 24.9662 34.8047H20.0391C20.0131 34.8047 19.9876 34.8125 19.966 34.8272C19.9444 34.842 19.9276 34.8629 19.9178 34.8873C18.8432 37.5522 17.0127 39.2367 14.4264 39.941C13.251 40.2609 12.0926 40.326 10.9512 40.1361C9.18281 39.8432 7.65996 39.0147 6.38262 37.6506C5.48965 36.6967 4.86035 35.5606 4.49473 34.2422C4.48754 34.2171 4.47287 34.1948 4.45273 34.1784C4.43259 34.1621 4.40796 34.1524 4.38223 34.1508ZM35.5201 20.5981C34.7854 19.991 34.0049 19.6582 33.1787 19.5996C32.342 19.5398 30.3885 19.5246 27.3182 19.5539C27.3146 19.5539 27.1787 19.5621 26.9104 19.5785C26.6232 19.5973 26.4018 19.5422 26.2459 19.4133C25.5873 18.8707 24.907 18.3111 24.2051 17.7346C24.1955 17.7265 24.1844 17.7204 24.1724 17.7167C24.1604 17.7131 24.1478 17.7118 24.1353 17.7132C24.1228 17.7145 24.1107 17.7183 24.0998 17.7244C24.0888 17.7305 24.0792 17.7387 24.0715 17.7486L22.4051 19.8369C22.382 19.866 22.371 19.903 22.3742 19.9405C22.3775 19.978 22.3948 20.0132 22.4227 20.0391L24.0838 21.6C24.2607 21.7664 24.3486 21.9809 24.3475 22.2434C24.3404 23.5078 24.3275 24.6908 24.3088 25.7924C24.3029 26.0994 24.2338 26.3145 24.1014 26.4375C23.9303 26.5957 23.6895 26.6748 23.3789 26.6748C22.323 26.6748 21.2666 26.6748 20.2096 26.6748C19.8955 26.6748 19.6746 26.6291 19.5469 26.5377C19.3453 26.3924 19.2457 26.1598 19.248 25.8398C19.2527 24.9457 19.2363 24 19.1988 23.0027C19.1975 22.9737 19.1853 22.9462 19.1647 22.926C19.1441 22.9057 19.1167 22.8942 19.0881 22.8938C17.0361 22.8598 14.9613 22.8457 12.8637 22.8516C12.8508 22.8516 12.7424 22.8586 12.5385 22.8727C12.2678 22.8926 12.0516 22.817 11.8898 22.6459C11.7562 22.5064 11.6883 22.2727 11.6859 21.9445C11.6555 17.6356 11.6561 13.3266 11.6877 9.01758C11.6889 8.74453 11.7422 8.54825 11.8477 8.42871C11.9941 8.25762 12.2051 8.17266 12.4805 8.17383C15.1242 8.18321 19.074 8.17969 24.3299 8.16328C24.6369 8.16211 24.8619 8.11114 25.0049 8.01035C25.2627 7.82637 25.3137 7.55801 25.1578 7.20528C25.0559 6.97207 24.8777 6.85547 24.6234 6.85547C20.0578 6.85547 15.5414 6.85606 11.0742 6.85723C10.8293 6.85723 10.6412 6.93575 10.51 7.09278C10.4174 7.20176 10.3705 7.37871 10.3693 7.62364C10.3307 12.4295 10.3166 17.2354 10.3271 22.0412C10.3271 22.2814 10.2832 22.459 10.1953 22.5738C10.0723 22.7355 9.89707 22.8305 9.66973 22.8586C8.0373 23.0637 7.26035 23.9982 7.33887 25.6623C7.34355 25.7584 7.38457 25.7783 7.46191 25.7221C8.66309 24.8467 9.95625 24.3246 11.3414 24.1559C12.4969 24.0141 13.6529 24.1301 14.8096 24.5039C16.8533 25.1625 18.409 26.509 19.4766 28.5434C20.2336 29.9859 20.5072 31.5639 20.2975 33.2772C20.2957 33.2925 20.2972 33.308 20.3018 33.3227C20.3064 33.3374 20.314 33.3509 20.3242 33.3624C20.3343 33.3738 20.3467 33.383 20.3606 33.3892C20.3745 33.3954 20.3895 33.3986 20.4047 33.3984L24.5795 33.3879C24.5943 33.388 24.6089 33.3849 24.6225 33.3788C24.636 33.3727 24.6481 33.3638 24.6581 33.3525C24.668 33.3412 24.6756 33.3279 24.6802 33.3134C24.6848 33.2989 24.6864 33.2836 24.685 33.2684C24.5068 31.609 24.7611 30.0949 25.4479 28.7262C26.6854 26.2594 28.5785 24.7723 31.1273 24.2648C32.1797 24.0551 33.1975 24.0463 34.1807 24.2385C35.1861 24.4342 36.1523 24.8139 37.0793 25.3775C37.1449 25.4174 37.1777 25.3986 37.1777 25.3213C37.1777 24.8326 37.1725 24.3902 37.1619 23.9941C37.1244 22.602 36.5771 21.4699 35.5201 20.5981ZM15.2859 30.6C15.6281 31.2258 15.7477 31.8949 15.6445 32.6074C15.4898 33.6738 14.9941 34.4672 14.1574 34.9875C13.4344 35.4375 12.6645 35.6074 11.8477 35.4973C11.0027 35.3836 10.2691 34.9606 9.64688 34.2281C9.62151 34.1989 9.58943 34.1753 9.55277 34.1589C9.51611 34.1425 9.47569 34.1338 9.43418 34.1332L6.03633 34.1139C6.02114 34.114 6.00617 34.1177 5.99266 34.1246C5.97916 34.1314 5.96753 34.1413 5.95874 34.1534C5.94996 34.1654 5.94428 34.1793 5.94218 34.1938C5.94008 34.2084 5.94162 34.2232 5.94668 34.2369C6.43301 35.5904 7.22695 36.6791 8.32852 37.5029C9.72422 38.5471 11.2975 38.9707 13.0482 38.7738C14.4686 38.6133 15.6744 38.0994 16.6658 37.2322C17.7896 36.2514 18.5057 35.0496 18.8139 33.627C19.026 32.6473 19.0277 31.6746 18.8191 30.709C18.6 29.6988 18.1682 28.7971 17.5236 28.0037C16.5006 26.7451 15.2256 25.9588 13.6986 25.6447C12.5314 25.4045 11.3771 25.4707 10.2357 25.8434C8.25996 26.4891 6.83438 27.9012 5.95898 30.0797C5.95209 30.0967 5.94948 30.1152 5.95137 30.1335C5.95326 30.1517 5.9596 30.1693 5.96983 30.1845C5.98006 30.1998 5.99388 30.2123 6.01006 30.221C6.02625 30.2297 6.04432 30.2343 6.0627 30.2344H9.37793C9.4219 30.2344 9.46554 30.2255 9.50628 30.2083C9.54702 30.1911 9.58406 30.1659 9.61523 30.1342C10.9934 28.7326 12.4213 28.4385 13.899 29.2518C14.5189 29.5928 14.9812 30.0422 15.2859 30.6ZM30.3328 29.7615C31.3922 28.7631 32.6449 28.5434 34.091 29.1023C34.5316 29.2734 34.9605 29.6244 35.3777 30.1553C35.3947 30.1767 35.4161 30.194 35.4405 30.2059C35.4649 30.2177 35.4915 30.2239 35.5184 30.2238L38.9496 30.2344C38.9664 30.2343 38.9829 30.2302 38.9978 30.2223C39.0126 30.2144 39.0254 30.2031 39.0351 30.1891C39.0447 30.1752 39.0509 30.1591 39.0531 30.1422C39.0554 30.1253 39.0537 30.1081 39.048 30.092C38.3262 28.108 37.0605 26.7498 35.2512 26.0174C34.1273 25.5627 32.9807 25.4074 31.8111 25.5516C30.4588 25.7191 29.2629 26.2729 28.2234 27.2127C27.1758 28.1607 26.5008 29.3039 26.1984 30.6422C25.9383 31.7988 25.9805 32.9561 26.325 34.1139C26.7234 35.4522 27.4758 36.5508 28.582 37.4098C29.3836 38.032 30.2625 38.4604 31.2188 38.6947C32.243 38.9467 33.2479 38.9391 34.2334 38.6719C36.5607 38.0391 38.1592 36.5859 39.0287 34.3125C39.0373 34.2906 39.0402 34.2669 39.0371 34.2434C39.034 34.22 39.0251 34.1976 39.011 34.1782C38.997 34.1588 38.9783 34.1429 38.9565 34.132C38.9348 34.1211 38.9107 34.1155 38.8863 34.1156L35.5641 34.1174C35.5355 34.1174 35.5076 34.123 35.4825 34.1339C35.4573 34.1449 35.4353 34.1608 35.4182 34.1807C34.7209 35.0139 33.8895 35.4574 32.9238 35.5113C31.9898 35.5629 31.1713 35.2881 30.4682 34.6869C29.8025 34.1174 29.4322 33.3563 29.3572 32.4035C29.3186 31.9043 29.3801 31.4338 29.5418 30.992C29.7199 30.5022 29.9836 30.092 30.3328 29.7615ZM12.6844 30.2766C11.9109 30.0844 11.2465 30.3521 10.691 31.0799C10.6863 31.0869 10.6512 31.1397 10.5855 31.2381C10.4062 31.5076 10.1443 31.6424 9.7998 31.6424C7.74902 31.6412 5.69824 31.6406 3.64746 31.6406C3.62238 31.6406 3.59809 31.6491 3.57882 31.6649C3.55955 31.6806 3.54652 31.7025 3.54199 31.7268C3.48691 32.0338 3.49043 32.3397 3.55254 32.6443C3.55711 32.6681 3.5704 32.6894 3.59003 32.7045C3.60967 32.7196 3.63438 32.7276 3.65977 32.727C5.59336 32.7105 7.52695 32.7141 9.46055 32.7375C9.46875 32.7375 9.57656 32.7311 9.78398 32.7182C9.95156 32.7088 10.1057 32.7369 10.2463 32.8025C10.3588 32.8564 10.4924 32.9977 10.6471 33.2262C11.0244 33.7887 11.5219 34.0916 12.1395 34.135C12.893 34.1877 13.4736 33.917 13.8814 33.3229C14.1029 33.0006 14.2248 32.6496 14.2471 32.2699C14.2729 31.8492 14.1768 31.4731 13.9588 31.1414C13.6729 30.7043 13.248 30.416 12.6844 30.2766ZM38.9021 32.7393C39.7225 32.7568 40.5434 32.7475 41.3648 32.7111C41.3906 32.7098 41.4148 32.6997 41.4328 32.6827C41.4507 32.6658 41.461 32.6433 41.4615 32.6197L41.4791 31.7391C41.4793 31.7276 41.4771 31.7162 41.4724 31.7056C41.4677 31.695 41.4608 31.6853 41.4519 31.6771C41.4431 31.6689 41.4326 31.6624 41.4209 31.6579C41.4093 31.6535 41.3968 31.6512 41.3842 31.6512C39.5021 31.6395 37.6207 31.6359 35.7398 31.6406C35.2863 31.6406 35.0443 31.6377 35.0139 31.6318C34.7514 31.5838 34.5428 31.4344 34.3881 31.1836C34.1783 30.8461 33.9621 30.6211 33.7395 30.5086C33.0223 30.1488 32.3771 30.123 31.8041 30.4313C31.2639 30.7219 30.9246 31.1807 30.7863 31.8076C30.6738 32.315 30.7658 32.7879 31.0623 33.2262C31.3272 33.6188 31.6875 33.8854 32.1434 34.026C32.9965 34.2885 33.7641 33.975 34.4461 33.0856C34.6172 32.8617 34.8434 32.7498 35.1246 32.7498C35.7129 32.7486 36.3422 32.7416 37.0125 32.7287C37.5059 32.7182 38.1357 32.7217 38.9021 32.7393Z" fill="black"/>
</svg>
