<svg width="45" height="45" viewBox="0 0 45 45" fill="none" xmlns="http://www.w3.org/2000/svg">
<path d="M15.2011 12.0867C13.5839 -1.32888 34.9027 -2.43981 34.1222 12.1219C34.1183 12.2147 34.1506 12.3055 34.2122 12.375C34.2738 12.4445 34.3601 12.4874 34.4527 12.4946C38.0878 12.7758 36.7941 17.8875 34.9167 19.4344C34.3402 19.9055 33.4472 20.1586 32.8144 20.8617C31.4878 22.3524 30.1683 23.8477 28.8558 25.3477C28.2699 26.018 28.3449 26.7024 29.0808 27.4008C29.6339 27.9305 30.2808 28.2938 31.0214 28.4907C40.0425 30.8813 42.8339 32.8571 43.6144 42.6094C43.6241 42.7352 43.6077 42.8617 43.5661 42.9808C43.5245 43.1 43.4587 43.2092 43.3729 43.3017C43.287 43.3942 43.1829 43.4679 43.0672 43.5181C42.9514 43.5684 42.8265 43.5942 42.7003 43.5938H5.20971C5.07465 43.594 4.94097 43.5666 4.81686 43.5133C4.69276 43.46 4.58086 43.3819 4.48802 43.2838C4.39519 43.1857 4.32338 43.0697 4.277 42.9428C4.23062 42.816 4.21065 42.681 4.21831 42.5461C4.34487 40.0782 4.69643 35.1141 6.77065 33.4899C7.74565 32.7258 7.86753 31.8422 7.13628 30.8391C6.39565 29.8172 6.24565 28.8422 6.68628 27.9141C6.74087 27.7985 6.77311 27.6798 6.78044 27.5675C6.78776 27.4552 6.76996 27.3524 6.72847 27.2672C6.20112 26.1703 3.03706 27.8227 2.22143 28.0899C2.12222 28.1221 2.01652 28.129 1.91395 28.11C1.81138 28.0909 1.71519 28.0466 1.63414 27.9809C1.55309 27.9152 1.48975 27.8303 1.44987 27.7339C1.40999 27.6375 1.39485 27.5327 1.40581 27.4289L2.81206 13.3453C2.90581 12.4078 3.29018 12.2696 3.96518 12.9305L13.6191 22.4016C14.3363 23.1047 14.2144 23.6367 13.2535 23.9977L10.3144 25.0946C10.2064 25.1343 10.1113 25.2022 10.0386 25.2914C9.96594 25.3806 9.9183 25.488 9.90048 25.6028C9.88266 25.7176 9.89528 25.8357 9.93709 25.9452C9.9789 26.0547 10.0484 26.1518 10.1386 26.2266C11.2214 27.136 11.873 28.2258 12.0933 29.4961C12.1103 29.5951 12.1478 29.6894 12.2035 29.7729C12.2592 29.8564 12.3318 29.9273 12.4167 29.981C12.5015 30.0347 12.5967 30.07 12.696 30.0845C12.7953 30.0991 12.8966 30.0927 12.9933 30.0657C14.9269 29.4961 20.791 28.568 20.7207 26.0508C20.7164 25.8423 20.6239 25.625 20.4605 25.4391C18.6957 23.4352 17.2261 21.2555 14.8988 19.8352C12.5292 18.3867 10.8066 12.9657 14.9058 12.4664C14.9503 12.4612 14.9933 12.4472 15.0323 12.4253C15.0713 12.4033 15.1055 12.3738 15.133 12.3384C15.1605 12.3031 15.1806 12.2626 15.1923 12.2194C15.204 12.1762 15.207 12.1311 15.2011 12.0867ZM16.966 12.6914C21.8808 9.96331 27.0558 9.82972 31.9496 12.5227C32.0239 12.5633 32.1073 12.5844 32.192 12.5839C32.2767 12.5835 32.3599 12.5614 32.4337 12.5199C32.5075 12.4784 32.5696 12.4189 32.6141 12.3468C32.6585 12.2747 32.6839 12.1924 32.6878 12.1078C33.2644 -0.689034 15.0535 0.414873 16.5511 12.4805C16.5569 12.526 16.5737 12.5695 16.6001 12.607C16.6265 12.6445 16.6618 12.6751 16.7027 12.6959C16.7436 12.7167 16.789 12.7271 16.8349 12.7264C16.8808 12.7256 16.9258 12.7136 16.966 12.6914ZM28.7082 12.6141C25.8113 11.8078 22.9121 11.7891 20.0105 12.5578C18.7871 12.8813 19.4339 13.3594 20.13 13.3594C23.0785 13.3594 25.9027 13.3594 28.6027 13.3594C30.4496 13.3594 30.4847 13.111 28.7082 12.6141ZM15.166 14.2172C13.1058 12.6 14.2097 17.3602 14.9972 18.2602C15.7097 19.0852 16.0027 18.968 15.8761 17.9086L15.4964 14.8008C15.4696 14.5754 15.3509 14.3659 15.166 14.2172ZM33.6441 14.8852C32.805 19.343 33.3089 19.8891 35.1558 16.5235C35.9105 15.15 35.8378 14.3438 34.9378 14.1047C34.2113 13.9172 33.78 14.1774 33.6441 14.8852ZM23.1535 25.9453L26.191 25.9102C26.2854 25.908 26.3867 25.8772 26.4876 25.8201C26.5885 25.7629 26.6865 25.6809 26.7746 25.5797L31.1269 20.5243C31.4473 20.1535 31.646 19.7095 31.6964 19.2516L32.1675 15.1242C32.1725 15.0791 32.1674 15.0333 32.1526 14.99C32.1379 14.9468 32.1138 14.9069 32.082 14.8731C32.0501 14.8392 32.0112 14.8122 31.9678 14.7937C31.9244 14.7752 31.8775 14.7656 31.83 14.7657L17.4511 14.8078C17.356 14.8078 17.2648 14.8456 17.1976 14.9129C17.1303 14.9801 17.0925 15.0713 17.0925 15.1664C17.1207 17.4446 17.0714 19.3641 18.6394 21.2274C19.905 22.7321 21.2128 24.1992 22.5628 25.6289C22.6573 25.7278 22.7593 25.8075 22.8614 25.8622C22.9636 25.9169 23.0633 25.9453 23.1535 25.9453ZM2.94565 25.8961C2.94218 25.9402 2.94969 25.9844 2.9675 26.0248C2.9853 26.0652 3.01285 26.1006 3.04769 26.1278C3.08252 26.155 3.12354 26.1731 3.16709 26.1805C3.21064 26.1879 3.25535 26.1844 3.29722 26.1703L11.7699 23.1047C11.8127 23.0897 11.851 23.0639 11.8812 23.03C11.9113 22.996 11.9323 22.9549 11.9422 22.9106C11.952 22.8662 11.9504 22.8201 11.9375 22.7766C11.9246 22.7331 11.9008 22.6935 11.8683 22.6617L4.43628 15.3633C4.40065 15.3269 4.35534 15.3014 4.3057 15.2899C4.25607 15.2783 4.20417 15.2812 4.15612 15.2982C4.10808 15.3152 4.06591 15.3456 4.03457 15.3858C4.00323 15.426 3.98403 15.4743 3.97925 15.525L2.94565 25.8961ZM8.83594 27.3996C8.88666 27.3693 8.92492 27.3193 8.94855 27.2524C8.97218 27.1856 8.98071 27.1032 8.97365 27.01C8.96659 26.9169 8.94408 26.8147 8.90741 26.7094C8.87075 26.6041 8.82063 26.4977 8.75993 26.3963C8.69924 26.2948 8.62915 26.2004 8.55366 26.1183C8.47818 26.0362 8.39879 25.9681 8.32001 25.9179C8.24124 25.8676 8.16463 25.8362 8.09456 25.8255C8.02448 25.8147 7.96232 25.8248 7.91161 25.8551C7.8609 25.8855 7.82263 25.9355 7.79901 26.0023C7.77538 26.0692 7.76685 26.1515 7.77391 26.2447C7.78097 26.3379 7.80347 26.44 7.84014 26.5454C7.87681 26.6507 7.92692 26.7571 7.98762 26.8585C8.04832 26.9599 8.11841 27.0543 8.19389 27.1364C8.26937 27.2185 8.34877 27.2866 8.42754 27.3369C8.50632 27.3871 8.58293 27.4185 8.653 27.4293C8.72307 27.4401 8.78524 27.43 8.83594 27.3996ZM21.5644 28.0196C21.2035 28.5258 20.7136 28.9336 20.0949 29.243C19.9896 29.2952 19.8989 29.3727 19.831 29.4685C19.7631 29.5644 19.7202 29.6754 19.7062 29.7915C19.6922 29.9076 19.7076 30.025 19.7509 30.1331C19.7943 30.2412 19.8642 30.3365 19.9542 30.4102C22.8371 32.8055 25.6472 32.5688 28.3847 29.7C28.4582 29.6252 28.5054 29.5286 28.5194 29.4246C28.5333 29.3207 28.5132 29.215 28.4621 29.1235C27.2246 26.9297 26.5636 27.4641 24.4683 27.3586C23.6527 27.3211 22.8582 27.4102 22.0847 27.6258C21.894 27.6803 21.7099 27.8196 21.5644 28.0196ZM10.3083 28.7377C10.2851 28.6754 10.2499 28.6183 10.2046 28.5696C10.1594 28.5209 10.1049 28.4816 10.0445 28.4539C9.98404 28.4262 9.91873 28.4107 9.85229 28.4083C9.78584 28.4059 9.71957 28.4166 9.65726 28.4398L8.36562 28.9201C8.23978 28.9669 8.13767 29.0618 8.08178 29.1839C8.02588 29.306 8.02077 29.4452 8.06757 29.5711L11.4596 38.692C11.4828 38.7543 11.518 38.8115 11.5632 38.8602C11.6085 38.9089 11.6629 38.9482 11.7234 38.9758C11.7838 39.0035 11.8491 39.019 11.9156 39.0214C11.982 39.0239 12.0483 39.0132 12.1106 38.99L13.4022 38.5096C13.5281 38.4628 13.6302 38.368 13.6861 38.2459C13.742 38.1238 13.7471 37.9845 13.7003 37.8587L10.3083 28.7377ZM18.7167 30.9305C18.3933 30.2977 17.9339 30.0657 17.3386 30.2344C17.2287 30.2664 17.1322 30.3305 17.0636 30.4167C16.9951 30.503 16.9584 30.6069 16.9589 30.7125V34.6711C16.9589 34.7681 17.0012 34.8611 17.0763 34.9297C17.1515 34.9982 17.2534 35.0368 17.3597 35.0368H31.8652C31.9665 35.0369 32.0638 34.9993 32.1362 34.9323C32.2085 34.8652 32.2501 34.774 32.2519 34.6782L32.3222 30.8039C32.3241 30.6975 32.2951 30.5911 32.2382 30.4959C32.1814 30.4007 32.0986 30.3201 31.9988 30.2625C31.3894 29.9203 30.7519 29.8313 30.0863 29.9953C29.8862 30.0453 29.6905 30.1791 29.5308 30.375C26.4605 34.1485 22.9941 34.5141 19.1316 31.4719C18.9769 31.35 18.8386 31.1696 18.7167 30.9305ZM33.7144 35.8453C33.7107 36.0343 33.634 36.2141 33.501 36.3458C33.368 36.4774 33.1895 36.5503 33.0042 36.5485L16.1222 36.443C16.0146 36.4404 15.9123 36.4021 15.8354 36.3357C15.7586 36.2692 15.7129 36.1796 15.7074 36.0844L15.4402 31.4719C15.434 31.3617 15.3986 31.258 15.34 31.1776C15.2813 31.0972 15.2026 31.0449 15.1167 31.0289C11.4886 30.3399 14.9269 37.1813 15.3769 38.4188C15.4146 38.5211 15.4295 38.6303 15.4208 38.7389C15.4121 38.8476 15.3799 38.953 15.3264 39.048C15.2729 39.1429 15.1994 39.2251 15.111 39.2889C15.0226 39.3526 14.9214 39.3964 14.8144 39.4172C13.5863 39.6563 13.1058 40.4321 13.373 41.7446C13.3989 41.8695 13.4675 41.9817 13.5674 42.0624C13.6672 42.1431 13.7923 42.1873 13.9214 42.1875H35.2472C35.4095 42.1875 35.565 42.1231 35.6798 42.0084C35.7945 41.8936 35.8589 41.738 35.8589 41.5758C35.8589 38.6086 35.7324 35.6625 35.9292 32.8641C36.0183 31.6032 35.4207 30.9703 34.1363 30.9657C34.0443 30.9658 33.9559 31.0049 33.8902 31.0746C33.8244 31.1443 33.7866 31.2389 33.7847 31.3383L33.7144 35.8453ZM37.9894 32.5196C37.5347 32.1446 37.305 32.2524 37.3003 32.843L37.2652 41.5688C37.2652 41.646 37.2797 41.7225 37.3077 41.7938C37.3357 41.865 37.3768 41.9297 37.4284 41.984C37.4801 42.0383 37.5414 42.0811 37.6087 42.11C37.676 42.1389 37.7481 42.1533 37.8207 42.1524L41.7019 42.0961C41.7986 42.0955 41.892 42.0547 41.9635 41.9818C42.0351 41.9089 42.0797 41.8092 42.0886 41.7024C42.3558 38.0461 40.9894 34.9852 37.9894 32.5196ZM11.9949 41.7164C12.0183 41.0321 11.7253 40.6524 11.116 40.5774C11.0012 40.5623 10.8948 40.523 10.8081 40.4635C10.7215 40.4041 10.6577 40.3268 10.6238 40.2399L8.59878 34.9664C8.27065 34.1086 7.88159 34.0664 7.43159 34.8399C6.19409 36.968 5.62925 39.2578 5.73706 41.7094C5.7407 41.8094 5.78082 41.904 5.849 41.9735C5.91718 42.043 6.0081 42.0819 6.10268 42.0821L11.573 42.1524C11.6817 42.154 11.7869 42.1092 11.8658 42.0276C11.9447 41.9461 11.9911 41.8344 11.9949 41.7164Z" fill="black"/>
</svg>
