<svg width="45" height="45" viewBox="0 0 45 45" fill="none" xmlns="http://www.w3.org/2000/svg">
<path d="M12.5558 18.2057C12.298 17.9853 12.1233 17.7205 12.0319 17.4111C11.9769 17.2254 11.9602 16.9204 11.9818 16.4962C12.1436 13.3333 12.3088 10.1704 12.4775 7.00751C12.5227 6.15498 12.5883 5.57431 12.6744 5.26552C12.9393 4.31396 13.5173 3.57509 14.4085 3.04892C17.313 1.33271 20.4202 0.558101 23.7302 0.725093C26.2192 0.850483 28.5721 1.5249 30.7887 2.74833C31.4361 3.10576 31.9081 3.44648 32.2046 3.7705C32.5644 4.16484 32.8298 4.61923 33.0009 5.13369C33.0982 5.42783 33.162 5.84912 33.1925 6.39755C33.281 8.00302 33.4447 11.1659 33.6838 15.8862C33.7154 16.5061 33.7236 16.8937 33.7084 17.049C33.6486 17.6631 33.3826 18.1617 32.9104 18.5449C32.8997 18.5536 32.8912 18.5647 32.8855 18.5772C32.8799 18.5897 32.8773 18.6033 32.8778 18.617C32.8931 18.9949 32.8808 19.3711 32.8409 19.7455C32.7864 20.2559 32.7331 20.627 32.681 20.8591C32.4952 21.6899 32.0221 22.323 31.2615 22.7584C31.0553 22.8762 30.8827 23.008 30.7439 23.1539C30.6407 23.2629 30.5294 23.4439 30.4099 23.6971C29.9013 24.7734 29.3941 25.8504 28.8885 26.9279C28.5445 27.6609 28.2691 28.1774 28.0623 28.4774C27.2221 29.6997 26.0783 30.5051 24.6311 30.8935C24.075 31.043 23.4665 31.113 22.8056 31.1036C22.1874 31.0942 21.6079 31.0184 21.0671 30.876C19.7493 30.5291 18.6732 29.8227 17.8389 28.7569C17.5775 28.4229 17.2831 27.9182 16.9556 27.2426C16.4663 26.2342 15.9908 25.219 15.5291 24.1972C15.4635 24.053 15.3671 23.8567 15.2399 23.6083C15.1187 23.3727 14.9956 23.1946 14.8708 23.0739C14.7565 22.9632 14.6314 22.8662 14.4955 22.783C14.2383 22.626 14.1041 22.5431 14.093 22.5343C13.4906 22.0796 13.1215 21.4602 12.9856 20.6763C12.8748 20.0382 12.8165 19.4294 12.8106 18.8499C12.8101 18.8464 12.8218 18.762 12.8458 18.5968C12.8628 18.4755 12.8177 18.3794 12.7105 18.3085C12.6114 18.2435 12.5599 18.2092 12.5558 18.2057ZM23.3733 9.87099C25.6603 9.98583 27.8593 10.4821 29.9704 11.3599C30.4913 11.5761 30.8153 11.7061 30.9425 11.7501C31.3023 11.8731 31.6693 11.9388 32.0438 11.947C32.0486 11.9471 32.0534 11.9462 32.0579 11.9444C32.0624 11.9426 32.0665 11.9398 32.0698 11.9364C32.0732 11.9329 32.0759 11.9288 32.0776 11.9243C32.0793 11.9197 32.08 11.9149 32.0798 11.9101C31.9855 10.0491 31.8902 8.18847 31.7941 6.32812C31.7648 5.758 31.594 5.27021 31.2817 4.86474C31.0925 4.61923 30.7679 4.36494 30.3079 4.10185C27.9431 2.74775 25.4063 2.08359 22.6975 2.10937C20.3772 2.13164 18.1682 2.67714 16.0705 3.74589C15.4547 4.05996 15.0686 4.27529 14.9121 4.39189C14.5336 4.67548 14.26 5.03964 14.0912 5.48437C13.9922 5.74453 13.9274 6.16757 13.897 6.75351C13.8149 8.34726 13.7312 9.93837 13.6456 11.5268C13.645 11.5369 13.6465 11.547 13.65 11.5564C13.6535 11.5659 13.659 11.5745 13.666 11.5817C13.673 11.5889 13.6815 11.5945 13.6909 11.5982C13.7002 11.602 13.7103 11.6037 13.7203 11.6033C13.9143 11.5969 14.0988 11.5787 14.274 11.5488C14.4123 11.5254 14.5904 11.4762 14.8084 11.4012C15.2033 11.2646 15.5982 11.1275 15.9932 10.9898C16.4965 10.8141 16.8932 10.6846 17.1832 10.6014C19.2457 10.0107 21.3091 9.76728 23.3733 9.87099ZM13.4883 17.1598C13.5487 17.2014 13.6207 17.2218 13.6931 17.2178C14.173 17.1914 14.5945 17.1047 14.9578 16.9576C20.2699 14.8055 25.5287 14.9115 30.7342 17.2758C30.9926 17.3935 31.2314 17.4756 31.4505 17.5219C31.6122 17.5559 31.7525 17.5538 31.8715 17.5157C32.0273 17.4653 32.1445 17.3736 32.2231 17.2406C32.291 17.1252 32.3206 16.9339 32.3118 16.6667C32.2755 15.5774 32.2225 14.494 32.1527 13.4165C32.1517 13.4027 32.1457 13.3898 32.1358 13.3801C32.126 13.3704 32.1129 13.3646 32.0991 13.3638C31.3151 13.3233 30.5877 13.1563 29.9168 12.8628C29.6356 12.7397 29.4943 12.6779 29.4932 12.6773C24.8572 10.7894 20.2043 10.7824 15.5344 12.6562C14.9789 12.8789 14.3414 13.0028 13.6219 13.028C13.61 13.0284 13.5988 13.0333 13.5903 13.0416C13.5819 13.0499 13.5768 13.061 13.5762 13.0728C13.4982 14.2494 13.4347 15.4268 13.3855 16.6052C13.3855 16.6099 13.3752 16.6857 13.3547 16.8328C13.3348 16.9758 13.3793 17.0848 13.4883 17.1598ZM14.8242 21.3214C14.908 21.3864 15.0551 21.4808 15.2654 21.6044C15.8496 21.9483 16.2882 22.4434 16.5812 23.0897C16.9878 23.9856 17.4 24.8789 17.8178 25.7695C18.2701 26.7328 18.5235 27.2607 18.578 27.3533C19.2208 28.4478 20.1715 29.1703 21.4301 29.5207C21.74 29.6068 22.091 29.6616 22.483 29.6851C22.9178 29.7102 23.2749 29.7029 23.5544 29.6631C25.1107 29.441 26.2726 28.7121 27.0401 27.4764C27.1403 27.3152 27.3999 26.7902 27.8189 25.9014C28.2261 25.0371 28.633 24.1728 29.0397 23.3086C29.25 22.8615 29.429 22.5451 29.5767 22.3594C29.8081 22.0676 30.0838 21.8218 30.4037 21.622C30.7055 21.4339 30.8851 21.3105 30.9425 21.2519C31.103 21.0873 31.217 20.8954 31.2844 20.6763C31.3102 20.5942 31.3509 20.3291 31.4065 19.8809C31.4399 19.6072 31.4704 19.34 31.498 19.0793C31.5006 19.0538 31.4937 19.0281 31.4784 19.0073C31.4632 18.9866 31.4407 18.9721 31.4153 18.9668C31.1763 18.917 30.9571 18.8619 30.7579 18.8016C30.6032 18.7547 30.3943 18.67 30.1313 18.5476C27.6674 17.3991 25.0796 16.8272 22.3679 16.8319C21.7731 16.8325 21.1884 16.8653 20.6136 16.9304C19.0778 17.1038 17.5857 17.4721 16.1373 18.0351C15.5889 18.2484 14.9854 18.4365 14.3268 18.5994C14.302 18.6055 14.2799 18.6194 14.2636 18.639C14.2473 18.6586 14.2377 18.6829 14.2362 18.7084C14.1946 19.4268 14.2819 20.1395 14.4982 20.8468C14.5573 21.0401 14.666 21.1983 14.8242 21.3214Z" fill="black"/>
<path d="M26.3635 8.07097C26.3631 8.26304 26.2865 8.44711 26.1505 8.58269C26.0144 8.71827 25.8301 8.79425 25.638 8.79392L20.0569 8.78418C19.9618 8.78402 19.8677 8.76512 19.7799 8.72857C19.6921 8.69202 19.6123 8.63854 19.5452 8.57117C19.4781 8.5038 19.4249 8.42387 19.3886 8.33594C19.3524 8.24801 19.3338 8.1538 19.334 8.0587L19.3382 5.63995C19.3385 5.44787 19.4152 5.2638 19.5512 5.12822C19.6873 4.99264 19.8716 4.91666 20.0637 4.91699L25.6447 4.92673C25.7398 4.9269 25.834 4.94579 25.9218 4.98234C26.0096 5.01889 26.0893 5.07237 26.1565 5.13974C26.2236 5.20711 26.2768 5.28704 26.3131 5.37497C26.3493 5.4629 26.3679 5.55711 26.3677 5.65222L26.3635 8.07097ZM24.9611 6.37997C24.9611 6.36621 24.9556 6.35303 24.9459 6.3433C24.9362 6.33358 24.923 6.32811 24.9092 6.32811H20.7942C20.7804 6.32811 20.7673 6.33358 20.7575 6.3433C20.7478 6.35303 20.7423 6.36621 20.7423 6.37997V7.33095C20.7423 7.3447 20.7478 7.35789 20.7575 7.36761C20.7673 7.37734 20.7804 7.3828 20.7942 7.3828H24.9092C24.923 7.3828 24.9362 7.37734 24.9459 7.36761C24.9556 7.35789 24.9611 7.3447 24.9611 7.33095V6.37997Z" fill="black"/>
<path d="M42.2488 45H3.44509C3.05252 44.918 2.84187 44.6763 2.81316 44.2749C2.8073 44.1958 2.84041 44.0569 2.91248 43.8583C2.99392 43.6327 3.04138 43.4988 3.05486 43.4566C3.57224 41.8758 4.09578 40.2967 4.62547 38.7193C4.87976 37.9629 5.10125 37.4221 5.28992 37.0969C6.04168 35.806 7.19363 35.02 8.74578 34.7388C12.327 34.0901 14.6588 33.6647 15.741 33.4626C16.1517 33.3852 16.4397 33.2868 16.605 33.1673C16.8733 32.9727 17.0424 32.6965 17.1121 32.3385C17.1871 31.9517 17.2474 31.4481 17.2931 30.8276C17.3043 30.6735 17.3772 30.5399 17.512 30.4268C17.6268 30.3307 17.7578 30.2716 17.9049 30.2493C18.1779 30.2083 18.3988 30.3132 18.5676 30.564C18.6572 30.6975 18.6915 30.8514 18.6704 31.0254C18.6569 31.1391 18.6499 31.1982 18.6493 31.2029C18.6124 31.732 18.5705 32.1343 18.5236 32.4097C18.4621 32.7724 18.3426 33.1154 18.165 33.4389C18.1557 33.4562 18.1532 33.4764 18.1581 33.4954C18.163 33.5145 18.1749 33.531 18.1914 33.5417C18.7176 33.8815 19.266 34.1724 19.8367 34.4144C21.0572 34.933 22.314 35.139 23.6072 35.0323C24.1674 34.986 24.741 34.8718 25.3281 34.6895C26.1279 34.4405 26.8943 34.0951 27.6273 33.6533C27.6461 33.642 27.6598 33.6238 27.6654 33.6025C27.6709 33.5811 27.668 33.5584 27.6572 33.5391C27.3795 33.0574 27.2131 32.5345 27.158 31.9702C27.1299 31.6772 27.1017 31.3843 27.0736 31.0913C27.0396 30.7345 27.1448 30.4822 27.3891 30.3346C27.5889 30.2127 27.7964 30.1907 28.0114 30.2686C28.1755 30.3272 28.2976 30.4386 28.3779 30.6026C28.4236 30.6946 28.4573 30.8487 28.479 31.0649C28.5141 31.4165 28.5519 31.7678 28.5924 32.1187C28.6123 32.2898 28.6934 32.5101 28.8358 32.7797C28.9718 33.0381 29.1144 33.2206 29.2638 33.3272C29.4256 33.4438 29.6116 33.515 29.8219 33.5408C30.0153 33.5654 30.114 33.578 30.1181 33.5786C31.307 33.7919 32.5014 34.0037 33.7014 34.214C33.7075 34.2151 33.7136 34.2148 33.7195 34.2132C33.7254 34.2116 33.7309 34.2087 33.7356 34.2048C33.7403 34.2008 33.744 34.1959 33.7466 34.1904C33.7492 34.1849 33.7506 34.1789 33.7507 34.1727V32.5222C33.7507 32.4981 33.7443 32.4746 33.7323 32.4539C33.7202 32.4332 33.7029 32.4161 33.6821 32.4044C32.7803 31.8899 32.0886 31.1918 31.607 30.3099C31.3246 29.7932 31.1318 29.2427 31.0287 28.6585C30.8429 27.6097 30.9721 26.5951 31.4163 25.6148C31.9425 24.4529 32.79 23.5936 33.959 23.037C34.2238 22.9104 34.4462 22.865 34.626 22.9008C34.8452 22.9435 34.9987 23.0716 35.0866 23.2849C35.1335 23.3985 35.1569 23.5819 35.1569 23.835C35.1569 24.7497 35.1569 25.6884 35.1569 26.6511C35.1569 26.6676 35.1634 26.6835 35.1749 26.6952C35.1865 26.7069 35.2021 26.7135 35.2184 26.7135L37.1951 26.7187C37.2046 26.7187 37.2141 26.7168 37.2229 26.7131C37.2317 26.7094 37.2397 26.7039 37.2464 26.6971C37.2531 26.6902 37.2584 26.6821 37.2619 26.6731C37.2655 26.6641 37.2673 26.6546 37.2672 26.6449C37.2566 25.6406 37.2613 24.6644 37.2812 23.7164C37.2865 23.4633 37.331 23.2775 37.4148 23.1592C37.5273 22.9992 37.6846 22.909 37.8868 22.8885C38.0257 22.8738 38.1915 22.9093 38.3843 22.9948C38.9971 23.2667 39.5236 23.6308 39.9636 24.0873C40.9972 25.1596 41.5009 26.419 41.4745 27.8657C41.4634 28.461 41.355 29.0335 41.1493 29.5831C40.6987 30.7907 39.8895 31.735 38.7218 32.4158C38.7068 32.4243 38.6944 32.4366 38.6857 32.4515C38.6771 32.4663 38.6725 32.4831 38.6725 32.5002V35.2652C38.6725 35.3024 38.6819 35.339 38.6999 35.3715C38.7179 35.4041 38.7438 35.4317 38.7754 35.4515C39.4814 35.8933 40.0375 36.4626 40.4435 37.1593C40.6187 37.4599 40.8379 38.0015 41.101 38.7844C41.6201 40.3283 42.131 41.8749 42.6338 43.4241C42.7937 43.9181 42.876 44.1893 42.8807 44.238C42.9165 44.6112 42.7058 44.8652 42.2488 45ZM33.6803 30.6773C33.9376 30.9058 34.2188 31.0974 34.5241 31.2521C34.7661 31.3746 34.9117 31.4607 34.9609 31.5105C35.0916 31.6418 35.1569 31.8097 35.1569 32.0141C35.1569 32.7759 35.1569 33.5722 35.1569 34.403C35.1568 34.4229 35.1639 34.4421 35.1767 34.4574C35.1896 34.4727 35.2075 34.483 35.2272 34.4865L37.2083 34.8337C37.2155 34.835 37.223 34.8346 37.2302 34.8327C37.2373 34.8308 37.2439 34.8273 37.2495 34.8225C37.2552 34.8177 37.2597 34.8118 37.2627 34.805C37.2658 34.7983 37.2673 34.791 37.2672 34.7836C37.256 33.7793 37.2631 32.8049 37.2883 31.8603C37.2906 31.7642 37.3357 31.6646 37.4236 31.5615C37.4787 31.4971 37.5645 31.4379 37.6811 31.384C38.6034 30.9609 39.2725 30.3176 39.6885 29.4539C39.9464 28.9178 40.0744 28.352 40.0726 27.7567C40.0697 26.6557 39.6352 25.7016 38.7692 24.8941C38.7048 24.8338 38.6725 24.8475 38.6725 24.9354C38.6725 25.7077 38.6725 26.4677 38.6725 27.2153C38.6725 27.4983 38.6321 27.7008 38.5512 27.8226C38.4206 28.0183 38.212 28.1168 37.9255 28.118C36.8602 28.1221 35.795 28.1244 34.7298 28.125C34.4169 28.125 34.1983 28.0819 34.0741 27.9958C33.8702 27.8546 33.7697 27.6193 33.7726 27.29C33.7797 26.5283 33.7712 25.7197 33.7471 24.8642C33.746 24.8344 33.7345 24.8297 33.7129 24.8502C33.1457 25.3787 32.7549 25.979 32.5404 26.6511C32.3617 27.2118 32.3172 27.7904 32.4068 28.3869C32.541 29.2787 32.9655 30.0422 33.6803 30.6773ZM30.1946 35.0235C29.6819 34.9643 29.1988 34.8454 28.7453 34.6667C28.7322 34.6615 28.7181 34.6595 28.704 34.6609C28.6899 34.6623 28.6764 34.667 28.6644 34.6746C27.649 35.318 26.5682 35.7937 25.4221 36.1019C24.8415 36.2584 24.2658 36.3603 23.6951 36.4078C22.8719 36.4758 22.0928 36.4394 21.3581 36.2988C19.8341 36.007 18.4296 35.4202 17.1446 34.5384C17.1321 34.53 17.1178 34.5248 17.103 34.5233C17.0881 34.5218 17.0731 34.5239 17.0594 34.5296C16.5666 34.7347 16.0703 34.8618 15.5705 34.911C15.5488 34.9132 15.5286 34.9234 15.5139 34.9398C15.4991 34.9562 15.4908 34.9775 15.4905 34.9998L15.4756 37.8949C15.4754 37.9046 15.4772 37.9141 15.4809 37.9231C15.4845 37.932 15.4898 37.9402 15.4966 37.9471C15.5034 37.9539 15.5115 37.9594 15.5204 37.9631C15.5293 37.9668 15.5389 37.9687 15.5485 37.9687H30.199C30.2073 37.9687 30.2155 37.9671 30.2232 37.9639C30.2309 37.9607 30.2379 37.9561 30.2437 37.9502C30.2496 37.9443 30.2543 37.9374 30.2575 37.9297C30.2606 37.922 30.2623 37.9138 30.2623 37.9055L30.2737 35.114C30.2739 35.0918 30.2659 35.0702 30.2513 35.0535C30.2367 35.0368 30.2165 35.0261 30.1946 35.0235ZM14.0904 39.3258L14.0851 35.2591C14.0851 35.2518 14.0835 35.2446 14.0805 35.238C14.0774 35.2314 14.073 35.2256 14.0675 35.2209C14.0621 35.2163 14.0557 35.213 14.0488 35.2112C14.042 35.2095 14.0349 35.2093 14.028 35.2107L12.0232 35.5922C12.0114 35.5944 12.0007 35.601 11.993 35.6108C11.9853 35.6206 11.9811 35.6329 11.981 35.6458L11.9705 43.5331C11.9705 43.5411 11.972 43.5489 11.975 43.5563C11.978 43.5637 11.9824 43.5703 11.988 43.576C11.9935 43.5816 12.0001 43.5861 12.0074 43.5891C12.0146 43.5922 12.0224 43.5937 12.0303 43.5937H33.6997C33.719 43.5937 33.7376 43.586 33.7513 43.5721C33.7649 43.5583 33.7726 43.5395 33.7726 43.5199L33.7779 35.7047C33.7779 35.6898 33.7726 35.6755 33.763 35.6641C33.7533 35.6527 33.74 35.6449 33.7252 35.6423L31.7406 35.2881C31.7318 35.2865 31.7227 35.2869 31.7141 35.2892C31.7055 35.2915 31.6975 35.2957 31.6907 35.3014C31.6839 35.3071 31.6784 35.3142 31.6747 35.3222C31.6711 35.3303 31.6693 35.339 31.6694 35.3478L31.6844 39.2722C31.6845 39.2856 31.6819 39.299 31.6768 39.3114C31.6717 39.3239 31.6641 39.3353 31.6545 39.3448C31.645 39.3544 31.6336 39.362 31.6211 39.3671C31.6085 39.3723 31.5951 39.375 31.5815 39.375L14.1352 39.3697C14.1233 39.3697 14.1119 39.3651 14.1035 39.3568C14.0951 39.3486 14.0904 39.3374 14.0904 39.3258ZM6.84382 37.2973C6.61648 37.5556 6.43601 37.8436 6.30242 38.1612C6.15945 38.4999 6.03113 38.8441 5.91746 39.1939C5.45808 40.6119 4.98728 42.0565 4.50506 43.5278C4.50256 43.5353 4.50191 43.5433 4.50316 43.5511C4.5044 43.5589 4.50751 43.5664 4.51222 43.5728C4.51694 43.5792 4.52312 43.5845 4.53028 43.5881C4.53744 43.5918 4.54536 43.5937 4.5534 43.5937H10.4763C10.4997 43.5937 10.522 43.5846 10.5385 43.5683C10.555 43.5519 10.5642 43.5298 10.5642 43.5067L10.5695 35.9411C10.5695 35.9283 10.5666 35.9156 10.5611 35.904C10.5556 35.8924 10.5477 35.8822 10.5378 35.874C10.5278 35.8659 10.5162 35.86 10.5038 35.8569C10.4914 35.8537 10.4784 35.8534 10.4658 35.8558C10.1095 35.9273 9.75857 35.9912 9.41287 36.0474C8.89373 36.1318 8.5448 36.2051 8.36609 36.2672C7.77605 36.4705 7.26863 36.8139 6.84382 37.2973ZM35.2017 43.5313C35.2017 43.5479 35.2083 43.5638 35.22 43.5755C35.2317 43.5872 35.2476 43.5937 35.2641 43.5937L41.144 43.5885C41.1508 43.5885 41.1576 43.5869 41.1636 43.5839C41.1697 43.5808 41.175 43.5764 41.179 43.5709C41.1831 43.5654 41.1857 43.559 41.1868 43.5523C41.1879 43.5456 41.1874 43.5387 41.1853 43.5322C40.6785 41.9578 40.1637 40.4121 39.6411 38.8951C39.443 38.3185 39.2532 37.8978 39.0716 37.633C38.4997 36.7969 37.6712 36.2982 36.586 36.1371C36.136 36.0697 35.6895 35.9941 35.2466 35.9103C35.2383 35.9088 35.2297 35.909 35.2216 35.911C35.2134 35.913 35.2058 35.9168 35.1994 35.922C35.1929 35.9272 35.1877 35.9338 35.1842 35.9412C35.1806 35.9486 35.1788 35.9567 35.1789 35.9648L35.2017 43.5313Z" fill="black"/>
</svg>
