<svg width="45" height="45" viewBox="0 0 45 45" fill="none" xmlns="http://www.w3.org/2000/svg">
<path d="M19.7701 1.86855C20.5658 1.29551 21.4459 1.28965 22.4104 1.85098C22.4347 1.86499 22.4621 1.87265 22.4901 1.87327C22.5181 1.87388 22.5457 1.86742 22.5703 1.85449C23.9039 1.14785 25.0107 1.42559 25.8908 2.6877C25.9179 2.72622 25.9539 2.75767 25.9958 2.77939C26.0377 2.80111 26.0843 2.81247 26.1316 2.8125H30.0252C30.0574 2.81244 30.0891 2.80537 30.1183 2.79178C30.1475 2.7782 30.1733 2.75842 30.1941 2.73382C30.2148 2.70923 30.23 2.68041 30.2384 2.64938C30.2469 2.61834 30.2485 2.58583 30.2432 2.5541C30.1752 2.15801 30.2449 1.85215 30.4523 1.63652C30.6012 1.48301 30.8607 1.40625 31.2311 1.40625C31.7994 1.40625 32.3684 1.40625 32.9379 1.40625C33.5145 1.40625 33.8496 1.42207 33.9434 1.45371C34.3219 1.58379 34.4883 1.94824 34.4426 2.54707C34.4402 2.5797 34.4445 2.61248 34.4552 2.6434C34.4659 2.67433 34.4827 2.70275 34.5048 2.72693C34.5268 2.75111 34.5536 2.77054 34.5834 2.78405C34.6132 2.79755 34.6454 2.80484 34.6781 2.80547C35.1914 2.81602 35.7609 2.8166 36.3867 2.80723C36.9844 2.79785 37.2809 3.09258 37.2762 3.69141C37.2691 4.51172 37.2686 5.33203 37.2744 6.15234C37.2779 6.74766 36.982 7.04297 36.3867 7.03828C35.8008 7.03359 35.1949 7.03125 34.5691 7.03125C34.5384 7.03125 34.5089 7.04347 34.4871 7.06523C34.4653 7.08699 34.4531 7.1165 34.4531 7.14727V27.6451C34.4531 27.6828 34.4618 27.72 34.4785 27.7538C34.4953 27.7877 34.5197 27.8172 34.5498 27.8402C35.635 28.6734 36.4084 29.6672 36.8701 30.8215C36.8801 30.8462 36.8965 30.8677 36.9176 30.8835C36.9387 30.8994 36.9637 30.9089 36.9896 30.9111C37.5439 30.9592 37.9436 30.968 38.1885 30.9375C39.092 30.8238 39.4875 31.2193 39.375 32.124C39.3539 32.2939 39.3557 32.4996 39.3803 32.741C39.3979 32.925 39.4494 33.1219 39.535 33.3316C40.9295 36.7687 41.7809 38.8893 42.0891 39.6932C42.2543 40.1244 42.1922 40.4361 41.9027 40.6283C41.748 40.7303 41.4873 40.7812 41.1205 40.7812C40.5896 40.7812 40.0465 40.7812 39.491 40.7812C39.4602 40.7812 39.4307 40.7935 39.409 40.8152C39.3872 40.837 39.375 40.8665 39.375 40.8973V42.0715C39.375 42.1023 39.3872 42.1318 39.409 42.1535C39.4307 42.1753 39.4602 42.1875 39.491 42.1875H40.6898C40.7141 42.1875 40.7373 42.1971 40.7545 42.2143C40.7716 42.2314 40.7812 42.2547 40.7812 42.2789V43.5023C40.7812 43.5143 40.7789 43.5262 40.7743 43.5373C40.7697 43.5484 40.763 43.5585 40.7545 43.567C40.746 43.5755 40.7359 43.5822 40.7248 43.5868C40.7137 43.5914 40.7018 43.5938 40.6898 43.5938H3.63164C3.61641 43.5938 3.60132 43.5908 3.58724 43.5849C3.57317 43.5791 3.56038 43.5705 3.54961 43.5598C3.53883 43.549 3.53029 43.5362 3.52446 43.5221C3.51863 43.5081 3.51562 43.493 3.51562 43.4777V42.3035C3.51562 42.2727 3.52785 42.2432 3.54961 42.2215C3.57136 42.1997 3.60087 42.1875 3.63164 42.1875H4.76543C4.80739 42.1875 4.84763 42.1708 4.8773 42.1412C4.90697 42.1115 4.92363 42.0713 4.92363 42.0293C4.90371 39.1008 4.9125 36.2109 4.95 33.3598C4.96172 32.4316 5.05137 31.7051 5.21895 31.1801C5.64668 29.8336 6.45938 28.7186 7.65703 27.835C7.68105 27.817 7.70054 27.7936 7.71396 27.7667C7.72739 27.7399 7.73438 27.7103 7.73438 27.6803V7.14727C7.73438 7.1165 7.72215 7.08699 7.70039 7.06523C7.67864 7.04347 7.64913 7.03125 7.61836 7.03125C6.99258 7.03125 6.38672 7.03418 5.80078 7.04004C5.20195 7.0459 4.90547 6.75 4.91133 6.15234C4.91836 5.33203 4.9207 4.51172 4.91836 3.69141C4.91602 3.07969 5.2248 2.78086 5.84473 2.79492C6.41543 2.80664 6.97617 2.8125 7.52695 2.8125C7.55873 2.81244 7.5901 2.80544 7.61891 2.79197C7.64772 2.77851 7.67329 2.7589 7.69384 2.73451C7.71439 2.71011 7.72944 2.6815 7.73796 2.65066C7.74647 2.61982 7.74825 2.58748 7.74316 2.55586C7.67637 2.16211 7.74609 1.85742 7.95234 1.6418C8.10117 1.48477 8.36133 1.40625 8.73281 1.40625C9.51328 1.40625 10.2937 1.40625 11.0742 1.40625C11.7281 1.40742 12.017 1.78359 11.9408 2.53477C11.9374 2.56856 11.9411 2.60271 11.9516 2.63501C11.9621 2.66731 11.9792 2.69707 12.0019 2.72238C12.0245 2.74769 12.0522 2.76799 12.0832 2.78199C12.1141 2.796 12.1477 2.8034 12.1816 2.80371L16.1367 2.8125C16.1665 2.81243 16.196 2.80488 16.2227 2.79048C16.2493 2.77609 16.2723 2.75529 16.2896 2.72988C17.2084 1.35527 18.3199 1.07051 19.6242 1.87559C19.6461 1.88916 19.6716 1.89575 19.6976 1.8945C19.7237 1.89324 19.7489 1.88421 19.7701 1.86855ZM9.23379 27.0703L10.3992 26.768C10.4416 26.7567 10.4791 26.733 10.5059 26.7006C10.5326 26.6681 10.547 26.6288 10.5469 26.5887V2.92852C10.5469 2.91328 10.5439 2.89819 10.538 2.88412C10.5322 2.87004 10.5237 2.85725 10.5129 2.84648C10.5021 2.83571 10.4893 2.82716 10.4753 2.82133C10.4612 2.8155 10.4461 2.8125 10.4309 2.8125H9.26191C9.24599 2.8125 9.23021 2.81564 9.2155 2.82173C9.20078 2.82783 9.18741 2.83676 9.17615 2.84802C9.16489 2.85929 9.15595 2.87266 9.14986 2.88737C9.14376 2.90209 9.14062 2.91786 9.14062 2.93379V27.0035C9.14063 27.0142 9.14322 27.0246 9.14821 27.0341C9.1532 27.0436 9.16045 27.0519 9.16941 27.0583C9.17838 27.0647 9.18883 27.0691 9.19998 27.0712C9.21113 27.0733 9.22269 27.073 9.23379 27.0703ZM18.9791 3.49805C18.9791 3.31949 18.9082 3.14825 18.7819 3.02199C18.6557 2.89574 18.4844 2.8248 18.3059 2.8248H18.2566C18.0781 2.8248 17.9068 2.89574 17.7806 3.02199C17.6543 3.14825 17.5834 3.31949 17.5834 3.49805V6.34922C17.5834 6.52777 17.6543 6.69902 17.7806 6.82527C17.9068 6.95153 18.0781 7.02246 18.2566 7.02246H18.3059C18.4844 7.02246 18.6557 6.95153 18.7819 6.82527C18.9082 6.69902 18.9791 6.52777 18.9791 6.34922V3.49805ZM21.7916 3.49805C21.7916 3.31949 21.7207 3.14825 21.5944 3.02199C21.4682 2.89574 21.2969 2.8248 21.1184 2.8248H21.0691C20.8906 2.8248 20.7193 2.89574 20.5931 3.02199C20.4668 3.14825 20.3959 3.31949 20.3959 3.49805V6.3457C20.3959 6.52426 20.4668 6.6955 20.5931 6.82176C20.7193 6.94801 20.8906 7.01895 21.0691 7.01895H21.1184C21.2969 7.01895 21.4682 6.94801 21.5944 6.82176C21.7207 6.6955 21.7916 6.52426 21.7916 6.3457V3.49805ZM24.6016 3.49508C24.6013 3.31652 24.5301 3.14541 24.4036 3.01937C24.2771 2.89334 24.1058 2.8227 23.9272 2.82301L23.878 2.8231C23.6994 2.82341 23.5283 2.89464 23.4023 3.02111C23.2762 3.14759 23.2056 3.31895 23.2059 3.4975L23.2109 6.34867C23.2112 6.52723 23.2824 6.69834 23.4089 6.82438C23.5354 6.95041 23.7067 7.02105 23.8853 7.02074L23.9345 7.02065C24.1131 7.02034 24.2842 6.94911 24.4102 6.82264C24.5363 6.69616 24.6069 6.5248 24.6066 6.34625L24.6016 3.49508ZM31.7531 26.7715L32.952 27.0229C32.9634 27.0255 32.9752 27.0256 32.9866 27.0231C32.9981 27.0207 33.0087 27.0157 33.0179 27.0086C33.027 27.0015 33.0344 26.9924 33.0394 26.9821C33.0444 26.9718 33.047 26.9605 33.0469 26.949V2.92852C33.0469 2.91328 33.0439 2.89819 33.038 2.88412C33.0322 2.87004 33.0237 2.85725 33.0129 2.84648C33.0021 2.83571 32.9893 2.82716 32.9753 2.82133C32.9612 2.8155 32.9461 2.8125 32.9309 2.8125H31.7566C31.7259 2.8125 31.6964 2.82472 31.6746 2.84648C31.6528 2.86824 31.6406 2.89775 31.6406 2.92852V26.6396C31.6407 26.6704 31.6519 26.7003 31.6724 26.7244C31.6929 26.7484 31.7214 26.765 31.7531 26.7715ZM7.73228 4.32178C7.73223 4.30792 7.72946 4.29422 7.72411 4.28144C7.71877 4.26866 7.71096 4.25707 7.70113 4.24731C7.6913 4.23755 7.67965 4.22982 7.66683 4.22456C7.65402 4.21931 7.6403 4.21663 7.62645 4.21668L6.43115 4.22084C6.4173 4.22089 6.40359 4.22367 6.39082 4.22901C6.37804 4.23436 6.36644 4.24217 6.35668 4.25199C6.34692 4.26182 6.33919 4.27348 6.33394 4.28629C6.32868 4.2991 6.326 4.31283 6.32605 4.32668L6.33022 5.52197C6.33027 5.53583 6.33304 5.54953 6.33839 5.56231C6.34373 5.57509 6.35154 5.58668 6.36137 5.59644C6.3712 5.6062 6.38285 5.61393 6.39566 5.61919C6.40848 5.62444 6.4222 5.62712 6.43605 5.62707L7.63135 5.62291C7.6452 5.62286 7.65891 5.62008 7.67168 5.61474C7.68446 5.60939 7.69606 5.60158 7.70582 5.59176C7.71558 5.58193 7.72331 5.57027 7.72856 5.55746C7.73382 5.54464 7.7365 5.53092 7.73645 5.51707L7.73228 4.32178ZM16.1719 4.32422C16.1719 4.31037 16.1691 4.29665 16.1638 4.28386C16.1585 4.27106 16.1508 4.25943 16.141 4.24964C16.1312 4.23985 16.1196 4.23208 16.1068 4.22678C16.094 4.22148 16.0803 4.21875 16.0664 4.21875H12.0586C12.0306 4.21875 12.0038 4.22986 11.984 4.24964C11.9642 4.26942 11.9531 4.29625 11.9531 4.32422V5.51953C11.9531 5.5475 11.9642 5.57433 11.984 5.59411C12.0038 5.61389 12.0306 5.625 12.0586 5.625H16.0664C16.0944 5.625 16.1212 5.61389 16.141 5.59411C16.1608 5.57433 16.1719 5.5475 16.1719 5.51953V4.32422ZM30.2344 4.32422C30.2344 4.31037 30.2316 4.29665 30.2263 4.28386C30.221 4.27106 30.2133 4.25943 30.2035 4.24964C30.1937 4.23985 30.1821 4.23208 30.1693 4.22678C30.1565 4.22148 30.1428 4.21875 30.1289 4.21875H26.1211C26.0931 4.21875 26.0663 4.22986 26.0465 4.24964C26.0267 4.26942 26.0156 4.29625 26.0156 4.32422V5.51953C26.0156 5.5475 26.0267 5.57433 26.0465 5.59411C26.0663 5.61389 26.0931 5.625 26.1211 5.625H30.1289C30.1569 5.625 30.1837 5.61389 30.2035 5.59411C30.2233 5.57433 30.2344 5.5475 30.2344 5.51953V4.32422ZM35.8573 4.32178C35.8572 4.30792 35.8545 4.29422 35.8491 4.28144C35.8438 4.26866 35.836 4.25707 35.8261 4.24731C35.8163 4.23755 35.8046 4.22982 35.7918 4.22456C35.779 4.21931 35.7653 4.21663 35.7514 4.21668L34.5562 4.22084C34.5423 4.22089 34.5286 4.22367 34.5158 4.22901C34.503 4.23436 34.4914 4.24217 34.4817 4.25199C34.4719 4.26182 34.4642 4.27348 34.4589 4.28629C34.4537 4.2991 34.451 4.31283 34.4511 4.32668L34.4552 5.52197C34.4553 5.53583 34.458 5.54953 34.4634 5.56231C34.4687 5.57509 34.4765 5.58668 34.4864 5.59644C34.4962 5.6062 34.5079 5.61393 34.5207 5.61919C34.5335 5.62444 34.5472 5.62712 34.5611 5.62707L35.7563 5.62291C35.7702 5.62286 35.7839 5.62008 35.7967 5.61474C35.8095 5.60939 35.8211 5.60158 35.8308 5.59176C35.8406 5.58193 35.8483 5.57027 35.8536 5.55746C35.8588 5.54464 35.8615 5.53092 35.8615 5.51707L35.8573 4.32178ZM26.4797 14.0115C26.8781 14.5893 27.1752 15.259 27.3709 16.0207C27.3806 16.0572 27.3995 16.0906 27.4256 16.1176C27.4518 16.1447 27.4844 16.1646 27.5203 16.1754C27.9363 16.302 28.1432 16.5791 28.1408 17.0068C28.1361 17.5939 28.1291 18.1811 28.1197 18.7682C28.115 19.0623 28.0623 19.2744 27.9615 19.4045C27.8104 19.599 27.5865 19.6951 27.29 19.6928C26.9385 19.6893 26.5523 19.6875 26.1316 19.6875C26.1009 19.6875 26.0714 19.6997 26.0496 19.7215C26.0278 19.7432 26.0156 19.7727 26.0156 19.8035C26.0203 21.5719 26.0174 23.335 26.0068 25.0928C26.0057 25.3904 25.9547 25.6049 25.8539 25.7361C25.7039 25.933 25.4795 26.0309 25.1807 26.0297C22.6916 26.0203 20.202 26.0156 17.7117 26.0156C17.141 26.0156 16.8182 26.0051 16.7432 25.984C16.3623 25.8762 16.1719 25.5498 16.1719 25.0049C16.1719 23.3057 16.1719 21.5725 16.1719 19.8053C16.1719 19.7897 16.1688 19.7742 16.1629 19.7598C16.1569 19.7454 16.1482 19.7323 16.1373 19.7214C16.1263 19.7104 16.1133 19.7018 16.099 19.696C16.0848 19.6901 16.0695 19.6873 16.0541 19.6875C15.6943 19.691 15.3375 19.6898 14.9836 19.684C14.6848 19.6793 14.4703 19.6277 14.3402 19.5293C14.141 19.3805 14.0437 19.1549 14.0484 18.8525C14.0566 18.2666 14.0613 17.6801 14.0625 17.093C14.0625 16.8363 14.1076 16.643 14.1979 16.5129C14.3209 16.3359 14.4932 16.2117 14.7146 16.1402C14.7404 16.1322 14.7634 16.118 14.7816 16.0989C14.7998 16.0797 14.8125 16.0564 14.8184 16.0312C15.3141 13.9207 16.6729 12.5754 18.8947 11.9953C18.9204 11.9887 18.9431 11.9739 18.9593 11.9532C18.9755 11.9325 18.9843 11.9072 18.9844 11.8811L18.9738 8.44805C18.9738 8.43737 18.9713 8.42684 18.9667 8.41719C18.9621 8.40754 18.9553 8.399 18.947 8.39215C18.9386 8.3853 18.9288 8.3803 18.9183 8.37751C18.9078 8.37472 18.8967 8.3742 18.8859 8.37598C17.7211 8.57637 16.8738 8.16914 16.3441 7.1543C16.3313 7.13018 16.3127 7.10985 16.2902 7.09535C16.2677 7.08085 16.242 7.07269 16.2158 7.07168C14.8354 7.0084 13.4543 7.00488 12.0727 7.06113C12.0495 7.06204 12.0275 7.07226 12.0115 7.08963C11.9954 7.10701 11.9865 7.13019 11.9865 7.1543L11.9531 26.5869C11.9531 26.6191 11.9659 26.6499 11.9886 26.6727C12.0114 26.6954 12.0422 26.7082 12.0744 26.7082L30.1131 26.7188C30.1453 26.7188 30.1761 26.706 30.1988 26.6832C30.2216 26.6605 30.2344 26.6296 30.2344 26.5975V7.15254C30.2344 7.12037 30.2218 7.08952 30.1994 7.06677C30.1769 7.04403 30.1465 7.03125 30.1148 7.03125L25.9805 7.0418C25.9552 7.04183 25.9302 7.04944 25.9084 7.06375C25.8867 7.07806 25.869 7.09848 25.8574 7.12266C25.3828 8.1 24.5279 8.5166 23.2928 8.37246C23.2814 8.37122 23.27 8.37239 23.2591 8.3759C23.2483 8.3794 23.2383 8.38516 23.2298 8.3928C23.2214 8.40043 23.2146 8.40977 23.21 8.4202C23.2054 8.43063 23.2031 8.44192 23.2031 8.45332V11.8775C23.203 11.9102 23.2144 11.9418 23.2353 11.9669C23.2562 11.992 23.2853 12.0089 23.3174 12.0146C23.9654 12.1377 24.5643 12.3709 25.1139 12.7143C25.6611 13.0541 26.1164 13.4865 26.4797 14.0115ZM20.8898 8.4041C20.7656 8.37949 20.6396 8.36016 20.5119 8.34609C20.5007 8.34487 20.4894 8.34599 20.4787 8.34939C20.468 8.35279 20.4581 8.3584 20.4496 8.36584C20.4412 8.37329 20.4344 8.38241 20.4297 8.39263C20.425 8.40285 20.4224 8.41394 20.4223 8.4252C20.3859 9.89707 20.3748 11.3695 20.3889 12.8426C20.3889 12.8543 20.3836 12.9645 20.373 13.173C20.3531 13.5668 20.5031 13.8375 20.823 13.9852C20.9766 14.0566 21.1307 14.0684 21.2854 14.0203C21.4611 13.9664 21.5941 13.8645 21.6844 13.7145C21.7594 13.5891 21.7969 13.3746 21.7969 13.0711C21.7969 11.5418 21.7969 10.016 21.7969 8.49375C21.7967 8.46836 21.7905 8.44337 21.7787 8.4209C21.7668 8.39843 21.7498 8.37914 21.7289 8.36466C21.708 8.35018 21.684 8.34093 21.6588 8.3377C21.6336 8.33447 21.608 8.33735 21.5842 8.34609C21.3557 8.43047 21.1242 8.4498 20.8898 8.4041ZM24.6762 14.1258C24.2684 13.7953 23.8096 13.5785 23.2998 13.4754C23.2889 13.4731 23.2776 13.4731 23.2666 13.4754C23.2556 13.4776 23.2451 13.482 23.2358 13.4884C23.2265 13.4948 23.2185 13.503 23.2123 13.5125C23.2061 13.5221 23.2017 13.5327 23.1996 13.5439C23.0637 14.3479 22.684 14.9027 22.0605 15.2086C21.477 15.4945 20.8787 15.515 20.2658 15.2701C19.5674 14.9924 19.1414 14.417 18.9879 13.5439C18.9857 13.5329 18.9814 13.5223 18.9752 13.5129C18.969 13.5036 18.9611 13.4956 18.9518 13.4895C18.9426 13.4834 18.9323 13.4793 18.9216 13.4775C18.9109 13.4757 18.8999 13.4762 18.8895 13.4789C17.625 13.7988 16.7607 14.6273 16.2967 15.9645C16.2886 15.988 16.2862 16.0131 16.2897 16.0378C16.2933 16.0624 16.3027 16.0859 16.3171 16.1062C16.3316 16.1264 16.3507 16.143 16.3728 16.1544C16.3949 16.1659 16.4194 16.1718 16.4443 16.1719H25.8029C25.8203 16.1719 25.8375 16.1679 25.8531 16.1603C25.8688 16.1526 25.8824 16.1415 25.8931 16.1278C25.9038 16.114 25.9112 16.098 25.9148 16.081C25.9183 16.064 25.918 16.0464 25.9137 16.0295C25.7191 15.2725 25.3066 14.6379 24.6762 14.1258ZM16.168 17.6781C16.1678 17.6643 16.1648 17.6506 16.1593 17.6379C16.1538 17.6252 16.1459 17.6137 16.1359 17.604C16.126 17.5944 16.1142 17.5868 16.1013 17.5817C16.0885 17.5766 16.0747 17.5741 16.0609 17.5743L15.5687 17.582C15.5549 17.5822 15.5412 17.5852 15.5285 17.5907C15.5158 17.5962 15.5043 17.6041 15.4946 17.6141C15.485 17.624 15.4774 17.6358 15.4723 17.6487C15.4672 17.6615 15.4647 17.6753 15.4649 17.6891L15.4727 18.1813C15.4729 18.1951 15.4758 18.2088 15.4813 18.2215C15.4868 18.2342 15.4948 18.2457 15.5047 18.2554C15.5147 18.265 15.5264 18.2726 15.5393 18.2777C15.5522 18.2828 15.5659 18.2853 15.5798 18.2851L16.0719 18.2773C16.0857 18.2771 16.0994 18.2742 16.1121 18.2687C16.1248 18.2632 16.1363 18.2552 16.146 18.2453C16.1556 18.2353 16.1632 18.2236 16.1683 18.2107C16.1734 18.1978 16.1759 18.1841 16.1757 18.1702L16.168 17.6781ZM24.6094 17.6836C24.6094 17.6556 24.5983 17.6288 24.5785 17.609C24.5587 17.5892 24.5319 17.5781 24.5039 17.5781H17.6836C17.6556 17.5781 17.6288 17.5892 17.609 17.609C17.5892 17.6288 17.5781 17.6556 17.5781 17.6836V18.1758C17.5781 18.2038 17.5892 18.2306 17.609 18.2504C17.6288 18.2701 17.6556 18.2812 17.6836 18.2812H24.5039C24.5319 18.2812 24.5587 18.2701 24.5785 18.2504C24.5983 18.2306 24.6094 18.2038 24.6094 18.1758V17.6836ZM26.7148 17.6781C26.7146 17.6643 26.7117 17.6506 26.7062 17.6379C26.7007 17.6252 26.6927 17.6137 26.6828 17.604C26.6728 17.5944 26.6611 17.5868 26.6482 17.5817C26.6353 17.5766 26.6216 17.5741 26.6077 17.5743L26.1156 17.582C26.1018 17.5822 26.0881 17.5852 26.0754 17.5907C26.0627 17.5962 26.0512 17.6041 26.0415 17.6141C26.0319 17.624 26.0243 17.6358 26.0192 17.6487C26.0141 17.6615 26.0116 17.6753 26.0118 17.6891L26.0195 18.1813C26.0197 18.1951 26.0227 18.2088 26.0282 18.2215C26.0337 18.2342 26.0416 18.2457 26.0516 18.2554C26.0615 18.265 26.0733 18.2726 26.0862 18.2777C26.099 18.2828 26.1128 18.2853 26.1266 18.2851L26.6188 18.2773C26.6326 18.2771 26.6463 18.2742 26.659 18.2687C26.6717 18.2632 26.6832 18.2552 26.6929 18.2453C26.7025 18.2353 26.7101 18.2236 26.7152 18.2107C26.7203 18.1978 26.7228 18.1841 26.7226 18.1702L26.7148 17.6781ZM24.6094 19.7912C24.6094 19.7776 24.6067 19.7641 24.6015 19.7515C24.5963 19.7389 24.5886 19.7275 24.579 19.7179C24.5694 19.7082 24.5579 19.7006 24.5454 19.6954C24.5328 19.6902 24.5193 19.6875 24.5057 19.6875H17.6818C17.6682 19.6875 17.6547 19.6902 17.6421 19.6954C17.6296 19.7006 17.6181 19.7082 17.6085 19.7179C17.5989 19.7275 17.5912 19.7389 17.586 19.7515C17.5808 19.7641 17.5781 19.7776 17.5781 19.7912V24.5057C17.5781 24.5332 17.5891 24.5595 17.6085 24.579C17.628 24.5984 17.6543 24.6094 17.6818 24.6094H24.5057C24.5332 24.6094 24.5595 24.5984 24.579 24.579C24.5984 24.5595 24.6094 24.5332 24.6094 24.5057V19.7912ZM25.0822 33.5109C24.692 33.3199 24.3908 33.0305 24.1787 32.6426C23.9877 32.2957 23.9098 31.9061 23.9449 31.4736C24.0129 30.651 24.4014 30.0797 25.1104 29.7598C25.4514 29.6063 25.9793 29.5295 26.6941 29.5295C27.2332 29.5283 27.7717 29.5301 28.3096 29.5348C28.967 29.5406 29.441 29.6115 29.7316 29.7475C30.1992 29.9654 30.5496 30.3316 30.7828 30.8461C30.7933 30.8701 30.8104 30.8905 30.8319 30.9048C30.8535 30.9192 30.8785 30.9269 30.9041 30.927L35.216 30.948C35.2342 30.9482 35.2522 30.9436 35.268 30.9347C35.2839 30.9257 35.2971 30.9128 35.3064 30.8971C35.3157 30.8814 35.3206 30.8636 35.3208 30.8454C35.321 30.8272 35.3164 30.8092 35.3074 30.7934C34.6348 29.5617 33.6498 28.7461 32.3525 28.3465C31.974 28.2293 31.5147 28.1619 30.9744 28.1443C30.583 28.1314 30.1166 28.125 29.5752 28.125C23.8775 28.125 18.1805 28.125 12.484 28.125C11.1809 28.125 10.2504 28.2129 9.69258 28.3887C8.29336 28.8316 7.29258 29.7727 6.69023 31.2117C6.42539 31.8469 6.29824 32.5863 6.30879 33.4301C6.31699 34.0137 6.32109 34.3143 6.32109 34.3318C6.31875 34.8018 6.33047 35.2711 6.35625 35.7398C6.35757 35.7635 6.36786 35.7858 6.3851 35.8024C6.40234 35.819 6.42528 35.8287 6.44941 35.8295C7.85684 35.8811 8.85645 35.891 9.44824 35.8594C10.3436 35.8113 11.0156 36.0744 11.4645 36.6486C11.8875 37.1912 12.0158 37.8129 11.8494 38.5137C11.7029 39.1348 11.3314 39.5801 10.735 39.8496C10.4033 39.9996 9.88535 40.0734 9.18105 40.0711C8.27051 40.0676 7.35996 40.0799 6.44941 40.108C6.42444 40.1089 6.40079 40.1188 6.38342 40.1355C6.36605 40.1522 6.35631 40.1745 6.35625 40.1977L6.33691 42.0662C6.33668 42.0821 6.33974 42.0978 6.3459 42.1125C6.35207 42.1272 6.36123 42.1406 6.37284 42.1518C6.38445 42.1631 6.39829 42.1721 6.41355 42.1782C6.42881 42.1843 6.44518 42.1875 6.46172 42.1875L27.9861 42.177C28.0225 42.177 28.0574 42.1625 28.0831 42.1368C28.1088 42.1111 28.1232 42.0762 28.1232 42.0398L28.0934 33.873C28.0934 33.8489 28.084 33.8258 28.0673 33.8084C28.0506 33.791 28.0278 33.7808 28.0037 33.7799C27.5256 33.76 27.048 33.7471 26.5711 33.7412C25.875 33.7342 25.3787 33.6574 25.0822 33.5109ZM28.35 31.1801C28.4836 31.1215 28.5193 31.0582 28.4572 30.9902C28.4419 30.9737 28.4199 30.9604 28.3929 30.9513C28.3658 30.9422 28.3343 30.9375 28.3008 30.9375C27.6117 30.9375 26.9232 30.9375 26.2354 30.9375C25.926 30.9375 25.6869 31.0195 25.5182 31.1836C25.3436 31.3535 25.2885 31.568 25.3529 31.827C25.4396 32.1715 25.7045 32.3438 26.1475 32.3438C26.7334 32.3438 27.3457 32.3438 27.9844 32.3438C28.0056 32.3437 28.0265 32.3391 28.0458 32.3302C28.0652 32.3214 28.0824 32.3084 28.0963 32.2923C28.1103 32.2762 28.1207 32.2572 28.1269 32.2367C28.133 32.2162 28.1348 32.1945 28.132 32.1732C28.0875 31.851 28.1203 31.5574 28.2305 31.2926C28.2508 31.2452 28.2937 31.2049 28.35 31.1801ZM30.4154 33.2437L31.5018 32.8623C31.5246 32.8541 31.5498 32.855 31.5723 32.8648C31.5947 32.8746 31.6129 32.8925 31.623 32.915L31.9271 33.6129C31.9404 33.6434 31.9568 33.6702 31.9753 33.6917C31.9938 33.7132 32.0139 33.7289 32.0344 33.7377C32.1105 33.7693 32.185 33.7693 32.2576 33.7377C32.2806 33.7278 32.3002 33.71 32.3139 33.6865C32.3277 33.6631 32.335 33.635 32.335 33.6059L32.342 32.4615C32.3422 32.4461 32.3393 32.4309 32.3335 32.4166C32.3277 32.4023 32.3191 32.3893 32.3081 32.3784C32.2972 32.3674 32.2841 32.3587 32.2697 32.3528C32.2553 32.3468 32.2398 32.3438 32.2242 32.3438H29.649C29.6178 32.3438 29.5878 32.3562 29.5657 32.3782C29.5437 32.4003 29.5312 32.4303 29.5312 32.4615V33.6305C29.5312 33.6622 29.5435 33.6926 29.5652 33.715C29.587 33.7374 29.6165 33.75 29.6473 33.75L30.3135 33.743C30.3242 33.743 30.3348 33.7404 30.3445 33.7356C30.3543 33.7308 30.3629 33.7237 30.3699 33.7149C30.3769 33.7061 30.382 33.6957 30.385 33.6845C30.388 33.6733 30.3888 33.6614 30.3873 33.6498L30.3451 33.3633C30.3417 33.3379 30.3469 33.3122 30.3596 33.2905C30.3724 33.2688 30.3921 33.2523 30.4154 33.2437ZM37.9688 32.4492C37.9688 32.4212 37.9576 32.3944 37.9379 32.3746C37.9181 32.3549 37.8913 32.3438 37.8633 32.3438H33.8555C33.8275 32.3438 33.8007 32.3549 33.7809 32.3746C33.7611 32.3944 33.75 32.4212 33.75 32.4492V33.6445C33.75 33.6725 33.7611 33.6993 33.7809 33.7191C33.8007 33.7389 33.8275 33.75 33.8555 33.75H37.8633C37.8913 33.75 37.9181 33.7389 37.9379 33.7191C37.9576 33.6993 37.9688 33.6725 37.9688 33.6445V32.4492ZM33.6709 40.7707C33.4213 40.7684 33.2502 40.6541 33.1576 40.4279L31.0693 35.3162C31.0591 35.2902 31.0429 35.2673 31.0224 35.2495C31.0018 35.2317 30.9775 35.2196 30.9516 35.2143C30.5133 35.1217 30.0727 35.1152 29.6297 35.1949C29.605 35.1994 29.5827 35.2125 29.5667 35.2317C29.5506 35.251 29.5418 35.2753 29.5418 35.3004L29.5312 42.0732C29.5312 42.1007 29.5422 42.1271 29.5616 42.1466C29.5811 42.166 29.6075 42.177 29.635 42.177L37.8475 42.1559C37.8736 42.1559 37.8986 42.1464 37.9171 42.1296C37.9355 42.1128 37.9459 42.09 37.9459 42.0662V40.9025C37.9459 40.8908 37.9434 40.8791 37.9385 40.8682C37.9337 40.8574 37.9266 40.8475 37.9176 40.8391C37.9086 40.8308 37.8979 40.8242 37.8862 40.8197C37.8745 40.8152 37.8619 40.8129 37.8492 40.8129L33.6709 40.7707ZM34.2949 39.3434L37.8475 39.3469C37.8717 39.3469 37.895 39.3371 37.9121 39.3196C37.9292 39.3021 37.9389 39.2784 37.9389 39.2537V35.2775C37.9389 35.2538 37.9294 35.231 37.9126 35.2141C37.8958 35.1973 37.873 35.1879 37.8492 35.1879L32.7393 35.158C32.7178 35.1581 32.6966 35.1635 32.6777 35.1737C32.6588 35.1839 32.6427 35.1987 32.6307 35.2167C32.6188 35.2347 32.6113 35.2555 32.6091 35.2771C32.6069 35.2987 32.6099 35.3206 32.618 35.3408L34.1648 39.2502C34.1757 39.2776 34.1939 39.3011 34.2171 39.3178C34.2403 39.3344 34.2674 39.3433 34.2949 39.3434ZM40.4121 39.3117C40.0746 38.4996 39.7646 37.691 39.4822 36.8859C39.4729 36.8578 39.4588 36.8408 39.44 36.835C39.4336 36.8327 39.4268 36.8325 39.4201 36.8343C39.4134 36.8361 39.407 36.84 39.4015 36.8455C39.396 36.851 39.3915 36.858 39.3885 36.8659C39.3854 36.8739 39.3838 36.8826 39.3838 36.8912L39.4031 39.2555C39.4036 39.2822 39.4134 39.3076 39.4305 39.3263C39.4476 39.3451 39.4706 39.3556 39.4945 39.3557L40.3928 39.3434C40.3964 39.3431 40.3999 39.342 40.403 39.3401C40.4061 39.3382 40.4087 39.3356 40.4105 39.3325C40.4124 39.3294 40.4136 39.3259 40.4138 39.3223C40.4141 39.3187 40.4135 39.3151 40.4121 39.3117ZM10.4537 38.2693C10.6061 37.926 10.5621 37.6547 10.3219 37.4555C10.1789 37.3359 9.95332 37.275 9.64512 37.2727C8.58223 37.2633 7.51465 37.2609 6.44238 37.2656C6.41208 37.2656 6.38302 37.2778 6.36159 37.2996C6.34016 37.3214 6.32812 37.3509 6.32812 37.3816V38.5541C6.32812 38.5853 6.34053 38.6153 6.36262 38.6374C6.38471 38.6595 6.41466 38.6719 6.4459 38.6719H9.83496C10.1279 38.6719 10.3342 38.5377 10.4537 38.2693Z" fill="black"/>
<path d="M18.2473 31.7338C18.2473 32.2634 18.0369 32.7713 17.6624 33.1458C17.2879 33.5203 16.78 33.7307 16.2504 33.7307H11.1668C10.6372 33.7307 10.1293 33.5203 9.75479 33.1458C9.38031 32.7713 9.16992 32.2634 9.16992 31.7338V31.5475C9.16992 31.0179 9.38031 30.51 9.75479 30.1355C10.1293 29.761 10.6372 29.5506 11.1668 29.5506H16.2504C16.78 29.5506 17.2879 29.761 17.6624 30.1355C18.0369 30.51 18.2473 31.0179 18.2473 31.5475V31.7338ZM16.8639 31.6231C16.8639 31.4422 16.792 31.2687 16.6641 31.1408C16.5362 31.0129 16.3627 30.941 16.1818 30.941H11.2389C11.058 30.941 10.8845 31.0129 10.7566 31.1408C10.6287 31.2687 10.5568 31.4422 10.5568 31.6231V31.6582C10.5568 31.8391 10.6287 32.0126 10.7566 32.1405C10.8845 32.2684 11.058 32.3402 11.2389 32.3402H16.1818C16.3627 32.3402 16.5362 32.2684 16.6641 32.1405C16.792 32.0126 16.8639 31.8391 16.8639 31.6582V31.6231Z" fill="black"/>
<path d="M23.1887 31.6389C23.1887 32.1946 22.9679 32.7276 22.575 33.1205C22.182 33.5134 21.6491 33.7342 21.0934 33.7342C20.5376 33.7342 20.0047 33.5134 19.6117 33.1205C19.2188 32.7276 18.998 32.1946 18.998 31.6389C18.998 31.3637 19.0522 31.0913 19.1575 30.8371C19.2628 30.5828 19.4172 30.3518 19.6117 30.1573C19.8063 29.9627 20.0373 29.8084 20.2915 29.7031C20.5457 29.5978 20.8182 29.5436 21.0934 29.5436C21.6491 29.5436 22.182 29.7643 22.575 30.1573C22.9679 30.5502 23.1887 31.0832 23.1887 31.6389ZM21.7877 31.6389C21.7877 31.5477 21.7697 31.4574 21.7348 31.3732C21.6999 31.2889 21.6488 31.2124 21.5843 31.1479C21.5199 31.0834 21.4433 31.0323 21.3591 30.9974C21.2748 30.9625 21.1845 30.9446 21.0934 30.9446C21.0022 30.9446 20.9119 30.9625 20.8276 30.9974C20.7434 31.0323 20.6669 31.0834 20.6024 31.1479C20.5379 31.2124 20.4868 31.2889 20.4519 31.3732C20.417 31.4574 20.399 31.5477 20.399 31.6389C20.399 31.823 20.4722 31.9996 20.6024 32.1299C20.7326 32.2601 20.9092 32.3332 21.0934 32.3332C21.2775 32.3332 21.4541 32.2601 21.5843 32.1299C21.7145 31.9996 21.7877 31.823 21.7877 31.6389Z" fill="black"/>
<path d="M16.8605 37.967C16.8605 38.5227 16.6398 39.0557 16.2468 39.4486C15.8539 39.8416 15.3209 40.0623 14.7652 40.0623C14.4901 40.0623 14.2176 40.0081 13.9634 39.9028C13.7092 39.7975 13.4782 39.6432 13.2836 39.4486C13.0891 39.2541 12.9347 39.0231 12.8294 38.7689C12.7241 38.5146 12.6699 38.2422 12.6699 37.967C12.6699 37.6919 12.7241 37.4194 12.8294 37.1652C12.9347 36.911 13.0891 36.68 13.2836 36.4854C13.4782 36.2908 13.7092 36.1365 13.9634 36.0312C14.2176 35.9259 14.4901 35.8717 14.7652 35.8717C15.3209 35.8717 15.8539 36.0925 16.2468 36.4854C16.6398 36.8784 16.8605 37.4113 16.8605 37.967ZM15.4596 37.967C15.4596 37.7829 15.3864 37.6063 15.2562 37.476C15.126 37.3458 14.9494 37.2727 14.7652 37.2727C14.5811 37.2727 14.4045 37.3458 14.2743 37.476C14.1441 37.6063 14.0709 37.7829 14.0709 37.967C14.0709 38.1512 14.1441 38.3278 14.2743 38.458C14.4045 38.5882 14.5811 38.6614 14.7652 38.6614C14.9494 38.6614 15.126 38.5882 15.2562 38.458C15.3864 38.3278 15.4596 38.1512 15.4596 37.967Z" fill="black"/>
<path d="M26.6883 38.0637C26.6883 38.5933 26.4779 39.1012 26.1034 39.4757C25.7289 39.8502 25.221 40.0605 24.6914 40.0605H19.6043C19.0747 40.0605 18.5668 39.8502 18.1923 39.4757C17.8178 39.1012 17.6074 38.5933 17.6074 38.0637V37.8738C17.6074 37.6116 17.6591 37.3519 17.7594 37.1097C17.8598 36.8674 18.0069 36.6472 18.1923 36.4618C18.3777 36.2764 18.5979 36.1293 18.8401 36.029C19.0824 35.9286 19.3421 35.877 19.6043 35.877H24.6914C24.9536 35.877 25.2133 35.9286 25.4556 36.029C25.6979 36.1293 25.918 36.2764 26.1034 36.4618C26.2888 36.6472 26.4359 36.8674 26.5363 37.1097C26.6366 37.3519 26.6883 37.6116 26.6883 37.8738V38.0637ZM25.2979 37.9512C25.2979 37.7703 25.226 37.5968 25.0981 37.4689C24.9702 37.341 24.7967 37.2691 24.6158 37.2691H19.6764C19.4955 37.2691 19.322 37.341 19.1941 37.4689C19.0662 37.5968 18.9943 37.7703 18.9943 37.9512V37.9863C18.9943 38.1672 19.0662 38.3407 19.1941 38.4686C19.322 38.5965 19.4955 38.6684 19.6764 38.6684H24.6158C24.7967 38.6684 24.9702 38.5965 25.0981 38.4686C25.226 38.3407 25.2979 38.1672 25.2979 37.9863V37.9512Z" fill="black"/>
</svg>
