<svg width="45" height="45" viewBox="0 0 45 45" fill="none" xmlns="http://www.w3.org/2000/svg">
<g clip-path="url(#clip0_731_510)">
<path d="M11.9203 4.95525C12.3821 5.34783 12.8754 5.63318 13.4004 5.81131C14.3391 6.13123 15.2496 6.31873 16.1321 6.37381C16.2604 6.38084 16.35 6.50388 16.3166 6.62869C16.0307 7.69861 15.4899 8.50896 14.6942 9.05974C13.9688 9.56131 13.1549 9.79627 12.2526 9.76463C11.3151 9.73181 10.4866 9.3738 9.76702 8.6906C9.08031 8.03787 8.68714 7.26091 8.58753 6.35974C8.49144 5.49373 8.65199 4.68806 9.06917 3.94275C9.36331 3.41423 9.76585 2.97595 10.2768 2.62791C10.7643 2.29509 11.3022 2.0865 11.8905 2.00213C13.0401 1.83572 14.1211 2.15623 15.1336 2.96365C15.225 3.03572 15.3375 3.07615 15.4535 3.07615C16.3746 3.07849 17.2442 3.19568 18.0621 3.42771C18.2625 3.48396 18.4705 3.58005 18.6862 3.71599C18.9264 3.86716 19.0729 4.01834 19.1256 4.16951C19.21 4.40857 19.0969 4.63709 18.7864 4.85506C18.6293 4.96638 18.4594 5.05369 18.2766 5.11697C16.7098 5.65838 15.0416 5.72517 13.2721 5.31736C12.7037 5.18611 12.2461 4.97459 11.8993 4.68279C11.8453 4.63826 11.8131 4.64705 11.8026 4.70916C11.7897 4.7947 11.8289 4.87673 11.9203 4.95525Z" fill="black"/>
<path d="M17.151 15.2613L17.1721 24.2015C17.1733 24.3152 17.1475 24.334 17.0948 24.2578C17.0807 24.2379 17.0772 24.208 17.0842 24.1682C17.0901 24.1342 17.0913 24.1055 17.0878 24.082C16.6928 21.5473 16.2967 19.0137 15.8995 16.4812C15.8256 16.0148 15.7917 15.5455 15.7975 15.0732C15.8128 13.6963 15.8204 12.3058 15.8204 10.9019C15.8204 10.8035 15.9083 10.7279 16.0049 10.7437C17.5471 11.0016 18.6874 11.8435 19.4256 13.2697C20.1229 14.6162 20.5776 16.043 20.7897 17.55C21.1401 20.0402 21.2532 22.541 21.129 25.0523C21.0903 25.8258 21.0669 26.2342 21.0587 26.2775C20.9614 26.7838 20.6842 27.1224 20.2272 27.2935C19.721 27.4822 19.2622 27.4242 18.8508 27.1195C18.5321 26.8851 18.3522 26.5512 18.3112 26.1176C18.3077 26.0859 18.3206 25.7244 18.3499 25.033C18.46 22.4537 18.3932 20.291 18.1495 18.5449C18.0018 17.4867 17.7346 16.4062 17.3479 15.3035C17.3233 15.2344 17.2864 15.1916 17.2372 15.1752C17.195 15.1611 17.151 15.2051 17.151 15.2613Z" fill="black"/>
<path d="M1.26863 30.5614C1.16902 30.5543 1.08816 30.6076 1.02605 30.7213C0.980348 30.8057 0.867848 30.8215 0.802809 30.753L0.113746 30.0182C0.0487073 29.9496 0.0574964 29.8354 0.13484 29.7633L0.370387 29.5436C0.407301 29.5084 0.426637 29.4522 0.423121 29.3889C0.386793 28.8463 0.318825 28.3078 0.219215 27.7735C0.164137 27.4793 0.28777 27.2666 0.590114 27.1354C0.637575 27.116 0.693825 27.1266 0.732496 27.1653L1.70632 28.1391C1.74324 28.176 1.79949 28.1778 1.83289 28.1461L3.75242 26.325C3.84207 26.2407 3.88777 26.1141 3.87722 25.9823C3.64636 22.9424 3.76882 19.9664 4.24461 17.0543C4.49656 15.5168 4.97468 14.1569 5.67898 12.9744C5.97664 12.4752 6.42781 11.9901 7.0325 11.519C7.61375 11.0678 8.27117 10.817 9.00476 10.7666C9.07859 10.7614 9.14011 10.8194 9.14011 10.8932C9.14011 12.1951 9.14011 13.4619 9.14011 14.6936C9.14011 15.4424 9.08152 16.1889 8.96433 16.933C8.60105 19.2416 8.2325 21.6364 7.85867 24.1172C7.84109 24.2262 7.7866 24.3264 7.70222 24.402L6.90242 25.1157C6.74187 25.2575 6.65574 25.4379 6.64402 25.6571C6.57254 27.0375 5.92742 27.5924 4.70867 27.3217C4.65418 27.3094 4.59968 27.3235 4.56101 27.3604L2.7364 29.0795C2.68718 29.127 2.68543 29.2043 2.73289 29.2553L3.65047 30.2256C3.7032 30.2801 3.7032 30.3645 3.65222 30.4119L2.44461 31.544C2.40769 31.5774 2.34793 31.5756 2.30398 31.5387C2.0075 31.2785 1.73152 30.9979 1.47605 30.6967C1.40457 30.6112 1.33543 30.566 1.26863 30.5614ZM7.20828 23.3051C7.31843 23.3942 7.4157 23.5237 7.50007 23.6936C7.55515 23.8037 7.61316 23.8371 7.6741 23.7938C7.71101 23.7692 7.73386 23.7112 7.73562 23.6426C7.78484 20.9473 7.7989 18.252 7.77781 15.5567C7.77781 15.5344 7.78425 15.4764 7.79714 15.3826C7.81004 15.2795 7.77781 15.2227 7.70047 15.2121C7.653 15.2069 7.60379 15.242 7.58445 15.3C7.00086 17.0649 6.6698 19.0987 6.59129 21.4014C6.56199 22.2815 6.54734 22.8739 6.54734 23.1785C6.54617 23.1973 6.54265 23.2729 6.53679 23.4053C6.5239 23.6912 6.63933 23.6707 6.88308 23.3438C6.96043 23.2401 7.10808 23.2225 7.20828 23.3051Z" fill="black"/>
<path d="M14.8412 10.7648H10.1197C10.0644 10.7648 10.0195 10.8097 10.0195 10.865V15.808C10.0195 15.8633 10.0644 15.9082 10.1197 15.9082H14.8412C14.8965 15.9082 14.9414 15.8633 14.9414 15.808V10.865C14.9414 10.8097 14.8965 10.7648 14.8412 10.7648Z" fill="black"/>
<path d="M45.0006 29.9812C45.0006 30.143 45.0006 30.3041 45.0006 30.4646C43.8533 30.4869 40.2791 30.498 34.2779 30.498C29.0947 30.498 23.9121 30.498 18.7301 30.498C18.4934 30.498 18.3715 30.4969 18.3645 30.4945C18.2379 30.4477 18.2051 30.2889 18.266 30.0182C18.2836 29.9426 18.3574 29.8969 18.433 29.9127C18.7787 29.9877 18.9328 29.8734 18.8953 29.5699C18.8742 29.3977 18.8613 29.2242 18.8567 29.0496C18.8555 29.0391 18.8461 28.9213 18.8285 28.6963C18.7992 28.3447 18.9545 28.2609 19.2944 28.4449C19.3401 28.4695 19.3699 28.5188 19.3699 28.5732L19.391 29.7826C19.3928 29.8635 19.4578 29.9268 19.5387 29.9285L30.9768 29.9584C31.1016 29.9602 31.2018 29.86 31.2018 29.7352V19.415C31.2018 19.3189 31.1678 19.3037 31.0998 19.3693L29.8922 20.5383C29.7516 20.6742 29.5893 20.7422 29.4053 20.7422H22.367C22.2475 20.7422 22.1508 20.6473 22.1473 20.5295C22.0992 18.8982 21.8725 17.2799 21.467 15.6744C21.4166 15.4729 21.4612 15.3035 21.6006 15.1664L24.5572 12.2854C24.5942 12.2484 24.6487 12.2273 24.7102 12.2273L37.0465 12.2168C37.1449 12.2168 37.2399 12.2555 37.3102 12.3258L44.7071 19.7016C44.7668 19.7613 44.7756 19.8545 44.7264 19.923C44.526 20.2031 44.3367 20.3906 44.1586 20.4855C44.1112 20.5102 44.0531 20.5014 44.0145 20.4627L42.5537 19.0178C42.5069 18.9709 42.4828 18.9809 42.4817 19.0477L42.4641 29.7264C42.4641 29.8424 42.559 29.9355 42.675 29.932C43.4942 29.9016 44.2694 29.918 45.0006 29.9812ZM41.8489 18.3656L37.0852 13.5545C37.0342 13.5018 36.9481 13.5018 36.8953 13.5545L31.8029 18.668C31.7625 18.7084 31.7397 18.7629 31.7397 18.8209L31.7291 29.8107C31.7291 29.874 31.7819 29.9268 31.8451 29.9268H34.5381C34.6611 29.9268 34.7613 29.8266 34.7613 29.7035V23.2787C34.7613 23.1891 34.8334 23.1152 34.9231 23.117L39.7377 23.1469C39.7869 23.1469 39.8256 23.1873 39.8256 23.2365L39.8467 29.8055C39.8467 29.8564 39.8854 29.8986 39.9346 29.8986L41.7856 29.9197C41.8858 29.9215 41.9684 29.8336 41.9684 29.7264V18.6627C41.9684 18.5502 41.9262 18.443 41.8489 18.3656ZM39.3035 23.7551C39.3035 23.6936 39.2526 23.6426 39.191 23.6426H35.3977C35.3362 23.6426 35.2852 23.6936 35.2852 23.7551V29.8195C35.2852 29.8811 35.3362 29.932 35.3977 29.932H39.191C39.2526 29.932 39.3035 29.8811 39.3035 29.8195V23.7551Z" fill="black"/>
<path d="M10.1975 17.5289C10.4683 17.5289 10.6879 17.3093 10.6879 17.0385C10.6879 16.7676 10.4683 16.548 10.1975 16.548C9.9266 16.548 9.70703 16.7676 9.70703 17.0385C9.70703 17.3093 9.9266 17.5289 10.1975 17.5289Z" fill="black"/>
<path d="M14.7543 17.5236C15.0242 17.5236 15.243 17.3048 15.243 17.0349C15.243 16.7651 15.0242 16.5463 14.7543 16.5463C14.4844 16.5463 14.2656 16.7651 14.2656 17.0349C14.2656 17.3048 14.4844 17.5236 14.7543 17.5236Z" fill="black"/>
<path d="M10.4264 26.6503C10.8752 26.6889 11.3744 26.7124 11.924 26.7206C12.0137 26.7223 12.084 26.7944 12.084 26.884C12.084 31.5493 12.0846 36.2256 12.0857 40.9131C12.0869 41.7768 11.7752 42.4325 11.1506 42.8801C10.7791 43.145 10.3607 43.2692 9.89551 43.2528C9.4584 43.2376 9.0623 43.111 8.70723 42.8731C8.34512 42.6305 8.08496 42.3047 7.92676 41.8958C7.82715 41.638 7.77734 41.2401 7.77734 40.7022C7.77734 35.9092 7.77734 31.1239 7.77734 26.3462C7.77734 26.311 7.81074 26.2829 7.8459 26.2899C8.74004 26.4575 9.6002 26.5776 10.4264 26.6503Z" fill="black"/>
<path d="M13.7043 42.7659C13.1477 42.3182 12.8699 41.7299 12.8711 41.001C12.8746 36.3581 12.8764 31.6436 12.8764 26.8577C12.8764 26.7838 12.9361 26.7241 13.01 26.7223C14.4584 26.6989 15.8178 26.5518 17.0881 26.2811C17.1373 26.2706 17.183 26.3075 17.183 26.3584C17.183 31.0225 17.183 35.6579 17.183 40.2645C17.183 41.0977 17.1209 41.6678 16.9967 41.9749C16.7529 42.5807 16.2842 42.985 15.5904 43.1877C14.9236 43.3823 14.2949 43.2416 13.7043 42.7659Z" fill="black"/>
</g>
<defs>
<clipPath id="clip0_731_510">
<rect width="45" height="45" fill="white"/>
</clipPath>
</defs>
</svg>
