<svg width="45" height="45" viewBox="0 0 45 45" fill="none" xmlns="http://www.w3.org/2000/svg">
<path d="M19.2541 11.9777L20.5057 10.6769C20.5214 10.6607 20.5408 10.6484 20.5622 10.6409C20.5837 10.6335 20.6067 10.6311 20.6296 10.634C20.6524 10.6369 20.6745 10.6449 20.6942 10.6575C20.7138 10.6701 20.7305 10.687 20.743 10.7068C21.207 11.4433 22.0912 11.0039 22.3408 10.3517C22.4228 10.1396 22.516 10.1344 22.6203 10.3359C22.9578 10.9845 23.784 11.4908 24.3025 10.6646C24.3084 10.6556 24.3161 10.6479 24.3252 10.6421C24.3342 10.6362 24.3445 10.6324 24.3552 10.6307C24.366 10.6291 24.377 10.6297 24.3876 10.6325C24.3982 10.6353 24.4081 10.6402 24.4168 10.647C24.8516 10.9974 25.2775 11.4293 25.6947 11.9426C25.7165 11.969 25.7276 12.0026 25.726 12.037C25.7244 12.0713 25.7101 12.1041 25.6859 12.1289C24.3975 13.4297 25.3115 14.1275 26.0955 15.1787C26.1121 15.2009 26.122 15.227 26.1238 15.2534C26.1257 15.2797 26.1195 15.3052 26.1061 15.3263L25.2676 16.6166C25.2542 16.6375 25.2337 16.6534 25.209 16.6619C25.1844 16.6704 25.1568 16.6712 25.1305 16.664C24.3289 16.4554 23.7535 16.7332 23.4043 17.4972C23.3871 17.5353 23.3604 17.5684 23.3265 17.5934C23.2927 17.6183 23.2529 17.6342 23.2109 17.6396C22.741 17.697 22.2582 17.6918 21.7625 17.6238C21.7372 17.62 21.713 17.6095 21.6921 17.5932C21.6713 17.577 21.6544 17.5555 21.643 17.5306C21.2996 16.7642 20.7096 16.4765 19.8729 16.6676C19.8456 16.6737 19.8176 16.6723 19.7928 16.6635C19.7679 16.6547 19.7474 16.639 19.734 16.6183L18.8955 15.2912C18.8782 15.2637 18.8716 15.2305 18.8767 15.1971C18.8818 15.1638 18.8984 15.1325 18.9236 15.1084C19.8201 14.2435 20.5197 13.1256 19.2664 12.1166C19.256 12.1082 19.2474 12.0979 19.2411 12.0862C19.2348 12.0745 19.231 12.0618 19.2298 12.0487C19.2286 12.0357 19.2302 12.0226 19.2344 12.0104C19.2386 11.9982 19.2453 11.9871 19.2541 11.9777ZM24.6365 15.5619C24.8896 15.5431 24.9418 15.4312 24.793 15.2262C24.0969 14.2664 23.7014 13.3031 24.3588 12.1816C24.4572 12.0129 24.4121 11.9549 24.2234 12.0076C23.7488 12.1388 23.2215 12.089 22.6414 11.8582C22.5501 11.8221 22.4486 11.8227 22.3584 11.8599C21.7912 12.0931 21.2633 12.1418 20.7746 12.0058C20.5801 11.9519 20.5361 12.0105 20.6428 12.1816C21.2967 13.2345 20.91 14.3789 20.1699 15.2508C20.0012 15.45 20.0469 15.5519 20.307 15.5566C21.0605 15.5695 21.6746 15.8707 22.1492 16.4601C22.393 16.7625 22.6285 16.756 22.8559 16.4408C23.2332 15.9135 23.8268 15.6205 24.6365 15.5619Z" fill="black"/>
<path d="M8.40488 20.1604H16.2939C16.3178 20.1603 16.3411 20.1518 16.36 20.1362C16.3788 20.1205 16.3921 20.0987 16.3977 20.0742C16.8107 18.2742 18.2205 18.7383 19.6145 18.6662C21.657 18.5608 23.9141 18.6311 25.8775 18.6627C27.391 18.6873 28.1838 18.5344 28.6004 20.0883C28.6069 20.1121 28.621 20.133 28.6403 20.1479C28.6597 20.1629 28.6834 20.1709 28.7076 20.1709H36.5439C36.5836 20.1709 36.6216 20.1552 36.6496 20.1272C36.6776 20.0991 36.6934 20.0611 36.6934 20.0215V18.2654C36.6934 18.2347 36.6811 18.2052 36.6594 18.1834C36.6376 18.1617 36.6081 18.1494 36.5773 18.1494H29.7289C29.6905 18.1494 29.6537 18.1349 29.6264 18.1089C29.599 18.0829 29.5835 18.0476 29.583 18.0106L29.5777 17.2459C29.5775 17.2319 29.5801 17.218 29.5855 17.205C29.5909 17.192 29.5989 17.1802 29.609 17.1702C29.6192 17.1602 29.6313 17.1523 29.6446 17.1469C29.6579 17.1415 29.6723 17.1387 29.6867 17.1387L31.5025 17.151C31.5205 17.1512 31.5383 17.1479 31.5549 17.1413C31.5715 17.1347 31.5866 17.1249 31.5994 17.1125C31.6121 17.1001 31.6223 17.0853 31.6292 17.0689C31.6361 17.0526 31.6397 17.0351 31.6396 17.0174V14.7867C31.6396 14.7664 31.6356 14.7463 31.6276 14.7275C31.6197 14.7088 31.608 14.6917 31.5933 14.6774C31.5786 14.663 31.5612 14.6516 31.542 14.6438C31.5228 14.636 31.5022 14.632 31.4814 14.632L27.1906 14.6039C27.1635 14.6035 27.1376 14.5938 27.1185 14.577C27.0995 14.5603 27.0888 14.5377 27.0887 14.5143V13.7004C27.0887 13.6769 27.0993 13.6544 27.118 13.6376C27.1367 13.6209 27.1622 13.6112 27.1889 13.6108C28.8037 13.5744 30.4186 13.5633 32.0334 13.5774C32.7014 13.5844 32.6434 13.5352 32.6521 14.1979C32.665 15.16 32.6539 16.1139 32.6188 17.0596C32.6183 17.0714 32.6202 17.0832 32.6244 17.0943C32.6286 17.1054 32.635 17.1155 32.6432 17.124C32.6514 17.1326 32.6613 17.1393 32.6722 17.144C32.6831 17.1486 32.6948 17.151 32.7066 17.151L37.5477 17.1387C37.5688 17.1387 37.5898 17.1429 37.6093 17.1512C37.6288 17.1594 37.6465 17.1715 37.6614 17.1867C37.6763 17.2019 37.688 17.2199 37.6959 17.2397C37.7039 17.2596 37.7079 17.2808 37.7076 17.3022C37.683 18.5678 37.5283 20.1533 37.9449 21.3223C38.1822 21.9885 38.3668 22.6811 38.6199 23.3402C38.7465 23.6707 38.6492 23.949 38.3281 24.1752C38.2983 24.1964 38.2739 24.2247 38.2571 24.2577C38.2403 24.2907 38.2315 24.3275 38.2314 24.3651L38.1998 31.6301C38.1998 31.6601 38.2058 31.6889 38.2174 31.7143C38.229 31.7397 38.2459 31.7608 38.2666 31.776C38.3662 31.8486 38.4834 31.8826 38.6182 31.8779C38.6294 31.8777 38.6406 31.8796 38.651 31.8836C38.6615 31.8875 38.671 31.8935 38.679 31.901C38.687 31.9085 38.6934 31.9175 38.6977 31.9274C38.7021 31.9374 38.7043 31.948 38.7043 31.9588L38.7148 34.7344C38.7148 34.7763 38.698 34.8166 38.668 34.8463C38.638 34.8759 38.5973 34.8926 38.5549 34.8926H6.40449C6.37232 34.8926 6.34147 34.8798 6.31873 34.8571C6.29598 34.8343 6.2832 34.8035 6.2832 34.7713V31.9922C6.28312 31.967 6.28873 31.9422 6.29961 31.9195C6.31048 31.8967 6.32636 31.8767 6.34608 31.8609C6.3658 31.8451 6.38885 31.8338 6.41356 31.8279C6.43826 31.822 6.46399 31.8217 6.48887 31.827C6.94414 31.9236 6.7666 31.5774 6.7666 31.377C6.7666 29.1059 6.7666 26.8354 6.7666 24.5654C6.7666 24.4506 6.68223 24.286 6.51348 24.0715C6.20234 23.6742 6.35352 23.4352 6.48887 23.0238C6.7666 22.1906 7.3502 20.8934 7.3291 20.0373C7.30567 19.101 7.29395 18.1863 7.29395 17.2934C7.29395 17.2523 7.31024 17.213 7.33925 17.184C7.36826 17.155 7.40761 17.1387 7.44863 17.1387H12.2492C12.2753 17.1387 12.3004 17.1283 12.3188 17.1099C12.3373 17.0914 12.3477 17.0664 12.3477 17.0403V13.7567C12.3477 13.7124 12.3653 13.6699 12.3966 13.6386C12.4279 13.6073 12.4704 13.5897 12.5146 13.5897L17.8127 13.5791C17.8435 13.5791 17.873 13.5913 17.8947 13.6131C17.9165 13.6349 17.9287 13.6644 17.9287 13.6951V14.4738C17.9287 14.5163 17.9119 14.557 17.8819 14.587C17.8519 14.617 17.8112 14.6338 17.7688 14.6338H13.5271C13.5021 14.6336 13.4779 14.6427 13.4591 14.6592C13.4403 14.6757 13.4282 14.6986 13.4252 14.7235C13.3361 15.5637 13.3291 16.3365 13.4041 17.042C13.4067 17.0662 13.418 17.0886 13.4359 17.1048C13.4537 17.1211 13.4769 17.13 13.5008 17.1299L15.2217 17.1369C15.2466 17.137 15.2713 17.1415 15.2942 17.1503C15.3172 17.159 15.338 17.1718 15.3553 17.1879C15.3727 17.2039 15.3863 17.223 15.3954 17.2438C15.4044 17.2646 15.4087 17.2869 15.408 17.3092L15.3869 18.0527C15.3864 18.0758 15.3751 18.0977 15.3554 18.1139C15.3357 18.13 15.3091 18.139 15.2814 18.1389L8.44356 18.1494C8.4254 18.1494 8.40743 18.153 8.39068 18.1599C8.37393 18.1668 8.35873 18.1769 8.34598 18.1897C8.33322 18.2025 8.32316 18.2176 8.31637 18.2342C8.30959 18.2508 8.30621 18.2686 8.30645 18.2865L8.31348 20.0707C8.31348 20.0945 8.32311 20.1173 8.34025 20.1341C8.35739 20.1509 8.38064 20.1604 8.40488 20.1604ZM27.5474 20.1744C27.5472 20.0429 27.4948 19.9169 27.4016 19.8241C27.3085 19.7313 27.1823 19.6793 27.0509 19.6796L17.9384 19.6955C17.8733 19.6956 17.8088 19.7085 17.7487 19.7335C17.6887 19.7585 17.6341 19.7952 17.5881 19.8413C17.5422 19.8874 17.5058 19.9421 17.481 20.0023C17.4561 20.0625 17.4434 20.1269 17.4436 20.192L17.4436 20.2096C17.4438 20.3411 17.4963 20.4671 17.5894 20.5599C17.6825 20.6527 17.8087 20.7047 17.9401 20.7044L27.0526 20.6886C27.1177 20.6884 27.1822 20.6755 27.2423 20.6505C27.3024 20.6255 27.3569 20.5889 27.4029 20.5427C27.4488 20.4966 27.4853 20.4419 27.5101 20.3817C27.5349 20.3216 27.5476 20.2571 27.5475 20.192L27.5474 20.1744ZM18.1643 21.7002C17.5719 21.6967 17.3012 21.5719 16.8266 21.2695C16.7371 21.2122 16.6321 21.1817 16.5242 21.1817H8.33984C8.2984 21.1817 8.25815 21.1942 8.22473 21.2176C8.19132 21.2409 8.16641 21.2738 8.15352 21.3117L7.53125 23.1117C7.52621 23.1257 7.52473 23.1407 7.52693 23.1555C7.52913 23.1702 7.53495 23.1843 7.5439 23.1965C7.55284 23.2087 7.56466 23.2187 7.57836 23.2257C7.59206 23.2327 7.60725 23.2364 7.62266 23.2365L37.3543 23.2471C37.3741 23.2471 37.3937 23.2424 37.4113 23.2332C37.4289 23.2241 37.4441 23.2108 37.4557 23.1944C37.4672 23.1781 37.4747 23.1592 37.4775 23.1393C37.4804 23.1195 37.4785 23.0991 37.4721 23.0801L36.8691 21.3135C36.8557 21.275 36.831 21.2416 36.7986 21.2179C36.7661 21.1943 36.7275 21.1816 36.6881 21.1817H28.4352C28.3367 21.1817 28.2404 21.2117 28.1592 21.2678C27.7279 21.5654 27.3207 21.7143 26.9375 21.7143C24.0137 21.7166 21.0893 21.7119 18.1643 21.7002ZM8.83027 24.3422C8.83027 24.311 8.81787 24.281 8.79578 24.2589C8.77369 24.2368 8.74374 24.2244 8.7125 24.2244H7.93555C7.90431 24.2244 7.87436 24.2368 7.85227 24.2589C7.83018 24.281 7.81777 24.311 7.81777 24.3422V31.7356C7.81777 31.7668 7.83018 31.7968 7.85227 31.8188C7.87436 31.8409 7.90431 31.8533 7.93555 31.8533H8.7125C8.74374 31.8533 8.77369 31.8409 8.79578 31.8188C8.81787 31.7968 8.83027 31.7668 8.83027 31.7356V24.3422ZM10.8641 30.2256L10.8535 25.3266C10.8535 25.3143 10.856 25.3021 10.8609 25.2908C10.8658 25.2794 10.873 25.2692 10.882 25.2607C10.891 25.2521 10.9017 25.2455 10.9134 25.2411C10.9252 25.2367 10.9377 25.2347 10.9502 25.2352C12.7268 25.2949 14.4957 25.2926 16.257 25.2281C16.2845 25.2271 16.3108 25.2184 16.3324 25.2034C16.354 25.1883 16.37 25.1675 16.3783 25.1438C16.4768 24.8742 16.4803 24.6029 16.3889 24.3299C16.3807 24.3053 16.3648 24.2839 16.3433 24.2688C16.3218 24.2536 16.296 24.2455 16.2693 24.2455L9.93242 24.249C9.90865 24.249 9.88584 24.2585 9.86903 24.2753C9.85222 24.2921 9.84277 24.3149 9.84277 24.3387V31.7479C9.84277 31.7777 9.85463 31.8063 9.87572 31.8274C9.89682 31.8485 9.92544 31.8604 9.95527 31.8604L16.25 31.8498C16.2972 31.8494 16.3424 31.8312 16.3756 31.7993C16.4089 31.7673 16.4275 31.7242 16.4275 31.6793L16.4258 30.4453C16.4258 30.4127 16.4123 30.3814 16.3882 30.3583C16.3641 30.3352 16.3315 30.3223 16.2975 30.3223L10.952 30.3117C10.9404 30.3117 10.929 30.3095 10.9183 30.3052C10.9077 30.3008 10.898 30.2945 10.8898 30.2865C10.8816 30.2785 10.8752 30.269 10.8708 30.2586C10.8663 30.2481 10.8641 30.2369 10.8641 30.2256ZM25.5822 30.2238L25.5365 25.4408C25.5361 25.3938 25.5556 25.3484 25.5909 25.3148C25.6262 25.2812 25.6743 25.262 25.7246 25.2615L27.4314 25.2422C27.4594 25.2417 27.486 25.2316 27.5054 25.2141C27.5249 25.1966 27.5356 25.1732 27.5352 25.149L27.5176 24.3106C27.5171 24.2875 27.5056 24.2656 27.4856 24.2494C27.4655 24.2333 27.4385 24.2243 27.4104 24.2244C24.1584 24.2315 20.9064 24.2244 17.6545 24.2033C17.4482 24.2022 17.3721 24.2889 17.426 24.4635C17.4729 24.6123 17.4793 24.7629 17.4453 24.9153C17.3879 25.1801 17.4717 25.3031 17.6967 25.2844C18.2469 25.2387 18.8234 25.2686 19.3754 25.2686C19.3873 25.2686 19.3991 25.2709 19.4101 25.2754C19.4211 25.28 19.4311 25.2866 19.4394 25.2949C19.4478 25.3033 19.4543 25.3132 19.4587 25.3241C19.4631 25.3349 19.4653 25.3465 19.465 25.3582L19.4352 30.2028C19.4352 30.2272 19.426 30.2506 19.4095 30.268C19.3931 30.2854 19.3707 30.2955 19.3473 30.2959L17.535 30.3082C17.511 30.3087 17.4882 30.3181 17.4715 30.3346C17.4547 30.351 17.4453 30.3731 17.4453 30.3961V31.7039C17.4452 31.7318 17.4557 31.7587 17.4746 31.7793C17.4935 31.7998 17.5194 31.8124 17.5473 31.8147C18.534 31.8967 19.4709 31.8897 20.358 31.7936C20.3824 31.7906 20.4048 31.7789 20.421 31.7607C20.4372 31.7426 20.446 31.7192 20.4459 31.6951L20.4758 25.3881C20.4762 25.3562 20.4889 25.3259 20.5109 25.3035C20.5329 25.2811 20.5626 25.2686 20.5936 25.2686L24.4221 25.2791C24.4454 25.2791 24.4677 25.2884 24.4842 25.3049C24.5007 25.3213 24.51 25.3437 24.51 25.367L24.5205 31.6793C24.5204 31.714 24.5335 31.7474 24.5571 31.7726C24.5806 31.7978 24.6129 31.8129 24.6471 31.8147C25.6174 31.8768 26.5578 31.8785 27.4684 31.8199C27.4943 31.8186 27.5187 31.8072 27.5364 31.7882C27.5541 31.7691 27.5638 31.744 27.5633 31.718L27.5439 30.4207C27.5435 30.3972 27.5338 30.3749 27.5171 30.3585C27.5003 30.342 27.4778 30.3328 27.4543 30.3328L25.6736 30.3117C25.6497 30.3117 25.6267 30.3025 25.6096 30.2861C25.5925 30.2697 25.5827 30.2473 25.5822 30.2238ZM34.1867 25.4233L34.148 30.1799C34.1476 30.2178 34.1326 30.254 34.1062 30.2807C34.0799 30.3073 34.0444 30.3223 34.0074 30.3223L28.6619 30.3328C28.6381 30.3328 28.6153 30.3423 28.5985 30.3591C28.5817 30.3759 28.5723 30.3987 28.5723 30.4225L28.567 31.667C28.5668 31.6921 28.5716 31.717 28.5812 31.7402C28.5908 31.7634 28.605 31.7846 28.623 31.8024C28.641 31.8202 28.6624 31.8343 28.686 31.844C28.7095 31.8536 28.7348 31.8586 28.7604 31.8586L35.0586 31.8252C35.0844 31.8247 35.109 31.814 35.1271 31.7953C35.1452 31.7765 35.1553 31.7513 35.1553 31.725V24.3809C35.1553 24.3361 35.1373 24.2932 35.1053 24.2616C35.0734 24.2299 35.03 24.2121 34.9848 24.2121L28.7357 24.2139C28.7009 24.2139 28.6672 24.2258 28.6403 24.2476C28.6134 24.2694 28.595 24.2997 28.5881 24.3334C28.533 24.6029 28.5365 24.8824 28.5986 25.1719C28.6035 25.1963 28.6169 25.2182 28.6365 25.234C28.656 25.2497 28.6806 25.2582 28.7059 25.258L34.0355 25.2686C34.0554 25.2686 34.0751 25.2726 34.0934 25.2803C34.1117 25.2881 34.1284 25.2995 34.1424 25.3139C34.1565 25.3282 34.1676 25.3453 34.1752 25.3641C34.1828 25.3828 34.1867 25.4029 34.1867 25.4233ZM37.1803 24.3422C37.1803 24.3105 37.1677 24.2801 37.1453 24.2577C37.1228 24.2353 37.0924 24.2227 37.0607 24.2227H36.2873C36.2556 24.2227 36.2252 24.2353 36.2028 24.2577C36.1804 24.2801 36.1678 24.3105 36.1678 24.3422V31.725C36.1678 31.7567 36.1804 31.7871 36.2028 31.8095C36.2252 31.832 36.2556 31.8445 36.2873 31.8445H37.0607C37.0924 31.8445 37.1228 31.832 37.1453 31.8095C37.1677 31.7871 37.1803 31.7567 37.1803 31.725V24.3422ZM16.4328 26.3619C16.4328 26.3391 16.4237 26.3172 16.4076 26.301C16.3914 26.2849 16.3695 26.2758 16.3467 26.2758H11.9486C11.9258 26.2758 11.9039 26.2849 11.8877 26.301C11.8716 26.3172 11.8625 26.3391 11.8625 26.3619V29.2236C11.8625 29.235 11.8647 29.2462 11.8691 29.2566C11.8734 29.2671 11.8797 29.2766 11.8877 29.2846C11.8957 29.2926 11.9052 29.2989 11.9157 29.3032C11.9261 29.3076 11.9373 29.3098 11.9486 29.3098H16.3467C16.358 29.3098 16.3692 29.3076 16.3796 29.3032C16.3901 29.2989 16.3996 29.2926 16.4076 29.2846C16.4156 29.2766 16.4219 29.2671 16.4263 29.2566C16.4306 29.2462 16.4328 29.235 16.4328 29.2236V26.3619ZM18.4568 26.347C18.4568 26.3359 18.4547 26.3249 18.4504 26.3147C18.4462 26.3044 18.44 26.2951 18.4322 26.2873C18.4244 26.2794 18.4151 26.2732 18.4049 26.2689C18.3946 26.2647 18.3837 26.2625 18.3726 26.2625L17.5288 26.261C17.5177 26.261 17.5068 26.2631 17.4965 26.2674C17.4863 26.2716 17.477 26.2778 17.4691 26.2856C17.4613 26.2934 17.455 26.3027 17.4508 26.313C17.4465 26.3232 17.4443 26.3341 17.4443 26.3452L17.4393 29.2245C17.4393 29.2356 17.4414 29.2466 17.4457 29.2568C17.4499 29.2671 17.4561 29.2764 17.4639 29.2842C17.4717 29.2921 17.481 29.2983 17.4912 29.3026C17.5015 29.3068 17.5124 29.309 17.5235 29.309L18.3673 29.3105C18.3783 29.3105 18.3893 29.3084 18.3996 29.3041C18.4098 29.2999 18.4191 29.2937 18.427 29.2859C18.4348 29.2781 18.4411 29.2688 18.4453 29.2586C18.4496 29.2483 18.4518 29.2374 18.4518 29.2263L18.4568 26.347ZM21.8398 29.8389C21.5621 29.7123 21.4309 29.8008 21.4461 30.1043C21.4742 30.6305 21.4883 31.1643 21.4883 31.7057C21.4883 31.7263 21.4922 31.7467 21.4999 31.7657C21.5075 31.7847 21.5187 31.8019 21.5328 31.8163C21.5469 31.8307 21.5636 31.8421 21.5819 31.8496C21.6002 31.8572 21.6198 31.8608 21.6395 31.8604L23.4184 31.8217C23.4429 31.8208 23.4662 31.81 23.4833 31.7917C23.5003 31.7733 23.5098 31.7488 23.5098 31.7233V26.3584C23.5098 26.3462 23.5073 26.3341 23.5024 26.3228C23.4975 26.3115 23.4904 26.3012 23.4815 26.2925C23.4725 26.2839 23.4618 26.277 23.4501 26.2723C23.4384 26.2677 23.4258 26.2652 23.4131 26.2652L21.5797 26.2635C21.5554 26.2635 21.5322 26.2728 21.5151 26.2892C21.4979 26.3057 21.4883 26.3281 21.4883 26.3514V28.6682C21.4884 28.6881 21.493 28.7078 21.5016 28.7257C21.5102 28.7437 21.5227 28.7596 21.5381 28.7722C21.5536 28.7848 21.5716 28.7938 21.5909 28.7986C21.6103 28.8034 21.6305 28.8039 21.65 28.8C22.2266 28.684 21.9734 29.4065 22.0051 29.7404C22.0067 29.7588 22.0029 29.7771 21.9942 29.7934C21.9856 29.8097 21.9722 29.8235 21.9555 29.8334C21.9389 29.8433 21.9194 29.8491 21.8991 29.85C21.8789 29.851 21.8584 29.8471 21.8398 29.8389ZM27.5563 26.3426C27.5563 26.3211 27.5477 26.3006 27.5326 26.2854C27.5174 26.2703 27.4968 26.2617 27.4754 26.2617H26.6246C26.6032 26.2617 26.5826 26.2703 26.5674 26.2854C26.5523 26.3006 26.5438 26.3211 26.5438 26.3426V29.2289C26.5438 29.2504 26.5523 29.2709 26.5674 29.2861C26.5826 29.3013 26.6032 29.3098 26.6246 29.3098H27.4754C27.4968 29.3098 27.5174 29.3013 27.5326 29.2861C27.5477 29.2709 27.5563 29.2504 27.5563 29.2289V26.3426ZM33.1363 26.3501C33.1363 26.331 33.1288 26.3126 33.1153 26.2991C33.1018 26.2856 33.0835 26.2779 33.0644 26.2779L28.6382 26.2702C28.6287 26.2702 28.6194 26.272 28.6106 26.2756C28.6019 26.2792 28.5939 26.2845 28.5872 26.2912C28.5805 26.2979 28.5752 26.3058 28.5715 26.3145C28.5679 26.3233 28.566 26.3327 28.566 26.3421L28.561 29.2355C28.5609 29.2546 28.5685 29.2729 28.582 29.2865C28.5955 29.3 28.6138 29.3076 28.6329 29.3077L33.0591 29.3154C33.0685 29.3154 33.0779 29.3136 33.0867 29.31C33.0954 29.3064 33.1034 29.3011 33.1101 29.2944C33.1168 29.2877 33.1221 29.2798 33.1257 29.271C33.1294 29.2623 33.1312 29.2529 33.1313 29.2435L33.1363 26.3501ZM19.2172 32.8606C15.3922 32.8723 11.5678 32.8758 7.74395 32.8711C7.47149 32.8711 7.19727 32.7832 7.29395 33.2262C7.31621 33.327 7.31621 33.4272 7.29395 33.5268C7.19727 33.9733 7.47852 33.8819 7.74922 33.8819C11.4652 33.8819 15.1818 33.8819 18.899 33.8819C18.9426 33.882 18.985 33.8675 19.0194 33.8408C19.0538 33.814 19.0783 33.7765 19.0889 33.7342L19.284 32.9449C19.2864 32.9349 19.2865 32.9244 19.2842 32.9143C19.282 32.9042 19.2775 32.8947 19.271 32.8866C19.2646 32.8784 19.2564 32.8719 19.2471 32.8674C19.2378 32.8629 19.2275 32.8605 19.2172 32.8606ZM20.3334 33.0012L20.14 33.6692C20.1329 33.6941 20.1313 33.7203 20.1353 33.7457C20.1393 33.7712 20.1488 33.7952 20.1632 33.8158C20.1775 33.8365 20.1962 33.8532 20.2178 33.8646C20.2394 33.8761 20.2634 33.882 20.2877 33.8819H24.7385C24.7562 33.8817 24.7737 33.8774 24.7896 33.8692C24.8055 33.861 24.8194 33.8492 24.8303 33.8346C24.8413 33.8199 24.849 33.8028 24.8528 33.7846C24.8567 33.7663 24.8567 33.7473 24.8527 33.7289L24.7016 33.0416C24.6911 32.9934 24.6657 32.9501 24.6296 32.9191C24.5935 32.8881 24.5488 32.8712 24.5029 32.8711H20.5004C20.4629 32.8712 20.4264 32.8839 20.3963 32.9074C20.3661 32.9308 20.3441 32.9638 20.3334 33.0012ZM37.6584 33.7658C37.7193 33.5736 37.7199 33.31 37.6602 32.9748C37.6548 32.9456 37.6394 32.9193 37.6166 32.9003C37.5938 32.8814 37.565 32.871 37.5354 32.8711H25.8582C25.8367 32.8712 25.8156 32.8764 25.7965 32.8863C25.7774 32.8963 25.7608 32.9107 25.7479 32.9285C25.735 32.9463 25.7262 32.967 25.7221 32.9891C25.7181 33.0111 25.719 33.0339 25.7246 33.0557L25.9004 33.7518C25.9099 33.7889 25.9306 33.8217 25.9594 33.845C25.9881 33.8682 26.023 33.8806 26.0586 33.8801L37.5389 33.8502C37.5659 33.8502 37.5921 33.8421 37.6136 33.8269C37.6351 33.8117 37.6508 33.7903 37.6584 33.7658Z" fill="black"/>
</svg>
