<svg width="45" height="45" viewBox="0 0 45 45" fill="none" xmlns="http://www.w3.org/2000/svg">
<path d="M12.1351 0H12.7063L12.7011 7.89961C12.7011 7.92152 12.7097 7.94253 12.725 7.95803C12.7403 7.97352 12.7611 7.98223 12.7828 7.98223L26.2424 7.97607C26.2601 7.97606 26.2773 7.9711 26.2923 7.96177C26.3072 7.95245 26.3191 7.93913 26.3268 7.92334L27.762 4.93682C27.7849 4.88936 27.7963 4.83867 27.7963 4.78477L27.8016 0H28.3746L28.3676 7.91016C28.3676 7.92089 28.3697 7.93152 28.3739 7.94144C28.3781 7.95135 28.3843 7.96036 28.392 7.96795C28.3998 7.97554 28.409 7.98156 28.4191 7.98567C28.4293 7.98978 28.4401 7.99189 28.4511 7.99189L30.7301 7.97695C30.7493 7.97693 30.7681 7.97155 30.7843 7.96145C30.8004 7.95134 30.8133 7.93691 30.8215 7.91982L32.204 5.05547C32.2392 4.98223 32.2567 4.9043 32.2567 4.82168L32.2708 0H32.8333L32.85 7.90312C32.85 7.91532 32.8526 7.92739 32.8576 7.93865C32.8626 7.9499 32.8699 7.96011 32.8791 7.9687C32.8883 7.97728 32.8993 7.98406 32.9114 7.98864C32.9234 7.99323 32.9363 7.99553 32.9493 7.99541L34.0638 7.98926C34.0771 7.98926 34.0898 7.99426 34.0992 8.00316C34.1086 8.01206 34.1139 8.02413 34.1139 8.03672V8.50957C34.1138 8.52154 34.1087 8.53303 34.0995 8.54158C34.0903 8.55012 34.0778 8.55504 34.0646 8.55527L32.9027 8.5667C32.8887 8.56693 32.8753 8.5725 32.8654 8.5822C32.8555 8.5919 32.85 8.60495 32.85 8.61855L32.8553 16.1007C32.8553 16.1122 32.8599 16.1232 32.8681 16.1315C32.8763 16.1397 32.8875 16.1444 32.8992 16.1446L34.0638 16.1648C34.0768 16.1651 34.0892 16.17 34.0983 16.1784C34.1073 16.1868 34.1123 16.198 34.1121 16.2097L34.1033 16.6939C34.1031 16.7057 34.0977 16.7169 34.0883 16.7251C34.079 16.7333 34.0664 16.7379 34.0532 16.7379L32.9001 16.7484C32.8882 16.7484 32.8768 16.7531 32.8684 16.7613C32.86 16.7696 32.8553 16.7807 32.8553 16.7924L32.85 20.0786C32.85 20.085 32.8512 20.0912 32.8537 20.0971C32.8561 20.103 32.8597 20.1083 32.8642 20.1128C32.8686 20.1173 32.874 20.1208 32.8798 20.1233C32.8857 20.1257 32.892 20.127 32.8983 20.127H34.0655C34.0733 20.127 34.0809 20.1285 34.0881 20.1314C34.0952 20.1344 34.1017 20.1387 34.1072 20.1442C34.1126 20.1497 34.117 20.1562 34.1199 20.1633C34.1229 20.1705 34.1244 20.1781 34.1244 20.1858V20.6323C34.1244 20.6438 34.1222 20.6551 34.1179 20.6656C34.1135 20.6762 34.1072 20.6858 34.0992 20.6939C34.0912 20.7019 34.0817 20.7083 34.0712 20.7127C34.0608 20.7171 34.0496 20.7193 34.0383 20.7193L32.8948 20.7141C32.8829 20.7141 32.8715 20.7188 32.8631 20.7272C32.8547 20.7356 32.85 20.747 32.85 20.7589V28.2234C32.85 28.2439 32.8581 28.2636 32.8727 28.2781C32.8872 28.2926 32.9068 28.3008 32.9273 28.3008H34.0664C34.074 28.3008 34.0816 28.3023 34.0886 28.3052C34.0956 28.3081 34.102 28.3124 34.1074 28.3178C34.1128 28.3232 34.1171 28.3296 34.12 28.3366C34.1229 28.3436 34.1244 28.3512 34.1244 28.3588V28.8158C34.1244 28.8311 34.1182 28.8457 34.1072 28.8565C34.0962 28.8674 34.0812 28.8736 34.0655 28.8738L32.9106 28.8861C32.8987 28.8864 32.8873 28.8914 32.8789 28.9001C32.8705 28.9088 32.8658 28.9205 32.8658 28.9327L32.8509 32.2049C32.8509 32.2187 32.8562 32.232 32.8657 32.2419C32.8753 32.2517 32.8883 32.2574 32.9019 32.2576L34.0532 32.2831C34.066 32.2833 34.0783 32.2876 34.088 32.2953C34.0978 32.3029 34.1044 32.3135 34.1068 32.3253C34.1396 32.4841 34.1396 32.6426 34.1068 32.8008C34.1043 32.8133 34.0978 32.8246 34.0883 32.8332C34.0788 32.8417 34.0668 32.847 34.0541 32.8482C33.7629 32.8787 33.4708 32.879 33.1778 32.8491C33.0952 32.8409 33.0718 32.8743 33.1075 32.9493L38.5822 44.3593C38.589 44.3735 38.5998 44.3855 38.6134 44.3939C38.6269 44.4023 38.6426 44.4068 38.6587 44.4067L43.556 44.4226C43.5688 44.4225 43.5812 44.4267 43.5914 44.4345C43.6016 44.4423 43.6089 44.4532 43.6122 44.4656C43.6591 44.6426 43.6588 44.8207 43.6113 45H1.33594L1.34209 44.4964C1.34232 44.4725 1.35196 44.4497 1.36891 44.4329C1.38587 44.4162 1.40876 44.4067 1.43262 44.4067H6.30703C6.32709 44.4067 6.34674 44.401 6.36369 44.3902C6.38064 44.3795 6.39421 44.3642 6.40283 44.3461L11.874 32.937C11.8786 32.9277 11.8807 32.9173 11.8802 32.9069C11.8797 32.8965 11.8766 32.8864 11.8713 32.8777C11.8659 32.869 11.8584 32.8618 11.8494 32.857C11.8405 32.8521 11.8305 32.8497 11.8204 32.85L10.9266 32.8632C10.9141 32.8635 10.902 32.8595 10.8923 32.8519C10.8827 32.8444 10.8761 32.8337 10.8738 32.8219C10.8422 32.6555 10.8407 32.4885 10.8694 32.3209C10.8713 32.3089 10.8777 32.2979 10.8874 32.29C10.897 32.2821 10.9094 32.2778 10.9222 32.2778H12.0173C12.0314 32.2778 12.0453 32.2751 12.0583 32.2697C12.0713 32.2643 12.0831 32.2564 12.0931 32.2464C12.1031 32.2365 12.111 32.2247 12.1163 32.2116C12.1217 32.1986 12.1245 32.1847 12.1245 32.1706L12.1298 28.9406C12.1298 28.9316 12.128 28.9227 12.1246 28.9144C12.1211 28.9061 12.1161 28.8985 12.1097 28.8921C12.1033 28.8858 12.0958 28.8807 12.0875 28.8773C12.0791 28.8738 12.0702 28.8721 12.0612 28.8721H10.8993C10.8877 28.8721 10.8765 28.8674 10.8682 28.8592C10.86 28.851 10.8554 28.8398 10.8554 28.8281L10.8589 28.35C10.8591 28.3383 10.864 28.3271 10.8726 28.3189C10.8811 28.3106 10.8926 28.306 10.9046 28.3061L12.0524 28.3008C12.073 28.3006 12.0927 28.2923 12.1072 28.2778C12.1217 28.2633 12.1298 28.2438 12.1298 28.2234V20.7853C12.1298 20.7643 12.1209 20.7442 12.1051 20.7293C12.0892 20.7145 12.0678 20.7062 12.0454 20.7062H10.9151C10.9021 20.7062 10.8896 20.7012 10.8803 20.6925C10.8711 20.6838 10.8659 20.6719 10.8659 20.6596V20.1876C10.8659 20.1754 10.8711 20.1637 10.8803 20.155C10.8895 20.1463 10.902 20.1412 10.9151 20.141L12.0489 20.1287C12.0704 20.1285 12.091 20.12 12.1061 20.105C12.1213 20.09 12.1298 20.0698 12.1298 20.0487V16.8205C12.1298 16.8 12.1216 16.7803 12.1071 16.7658C12.0926 16.7513 12.073 16.7432 12.0524 16.7432H10.9213C10.9038 16.7432 10.887 16.7362 10.8747 16.7239C10.8623 16.7115 10.8554 16.6947 10.8554 16.6772V16.1991C10.8554 16.1927 10.8566 16.1863 10.8591 16.1804C10.8615 16.1745 10.8651 16.1691 10.8696 16.1646C10.8741 16.1601 10.8794 16.1566 10.8853 16.1542C10.8911 16.1518 10.8974 16.1507 10.9037 16.1508L12.0691 16.1561C12.0764 16.1562 12.0836 16.1549 12.0903 16.1522C12.097 16.1496 12.1031 16.1457 12.1082 16.1407C12.1134 16.1357 12.1175 16.1297 12.1203 16.1232C12.1231 16.1166 12.1245 16.1096 12.1245 16.1024L12.1298 8.64053C12.1298 8.63106 12.1279 8.62169 12.1242 8.61295C12.1206 8.6042 12.1152 8.59626 12.1084 8.58957C12.1016 8.58287 12.0936 8.57757 12.0848 8.57394C12.0759 8.57032 12.0664 8.56846 12.0568 8.56846L10.9046 8.56494C10.8984 8.56494 10.8923 8.56377 10.8866 8.5615C10.8808 8.55924 10.8757 8.55592 10.8713 8.55174C10.867 8.54757 10.8636 8.54262 10.8613 8.53719C10.859 8.53176 10.8579 8.52596 10.858 8.52012L10.8668 8.03584C10.867 8.0234 10.8723 8.01155 10.8815 8.00284C10.8907 7.99412 10.9031 7.98925 10.916 7.98926L12.0665 7.99189C12.0833 7.99189 12.0994 7.9856 12.1112 7.97439C12.1231 7.96318 12.1298 7.94798 12.1298 7.93213L12.1351 0ZM27.7163 6.31846C27.4972 6.84697 27.2534 7.36729 26.9851 7.87939C26.979 7.89058 26.9761 7.90315 26.9767 7.91587C26.9773 7.92859 26.9815 7.94102 26.9886 7.95194C26.9958 7.96285 27.0059 7.97187 27.0177 7.97811C27.0296 7.98434 27.0428 7.98758 27.0562 7.9875L27.7269 7.97871C27.7453 7.97848 27.763 7.97134 27.776 7.95884C27.789 7.94634 27.7963 7.92948 27.7963 7.91191V6.34658C27.7963 6.33088 27.7931 6.31605 27.7873 6.30432C27.7814 6.29259 27.7731 6.2846 27.7638 6.28154C27.745 6.2751 27.7292 6.2874 27.7163 6.31846ZM32.1768 6.38525C31.9629 6.90498 31.7268 7.4168 31.4684 7.9207C31.465 7.92748 31.4635 7.93499 31.4639 7.94252C31.4644 7.95006 31.4667 7.95735 31.4708 7.96371C31.4748 7.97007 31.4805 7.97527 31.4871 7.97882C31.4938 7.98237 31.5012 7.98415 31.5088 7.98398L32.2005 7.97695C32.2154 7.97695 32.2297 7.97121 32.2403 7.96099C32.2508 7.95077 32.2567 7.93691 32.2567 7.92246V6.4125C32.2567 6.39659 32.2535 6.38156 32.2477 6.36978C32.2418 6.35801 32.2335 6.35015 32.2242 6.34746C32.2055 6.34102 32.1896 6.35361 32.1768 6.38525ZM13.9219 16.1561C13.9294 16.1561 13.9369 16.1545 13.9438 16.1516C13.9508 16.1487 13.957 16.1444 13.9623 16.139C13.9675 16.1336 13.9716 16.1271 13.9744 16.1201C13.9771 16.1131 13.9784 16.1056 13.9781 16.098C13.9541 15.5197 13.9772 14.9634 14.0476 14.429C14.0944 14.0692 14.2113 13.7218 14.3982 13.3866C14.5125 13.1821 14.6657 13.0327 14.8579 12.9384C14.9745 12.881 15.138 12.8602 15.3483 12.876C15.6683 12.9 15.9888 12.9088 16.3099 12.9023C16.3151 12.9023 16.427 12.8877 16.6456 12.8584C16.8009 12.8379 16.9418 12.8675 17.0684 12.9472C17.3607 13.1317 17.562 13.4101 17.6722 13.7821C17.8872 14.5046 17.9643 15.2672 17.9033 16.0699C17.9026 16.0801 17.9039 16.0904 17.9073 16.1C17.9106 16.1097 17.9159 16.1185 17.9228 16.1259C17.9296 16.1334 17.9379 16.1393 17.9471 16.1433C17.9564 16.1472 17.9663 16.1492 17.9763 16.149L19.3315 16.1446C19.3372 16.1446 19.3429 16.1435 19.3481 16.1413C19.3533 16.1391 19.3581 16.1359 19.362 16.1319C19.366 16.1279 19.369 16.1231 19.371 16.1179C19.3731 16.1127 19.374 16.1071 19.3737 16.1016C19.355 15.3832 19.3884 14.7858 19.4739 14.3095C19.539 13.9497 19.6673 13.6154 19.8589 13.3066C19.9409 13.1748 20.0654 13.0588 20.2324 12.9586C20.3689 12.8766 20.5061 12.8443 20.6437 12.8619C20.8336 12.8859 20.9312 12.8979 20.9364 12.8979C21.2341 12.8979 21.5197 12.8979 21.7934 12.8979C21.8877 12.8979 21.9768 12.8769 22.0605 12.8347C22.9617 12.3853 23.8433 11.9481 24.7052 11.5233C24.919 11.4179 25.0761 11.453 25.1763 11.6288C25.2876 11.8251 25.2349 11.9795 25.0181 12.092C24.1702 12.5338 23.3218 12.9609 22.4728 13.3734C22.4548 13.3822 22.4397 13.3958 22.4291 13.4128C22.4185 13.4297 22.4129 13.4493 22.413 13.4692L22.4183 16.1007C22.4183 16.1123 22.4228 16.1235 22.4309 16.1318C22.4389 16.14 22.4499 16.1446 22.4613 16.1446L27.7286 16.1499C27.7464 16.1499 27.7635 16.1428 27.7762 16.1301C27.7888 16.1175 27.7961 16.1003 27.7963 16.0822C27.7986 15.7828 27.798 15.4919 27.7945 15.2095C27.7922 15.0647 27.7594 14.9256 27.6961 14.792C26.7328 12.7699 25.7484 10.7188 24.743 8.63877C24.733 8.61798 24.7173 8.60042 24.6977 8.58814C24.6781 8.57585 24.6554 8.56933 24.6322 8.56934H12.7635C12.756 8.56934 12.7485 8.57081 12.7416 8.57368C12.7347 8.57656 12.7284 8.58076 12.7231 8.58607C12.7178 8.59137 12.7136 8.59767 12.7107 8.6046C12.7078 8.61153 12.7063 8.61896 12.7063 8.62646L12.7011 16.0813C12.7011 16.0995 12.7083 16.117 12.7212 16.1298C12.734 16.1427 12.7514 16.1499 12.7696 16.1499L13.9219 16.1561ZM25.4083 8.64229L27.7058 13.4587C27.7661 13.5853 27.7963 13.5785 27.7963 13.4385V8.65195C27.7963 8.63004 27.7876 8.60903 27.7721 8.59353C27.7566 8.57804 27.7356 8.56934 27.7137 8.56934H25.454C25.4454 8.56939 25.437 8.5716 25.4295 8.57578C25.422 8.57996 25.4157 8.58597 25.4111 8.59325C25.4065 8.60052 25.4039 8.60883 25.4034 8.61741C25.4029 8.62598 25.4046 8.63454 25.4083 8.64229ZM28.3834 10.8492C28.3717 12.0938 28.3679 13.3386 28.372 14.5837C28.3726 14.7313 28.403 14.8723 28.4634 15.0064C28.6327 15.3803 28.8062 15.7491 28.9837 16.113C28.9892 16.1241 28.9977 16.1335 29.0081 16.14C29.0185 16.1465 29.0304 16.1499 29.0426 16.1499H32.2005C32.2154 16.1499 32.2297 16.144 32.2403 16.1334C32.2508 16.1229 32.2567 16.1086 32.2567 16.0937V8.6458C32.2567 8.63576 32.2548 8.62582 32.2509 8.61654C32.2471 8.60726 32.2414 8.59883 32.2343 8.59173C32.2272 8.58463 32.2188 8.579 32.2095 8.57516C32.2003 8.57131 32.1903 8.56934 32.1803 8.56934H28.4643C28.4544 8.56934 28.4447 8.57127 28.4357 8.57502C28.4266 8.57878 28.4184 8.58428 28.4114 8.59122C28.4045 8.59816 28.399 8.60639 28.3952 8.61545C28.3915 8.62452 28.3895 8.63423 28.3895 8.64404C28.3925 9.36885 28.3904 10.1039 28.3834 10.8492ZM14.8052 14.0792C14.6569 14.7226 14.6071 15.3964 14.6558 16.1007C14.6565 16.1128 14.6614 16.1243 14.6697 16.1333C14.678 16.1422 14.6893 16.1481 14.7015 16.1499C14.8515 16.1716 14.9203 16.1177 14.908 15.9882C14.901 15.9155 14.8975 15.8769 14.8975 15.8722C14.891 15.2411 14.8963 14.6104 14.9133 13.9799C14.9145 13.943 14.9016 13.9342 14.8746 13.9535C14.8424 13.9758 14.8192 14.0177 14.8052 14.0792ZM17.2371 16.0673C17.2986 15.3513 17.2348 14.647 17.0455 13.9544C17.0408 13.9368 17.032 13.928 17.0191 13.928C17.0156 13.9279 17.0121 13.9288 17.0088 13.9306C17.0055 13.9324 17.0025 13.9351 17 13.9385C16.9975 13.9419 16.9954 13.946 16.994 13.9506C16.9926 13.9551 16.9919 13.96 16.9919 13.9649L17.0077 16.062C17.008 16.0774 17.0113 16.092 17.0175 16.1046C17.0236 16.1172 17.0323 16.1273 17.0429 16.1341C17.0933 16.1675 17.1445 16.1687 17.1967 16.1376C17.2078 16.1311 17.2173 16.1213 17.2244 16.109C17.2314 16.0968 17.2358 16.0825 17.2371 16.0673ZM20.2658 16.1437C20.2765 16.1415 20.2861 16.1357 20.293 16.1272C20.2999 16.1187 20.3036 16.1081 20.3036 16.0972C20.3036 15.3929 20.3036 14.6854 20.3036 13.9746C20.3036 13.9201 20.2872 13.9075 20.2544 13.9368C20.2438 13.9456 20.2365 13.9585 20.2324 13.9755C20.0678 14.6634 20.008 15.3606 20.0531 16.0673C20.0542 16.0832 20.0584 16.0982 20.0652 16.1105C20.072 16.1229 20.0812 16.1322 20.0918 16.1376C20.1328 16.1569 20.1908 16.159 20.2658 16.1437ZM16.2185 20.0988C16.0849 19.9107 16.0257 19.737 16.0409 19.5776C16.069 19.2823 16.062 18.3665 16.0198 16.8302C16.0192 16.7985 16.0095 16.7704 15.9926 16.7511C15.9574 16.7112 15.9243 16.7092 15.8933 16.7449C15.8745 16.7654 15.864 16.7968 15.8616 16.839C15.8493 17.0382 15.8505 17.2992 15.8651 17.6221C15.881 17.9777 15.8763 18.5851 15.8511 19.444C15.8511 19.4487 15.8531 19.5117 15.8572 19.633C15.8637 19.8152 15.8004 19.9594 15.6674 20.0654C15.6152 20.107 15.622 20.1275 15.6876 20.127L16.207 20.1226C16.2252 20.122 16.229 20.1141 16.2185 20.0988ZM21.5376 19.996C21.5095 19.9771 21.4864 19.9515 21.4705 19.9215C21.4545 19.8914 21.4462 19.8579 21.4462 19.8237L21.4409 16.8363C21.4409 16.8053 21.4308 16.7772 21.4128 16.7581C21.3642 16.7054 21.324 16.7051 21.2924 16.7572C21.2777 16.7824 21.2704 16.819 21.2704 16.8671C21.2704 17.7853 21.2713 18.7034 21.273 19.6216C21.2736 19.7769 21.2074 19.928 21.0744 20.0751C21.0475 20.105 21.0539 20.1208 21.0937 20.1226C21.2209 20.1284 21.353 20.1337 21.4901 20.1384C21.6729 20.1442 21.6888 20.0968 21.5376 19.996ZM22.4622 16.7379C22.4492 16.7379 22.4366 16.743 22.4274 16.752C22.4182 16.7611 22.413 16.7734 22.413 16.7862C22.413 17.7536 22.4101 18.7207 22.4042 19.6875C22.4036 19.8146 22.3441 19.9456 22.2258 20.0804C22.1982 20.1114 22.2053 20.127 22.2469 20.127H27.7356C27.7517 20.127 27.7672 20.1206 27.7785 20.1092C27.7899 20.0978 27.7963 20.0824 27.7963 20.0663V16.8029C27.7963 16.7871 27.7899 16.7719 27.7785 16.7607C27.7672 16.7495 27.7517 16.7432 27.7356 16.7432L22.4622 16.7379ZM29.3537 16.737C29.3468 16.7371 29.34 16.7389 29.334 16.7423C29.3279 16.7457 29.3228 16.7505 29.3192 16.7564C29.3155 16.7622 29.3134 16.7689 29.3129 16.7758C29.3125 16.7827 29.3138 16.7896 29.3168 16.7959L30.8918 20.0716C30.8979 20.084 30.907 20.0944 30.9182 20.1017C30.9294 20.109 30.9422 20.1129 30.9551 20.1129H32.1961C32.208 20.1129 32.2194 20.1081 32.2278 20.0995C32.2362 20.0909 32.2409 20.0793 32.2409 20.0672L32.2559 16.8214C32.2559 16.8006 32.2474 16.7807 32.2324 16.7661C32.2174 16.7514 32.1971 16.7432 32.1759 16.7432L29.3537 16.737ZM15.0583 20.0347C14.9604 19.9579 14.9112 19.8568 14.9106 19.7314C14.9024 18.7717 14.8983 17.8017 14.8983 16.8214C14.8983 16.8112 14.8964 16.801 14.8925 16.7916C14.8886 16.7821 14.883 16.7736 14.8759 16.7664C14.8688 16.7592 14.8603 16.7535 14.8511 16.7497C14.8418 16.7458 14.8319 16.7439 14.8219 16.744L12.7608 16.7581C12.7492 16.7583 12.738 16.7631 12.7297 16.7714C12.7213 16.7798 12.7165 16.791 12.716 16.8029C12.6937 17.3613 12.6911 17.9197 12.7081 18.4781C12.7151 18.7213 12.7143 18.9855 12.7055 19.2709C12.6973 19.5346 12.6958 19.7985 12.7011 20.0628C12.7015 20.08 12.7087 20.0963 12.721 20.1083C12.7333 20.1203 12.7498 20.127 12.767 20.127H15.0267C15.1269 20.127 15.1374 20.0962 15.0583 20.0347ZM20.4768 20.0716C20.3508 19.9374 20.2887 19.7947 20.2904 19.6436C20.2992 18.7061 20.3036 17.7589 20.3036 16.8021C20.3036 16.7864 20.2974 16.7715 20.2864 16.7604C20.2753 16.7494 20.2603 16.7432 20.2447 16.7432L17.0912 16.7484C17.0691 16.7484 17.0478 16.7572 17.0322 16.7729C17.0165 16.7886 17.0077 16.8098 17.0077 16.8319C17.0077 17.7981 17.0045 18.75 16.998 19.6875C16.9969 19.8387 16.9395 19.9614 16.8258 20.0558C16.7689 20.1032 16.7774 20.127 16.8513 20.127H20.4521C20.5031 20.127 20.5113 20.1085 20.4768 20.0716ZM28.3843 16.9356C28.3808 17.9827 28.377 19.023 28.3728 20.0566C28.3728 20.0753 28.3803 20.0932 28.3934 20.1064C28.4066 20.1195 28.4245 20.127 28.4432 20.127H30.1702C30.1795 20.127 30.1886 20.1247 30.1966 20.1202C30.2047 20.1157 30.2116 20.1093 30.2165 20.1015C30.2214 20.0937 30.2243 20.0847 30.2248 20.0755C30.2253 20.0663 30.2235 20.0571 30.2194 20.0487L28.6559 16.7985C28.6429 16.772 28.6212 16.7519 28.5952 16.7423C28.5149 16.7136 28.4563 16.7218 28.4194 16.7669C28.396 16.7962 28.3843 16.8524 28.3843 16.9356ZM12.774 20.7149C12.7547 20.7149 12.7361 20.7225 12.7224 20.736C12.7088 20.7496 12.7011 20.7679 12.7011 20.787L12.7063 28.219C12.7063 28.2407 12.715 28.2615 12.7303 28.2768C12.7456 28.2922 12.7664 28.3008 12.7881 28.3008H14.9555C14.9611 28.3007 14.9667 28.2995 14.9718 28.2971C14.9769 28.2947 14.9814 28.2912 14.985 28.287C14.9886 28.2827 14.9912 28.2777 14.9927 28.2723C14.9941 28.267 14.9943 28.2614 14.9933 28.256C14.8567 27.4438 14.9276 26.6678 15.206 25.9277C15.3155 25.6371 15.4881 25.4323 15.7236 25.3134C15.9012 25.2237 16.0726 25.2053 16.2378 25.258C16.4142 25.3143 16.5554 25.4405 16.6614 25.6368C16.9315 26.136 17.3203 26.5485 17.8277 26.8743C17.8464 26.8863 17.869 26.8907 17.8906 26.8864C17.9123 26.8821 17.9313 26.8696 17.9437 26.8515L19.1628 25.0893C19.1689 25.0803 19.1767 25.0727 19.1857 25.0668C19.1948 25.0609 19.2049 25.0568 19.2155 25.0549C19.2261 25.0529 19.2371 25.0531 19.2476 25.0554C19.2582 25.0576 19.2682 25.062 19.2771 25.0682L19.6163 25.3028C19.6312 25.3131 19.6413 25.3289 19.6446 25.3467C19.6479 25.3645 19.6441 25.3828 19.6339 25.3978L18.4597 27.1002C18.4525 27.1106 18.4484 27.1229 18.4478 27.1359C18.4472 27.1489 18.4501 27.1621 18.4562 27.174C18.5897 27.4406 18.5238 27.6211 18.2584 27.7154C18.2367 27.723 18.2083 27.7245 18.1731 27.7198C18.0782 27.7058 17.9956 27.7512 17.9253 27.8561C17.8403 27.9826 17.7565 28.1013 17.6739 28.212C17.63 28.2712 17.6449 28.3008 17.7187 28.3008H23.9062C23.9154 28.3008 23.9245 28.2988 23.9328 28.2949C23.9411 28.2911 23.9485 28.2855 23.9544 28.2785C23.9602 28.2716 23.9645 28.2634 23.9668 28.2546C23.9691 28.2459 23.9695 28.2367 23.9678 28.2278C23.8225 27.4122 23.9062 26.6188 24.2191 25.8478C24.2713 25.7188 24.327 25.6204 24.3861 25.5524C24.4611 25.4651 24.5511 25.3937 24.656 25.338C24.9249 25.1938 25.1613 25.1874 25.3652 25.3187C25.4478 25.372 25.5691 25.5293 25.7291 25.7906C26.1047 26.4041 26.6355 26.8456 27.3217 27.1151C27.3492 27.126 27.3724 27.1437 27.3885 27.1661C27.5473 27.394 27.5332 27.559 27.3463 27.6609C27.242 27.7178 27.116 27.721 26.9684 27.6706C26.4111 27.4784 25.9462 27.1494 25.5735 26.6836C25.5407 26.642 25.5187 26.647 25.5076 26.6985C25.4455 26.9868 25.4045 27.2587 25.3846 27.5142C25.367 27.7444 25.3585 27.8695 25.3591 27.8895C25.3638 28.0195 25.401 28.1426 25.4707 28.2586C25.4776 28.2699 25.4875 28.2792 25.4993 28.2856C25.5112 28.2921 25.5246 28.2955 25.5384 28.2955L27.6978 28.3008C27.724 28.3008 27.749 28.2903 27.7675 28.2717C27.7859 28.2531 27.7963 28.2278 27.7963 28.2015V20.7861C27.7963 20.7673 27.7888 20.7491 27.7754 20.7358C27.7621 20.7224 27.744 20.7149 27.7251 20.7149H12.774ZM32.2567 20.7571C32.2567 20.7471 32.2528 20.7375 32.2457 20.7304C32.2386 20.7233 32.229 20.7193 32.2189 20.7193H28.4238C28.4138 20.7193 28.4042 20.7233 28.3971 20.7304C28.39 20.7375 28.386 20.7471 28.386 20.7571V28.263C28.386 28.273 28.39 28.2826 28.3971 28.2897C28.4042 28.2968 28.4138 28.3008 28.4238 28.3008H32.2189C32.229 28.3008 32.2386 28.2968 32.2457 28.2897C32.2528 28.2826 32.2567 28.273 32.2567 28.263V20.7571ZM17.4586 27.4342C17.1398 27.2297 16.8442 26.9804 16.5718 26.6862C16.5489 26.661 16.5334 26.6648 16.5252 26.6977C16.4385 27.0674 16.3869 27.4477 16.3705 27.8385C16.3529 28.2715 16.5425 28.4145 16.9392 28.2674C16.966 28.2577 16.9891 28.2392 17.0051 28.2146L17.4753 27.5142C17.4795 27.5078 17.4825 27.5007 17.4839 27.4933C17.4854 27.4858 17.4853 27.4781 17.4838 27.4707C17.4822 27.4632 17.4792 27.4561 17.4749 27.4499C17.4705 27.4436 17.465 27.4383 17.4586 27.4342ZM15.5057 32.2603C15.5119 32.2602 15.518 32.2588 15.5237 32.2562C15.5294 32.2536 15.5345 32.2498 15.5387 32.2451C15.5429 32.2404 15.5461 32.2349 15.5481 32.2289C15.5502 32.2229 15.551 32.2165 15.5505 32.2102C15.5388 32.0402 15.547 31.8686 15.5751 31.6951C15.6243 31.3881 15.6492 31.2328 15.6498 31.2293C15.7195 30.4945 15.6838 29.7407 15.5426 28.9679C15.5378 28.941 15.5238 28.9167 15.5029 28.8992C15.482 28.8817 15.4556 28.8721 15.4283 28.8721H12.7907C12.7683 28.8721 12.7469 28.881 12.7311 28.8968C12.7152 28.9126 12.7063 28.9341 12.7063 28.9564V32.2181C12.7063 32.2259 12.7079 32.2337 12.7109 32.2409C12.7139 32.2482 12.7183 32.2548 12.7239 32.2603C12.7294 32.2659 12.736 32.2703 12.7432 32.2733C12.7505 32.2763 12.7583 32.2778 12.7661 32.2778L15.5057 32.2603ZM24.5083 32.059C24.697 31.0582 24.702 30.0261 24.5232 28.9626C24.5191 28.9374 24.5061 28.9144 24.4866 28.8979C24.4672 28.8813 24.4425 28.8721 24.4169 28.8721H17.3092C17.2828 28.8721 17.2567 28.8787 17.233 28.8912C17.2093 28.9037 17.1887 28.9219 17.1729 28.9441L16.7941 29.4812C16.7402 29.5585 16.7168 29.6417 16.7238 29.7308C16.7895 30.5347 16.7411 31.36 16.5788 32.2066C16.5775 32.2133 16.5777 32.2201 16.5793 32.2266C16.581 32.2332 16.5841 32.2393 16.5884 32.2445C16.5926 32.2497 16.598 32.2539 16.6041 32.2567C16.6102 32.2596 16.6169 32.2611 16.6236 32.2611C19.1514 32.2799 21.6847 32.2854 24.2235 32.2778C24.2288 32.2778 24.281 32.2819 24.38 32.2901C24.4972 32.2995 24.542 32.2509 24.5145 32.1442C24.5057 32.1126 24.5036 32.0842 24.5083 32.059ZM25.5929 32.2611L27.6882 32.2778C27.7023 32.2779 27.7164 32.2752 27.7295 32.2698C27.7426 32.2644 27.7545 32.2564 27.7646 32.2462C27.7746 32.2361 27.7826 32.224 27.788 32.2108C27.7935 32.1975 27.7963 32.1832 27.7963 32.1688V28.9547C27.7963 28.9328 27.7876 28.9118 27.7721 28.8963C27.7566 28.8808 27.7356 28.8721 27.7137 28.8721H25.6605C25.6519 28.8721 25.6434 28.8739 25.6356 28.8776C25.6277 28.8813 25.6208 28.8866 25.6153 28.8932C25.6097 28.8998 25.6057 28.9076 25.6035 28.9159C25.6013 28.9243 25.601 28.933 25.6025 28.9415C25.793 30.0396 25.7771 31.1303 25.5551 32.2137C25.5539 32.2194 25.554 32.2254 25.5553 32.2311C25.5567 32.2368 25.5593 32.2421 25.5629 32.2466C25.5665 32.2512 25.5711 32.2548 25.5763 32.2574C25.5814 32.2599 25.5871 32.2612 25.5929 32.2611ZM32.2576 28.9433C32.2576 28.9244 32.2501 28.9063 32.2368 28.8929C32.2234 28.8796 32.2053 28.8721 32.1864 28.8721H28.444C28.4252 28.8721 28.4071 28.8796 28.3937 28.8929C28.3804 28.9063 28.3728 28.9244 28.3728 28.9433V32.2058C28.3728 32.2246 28.3804 32.2427 28.3937 32.2561C28.4071 32.2695 28.4252 32.277 28.444 32.277H32.1864C32.2053 32.277 32.2234 32.2695 32.2368 32.2561C32.2501 32.2427 32.2576 32.2246 32.2576 32.2058V28.9433ZM17.8515 32.8658L12.8101 32.8649C12.7826 32.8649 12.7562 32.876 12.7367 32.8956C12.7173 32.9152 12.7063 32.9418 12.7063 32.9695L12.7011 43.4786C12.7011 43.6292 12.7336 43.6368 12.7986 43.5015L17.877 32.9062C17.879 32.9019 17.88 32.8972 17.8797 32.8924C17.8795 32.8876 17.878 32.883 17.8755 32.8789C17.8729 32.8749 17.8694 32.8716 17.8652 32.8693C17.861 32.867 17.8562 32.8658 17.8515 32.8658ZM19.4089 32.8605C19.195 32.8447 18.9372 32.8427 18.6354 32.8544C18.6086 32.8555 18.5827 32.8638 18.5604 32.8783C18.5381 32.8929 18.5203 32.9132 18.5089 32.937L13.0377 44.3487C13.0347 44.3549 13.0334 44.3616 13.0337 44.3685C13.0341 44.3753 13.0362 44.3819 13.0398 44.3876C13.0434 44.3934 13.0484 44.3982 13.0543 44.4016C13.0602 44.4049 13.0669 44.4067 13.0737 44.4067H14.0748C14.0882 44.4067 14.1014 44.4029 14.1127 44.3958C14.1241 44.3886 14.1332 44.3784 14.139 44.3663L19.6295 32.9282C19.6588 32.8661 19.6397 32.8415 19.5724 32.8544C19.5272 32.8632 19.4728 32.8652 19.4089 32.8605ZM23.0985 39.1368L23.3895 39.1333C23.3998 39.1332 23.4101 39.1352 23.4196 39.1393C23.4292 39.1434 23.438 39.1495 23.4453 39.1572C23.4527 39.1649 23.4585 39.174 23.4625 39.1841C23.4665 39.1942 23.4685 39.205 23.4686 39.2159L23.4729 39.8865C23.4735 39.9457 23.4993 39.9595 23.5503 39.9278C24.097 39.5921 24.4983 39.1438 24.7544 38.5831C24.9612 38.1302 25.2768 37.9843 25.701 38.1454C25.8047 38.1847 25.9014 38.2438 25.991 38.3229C26.0953 38.4144 26.168 38.5031 26.209 38.5893C26.5553 39.317 26.6944 40.0843 26.6265 40.8911C26.5995 41.2157 26.4384 41.4996 26.1431 41.7428C25.8694 41.9678 25.5747 42.2071 25.2589 42.4608C25.2506 42.4675 25.2438 42.4758 25.2388 42.4851C25.2338 42.4945 25.2307 42.5048 25.2298 42.5153C25.2289 42.5258 25.2302 42.5364 25.2335 42.5464C25.2369 42.5564 25.2422 42.5655 25.2492 42.5733C25.6887 43.0626 26.124 43.553 26.5553 44.0446C26.6203 44.119 26.6739 44.2225 26.7161 44.3549C26.7209 44.3699 26.7303 44.383 26.743 44.3923C26.7556 44.4017 26.7708 44.4067 26.7864 44.4067H27.7295C27.7472 44.4067 27.7642 44.3997 27.7767 44.3872C27.7892 44.3746 27.7963 44.3577 27.7963 44.3399V32.9062C27.7963 32.8925 27.7908 32.8793 27.7811 32.8696C27.7714 32.8599 27.7582 32.8544 27.7444 32.8544H20.3977C20.3732 32.8544 20.3492 32.8613 20.3285 32.8744C20.3078 32.8874 20.2913 32.9061 20.2808 32.9282L14.7999 44.3479C14.797 44.3541 14.7956 44.361 14.796 44.3679C14.7965 44.3748 14.7986 44.3815 14.8023 44.3874C14.806 44.3932 14.811 44.3981 14.8171 44.4015C14.8231 44.4048 14.8299 44.4067 14.8368 44.4067L18.3753 44.412C18.3868 44.412 18.3978 44.4074 18.4061 44.3992C18.4143 44.391 18.419 44.3798 18.4192 44.3681C18.4269 43.9843 18.6234 43.7555 19.009 43.6816C19.0951 43.6646 19.0963 43.6433 19.0125 43.6175C18.8215 43.5589 18.675 43.452 18.573 43.2967C18.5033 43.1906 18.4503 43.0269 18.414 42.8054C18.2798 41.9868 18.3832 41.2014 18.7242 40.449C18.7752 40.3359 18.8326 40.2466 18.8965 40.181C18.9773 40.0983 19.0655 40.0348 19.161 39.9902C19.4651 39.849 19.7312 39.8977 19.9591 40.1361C20.0036 40.1836 20.0947 40.3198 20.2324 40.5448C20.5658 41.0927 21.0337 41.4902 21.636 41.7375C21.7755 41.7949 21.8672 41.8538 21.9111 41.9142C21.999 42.0337 21.9888 42.1597 21.8804 42.2921C21.7866 42.4063 21.67 42.4462 21.5306 42.4116C21.5001 42.404 21.3958 42.3609 21.2177 42.2824C20.7577 42.0797 20.3645 41.7797 20.0382 41.3824C19.9937 41.3285 19.9644 41.3358 19.9503 41.4044C19.8782 41.7548 19.8337 42.14 19.8167 42.5602C19.8158 42.5826 19.8232 42.6046 19.8375 42.6218C19.8518 42.6391 19.872 42.6503 19.894 42.6533C20.3159 42.7107 20.7439 42.7799 21.1781 42.8607C21.3094 42.8854 21.4075 42.924 21.4726 42.9768C21.5687 43.0547 21.6258 43.1505 21.6439 43.2642C21.6937 43.5806 21.5643 43.7988 21.2555 43.9189C20.8945 44.0596 20.533 44.2002 20.1709 44.3408C20.0326 44.3947 20.0379 44.4214 20.1867 44.4208L22.9737 44.412C22.9831 44.412 22.9923 44.4102 23.001 44.4067C23.0096 44.4032 23.0175 44.3981 23.0241 44.3917C23.0307 44.3852 23.0359 44.3776 23.0395 44.3691C23.0431 44.3607 23.0449 44.3517 23.0449 44.3426L23.0555 39.1825C23.0555 39.1704 23.06 39.1588 23.0681 39.1502C23.0762 39.1416 23.0871 39.1368 23.0985 39.1368ZM32.2567 32.8922C32.2567 32.8873 32.2558 32.8825 32.2539 32.8781C32.2521 32.8736 32.2494 32.8695 32.2459 32.8661C32.2425 32.8627 32.2384 32.8599 32.2339 32.8581C32.2295 32.8562 32.2247 32.8553 32.2198 32.8553H28.4212C28.4114 32.8553 28.402 32.8592 28.3951 32.8661C28.3882 32.873 28.3843 32.8824 28.3843 32.8922V44.3707C28.3843 44.3805 28.3882 44.3899 28.3951 44.3968C28.402 44.4037 28.4114 44.4076 28.4212 44.4076H32.2198C32.2247 44.4076 32.2295 44.4067 32.2339 44.4048C32.2384 44.403 32.2425 44.4002 32.2459 44.3968C32.2494 44.3934 32.2521 44.3893 32.2539 44.3848C32.2558 44.3804 32.2567 44.3755 32.2567 44.3707V32.8922ZM12.0691 44.412C12.0838 44.412 12.0979 44.4063 12.1083 44.3961C12.1187 44.3858 12.1245 44.372 12.1245 44.3575L12.1298 33.8361C12.1298 33.7729 12.116 33.7699 12.0885 33.8273L7.06025 44.325C7.05579 44.3342 7.05375 44.3445 7.05431 44.3547C7.05487 44.3649 7.05802 44.3749 7.06347 44.3836C7.06891 44.3922 7.07647 44.3994 7.08544 44.4044C7.09441 44.4094 7.10449 44.412 7.11475 44.412H12.0691ZM37.8835 44.412C37.8907 44.4122 37.8978 44.4105 37.9042 44.4071C37.9106 44.4036 37.9159 44.3986 37.9198 44.3924C37.9237 44.3863 37.926 44.3792 37.9264 44.3718C37.9268 44.3645 37.9253 44.3571 37.9222 44.3505L32.9317 33.9302C32.8667 33.7937 32.8342 33.8013 32.8342 33.953L32.8447 44.3654C32.8447 44.3709 32.8458 44.3762 32.8479 44.3812C32.8499 44.3862 32.853 44.3908 32.8568 44.3946C32.8607 44.3985 32.8652 44.4015 32.8702 44.4036C32.8752 44.4057 32.8806 44.4067 32.886 44.4067L37.8835 44.412ZM25.374 44.4129C25.4332 44.4135 25.4429 44.3918 25.403 44.3479C24.9349 43.8287 24.4904 43.3187 24.0697 42.8177C23.8143 42.5136 23.84 42.2373 24.1471 41.9889C24.4875 41.7123 24.8265 41.4343 25.164 41.1548C25.1747 41.1459 25.1835 41.135 25.1897 41.1228C25.1959 41.1105 25.1994 41.0971 25.2 41.0836C25.2135 40.6125 25.1449 40.1139 24.9943 39.5877C24.9826 39.5473 24.9642 39.5438 24.939 39.5771C24.5769 40.0477 24.1075 40.4112 23.531 40.6679C23.5122 40.6762 23.4962 40.6898 23.4849 40.7072C23.4737 40.7245 23.4677 40.7447 23.4677 40.7654V44.3479C23.4677 44.3556 23.4692 44.3632 23.4722 44.3704C23.4751 44.3775 23.4795 44.384 23.4849 44.3895C23.4904 44.395 23.4969 44.3993 23.504 44.4023C23.5112 44.4052 23.5188 44.4067 23.5266 44.4067L25.374 44.4129Z" fill="black"/>
<path d="M16.7618 11.3853C16.8673 11.7152 16.8445 12.0053 16.6933 12.2555C16.5556 12.4822 16.3593 12.6149 16.1044 12.6536C15.87 12.6893 15.6606 12.646 15.476 12.5235C15.2856 12.397 15.1561 12.2051 15.0875 11.9478C15.0797 11.9187 15.0651 11.8919 15.0449 11.8694C15.0248 11.847 14.9996 11.8296 14.9715 11.8186C14.8719 11.78 14.869 11.6965 14.9627 11.5682C14.9803 11.5441 14.9908 11.5172 14.9944 11.4873C15.0231 11.2394 15.0984 11.0391 15.2202 10.8861C15.3439 10.7314 15.5188 10.6336 15.7449 10.5926C16.1217 10.5246 16.4232 10.6796 16.6493 11.0575C16.6681 11.0897 16.6994 11.1047 16.7434 11.1023C16.7767 11.1012 16.8052 11.1075 16.8234 11.1199C16.9376 11.2008 16.9265 11.2699 16.79 11.3273C16.7787 11.3322 16.7696 11.3408 16.7644 11.3515C16.7592 11.3623 16.7583 11.3743 16.7618 11.3853Z" fill="black"/>
<path d="M22.1313 11.0927C22.3106 11.1079 22.3281 11.1932 22.184 11.3484C22.1738 11.3591 22.1665 11.3723 22.1628 11.3868C22.1591 11.4012 22.1592 11.4165 22.1629 11.431C22.286 11.9016 22.1767 12.2555 21.8351 12.4928C21.5298 12.7049 21.2169 12.7137 20.8964 12.5191C20.6796 12.3867 20.5402 12.1761 20.478 11.8872C20.4675 11.8386 20.4329 11.8137 20.3743 11.8125C20.3589 11.8122 20.3443 11.809 20.3322 11.8033C20.3201 11.7976 20.311 11.7895 20.3058 11.78C20.2618 11.7026 20.282 11.6405 20.3664 11.5936C20.3784 11.587 20.3884 11.5776 20.3954 11.5664C20.4023 11.5553 20.406 11.5429 20.406 11.5304C20.4048 11.1788 20.5264 10.9169 20.7707 10.7446C20.977 10.5999 21.2037 10.5507 21.451 10.597C21.7106 10.645 21.9156 10.7968 22.0662 11.0522C22.0727 11.0636 22.082 11.0733 22.0934 11.0803C22.1047 11.0874 22.1177 11.0916 22.1313 11.0927Z" fill="black"/>
<path d="M15.9434 24.4275C15.8508 24.3712 15.8496 24.2913 15.9399 24.1875C15.9628 24.1606 15.9774 24.1276 15.982 24.0926C16.0242 23.7534 16.1476 23.5061 16.3521 23.3508C16.536 23.2114 16.7505 23.1578 16.9954 23.19C17.2474 23.2228 17.4475 23.3608 17.5957 23.6039C17.6391 23.6754 17.6977 23.7126 17.7715 23.7156C17.787 23.7164 17.8016 23.7198 17.8141 23.7254C17.8266 23.7311 17.8367 23.7388 17.8436 23.7481C17.8922 23.8161 17.8869 23.8685 17.8277 23.9054C17.8062 23.9189 17.7889 23.9381 17.7779 23.961C17.7668 23.9839 17.7625 24.0094 17.7653 24.0346C17.8099 24.3985 17.7252 24.6847 17.5113 24.8933C17.2195 25.1781 16.8838 25.234 16.5041 25.0612C16.258 24.9493 16.0969 24.7711 16.0207 24.5268C16.0077 24.4854 15.9802 24.4501 15.9434 24.4275Z" fill="black"/>
<path d="M24.9127 24.4178C24.8108 24.3762 24.8078 24.3094 24.9039 24.2174C24.922 24.1999 24.9364 24.179 24.9462 24.1559C24.956 24.1328 24.9611 24.108 24.9611 24.083C24.9628 23.7619 25.0791 23.5193 25.31 23.3552C25.5074 23.2152 25.726 23.1589 25.9656 23.1865C26.2276 23.2169 26.4329 23.3561 26.5818 23.604C26.6239 23.6749 26.677 23.7112 26.7408 23.7129C26.7569 23.7132 26.772 23.7159 26.7848 23.7208C26.7976 23.7257 26.8079 23.7326 26.8147 23.7411C26.8692 23.8102 26.8571 23.8723 26.7786 23.9274C26.7676 23.935 26.7589 23.9453 26.7536 23.957C26.7483 23.9687 26.7466 23.9813 26.7487 23.9933C26.8091 24.346 26.7394 24.6317 26.5396 24.8502C26.3515 25.0559 26.1089 25.1576 25.8118 25.1552C25.4245 25.1523 25.1503 24.9329 24.9892 24.4969C24.9828 24.479 24.9727 24.4626 24.9595 24.449C24.9463 24.4353 24.9304 24.4247 24.9127 24.4178Z" fill="black"/>
<path d="M23.2869 37.5205C23.2947 37.5086 23.3001 37.4952 23.3027 37.4811C23.3052 37.4671 23.305 37.4527 23.3019 37.4388C23.2486 37.1997 23.2679 36.9855 23.3599 36.7963C23.4495 36.6117 23.5951 36.4734 23.7967 36.3814C24.0762 36.2549 24.3598 36.2871 24.6475 36.4781C24.6516 36.4805 24.6903 36.5168 24.7635 36.5871C24.8198 36.6404 24.8904 36.6618 24.9753 36.6513C24.9893 36.6496 25.0035 36.6513 25.0167 36.6563C25.0298 36.6613 25.0416 36.6694 25.0509 36.68C25.0603 36.6905 25.0669 36.7032 25.0703 36.7169C25.0736 36.7305 25.0736 36.7448 25.0702 36.7585C25.0515 36.8364 25.055 36.91 25.0808 36.9791C25.1218 37.091 25.1435 37.1575 25.1458 37.1786C25.1997 37.6392 25.0477 37.96 24.6897 38.141C24.47 38.2523 24.2493 38.2778 24.0279 38.2175C23.7894 38.1524 23.6001 38.0033 23.4601 37.7701C23.4538 37.7594 23.4444 37.7507 23.433 37.7451C23.4216 37.7395 23.4088 37.7372 23.3959 37.7385C23.2184 37.7566 23.1821 37.684 23.2869 37.5205Z" fill="black"/>
<path d="M19.8655 38.468C19.8853 38.4744 19.9064 38.4749 19.9263 38.4693C19.9462 38.4636 19.9639 38.4521 19.9771 38.4363C20.2707 38.0906 20.605 37.9878 20.98 38.1278C21.1827 38.2028 21.331 38.3226 21.4247 38.4873C21.5202 38.6543 21.5627 38.8532 21.5521 39.0841C21.5504 39.1263 21.5583 39.1667 21.5759 39.2054C21.6409 39.3489 21.5905 39.4456 21.4247 39.4954C21.3903 39.5055 21.3613 39.5286 21.3438 39.5596C21.1997 39.808 20.9996 39.9554 20.7436 40.0016C20.5121 40.0433 20.2897 39.999 20.0765 39.8689C19.7114 39.6463 19.5995 39.2716 19.7407 38.7448C19.7489 38.7161 19.7498 38.6871 19.7434 38.6578C19.71 38.4926 19.7507 38.4293 19.8655 38.468Z" fill="black"/>
</svg>
