<svg width="45" height="45" viewBox="0 0 45 45" fill="none" xmlns="http://www.w3.org/2000/svg">
<g clip-path="url(#clip0_731_537)">
<path d="M2.03203 0H2.82305C4.12852 0.09375 5.26406 0.390234 6.22969 0.889453C17.523 6.73477 28.8211 12.5707 40.1238 18.3973C40.7648 18.7277 41.383 19.0957 41.9783 19.5012C43.5592 20.5781 44.5664 22.05 45 23.9168V24.1805C44.9227 24.6258 44.7398 24.9955 44.4516 25.2896C44.1996 25.5463 43.8539 25.7309 43.4145 25.8434C42.1934 26.1562 41.3109 25.6799 40.7672 24.4143C40.6301 24.0943 40.4584 23.7926 40.2521 23.509C40.1361 23.3484 40.0781 23.3672 40.0781 23.5652V38.3572C40.0782 38.3774 40.0826 38.3972 40.0908 38.4155C40.0991 38.4339 40.1111 38.4502 40.1261 38.4635C40.141 38.4768 40.1586 38.4867 40.1776 38.4926C40.1966 38.4986 40.2166 38.5003 40.2363 38.4979C40.6969 38.4428 41.0754 38.5371 41.3719 38.7809C41.6672 39.0234 41.8236 39.3316 41.8412 39.7055C41.8588 40.0875 41.6965 40.4367 41.3543 40.7531C41.3121 40.7919 41.2785 40.8391 41.2555 40.8918C41.2325 40.9444 41.2207 41.0014 41.2207 41.059V44.1598C41.2207 44.1961 41.2351 44.231 41.2609 44.2567C41.2866 44.2824 41.3214 44.2969 41.3578 44.2969C42.382 44.2969 43.3535 44.2969 44.2723 44.2969C44.2816 44.2969 44.3566 44.2922 44.4973 44.2828C44.802 44.2629 44.9572 44.4141 44.9631 44.7363C44.8963 44.8734 44.7879 44.9613 44.6379 45H0.29707C0.170508 44.9379 0.0714844 44.8465 0 44.7258V44.55C0.108984 44.3484 0.274805 44.2576 0.497461 44.2775C0.643945 44.2904 0.723633 44.2969 0.736523 44.2969C1.98691 44.2969 3.25957 44.2969 4.55449 44.2969C4.56681 44.297 4.57898 44.2942 4.59008 44.2889C4.60118 44.2836 4.61092 44.2758 4.61855 44.2661C4.62618 44.2565 4.6315 44.2452 4.63411 44.2331C4.63671 44.2211 4.63654 44.2086 4.63359 44.1967C4.36875 43.1572 4.14141 42.1301 3.95156 41.1152C3.87305 40.6957 3.87187 40.3857 3.94805 40.1854C4.07695 39.8479 4.35879 39.6451 4.79355 39.5771C5.22598 39.5103 5.70703 39.4934 6.23672 39.5262C6.2483 39.5269 6.2599 39.5251 6.27083 39.5209C6.28176 39.5168 6.29179 39.5103 6.30033 39.5019C6.30886 39.4935 6.31572 39.4834 6.3205 39.4722C6.32528 39.461 6.32787 39.4488 6.32812 39.4365L6.35625 38.4152C6.35739 38.3811 6.34611 38.3479 6.3248 38.3227C6.30348 38.2974 6.2738 38.2821 6.24199 38.2799C4.5416 38.1592 3.79219 37.2311 3.99375 35.4955C4.00088 35.4314 4.02844 35.3713 4.0724 35.3238C4.11636 35.2764 4.17441 35.2441 4.23809 35.2318C5.17676 35.0502 5.98477 35.2975 6.66211 35.9736C6.67017 35.9815 6.67969 35.9877 6.69011 35.9919C6.70053 35.996 6.71164 35.9981 6.72278 35.9979C6.73391 35.9978 6.74486 35.9954 6.75497 35.9909C6.76508 35.9864 6.77415 35.98 6.78164 35.9719C7.35117 35.3613 8.11699 35.11 9.0791 35.2178C9.16489 35.2272 9.24497 35.2657 9.30627 35.327C9.36757 35.3883 9.40647 35.4688 9.4166 35.5553C9.60762 37.1772 8.86582 38.09 7.19121 38.2939C7.15309 38.2987 7.11783 38.3186 7.09174 38.3502C7.06566 38.3818 7.05044 38.4229 7.04883 38.4662L7.01367 39.3469C7.01272 39.3686 7.01601 39.3902 7.02331 39.4105C7.03062 39.4308 7.04179 39.4493 7.05614 39.4648C7.07049 39.4803 7.0877 39.4925 7.1067 39.5006C7.12571 39.5088 7.1461 39.5127 7.1666 39.5121C7.70684 39.498 8.18672 39.525 8.60625 39.593C9.08672 39.6703 9.37969 39.8977 9.48516 40.275C9.54023 40.4707 9.51973 40.7982 9.42363 41.2576C9.23027 42.1787 9.02109 43.1514 8.79609 44.1756C8.79293 44.1903 8.79304 44.2055 8.79644 44.2201C8.79983 44.2347 8.80641 44.2483 8.8157 44.26C8.82498 44.2716 8.83673 44.281 8.85007 44.2874C8.86341 44.2938 8.87801 44.297 8.89277 44.2969H28.6559C28.8445 44.2969 28.8609 44.2441 28.7051 44.1387L7.41445 29.7246C7.26094 29.6215 7.09219 29.5711 6.9082 29.5734C5.14219 29.5934 3.42598 29.584 1.75957 29.5453C1.2498 29.5336 0.882422 29.458 0.657422 29.3186C0.308203 29.1006 0.0890625 28.7578 0 28.2902V15.7219C0.178125 15.0352 0.560156 14.6338 1.14609 14.5178C1.18008 14.5107 1.64824 14.5061 2.55059 14.5037C2.9959 14.5025 3.46465 14.4973 3.95684 14.4879C3.9915 14.4874 4.02458 14.4733 4.04892 14.4487C4.07327 14.424 4.08692 14.3907 4.08691 14.3561L4.05527 4.60723C4.05488 4.5594 4.0396 4.51289 4.01157 4.47415C3.98353 4.4354 3.94413 4.40635 3.89883 4.39102C3.51094 4.25742 3.11895 4.18535 2.72285 4.1748C2.43809 4.1666 2.15391 4.14434 1.87031 4.10801C1.55508 4.06699 1.28672 3.98379 1.06523 3.8584C0.380859 3.47051 0.0375 2.8957 0.0351562 2.13398C0.0328125 1.55977 0.195703 1.0793 0.523828 0.692578C0.883594 0.270703 1.38633 0.0398438 2.03203 0ZM5.55293 5.2084C5.31621 5.08887 5.10703 4.98164 4.92539 4.88672C4.91122 4.87952 4.89545 4.87607 4.87957 4.87669C4.86369 4.87731 4.84823 4.88198 4.83466 4.89026C4.8211 4.89854 4.80988 4.91015 4.80207 4.924C4.79426 4.93784 4.79012 4.95344 4.79004 4.96934V14.3314C4.79004 14.3767 4.808 14.42 4.83998 14.452C4.87196 14.484 4.91533 14.502 4.96055 14.502H6.04863C6.07379 14.502 6.09871 14.497 6.12196 14.4874C6.1452 14.4777 6.16632 14.4636 6.18412 14.4458C6.20191 14.428 6.21602 14.4069 6.22565 14.3837C6.23528 14.3604 6.24023 14.3355 6.24023 14.3104V5.68652C6.24018 5.65386 6.23152 5.62185 6.21516 5.59374C6.19879 5.56564 6.17529 5.54245 6.14707 5.52656C5.96426 5.42227 5.76621 5.31621 5.55293 5.2084ZM12.2713 8.69063C10.5428 7.78594 8.80723 6.89414 7.06465 6.01523C7.05648 6.01113 7.04741 6.00921 7.03827 6.00966C7.02913 6.01011 7.02022 6.01292 7.01234 6.01782C7.00447 6.02272 6.99789 6.02955 6.99321 6.0377C6.98852 6.04585 6.98589 6.05505 6.98555 6.06445C6.91992 8.83711 6.91641 11.6098 6.975 14.3824C6.97543 14.4058 6.98478 14.4281 7.00112 14.4447C7.01746 14.4614 7.03956 14.4712 7.06289 14.4721C8.10117 14.5025 9.13945 14.5143 10.1777 14.5072C10.7039 14.5037 11.0801 14.5775 11.3062 14.7287C11.666 14.9678 11.8582 15.3469 11.8828 15.866C11.9004 16.248 11.734 16.6963 11.3836 17.2107C11.3538 17.2554 11.3379 17.3074 11.3379 17.3602L11.3484 20.7738C11.3484 20.7981 11.3575 20.8215 11.3738 20.8392C11.3901 20.8568 11.4125 20.8674 11.4363 20.8687C12.5051 20.9414 13.5738 20.9484 14.6426 20.8898C14.6668 20.8885 14.6896 20.8783 14.7062 20.8613C14.7229 20.8443 14.7322 20.8218 14.7322 20.7984L14.7217 10.1092C14.7216 10.0818 14.7146 10.0549 14.7014 10.0312C14.6881 10.0075 14.6691 9.98775 14.6461 9.97383C14.2605 9.74414 13.4689 9.31641 12.2713 8.69063ZM16.7906 11.0391L15.5988 10.4133C15.5816 10.4045 15.5625 10.4002 15.5432 10.4009C15.5239 10.4015 15.5051 10.407 15.4887 10.4169C15.4722 10.4268 15.4587 10.4407 15.4494 10.4573C15.44 10.4739 15.4352 10.4927 15.4354 10.5117L15.4248 20.765C15.4248 20.7843 15.4284 20.8035 15.4354 20.8213C15.4424 20.8391 15.4527 20.8553 15.4656 20.8688C15.4785 20.8824 15.4939 20.8931 15.5107 20.9003C15.5275 20.9076 15.5455 20.9112 15.5637 20.9109L16.7994 20.8934C16.8229 20.8929 16.8453 20.8827 16.8617 20.8649C16.8781 20.8472 16.8873 20.8233 16.8873 20.7984L16.9172 11.2465C16.9177 11.2042 16.9061 11.1624 16.8838 11.1258C16.8614 11.0892 16.8292 11.0591 16.7906 11.0391ZM22.1027 13.783L17.7346 11.5084C17.7228 11.5024 17.7097 11.4995 17.6965 11.5C17.6833 11.5005 17.6704 11.5044 17.6592 11.5112C17.6479 11.5181 17.6386 11.5278 17.6321 11.5393C17.6256 11.5508 17.6221 11.5637 17.6221 11.577V20.7914C17.622 20.8093 17.6257 20.8269 17.6327 20.8433C17.6398 20.8597 17.6502 20.8744 17.6632 20.8866C17.6762 20.8988 17.6916 20.9082 17.7085 20.9142C17.7253 20.9202 17.7431 20.9227 17.7609 20.9215C18.3867 20.8887 18.8438 21.0773 19.132 21.4875C19.3148 21.7465 19.3945 22.0271 19.3711 22.3295C19.3453 22.6459 19.2059 22.9254 18.9527 23.168C18.9211 23.1985 18.8959 23.2353 18.8787 23.276C18.8614 23.3168 18.8526 23.3608 18.8525 23.4053V26.3215C18.8525 26.3431 18.8569 26.3645 18.8655 26.3845C18.8741 26.4044 18.8867 26.4225 18.9026 26.4377C18.9184 26.4529 18.9372 26.4649 18.9579 26.473C18.9786 26.4811 19.0007 26.4852 19.023 26.485L22.0641 26.4691C22.1099 26.4687 22.1537 26.4509 22.186 26.4196C22.2182 26.3883 22.2363 26.3461 22.2363 26.3021V14.0027C22.2363 13.9576 22.2238 13.9132 22.2003 13.8745C22.1767 13.8358 22.143 13.8041 22.1027 13.783ZM24.3123 14.9396L23.0115 14.3016C23.0026 14.2974 22.9929 14.2958 22.9831 14.2967C22.9733 14.2977 22.9639 14.3012 22.9557 14.307C22.9474 14.3128 22.9407 14.3206 22.936 14.3298C22.9313 14.339 22.9289 14.3492 22.9289 14.3596L22.9711 26.3777C22.9711 26.389 22.9735 26.4002 22.9781 26.4107C22.9826 26.4211 22.9894 26.4306 22.9979 26.4386C23.0064 26.4466 23.0164 26.453 23.0275 26.4573C23.0386 26.4616 23.0505 26.4639 23.0625 26.4639L24.2982 26.4551C24.3225 26.4551 24.3457 26.4456 24.3629 26.4288C24.38 26.412 24.3896 26.3892 24.3896 26.3654V15.0768C24.3896 15.0473 24.3823 15.0188 24.3687 14.9946C24.355 14.9704 24.3355 14.9514 24.3123 14.9396ZM29.7598 32.8131C29.8102 30.0932 29.8172 27.3979 29.7809 24.7271C29.7703 24.0311 29.7756 22.8973 29.7967 21.3258C29.8107 20.223 29.7967 19.0887 29.7545 17.9227C29.7523 17.8676 29.7355 17.8141 29.7059 17.7675C29.6763 17.7209 29.6348 17.6828 29.5857 17.6572L25.265 15.4143C25.2471 15.4049 25.2271 15.4003 25.207 15.4009C25.1868 15.4016 25.1671 15.4074 25.1498 15.4178C25.1325 15.4282 25.1182 15.4429 25.1082 15.4604C25.0982 15.478 25.0929 15.4978 25.0928 15.518V26.3215C25.0927 26.3459 25.098 26.37 25.1082 26.3922C25.1185 26.4144 25.1335 26.4341 25.1522 26.45C25.1709 26.4659 25.1929 26.4776 25.2166 26.4842C25.2404 26.4908 25.2653 26.4923 25.2896 26.4885C25.6025 26.4404 25.8943 26.4891 26.165 26.6344C26.4393 26.782 26.6291 26.9859 26.7346 27.2461C26.9127 27.6855 26.8148 28.2012 26.441 28.793C26.3928 28.8687 26.3672 28.9565 26.3672 29.0461V32.7656C26.3672 32.8053 26.3829 32.8433 26.4109 32.8713C26.439 32.8993 26.477 32.915 26.5166 32.915H29.6561C29.6833 32.915 29.7094 32.9044 29.7288 32.8853C29.7482 32.8662 29.7593 32.8403 29.7598 32.8131ZM10.6541 23.2488C10.6189 23.1785 10.6066 23.0707 10.6172 22.9254C10.6289 22.7555 10.6348 22.6482 10.6348 22.6037C10.6301 20.9443 10.6342 19.2445 10.6471 17.5043C10.6471 17.4773 10.6363 17.4513 10.6172 17.4322C10.5981 17.4131 10.5722 17.4023 10.5451 17.4023H0.824414C0.808486 17.4023 0.792714 17.4055 0.777999 17.4116C0.763283 17.4177 0.749913 17.4266 0.73865 17.4379C0.727387 17.4491 0.718453 17.4625 0.712358 17.4772C0.706262 17.4919 0.703125 17.5077 0.703125 17.5236C0.703125 21.0463 0.705469 24.5654 0.710156 28.0811C0.711328 28.3588 0.805664 28.5645 0.993164 28.698C1.11152 28.7836 1.30898 28.8299 1.58555 28.8369C3.3668 28.8803 5.23242 28.8908 7.18242 28.8686C7.33243 28.8675 7.48007 28.9122 7.60605 28.9969L30.1289 44.2371C30.1758 44.2691 30.2322 44.2863 30.2906 44.2863L40.326 44.2969C40.3768 44.2969 40.4255 44.2767 40.4615 44.2408C40.4974 44.2048 40.5176 44.1561 40.5176 44.1053V41.1627C40.5176 41.1315 40.5052 41.1015 40.4831 41.0794C40.461 41.0573 40.431 41.0449 40.3998 41.0449C38.2506 41.0449 36.1055 41.0449 33.9645 41.0449C33.6387 41.0449 33.467 41.0426 33.4494 41.0379C33.2396 40.9887 33.1348 40.8152 33.1348 40.5176C33.1348 38.8922 33.1348 37.2539 33.1348 35.6027C33.1348 35.5774 33.1246 35.5531 33.1065 35.535C33.0885 35.5169 33.0639 35.5065 33.0381 35.5061L26.0772 35.4674C25.8018 35.4662 25.6641 35.3256 25.6641 35.0455V29.192C25.6641 29.1538 25.6489 29.1171 25.6218 29.0901C25.5948 29.063 25.5581 29.0479 25.5199 29.0479H18.5063C18.2672 29.0479 18.1482 28.9295 18.1494 28.6928L18.16 23.632C18.16 23.5999 18.1474 23.569 18.125 23.5463C18.1025 23.5235 18.0721 23.5107 18.0404 23.5107H11.0742C10.9867 23.5108 10.9009 23.4862 10.8267 23.4399C10.7524 23.3936 10.6926 23.3274 10.6541 23.2488ZM31.8199 18.8191L30.5684 18.2127C30.5598 18.2086 30.5503 18.2069 30.5408 18.2079C30.5313 18.2089 30.5221 18.2124 30.5141 18.2182C30.506 18.224 30.4993 18.2318 30.4947 18.241C30.49 18.2502 30.4876 18.2604 30.4875 18.2707V32.792C30.4875 32.8178 30.4964 32.8426 30.5126 32.861C30.5287 32.8794 30.5506 32.89 30.5736 32.8904L31.827 32.908C31.8428 32.9082 31.8585 32.9051 31.8732 32.8988C31.8879 32.8924 31.9013 32.883 31.9126 32.8711C31.9239 32.8591 31.9328 32.8449 31.9389 32.8292C31.9451 32.8135 31.9482 32.7967 31.9482 32.7797V19.0459C31.9482 18.9968 31.9362 18.9495 31.9135 18.9094C31.8908 18.8694 31.8584 18.8381 31.8199 18.8191ZM37.0934 21.5402L32.8289 19.3184C32.8094 19.3081 32.7876 19.303 32.7656 19.3036C32.7436 19.3042 32.7222 19.3105 32.7033 19.3218C32.6844 19.3331 32.6687 19.3491 32.6578 19.3682C32.6468 19.3873 32.641 19.4088 32.6408 19.4309L32.6619 32.7287C32.6619 32.7771 32.6809 32.8235 32.7147 32.858C32.7486 32.8925 32.7946 32.9124 32.843 32.9133C33.5297 32.9238 34.0002 33.1576 34.2545 33.6146C34.3998 33.8748 34.4449 34.1496 34.3898 34.4391C34.3312 34.7426 34.1742 34.9969 33.9188 35.202C33.8969 35.2194 33.8792 35.2412 33.867 35.2655C33.8548 35.2899 33.8485 35.3162 33.8484 35.3426L33.8273 38.3326C33.8273 38.3444 33.8296 38.356 33.8339 38.3669C33.8382 38.3778 33.8446 38.3877 33.8526 38.396C33.8606 38.4043 33.8701 38.4109 33.8805 38.4154C33.891 38.4199 33.9022 38.4223 33.9135 38.4223L37.0793 38.4486C37.0979 38.4489 37.1164 38.4454 37.1336 38.4383C37.1509 38.4313 37.1666 38.4208 37.1799 38.4076C37.1931 38.3943 37.2036 38.3785 37.2108 38.3611C37.218 38.3438 37.2217 38.3251 37.2217 38.3063V21.7512C37.2217 21.7078 37.2097 21.6652 37.1871 21.628C37.1645 21.5908 37.1321 21.5605 37.0934 21.5402ZM39.259 22.667L38.0057 22.05C37.9971 22.0459 37.9877 22.044 37.9782 22.0447C37.9687 22.0453 37.9595 22.0484 37.9514 22.0537C37.9433 22.0589 37.9367 22.0662 37.932 22.0748C37.9274 22.0833 37.9249 22.093 37.9248 22.1027V38.3168C37.9248 38.3458 37.9312 38.3744 37.9436 38.4006C37.9559 38.4268 37.9739 38.45 37.9962 38.4685C38.0185 38.487 38.0447 38.5003 38.0727 38.5075C38.1008 38.5147 38.1301 38.5156 38.1586 38.5102C38.5594 38.434 38.9133 38.4252 39.2203 38.4838C39.2392 38.4874 39.2586 38.4868 39.2772 38.4821C39.2959 38.4773 39.3132 38.4684 39.328 38.4562C39.3428 38.4439 39.3547 38.4285 39.3628 38.4111C39.3709 38.3937 39.3751 38.3747 39.375 38.3555V22.8674C39.3751 22.8246 39.3643 22.7831 39.3437 22.7477C39.3232 22.7123 39.2939 22.6843 39.259 22.667ZM5.7709 36.1529C5.45918 35.9314 5.11992 35.86 4.75313 35.9385C4.72872 35.9434 4.70678 35.9568 4.69106 35.9763C4.67535 35.9959 4.66684 36.0204 4.66699 36.0457C4.66582 37.023 5.17852 37.5328 6.20508 37.575C6.23369 37.5764 6.26172 37.5663 6.2831 37.5469C6.30448 37.5275 6.3175 37.5003 6.31934 37.4713C6.36035 36.8818 6.17754 36.4424 5.7709 36.1529ZM7.28789 36.5098C7.08516 36.8062 7.0125 37.1285 7.06992 37.4766C7.07402 37.5013 7.08664 37.5238 7.10558 37.5401C7.12452 37.5565 7.1486 37.5657 7.17363 37.5662C8.16738 37.5885 8.69121 37.0893 8.74512 36.0686C8.74632 36.0469 8.74307 36.0252 8.73555 36.0049C8.72803 35.9846 8.71641 35.966 8.70141 35.9503C8.6864 35.9347 8.66834 35.9222 8.64835 35.9139C8.62835 35.9055 8.60684 35.9013 8.58516 35.9016C7.99219 35.9086 7.55977 36.1113 7.28789 36.5098Z" fill="black"/>
</g>
<defs>
<clipPath id="clip0_731_537">
<rect width="45" height="45" fill="white"/>
</clipPath>
</defs>
</svg>
