<svg width="45" height="45" viewBox="0 0 45 45" fill="none" xmlns="http://www.w3.org/2000/svg">
<path d="M9.82923 30.2344C9.89017 30.0469 9.87024 29.9226 9.76946 29.8617C9.62649 29.7726 9.56204 29.8148 9.5761 29.9883L9.65345 30.8496C9.66048 33.3926 9.40735 35.9074 8.89407 38.3941C8.7347 39.1746 8.49681 39.7207 8.1804 40.0324C7.6929 40.5105 7.05306 40.6769 6.26087 40.5316C6.14586 40.5112 6.04479 40.448 5.97962 40.3558C5.53431 39.723 5.76751 39.3082 6.67923 39.1113C7.20423 38.9988 7.47962 38.6836 7.5054 38.1656C7.53118 37.5914 7.54759 37.2855 7.55462 37.248C8.03978 34.5527 8.25306 31.8363 8.19446 29.0988C8.17571 28.2129 8.17571 27.7429 8.19446 27.689C8.36556 27.1969 8.93157 27.0105 9.89251 27.1301C10.3917 27.191 10.707 27.464 10.8382 27.9492C11.2156 29.3461 11.5964 30.8531 11.9808 32.4703C12.2034 33.3984 12.3195 34.3242 12.3288 35.2476C12.3359 36.1828 12.33 37.1191 12.3113 38.0566C12.2949 38.9683 12.6781 39.2988 13.4609 39.048C13.5625 39.0149 13.6518 38.9519 13.717 38.8672C13.7823 38.7825 13.8204 38.6801 13.8265 38.5734C13.9249 36.9984 13.9437 35.5558 13.8827 34.2457C13.8382 33.2519 13.6531 31.8761 13.3273 30.1183C13.0742 28.7519 12.8234 27.3832 12.5749 26.0121C12.3335 24.6879 12.2374 23.4351 12.2867 22.2539C12.3452 20.8172 12.4542 19.3828 12.6136 17.9508C12.6164 17.9243 12.6144 17.8974 12.6077 17.8722C12.6009 17.8469 12.5897 17.824 12.5748 17.805C12.5599 17.786 12.5417 17.7716 12.5216 17.7627C12.5016 17.7539 12.4801 17.7508 12.4589 17.7539C12.3464 17.7726 12.2656 17.8605 12.2163 18.0176C12.0171 18.648 11.7288 19.4461 11.3515 20.4117C10.9367 21.4711 10.5382 22.2164 10.1562 22.6476C9.2304 23.6906 7.98353 24.1418 6.41556 24.0011C6.37048 23.9972 6.32508 24.0028 6.28229 24.0175C6.2395 24.0322 6.20027 24.0557 6.16713 24.0865C6.134 24.1173 6.1077 24.1548 6.08993 24.1964C6.07217 24.238 6.06333 24.2829 6.06399 24.3281C6.09446 27.2461 6.23978 30.123 6.49993 32.959C6.56321 33.6504 6.48821 34.3207 6.27493 34.9699C6.23879 35.0831 6.16622 35.1769 6.07103 35.2336C5.67024 35.4679 5.32103 35.4023 5.02337 35.0367C4.96005 34.9555 4.92871 34.8401 4.93548 34.7133C4.96595 34.1156 4.93196 33.0621 4.83353 31.5527C4.56399 27.4488 4.46907 22.4297 4.54876 16.4953C4.56985 14.7445 4.60618 13.7719 4.65774 13.5773C4.92259 12.5789 5.63157 11.7972 6.7847 11.2324C6.83051 11.2107 6.86759 11.1739 6.88992 11.1279C6.91225 11.082 6.91853 11.0296 6.90774 10.9793C6.69446 9.96677 6.55735 9.02927 6.49642 8.16677C6.29954 5.43162 7.56165 4.1742 10.2827 4.39451C11.8788 4.52341 12.8281 5.38005 13.1304 6.96443C13.1509 7.07802 13.2079 7.17977 13.2921 7.25271C14.2765 8.10818 14.1218 8.66834 12.8281 8.93318C12.786 8.94179 12.7461 8.96588 12.7131 9.00263C12.6801 9.03937 12.6553 9.08724 12.6417 9.1406L12.1109 11.264C12.098 11.3171 12.0974 11.3707 12.1092 11.419C12.121 11.4674 12.1447 11.5086 12.1777 11.5383L13.8019 13.0113C13.8352 13.0413 13.8741 13.0646 13.9159 13.0796C13.9578 13.0946 14.0017 13.101 14.0448 13.0983C14.0879 13.0957 14.1292 13.084 14.1661 13.0642C14.203 13.0444 14.2346 13.0168 14.2589 12.9832L15.5245 11.2008C15.5885 11.1116 15.623 10.9984 15.623 10.8773L15.6441 5.21716C15.6464 4.66873 15.9195 4.39451 16.4632 4.39451H23.9269C24.4402 4.39451 24.6968 4.65115 24.6968 5.16443C24.6968 7.32537 24.6968 9.53552 24.6968 11.7949C24.6968 11.8113 24.705 11.9765 24.7214 12.2906C24.7636 13.1179 24.3675 13.5105 23.5331 13.4683C23.2331 13.4543 23.0714 13.4472 23.048 13.4472C22.1714 13.4472 21.1976 13.4472 20.1265 13.4472C20.0331 13.4471 19.9412 13.4709 19.8593 13.5164C19.7775 13.562 19.7085 13.6277 19.6589 13.7074C19.1222 14.5676 18.6195 15.3773 18.1507 16.1367C18.1343 16.1601 18.0101 16.3793 17.7781 16.7941C17.0163 18.1488 15.8445 18.709 14.2624 18.4746C14.2298 18.4696 14.1966 18.4716 14.1648 18.4803C14.133 18.489 14.1034 18.5043 14.0778 18.5251C14.0523 18.546 14.0315 18.572 14.0166 18.6015C14.0018 18.6309 13.9933 18.6631 13.9917 18.6961C13.9331 20.0039 13.8734 21.2496 13.8124 22.4332C13.7609 23.4691 13.8253 24.4875 14.0058 25.4883C14.3433 27.3445 14.6843 29.2008 15.0288 31.057C15.2843 32.4468 15.4331 33.7242 15.4753 34.889C15.5386 36.6515 15.507 37.9418 15.3804 38.7597C15.2304 39.723 14.7288 40.3101 13.8757 40.5211C13.1468 40.7015 12.4742 40.6043 11.8577 40.2293C11.1617 39.8051 10.8277 39.1242 10.8558 38.1867C10.8745 37.5726 10.8827 37.2527 10.8804 37.2269C10.8499 36.3527 10.8148 35.4797 10.7749 34.6078C10.7398 33.839 10.6284 33.1019 10.4409 32.3965C10.2488 31.6722 10.0449 30.9515 9.82923 30.2344ZM20.5976 7.97341C21.7273 8.74451 21.8574 9.97029 20.9878 11.6508C20.9737 11.6775 20.9664 11.7075 20.9664 11.7377C20.9664 11.768 20.9739 11.7975 20.9881 11.8233C21.0022 11.8492 21.0226 11.8705 21.0472 11.8852C21.0718 11.9 21.0998 11.9076 21.1284 11.9074L23.0058 11.8617C23.0298 11.8613 23.0535 11.8559 23.0755 11.8459C23.0975 11.836 23.1174 11.8216 23.1341 11.8037C23.1507 11.7857 23.1638 11.7645 23.1726 11.7413C23.1813 11.7181 23.1856 11.6933 23.1851 11.6683L23.1429 6.04334C23.1429 5.99672 23.1236 5.952 23.0894 5.91904C23.0551 5.88607 23.0086 5.86755 22.9601 5.86755L17.4195 5.90974C17.3679 5.90964 17.3183 5.92764 17.2815 5.95986C17.2447 5.99208 17.2235 6.03594 17.2226 6.08201L17.1488 8.50076C17.1347 8.95545 17.2484 8.98357 17.4898 8.58513C17.8343 8.02029 18.3347 7.68748 18.9909 7.58669C19.5605 7.50232 20.096 7.63123 20.5976 7.97341ZM10.571 5.95193C9.46478 5.61912 8.62689 5.87927 8.05735 6.7324C7.76673 7.16599 7.88274 7.38279 8.4054 7.38279H11.3691C11.407 7.38282 11.4444 7.37423 11.4784 7.35767C11.5125 7.34111 11.5424 7.31701 11.5657 7.2872C11.5891 7.25738 11.6054 7.22264 11.6133 7.1856C11.6213 7.14856 11.6207 7.1102 11.6117 7.07341C11.464 6.49216 11.1171 6.11834 10.571 5.95193ZM9.06634 10.9933C9.41556 11.2043 9.76946 11.2113 10.1281 11.0144C10.7421 10.6769 11.0585 10.0652 11.0773 9.17927C11.0782 9.13991 11.0712 9.10076 11.0566 9.06412C11.042 9.02748 11.0201 8.9941 10.9923 8.96593C10.9644 8.93776 10.9312 8.91537 10.8945 8.90009C10.8577 8.8848 10.8183 8.87693 10.7784 8.87693H8.41946C8.3793 8.87686 8.33955 8.88498 8.3027 8.90078C8.26584 8.91658 8.23268 8.93973 8.20529 8.96877C8.1779 8.99781 8.15687 9.03212 8.14351 9.06955C8.13016 9.10698 8.12476 9.14673 8.12767 9.1863C8.17689 10.0465 8.48978 10.6488 9.06634 10.9933ZM10.0156 15.5109C10.2921 15.0375 10.6718 14.9297 11.1546 15.1875C11.9937 15.6351 12.8175 16.0652 13.6261 16.4777C13.6495 16.4894 13.8171 16.5867 14.1288 16.7695C14.9421 17.2383 15.63 17.1047 16.1925 16.3687C16.6378 15.7875 17.8425 13.841 19.8066 10.5293C19.987 10.2222 20.0855 9.97029 20.1019 9.77341C20.137 9.33748 19.9202 9.10193 19.4515 9.06677C19.3191 9.05722 19.1866 9.08161 19.0666 9.13762C18.9466 9.19362 18.8431 9.27937 18.7659 9.3867L14.9163 14.6601C14.5999 15.0937 14.2402 15.1594 13.837 14.857L11.1863 12.8636C11.0086 12.7292 10.8069 12.6562 10.6132 12.6562C9.57259 12.6562 8.58353 12.6703 7.64603 12.6984C7.11399 12.7125 6.71087 12.8965 6.43665 13.2504C6.25149 13.4871 6.14603 13.8761 6.12024 14.4176C6.01243 16.8996 6.03118 19.5129 6.17649 22.2574C6.1792 22.3202 6.20621 22.3797 6.25198 22.4235C6.29774 22.4673 6.35879 22.4921 6.42259 22.4929C8.03509 22.5164 9.08157 21.9304 9.56204 20.7351C10.0402 19.5375 10.4831 18.4207 10.8909 17.3847C10.9454 17.243 10.9473 17.0866 10.8963 16.9444C10.8452 16.8023 10.7447 16.684 10.6132 16.6113C9.98978 16.2621 9.79056 15.8953 10.0156 15.5109Z" fill="black"/>
<path d="M35.3538 36.3199C35.3398 37.3746 35.3269 38.4293 35.3151 39.484C35.3105 39.8871 35.2284 40.1871 35.0691 40.384C34.7667 40.7566 34.4023 40.7203 33.9757 40.275C33.9079 40.2029 33.8678 40.0937 33.8632 39.9691L33.7401 36.3199C33.7397 36.2959 33.7344 36.2722 33.7246 36.2502C33.7149 36.2282 33.7007 36.2083 33.6831 36.1917C33.6655 36.175 33.6447 36.1619 33.6219 36.1532C33.5991 36.1444 33.5748 36.1402 33.5503 36.1406L28.0132 36.1828C27.9674 36.183 27.9234 36.202 27.89 36.236C27.8567 36.27 27.8366 36.3164 27.8339 36.3656L27.6968 39.9867C27.6922 40.1093 27.6499 40.2212 27.5773 40.3031C27.1788 40.7555 26.7898 40.7496 26.4101 40.2856C26.3351 40.1968 26.294 40.0847 26.2941 39.9691L26.2554 36.3691C26.2554 36.3368 26.2493 36.3048 26.2374 36.275C26.2256 36.2451 26.2083 36.218 26.1864 36.1951C26.1645 36.1723 26.1385 36.1542 26.11 36.1418C26.0814 36.1294 26.0508 36.1231 26.0198 36.1231H20.4898C20.453 36.123 20.4166 36.1303 20.3827 36.1445C20.3487 36.1587 20.3179 36.1795 20.2921 36.2056C20.2663 36.2318 20.2459 36.2628 20.2321 36.2969C20.2184 36.331 20.2116 36.3675 20.212 36.4043C20.2237 37.4988 20.2214 38.4926 20.205 39.3856C20.198 39.7934 20.123 40.1063 19.98 40.3242C19.6776 40.793 19.2956 40.7578 18.8339 40.2188C18.761 40.1323 18.72 40.0205 18.7179 39.9023C18.5796 33.2531 18.5784 26.7 18.7144 20.243C18.7261 19.7602 18.9687 19.5188 19.4421 19.5188H25.8792C25.9297 19.5183 25.9795 19.5079 26.0258 19.4881C26.072 19.4684 26.1136 19.4397 26.1481 19.4039C26.1826 19.368 26.2093 19.3258 26.2266 19.2797C26.2438 19.2335 26.2512 19.1845 26.2483 19.1356C26.1663 17.3496 26.171 15.5109 26.2624 13.6195C26.2624 13.6031 26.2542 13.3699 26.2378 12.9199C26.212 12.2356 26.5847 11.8852 27.3558 11.8688C29.8401 11.8148 32.2226 11.8383 34.503 11.9391C35.0562 11.9648 35.3327 12.2543 35.3327 12.8074V19.2797C35.3327 19.3115 35.3391 19.343 35.3516 19.3723C35.3641 19.4016 35.3824 19.4281 35.4054 19.4501C35.4284 19.4721 35.4556 19.4892 35.4854 19.5004C35.5152 19.5116 35.547 19.5167 35.5788 19.5152C36.8679 19.4613 38.1265 19.4578 39.3546 19.5047C39.364 19.5047 39.4964 19.5047 39.7519 19.5047C40.4526 19.5023 40.7175 19.8164 40.5464 20.4469C40.5029 20.6081 40.4083 20.7505 40.2772 20.8516C40.1462 20.9527 39.9862 21.007 39.8222 21.0059L35.5718 20.9848C35.5482 20.9848 35.5249 20.9893 35.5032 20.9982C35.4814 21.007 35.4617 21.0199 35.445 21.0363C35.4284 21.0526 35.4151 21.072 35.4061 21.0933C35.3971 21.1146 35.3925 21.1375 35.3925 21.1606L35.3398 26.8066C35.3393 26.8411 35.3459 26.8753 35.3593 26.9072C35.3727 26.9392 35.3926 26.9683 35.4178 26.9928C35.443 27.0174 35.473 27.0368 35.506 27.0501C35.5391 27.0634 35.5746 27.0703 35.6105 27.0703H39.9101C40.0442 27.0705 40.175 27.1126 40.2841 27.1908C40.3931 27.2689 40.475 27.3792 40.5183 27.5063C40.6683 27.9563 40.5687 28.268 40.2194 28.4414C40.053 28.5234 39.7776 28.5645 39.3933 28.5645C38.0995 28.5645 36.8128 28.5645 35.5331 28.5645C35.4809 28.5645 35.4308 28.5848 35.3939 28.6211C35.357 28.6574 35.3362 28.7065 35.3362 28.7578L35.3925 34.3898C35.3925 34.4359 35.4113 34.4801 35.4448 34.5129C35.4784 34.5458 35.5239 34.5647 35.5718 34.5656L40.0788 34.7098C40.1361 34.712 40.1918 34.726 40.2421 34.7509C40.2925 34.7758 40.3363 34.8109 40.3706 34.8539C40.6847 35.2594 40.6753 35.5992 40.3425 35.8734C40.1644 36.0234 39.896 36.1008 39.5374 36.1055C38.2015 36.1172 36.8655 36.1301 35.5296 36.1441C35.483 36.1441 35.4383 36.1627 35.4053 36.1956C35.3723 36.2286 35.3538 36.2733 35.3538 36.3199ZM33.8351 13.6652C33.8351 13.6074 33.8121 13.552 33.7712 13.5111C33.7303 13.4702 33.6749 13.4473 33.6171 13.4473H27.9921C27.9343 13.4473 27.8788 13.4702 27.838 13.5111C27.7971 13.552 27.7741 13.6074 27.7741 13.6652V19.2762C27.7741 19.334 27.7971 19.3894 27.838 19.4303C27.8788 19.4712 27.9343 19.4941 27.9921 19.4941H33.6171C33.6749 19.4941 33.7303 19.4712 33.7712 19.4303C33.8121 19.3894 33.8351 19.334 33.8351 19.2762V13.6652ZM26.2235 21.1008C26.2235 21.0883 26.2211 21.0759 26.2164 21.0644C26.2116 21.0529 26.2047 21.0424 26.1959 21.0335C26.1871 21.0247 26.1767 21.0176 26.1652 21.0128C26.1537 21.008 26.1413 21.0055 26.1289 21.0055L20.314 20.9852C20.2889 20.9851 20.2647 20.995 20.2468 21.0128C20.229 21.0305 20.2189 21.0546 20.2188 21.0798L20.1982 26.9649C20.1982 26.9774 20.2006 26.9897 20.2053 27.0012C20.2101 27.0128 20.217 27.0233 20.2258 27.0321C20.2346 27.041 20.245 27.048 20.2565 27.0528C20.268 27.0576 20.2804 27.0601 20.2928 27.0602L26.1077 27.0804C26.1328 27.0805 26.157 27.0706 26.1749 27.0529C26.1927 27.0351 26.2028 27.011 26.2029 26.9859L26.2235 21.1008ZM33.8351 21.2625C33.8351 21.1926 33.8073 21.1255 33.7578 21.0761C33.7084 21.0266 33.6413 20.9988 33.5714 20.9988H28.0308C27.9608 20.9988 27.8938 21.0266 27.8443 21.0761C27.7949 21.1255 27.7671 21.1926 27.7671 21.2625V26.8031C27.7671 26.8731 27.7949 26.9401 27.8443 26.9896C27.8938 27.039 27.9608 27.0668 28.0308 27.0668H33.5714C33.6413 27.0668 33.7084 27.039 33.7578 26.9896C33.8073 26.9401 33.8351 26.8731 33.8351 26.8031V21.2625ZM26.2112 28.7209C26.2112 28.701 26.2073 28.6814 26.1998 28.663C26.1922 28.6446 26.1811 28.628 26.1671 28.6139C26.1531 28.5998 26.1364 28.5887 26.1181 28.5811C26.0998 28.5734 26.0801 28.5695 26.0603 28.5694L20.365 28.5595C20.3451 28.5595 20.3255 28.5633 20.3071 28.5709C20.2888 28.5785 20.2721 28.5896 20.258 28.6036C20.2439 28.6176 20.2328 28.6342 20.2251 28.6526C20.2175 28.6709 20.2136 28.6905 20.2135 28.7104L20.2035 34.469C20.2034 34.4888 20.2073 34.5085 20.2149 34.5269C20.2225 34.5452 20.2336 34.5619 20.2476 34.576C20.2616 34.59 20.2782 34.6012 20.2966 34.6088C20.3149 34.6164 20.3345 34.6204 20.3544 34.6204L26.0497 34.6304C26.0695 34.6304 26.0892 34.6265 26.1076 34.619C26.1259 34.6114 26.1426 34.6003 26.1567 34.5863C26.1707 34.5723 26.1819 34.5556 26.1895 34.5373C26.1971 34.519 26.2011 34.4993 26.2011 34.4795L26.2112 28.7209ZM33.8329 28.7877C33.833 28.7299 33.8101 28.6744 33.7693 28.6335C33.7285 28.5925 33.6731 28.5695 33.6153 28.5694L27.9974 28.5596C27.9687 28.5595 27.9404 28.5651 27.9139 28.576C27.8875 28.5869 27.8634 28.6029 27.8431 28.6231C27.8229 28.6433 27.8068 28.6673 27.7958 28.6938C27.7848 28.7202 27.7791 28.7485 27.779 28.7772L27.7692 34.3881C27.7691 34.4459 27.792 34.5014 27.8328 34.5423C27.8736 34.5832 27.929 34.6063 27.9868 34.6064L33.6048 34.6162C33.6334 34.6163 33.6618 34.6107 33.6882 34.5998C33.7147 34.5889 33.7388 34.5729 33.759 34.5527C33.7793 34.5324 33.7954 34.5084 33.8064 34.482C33.8174 34.4556 33.8231 34.4273 33.8231 34.3986L33.8329 28.7877Z" fill="black"/>
<path d="M5.15 38.366C5.55968 38.366 5.8918 38.0339 5.8918 37.6242C5.8918 37.2146 5.55968 36.8824 5.15 36.8824C4.74032 36.8824 4.4082 37.2146 4.4082 37.6242C4.4082 38.0339 4.74032 38.366 5.15 38.366Z" fill="black"/>
</svg>
