<svg width="45" height="45" viewBox="0 0 45 45" fill="none" xmlns="http://www.w3.org/2000/svg">
<path d="M32.7305 16.2211L32.7234 25.4883C32.7235 25.5301 32.7331 25.5713 32.7516 25.6091C32.7701 25.6468 32.797 25.6803 32.8304 25.707C32.8639 25.7338 32.903 25.7532 32.9453 25.764C32.9875 25.7748 33.0318 25.7767 33.075 25.7696C34.1438 25.6008 34.9945 25.8891 35.6273 26.6344C35.7678 26.7979 35.8452 27.0202 35.8453 27.2602V40.8094C35.8453 41.7235 35.3836 42.1805 34.4602 42.1805L7.76953 42.1735C6.80859 42.1735 6.32812 41.693 6.32812 40.7321C6.32812 36.5227 6.32812 32.2453 6.32812 27.9C6.32812 26.4727 6.98203 25.4602 8.52891 25.9594C8.59965 25.9816 8.67463 25.987 8.74774 25.9752C8.82085 25.9634 8.89003 25.9348 8.94965 25.8916C9.00926 25.8485 9.05763 25.792 9.09082 25.7268C9.124 25.6616 9.14107 25.5895 9.14062 25.5164L9.12656 16.2141C9.12643 16.0939 9.0956 15.9791 9.03862 15.8867C8.98164 15.7942 8.90154 15.7291 8.81016 15.7008C8.59453 15.6305 8.37422 15.6375 8.14922 15.7219C8.04338 15.7615 7.93321 15.7747 7.83295 15.7596C7.73268 15.7446 7.64691 15.7021 7.58672 15.6375C6.73359 14.7422 7.10859 14.3063 8.71172 14.3297C8.7613 14.3307 8.81056 14.3224 8.85663 14.3055C8.9027 14.2887 8.94464 14.2634 8.98001 14.2313C9.01537 14.1992 9.04343 14.161 9.06256 14.1187C9.08169 14.0764 9.0915 14.031 9.09141 13.9852V10.1039C9.09092 10.015 9.05112 9.92942 8.98035 9.8652C8.90958 9.80098 8.81332 9.76307 8.71172 9.7594C7.68047 9.71721 7.07344 9.22502 6.89063 8.28284C6.84527 8.07126 6.8933 7.83618 7.02422 7.62893C8.05547 5.93674 9.26484 4.40627 10.6523 3.03752C10.8101 2.88443 11.027 2.79868 11.257 2.79846L30.8883 2.81956C31.0303 2.81948 31.1716 2.85373 31.3009 2.91961C31.4302 2.98549 31.5441 3.0812 31.6336 3.19924L34.7344 7.34065C34.8852 7.5414 34.9692 7.75894 34.9734 7.9594C35.0109 9.14534 34.3969 9.74299 33.1312 9.75237C33.0318 9.75217 32.9363 9.78668 32.8653 9.84848C32.7943 9.91028 32.7534 9.99443 32.7516 10.0828L32.7094 13.8516C32.7092 13.9526 32.745 14.0516 32.8112 14.133C32.8773 14.2144 32.9701 14.2737 33.075 14.3016C33.7031 14.475 34.1766 14.5383 34.4953 14.4914C35.4984 14.3367 36.0094 14.7797 36.0281 15.8203L36.0914 19.4063C36.0928 19.5144 36.1323 19.6178 36.2017 19.695C36.271 19.7722 36.365 19.8174 36.4641 19.8211L37.7789 19.8633C37.916 19.8699 38.0419 19.8904 38.1476 19.9232C38.2533 19.956 38.3363 20.0004 38.3906 20.0532C39.9023 21.5438 36 21.5016 35.2969 20.8899C34.2281 19.9547 34.65 17.5992 34.6148 16.2071C34.6124 16.0951 34.5794 15.9878 34.5203 15.8998C34.4612 15.8117 34.3788 15.7472 34.2844 15.7149C33.8719 15.5742 33.4641 15.5766 33.0609 15.7219C32.9647 15.7547 32.8811 15.8204 32.8218 15.91C32.7625 15.9995 32.7306 16.1083 32.7305 16.2211ZM8.76094 8.30393L33.0328 8.24065C33.3 8.24065 33.3633 8.13752 33.2227 7.93127L30.8672 4.53518C30.8085 4.45285 30.7248 4.38556 30.6232 4.33904C30.5216 4.29252 30.4051 4.26814 30.2836 4.26799L11.4187 4.27502C11.3143 4.2749 11.2095 4.30227 11.1128 4.35486C11.0162 4.40745 10.9307 4.48374 10.8633 4.57737L8.52891 7.82581C8.29922 8.14456 8.37656 8.30393 8.76094 8.30393ZM11.6156 10.0547C11.6156 9.91858 11.5615 9.78803 11.4653 9.69177C11.369 9.59551 11.2385 9.54143 11.1023 9.54143H11.0602C10.924 9.54143 10.7935 9.59551 10.6972 9.69177C10.601 9.78803 10.5469 9.91858 10.5469 10.0547V25.4672C10.5469 25.6033 10.601 25.7339 10.6972 25.8302C10.7935 25.9264 10.924 25.9805 11.0602 25.9805H11.1023C11.2385 25.9805 11.369 25.9264 11.4653 25.8302C11.5615 25.7339 11.6156 25.6033 11.6156 25.4672V10.0547ZM31.3227 10.1623C31.3232 10.0113 31.2637 9.86619 31.1573 9.75902C31.0509 9.65184 30.9062 9.59133 30.7552 9.59079L30.713 9.59065C30.6382 9.59038 30.5641 9.60485 30.4949 9.63322C30.4257 9.6616 30.3628 9.70332 30.3097 9.75602C30.2566 9.80871 30.2144 9.87135 30.1856 9.94035C30.1567 10.0093 30.1417 10.0833 30.1414 10.1581L30.0883 25.4018C30.0877 25.5529 30.1472 25.6979 30.2537 25.8051C30.3601 25.9123 30.5047 25.9728 30.6558 25.9733L30.6979 25.9735C30.7727 25.9737 30.8468 25.9593 30.916 25.9309C30.9853 25.9025 31.0482 25.8608 31.1013 25.8081C31.1543 25.7554 31.1965 25.6928 31.2254 25.6238C31.2543 25.5548 31.2692 25.4808 31.2695 25.406L31.3227 10.1623ZM13.1555 9.86487C13.0711 10.4696 12.4594 14.8571 13.8023 14.4211C13.8875 14.3953 13.9678 14.3351 14.0347 14.2472C14.1016 14.1592 14.1526 14.0468 14.182 13.9219C14.4492 12.8438 14.9953 12.3047 15.8203 12.3047C19.1578 12.3094 22.4977 12.3071 25.8398 12.2977C26.7164 12.2977 27.3211 12.7852 27.6539 13.7602C27.7439 14.0215 27.8753 14.2212 28.0195 14.3156C29.257 15.1242 28.7648 10.4203 28.6945 10.0266C28.6765 9.92977 28.6251 9.84231 28.5493 9.77939C28.4736 9.71646 28.3782 9.68203 28.2797 9.68206L13.3664 9.67502C13.316 9.67483 13.2671 9.69387 13.2284 9.72869C13.1897 9.76351 13.1638 9.81181 13.1555 9.86487ZM16.8614 14.1349C16.8595 14.0768 16.8463 14.0196 16.8223 13.9666C16.7984 13.9136 16.7642 13.8658 16.7218 13.8259C16.6794 13.7861 16.6296 13.755 16.5752 13.7345C16.5208 13.7139 16.4628 13.7043 16.4047 13.7061L16.0533 13.7171C15.9952 13.719 15.938 13.7322 15.885 13.7562C15.8319 13.7801 15.7841 13.8143 15.7443 13.8567C15.7045 13.8991 15.6734 13.9489 15.6529 14.0033C15.6323 14.0578 15.6227 14.1157 15.6245 14.1738L15.6793 15.9167C15.6811 15.9748 15.6944 16.032 15.7183 16.085C15.7422 16.1381 15.7764 16.1858 15.8188 16.2257C15.8612 16.2655 15.911 16.2966 15.9654 16.3171C16.0199 16.3377 16.0778 16.3473 16.1359 16.3455L16.4873 16.3345C16.5454 16.3326 16.6027 16.3194 16.6557 16.2954C16.7087 16.2715 16.7565 16.2373 16.7963 16.1949C16.8361 16.1525 16.8672 16.1027 16.8878 16.0483C16.9083 15.9939 16.918 15.9359 16.9161 15.8778L16.8614 14.1349ZM20.2033 14.0582C20.2015 13.9612 20.1612 13.869 20.0913 13.8017C20.0215 13.7345 19.9277 13.6977 19.8308 13.6996L18.6216 13.7228C18.5247 13.7247 18.4324 13.765 18.3652 13.8348C18.2979 13.9047 18.2612 13.9984 18.263 14.0954L18.2998 16.0075C18.3017 16.1045 18.3419 16.1967 18.4118 16.264C18.4817 16.3312 18.5754 16.3679 18.6723 16.3661L19.8815 16.3428C19.9784 16.341 20.0707 16.3007 20.1379 16.2308C20.2052 16.161 20.2419 16.0673 20.2401 15.9703L20.2033 14.0582ZM23.8958 14.111C23.8936 13.9991 23.8471 13.8927 23.7665 13.8151C23.6859 13.7375 23.5777 13.6952 23.4659 13.6973L22.0177 13.7251C21.9623 13.7262 21.9077 13.7381 21.8569 13.7603C21.8062 13.7825 21.7603 13.8144 21.7218 13.8544C21.6834 13.8943 21.6532 13.9414 21.633 13.993C21.6128 14.0445 21.6029 14.0996 21.604 14.155L21.6386 15.9547C21.6408 16.0666 21.6873 16.173 21.7679 16.2506C21.8485 16.3281 21.9566 16.3705 22.0685 16.3684L23.5166 16.3406C23.572 16.3395 23.6267 16.3276 23.6775 16.3054C23.7282 16.2832 23.7741 16.2512 23.8125 16.2113C23.851 16.1714 23.8811 16.1243 23.9014 16.0727C23.9216 16.0211 23.9314 15.9661 23.9304 15.9107L23.8958 14.111ZM25.6992 16.3547C26.7328 16.2985 26.5289 14.2453 25.7273 13.8094C25.6902 13.7887 25.6483 13.7781 25.6058 13.7784C25.5633 13.7787 25.5216 13.7901 25.4848 13.8113C25.448 13.8326 25.4173 13.863 25.3957 13.8996C25.3742 13.9362 25.3624 13.9778 25.3617 14.0203L25.3195 15.9399C25.3188 15.9959 25.3283 16.0516 25.3473 16.1034C25.3663 16.1553 25.3946 16.2021 25.4302 16.241C25.4658 16.28 25.5081 16.3102 25.5544 16.3297C25.6007 16.3493 25.65 16.3578 25.6992 16.3547ZM23.4633 17.8172C21.3891 17.775 14.8078 18.6399 14.2102 16.1086C14.1825 15.9885 14.1323 15.8802 14.0653 15.7958C13.9982 15.7114 13.917 15.6542 13.8305 15.6305C12.3328 15.2367 13.1133 24.3633 13.1977 25.4742C13.203 25.5682 13.2444 25.6567 13.3135 25.722C13.3827 25.7872 13.4744 25.8243 13.5703 25.8258L23.4563 25.8821C23.5049 25.883 23.5532 25.8748 23.5984 25.8579C23.6436 25.841 23.6848 25.8158 23.7195 25.7837C23.7542 25.7516 23.7818 25.7133 23.8006 25.671C23.8193 25.6288 23.829 25.5834 23.8289 25.5375L23.8359 18.1758C23.8358 18.0819 23.7967 17.9918 23.7271 17.9247C23.6574 17.8577 23.5627 17.8191 23.4633 17.8172ZM25.6289 25.8821L28.4555 25.8328C28.55 25.831 28.6402 25.7919 28.7071 25.7237C28.774 25.6555 28.8123 25.5636 28.8141 25.4672C28.8211 24.4547 29.3203 15.0117 28.0687 15.6657C27.9865 15.708 27.9087 15.7759 27.8398 15.8653C27.771 15.9547 27.7125 16.0638 27.668 16.186C27.3539 17.0719 26.7047 17.6063 25.7203 17.7891C25.6194 17.8087 25.5284 17.8594 25.4629 17.9326C25.3975 18.0057 25.3617 18.0967 25.3617 18.1899L25.3266 25.5938C25.3265 25.6322 25.3344 25.6703 25.3496 25.7057C25.3649 25.7412 25.3873 25.7733 25.4155 25.8001C25.4436 25.827 25.477 25.8481 25.5137 25.8622C25.5503 25.8762 25.5895 25.883 25.6289 25.8821ZM10.3465 27.6314C10.3452 27.576 10.3331 27.5214 10.3107 27.4707C10.2884 27.42 10.2563 27.3742 10.2162 27.3359C10.1762 27.2976 10.129 27.2676 10.0773 27.2476C10.0257 27.2275 9.97057 27.2179 9.91519 27.2191L8.12967 27.2596C8.07428 27.2609 8.01969 27.273 7.969 27.2954C7.91831 27.3178 7.87252 27.3499 7.83425 27.3899C7.79597 27.43 7.76596 27.4772 7.74593 27.5289C7.7259 27.5805 7.71624 27.6356 7.7175 27.691L7.75195 29.2093C7.7532 29.2647 7.76535 29.3193 7.7877 29.37C7.81006 29.4207 7.84217 29.4665 7.88222 29.5048C7.92227 29.543 7.96947 29.5731 8.02112 29.5931C8.07277 29.6131 8.12786 29.6228 8.18325 29.6216L9.96877 29.5811C10.0242 29.5798 10.0788 29.5676 10.1294 29.5453C10.1801 29.5229 10.2259 29.4908 10.2642 29.4507C10.3025 29.4107 10.3325 29.3635 10.3525 29.3118C10.3725 29.2602 10.3822 29.2051 10.3809 29.1497L10.3465 27.6314ZM17.0522 27.6112C17.0531 27.5235 17.0192 27.4391 16.9579 27.3765C16.8965 27.3139 16.8129 27.2782 16.7252 27.2773L12.1271 27.2291C12.0837 27.2286 12.0406 27.2367 12.0003 27.2529C11.9601 27.2691 11.9234 27.2931 11.8924 27.3235C11.8614 27.3538 11.8367 27.39 11.8196 27.4299C11.8026 27.4698 11.7936 27.5127 11.7932 27.5561L11.7759 29.2014C11.775 29.289 11.8089 29.3734 11.8703 29.436C11.9316 29.4987 12.0153 29.5344 12.1029 29.5353L16.701 29.5834C16.7444 29.5839 16.7875 29.5758 16.8278 29.5596C16.868 29.5434 16.9047 29.5195 16.9357 29.4891C16.9667 29.4587 16.9915 29.4226 17.0085 29.3826C17.0255 29.3427 17.0345 29.2998 17.035 29.2564L17.0522 27.6112ZM23.7838 27.5392C23.7836 27.5004 23.7759 27.462 23.7609 27.4262C23.7459 27.3904 23.7241 27.358 23.6966 27.3306C23.669 27.3033 23.6364 27.2817 23.6005 27.2669C23.5646 27.2522 23.5262 27.2447 23.4874 27.2449L18.7484 27.2614C18.7096 27.2616 18.6712 27.2693 18.6355 27.2843C18.5997 27.2993 18.5672 27.3211 18.5399 27.3486C18.5125 27.3762 18.4909 27.4088 18.4762 27.4447C18.4615 27.4805 18.4539 27.519 18.4541 27.5577L18.46 29.2452C18.4601 29.284 18.4679 29.3224 18.4828 29.3582C18.4978 29.394 18.5197 29.4265 18.5472 29.4538C18.5747 29.4811 18.6074 29.5028 18.6432 29.5175C18.6791 29.5322 18.7176 29.5397 18.7564 29.5396L23.4953 29.523C23.5341 29.5229 23.5725 29.5151 23.6083 29.5001C23.6441 29.4852 23.6765 29.4633 23.7039 29.4358C23.7312 29.4083 23.7528 29.3756 23.7676 29.3398C23.7823 29.3039 23.7898 29.2655 23.7897 29.2267L23.7838 27.5392ZM30.4561 27.6558C30.4575 27.5607 30.4209 27.469 30.3547 27.4009C30.2884 27.3327 30.1977 27.2936 30.1026 27.2923L25.5187 27.2283C25.4716 27.2276 25.4248 27.2362 25.381 27.2536C25.3373 27.271 25.2974 27.2969 25.2636 27.3298C25.2299 27.3626 25.2029 27.4017 25.1843 27.445C25.1656 27.4883 25.1557 27.5348 25.1551 27.5819L25.1329 29.1708C25.1316 29.2659 25.1681 29.3576 25.2344 29.4257C25.3007 29.4939 25.3914 29.533 25.4865 29.5343L30.0704 29.5984C30.1175 29.599 30.1643 29.5904 30.208 29.573C30.2518 29.5556 30.2917 29.5297 30.3254 29.4969C30.3592 29.464 30.3862 29.4249 30.4048 29.3816C30.4234 29.3383 30.4333 29.2918 30.434 29.2448L30.4561 27.6558ZM34.4808 27.6066C34.4836 27.5227 34.453 27.4412 34.3956 27.3799C34.3383 27.3186 34.259 27.2827 34.1751 27.2799L32.1793 27.2136C32.0954 27.2109 32.0139 27.2415 31.9526 27.2989C31.8914 27.3562 31.8554 27.4356 31.8526 27.5194L31.7957 29.2341C31.7929 29.3179 31.8236 29.3995 31.8809 29.4608C31.9383 29.522 32.0176 29.558 32.1015 29.5608L34.0973 29.627C34.1811 29.6298 34.2627 29.5991 34.3239 29.5418C34.3852 29.4845 34.4212 29.4051 34.4239 29.3213L34.4808 27.6066ZM13.3539 31.3749C13.353 31.2537 13.3041 31.1378 13.2178 31.0527C13.1315 30.9676 13.0149 30.9203 12.8937 30.9211L8.1829 30.954C8.12287 30.9544 8.06352 30.9666 8.00822 30.99C7.95293 31.0133 7.90277 31.0474 7.86063 31.0901C7.81848 31.1328 7.78517 31.1835 7.76259 31.2391C7.74001 31.2947 7.72861 31.3542 7.72903 31.4142L7.73986 32.961C7.74071 33.0822 7.78968 33.1981 7.87598 33.2832C7.96228 33.3683 8.07885 33.4157 8.20005 33.4148L12.9109 33.382C12.9709 33.3816 13.0302 33.3694 13.0855 33.346C13.1408 33.3227 13.191 33.2886 13.2331 33.2459C13.2753 33.2031 13.3086 33.1525 13.3312 33.0969C13.3537 33.0413 13.3651 32.9818 13.3647 32.9217L13.3539 31.3749ZM20.3836 31.3032C20.3836 31.2062 20.3451 31.1132 20.2765 31.0446C20.2079 30.976 20.1149 30.9375 20.018 30.9375H15.1242C15.0272 30.9375 14.9343 30.976 14.8657 31.0446C14.7971 31.1132 14.7586 31.2062 14.7586 31.3032V33.0328C14.7586 33.0809 14.7681 33.1284 14.7864 33.1728C14.8048 33.2171 14.8317 33.2574 14.8657 33.2914C14.8996 33.3253 14.9399 33.3523 14.9843 33.3706C15.0287 33.389 15.0762 33.3985 15.1242 33.3985H20.018C20.066 33.3985 20.1135 33.389 20.1579 33.3706C20.2022 33.3523 20.2426 33.3253 20.2765 33.2914C20.3105 33.2574 20.3374 33.2171 20.3558 33.1728C20.3741 33.1284 20.3836 33.0809 20.3836 33.0328V31.3032ZM27.4091 31.3328C27.4088 31.2774 27.3975 31.2226 27.3759 31.1716C27.3543 31.1206 27.3229 31.0743 27.2835 31.0354C27.2441 30.9965 27.1973 30.9657 27.146 30.9449C27.0947 30.924 27.0397 30.9135 26.9843 30.9139L22.2173 30.9472C22.1619 30.9475 22.1071 30.9588 22.0561 30.9804C22.005 31.002 21.9587 31.0334 21.9198 31.0728C21.8809 31.1123 21.8502 31.159 21.8293 31.2103C21.8085 31.2616 21.798 31.3166 21.7984 31.372L21.8096 32.9891C21.81 33.0445 21.8213 33.0993 21.8428 33.1503C21.8644 33.2014 21.8958 33.2477 21.9353 33.2866C21.9747 33.3255 22.0214 33.3562 22.0728 33.377C22.1241 33.3979 22.179 33.4084 22.2344 33.408L27.0015 33.3748C27.0569 33.3744 27.1117 33.3631 27.1627 33.3415C27.2137 33.32 27.26 33.2886 27.2989 33.2491C27.3378 33.2097 27.3686 33.1629 27.3894 33.1116C27.4103 33.0603 27.4208 33.0053 27.4204 32.9499L27.4091 31.3328ZM34.4516 31.3264C34.4516 31.2746 34.4413 31.2235 34.4214 31.1757C34.4015 31.128 34.3725 31.0846 34.3358 31.0481C34.2992 31.0116 34.2557 30.9827 34.2079 30.963C34.1601 30.9433 34.1089 30.9332 34.0572 30.9333L29.2198 30.9417C29.1681 30.9418 29.1169 30.9521 29.0691 30.972C29.0214 30.9918 28.978 31.0209 28.9415 31.0575C28.905 31.0942 28.8761 31.1376 28.8564 31.1854C28.8367 31.2333 28.8266 31.2845 28.8266 31.3362L28.8296 33.0096C28.8297 33.0613 28.84 33.1125 28.8598 33.1603C28.8797 33.208 28.9088 33.2514 28.9454 33.2879C28.9821 33.3243 29.0255 33.3533 29.0733 33.373C29.1211 33.3927 29.1723 33.4028 29.2241 33.4027L34.0615 33.3942C34.1132 33.3942 34.1644 33.3839 34.2121 33.364C34.2599 33.3442 34.3032 33.3151 34.3397 33.2784C34.3763 33.2418 34.4052 33.1984 34.4249 33.1505C34.4446 33.1027 34.4547 33.0515 34.4546 32.9998L34.4516 31.3264ZM10.366 35.1582C10.3675 35.037 10.3208 34.9202 10.2361 34.8335C10.1515 34.7467 10.0358 34.6971 9.91462 34.6957L8.2132 34.6748C8.15318 34.6741 8.09361 34.6852 8.03788 34.7075C7.98215 34.7298 7.93135 34.7628 7.8884 34.8048C7.84544 34.8467 7.81116 34.8967 7.78752 34.9518C7.76388 35.007 7.75134 35.0663 7.75062 35.1263L7.73241 36.6168C7.73092 36.738 7.77765 36.8548 7.8623 36.9416C7.94696 37.0283 8.06261 37.0779 8.18381 37.0794L9.88523 37.1002C9.94525 37.1009 10.0048 37.0898 10.0606 37.0676C10.1163 37.0453 10.1671 37.0122 10.21 36.9703C10.253 36.9284 10.2873 36.8784 10.3109 36.8232C10.3346 36.768 10.3471 36.7087 10.3478 36.6487L10.366 35.1582ZM17.0395 35.0933C17.0389 34.9963 16.9999 34.9035 16.931 34.8353C16.8621 34.7671 16.7689 34.7291 16.6719 34.7296L12.1439 34.7533C12.0959 34.7536 12.0484 34.7633 12.0041 34.7819C11.9598 34.8005 11.9197 34.8276 11.8859 34.8617C11.8521 34.8959 11.8254 34.9363 11.8073 34.9808C11.7891 35.0252 11.7799 35.0728 11.7802 35.1208L11.7887 36.738C11.7892 36.835 11.8282 36.9278 11.8971 36.996C11.966 37.0642 12.0592 37.1022 12.1562 37.1017L16.6842 37.078C16.7323 37.0777 16.7798 37.068 16.824 37.0494C16.8683 37.0308 16.9084 37.0037 16.9422 36.9696C16.976 36.9354 17.0027 36.895 17.0209 36.8505C17.039 36.8061 17.0482 36.7585 17.048 36.7105L17.0395 35.0933ZM23.7448 35.036C23.7458 34.9763 23.723 34.9187 23.6814 34.8759C23.6399 34.833 23.5831 34.8084 23.5234 34.8075L18.7146 34.7319C18.6549 34.731 18.5974 34.7538 18.5545 34.7953C18.5117 34.8369 18.4871 34.8937 18.4861 34.9534L18.4567 36.8235C18.4558 36.8831 18.4786 36.9407 18.5201 36.9836C18.5617 37.0264 18.6185 37.051 18.6782 37.052L23.487 37.1275C23.5466 37.1284 23.6042 37.1056 23.647 37.0641C23.6899 37.0226 23.7145 36.9657 23.7154 36.9061L23.7448 35.036ZM30.4076 35.0716C30.4078 35.0291 30.3996 34.987 30.3836 34.9477C30.3675 34.9084 30.3439 34.8726 30.314 34.8424C30.2841 34.8122 30.2486 34.7882 30.2095 34.7718C30.1703 34.7553 30.1283 34.7467 30.0858 34.7465L25.4734 34.7223C25.4309 34.7221 25.3888 34.7302 25.3495 34.7463C25.3101 34.7623 25.2744 34.786 25.2442 34.8158C25.214 34.8457 25.19 34.8813 25.1735 34.9204C25.1571 34.9596 25.1485 35.0016 25.1482 35.0441L25.1393 36.7456C25.1391 36.7881 25.1472 36.8302 25.1633 36.8695C25.1793 36.9088 25.203 36.9446 25.2329 36.9748C25.2627 37.005 25.2983 37.029 25.3374 37.0455C25.3766 37.0619 25.4186 37.0705 25.4611 37.0707L30.0735 37.0949C30.116 37.0952 30.1581 37.087 30.1974 37.071C30.2367 37.0549 30.2725 37.0313 30.3027 37.0014C30.3329 36.9715 30.3569 36.936 30.3734 36.8968C30.3898 36.8577 30.3984 36.8157 30.3986 36.7732L30.4076 35.0716ZM34.4391 35.0156C34.4391 34.9336 34.4065 34.8549 34.3484 34.7969C34.2904 34.7389 34.2117 34.7063 34.1297 34.7063H32.1328C32.0508 34.7063 31.9721 34.7389 31.9141 34.7969C31.856 34.8549 31.8234 34.9336 31.8234 35.0156V36.7172C31.8234 36.7993 31.856 36.878 31.9141 36.936C31.9721 36.994 32.0508 37.0266 32.1328 37.0266H34.1297C34.2117 37.0266 34.2904 36.994 34.3484 36.936C34.4065 36.878 34.4391 36.7993 34.4391 36.7172V35.0156ZM13.3604 38.87C13.3615 38.7711 13.3232 38.676 13.254 38.6054C13.1849 38.5347 13.0905 38.4945 12.9917 38.4934L8.14043 38.4427C8.09149 38.4422 8.04293 38.4513 7.99752 38.4695C7.95211 38.4878 7.91073 38.5148 7.87576 38.549C7.84079 38.5833 7.81291 38.6241 7.7937 38.6691C7.7745 38.7141 7.76435 38.7625 7.76384 38.8114L7.74738 40.3863C7.74635 40.4852 7.78462 40.5803 7.85377 40.651C7.92291 40.7216 8.01728 40.7618 8.1161 40.7629L12.9674 40.8136C13.0163 40.8141 13.0649 40.805 13.1103 40.7868C13.1557 40.7685 13.1971 40.7415 13.2321 40.7073C13.267 40.673 13.2949 40.6322 13.3141 40.5872C13.3333 40.5422 13.3435 40.4938 13.344 40.4449L13.3604 38.87ZM20.3766 38.7844C20.3766 38.6968 20.3417 38.6127 20.2798 38.5507C20.2178 38.4887 20.1337 38.4539 20.0461 38.4539H15.1102C15.0225 38.4539 14.9385 38.4887 14.8765 38.5507C14.8145 38.6127 14.7797 38.6968 14.7797 38.7844V40.4578C14.7797 40.5455 14.8145 40.6295 14.8765 40.6915C14.9385 40.7535 15.0225 40.7883 15.1102 40.7883H20.0461C20.1337 40.7883 20.2178 40.7535 20.2798 40.6915C20.3417 40.6295 20.3766 40.5455 20.3766 40.4578V38.7844ZM27.4078 38.7844C27.4078 38.6968 27.373 38.6127 27.311 38.5507C27.249 38.4887 27.165 38.4539 27.0773 38.4539H22.1414C22.0538 38.4539 21.9697 38.4887 21.9077 38.5507C21.8458 38.6127 21.8109 38.6968 21.8109 38.7844V40.4578C21.8109 40.5455 21.8458 40.6295 21.9077 40.6915C21.9697 40.7535 22.0538 40.7883 22.1414 40.7883H27.0773C27.165 40.7883 27.249 40.7535 27.311 40.6915C27.373 40.6295 27.4078 40.5455 27.4078 40.4578V38.7844ZM34.4476 38.7752C34.4477 38.6931 34.4152 38.6144 34.3573 38.5563C34.2994 38.4982 34.2208 38.4655 34.1388 38.4653L29.1606 38.4566C29.12 38.4565 29.0798 38.4645 29.0422 38.4799C29.0046 38.4954 28.9705 38.5182 28.9417 38.5468C28.9129 38.5755 28.8901 38.6096 28.8744 38.6471C28.8588 38.6846 28.8508 38.7248 28.8507 38.7655L28.8477 40.467C28.8476 40.5491 28.8801 40.6278 28.938 40.6859C28.9959 40.744 29.0745 40.7768 29.1566 40.7769L34.1347 40.7856C34.1753 40.7857 34.2156 40.7778 34.2531 40.7623C34.2907 40.7468 34.3249 40.7241 34.3536 40.6954C34.3824 40.6667 34.4053 40.6326 34.4209 40.5951C34.4365 40.5576 34.4446 40.5174 34.4446 40.4767L34.4476 38.7752Z" fill="black"/>
</svg>
