<svg width="45" height="45" viewBox="0 0 45 45" fill="none" xmlns="http://www.w3.org/2000/svg">
<path d="M35.9578 32.8377C35.8687 32.9209 35.5969 33.1928 35.1422 33.6533C35.1016 33.695 35.0789 33.7492 35.0789 33.8045L35.0824 38.976C35.0823 39.0265 35.0643 39.0752 35.0318 39.1135C34.9993 39.1518 34.9543 39.1772 34.9049 39.1852L11.4434 42.7254C11.4195 42.7292 11.395 42.7278 11.3718 42.7213C11.3485 42.7147 11.3269 42.7032 11.3085 42.6875C11.2901 42.6717 11.2754 42.6522 11.2653 42.6302C11.2552 42.6083 11.25 42.5844 11.25 42.5602V2.41349C11.2501 2.39365 11.2544 2.37406 11.2626 2.35603C11.2709 2.33799 11.2829 2.32194 11.2979 2.30895C11.3129 2.29596 11.3305 2.28633 11.3495 2.28071C11.3686 2.27509 11.3886 2.27362 11.4082 2.27638L34.9699 5.84298C34.9944 5.84639 35.0168 5.85843 35.033 5.87686C35.0492 5.8953 35.058 5.91887 35.0578 5.94317L35.0684 19.3078C35.0684 19.3529 35.0773 19.3975 35.0945 19.4388C35.1117 19.4802 35.1369 19.5175 35.1686 19.5486C36.1764 20.54 37.1473 21.5156 38.0812 22.4754C38.7598 23.1727 39.2273 23.7744 39.484 24.2807C40.2316 25.7549 40.2592 27.2461 39.5666 28.7543C39.317 29.2981 38.877 29.9039 38.2465 30.5719C37.5094 31.3524 36.7465 32.1076 35.9578 32.8377ZM23.7023 7.32657L14.5564 5.93438C14.5388 5.93187 14.5208 5.93317 14.5037 5.9382C14.4866 5.94322 14.4708 5.95186 14.4573 5.96352C14.4438 5.97518 14.4329 5.98959 14.4255 6.00579C14.418 6.02199 14.4141 6.0396 14.4141 6.05743V21.9428C14.4141 21.974 14.4265 22.004 14.4486 22.0261C14.4706 22.0481 14.5006 22.0606 14.5318 22.0606H18.9457C19.0086 22.0607 19.0692 22.0367 19.1149 21.9935C19.1607 21.9504 19.1882 21.8913 19.1918 21.8285C19.2879 20.2149 19.8814 18.9188 20.9725 17.9402C21.44 17.5219 22.3793 16.5692 23.7902 15.082C23.8298 15.0404 23.8518 14.9856 23.8518 14.9291L23.8623 7.5129C23.8624 7.46783 23.8463 7.42423 23.8169 7.39003C23.7876 7.35583 23.7469 7.33331 23.7023 7.32657ZM31.7742 8.54825L25.3441 7.55685C25.3253 7.55379 25.306 7.55487 25.2876 7.56C25.2692 7.56513 25.2522 7.57419 25.2376 7.58656C25.2231 7.59893 25.2114 7.61431 25.2034 7.63164C25.1954 7.64897 25.1912 7.66783 25.1912 7.68692V14.0977C25.1911 14.1076 25.1935 14.1174 25.1982 14.1262C25.2028 14.1351 25.2096 14.1427 25.218 14.1485C25.2264 14.1543 25.2361 14.1582 25.2464 14.1597C25.2567 14.1613 25.2673 14.1605 25.2773 14.1574C27.8859 13.357 30.0176 13.9998 31.6723 16.0858C31.8562 16.319 31.9482 16.2873 31.9482 15.9908V8.75216C31.9484 8.70272 31.9309 8.6549 31.899 8.61745C31.867 8.58 31.8227 8.55544 31.7742 8.54825ZM29.9677 16.2781C29.2467 15.5571 28.2689 15.1521 27.2493 15.1521C26.2297 15.1521 25.2519 15.5571 24.531 16.2781L21.6622 19.1468C20.9413 19.8678 20.5363 20.8456 20.5363 21.8652C20.5363 22.8847 20.9413 23.8626 21.6622 24.5835L29.2741 32.1954C29.9951 32.9164 30.9729 33.3214 31.9925 33.3214C33.012 33.3214 33.9899 32.9164 34.7108 32.1954L37.5796 29.3266C38.3005 28.6057 38.7055 27.6279 38.7055 26.6083C38.7055 25.5887 38.3005 24.6109 37.5796 23.8899L29.9677 16.2781ZM23.748 28.6031C22.5574 27.4266 21.4271 26.2822 20.3572 25.1701C20.0291 24.8279 19.7244 24.2772 19.4432 23.5178C19.4337 23.4928 19.4175 23.4713 19.3965 23.456C19.3755 23.4406 19.3507 23.4321 19.3254 23.4317L14.5354 23.4106C14.5119 23.4106 14.4893 23.42 14.4726 23.4367C14.4558 23.4535 14.4462 23.4763 14.4457 23.5002L14.4141 38.8793C14.414 38.9051 14.4196 38.9306 14.4303 38.954C14.441 38.9775 14.4567 38.9984 14.4762 39.0152C14.4957 39.0321 14.5186 39.0445 14.5434 39.0517C14.5682 39.0589 14.5942 39.0606 14.6197 39.0568L23.7322 37.6805C23.7684 37.675 23.8014 37.6567 23.8253 37.629C23.8492 37.6013 23.8623 37.5659 23.8623 37.5293V28.8756C23.8623 28.825 23.8522 28.7748 23.8326 28.728C23.813 28.6812 23.7842 28.6388 23.748 28.6031ZM31.7725 34.6852C30.2244 34.5164 28.9693 33.9211 28.0072 32.8992C27.1271 31.9641 26.2283 31.0459 25.3107 30.1447C25.224 30.0592 25.1807 30.0774 25.1807 30.1992V37.3113C25.1807 37.3299 25.1848 37.3481 25.1925 37.365C25.2002 37.3818 25.2114 37.3968 25.2254 37.409C25.2394 37.4211 25.2558 37.4301 25.2736 37.4354C25.2913 37.4407 25.31 37.4422 25.3283 37.4397L31.8182 36.4606C31.8543 36.4551 31.8874 36.4368 31.9112 36.4091C31.9351 36.3814 31.9482 36.346 31.9482 36.3094V34.882C31.9481 34.8331 31.9301 34.786 31.8977 34.7497C31.8653 34.7133 31.8207 34.6904 31.7725 34.6852Z" fill="black"/>
<path d="M9.76093 5.84067L5.01836 5.84895C4.96399 5.84904 4.92 5.89319 4.92009 5.94756L4.97789 39.0612C4.97798 39.1155 5.02213 39.1595 5.0765 39.1594L9.81907 39.1512C9.87343 39.1511 9.91743 39.1069 9.91733 39.0526L9.85954 5.93894C9.85944 5.88457 9.8153 5.84058 9.76093 5.84067Z" fill="black"/>
<path d="M25.4215 23.7586C26.035 23.7586 26.5324 23.2612 26.5324 22.6477C26.5324 22.0341 26.035 21.5367 25.4215 21.5367C24.8079 21.5367 24.3105 22.0341 24.3105 22.6477C24.3105 23.2612 24.8079 23.7586 25.4215 23.7586Z" fill="black"/>
<path d="M29.2527 23.3121C29.744 23.3121 30.1422 22.9139 30.1422 22.4227C30.1422 21.9314 29.744 21.5332 29.2527 21.5332C28.7615 21.5332 28.3633 21.9314 28.3633 22.4227C28.3633 22.9139 28.7615 23.3121 29.2527 23.3121Z" fill="black"/>
<path d="M34.6465 27.8051C35.3843 27.8051 35.9824 27.2069 35.9824 26.4691C35.9824 25.7313 35.3843 25.1332 34.6465 25.1332C33.9087 25.1332 33.3105 25.7313 33.3105 26.4691C33.3105 27.2069 33.9087 27.8051 34.6465 27.8051Z" fill="black"/>
<path d="M29.6984 28.2569C30.1877 28.2569 30.5844 27.8602 30.5844 27.3709C30.5844 26.8816 30.1877 26.485 29.6984 26.485C29.2091 26.485 28.8125 26.8816 28.8125 27.3709C28.8125 27.8602 29.2091 28.2569 29.6984 28.2569Z" fill="black"/>
<path d="M18.4031 34.6395C17.4855 33.9223 17.3021 32.9977 17.8529 31.8656C18.4517 30.634 19.1548 29.4645 19.9622 28.357C19.9659 28.3518 19.9706 28.3476 19.9762 28.3446C19.9818 28.3416 19.988 28.3399 19.9943 28.3397C20.0006 28.3396 20.0069 28.3409 20.0126 28.3436C20.0184 28.3463 20.0234 28.3503 20.0273 28.3553C20.7843 29.3256 21.43 30.3609 21.9644 31.4613C22.2913 32.1328 22.4536 32.6602 22.4513 33.0434C22.4478 33.4734 22.3136 33.8631 22.0488 34.2123C21.8238 34.5076 21.5156 34.7543 21.1242 34.9523C20.1855 35.4293 19.2785 35.325 18.4031 34.6395ZM19.1941 33.5408C19.5831 33.8654 20.0062 33.9422 20.4632 33.7711C20.7257 33.6727 20.9144 33.5127 21.0292 33.2912C21.123 33.1096 21.1201 32.8881 21.0204 32.6268C20.7884 32.0186 20.4744 31.4221 20.0783 30.8373C20.0695 30.8243 20.0576 30.8138 20.0437 30.8065C20.0298 30.7993 20.0143 30.7956 19.9987 30.7957C19.983 30.7959 19.9676 30.8 19.9539 30.8075C19.9402 30.8151 19.9286 30.8259 19.9201 30.8391C19.5474 31.4191 19.2316 32.0566 18.9726 32.7516C18.8577 33.0598 18.9316 33.3229 19.1941 33.5408Z" fill="black"/>
</svg>
