<svg width="45" height="45" viewBox="0 0 45 45" fill="none" xmlns="http://www.w3.org/2000/svg">
<g clip-path="url(#clip0_731_562)">
<path d="M3.46641 35.1615C2.49668 35.1515 1.8832 35.1498 1.62598 35.1562C1.14258 35.1679 0.848438 34.9983 0.743555 34.6473C0.716602 34.5577 0.703125 34.2659 0.703125 33.772C0.703125 30.7761 0.703125 27.7804 0.703125 24.7851C0.703125 24.1834 0.996094 23.8863 1.58203 23.8939C2.16797 23.9021 2.78965 23.9062 3.44707 23.9062C3.46525 23.9062 3.48269 23.899 3.49555 23.8862C3.5084 23.8733 3.51562 23.8559 3.51562 23.8377V21.1649C3.51562 21.146 3.50812 21.1279 3.49477 21.1146C3.48142 21.1012 3.46331 21.0937 3.44443 21.0937C2.80342 21.0937 2.19756 21.1005 1.62686 21.1139C1.14111 21.1251 0.846094 20.9508 0.741797 20.591C0.716016 20.5008 0.703125 20.2049 0.703125 19.7033C0.703125 16.7097 0.703125 13.7162 0.703125 10.7226C0.703125 10.1209 0.996094 9.82381 1.58203 9.83143C2.16797 9.83963 2.78877 9.84373 3.44443 9.84373C3.46331 9.84373 3.48142 9.83623 3.49477 9.82288C3.50812 9.80953 3.51562 9.79142 3.51562 9.77254C3.51562 7.90106 3.5168 6.06444 3.51914 4.26268C3.51914 4.09217 3.56396 3.94305 3.65361 3.81531C3.71221 3.73211 3.82822 3.64071 4.00166 3.5411C5.57842 2.63289 7.15518 1.72469 8.73193 0.816486C8.92471 0.705744 9.11221 0.675275 9.29443 0.72508C9.41865 0.759064 9.5833 0.834943 9.78838 0.952717C11.1788 1.75076 12.5684 2.54969 13.957 3.34949C14.298 3.54578 14.4917 3.66678 14.538 3.71248C14.661 3.83494 14.7352 3.98729 14.7604 4.16951C14.7639 4.19588 14.7656 4.36024 14.7656 4.66258C14.7656 6.33426 14.7656 8.03758 14.7656 9.77254C14.7656 9.79142 14.7731 9.80953 14.7865 9.82288C14.7998 9.83623 14.8179 9.84373 14.8368 9.84373H16.8038C16.8227 9.84373 16.8408 9.83623 16.8541 9.82288C16.8675 9.80953 16.875 9.79142 16.875 9.77254C16.875 7.945 16.875 6.15233 16.875 4.39451C16.875 4.09862 16.9567 3.86834 17.1202 3.70369C17.1589 3.66444 17.3514 3.5449 17.6977 3.3451C19.0395 2.57108 20.3851 1.8035 21.7345 1.04236C21.7403 1.03944 21.8323 0.979377 22.0104 0.862189C22.3075 0.666486 22.6154 0.659162 22.9342 0.840217C25.7039 2.41522 27.3372 3.35272 27.8341 3.65272C28.0245 3.76815 28.12 3.97147 28.1206 4.26268C28.1235 6.06444 28.125 7.90106 28.125 9.77254C28.125 9.79142 28.1325 9.80953 28.1459 9.82288C28.1592 9.83623 28.1773 9.84373 28.1962 9.84373H30.1632C30.1821 9.84373 30.2002 9.83623 30.2135 9.82288C30.2269 9.80953 30.2344 9.79142 30.2344 9.77254C30.2344 7.945 30.2344 6.15233 30.2344 4.39451C30.2344 4.09334 30.319 3.86014 30.4884 3.6949C30.5183 3.66619 30.7146 3.54666 31.0772 3.33631C32.412 2.56404 33.7512 1.7994 35.0947 1.04236C35.1006 1.03885 35.1923 0.978791 35.3698 0.862189C35.6669 0.666486 35.9748 0.659162 36.2936 0.840217C38.9355 2.34256 40.5688 3.28006 41.1935 3.65272C41.2761 3.70252 41.3458 3.78397 41.4026 3.89705C41.4425 3.97615 41.463 4.07752 41.4642 4.20115C41.4882 6.02518 41.4946 7.88231 41.4835 9.77254C41.4835 9.79142 41.491 9.80953 41.5043 9.82288C41.5177 9.83623 41.5358 9.84373 41.5547 9.84373C42.1482 9.84373 42.7175 9.84373 43.2624 9.84373C43.58 9.84373 43.7968 9.87186 43.9128 9.92811C44.0733 10.006 44.1844 10.1332 44.2459 10.3096C44.2799 10.4062 44.2969 10.5659 44.2969 10.7886C44.2969 13.8858 44.2969 16.9828 44.2969 20.0795C44.2969 20.4076 44.2559 20.6361 44.1738 20.765C44.035 20.9842 43.7977 21.0937 43.4619 21.0937C42.8613 21.0937 42.2259 21.0937 41.5556 21.0937C41.5367 21.0937 41.5186 21.1012 41.5052 21.1146C41.4919 21.1279 41.4844 21.146 41.4844 21.1649V23.835C41.4844 23.8539 41.4919 23.872 41.5052 23.8854C41.5186 23.8987 41.5367 23.9062 41.5556 23.9062C42.1485 23.9062 42.7175 23.9062 43.2624 23.9062C43.58 23.9062 43.7968 23.9344 43.9128 23.9906C44.0733 24.0685 44.1844 24.1957 44.2459 24.3721C44.2799 24.4687 44.2969 24.6284 44.2969 24.8511C44.2969 27.9483 44.2969 31.0453 44.2969 34.142C44.2969 34.4701 44.2559 34.6986 44.1738 34.8275C44.035 35.0467 43.7977 35.1562 43.4619 35.1562C42.8613 35.1562 42.2259 35.1562 41.5556 35.1562C41.5367 35.1562 41.5186 35.1637 41.5052 35.1771C41.4919 35.1904 41.4844 35.2085 41.4844 35.2274V42.8203C41.4844 42.8389 41.4918 42.8568 41.505 42.87C41.5182 42.8832 41.536 42.8906 41.5547 42.8906L44.2477 42.8959C44.2593 42.8959 44.2705 42.9004 44.2787 42.9085C44.287 42.9166 44.2916 42.9275 44.2916 42.9389L44.296 44.2292C44.296 44.2471 44.2889 44.2643 44.2762 44.277C44.2635 44.2897 44.2463 44.2969 44.2283 44.2969H0.775195C0.756081 44.2969 0.73775 44.2893 0.724234 44.2757C0.710718 44.2622 0.703125 44.2439 0.703125 44.2248V42.9583C0.703125 42.9403 0.710255 42.9231 0.722947 42.9104C0.735638 42.8977 0.752852 42.8906 0.770801 42.8906H3.44443C3.46331 42.8906 3.48142 42.8831 3.49477 42.8698C3.50812 42.8564 3.51562 42.8383 3.51562 42.8194L3.51035 35.2063C3.51035 35.1944 3.50572 35.183 3.49748 35.1746C3.48924 35.1662 3.47806 35.1615 3.46641 35.1615ZM24.881 3.57186C24.1034 3.12596 23.3273 2.68416 22.5527 2.24647C22.5396 2.23899 22.5248 2.23506 22.5097 2.23506C22.4946 2.23506 22.4797 2.23899 22.4666 2.24647L18.3243 4.61951C18.3128 4.62616 18.3033 4.63583 18.2967 4.64756C18.29 4.65928 18.2865 4.67264 18.2865 4.68631L18.2812 42.83C18.2812 42.846 18.2876 42.8615 18.299 42.8728C18.3104 42.8842 18.3258 42.8906 18.3419 42.8906H26.6581C26.6742 42.8906 26.6896 42.8842 26.701 42.8728C26.7124 42.8615 26.7188 42.846 26.7188 42.83V4.68983C26.7187 4.66894 26.7132 4.64844 26.7027 4.63038C26.6922 4.61232 26.6771 4.59736 26.659 4.58699C26.0654 4.24949 25.4728 3.91112 24.881 3.57186ZM11.5216 3.57186C10.7804 3.14998 10.0219 2.71639 9.24609 2.27108C9.21478 2.25292 9.17914 2.24336 9.14273 2.24336C9.10633 2.24336 9.07045 2.25292 9.03867 2.27108L4.97373 4.5949C4.95801 4.60368 4.94491 4.61653 4.9358 4.63213C4.92668 4.64774 4.92187 4.66553 4.92188 4.68367V42.83C4.92188 42.846 4.92826 42.8615 4.93964 42.8728C4.95101 42.8842 4.96644 42.8906 4.98252 42.8906H13.2987C13.3148 42.8906 13.3302 42.8842 13.3416 42.8728C13.353 42.8615 13.3594 42.846 13.3594 42.83V4.70213C13.3594 4.67868 13.3532 4.65567 13.3415 4.63545C13.3297 4.61522 13.3129 4.5985 13.2926 4.58699C12.6908 4.23953 12.1005 3.90115 11.5216 3.57186ZM31.6573 4.67488L31.6406 42.815C31.6406 42.8337 31.648 42.8516 31.6612 42.8647C31.6744 42.8779 31.6923 42.8853 31.7109 42.8853L40.0017 42.8906C40.0219 42.8906 40.0414 42.8825 40.0557 42.8682C40.0701 42.8539 40.0781 42.8344 40.0781 42.8141V4.69334C40.0781 4.67143 40.0724 4.6499 40.0614 4.63093C40.0505 4.61195 40.0347 4.59619 40.0157 4.58524L35.9481 2.26053C35.9257 2.24767 35.9004 2.24075 35.8749 2.24044C35.8493 2.24014 35.8243 2.24645 35.8022 2.25877L31.6951 4.60809C31.6836 4.61474 31.6741 4.62441 31.6675 4.63613C31.6608 4.64785 31.6573 4.66122 31.6573 4.67488ZM3.51562 11.301C3.51562 11.2874 3.51025 11.2745 3.50069 11.2649C3.49113 11.2554 3.47817 11.25 3.46465 11.25H2.16035C2.14683 11.25 2.13387 11.2554 2.12431 11.2649C2.11475 11.2745 2.10938 11.2874 2.10938 11.301V19.6365C2.10938 19.6432 2.11069 19.6498 2.11326 19.656C2.11582 19.6622 2.11957 19.6678 2.12431 19.6726C2.12904 19.6773 2.13466 19.681 2.14084 19.6836C2.14703 19.6862 2.15366 19.6875 2.16035 19.6875H3.46465C3.47134 19.6875 3.47797 19.6862 3.48416 19.6836C3.49034 19.681 3.49596 19.6773 3.50069 19.6726C3.50543 19.6678 3.50918 19.6622 3.51174 19.656C3.51431 19.6498 3.51563 19.6432 3.51562 19.6365V11.301ZM16.875 11.2948C16.875 11.2829 16.8703 11.2715 16.8619 11.2631C16.8535 11.2547 16.8421 11.25 16.8302 11.25H14.8104C14.7986 11.25 14.7872 11.2547 14.7788 11.2631C14.7703 11.2715 14.7656 11.2829 14.7656 11.2948V19.6427C14.7656 19.6545 14.7703 19.6659 14.7788 19.6744C14.7872 19.6828 14.7986 19.6875 14.8104 19.6875H16.8302C16.8421 19.6875 16.8535 19.6828 16.8619 19.6744C16.8703 19.6659 16.875 19.6545 16.875 19.6427V11.2948ZM30.2344 11.3001C30.2344 11.2868 30.2291 11.2741 30.2197 11.2647C30.2103 11.2553 30.1976 11.25 30.1843 11.25H28.1751C28.1618 11.25 28.1491 11.2553 28.1397 11.2647C28.1303 11.2741 28.125 11.2868 28.125 11.3001V19.6374C28.125 19.6507 28.1303 19.6634 28.1397 19.6728C28.1491 19.6822 28.1618 19.6875 28.1751 19.6875H30.1843C30.1976 19.6875 30.2103 19.6822 30.2197 19.6728C30.2291 19.6634 30.2344 19.6507 30.2344 19.6374V11.3001ZM42.8906 11.301C42.8906 11.2874 42.8853 11.2745 42.8757 11.2649C42.8661 11.2554 42.8532 11.25 42.8396 11.25H41.5354C41.5218 11.25 41.5089 11.2554 41.4993 11.2649C41.4897 11.2745 41.4844 11.2874 41.4844 11.301V19.6365C41.4844 19.6432 41.4857 19.6498 41.4883 19.656C41.4908 19.6622 41.4946 19.6678 41.4993 19.6726C41.504 19.6773 41.5097 19.681 41.5158 19.6836C41.522 19.6862 41.5287 19.6875 41.5354 19.6875H42.8396C42.8463 19.6875 42.853 19.6862 42.8592 19.6836C42.8653 19.681 42.871 19.6773 42.8757 19.6726C42.8804 19.6678 42.8842 19.6622 42.8867 19.656C42.8893 19.6498 42.8906 19.6432 42.8906 19.6365V11.301ZM16.875 21.1465C16.875 21.1325 16.8694 21.1191 16.8596 21.1092C16.8497 21.0993 16.8363 21.0937 16.8223 21.0937H14.8184C14.8044 21.0937 14.791 21.0993 14.7811 21.1092C14.7712 21.1191 14.7656 21.1325 14.7656 21.1465V23.8535C14.7656 23.8604 14.767 23.8673 14.7696 23.8737C14.7723 23.8801 14.7762 23.8859 14.7811 23.8908C14.786 23.8957 14.7918 23.8996 14.7982 23.9022C14.8046 23.9049 14.8114 23.9062 14.8184 23.9062H16.8223C16.8292 23.9062 16.836 23.9049 16.8424 23.9022C16.8488 23.8996 16.8547 23.8957 16.8596 23.8908C16.8645 23.8859 16.8683 23.8801 16.871 23.8737C16.8736 23.8673 16.875 23.8604 16.875 23.8535V21.1465ZM30.2344 21.1465C30.2344 21.1325 30.2288 21.1191 30.2189 21.1092C30.209 21.0993 30.1956 21.0937 30.1816 21.0937H28.1777C28.1637 21.0937 28.1503 21.0993 28.1404 21.1092C28.1306 21.1191 28.125 21.1325 28.125 21.1465V23.8535C28.125 23.8604 28.1264 23.8673 28.129 23.8737C28.1317 23.8801 28.1356 23.8859 28.1404 23.8908C28.1453 23.8957 28.1512 23.8996 28.1576 23.9022C28.164 23.9049 28.1708 23.9062 28.1777 23.9062H30.1816C30.1886 23.9062 30.1954 23.9049 30.2018 23.9022C30.2082 23.8996 30.214 23.8957 30.2189 23.8908C30.2238 23.8859 30.2277 23.8801 30.2304 23.8737C30.233 23.8673 30.2344 23.8604 30.2344 23.8535V21.1465ZM3.51562 25.3635C3.51562 25.3499 3.51025 25.337 3.50069 25.3274C3.49113 25.3179 3.47817 25.3125 3.46465 25.3125H2.16035C2.14683 25.3125 2.13387 25.3179 2.12431 25.3274C2.11475 25.337 2.10938 25.3499 2.10938 25.3635V33.699C2.10938 33.7125 2.11475 33.7255 2.12431 33.735C2.13387 33.7446 2.14683 33.75 2.16035 33.75H3.46465C3.47817 33.75 3.49113 33.7446 3.50069 33.735C3.51025 33.7255 3.51562 33.7125 3.51562 33.699V25.3635ZM16.875 25.3573C16.875 25.3454 16.8703 25.334 16.8619 25.3256C16.8535 25.3172 16.8421 25.3125 16.8302 25.3125H14.8104C14.7986 25.3125 14.7872 25.3172 14.7788 25.3256C14.7703 25.334 14.7656 25.3454 14.7656 25.3573V33.7052C14.7656 33.717 14.7703 33.7284 14.7788 33.7369C14.7872 33.7453 14.7986 33.75 14.8104 33.75H16.8302C16.8421 33.75 16.8535 33.7453 16.8619 33.7369C16.8703 33.7284 16.875 33.717 16.875 33.7052V25.3573ZM30.2344 25.3626C30.2344 25.3493 30.2291 25.3366 30.2197 25.3272C30.2103 25.3178 30.1976 25.3125 30.1843 25.3125H28.1751C28.1618 25.3125 28.1491 25.3178 28.1397 25.3272C28.1303 25.3366 28.125 25.3493 28.125 25.3626V33.6999C28.125 33.7132 28.1303 33.7259 28.1397 33.7353C28.1491 33.7447 28.1618 33.75 28.1751 33.75H30.1843C30.1976 33.75 30.2103 33.7447 30.2197 33.7353C30.2291 33.7259 30.2344 33.7132 30.2344 33.6999V25.3626ZM42.8906 25.3635C42.8906 25.3499 42.8853 25.337 42.8757 25.3274C42.8661 25.3179 42.8532 25.3125 42.8396 25.3125H41.5354C41.5218 25.3125 41.5089 25.3179 41.4993 25.3274C41.4897 25.337 41.4844 25.3499 41.4844 25.3635V33.699C41.4844 33.7125 41.4897 33.7255 41.4993 33.735C41.5089 33.7446 41.5218 33.75 41.5354 33.75H42.8396C42.8532 33.75 42.8661 33.7446 42.8757 33.735C42.8853 33.7255 42.8906 33.7125 42.8906 33.699V25.3635ZM16.875 35.2072C16.875 35.1937 16.8696 35.1807 16.8601 35.1712C16.8505 35.1616 16.8375 35.1562 16.824 35.1562H14.8166C14.8031 35.1562 14.7901 35.1616 14.7806 35.1712C14.771 35.1807 14.7656 35.1937 14.7656 35.2072V42.8396C14.7656 42.8532 14.771 42.8661 14.7806 42.8757C14.7901 42.8852 14.8031 42.8906 14.8166 42.8906H16.824C16.8375 42.8906 16.8505 42.8852 16.8601 42.8757C16.8696 42.8661 16.875 42.8532 16.875 42.8396V35.2072ZM30.2344 35.2072C30.2344 35.1937 30.229 35.1807 30.2194 35.1712C30.2099 35.1616 30.1969 35.1562 30.1834 35.1562H28.176C28.1625 35.1562 28.1495 35.1616 28.1399 35.1712C28.1304 35.1807 28.125 35.1937 28.125 35.2072V42.8396C28.125 42.8532 28.1304 42.8661 28.1399 42.8757C28.1495 42.8852 28.1625 42.8906 28.176 42.8906H30.1834C30.1969 42.8906 30.2099 42.8852 30.2194 42.8757C30.229 42.8661 30.2344 42.8532 30.2344 42.8396V35.2072Z" fill="black"/>
<path d="M7.68672 7.0301L6.37187 7.03239C6.34663 7.03243 6.32621 7.05293 6.32625 7.07817L6.32855 8.39302C6.32859 8.41826 6.34909 8.43868 6.37433 8.43864L7.68917 8.43634C7.71441 8.4363 7.73484 8.4158 7.73479 8.39056L7.7325 7.07572C7.73246 7.05048 7.71196 7.03005 7.68672 7.0301Z" fill="black"/>
<path d="M21.054 7.03008L19.7233 7.0324C19.7025 7.03244 19.6856 7.04939 19.6856 7.07026L19.6879 8.40093C19.688 8.4218 19.7049 8.43869 19.7258 8.43865L21.0565 8.43633C21.0773 8.43629 21.0942 8.41934 21.0942 8.39847L21.0919 7.06781C21.0918 7.04694 21.0749 7.03005 21.054 7.03008Z" fill="black"/>
<path d="M34.4055 7.0301L33.0906 7.03239C33.0654 7.03243 33.045 7.05293 33.045 7.07817L33.0473 8.39302C33.0473 8.41826 33.0678 8.43868 33.0931 8.43864L34.4079 8.43634C34.4332 8.4363 34.4536 8.4158 34.4535 8.39056L34.4512 7.07572C34.4512 7.05048 34.4307 7.03005 34.4055 7.0301Z" fill="black"/>
<path d="M6.67705 41.3754C6.53115 41.2857 6.43066 41.1677 6.37559 41.0212C6.34395 40.9374 6.32812 40.7903 6.32812 40.58C6.32812 30.3565 6.32812 20.1308 6.32812 9.90264C6.32812 9.88702 6.33433 9.87204 6.34537 9.861C6.35642 9.84995 6.37139 9.84375 6.38701 9.84375H7.68516C7.69821 9.84375 7.71073 9.84894 7.71996 9.85817C7.72919 9.8674 7.73437 9.87991 7.73438 9.89297V40.0192C7.73438 40.0349 7.74058 40.0498 7.75162 40.0609C7.76267 40.0719 7.77764 40.0781 7.79326 40.0781H9.09141C9.10446 40.0781 9.11698 40.0833 9.12621 40.0925C9.13544 40.1018 9.14062 40.1143 9.14062 40.1273V41.4352C9.14062 41.4482 9.13544 41.4607 9.12621 41.47C9.11698 41.4792 9.10446 41.4844 9.09141 41.4844C8.40645 41.4844 7.7417 41.4844 7.09717 41.4844C6.93428 41.4844 6.79424 41.448 6.67705 41.3754Z" fill="black"/>
<path d="M20.0382 41.3719C19.8929 41.2828 19.7921 41.1653 19.7358 41.0194C19.7036 40.9351 19.6875 40.7889 19.6875 40.5809C19.6875 30.3568 19.6875 20.1308 19.6875 9.90264C19.6875 9.88702 19.6937 9.87204 19.7047 9.861C19.7158 9.84995 19.7308 9.84375 19.7464 9.84375H21.0445C21.0576 9.84375 21.0701 9.84894 21.0793 9.85817C21.0886 9.8674 21.0938 9.87991 21.0938 9.89297V40.0192C21.0937 40.0349 21.1 40.0498 21.111 40.0609C21.122 40.0719 21.137 40.0781 21.1526 40.0781H22.4508C22.4638 40.0781 22.4764 40.0833 22.4856 40.0925C22.4948 40.1018 22.5 40.1143 22.5 40.1273V41.4255C22.5 41.4332 22.4985 41.4409 22.4955 41.448C22.4926 41.4552 22.4882 41.4617 22.4828 41.4671C22.4773 41.4726 22.4708 41.4769 22.4636 41.4799C22.4565 41.4829 22.4488 41.4844 22.4411 41.4844C21.7626 41.4844 21.1011 41.4858 20.4565 41.4888C20.3054 41.4894 20.1659 41.4504 20.0382 41.3719Z" fill="black"/>
<path d="M33.3976 41.3719C33.2634 41.2893 33.1664 41.1814 33.1066 41.0484C33.0668 40.9605 33.0469 40.8237 33.0469 40.638C33.0469 30.3952 33.0469 20.1501 33.0469 9.90264C33.0469 9.8949 33.0484 9.88725 33.0514 9.8801C33.0543 9.87296 33.0587 9.86647 33.0641 9.861C33.0696 9.85553 33.0761 9.85119 33.0832 9.84823C33.0904 9.84527 33.098 9.84375 33.1058 9.84375H34.3925C34.4086 9.84375 34.424 9.85014 34.4354 9.86151C34.4467 9.87289 34.4531 9.88831 34.4531 9.90439V40.0192C34.4531 40.0349 34.4593 40.0498 34.4704 40.0609C34.4814 40.0719 34.4964 40.0781 34.512 40.0781H35.8005C35.8161 40.0781 35.8311 40.0843 35.8421 40.0954C35.8532 40.1064 35.8594 40.1214 35.8594 40.137V41.4352C35.8594 41.4482 35.8542 41.4607 35.845 41.47C35.8357 41.4792 35.8232 41.4844 35.8102 41.4844C35.1252 41.4844 34.4604 41.4858 33.8159 41.4888C33.6647 41.4894 33.5253 41.4504 33.3976 41.3719Z" fill="black"/>
<path d="M11.9055 40.077L10.5906 40.0793C10.5654 40.0793 10.545 40.0998 10.545 40.125L10.5473 41.4399C10.5473 41.4651 10.5678 41.4856 10.5931 41.4855L11.9079 41.4832C11.9332 41.4832 11.9536 41.4627 11.9535 41.4374L11.9512 40.1226C11.9512 40.0974 11.9307 40.0769 11.9055 40.077Z" fill="black"/>
<path d="M25.2648 40.077L23.95 40.0793C23.9248 40.0793 23.9043 40.0998 23.9044 40.125L23.9067 41.4399C23.9067 41.4651 23.9272 41.4856 23.9525 41.4855L25.2673 41.4832C25.2925 41.4832 25.313 41.4627 25.3129 41.4374L25.3106 40.1226C25.3106 40.0974 25.2901 40.0769 25.2648 40.077Z" fill="black"/>
<path d="M38.6181 40.077L37.3155 40.0793C37.2869 40.0793 37.2637 40.1026 37.2638 40.1312L37.266 41.4337C37.2661 41.4624 37.2893 41.4856 37.318 41.4855L38.6205 41.4832C38.6492 41.4832 38.6723 41.4599 38.6723 41.4313L38.67 40.1287C38.67 40.1001 38.6467 40.0769 38.6181 40.077Z" fill="black"/>
</g>
<defs>
<clipPath id="clip0_731_562">
<rect width="45" height="45" fill="white"/>
</clipPath>
</defs>
</svg>
