<svg width="573" height="493" viewBox="0 0 573 493" fill="none" xmlns="http://www.w3.org/2000/svg">
<circle cx="406.5" cy="326.5" r="166.5" fill="#FF6A18" fill-opacity="0.4"/>
<g clip-path="url(#clip0_799_941)">
<path d="M111.776 390C173.507 390 223.551 386.202 223.551 381.518C223.551 376.833 173.507 373.035 111.776 373.035C50.0436 373.035 0 376.833 0 381.518C0 386.202 50.0436 390 111.776 390Z" fill="#E6E6E6"/>
<path d="M85.4392 86.5341C104.892 78.2671 129.12 83.505 152.781 87.1403C153.001 82.738 155.67 77.3801 152.874 74.3087C149.478 70.5773 149.791 66.6567 151.834 62.7135C157.061 52.63 149.573 41.9007 142.012 32.9794C140.308 30.9731 138.154 29.3967 135.726 28.3783C133.298 27.3599 130.663 26.9282 128.036 27.1182L114.031 28.1178C110.623 28.361 107.37 29.6384 104.709 31.7791C102.047 33.9198 100.103 36.8217 99.1372 40.0964C95.7929 44.641 94.003 49.173 95.13 53.6814C90.1208 57.1018 89.2792 61.2305 91.5301 65.885C93.4388 68.8156 93.4185 71.6683 91.4433 74.442C88.8493 77.9783 86.8625 81.9214 85.5644 86.1096L85.4392 86.5341Z" fill="#2F2E41"/>
<path d="M547.707 337.149H151.245C147.719 337.149 144.338 335.749 141.845 333.258C139.351 330.767 137.951 327.389 137.951 323.866C281.668 307.177 422.685 307.177 561 323.866C561 327.389 559.6 330.767 557.107 333.258C554.614 335.749 551.232 337.149 547.707 337.149Z" fill="#2F2E41"/>
<path d="M561 324.647L137.951 323.866L186.981 241.434L187.215 241.044V59.3741C187.215 57.169 187.65 54.9855 188.494 52.9483C189.339 50.911 190.577 49.0599 192.137 47.5007C193.697 45.9414 195.55 44.7046 197.589 43.8609C199.628 43.0171 201.813 42.5829 204.02 42.5831H492.585C494.792 42.5829 496.977 43.0171 499.016 43.8609C501.055 44.7046 502.908 45.9414 504.468 47.5007C506.029 49.0599 507.266 50.911 508.111 52.9483C508.955 54.9855 509.39 57.169 509.39 59.3741V242.294L561 324.647Z" fill="#3F3D56"/>
<path d="M203.637 54.3032C202.186 54.3049 200.794 54.8816 199.768 55.907C198.742 56.9323 198.165 58.3225 198.163 59.7726V225.417C198.165 226.867 198.742 228.257 199.768 229.283C200.794 230.308 202.186 230.885 203.637 230.886H495.314C496.765 230.885 498.157 230.308 499.183 229.282C500.209 228.257 500.786 226.867 500.788 225.417V59.7726C500.786 58.3226 500.209 56.9324 499.183 55.907C498.157 54.8817 496.765 54.3049 495.314 54.3032H203.637Z" fill="white"/>
<path d="M204.859 252.764C204.411 252.765 203.972 252.893 203.594 253.135C203.216 253.377 202.916 253.721 202.728 254.128L187.62 286.945C187.456 287.302 187.384 287.694 187.411 288.086C187.438 288.479 187.564 288.858 187.776 289.189C187.988 289.52 188.28 289.792 188.625 289.981C188.971 290.169 189.358 290.268 189.751 290.268H507.457C507.857 290.268 508.25 290.166 508.599 289.972C508.948 289.777 509.242 289.496 509.452 289.156C509.662 288.817 509.782 288.429 509.8 288.029C509.818 287.63 509.733 287.233 509.555 286.876L493.133 254.06C492.939 253.669 492.64 253.341 492.269 253.112C491.899 252.883 491.471 252.763 491.035 252.764H204.859Z" fill="#2F2E41"/>
<path d="M348.302 51.5685C350.246 51.5685 351.821 49.9943 351.821 48.0525C351.821 46.1106 350.246 44.5364 348.302 44.5364C346.359 44.5364 344.783 46.1106 344.783 48.0525C344.783 49.9943 346.359 51.5685 348.302 51.5685Z" fill="white"/>
<path d="M317.075 296.519C316.559 296.52 316.058 296.69 315.648 297.003C315.239 297.317 314.944 297.756 314.81 298.253L311.02 312.317C310.926 312.665 310.914 313.029 310.984 313.382C311.054 313.735 311.204 314.067 311.423 314.353C311.642 314.638 311.924 314.87 312.247 315.029C312.57 315.188 312.925 315.271 313.285 315.271H385.355C385.729 315.271 386.097 315.182 386.43 315.011C386.762 314.839 387.049 314.591 387.266 314.287C387.482 313.982 387.623 313.63 387.676 313.26C387.73 312.891 387.693 312.513 387.571 312.16L382.699 298.096C382.539 297.636 382.24 297.236 381.842 296.954C381.445 296.671 380.97 296.519 380.482 296.519H317.075Z" fill="#2F2E41"/>
<path d="M509.389 238.309V241.434H186.981L187.223 241.044V238.309H509.389Z" fill="#2F2E41"/>
<path d="M500.397 109.388C530.628 109.388 555.135 84.9005 555.135 54.6939C555.135 24.4873 530.628 0 500.397 0C470.166 0 445.658 24.4873 445.658 54.6939C445.658 84.9005 470.166 109.388 500.397 109.388Z" fill="#FF6A18"/>
<path d="M523.074 78.5248H477.719C476.89 78.524 476.095 78.1944 475.509 77.6085C474.922 77.0226 474.592 76.2281 474.592 75.3994V48.0525C474.592 47.2239 474.922 46.4294 475.509 45.8435C476.095 45.2576 476.89 44.928 477.719 44.9271H523.074C523.903 44.928 524.698 45.2576 525.285 45.8435C525.871 46.4294 526.201 47.2239 526.202 48.0525V75.3994C526.201 76.2281 525.871 77.0226 525.285 77.6085C524.699 78.1945 523.903 78.524 523.074 78.5248ZM477.719 48.0525V75.3994H523.076L523.074 48.0525L477.719 48.0525Z" fill="white"/>
<path d="M514.472 48.0525H486.321V35.551C486.321 26.4962 492.241 19.9242 500.397 19.9242C508.553 19.9242 514.472 26.4962 514.472 35.551L514.472 48.0525ZM489.449 44.9271H511.345V35.551C511.345 28.1904 506.843 23.0496 500.397 23.0496C493.951 23.0496 489.449 28.1905 489.449 35.551L489.449 44.9271Z" fill="white"/>
<path d="M500.397 64.07C502.124 64.07 503.525 62.6707 503.525 60.9446C503.525 59.2185 502.124 57.8192 500.397 57.8192C498.669 57.8192 497.269 59.2185 497.269 60.9446C497.269 62.6707 498.669 64.07 500.397 64.07Z" fill="white"/>
<path d="M462.185 174.701H236.766C235.659 174.7 234.598 174.26 233.816 173.478C233.033 172.696 232.593 171.636 232.592 170.53V114.659C232.593 113.553 233.033 112.493 233.816 111.711C234.598 110.929 235.659 110.489 236.766 110.488H462.185C463.292 110.489 464.353 110.929 465.135 111.711C465.918 112.493 466.358 113.553 466.359 114.659V170.53C466.358 171.636 465.918 172.696 465.135 173.478C464.353 174.26 463.292 174.7 462.185 174.701ZM236.766 112.156C236.102 112.157 235.465 112.421 234.996 112.89C234.526 113.359 234.262 113.996 234.262 114.659V170.53C234.262 171.194 234.526 171.83 234.996 172.299C235.465 172.768 236.102 173.032 236.766 173.033H462.185C462.849 173.032 463.486 172.768 463.955 172.299C464.425 171.83 464.689 171.194 464.689 170.53V114.659C464.689 113.996 464.425 113.359 463.955 112.89C463.486 112.421 462.849 112.157 462.185 112.156L236.766 112.156Z" fill="#E6E6E6"/>
<path d="M271.791 157.442C281.183 157.442 288.796 149.835 288.796 140.451C288.796 131.067 281.183 123.46 271.791 123.46C262.4 123.46 254.787 131.067 254.787 140.451C254.787 149.835 262.4 157.442 271.791 157.442Z" fill="#E6E6E6"/>
<path d="M311.064 129.124C310.691 129.123 310.322 129.196 309.978 129.338C309.633 129.48 309.32 129.689 309.057 129.952C308.793 130.215 308.584 130.527 308.441 130.871C308.299 131.215 308.225 131.583 308.225 131.956C308.225 132.328 308.299 132.697 308.441 133.04C308.584 133.384 308.793 133.697 309.057 133.96C309.32 134.223 309.633 134.431 309.978 134.573C310.322 134.715 310.691 134.788 311.064 134.787H444.669C445.421 134.787 446.142 134.489 446.673 133.958C447.205 133.427 447.503 132.707 447.503 131.956C447.503 131.205 447.205 130.484 446.673 129.953C446.142 129.422 445.421 129.124 444.669 129.124H311.064Z" fill="#E6E6E6"/>
<path d="M311.064 146.115C310.312 146.115 309.591 146.413 309.06 146.944C308.528 147.475 308.229 148.195 308.229 148.946C308.229 149.697 308.528 150.418 309.06 150.949C309.591 151.48 310.312 151.778 311.064 151.778H368.554C369.306 151.778 370.027 151.48 370.558 150.949C371.09 150.418 371.388 149.697 371.388 148.946C371.388 148.195 371.09 147.475 370.558 146.944C370.027 146.413 369.306 146.115 368.554 146.115H311.064Z" fill="#E6E6E6"/>
<path d="M186.426 147.26L144.755 169.396L144.228 150.949C157.829 148.681 170.769 144.731 182.734 138.3L187.092 127.542C187.567 126.369 188.338 125.341 189.331 124.556C190.324 123.772 191.505 123.259 192.756 123.069C194.007 122.878 195.286 123.015 196.468 123.467C197.65 123.92 198.694 124.672 199.498 125.649C200.673 127.079 201.261 128.901 201.141 130.748C201.022 132.595 200.205 134.327 198.855 135.594L186.426 147.26Z" fill="#FFB8B8"/>
<path d="M84.6084 275.065C84.3044 273.951 84.2399 272.785 84.4191 271.644C84.5982 270.503 85.017 269.414 85.6479 268.446L94.8017 254.409C96.9667 251.089 100.289 248.691 104.124 247.68C107.958 246.67 112.032 247.118 115.554 248.939C111.707 255.482 112.244 261.222 116.883 266.21C109.681 269.723 103.024 274.257 97.1199 279.672C96.042 280.406 94.8041 280.873 93.5093 281.032C92.2145 281.192 90.9004 281.04 89.6763 280.589C88.4522 280.138 87.3536 279.401 86.4721 278.441C85.5906 277.48 84.9516 276.322 84.6084 275.065Z" fill="#2F2E41"/>
<path d="M188.324 256.711C186.939 259.018 184.984 260.93 182.646 262.265C180.308 263.599 177.666 264.31 174.974 264.331L114.162 264.791L111.525 249.507L138.426 241.601L115.745 224.209L140.536 195.221L185.564 237.155C188.196 239.606 189.906 242.886 190.409 246.445C190.911 250.005 190.175 253.629 188.324 256.711Z" fill="#2F2E41"/>
<path d="M104.668 361.24H90.426C77.6389 273.661 64.6229 185.837 103.085 153.057L148.448 160.436L142.646 198.91L117.327 227.898L104.668 361.24Z" fill="#2F2E41"/>
<path d="M117.187 381.079C116.072 381.383 114.905 381.448 113.764 381.269C112.622 381.09 111.531 380.672 110.563 380.041L95.0994 377.964C91.7766 375.801 89.3764 372.482 88.3645 368.651C87.3526 364.819 87.8011 360.749 89.6231 357.229C96.1718 361.072 101.916 360.536 106.908 355.9C110.436 363.017 116.247 362.583 121.798 368.578C122.533 369.655 122.999 370.892 123.159 372.186C123.318 373.479 123.166 374.792 122.715 376.015C122.264 377.239 121.527 378.336 120.566 379.217C119.604 380.098 118.446 380.737 117.187 381.079Z" fill="#2F2E41"/>
<path d="M138.426 94.5555L112.052 88.231C116.432 79.2723 116.793 69.3038 114.69 58.7165L132.624 58.1894C133.186 71.3551 134.886 83.6551 138.426 94.5555Z" fill="#FFB8B8"/>
<path d="M145.674 176.305C126.475 189.377 112.91 176.752 102.558 157.274C103.996 145.355 101.667 131.091 97.3532 115.593C95.4347 108.757 96.151 101.45 99.3605 95.1163C102.57 88.7823 108.04 83.8807 114.69 81.3794L137.371 90.8662C156.63 106.552 160.421 123.543 153.195 141.463L145.674 176.305Z" fill="#FF6A18"/>
<path d="M90.4258 107.732L69.3269 118.8L106.778 140.935L111.989 153.779C112.336 154.636 112.506 155.555 112.486 156.48C112.467 157.405 112.26 158.316 111.876 159.158C111.493 160 110.942 160.755 110.258 161.377C109.573 162 108.768 162.476 107.893 162.778C106.898 163.121 105.837 163.229 104.794 163.093C103.75 162.958 102.752 162.583 101.878 161.998C101.003 161.413 100.276 160.634 99.7535 159.722C99.2309 158.809 98.9267 157.788 98.8649 156.738L98.3379 147.787L50.7387 132.092C49.1349 131.563 47.6727 130.677 46.4626 129.5C45.2525 128.323 44.3264 126.886 43.7544 125.298C42.9205 122.984 42.8781 120.459 43.6337 118.118C44.3893 115.777 45.9002 113.752 47.9301 112.361L86.2061 86.1228L90.4258 107.732Z" fill="#FFB8B8"/>
<path d="M111.525 109.84C102.725 105.987 94.7236 110.172 84.6237 113.529L83.0413 85.5958C93.07 80.2549 102.632 78.8149 111.525 82.9606L111.525 109.84Z" fill="#FF6A18"/>
<path d="M122.051 72.0258C131.351 72.0258 138.89 64.493 138.89 55.2009C138.89 45.9088 131.351 38.376 122.051 38.376C112.751 38.376 105.212 45.9088 105.212 55.2009C105.212 64.493 112.751 72.0258 122.051 72.0258Z" fill="#FFB8B8"/>
<path d="M142.195 53.078C125.524 54.7096 112.82 51.9852 104.701 44.228V37.981H140.781L142.195 53.078Z" fill="#2F2E41"/>
</g>
<defs>
<clipPath id="clip0_799_941">
<rect width="561" height="390" fill="white"/>
</clipPath>
</defs>
</svg>
