<svg width="17" height="17" viewBox="0 0 17 17" fill="none" xmlns="http://www.w3.org/2000/svg">
<path d="M7.46937 0.714844H9.53062C9.54823 0.714844 9.5625 0.729115 9.5625 0.746719V7.05797C9.5625 7.07557 9.54823 7.08984 9.53062 7.08984H7.46937C7.45177 7.08984 7.4375 7.07557 7.4375 7.05797V0.746719C7.4375 0.729115 7.45177 0.714844 7.46937 0.714844Z" fill="black"/>
<path d="M3.31521 3.53179C2.66532 4.16486 2.15288 4.89489 1.77791 5.72186C0.830514 7.80923 0.814576 9.87956 1.7301 11.9328C2.36184 13.35 3.37454 14.4678 4.76818 15.2864C6.06753 16.0496 7.47889 16.379 9.00225 16.2745C9.44407 16.2444 9.88014 16.1751 10.3104 16.0666C11.8316 15.6832 13.1026 14.903 14.1235 13.7258C15.124 12.5712 15.7119 11.2269 15.8872 9.69296C15.9386 9.24582 15.949 8.80422 15.9185 8.36815C15.8304 7.10245 15.4392 5.92684 14.7451 4.84132C14.1899 3.97317 13.4771 3.2469 12.6068 2.66253C12.5975 2.65609 12.5861 2.65328 12.5748 2.65463C12.5636 2.65597 12.5532 2.66138 12.5457 2.66983L11.1419 4.20714C11.1384 4.21093 11.1358 4.21546 11.1343 4.22038C11.1328 4.22531 11.1324 4.23051 11.1332 4.2356C11.1339 4.2407 11.1358 4.24555 11.1387 4.24982C11.1416 4.25409 11.1454 4.25766 11.1498 4.26026C12.0516 4.79683 12.736 5.5118 13.2031 6.40518C13.4045 6.79034 13.5579 7.20427 13.6633 7.64698C13.9812 8.98175 13.8039 10.2512 13.1314 11.4554C12.5249 12.5413 11.6443 13.3165 10.4897 13.7809C10.0816 13.9452 9.65413 14.0561 9.20744 14.1136C7.81999 14.292 6.56381 13.9841 5.43889 13.1899C5.0679 12.9283 4.74118 12.6319 4.45873 12.3007C3.87745 11.6198 3.4923 10.8345 3.30326 9.94464C3.18639 9.39524 3.15982 8.83853 3.22357 8.27452C3.27227 7.83934 3.37675 7.41035 3.53701 6.98757C3.97352 5.83475 4.73786 4.92942 5.83002 4.27155C5.83718 4.26716 5.84328 4.26123 5.84787 4.25419C5.85245 4.24714 5.85542 4.23914 5.85657 4.23077C5.85771 4.2224 5.85699 4.21386 5.85447 4.20576C5.85195 4.19765 5.84768 4.19019 5.84197 4.1839L4.47865 2.69108C4.46388 2.67505 4.44389 2.66482 4.42231 2.66226C4.40074 2.6597 4.37902 2.66498 4.36111 2.67714C3.97994 2.93834 3.63131 3.22322 3.31521 3.53179Z" fill="black"/>
</svg>
